<svg width="48" height="48" viewBox="0 0 48 48" fill="none" xmlns="http://www.w3.org/2000/svg">
  <rect width="48" height="48" rx="10" fill="#B5FE28"/>
  <path fill-rule="evenodd" clip-rule="evenodd" d="M28.38 24.56C30.28 24.56 32.14 22.64 32.14 19.82C32.14 17.01 30.28 15.08 28.38 15.08C26.48 15.08 24.62 17.01 24.62 19.82C24.62 22.64 26.48 24.56 28.38 24.56Z" fill="#1C1C1C"/>
  <path fill-rule="evenodd" clip-rule="evenodd" d="M32.14 19.82C32.14 22.64 30.28 24.56 28.38 24.56C26.48 24.56 24.62 22.64 24.62 19.82C24.62 17.01 26.48 15.08 28.38 15.08C30.28 15.08 32.14 17.01 32.14 19.82Z" fill="#B5FE28"/>
  <path fill-rule="evenodd" clip-rule="evenodd" d="M35.51 24.56H33.26C34.19 23.25 34.73 21.57 34.73 19.82C34.73 15.92 32.06 12.41 28.38 12.41C25.93 12.41 23.94 13.96 22.87 16.15C21.91 15.1 20.62 14.43 19.12 14.43C15.9 14.43 13.61 17.5 13.61 20.83C13.61 22.18 13.99 23.49 14.64 24.56H12.85L13.27 18.09C13.47 14.93 15.63 12.28 18.6 11.54L26.89 9.48C31.28 8.39 35.51 11.83 35.51 16.5V24.56Z" fill="white"/>
  <path fill-rule="evenodd" clip-rule="evenodd" d="M38.09 16.5C38.09 10.1 32.31 5.38 26.29 6.88L18 8.94C13.93 9.96 10.96 13.59 10.69 17.91L9.93 29.81C9.59 35.09 13.33 39.71 18.41 40.29L27.47 41.34C33.13 41.99 38.09 37.4 38.09 31.5V16.5ZM28.38 24.56C30.28 24.56 32.14 22.64 32.14 19.82C32.14 17.01 30.28 15.08 28.38 15.08C26.48 15.08 24.62 17.01 24.62 19.82C24.62 22.64 26.48 24.56 28.38 24.56ZM35.51 27.24H12.68L12.51 29.98C12.26 33.84 14.99 37.21 18.7 37.64L27.75 38.68C31.89 39.16 35.51 35.81 35.51 31.5V27.24ZM16.2 20.83C16.2 18.58 17.68 17.11 19.12 17.11C20.55 17.11 22.03 18.58 22.03 20.83C22.03 23.09 20.55 24.56 19.12 24.56C17.68 24.56 16.2 23.09 16.2 20.83Z" fill="#1C1C1C"/>
  <path fill-rule="evenodd" clip-rule="evenodd" d="M12.68 27.24H35.51V31.5C35.51 35.81 31.89 39.16 27.75 38.68L18.7 37.64C14.99 37.21 12.26 33.84 12.51 29.98L12.68 27.24Z" fill="#B5FE28"/>
  <path d="M19.12 17.11C17.68 17.11 16.2 18.58 16.2 20.83C16.2 23.09 17.68 24.56 19.12 24.56C20.55 24.56 22.03 23.09 22.03 20.83C22.03 18.58 20.55 17.11 19.12 17.11Z" fill="#B5FE28"/>
</svg>
