<svg width="250" height="250" viewBox="0 0 250 250" fill="none" xmlns="http://www.w3.org/2000/svg">
<path fill-rule="evenodd" clip-rule="evenodd" d="M124.234 72.7582L124.562 70.6296L123.464 69.7658C121.051 70.7966 119.116 71.5998 116.63 72.4428C118.689 74.8528 121.98 75.017 124.234 72.7582Z" fill="#1C1C1C"/>
<path d="M123.464 69.7658L124.562 70.6296L124.234 72.7582C121.98 75.017 118.689 74.8528 116.63 72.4428C119.116 71.5998 121.051 70.7966 123.464 69.7658Z" fill="#D9DBD5"/>
<path fill-rule="evenodd" clip-rule="evenodd" d="M212.851 191.468L212.673 191.717C212.733 191.633 212.792 191.549 212.851 191.468Z" fill="#1C1C1C"/>
<path fill-rule="evenodd" clip-rule="evenodd" d="M143.899 137.148C143.904 137.137 143.91 137.126 143.916 137.115C143.92 137.107 143.924 137.098 143.928 137.09M143.899 137.148C143.904 137.137 143.91 137.126 143.916 137.115Z" fill="#B5FE28"/>
<path fill-rule="evenodd" clip-rule="evenodd" d="M155.401 127.916C155.433 127.944 155.465 127.97 155.495 127.996C155.479 127.982 155.463 127.968 155.446 127.954C155.431 127.942 155.416 127.929 155.401 127.916Z" fill="#B5FE28"/>
<path fill-rule="evenodd" clip-rule="evenodd" d="M143.877 137.188C143.881 137.18 143.886 137.172 143.89 137.164C143.893 137.159 143.896 137.154 143.899 137.148" fill="#1C1C1C"/>
<path d="M119.637 116.162C119.55 116.75 119.467 117.301 119.385 117.797C109.918 114.672 101.926 112.521 91.6635 112.225C58.3775 111.267 24.736 133.865 13.2449 165.108C12.936 165.949 12.9651 166.087 13.0834 166.648C13.1194 166.819 13.1636 167.028 13.2091 167.309C13.5045 167.345 13.7092 167.378 13.8628 167.403C14.0597 167.434 14.1725 167.452 14.2842 167.447C14.4339 167.44 14.5816 167.391 14.9273 167.277C15.018 167.247 15.1228 167.212 15.2444 167.173C22.2885 149.144 41.6819 129.579 59.635 122.263C82.8034 112.823 99.6317 114.02 122.261 122.694C123.105 117.835 124.022 112.988 125.012 108.157C125.909 109.458 126.869 110.841 127.868 112.28C133.331 120.147 139.975 129.715 143.937 137.07C143.938 137.067 143.936 137.072 143.937 137.07C143.924 137.098 143.906 137.135 143.89 137.164C143.886 137.172 143.881 137.18 143.877 137.188C142.791 139.065 135.671 141.036 130.655 142.307C130.622 142.316 130.588 142.324 130.555 142.333C129.965 142.482 129.405 142.622 128.889 142.75C128.811 142.769 128.734 142.788 128.658 142.807C127.784 143.025 127.049 143.207 126.522 143.349L119.245 145.345C118.842 145.49 118.464 145.634 118.104 145.771C116.234 146.484 114.847 147.013 112.957 146.518C112.747 144.8 114.288 141.966 115.438 139.85C115.677 139.41 115.9 139.001 116.086 138.64C117.46 133.356 112.477 132.235 107.893 131.204C107.611 131.141 107.331 131.078 107.054 131.014C70.4228 122.607 40.1355 143.594 25.7203 176.671C25.8096 176.896 25.8715 177.064 25.9193 177.194C26.004 177.424 26.0441 177.533 26.1127 177.619C26.1741 177.696 26.2583 177.754 26.4179 177.865C26.5548 177.96 26.7474 178.094 27.0286 178.311C27.9878 177.703 30.7521 173 33.1969 168.84C34.7169 166.254 36.1134 163.878 36.8758 162.827C56.4125 135.897 81.4378 128.207 112.699 136.592C112.379 137.229 112.021 137.891 111.653 138.572C109.524 142.515 107.065 147.069 109.748 150.746C113.242 152.245 121.802 149.243 127.427 147.27C128.564 146.871 129.581 146.514 130.412 146.245L141.222 143.659C144.07 142.952 146.399 142.1 147.99 139.498C148.11 137.302 147.981 137.079 147.24 135.806C147.008 135.406 146.716 134.903 146.352 134.204C143.138 128.043 130.257 108.317 125.098 104.386L123.609 104.056C121.116 106.162 120.275 111.852 119.675 115.906L119.637 116.162Z" fill="#1C1C1C"/>
<path d="M144.729 154.113C144.263 153.425 143.923 152.921 143.074 152.548C141.278 155.856 139.839 161.101 141.158 164.805C141.427 165.563 141.797 166.034 142.312 166.627C142.375 166.699 142.435 166.772 142.496 166.845C142.536 166.894 142.576 166.943 142.617 166.992C142.85 167.268 143.098 167.531 143.346 167.793C144.967 163.22 145.73 159.223 144.921 154.395C144.854 154.298 144.791 154.204 144.729 154.113Z" fill="#B5FE28"/>
<path d="M157.265 151.509C155.91 150.309 154.839 149.804 153.028 149.66C154.107 154.337 157.459 159.885 161.684 162.381C162.505 162.866 162.96 162.778 163.707 162.634C163.87 162.603 164.047 162.569 164.244 162.537C163.983 158.263 160.343 154.234 157.265 151.509Z" fill="#B5FE28"/>
<path d="M160.684 137.407C160.389 137.397 160.094 137.386 159.8 137.376C159.735 137.63 159.675 137.851 159.62 138.051C159.28 139.297 159.177 139.673 159.91 141.193C163.478 143.329 169.423 143.117 173.872 142.958C174.349 142.941 174.809 142.924 175.246 142.912C175.263 142.769 175.293 142.597 175.327 142.408C175.443 141.752 175.592 140.907 175.297 140.518C173.771 138.511 171.181 138.12 168.828 137.874C166.131 137.592 163.398 137.499 160.684 137.407Z" fill="#B5FE28"/>
<path d="M168.244 120.651C167.559 118.969 167.16 118.728 165.188 118.295C164.672 118.654 164.095 119.039 163.483 119.446C160.163 121.657 155.849 124.531 155.063 127.635C155.741 128.194 155.969 128.427 156.243 128.51C156.566 128.609 156.953 128.498 158.223 128.472C158.621 128.24 159.048 127.997 159.494 127.744C162.689 125.928 166.864 123.556 168.244 120.651Z" fill="#B5FE28"/>
<path d="M213.028 79.3035C203.752 78.2095 182.888 75.749 180.174 74.211C180.084 74.9259 179.852 77.8314 179.678 80.009C179.569 81.3732 179.483 82.4517 179.468 82.5271C187.107 83.5256 194.721 84.7098 202.303 86.0768C205.716 83.0648 210.024 81.7492 214.364 80.4236C215.11 80.1958 215.857 79.9677 216.601 79.7307C215.839 79.635 214.599 79.4887 213.028 79.3035Z" fill="#D9DBD5"/>
<path fill-rule="evenodd" clip-rule="evenodd" d="M135.918 69.4384C134.04 69.2447 132.525 69.0886 131.538 68.9727L129.468 68.1196L128.458 75.3138C129.392 75.4544 130.77 75.6668 132.469 75.9286C143.537 77.6346 168.233 81.4408 172.729 81.1854C173.771 79.8729 173.752 79.2237 173.711 77.8277C173.699 77.3864 173.684 76.8702 173.699 76.2349C170.718 73.026 146.991 70.5799 135.918 69.4384Z" fill="#D9DBD5"/>
<path d="M154.806 32.0968C139.507 29.843 131.483 52.4442 129.927 64.9473L130.908 65.3903C136.223 65.6136 141.163 66.3951 146.389 67.2219L146.818 67.2899C147.282 59.6828 150.886 39.1798 157.296 34.5734C157.676 34.5491 157.967 34.5216 158.198 34.4998C158.634 34.4585 158.854 34.4377 159.048 34.4983C159.244 34.5597 159.415 34.7044 159.758 34.9955C159.964 35.1706 160.232 35.3985 160.606 35.6931C160.779 36.9581 158.817 40.4059 156.943 43.6978C155.623 46.017 154.347 48.2589 153.893 49.6055C152.125 54.8467 151.467 60.072 150.789 65.454C150.691 66.2331 150.593 67.0155 150.49 67.8017C151.761 67.9312 153.082 68.0584 154.433 68.1886C160.82 68.8037 167.899 69.4856 173.677 70.7895C173.165 58.4549 171.017 34.4845 154.806 32.0968Z" fill="white"/>
<path d="M165.033 30.9096L165.629 30.9827C168.747 30.6652 171.863 30.3222 174.975 29.9537C191.871 37.1139 193.448 51.6479 195.119 67.0514C195.344 69.1277 195.571 71.2198 195.838 73.3117L182.118 71.4522C180.687 70.8815 180.562 70.9299 179.515 71.3332C179.168 71.4668 178.72 71.6395 178.089 71.8415C178.063 57.0882 175.58 41.916 165.033 30.9096Z" fill="white"/>
<path fill-rule="evenodd" clip-rule="evenodd" d="M215.606 184.566C215.607 184.568 215.605 184.564 215.606 184.566Z" fill="#D9DBD5"/>
<path fill-rule="evenodd" clip-rule="evenodd" d="M143.89 137.164C143.886 137.172 143.881 137.18 143.877 137.188C142.791 139.065 135.671 141.036 130.655 142.307L130.555 142.333C129.965 142.482 129.405 142.622 128.889 142.75L128.658 142.807C127.784 143.025 127.049 143.207 126.522 143.349L119.245 145.345C118.842 145.49 118.464 145.634 118.104 145.771C116.234 146.484 114.847 147.013 112.957 146.518C112.747 144.8 114.288 141.966 115.438 139.85C115.677 139.41 115.9 139.001 116.086 138.64C117.46 133.356 112.477 132.235 107.893 131.204C107.611 131.141 107.331 131.078 107.054 131.014C70.4228 122.607 40.1355 143.594 25.7203 176.671C24.6215 175.586 22.7046 173.888 20.7012 172.113C18.7353 170.371 16.6859 168.555 15.2444 167.173C22.2885 149.144 41.6819 129.579 59.635 122.263C82.8034 112.823 99.6317 114.02 122.261 122.694C123.105 117.835 124.022 112.988 125.012 108.157C125.909 109.458 126.869 110.841 127.868 112.28C133.331 120.147 139.975 129.715 143.937 137.07C143.924 137.098 143.906 137.135 143.89 137.164Z" fill="#B5FE28"/>
<path d="M195.17 186.412C195.237 191.462 194.872 197.581 194.501 203.804C194.175 209.266 193.844 214.808 193.797 219.779C185.47 219.555 175.36 217.138 165.592 214.802C159.577 213.364 153.691 211.958 148.432 211.113C135.038 208.961 121.187 205.659 107.755 202.456C105.059 201.814 102.38 201.175 99.7243 200.55C97.3837 200 92.1489 197.825 90.5259 195.713C86.9753 189.543 89.1697 178.02 90.7511 169.716L90.7989 169.465L90.8222 169.342C91.0513 168.138 91.2658 167.003 91.4442 165.971C92.4316 167.215 93.2258 168.566 93.9058 169.97C94.8292 171.877 95.5418 173.882 96.2413 175.849C97.2794 178.769 98.2885 181.608 99.9143 183.923C108.405 196.014 133.891 200.358 146.972 202.588L147.198 202.626C166.888 205.983 181.033 204.561 192.057 186.445C192.332 185.994 193.523 186.181 194.388 186.317C194.72 186.369 195.004 186.414 195.17 186.412Z" fill="#D9DBD5"/>
<path fill-rule="evenodd" clip-rule="evenodd" d="M212.673 191.717L212.851 191.468L213.047 191.194C213.202 190.977 213.348 190.772 213.485 190.578L214.447 191.526C214.877 195.462 205.663 209.237 203.059 212.782L202.082 211.684C202.048 210.682 202.316 209.472 202.795 208.136C204.084 204.54 206.902 200.039 209.471 196.272C210.645 194.55 211.772 192.976 212.673 191.717Z" fill="#1C1C1C"/>
<path fill-rule="evenodd" clip-rule="evenodd" d="M222.755 190.974C220.824 189.899 218.923 188.841 216.666 188.787C217.373 191.39 220.609 193.372 222.845 194.623C224.776 195.703 226.59 196.585 228.83 196.72C228.022 193.88 225.801 192.655 223.337 191.296C223.161 191.199 222.984 191.101 222.807 191.003L222.755 190.974Z" fill="#1C1C1C"/>
<path d="M212.285 95.2958L212.278 95.2837L212.234 95.2093C210.668 102.831 212.678 179.73 215.198 183.924C215.236 183.987 215.278 184.05 215.32 184.112L215.338 184.138C215.375 184.192 215.412 184.246 215.446 184.301L215.456 184.317L215.466 184.333C215.493 184.376 215.519 184.42 215.545 184.464L215.574 184.512L215.579 184.521L215.606 184.566L215.637 184.618C216.96 175.725 215.226 100.059 212.389 95.4696L212.359 95.4189L212.345 95.3959C212.33 95.3716 212.316 95.3472 212.301 95.3226L212.285 95.2958Z" fill="#1C1C1C"/>
<path fill-rule="evenodd" clip-rule="evenodd" d="M220.941 82.4252C220.678 82.1055 220.676 82.1029 219.951 81.9672C219.27 82.2059 218.577 82.4453 217.877 82.6865L217.408 82.8482C213.42 84.2213 209.225 85.6663 205.563 87.4302C205.644 94.3612 205.052 102.581 204.508 110.127C204.359 112.209 204.212 114.239 204.085 116.177C202.942 134.203 201.688 152.222 200.324 170.233C200.14 172.698 199.949 175.138 199.759 177.562C198.643 191.834 197.572 205.519 198.107 220.126C198.835 219.728 199.608 219.314 200.401 218.889C202.913 217.541 205.629 216.084 207.799 214.69C209.57 213.592 212.011 212.308 214.679 210.903C222.532 206.77 232.354 201.599 232.876 197.113C234.68 181.612 231.834 163.552 229.08 146.083C227.613 136.775 226.172 127.634 225.476 119.137C224.807 110.981 222.749 89.476 221.526 83.0725C221.224 82.7691 221.057 82.5663 220.941 82.4252ZM212.851 191.468L212.673 191.717C211.772 192.976 210.645 194.55 209.471 196.272C206.902 200.039 204.084 204.54 202.795 208.136C202.316 209.472 202.048 210.682 202.082 211.684L203.059 212.782C205.663 209.237 214.877 195.462 214.447 191.526L213.485 190.578C213.348 190.772 213.202 190.977 213.047 191.194L212.851 191.468ZM212.278 95.2837L212.285 95.2958L212.301 95.3226C212.316 95.3472 212.33 95.3716 212.345 95.3959L212.359 95.4189L212.389 95.4696C215.226 100.059 216.96 175.725 215.637 184.618L215.606 184.566L215.579 184.521L215.574 184.512L215.545 184.464C215.519 184.42 215.493 184.376 215.466 184.333L215.456 184.317L215.446 184.301C215.412 184.246 215.375 184.192 215.338 184.138L215.32 184.112C215.278 184.05 215.236 183.987 215.198 183.924C212.678 179.73 210.668 102.831 212.234 95.2093L212.278 95.2837ZM216.666 188.787C218.923 188.841 220.824 189.899 222.755 190.974L222.807 191.003C222.984 191.101 223.161 191.199 223.337 191.296C225.801 192.655 228.022 193.88 228.83 196.72C226.59 196.585 224.776 195.703 222.845 194.623C220.609 193.372 217.373 191.39 216.666 188.787Z" fill="#D9DBD5"/>
<path fill-rule="evenodd" clip-rule="evenodd" d="M124.562 70.6296L124.234 72.7582C121.98 75.017 118.689 74.8528 116.63 72.4428C119.116 71.5998 121.051 70.7966 123.464 69.7658C123.382 69.4764 123.31 69.2009 123.241 68.938C122.884 67.5769 122.613 66.5446 121.45 65.5702C121.228 65.6165 121.047 65.6419 120.894 65.6635C120.411 65.7313 120.207 65.7601 119.873 66.277C118.098 69.0187 113.88 69.6451 109.999 70.2213C107.036 70.6614 104.269 71.0721 102.94 72.3737C100.013 75.2389 96.6403 103.513 96.7564 107.33L97.864 108.481C101.528 107.916 103.273 85.2368 103.883 77.2951C103.95 76.43 104.003 75.74 104.044 75.2726C110.625 76.1916 117.201 77.1485 123.772 78.1442C123.742 79.9952 123.503 82.0911 123.267 84.1618C122.841 87.8961 122.425 91.5493 123.257 93.539C123.892 93.7961 124.343 94.0017 124.693 94.1607C125.164 94.3754 125.451 94.5056 125.751 94.564C126.212 94.6538 126.706 94.5739 127.961 94.3709L128.008 94.3634C129.889 92.0716 129.442 88.2358 128.96 84.1069C128.756 82.352 128.545 80.5441 128.504 78.7793C138.85 80.9392 162.834 84.0839 173.727 85.18C173.728 86.988 173.488 88.8962 173.252 90.7746C172.722 94.9971 172.21 99.0706 174.494 101.524C174.899 101.644 175.202 101.743 175.439 101.819C175.864 101.958 176.076 102.027 176.289 102.029C176.502 102.031 176.716 101.967 177.143 101.838C177.383 101.766 177.691 101.673 178.105 101.56C180.429 99.0402 179.552 93.5888 178.852 89.2343C178.647 87.9554 178.456 86.7712 178.367 85.7836C186.152 87.1147 193.965 88.2789 201.799 89.2767C201.218 106.614 199.908 124.098 198.601 141.542C197.808 152.124 197.016 162.695 196.388 173.211C196.133 177.499 195.69 182.155 195.17 186.412C195.237 191.462 194.872 197.581 194.501 203.804C194.175 209.266 193.844 214.808 193.797 219.779C185.47 219.555 175.36 217.138 165.592 214.802C159.577 213.364 153.691 211.958 148.432 211.113C135.038 208.961 121.187 205.659 107.755 202.456C105.059 201.814 102.38 201.175 99.7243 200.55C97.3837 200 92.1489 197.825 90.5259 195.713C86.9753 189.543 89.1697 178.02 90.7511 169.716L90.7989 169.465L90.8222 169.342C91.0513 168.138 91.2658 167.003 91.4442 165.971C91.6431 164.86 91.8972 163.571 92.1734 162.169C93.3906 155.992 95.0368 147.638 94.2731 142.865C94.2063 142.445 93.6464 142.171 93.0927 141.901C92.933 141.823 92.7738 141.746 92.6271 141.665C89.6198 144.63 85.6403 177.696 85.0775 184.172C84.2208 194.023 87.4375 202.362 98.0798 204.587C111.727 207.441 125.349 210.227 139.039 212.898C144.785 213.849 151.282 215.406 158.041 217.026C172.052 220.385 187.192 224.014 199.113 223.071C204.984 221.393 210.503 218.051 216.002 214.722C220.33 212.102 224.644 209.49 229.107 207.702C238.985 203.746 238.379 190.285 237.517 182.203C235.86 166.683 233.626 151.802 231.329 136.506L231.196 135.618C230.164 128.744 229.492 121.758 228.82 114.77C227.656 102.655 226.491 90.5381 223.447 79.0073C222.574 76.0244 208.624 74.4156 201.836 73.6328C200.934 73.5287 200.157 73.4391 199.555 73.3629C199.478 69.3099 199.169 65.2648 198.632 61.2469C197.068 49.9094 193.91 37.6371 184.439 30.1964C180.076 26.7677 167.949 23.4409 164.275 28.8745L165.629 30.9827C168.747 30.6652 171.863 30.3222 174.975 29.9537C191.871 37.1139 193.448 51.6479 195.119 67.0514C195.344 69.1277 195.571 71.2198 195.838 73.3117L182.118 71.4522C180.687 70.8815 180.562 70.9299 179.515 71.3332C179.168 71.4668 178.72 71.6395 178.089 71.8415C178.063 57.0882 175.58 41.916 165.033 30.9096C142.986 20.3699 131.387 38.3339 126.379 57.8548C125.537 61.1401 124.334 67.378 124.562 70.6296ZM180.174 74.211C182.888 75.749 203.752 78.2095 213.028 79.3035C214.599 79.4887 215.839 79.635 216.601 79.7307C215.857 79.9677 215.11 80.1958 214.364 80.4236C210.024 81.7492 205.716 83.0648 202.303 86.0768C194.721 84.7098 187.107 83.5256 179.468 82.5271C179.483 82.4517 179.569 81.3732 179.678 80.009C179.852 77.8314 180.084 74.9259 180.174 74.211ZM131.538 68.9727C132.525 69.0886 134.04 69.2447 135.918 69.4384C146.991 70.5799 170.718 73.026 173.699 76.2349C173.684 76.8702 173.699 77.3864 173.711 77.8277C173.752 79.2237 173.771 79.8729 172.729 81.1854C168.233 81.4408 143.537 77.6346 132.469 75.9286C130.77 75.6668 129.392 75.4544 128.458 75.3138L129.468 68.1196L131.538 68.9727ZM129.927 64.9473C131.483 52.4442 139.507 29.843 154.806 32.0968C171.017 34.4845 173.165 58.4549 173.677 70.7895C167.899 69.4856 160.82 68.8037 154.433 68.1886C153.082 68.0584 151.761 67.9312 150.49 67.8017C150.593 67.0155 150.691 66.2331 150.789 65.454C151.467 60.072 152.125 54.8467 153.893 49.6055C154.347 48.2589 155.623 46.017 156.943 43.6978C158.817 40.4059 160.779 36.9581 160.606 35.6931C160.232 35.3985 159.964 35.1706 159.758 34.9955C159.415 34.7044 159.244 34.5597 159.048 34.4983C158.854 34.4377 158.634 34.4585 158.198 34.4998C157.967 34.5216 157.676 34.5491 157.296 34.5734C150.886 39.1798 147.282 59.6828 146.818 67.2899L146.389 67.2219C141.163 66.3951 136.223 65.6136 130.908 65.3903L129.927 64.9473ZM219.951 81.9672C220.676 82.1029 220.678 82.1055 220.941 82.4252C221.057 82.5663 221.224 82.7691 221.526 83.0725C222.749 89.476 224.807 110.981 225.476 119.137C226.172 127.634 227.613 136.775 229.08 146.083C231.834 163.552 234.68 181.612 232.876 197.113C232.354 201.599 222.532 206.77 214.679 210.903C212.011 212.308 209.57 213.592 207.799 214.69C205.629 216.084 202.913 217.541 200.401 218.889C199.608 219.314 198.835 219.728 198.107 220.126C197.572 205.519 198.643 191.834 199.759 177.562C199.949 175.138 200.14 172.698 200.324 170.233C201.688 152.222 202.942 134.203 204.085 116.177C204.212 114.239 204.359 112.209 204.508 110.127C205.052 102.581 205.644 94.3612 205.563 87.4302C209.225 85.6663 213.42 84.2213 217.408 82.8482L217.877 82.6865C218.577 82.4453 219.27 82.2059 219.951 81.9672Z" fill="#1C1C1C"/>
<path fill-rule="evenodd" clip-rule="evenodd" d="M96.2413 175.849C95.5418 173.882 94.8292 171.877 93.9058 169.97L194.388 186.317C193.523 186.181 192.332 185.994 192.057 186.445C181.033 204.561 166.888 205.983 147.198 202.626L146.972 202.588C133.891 200.358 108.405 196.014 99.9143 183.923C98.2885 181.608 97.2794 178.769 96.2413 175.849Z" fill="#B5FE28"/>
</svg>
