<svg width="77" height="140" viewBox="0 0 77 140" fill="none" xmlns="http://www.w3.org/2000/svg">
<path d="M16.5645 123.976C17.085 125.936 17.8304 129.066 18.48 130.882C28.0534 136.078 41.8118 136.2 52.1597 133.389C56.8485 132.115 58.1728 130.022 59.0139 125.655C62.1079 126.78 67.5421 129.349 64.0275 133.303C59.5719 138.313 50.7273 139.007 44.4977 139.793C38.1057 140.599 9.91436 139.354 9.38135 130.402C10.5598 127.557 13.9328 125.78 16.5645 123.976Z" fill="#D9DBD5"/>
<path d="M32.5263 5.63991C31.631 4.19744 31.1812 4.04712 31.227 2.64796C41.0086 7.60247 38.0562 1.63693 40.155 0L40.8171 0.451794C40.9212 1.79182 40.7171 2.28486 40.3965 3.56617C41.9081 5.96972 44.9562 4.75877 46.8967 3.87223C47.0799 5.20267 46.8134 5.12731 46.118 6.57768C47.9544 8.98873 48.7373 10.0981 50.2031 12.7336C52.181 11.4273 53.2096 10.7131 55.4124 9.72537C53.6302 11.7483 52.7848 12.7086 50.7194 14.4717C51.0234 16.1165 51.6855 20.8208 52.51 21.8564C53.3637 21.6086 54.3755 21.1676 55.1334 21.333L55.1168 22.0175C54.0008 23.0132 53.6302 23.3026 52.3976 24.1396C52.4559 25.667 52.4017 28.6315 52.9098 29.8845C53.7926 29.8695 55.1668 29.6804 55.7872 30.0406C55.2625 31.2191 53.9925 31.6551 52.7765 32.3159C52.7807 33.8537 52.6058 36.8436 53.1805 38.1057L55.1334 38.304L55.4374 38.9894C54.9085 39.9297 54.1049 40.1728 53.1138 40.6763C52.5017 42.242 52.7349 51.0946 52.8556 53.1034L53.2929 53.7034C55.4 53.4952 57.1489 51.5006 57.507 49.4676C56.5493 45.2993 61.2131 44.3195 57.278 40.7812L57.4987 40.0146C58.4773 39.9792 58.0025 39.9713 58.9228 40.0287C60.2387 38.3739 58.8854 34.8619 59.6474 33.5485C60.1346 32.7132 61.6753 30.4978 62.2708 29.6417L61.4963 27.7911L61.7544 27.2594C63.6616 27.6491 65.0233 28.3416 66.8014 27.9839C67.2136 27.0953 67.8591 25.4251 68.4962 24.8404C69.2291 25.3064 69.3832 26.1484 69.5039 27.1203C69.8246 29.6896 70.8406 30.5716 72.8019 32.2972C73.4141 32.1069 73.9387 31.9316 74.5384 31.7109L74.8007 32.6557C72.9602 34.8086 73.5473 36.1848 73.8846 38.9244C73.9637 39.5166 74.0428 40.1083 74.1303 40.6988C75.2005 41.2709 74.8299 41.071 76.1791 41.1335L76.4414 41.8073C75.4087 42.5426 75.6627 42.3607 74.4468 42.835C73.718 43.9989 73.185 48.6444 73.6556 49.9124L75.392 50.5466L75.4462 51.232C73.4973 52.2085 71.1404 53.6934 72.0107 56.3493L73.4099 57.1901L73.3808 57.8638L72.9102 58.1845C70.3326 59.9717 67.7591 61.4945 71.3195 63.6482L71.5111 64.2529L70.978 64.9033L68.7169 63.7619C67.8549 64.1992 64.7693 66.5548 64.4153 67.4172L65.6313 68.8551L65.319 69.4951C63.0787 68.9242 59.764 67.757 58.0692 69.9086L58.3815 72.0307L57.8526 72.4675L57.203 72.2339C55.8705 68.7897 55.3458 69.7412 51.4814 69.8578C51.3357 72.1356 51.1775 74.2302 51.2025 76.5205C52.0603 77.1426 52.1894 77.1638 53.1805 77.5773C52.002 80.2124 51.1525 77.0431 50.5237 82.7151C65.9936 85.2781 67.8257 87.0112 65.4813 102.558C65.2856 102.748 63.012 104.928 63.0037 104.963L60.7134 116.641C60.4344 117.784 60.1554 118.597 60.1096 119.766C59.7973 121.933 59.6141 123.532 59.0144 125.655C58.1733 130.022 56.849 132.115 52.1602 133.389C41.8123 136.2 28.0539 136.077 18.4805 130.881C17.8309 129.066 17.0855 125.936 16.565 123.976L14.2248 111.919L13.7459 109.554L13.6459 108.918C12.9547 104.847 11.8262 105.398 10.7269 102.393C5.58414 88.3396 10.7352 84.7289 23.2443 82.9987C24.327 82.8392 25.4222 82.7226 26.5174 82.6489L25.9136 76.321C24.173 76.0362 19.0219 74.844 17.9267 75.3858C17.4062 76.8424 17.6893 76.8674 16.665 77.4025L15.8946 77.0752C16.0945 74.8961 16.4401 75.2708 15.549 73.7738L12.4467 71.9882L12.0011 72.4042C11.4848 72.8902 11.6471 72.6724 11.4015 73.0605L10.7061 72.6591L10.0773 73.6106L9.72751 73.3657C9.96487 72.8889 10.9434 71.1999 10.7477 70.8822C9.27776 68.4928 7.56627 66.4028 4.79295 67.1595C5.18438 65.1361 6.62104 64.6764 5.70492 62.2687C4.87209 60.0854 3.79357 59.5536 1.74064 58.6979L1.12852 58.4497L1.2951 57.7497L2.07379 57.7722C2.87331 57.7914 3.03985 57.8147 3.81855 57.5757C4.50563 54.201 2.80669 52.1577 0.20409 50.5087L0.00416822 49.8791C1.57405 48.8588 1.81557 50.4962 2.86494 49.075C2.89409 47.2923 3.09397 45.9443 2.39856 44.3241C1.41998 43.8835 1.4325 43.9097 0.395625 43.627L0 42.957L0.487224 42.2682C1.49495 42.1054 1.47413 42.1766 2.46937 42.4756C3.49791 41.7856 3.68114 39.6636 4.39737 37.8392C3.96014 36.7003 3.73942 36.3685 3.13145 35.3332L3.31887 34.5075L3.97262 34.3272C4.62223 35.058 4.84292 35.3516 5.62578 35.9246C8.64479 34.1477 8.91132 34.8469 9.03625 31.1853L9.54426 30.7573L10.3271 31.045L10.4354 31.6571C10.5686 32.3638 10.6936 32.916 10.8601 33.608C12.226 34.4396 12.5758 34.4979 14.1332 34.9714C14.8369 34.2581 14.916 34.1406 15.778 33.6276L16.2735 34.3522C15.27 37.3375 15.7822 36.3118 17.2354 38.9856C20.7417 45.4409 16.4151 55.4057 24.0105 59.9763L24.5685 59.9721C24.935 57.1105 24.7892 48.9534 24.4144 46.0759C23.565 45.3622 23.4817 45.4634 22.3574 45.2739L22.0909 44.5677C23.3734 43.2222 24.8267 45.2835 24.7309 41.3405C24.6726 38.9869 23.8606 38.6275 22.0617 37.3462L22.0742 36.4722C23.0902 36.1403 23.2152 36.2385 24.3021 36.3126C25.0183 35.0738 24.9267 31.3915 24.6685 30.0298C23.5317 29.3756 23.1569 29.2286 21.9743 28.7547L21.6911 28.076L22.0034 27.4388C23.1361 27.5275 23.3193 27.6362 24.4144 27.9939C26.534 24.7342 26.4133 20.2511 22.8196 18.0362L23.1777 17.4765C24.2895 17.6273 24.6976 17.708 25.8344 17.6801C26.9296 15.6618 27.0088 14.3222 27.7375 12.3213C26.7089 11.1537 25.6887 10.3371 25.5221 8.86047L26.0759 8.61645C27.3835 9.35059 27.421 9.50217 28.4079 10.5824C30.0028 8.33704 30.54 7.60664 32.5263 5.63991Z" fill="#0C0C0C"/>
<path d="M14.6616 104.976C26.2713 108.198 35.0493 108.733 47.142 108.013C52.3764 107.418 55.9075 106.595 61.0128 105.363C59.6886 112.321 58.7475 120.021 57.1735 126.818C55.7118 133.145 43.9273 133.34 38.5639 133.521C32.0969 133.437 24.2517 133.318 19.2922 128.815C17.639 120.65 16.0858 113.246 14.6616 104.976Z" fill="#F2F2F2"/>
<path d="M47.1416 108.013C52.376 107.418 55.9071 106.595 61.0124 105.363C59.6882 112.32 58.7471 120.021 57.1731 126.818C55.7114 133.144 43.9269 133.339 38.5635 133.521C43.5438 131.89 48.3659 113.527 48.7531 108.524L47.1416 108.013Z" fill="#D9DBD5"/>
<path d="M36.0779 6.31283C37.4896 5.97428 38.3307 5.5941 39.6674 6.08713C46.1052 14.6049 41.812 82.3336 41.229 95.7272L36.1321 95.7051C34.1583 73.1533 33.5378 47.5733 34.2374 24.8924C34.3498 21.2534 37.0274 9.52963 36.4486 6.84999L36.0779 6.31283Z" fill="#668D1B"/>
<path d="M41.3374 6.03014C43.0572 6.71015 44.398 7.46096 45.5973 8.91425C55.9744 21.4792 49.5699 77.8776 47.3796 95.4195L42.645 95.6965L42.7491 88.7536C44.1024 87.7829 45.2642 87.1304 46.1637 85.7445L45.6265 85.4068L44.0025 85.8112L43.3112 85.8645C43.0489 83.5267 43.6943 76.0462 43.8692 73.3308C45.1143 72.3922 46.1678 71.9529 46.5884 70.6836L45.9929 70.3068C44.9519 70.9805 45.3683 70.8319 44.1816 71.0921C43.7526 69.7846 44.1232 64.7335 44.1982 63.0366C45.1934 62.205 46.3802 61.4538 46.8299 60.357L46.3427 59.998L45.0102 60.4548C43.7818 59.0015 44.3981 51.7259 44.473 49.4044C45.5307 48.4987 46.78 47.6288 47.3338 46.3937L46.9715 45.8011C46.3094 46.1647 45.6473 46.5249 44.9852 46.8809C44.3772 45.6142 44.5438 37.188 44.5105 35.1455C45.4599 34.2948 45.9971 33.7751 46.8674 32.8452L46.5468 32.1602C46.0054 32.2618 45.5765 32.3455 45.0393 32.4838L44.6479 32.5891C44.2024 30.866 44.269 25.0524 44.2399 22.9691C45.3434 22.0117 46.426 21.4992 46.755 20.0296C45.4391 19.9759 45.4724 20.3282 44.1107 21.2943C43.7276 13.8958 43.5319 13.0188 41.3374 6.03014Z" fill="#B5FE28"/>
<path d="M29.5066 95.5308C27.9825 77.7365 22.2651 24.0452 30.8391 10.4638C32.03 8.5799 33.8456 6.78805 36.0776 6.31084L36.4482 6.84801C34.2953 9.8158 35.0407 13.8834 33.4417 15.0685L31.4679 14.5371L31.1389 14.971C31.6761 16.2057 32.384 16.3431 33.7082 17.2584C33.5291 19.3022 33.1876 26.315 32.0675 27.4118C31.0764 26.9263 31.293 26.9954 30.2103 26.7089L29.8605 27.2236C30.381 28.2813 31.5928 28.766 32.6797 29.3973L32.6088 40.4877C31.7094 39.7715 31.2513 39.45 30.2769 38.8391L29.8938 39.1235C30.635 40.7859 31.1264 40.9674 32.638 42.1201C32.6879 44.6036 33.0503 52.6004 32.2507 54.4289C31.4512 53.9533 30.7891 53.5253 30.0146 53.006L29.7272 53.6406C30.3435 54.7795 31.8218 55.7685 32.8961 56.6151C32.9586 58.713 33.4208 68.1173 33.0002 69.4182C32.1591 69.1646 31.9967 69.083 31.2597 68.6553L30.6142 68.2759L30.2894 68.6474C30.6142 69.8758 32.3507 71.108 33.3875 72.0199C33.4292 74.2528 34.1371 81.8328 33.6457 83.4493C32.5256 83.3552 32.7088 83.309 31.6636 82.7376L31.3388 82.5577L31.014 83.0187C31.3263 84.1664 33.2043 85.3723 34.237 86.191C34.3703 89.3395 34.6118 92.5809 34.8075 95.7348L29.5066 95.5308Z" fill="#E6FEB6"/>
<path d="M10.1059 35.5227C19.0297 37.5631 15.4777 48.5398 18.176 55.2654C20.129 60.1212 20.6912 60.4414 25.1302 62.8175C25.1052 66.5315 25.4508 70.564 25.6965 74.2955C7.25349 73.0838 2.57711 55.6497 5.3671 40.2103C6.01254 38.8603 7.1827 36.6449 8.6818 36.3085C8.8442 36.866 8.97743 36.9651 8.81086 37.4494C7.42003 41.5886 9.27728 47.7291 8.68597 51.4881L7.6949 51.6821L7.69073 52.3325C11.1386 56.5337 9.9435 58.9215 12.8626 63.3842C16.2522 68.5632 20.2206 69.4368 25.7298 70.6219C22.5026 68.748 17.2475 67.0865 15.1779 64.379C9.55626 57.0235 9.2356 44.1779 10.1059 35.5227Z" fill="#B5FE28"/>
<path d="M66.5925 29.6311C76.9654 31.8094 71.0523 56.7947 66.8507 62.5491C64.2939 66.0504 53.6004 70.5835 51.8223 67.0527C51.993 65.3121 51.8181 65.0905 54.1333 64.9381C58.768 64.6333 63.4319 62.0711 65.5223 57.8749C67.0714 54.7668 68.7371 52.9558 68.3664 49.6415C66.6591 49.7044 65.4099 55.924 64.1981 57.6567C62.7074 59.79 62.6033 59.8628 60.5045 61.5185C58.0602 62.9368 54.7871 65.0826 52.5801 62.7407C51.8389 60.7515 52.2845 58.151 52.4469 55.9315C63.9441 52.561 58.5765 40.9555 62.4158 32.6809C62.7865 31.8801 64.5521 30.2365 65.26 29.5603C64.9768 33.0644 64.5521 40.7619 63.8608 44.4771C63.6943 45.3837 63.4278 43.9062 62.6407 45.7705C63.8233 49.3109 62.0744 50.7142 60.6295 54.6331L61.3165 54.7817C65.6181 51.7461 66.2302 34.8134 66.5925 29.6311Z" fill="#B5FE28"/>
<path d="M59.3224 55.6457C59.7804 55.8769 59.5347 55.6974 59.9428 56.3162C59.3349 57.5071 57.8357 58.2554 56.649 59.0175L56.041 58.8134C56.3034 57.6916 58.1939 56.5514 59.3224 55.6457Z" fill="#22261F"/>
<path d="M10.8145 92.3977C21.8453 98.3682 34.421 97.4954 46.6636 97.3617C48.5625 97.4933 49.312 97.2227 50.6737 98.2162C51.5149 100.369 50.4155 103.593 49.7784 106.02C36.6905 107.417 24.348 106.897 12.0637 101.991C11.564 98.965 11.2059 95.4721 10.8145 92.3977Z" fill="#F2F2F2"/>
<path d="M64.3737 92.6784C64.3904 100.813 64.3113 103.66 55.2584 105.161C53.4595 105.459 51.6064 105.787 49.7784 106.021C50.4155 103.594 51.5148 100.37 50.6737 98.2175C49.312 97.224 48.5624 97.4946 46.6636 97.363C53.2638 96.5956 58.5564 96.0076 64.3737 92.6784Z" fill="#D9DBD5"/>
<path d="M50.12 88.6563C50.12 87.2584 49.9409 86.1079 50.6113 84.9298C53.0848 84.1745 62.704 87.0973 63.9283 90.0247C63.3494 91.4917 63.7659 90.8025 62.221 91.9094C60.293 92.1076 60.2513 90.691 57.782 90.3303L57.0033 90.4869C57.6196 90.9345 60.4137 92.3458 61.1841 92.7514C57.2573 94.3933 53.1889 94.8643 48.9956 95.5776C49.3912 93.6567 49.6452 91.8527 49.9242 89.9177L50.12 88.6563Z" fill="#F2F2F2"/>
<path d="M49.9242 89.915C50.7362 89.9683 56.691 90.5088 57.0033 90.4842C57.6196 90.9319 60.4137 92.3431 61.1841 92.7487C57.2573 94.3906 53.1889 94.8616 48.9956 95.5749C49.3912 93.654 49.6452 91.85 49.9242 89.915Z" fill="#30302F"/>
<path d="M50.1191 88.6567C52.8091 88.9648 55.2909 89.1572 57.7811 90.3307L57.0024 90.4872C56.6901 90.5118 50.7353 89.9713 49.9233 89.918L50.1191 88.6567Z" fill="black"/>
<path d="M24.2898 84.595C25.4349 84.3972 25.4474 84.2848 26.5009 84.6966C27.0048 85.8788 26.9715 85.7939 26.834 87.0814C24.956 89.5728 19.7716 88.7604 14.4415 91.9147L13.921 92.2271C12.2637 91.3534 11.2559 91.1985 11.8223 89.2613C14.5373 86.3639 20.4837 85.3762 24.2898 84.595Z" fill="#F2F2F2"/>
<path d="M26.7589 89.6972L27.0712 89.9046C27.7208 91.696 27.6958 93.8326 27.8082 95.7764L18.1516 94.0146C16.615 93.5498 16.565 93.8326 15.8696 92.792C17.2813 90.7003 24.2687 89.9208 26.7589 89.6972Z" fill="#30302F"/>
</svg>
