<svg width="368" height="368" viewBox="0 0 368 368" fill="none" xmlns="http://www.w3.org/2000/svg">
<path d="M132.384 11.2362C130.146 11.1368 128.33 11.1371 126.089 11.4319C119.312 12.2611 113.145 15.7624 108.96 21.1583C104.271 27.3197 103.197 33.692 102.734 41.2183C102.337 47.6644 101.98 54.1128 101.624 60.5617L92.0244 230.913L88.3855 292.848C88.0011 300.007 87.5307 307.189 87.2551 314.355C86.8758 324.205 89.6069 333.835 97.8734 339.952C101.247 342.397 105.121 344.066 109.218 344.832C114.189 345.783 122.643 346.276 127.963 346.729L201.414 353.271C209.967 354.05 229.576 356.219 237.486 354.988C246.843 353.625 253.761 348.845 257.811 340.182C261.235 332.858 261.369 324.842 261.951 316.917L263.447 295.592L269.915 206.233C270.64 195.144 271.424 184.06 272.266 172.979L273.246 159.569C273.393 157.509 273.498 155.31 273.773 153.248C273.859 152.602 274.685 150.711 274.724 150.219C275.268 143.371 275.969 136.285 276.143 129.434C276.161 128.726 275.635 127.844 275.29 127.309C275.475 124.997 275.554 121.375 276.452 119.362C276.612 119.004 277.04 118.165 277.075 117.8C277.303 115.438 277.449 112.861 277.59 110.505C277.849 106.136 278.29 101.767 278.355 97.3988C278.365 95.8363 277.562 94.4462 277.693 92.8695C277.867 90.7699 277.941 88.5782 278.139 86.4892C278.202 85.8193 278.322 83.2946 278.495 82.8511C280.602 77.4529 279.506 71.7007 279.62 66.1273C279.902 52.4228 284.315 36.7642 273.611 25.6355C264.056 15.3247 250.152 15.9602 237.159 15.4577L213.689 14.5441L132.384 11.2362Z" fill="#0C0C0C"/>
<path d="M132.897 13.2576C131.956 13.164 130.32 13.1458 129.367 13.1486C122.84 13.1903 116.596 15.8172 112.004 20.454C104.382 28.2846 104.827 39.3421 104.221 49.481L102.767 73.5969L92.1886 260.162L90.1227 295.312C89.2932 309.002 86.0109 326.15 96.9377 336.581C104.433 343.735 114.73 343.705 124.403 344.506L147.167 346.461C163.599 348.029 180.043 349.478 196.498 350.808C205.189 351.579 216.279 353.099 224.893 352.889C237.927 352.298 247.161 344.329 249.188 331.42C250.771 321.338 251.226 310.836 252.009 300.647L264.99 115.783C266.092 101.088 267.108 86.3864 268.038 71.6793C268.573 64.0078 269.173 56.3977 269.655 48.694C270.362 40.056 268.937 32.2924 262.905 25.7029C255.468 17.5793 246.674 17.7517 236.63 17.3481L215.241 16.5225L132.897 13.2576Z" fill="#424240"/>
<path d="M134.902 19.3674C130.702 18.9987 126.191 19.0806 122.251 20.7453C117.588 22.7157 113.607 27.2513 111.769 31.9093C109.445 37.8036 109.096 59.8887 108.702 67.4987L99.5146 231.036L96.4244 283.569C95.7796 293.927 95.0286 304.383 94.6417 314.754C94.5001 318.479 95.1525 322.785 96.69 326.209C98.8141 330.832 102.721 334.397 107.518 336.092C112.384 337.857 124.496 338.309 130.242 338.818L202.201 345.19C209.632 345.875 217.334 346.768 224.794 346.809C227.98 346.826 230.856 345.729 233.701 344.404C235.161 343.653 236.505 342.694 237.691 341.559C245.091 334.562 244.475 323.577 245.09 314.154L246.647 292.331L251.246 229.309L259.338 114.323L262.21 72.4248C262.784 64.0252 263.211 55.83 263.767 47.2185C264.346 38.2621 260.797 28.8667 251.769 25.4033C246.052 23.2106 237.806 24.0054 231.681 23.3441C225.02 22.6249 228.018 30.4188 223.924 33.4329C220.147 36.3776 213.783 35.3588 209.204 35.1866L193.158 34.5228C180.974 33.9789 168.709 33.8532 156.549 33.0399C145.311 32.2884 150.1 23.3904 146.944 20.5665C145.306 19.1011 137.378 19.4723 134.902 19.3674Z" fill="#1C1C1C"/>
<path d="M132.427 21.1014C128.373 20.9279 124.686 21.3148 121.153 23.4064C112.257 28.6766 112.131 37.7753 111.628 46.8233L110.72 62.8398L106.975 130.265L100.025 252.286L97.608 293.548C97.1857 300.747 96.6572 308.086 96.4043 315.283C96.3386 319.534 97.3602 323.597 99.5197 327.246C105.189 336.815 117.368 335.877 127.005 336.777L165.205 340.136L204.681 343.542C207.27 343.764 209.877 344.027 212.467 344.245C220.764 344.945 226.829 346.475 234.287 341.83C242.581 335.928 242.383 326.968 242.994 317.718L243.98 303.8L248.116 246.748L257.486 114.181L260.344 72.6737C260.969 63.8407 261.645 54.8559 261.98 46.0057C262.132 41.9726 261.363 37.9342 259.267 34.4265C256.901 30.3868 253.002 27.4746 248.457 26.3516C246.367 25.8337 229.86 24.6318 229.577 25.6438C225.915 38.7606 221.661 37.7741 207.721 37.1022L191.282 36.3382L167.276 35.374C154.389 34.8728 147.402 36.7267 145.597 22.4808C145.422 21.1234 134.063 21.1661 132.427 21.1014Z" fill="#B5FE28"/>
<path d="M177.576 25.5305C178.307 25.0228 180.475 24.677 182.382 24.6671C188.21 24.6368 196.701 25.5352 197.452 27.0608C198.203 28.5864 193.131 28.9428 190.239 28.7908C187.55 28.6496 174.105 27.9403 177.576 25.5305Z" fill="#1C1C1C"/>
<path d="M170.904 22.6577C169.733 22.2951 168.456 22.5966 167.571 23.4455C166.686 24.2941 166.329 25.5565 166.64 26.7427C166.954 27.9292 167.885 28.8525 169.073 29.1549C170.848 29.6061 172.659 28.5607 173.157 26.7984C173.653 25.0361 172.654 23.1992 170.904 22.6577Z" fill="#1C1C1C"/>
<path d="M170.223 23.9873C169.279 23.8004 167.916 24.4736 167.664 25.39C167.406 26.3238 168.161 27.4881 169.251 27.7331C170.805 28.0826 171.47 27.3732 171.703 26.286C171.928 25.2422 171.015 24.1439 170.223 23.9873Z" fill="#424240"/>
<path d="M276.482 83.0506C272.777 82.6349 272.867 80.8913 273.149 77.6567C273.373 75.0812 273.18 70.9236 274.168 68.5066C274.506 67.6822 276.632 67.7085 277.478 67.2053C278.182 64.2428 279.044 46.286 278.817 43.3094C278.615 40.3009 277.965 37.3395 276.891 34.5219C274.03 27.1968 269.001 23.2262 262.014 20.2012C261.852 21.0519 261.957 21.0608 261.453 21.6917C264.903 25.2901 267.4 27.2765 269.468 32.3029C271.029 36.0963 271.782 40.9028 271.58 44.9845C271.045 55.8139 270.137 66.7314 269.447 77.5455L253.373 307.367C253.093 311.196 252.734 315.262 252.496 319.063C251.449 335.768 249.523 346.722 232.911 353.661C238.396 353.206 242.003 352.678 246.821 349.808C260.035 341.936 259.348 325.367 260.354 311.858L263.04 275.039L268.62 197.29C269.735 182.749 270.75 168.204 271.662 153.651C271.061 153.534 270.473 153.374 269.909 153.132C269.075 152.775 268.39 152.126 268.089 151.257C267.396 149.259 268.821 130.123 269.778 128.11C270.522 126.544 271.426 126.697 272.847 126.199C274.107 124.938 273.858 122.843 273.897 121.023L273.702 120.971C269.494 119.8 269.904 118 270.256 114.018C270.796 107.914 270.798 101.476 271.798 95.4747C271.962 94.4915 274.802 93.4638 275.695 93.1619C276.198 91.1955 276.372 85.2881 276.482 83.0506Z" fill="#B5FE28"/>
<path d="M275.557 95.1813C274.694 95.2473 274.754 95.2534 274.012 95.7157C272.631 97.6413 272.037 114.084 271.97 117.575C271.962 117.987 272.503 118.706 272.751 119.03C274.573 119.415 275.243 118.437 275.343 116.741C275.733 110.089 276.423 103.368 276.397 96.71C276.395 96.2396 275.848 95.5488 275.557 95.1813Z" fill="#B5FE28"/>
<path d="M273.025 127.826C272.513 127.952 272.209 127.921 271.83 128.297C270.781 129.359 270.813 131.814 270.704 133.309C270.306 138.747 269.842 144.216 269.59 149.665C269.544 150.673 270.252 151.184 270.92 151.849C272.826 151.542 272.972 150.296 273.067 148.568C273.412 142.234 274.282 135.785 274.19 129.458C274.186 129.182 273.246 128.086 273.025 127.826Z" fill="#B5FE28"/>
<path d="M277.126 69.1488L276.199 69.3903C275.083 70.6079 274.428 79.8493 275.442 81.4265C276.131 81.2889 276.125 81.3127 276.732 80.9759C277.122 80.3889 277.4 79.5969 277.403 78.9018C277.415 76.3383 278.669 71.2204 277.126 69.1488Z" fill="#B5FE28"/>
<path d="M262.014 20.2012C259.936 19.4479 258.902 19.1158 256.754 18.6563C258.286 19.6152 260.007 20.6407 261.453 21.6917C261.957 21.0608 261.852 21.0519 262.014 20.2012Z" fill="#B5FE28"/>
<path d="M304.326 164.588L303.788 165.123C303.864 165.795 303.728 165.637 304.44 166.164C306.446 167.649 308.527 169.047 310.533 170.539C314.321 173.356 317.943 176.391 321.381 179.627C330.803 188.579 341.654 203.135 345.416 215.92C355.955 251.748 315.077 264.235 287.384 264.015C285.905 264.002 278.587 263.643 277.611 263.937L277.419 264.372L277.746 264.966C287.198 266.251 301.969 264.882 311.274 262.677C376.953 247.12 343.033 188.139 304.326 164.588Z" fill="#747572"/>
<path d="M12.2569 142.434L11.6879 142.698C11.3768 143.276 11.2631 143.593 11.5412 144.275C19.9519 164.921 40.5437 178.875 58.8773 189.959C59.4033 189.86 59.2212 189.891 59.6966 189.509C59.4336 188.201 54.2294 185.475 52.8841 184.628C48.828 182.094 44.8805 179.391 41.052 176.526C28.4435 167.002 18.2779 157.35 12.2569 142.434Z" fill="#747572"/>
<path d="M25.5836 115.562C20.7208 119.678 17.9544 123.002 17.2337 129.694C16.2752 138.587 21.8942 147.244 27.2273 153.776C30.8056 158.157 43.3053 169.829 48.1327 171.809L48.689 171.756L48.8357 171.376C48.2541 170.373 42.137 165.989 40.688 164.824C26.714 153.575 6.84544 131.58 27.0478 116.246C26.5749 116.072 26.0439 115.787 25.5836 115.562Z" fill="#747572"/>
<path d="M357.11 225.123C356.277 225.474 356.089 225.606 356.265 226.68C359.15 244.255 346.886 257.43 331.333 263.287C328.922 264.195 325.92 265.065 323.425 266.031C322.821 266.769 322.998 266.329 323.1 267.472C325.709 266.784 328.28 265.96 330.802 264.999C343.012 260.285 354.138 252.241 357.252 238.798C358.123 235.036 358.514 228.792 357.11 225.123Z" fill="#747572"/>
<path d="M27.0478 116.246C38.3818 107.23 57.4868 103.535 71.7895 103.634C73.4863 103.645 80.9816 104.161 81.9602 103.568L82.0437 103.134C81.6289 102.808 81.3963 102.723 80.8728 102.668C62.6657 100.757 40.2935 104.549 25.5836 115.562C26.0439 115.787 26.5749 116.072 27.0478 116.246Z" fill="#1C1C1C"/>
<path d="M296.321 150.455C296.144 150.53 295.923 150.789 295.764 150.945C295.803 152.198 298.034 152.971 299.11 153.556C314.34 161.85 326.551 172.458 337.877 185.448L338.391 185.109C338.512 184.879 338.765 184.583 338.608 184.373C328.729 170.999 310.415 157.768 296.321 150.455Z" fill="#1C1C1C"/>
<path d="M79.8992 93.4189C75.5017 93.23 69.1064 93.5299 64.7595 94.025C61.5833 94.3866 48.856 96.3502 47.2401 98.4076C48.7624 98.7902 54.7683 97.0937 56.723 96.6271C63.5709 95.1473 70.5681 94.4633 77.5728 94.5892C80.0636 94.6539 82.5545 94.8067 85.0352 95.0466C86.335 95.1819 90.3962 95.9004 91.2534 95.5699C91.4001 94.8173 91.4633 95.1614 91.0435 94.506C88.2669 93.7638 82.9211 93.5898 79.8992 93.4189Z" fill="#1C1C1C"/>
<path d="M268.906 339.965C267.689 340.688 266.895 343.636 266.362 345.065C263.426 352.94 257.038 359.343 249.226 362.402C248.128 362.832 244.868 363.684 244.188 364.264L244.192 365.207C253.805 364.582 263.937 355.302 267.455 346.689C268.225 344.802 269.683 341.869 268.906 339.965Z" fill="#1C1C1C"/>
<path d="M120.248 2.30226C108.472 4.27218 99.4644 13.3419 96.0885 24.4546C95.7218 25.6626 95.3627 26.3501 95.9342 27.5205C97.0899 26.7881 97.717 24.582 98.1469 23.2392C99.9499 16.9474 103.584 13.6625 107.814 9.36563C110.513 6.62495 120.16 3.82509 120.567 3.29683L120.248 2.30226Z" fill="#424240"/>
<path d="M40.7359 187.606L40.2403 188.031L40.2757 188.486C46.1045 193.948 65.1487 204.695 72.7957 207.955L73.2913 207.705L73.3697 207.242C72.8362 206.592 65.7328 203.138 64.4482 202.46C56.1159 198.055 48.5448 192.853 40.7359 187.606Z" fill="#1C1C1C"/>
<path d="M364.874 240.671C363.997 241.219 363.564 243.865 363.306 244.99C361.308 253.691 355.739 260.977 348.253 265.738C347.223 266.393 347.122 266.558 346.837 267.691C352.152 266.972 360.917 256.094 362.636 251.13C363.477 248.702 365.877 243.227 364.874 240.671Z" fill="#1C1C1C"/>
<path d="M3.13824 134.583C2.64766 134.748 2.77158 134.654 2.42514 134.926C2.0964 135.186 2.03571 135.614 2.01801 136.02C1.63617 145.33 8.13004 157.276 14.4596 163.725L14.8263 163.569C15.0387 163.291 15.4053 162.915 15.0488 162.518C7.00982 153.561 4.23067 146.264 3.13824 134.583Z" fill="#0C0C0C"/>
<path d="M283.677 160.256C283.234 160.359 283.298 160.384 282.89 160.646L282.816 161.154C283.266 161.803 286.838 163.604 287.773 164.094C294.43 167.581 300.139 171.902 306.122 176.39C306.38 176.405 306.547 176.304 306.822 176.208L306.939 175.791C305.048 172.17 288.132 162.542 283.677 160.256Z" fill="#747572"/>
<path d="M269.458 353.869C268.381 354.466 266.791 357.849 265.603 359.182C263.676 361.344 261.608 362.5 259.59 364.434C259.35 364.664 259.546 365.008 259.651 365.489C262.864 364.128 271.176 357.457 269.458 353.869Z" fill="#747572"/>
<path d="M105.303 2C100.997 3.16804 95.1855 9.71781 94.8314 14.1889C96.7356 13.2171 100.569 4.81907 104.383 3.65103C104.838 3.51094 105.121 3.22645 105.422 2.88279L105.303 2Z" fill="#747572"/>
<path d="M322.526 159.762C322.374 159.804 321.977 160.022 321.819 160.102L321.763 160.618C322.301 161.359 323.552 162.26 324.315 162.849C327.105 165.004 329.656 167.176 332.147 169.675C332.438 169.642 332.231 169.68 332.724 169.422L332.729 168.902C331.279 166.099 325.12 161.564 322.526 159.762Z" fill="#747572"/>
<path d="M123.085 169.436C123.518 164.944 123.735 162.698 124.747 161.052C125.717 159.475 127.184 158.267 128.916 157.616C130.725 156.936 132.971 157.152 137.463 157.585L154.119 159.189C158.611 159.622 160.857 159.838 162.503 160.851C164.079 161.821 165.288 163.287 165.939 165.02C166.619 166.829 166.403 169.075 165.97 173.567L164.365 190.223C163.933 194.715 163.716 196.961 162.703 198.607C161.734 200.183 160.267 201.392 158.535 202.043C156.726 202.723 154.48 202.506 149.988 202.074L133.332 200.469C128.84 200.036 126.594 199.82 124.948 198.807C123.372 197.838 122.163 196.371 121.512 194.639C120.832 192.829 121.048 190.583 121.481 186.091L123.085 169.436Z" fill="#B5FE28"/>
<path fill-rule="evenodd" clip-rule="evenodd" d="M147.59 180.709C149.287 180.873 151.115 179.312 151.357 176.796C151.599 174.281 150.104 172.4 148.406 172.236C146.709 172.073 144.881 173.633 144.639 176.149C144.396 178.665 145.893 180.546 147.59 180.709Z" fill="#1C1C1C"/>
<path fill-rule="evenodd" clip-rule="evenodd" d="M151.357 176.796C151.115 179.312 149.287 180.873 147.59 180.709C145.893 180.546 144.396 178.665 144.639 176.149C144.881 173.633 146.709 172.073 148.406 172.236C150.104 172.4 151.599 174.281 151.357 176.796Z" fill="#B5FE28"/>
<path fill-rule="evenodd" clip-rule="evenodd" d="M153.958 181.323L151.948 181.129C152.89 180.035 153.517 178.585 153.668 177.019C154.003 173.536 151.925 170.164 148.637 169.847C146.45 169.636 144.532 170.854 143.393 172.717C142.628 171.696 141.525 170.989 140.186 170.86C137.312 170.584 135.005 173.124 134.717 176.107C134.601 177.313 134.823 178.51 135.318 179.527L133.718 179.373L134.646 173.622C135.097 170.823 137.256 168.639 139.974 168.234L147.559 167.104C151.577 166.506 155.055 169.944 154.653 174.118L153.958 181.323Z" fill="white"/>
<path fill-rule="evenodd" clip-rule="evenodd" d="M156.963 174.34C157.514 168.621 152.748 163.91 147.242 164.73L139.657 165.86C135.933 166.415 132.975 169.406 132.356 173.242L130.653 183.807C129.897 188.495 132.839 192.944 137.332 193.906L145.329 195.618C150.338 196.69 155.164 193.017 155.671 187.747L156.963 174.34ZM147.59 180.709C149.287 180.873 151.115 179.312 151.357 176.796C151.599 174.281 150.104 172.4 148.406 172.236C146.709 172.073 144.881 173.633 144.639 176.149C144.396 178.665 145.893 180.546 147.59 180.709ZM153.728 183.712L133.335 181.748L132.942 184.187C132.39 187.608 134.538 190.854 137.817 191.556L145.814 193.268C149.469 194.05 152.991 191.37 153.361 187.524L153.728 183.712ZM137.028 176.33C137.222 174.314 138.674 173.126 139.955 173.249C141.237 173.373 142.436 174.816 142.242 176.832C142.048 178.848 140.595 180.036 139.314 179.912C138.032 179.789 136.834 178.346 137.028 176.33ZM151.948 181.129L153.958 181.323L154.653 174.118C155.055 169.944 151.577 166.506 147.559 167.104L139.974 168.234C137.256 168.639 135.097 170.823 134.646 173.622L133.718 179.373L135.318 179.527C134.823 178.51 134.601 177.313 134.717 176.107C135.005 173.124 137.312 170.584 140.186 170.86C141.525 170.989 142.628 171.696 143.393 172.717C144.532 170.854 146.45 169.636 148.637 169.847C151.925 170.164 154.003 173.536 153.668 177.019C153.517 178.585 152.89 180.035 151.948 181.129Z" fill="#1C1C1C"/>
<path fill-rule="evenodd" clip-rule="evenodd" d="M133.335 181.748L153.728 183.712L153.361 187.524C152.991 191.37 149.469 194.05 145.814 193.268L137.817 191.556C134.538 190.854 132.39 187.608 132.942 184.187L133.335 181.748Z" fill="#B5FE28"/>
<path d="M139.955 173.249C138.674 173.126 137.222 174.314 137.028 176.33C136.834 178.346 138.032 179.789 139.314 179.912C140.595 180.036 142.048 178.848 142.242 176.832C142.436 174.816 141.237 173.373 139.955 173.249Z" fill="#B5FE28"/>
<path d="M162.349 192.433L164.414 171.002L171.486 171.683C173.556 171.882 175.13 172.51 176.208 173.565C177.306 174.623 177.773 176.002 177.609 177.704C177.51 178.729 177.197 179.619 176.669 180.375C176.143 181.111 175.449 181.654 174.588 182.006C175.782 182.493 176.642 183.228 177.169 184.209C177.697 185.171 177.894 186.348 177.759 187.742C177.574 189.669 176.824 191.117 175.51 192.087C174.198 193.037 172.445 193.406 170.251 193.195L162.349 192.433ZM165.764 189.845L170.315 190.283C173 190.542 174.451 189.544 174.668 187.289C174.773 186.203 174.536 185.332 173.958 184.676C173.4 184.022 172.558 183.641 171.43 183.532L166.418 183.05L165.764 189.845ZM166.688 180.252L170.993 180.666C171.936 180.757 172.721 180.553 173.348 180.055C173.996 179.559 174.366 178.829 174.459 177.866C174.55 176.923 174.313 176.165 173.747 175.594C173.181 175.022 172.335 174.682 171.207 174.573L167.272 174.194L166.688 180.252Z" fill="#1C1C1C"/>
<path d="M192.733 191.939L192.671 195.354L196.443 195.718L197.733 182.334C197.977 179.791 197.399 177.747 195.996 176.202C194.625 174.631 192.555 173.713 189.789 173.446C188.028 173.276 186.364 173.426 184.796 173.896C183.258 174.34 181.812 175.146 180.459 176.313L182.762 179.2C183.781 178.283 184.815 177.649 185.864 177.299C186.941 176.951 188.038 176.831 189.156 176.939C190.749 177.092 191.927 177.601 192.69 178.464C193.453 179.327 193.765 180.485 193.625 181.938L193.56 182.609L187.356 182.012C186.322 181.912 185.335 181.916 184.394 182.022C183.483 182.104 182.657 182.334 181.915 182.714C181.118 183.089 180.441 183.672 179.885 184.465C179.332 185.23 179 186.185 178.89 187.33C178.763 188.644 178.973 189.835 179.519 190.903C180.067 191.943 180.902 192.799 182.021 193.471C183.141 194.143 184.47 194.553 186.007 194.701C187.348 194.83 188.577 194.666 189.692 194.209C190.836 193.756 191.822 193.033 192.651 192.041C192.679 192.007 192.706 191.973 192.733 191.939ZM193.261 185.711L193.205 186.298C193.1 187.388 192.74 188.34 192.125 189.155C191.514 189.943 190.737 190.545 189.794 190.962C188.882 191.353 187.895 191.498 186.833 191.396C185.575 191.274 184.598 190.884 183.9 190.225C183.202 189.565 182.9 188.746 182.994 187.768C183.042 187.265 183.182 186.841 183.412 186.497C183.646 186.125 183.942 185.829 184.302 185.61C184.751 185.343 185.272 185.195 185.867 185.168C186.493 185.116 187.085 185.116 187.644 185.17L193.261 185.711Z" fill="#1C1C1C"/>
<path d="M211.233 179.027L198.067 192.896L197.782 195.852L214.302 197.443L214.637 193.966L203.272 192.871L216.107 179.146L216.408 176.016L200.392 174.473L200.057 177.95L211.233 179.027Z" fill="#1C1C1C"/>
<path d="M224.535 198.434C222.578 198.246 220.875 197.616 219.426 196.545C217.977 195.474 216.883 194.085 216.144 192.377C215.434 190.672 215.178 188.785 215.378 186.716C215.577 184.647 216.187 182.857 217.207 181.347C218.23 179.809 219.555 178.652 221.182 177.878C222.836 177.106 224.642 176.814 226.599 177.003C228.585 177.194 230.288 177.824 231.709 178.892C233.13 179.96 234.195 181.347 234.906 183.052C235.647 184.732 235.918 186.606 235.719 188.675C235.52 190.744 234.894 192.547 233.843 194.082C232.823 195.592 231.498 196.749 229.869 197.551C228.27 198.329 226.492 198.623 224.535 198.434ZM224.886 194.786C226.117 194.904 227.207 194.713 228.159 194.212C229.138 193.714 229.916 192.956 230.494 191.939C231.1 190.925 231.471 189.705 231.609 188.279C231.749 186.825 231.618 185.543 231.217 184.432C230.844 183.324 230.223 182.445 229.355 181.797C228.516 181.124 227.482 180.728 226.252 180.61C224.994 180.488 223.875 180.677 222.896 181.175C221.944 181.676 221.166 182.434 220.56 183.448C219.985 184.436 219.628 185.658 219.488 187.112C219.35 188.538 219.468 189.805 219.841 190.913C220.242 192.024 220.862 192.916 221.7 193.59C222.566 194.266 223.628 194.664 224.886 194.786Z" fill="#1C1C1C"/>
</svg>
