<svg width="56" height="60" viewBox="0 0 56 60" fill="none" xmlns="http://www.w3.org/2000/svg">
<path d="M3.25803 6.62556C6.77917 -2.12924 31.0712 -0.786397 38.3965 2.59535C43.3373 4.87744 42.6639 7.36711 42.5138 12.0141C46.8112 12.4455 49.5818 12.8851 52.4253 16.4607C57.855 23.2778 57.1731 35.305 49.8735 40.5803C47.1415 42.5575 45.0571 42.3001 42.1493 43.1322C44.2508 46.3702 53.742 45.1308 55.1101 50.4361C54.9557 51.86 54.5182 53.2495 53.1758 54.0601C43.9077 59.6613 27.9575 59.7 17.5184 58.5849C12.9294 58.0916 3.228 56.2903 0.354481 52.4089C-1.22381 48.7806 2.96638 48.356 3.19369 44.0671C3.79413 32.7961 1.76552 17.4575 3.25803 6.62556Z" fill="#1C1C1C"/>
<path d="M42.1493 43.1329C44.2508 46.371 53.742 45.1316 55.1101 50.4368C54.9557 51.8607 54.5182 53.2503 53.1758 54.0609C43.9077 59.6621 27.9575 59.7007 17.5184 58.5856C12.9294 58.0924 3.228 56.2911 0.354481 52.4097C-1.22381 48.7813 2.96638 48.3568 3.19369 44.0679C3.79413 32.7969 1.76552 17.4582 3.25803 6.62634L3.3052 7.08698C4.18013 16.6687 3.01786 27.453 3.47677 37.09C3.63546 40.4825 2.57181 49.043 5.44104 50.8786C14.469 56.6557 34.3479 57.1017 42.2007 49.4075C42.2179 47.8721 42.3637 44.4925 42.1493 43.1329Z" fill="#D9DBD5"/>
<path d="M5.40697 9.82434C6.52207 10.3905 7.66289 10.8966 8.83375 11.3409C18.1448 14.9384 31.0628 14.2689 40.2838 10.1949C40.4254 14.6266 40.7127 32.7216 40.168 36.44L40.1766 43.7868C40.2324 44.992 40.2666 46.4587 40.4039 47.6253C39.0572 50.2029 36.9042 50.9792 34.1336 51.8198C33.5117 52.0085 32.8856 52.1843 32.2551 52.3473C29.18 52.8705 26.7096 53.0507 23.5917 53.2866C18.9812 53.2308 10.0475 52.7676 6.74079 49.3451C5.0081 47.5481 5.33409 46.4931 5.43702 44.0613C5.28691 36.2513 5.39837 28.051 5.3855 20.2098L5.40697 9.82434Z" fill="white"/>
<path d="M5.38572 20.2095C9.7346 21.5464 15.0013 23.3794 19.08 25.2485C24.7456 27.845 24.9643 36.0667 18.9084 38.4856C11.0727 41.6121 11.8833 33.3175 5.69026 30.3454C5.66453 34.364 5.80178 40.1968 5.43723 44.0611C5.28712 36.2511 5.39858 28.0508 5.38572 20.2095Z" fill="#1BC3D8"/>
<path d="M23.591 53.2892C23.4709 49.3134 25.3022 38.9387 29.1751 37.0988C31.847 36.9787 37.251 42.1125 40.1759 43.7894C40.2317 44.9946 40.266 46.4613 40.4032 47.6279C39.0565 50.2055 36.9035 50.9818 34.1329 51.8224C33.5111 52.0111 32.8849 52.1869 32.2544 52.3499C29.1793 52.8731 26.709 53.0533 23.591 53.2892Z" fill="#1BC3D8"/>
<path d="M34.3627 45.1528C36.7687 45.9763 38.124 46.5638 40.4056 47.6232C39.0589 50.2007 36.9059 50.977 34.1353 51.8177C33.5135 52.0064 32.8873 52.1822 32.2568 52.3452C32.4541 50.0549 33.5735 47.383 34.3627 45.1528Z" fill="#F2F2F2"/>
<path d="M40.2835 10.1955C40.425 14.6272 40.7124 32.7222 40.1677 36.4406C40.0862 31.7529 40.4636 32.126 36.2777 29.7157C34.8752 30.7322 34.7294 30.8737 33.1297 31.457C31.53 31.1525 32.199 31.517 31.0796 30.2561C30.5135 27.5884 31.6329 25.6906 34.3348 24.892C36.505 24.2509 38.3149 25.6315 40.1119 26.7221C40.1034 21.2517 40.0133 15.6488 40.2835 10.1955Z" fill="#A4E7EF"/>
<path d="M8.15776 8.99225C6.45938 7.83298 6.35213 8.18037 5.82031 6.63682C9.04123 0.568109 36.9402 0.905222 40.0453 6.38507C39.9895 7.67816 39.715 7.75706 38.6471 8.66629C30.7428 12.5824 16.1865 12.6369 8.15776 8.99225Z" fill="#16A0B1"/>
<path d="M8.15776 8.99225C6.45938 7.83298 6.35213 8.18037 5.82031 6.63682C9.04123 0.568109 36.9402 0.905222 40.0453 6.38507C39.9895 7.67816 39.715 7.75706 38.6471 8.66629C32.0895 4.69483 13.8576 3.91984 8.15776 8.99225Z" fill="#0C5861"/>
<path d="M42.2911 14.1155C54.1497 14.5092 56.1312 26.2847 51.5893 35.5957C50.0796 38.6837 47.086 40.0818 43.8179 40.7981C42.6042 40.6394 42.4069 40.545 41.8965 39.6187C42.6127 37.4356 45.482 37.4528 47.2318 36.1533C52.0268 32.5978 51.8809 24.3345 48.9388 19.6691C47.5749 17.4998 45.0231 17.4012 42.7157 16.9985C42.0423 16.0202 42.3039 15.5647 42.2911 14.1155Z" fill="#D6F4F8"/>
<path d="M42.5216 19.2755C50.6961 19.6173 50.0484 28.6166 46.7761 33.8275C45.3264 34.964 44.3701 35.5773 42.6417 35.5001C42.1527 33.4501 42.4787 22.0164 42.5216 19.2755Z" fill="#F2F2F2"/>
</svg>
