<svg width="597" height="372" viewBox="0 0 597 372" fill="none" xmlns="http://www.w3.org/2000/svg">
<path d="M236.05 127.118C233.854 119.854 236.303 108.657 238.489 101.427C241.175 92.5442 243.808 82.1694 251.127 75.967C255.231 72.4595 260.649 70.8955 265.991 71.6771C267.477 71.9067 269.099 72.4916 270.63 72.7627C271.382 72.9522 272.474 72.7389 273.176 72.8601C281.386 74.4928 288.559 81.9079 290.065 90.1186C290.631 93.873 290.332 97.823 290.026 101.591C289.585 107.031 289.443 112.423 289.344 117.873C289.217 124.748 288.82 133.008 284.296 138.519C284.138 138.711 283.966 138.605 283.768 138.566C283.647 138.304 283.496 138.126 283.576 137.915C284.336 135.912 285.819 133.517 286.394 131.475C287.273 128.36 288 123.767 287.752 120.568C286.399 128.311 284.992 132.849 280.272 139.137C281.603 140.648 282.659 142.768 283.656 144.55C285.554 141.535 286.653 141.552 289.821 140.238C293.632 138.658 296.584 137.312 300.821 137.922C301.886 138.075 303.409 137.973 304.522 138.103C305.675 138.095 307.026 139.251 306.574 140.352C305.381 143.27 300.357 142.322 297.826 143.073C296.723 143.4 296.247 143.637 295.271 144.17C297.289 144.821 298.053 145.347 299.726 146.57C299.737 146.579 301.128 146.352 301.284 146.407C306.64 148.298 300.031 152.134 298.078 153.489C296.335 157.843 293.986 158.59 289.741 159.615C290.803 162.232 292.12 164.984 293.304 167.568C297.962 167.558 302.917 167.518 307.55 167.641C309.352 165.975 310.986 164.463 312.685 162.691L312.993 160.284L309.231 160.323C308.134 160.335 307.12 160.395 306.031 160.081C301.719 158.838 303.507 155.585 304.618 152.651C305.095 151.39 305.594 150.129 306.063 148.919L312.282 133.002C316.752 121.611 314.939 123.239 327.794 123.227C335.004 123.22 334.378 126.505 332.041 131.868C330.821 134.671 329.473 138.235 328.442 141.109C329.272 143.279 330.168 152.211 329.551 154.29C328.284 158.568 324.433 163.875 321.889 167.689C326.639 167.74 334.238 167.348 338.712 168.103C346.117 169.354 346.615 179.327 347.701 185.488L350.867 203.484C356.163 203.836 362.682 203.814 368.092 203.956L401.294 204.848L412.944 205.118C415.908 205.194 420.896 204.891 423.333 206.659C424.892 207.792 426.109 210.211 426.158 212.168C426.269 216.487 426.203 220.858 426.198 225.195L426.178 251.583L426.18 276.744C426.187 281.098 426.276 285.486 426.095 289.83C425.98 292.595 423.79 296.055 420.911 296.553C417.011 297.232 412.666 297.201 408.681 297.369C409.156 299.201 409.567 302.267 409.935 304.281L412.501 318.143C416.822 318.631 433.449 322.304 431.929 326.261C429.415 332.81 397.696 336.543 392.719 337.191C374.616 339.412 356.439 340.971 338.224 341.863C300.613 343.927 262.931 344.335 225.285 343.084C203.411 342.565 181.566 341.201 159.797 338.997C149.44 337.863 139.068 336.565 128.881 334.397C125.247 333.624 107.047 329.731 116.977 324.234C119.922 322.604 129.19 320.003 132.761 319.722C133.854 313.697 134.77 307.628 135.869 301.594C134.403 301.471 132.586 301.13 131.186 301.048C117.575 300.258 119.1 295.221 119.109 283.665L119.115 265.871L119.114 233.601C119.104 227.056 119.077 220.456 119.092 213.944C119.107 207.15 123.501 204.917 129.654 205.245C132.112 205.375 134.85 205.388 137.337 205.453L134.688 189.401C132.655 177.192 131.364 173.68 145.04 169.756C147.665 169.003 150.225 167.731 153.073 167.438C155.813 167.156 158.444 167.26 161.171 167.286L172.116 167.351L214.534 167.449C215.431 158.664 216.811 145.618 220.433 137.67C223.312 131.354 229.801 129.177 236.05 127.118Z" fill="#1C1C1C"/>
<path d="M203.76 311.925C205.041 312.152 216.238 311.409 218.148 311.34C225.572 311.068 233.122 310.776 240.558 310.509C249.897 310.241 259.239 310.087 268.581 310.051C279.962 309.924 291.346 309.931 302.725 310.071C302.725 310.729 302.899 311.276 302.346 311.699C300.348 313.226 299.987 315.742 299.853 318.145C299.657 321.642 298.169 328.674 299.313 331.803C300.109 332.576 301.516 333.058 302.596 333.314C306.248 334.173 310.125 334.449 313.816 335.107C318.27 335.903 322.427 337.016 326.937 337.56C329.326 337.823 331.729 337.945 334.131 337.921C337.232 337.874 344.559 337.414 347.094 335.31C348.802 333.89 347.411 327.905 345.716 326.727C343.817 325.12 341.194 324.407 338.998 323.316C334.048 320.747 325.459 315.309 323.029 310.431C325.593 310.421 341.072 311.49 342.004 310.816C342.196 311.423 342.882 313.925 343.484 314.25C344.617 314.863 349.442 315.336 350.078 313.726C350.205 313.407 350.084 311.88 350.044 311.382C352.943 311.974 356.541 311.978 359.534 312.187C372.433 313.088 385.352 314.083 398.159 315.902C399.107 316.036 402.478 316.651 403.129 316.235C403.671 317.564 404.9 321.775 406.242 322.438C407.27 322.946 412.588 323.396 412.945 321.606C413.074 320.953 412.653 318.964 412.501 318.143C416.822 318.631 433.449 322.304 431.929 326.261C429.415 332.81 397.696 336.543 392.719 337.19C374.616 339.412 356.439 340.971 338.224 341.863C300.613 343.926 262.931 344.334 225.285 343.083C203.411 342.565 181.566 341.201 159.797 338.996C149.44 337.863 139.068 336.565 128.881 334.396C125.247 333.624 107.047 329.731 116.977 324.233C119.922 322.603 129.19 320.003 132.761 319.722C132.568 320.832 132.048 323.223 132.313 324.117C132.932 325.653 137.922 325.408 138.999 324.821C140.291 324.116 141.687 319.193 142.274 317.657C142.948 317.918 145.797 317.405 146.72 317.265C161.492 315.033 176.379 314.158 191.219 312.616C190.993 315.769 188.439 332.763 189 334.262C190.182 335.528 194.506 335.618 195.797 334.953C197.24 334.211 198.846 327.747 199.344 326.15L203.76 311.925Z" fill="#D9DBD5"/>
<path d="M349.422 302.515C353.846 302.78 358.054 302.134 362.439 301.959C370.852 301.62 378.466 301.266 386.545 298.582C387.822 298.16 394.26 298.111 395.988 298.017C398.423 304.067 400.684 310.207 403.129 316.236C402.478 316.651 399.107 316.036 398.159 315.902C385.352 314.083 372.433 313.088 359.534 312.187C356.54 311.978 352.943 311.975 350.044 311.382C349.904 308.461 349.639 305.44 349.422 302.515Z" fill="white"/>
<path d="M205.169 307.491C208.219 307.13 213.021 307.023 216.253 306.853L239.4 305.727L302.194 302.604C302.493 305.083 302.671 307.574 302.725 310.071C291.346 309.931 279.962 309.924 268.581 310.051C259.239 310.087 249.897 310.241 240.558 310.51C233.122 310.776 225.572 311.068 218.148 311.34C216.238 311.409 205.041 312.153 203.76 311.926C204.25 310.537 204.721 308.912 205.169 307.491Z" fill="white"/>
<path d="M147.659 303.281C150.805 303.553 154.518 304.14 157.707 304.564L175.184 306.876C181.508 307.716 185.374 308.57 191.794 308.193C191.587 309.654 191.409 311.15 191.219 312.617C176.379 314.158 161.492 315.034 146.72 317.266C145.797 317.405 142.948 317.919 142.274 317.657L147.659 303.281Z" fill="white"/>
<path d="M318.772 301.879C325.31 301.34 332.441 301.081 339.023 300.785L342.004 310.816C341.072 311.49 325.593 310.421 323.029 310.432C321.856 308.627 321.53 308.087 319.316 307.77C319.129 305.842 318.904 303.801 318.772 301.879Z" fill="white"/>
<path d="M127.364 206.601C131.623 206.492 136.424 206.806 140.74 206.837C155.195 206.936 170.136 208.046 184.562 208.004C181.796 209.586 180.109 211.877 180.095 215.161C180.071 220.998 180.115 226.838 180.115 232.676L180.125 269.533L180.121 290.862C180.117 292.86 180.106 294.927 180.104 296.92C180.099 301.181 179.739 303.179 182.78 306.542L179.818 306.142L142.308 301.17C138.847 300.691 135.382 300.231 131.916 299.79C129.135 299.438 124.791 299.337 122.542 297.525C121.239 296.475 120.578 294.746 120.529 293.083C120.392 288.516 120.453 283.914 120.458 279.337L120.463 252.538L120.436 226.151C120.435 223.092 120.517 219.81 120.441 216.769C120.305 211.321 120.667 207.096 127.364 206.601Z" fill="#17ADBF"/>
<path d="M307.713 195.718C309.319 195.528 311.236 195.787 312.808 196.164C318.567 197.548 320.833 201.774 323.721 206.46C326.488 211.045 329.188 215.673 331.821 220.338C338.381 231.81 345.028 243.233 351.761 254.607C348.473 258.801 342.784 262.449 338.116 264.879C335.993 260.923 333.317 256.605 331.02 252.703C327.431 246.587 323.877 240.45 320.362 234.29C318.8 231.556 318.567 230.198 317.402 227.326C317.034 226.418 315.281 224.641 314.743 223.716C313.218 221.105 311.943 218.436 310.298 215.885C311.501 214.877 312.226 214.452 312.855 213.029L312.739 212.784C311.481 212.915 310.384 214.244 309.482 215.138C307.979 213.731 307.439 213.337 305.568 212.494C305.97 211.74 307.269 209.673 306.674 208.922C305.544 209.446 304.94 211.031 304.375 212.153C298.42 212.224 291.974 214.699 286.335 216.601C277.264 219.731 268.26 223.052 259.329 226.563C250.697 229.955 239.509 234.446 230.204 233.349C218.03 231.913 218.505 223.406 219.925 213.85C222.129 213.555 224.862 212.848 226.939 212.068C231.373 210.402 233.128 208.639 235.073 204.473C241.45 204.942 246.844 204.989 253.173 204.88L253.416 208.616C250.698 209.669 247.904 210.55 245.161 211.526C241.047 212.987 236.626 212.652 232.64 214.699C231.439 215.317 227.74 216.895 227.271 218.091C227.509 218.628 227.33 218.427 227.809 218.733C228.864 218.378 230.697 217.23 231.812 216.672C234.524 215.312 236.708 214.583 239.642 213.936C237.748 215.063 228.567 221.248 228.986 223.123C230.048 223.522 232.613 220.871 233.396 220.106C239.243 214.396 246.946 212.398 254.466 209.861C266.806 205.644 279.318 201.95 291.971 198.792C296.841 197.626 302.795 196.197 307.713 195.718Z" fill="white"/>
<path d="M154.912 168.652C161.928 168.421 169.995 168.617 177.086 168.632L214.421 168.746C213.939 172.638 213.678 176.479 213.007 180.393C212.693 182.908 211.781 185.438 211.626 187.96C211.351 192.433 214.114 195.343 217.877 196.917C217.715 198.072 217.703 199.907 217.32 200.932C213.193 211.974 209.134 223.647 212.206 235.643C212.627 237.085 213.087 238.142 213.674 239.533L205.53 239.763L205.535 223.366C205.549 220.882 205.736 215.479 205.318 213.316C205.053 211.918 204.404 210.619 203.444 209.568C202.613 208.658 200.856 207.435 199.671 207.309C194.714 206.777 188.911 206.832 183.919 206.721C174.466 206.473 165.013 206.175 155.563 205.829C155.295 203.243 154.659 199.981 154.212 197.378L151.791 183.38C151.272 180.403 150.605 177.313 150.445 174.303C150.275 171.098 151.924 169.355 154.912 168.652Z" fill="#17ADBF"/>
<path d="M290.789 274.981C291.875 274.91 293.036 274.883 294.131 274.839C294.62 276.792 295.061 279.666 295.44 281.695C296.04 284.888 296.688 288.36 297.152 291.555C297.603 294.655 297.284 296.536 298.267 299.7C299.813 300.07 301.123 299.691 301.969 300.632L301.944 301.119C301.222 301.549 222.347 305.177 214.27 305.64C211.351 305.75 208.433 305.899 205.518 306.086L205.521 276.179C209.142 279.022 213.602 278.009 217.998 277.816L232.723 277.236L290.789 274.981Z" fill="white"/>
<path d="M224.75 196.872C221.125 196.116 216.319 195.925 214.231 192.484C213.597 191.44 212.981 190.091 212.985 188.858C213.263 185.082 214.483 181.391 214.901 177.617C215.796 169.546 216.457 161.328 217.813 153.326C219.09 145.783 220.121 136.342 227.465 132.189C230.466 130.491 233.405 129.719 236.509 128.42C239.359 135.298 243.073 139.297 250.042 142.372C251.502 143.016 255.986 144.407 257.464 143.971L257.711 143.635C257.49 142.41 255.609 138.943 255.009 137.3C257.619 138.567 260.827 139.766 263.755 138.751C264.969 138.343 265.961 137.452 266.498 136.289C267.2 134.79 267.077 133.421 267 131.806C274.918 136.448 278.795 137.276 282.664 145.892C280.822 148.333 278.951 150.878 277.036 153.25L275.658 154.914C273.504 157.171 270.082 159.356 267.455 161.16C263.862 163.637 260.247 166.081 256.61 168.492C254.25 170.197 250.487 172.406 247.933 174.085C245.988 166.962 243.637 159.821 241.733 152.685C241.404 151.612 240.545 148.232 239.861 147.636C239.323 147.655 239.556 147.565 239.143 147.924C239.049 148.845 245.518 170.718 246.423 173.365C241.498 173.446 236.818 175.526 233.458 179.127C233.131 179.472 233.032 179.645 232.809 180.051L232.829 180.382C233.257 180.592 233.025 180.564 233.53 180.508C238.099 177.083 240.992 174.425 247.017 174.563C245.771 175.391 243.832 176.664 242.779 177.636C237.137 182.843 230.009 191.898 226.94 198.79C223.936 190.653 222.621 182.885 221.166 174.335C220.928 172.937 219.893 165.084 219.388 164.441L218.924 164.252C218.111 164.741 218.471 166.054 218.606 166.854C220.306 176.903 221.673 187.126 224.75 196.872Z" fill="white"/>
<path d="M241.733 152.685C242.118 152.63 242.188 152.573 242.311 152.785C244.537 156.651 247.926 163.482 249.808 167.218C251.689 169.562 253.545 168.315 256.072 168.04L256.61 168.491C254.25 170.197 250.487 172.406 247.933 174.085C245.988 166.962 243.637 159.82 241.733 152.685Z" fill="#D9DBD5"/>
<path d="M249.808 167.218C251.689 169.562 253.545 168.315 256.072 168.04C255.28 168.945 254.211 169.842 253.114 170.344C250.731 171.435 248.633 169.787 249.808 167.218Z" fill="#F1FED7"/>
<path d="M275.658 154.914C275.514 153.77 275.362 149.098 276.136 148.225C276.666 148.202 276.428 148.129 276.86 148.489C277.143 149.855 276.92 151.528 277.021 153.048L277.036 153.25L275.658 154.914Z" fill="#B5FE28"/>
<path d="M288.593 247.94L290.972 247.846C290.157 255.218 292.638 266.137 293.969 273.499L211.097 276.716C208.499 276.775 207.038 276.222 205.623 273.992C205.287 266.736 205.546 257.331 205.55 249.917L259.545 248.548C269.068 248.339 279.15 248.377 288.593 247.94Z" fill="#17ADBF"/>
<path d="M188.006 208.38C190.325 208.244 192.766 208.369 195.097 208.304C197.749 208.229 200.582 208.432 202.514 210.5C203.477 211.529 204.029 212.855 204.167 214.276C204.321 217.888 204.258 221.529 204.255 225.146L204.237 246.495L204.24 284.22C204.24 291.41 204.361 299.014 204.162 306.169C201.94 306.26 199.719 306.37 197.499 306.504C193.03 306.711 183.264 308.637 181.877 302.889C181.026 299.357 181.362 293.112 181.343 289.306L181.353 263.207L181.358 232.105C181.363 226.709 181.348 221.295 181.408 215.901C181.479 214.945 181.389 213.848 181.758 212.949C182.943 210.059 185.06 208.869 188.006 208.38Z" fill="#17ADBF"/>
<path d="M409.419 206.734C412.202 206.525 418.889 206.183 421.312 207.154C422.842 207.769 423.83 208.902 424.414 210.427C425.348 212.866 424.833 227.691 424.827 231.272V256.245L424.837 277.408C424.835 281.216 424.866 285.022 424.773 288.83C424.688 292.315 423.33 294.213 420.082 295.437C416.528 295.919 408.578 295.993 404.551 296.246C404.868 276.634 404.599 256.328 404.594 236.644L404.578 221.399C404.574 218.661 404.543 215.921 404.598 213.183C404.668 209.664 406.126 207.827 409.419 206.734Z" fill="#17ADBF"/>
<path d="M320.927 169.061C324.369 169.118 327.857 168.998 331.297 169.018C333.212 169.029 335.794 168.922 337.643 169.247C338.776 169.44 339.859 169.858 340.829 170.476C343.264 172.043 344.307 174.423 344.802 177.14C346.992 189.147 349.077 201.209 351.184 213.228L353.371 225.569C355.677 238.58 354.794 235.944 342.894 236.611C341.614 234.504 340.325 232.174 339.081 230.027L328.891 212.311C326.982 208.996 323.424 202.721 321.094 199.86C320.028 198.543 318.755 197.406 317.326 196.496C311.912 193.047 305.24 194.355 299.456 195.653C307.434 188.736 314.578 177.711 320.927 169.061Z" fill="#17ADBF"/>
<path d="M351.094 204.888C356.169 204.906 361.54 205.149 366.633 205.292L388.799 205.878C394.328 206.046 401.584 206.427 407.018 206.226C402.79 209.353 403.2 211.281 403.182 216.209C403.176 218.073 403.187 220.031 403.192 221.901L403.207 242.352L403.267 245.164C403.102 244.952 402.935 244.741 402.764 244.535C401.747 243.314 400.148 242.321 398.623 241.915C393.285 240.49 387.331 239.966 381.849 239.327C372.841 238.21 363.815 237.242 354.777 236.423C355.953 234.229 356.053 232.849 355.6 230.437C354.004 221.961 352.755 213.346 351.094 204.888Z" fill="#17ADBF"/>
<path d="M296.614 224.554C300.295 222.137 302.999 220.884 307.528 221.791C313.004 222.831 316.592 226.868 317.488 232.325C318.583 238.996 318.995 245.877 319.559 252.633C320.605 265.146 321.232 277.704 322.264 290.219C316.322 292.22 310.616 292.645 304.397 292.893C303.418 287.154 302.634 280.935 301.798 275.142C300.484 266.417 299.256 257.679 298.118 248.929C297.606 244.898 299.432 243.074 296.944 239.397C297.788 238.242 299.151 236.593 299.245 235.192L299.035 235.04C297.623 235.93 297.057 237.036 296.15 238.428C295.012 237.551 294.683 237.377 293.327 236.748C293.686 236.122 293.962 235.817 293.88 235.11L293.634 234.782C292.5 234.884 292.373 235.627 292.002 236.615L289.519 236.637C287.496 237.078 279.333 237.31 277.023 237.389C282.31 234.115 287.469 230.472 292.667 227.047C293.902 226.233 295.307 225.216 296.614 224.554Z" fill="white"/>
<path d="M296.614 224.554C297.095 224.731 296.988 224.679 297.478 224.67L297.681 224.822C296.716 226.086 294.901 227.587 293.98 228.666C292.994 229.817 288.368 235.407 288.207 236.506C288.684 236.57 289.034 236.606 289.519 236.637C287.496 237.077 279.333 237.309 277.023 237.389C282.31 234.114 287.469 230.472 292.667 227.047C293.902 226.233 295.307 225.215 296.614 224.554Z" fill="#D9DBD5"/>
<path d="M218.517 202.423L221.626 202.849C219.55 208.36 218.081 216.606 218.165 222.443C218.33 233.911 230.454 235.808 239.513 234.02C247.683 232.406 255.797 229.074 263.594 226.078C271.997 222.786 280.475 219.698 289.026 216.815C293.552 215.322 299.3 213.308 303.976 213.027C302.716 215.46 301.472 218.233 300.291 220.729L297.127 222.472C286.314 229.036 276.243 236.778 265.099 242.83C262.331 244.332 259.325 246.016 256.336 246.997C254.29 247.67 230.425 248.056 227.806 247.804C225.728 247.601 223.705 247.015 221.84 246.074C211.744 240.928 211.538 227.342 213.596 217.77C214.681 212.73 216.175 207.011 218.517 202.423Z" fill="white"/>
<path d="M394.105 244.871C396.386 244.764 398.589 244.764 400.871 244.756C402.347 245.998 403.073 247.812 403.065 249.735C403.047 254.684 403.455 260.138 402.949 265.022C402.467 269.673 398.315 269.269 394.75 269.4L386.369 269.7L358.071 270.776L356.784 268.975C355.549 267.202 354.41 265.365 353.373 263.47C354.724 262.112 355.634 261.333 356.421 259.559C354.475 255.666 350.811 250.203 348.485 246.225L394.105 244.871Z" fill="#17ADBF"/>
<path d="M279.302 85.7219C282.113 88.1893 285.414 93.2049 285.935 97.0068C286.053 97.8679 285.989 99.0851 285.964 99.9719C284.403 99.5119 282.163 99.2087 280.716 100.117C280.359 100.702 280.41 100.404 280.484 101.028C281.443 101.891 284.366 100.727 285.541 101.414C285.563 102.783 284.849 104.103 284.782 105.315C284.417 112.336 282.433 117.138 278.089 122.613C272.521 129.629 266.248 125.69 260.768 120.689C257.139 117.393 255.728 114.979 254.497 110.328C254.102 108.835 252.992 109.281 251.631 109.009C248.134 108.31 246.806 104.001 247.373 100.889C247.764 98.9357 249.684 96.9455 251.732 97.684C254.145 98.2764 253.998 101.85 255.52 102.16C256.613 101.696 257.964 98.9605 258.725 97.7538C267.228 95.7314 273.839 92.878 279.302 85.7219Z" fill="white"/>
<path d="M267.771 97.7556C269.275 97.6135 274.603 97.9418 274.383 100.094C273.507 100.635 272.653 100.124 271.752 99.7976C270.887 99.5354 269.892 99.3467 268.974 99.336C267.752 99.3215 265.588 100.211 264.61 99.6072L264.608 99.1775C265.202 98.2084 266.619 98.0474 267.771 97.7556Z" fill="#1C1C1C"/>
<path d="M278.234 103.623C278.535 104.204 278.528 104.87 278.522 105.525C278.493 108.963 282.341 114.739 275.289 113.525L275.061 112.971C275.536 112.452 276.726 112.679 277.467 112.43C277.937 112.272 278.405 111.986 278.831 111.738C278.254 109.655 276.591 105.358 278.234 103.623Z" fill="#1C1C1C"/>
<path d="M268.41 114.732C269.875 115.252 272.573 117.675 275.212 117.328C275.861 117.243 277.393 117.142 277.98 117.388C278.218 117.904 278.183 117.628 277.97 118.253C275.699 118.748 269.56 118.14 268.153 115.454C268.035 115.229 268.267 114.987 268.41 114.732Z" fill="#1C1C1C"/>
<path d="M269.389 102.205C271.859 102.146 271.79 104.182 270.47 105.646C268.058 106.09 268.273 103.631 269.389 102.205Z" fill="#1C1C1C"/>
<path d="M281.902 103.655C284.379 103.764 284.004 105.795 282.658 107.137C280.285 107.112 280.68 104.947 281.902 103.655Z" fill="#1C1C1C"/>
<path d="M270.92 119.829C271.745 119.865 274.069 120.159 274.918 120.459C275.181 120.553 275.139 120.746 275.224 121.096C273.814 121.479 271.665 121.248 270.92 119.829Z" fill="#1C1C1C"/>
<path d="M241.128 181.302C245.272 176.864 250.01 174.464 255.215 171.196C261.253 167.405 266.579 163.442 272.554 159.388C278.518 155.342 282.131 148.263 286.595 143.261C287.36 142.402 296.147 139.403 297.668 139.134C298.008 139.068 304.624 139.534 304.972 139.641L305.235 139.965C305.171 140.213 305.162 140.462 304.787 140.581C299.496 142.27 298.635 140.192 293.462 143.607C292.361 143.322 290.593 142.754 289.544 142.79L289.23 143.001C289.634 144.801 297.308 145.291 298.113 147.204C298.341 147.749 298.087 150.244 298.035 150.878C297.357 149.011 296.756 148.563 294.833 147.651C293.402 146.974 290.641 145.853 289.181 145.665L288.876 145.854C288.9 146.202 288.891 146.563 289.241 146.809C291.384 148.315 296.104 148.171 296.673 151.322C296.856 152.334 296.338 154.758 295.625 155.541L295.442 155.424C295.433 154.416 295.612 152.61 294.918 152.011C294.017 151.233 289.223 149.015 288.287 149.029L287.933 149.243C287.961 152.014 295.999 149.879 293.536 157.016C292.689 157.345 290.631 158.223 289.792 157.954C289.594 157.342 289.603 157.643 289.757 157.02C290.595 156.01 291.632 156.121 292.004 155.418C291.631 154.635 290.601 154.232 289.806 153.971C289.194 153.769 288.352 153.673 287.772 154.02C286.251 154.929 285.645 159.576 284.077 161.213C282.427 162.935 279.959 162.934 278.291 164.511C276.275 166.416 274.44 168.642 272.543 170.673C267.394 176.188 246.188 199.457 239.197 198.67C237.646 198.494 236.209 197.387 235.129 196.315C233.898 194.846 233.31 193.784 232.475 192.077C234.627 188.583 238.311 184.261 241.128 181.302Z" fill="white"/>
<path d="M232.475 192.078C234.627 188.584 238.311 184.261 241.128 181.302C240.873 182.379 240.345 183.305 239.822 184.275C237.82 187.996 235.995 192.159 235.129 196.315C233.898 194.846 233.31 193.784 232.475 192.078Z" fill="#D9DBD5"/>
<path d="M325.586 147.893C325.499 146.763 325.43 144.711 325.145 143.69C324.62 141.806 322.206 139.466 322.968 137.409C324.391 136.763 327.29 142.579 327.693 143.825C328.697 146.93 327.722 151.192 328.384 154.039L328.195 154.315C327.185 155.809 327.042 156.49 326.342 158.111C326.148 158.561 325.114 160.154 324.779 160.677C321.396 165.974 318.079 170.574 314.295 175.694C309.244 182.529 303.924 190.632 296.943 195.691C295.87 196.467 292.698 197.086 291.28 197.397C290.658 197.125 289.815 196.79 289.246 196.456C287.413 195.345 286.441 193.911 285.23 192.208C287.001 188.912 288.31 186.683 290.791 183.822C295.094 178.334 298.062 176.979 303.559 172.751C306.906 170.196 310.076 167.414 313.042 164.424C313.403 165.245 313.953 166.455 314.859 166.769C315.111 166.368 315.153 165.978 315.008 165.54C314.087 162.762 314.029 163.101 314.418 160.308C315.369 160.244 316.384 160.196 317.323 160.084C318.136 160.534 319.009 161.219 319.927 160.769C319.704 159.205 312.883 156.854 311.483 155.044L311.521 154.822C313.652 154.473 321.002 157.699 321.996 157.433C322.828 155.288 311.639 150.751 311.637 148.707C313.622 147.235 323.31 154.099 324.52 153.789C324.647 152.689 320.155 148.397 319.019 147.544C317.621 146.496 314.845 145.187 314.645 143.384L314.854 143.037C318.674 142.429 325.929 150.452 326.917 150.454C327.566 149.559 326.226 148.545 325.586 147.893Z" fill="white"/>
<path d="M285.23 192.208C287.001 188.912 288.31 186.683 290.791 183.822C290.713 185.684 289.837 188.297 289.5 190.268C289.081 192.727 289.308 194.15 289.246 196.456C287.413 195.345 286.441 193.911 285.23 192.208Z" fill="#D9DBD5"/>
<path d="M339.861 272.973C340.888 273.714 344.189 280.189 344.918 281.618C344.688 281.787 344.097 282.273 343.994 282.494C342.646 285.38 345.172 296.299 345.796 299.157C338.523 299.17 330.6 299.98 323.198 300.138L322.723 300.172C321.517 300.261 319.401 300.644 318.531 299.891L318.56 299.38C319.276 298.243 322.54 297.703 324.297 296.925C324.311 295.862 324.355 294.267 324.204 293.241C323.251 286.733 322.961 280.251 322.576 273.687C325.376 273.578 329.947 273.283 332.882 273.29C333.319 273.488 333.76 274.01 334.277 273.879C336.38 273.348 337.662 273.023 339.861 272.973Z" fill="white"/>
<path d="M403.139 268.166C403.353 270.273 403.228 275.358 403.235 277.619C403.28 283.836 403.268 290.054 403.197 296.273C398.644 296.574 393.823 296.626 389.332 297.056C391.986 295.965 394.537 294.614 396.046 292.093C395.384 284.639 391.194 283.651 384.857 283.129C383.408 283.009 381.343 282.489 379.91 282.124C373.961 280.46 368.193 278.4 363.862 273.978C362.388 272.473 361.742 272.993 359.836 273.104C359.229 272.799 359.434 273.029 359.204 272.388L359.3 272.195L387.022 271.057C390.956 270.89 394.967 270.801 398.893 270.571C401.032 270.447 401.859 269.744 403.139 268.166Z" fill="white"/>
<path d="M150.709 169.174L150.961 169.212C150.566 170.262 149.021 171.5 149.06 173.139C149.166 177.54 150.199 182.025 150.966 186.377L154.316 205.818C149.859 205.796 145.124 205.624 140.654 205.512L138.701 205.448C137.334 199.133 136.749 192.147 135.439 185.768C134.913 183.206 134.174 179.418 135.244 177.017C135.754 175.871 136.572 174.889 137.607 174.18C139.415 172.934 147.995 170.215 150.709 169.174Z" fill="#17ADBF"/>
<path d="M288.725 160.742C290.368 164.835 293.242 170.584 295.269 174.528C291.349 175.019 287.578 177.493 284.943 180.589C284.863 180.683 284.843 180.833 284.82 180.955C285.164 181.509 284.932 181.355 285.476 181.52C286.93 180.403 294.45 173.612 296.212 176.235C295.913 176.896 294.551 177.708 293.933 178.272C288.595 183.135 283.627 190.638 281.427 197.501C281.327 198.047 281.355 198.134 281.034 198.593C279.864 197.659 274.466 187.788 273.281 185.768C274.397 181.168 276.657 178.018 277.389 173.456C277.712 171.448 277.244 169.215 277.685 167.273C277.893 167.051 278.069 166.864 278.211 166.714C278.459 166.459 279.525 165.371 279.772 165.228C282.319 163.755 286.421 162.466 288.725 160.742Z" fill="white"/>
<path d="M273.281 185.767C274.397 181.167 276.657 178.017 277.389 173.455C277.712 171.447 277.244 169.215 277.685 167.272C277.893 167.05 278.069 166.864 278.211 166.713C279.079 170.862 279.398 175.064 279.795 179.273C280.337 185.027 280.807 190.777 281.028 196.554C281.043 196.917 281.211 197.221 281.427 197.5C281.327 198.046 281.355 198.133 281.034 198.592C279.864 197.658 274.466 187.787 273.281 185.767Z" fill="#D9DBD5"/>
<path d="M264.799 180.887C268.692 176.824 272.557 172.737 276.396 168.625C276.265 171.664 276.207 173.51 275.301 176.397C273.899 180.252 271.556 184.252 270.387 187.766C271.06 186.718 271.556 185.829 272.151 184.732C270.797 194.317 273.542 199.29 260.391 197.43C259.817 197.35 259.391 197.367 258.892 197.062L259.053 196.759L258.975 196.339L258.243 196.221C252.089 198.079 251.538 198.418 245.227 197.943C250.739 194.4 254.981 190.478 259.722 185.938C261.297 184.429 263.157 182.245 264.799 180.887Z" fill="#D9DBD5"/>
<path d="M264.799 180.887C268.692 176.824 272.557 172.737 276.396 168.625C276.265 171.664 276.207 173.51 275.301 176.397C273.292 177.134 266.666 181.058 264.799 180.887Z" fill="white"/>
<path d="M258.242 196.22C259.514 195.394 262.022 194.219 263.579 194.418L263.981 194.699C264.143 196.462 260.608 196.918 259.378 196.775L259.052 196.759L258.975 196.338L258.242 196.22Z" fill="#B5FE28"/>
<path d="M258.975 196.339C260.114 195.867 261.357 195.3 262.546 195.039C262.349 195.459 260.049 196.323 259.378 196.776L259.052 196.76L258.975 196.339Z" fill="#415A0E"/>
<path d="M357.712 281.565C358.969 281.6 360.104 282.002 361.288 282.381C360.793 283.078 360.164 283.734 360.804 284.494L361.284 284.483C361.966 284.167 362.138 283.721 362.575 283.058L365.224 284.048C364.747 284.835 364.196 285.353 364.704 286.211L365.163 286.214C365.855 285.884 366.095 285.279 366.508 284.592L369.231 285.525C368.755 286.369 368.352 286.708 368.912 287.558L369.387 287.563C370.076 287.224 370.189 286.804 370.579 286.088C371.489 286.329 372.172 286.452 372.99 286.923C372.845 287.582 372.651 288.091 372.829 288.724L373.17 288.885C373.938 288.586 374.04 288.089 374.56 287.264C375.712 287.638 377.086 287.99 378.268 288.321C377.71 290.463 377.688 291.855 377.922 294.013C376.015 294.47 373.594 294.784 371.656 294.972C366.252 295.382 360.815 295.518 355.449 295.953C355.384 295.823 355.317 295.692 355.248 295.561C352.893 291.092 349.908 289.453 345.259 287.995C345.062 286.635 344.665 284.989 345.121 283.72C346.3 282.992 347.839 285.194 350.18 285.384C353.727 285.674 355.168 283.547 357.712 281.565Z" fill="white"/>
<path d="M319.269 126.25C321.067 126.175 331.394 125.985 332.291 126.565C332.193 128.212 328.186 137.824 327.339 139.994C326.636 138.919 325.767 137.607 324.91 136.677C324.462 136.192 323.78 135.758 323.12 135.836C322.668 135.889 322.117 136.02 321.862 136.432C320.485 138.66 323.029 142.079 323.782 144.234C323.94 144.685 324.039 145.72 324.085 146.167C322.571 145.024 315.282 140.207 313.773 141.943C311.035 145.093 318.38 148.358 320.355 150.286C318.179 149.168 316.522 148.459 314.27 147.574C313.563 147.338 312.81 147.036 312.052 146.982C311.144 146.825 309.847 148.072 310.148 148.977C311.051 151.684 315.439 153.306 317.671 154.838L317.882 154.984C316.469 154.588 311.033 152.28 310.136 153.928C308.783 156.413 313.441 158.126 315.113 158.864C313.394 158.901 307.443 159.223 306.203 158.517C306.252 157.205 307.871 153.345 308.419 151.914L313.372 139.15L316.449 131.196C317.173 129.329 317.534 127.309 319.269 126.25Z" fill="white"/>
<path d="M319.967 127.78C320.629 127.914 320.828 127.93 321.281 128.428C321.718 129.743 321.156 130.206 320.074 130.821C319.497 130.695 319.53 130.683 319.033 130.348C318.38 129.128 319.069 128.564 319.967 127.78Z" fill="#1C1C1C"/>
<path d="M302.497 313.218C302.653 313.365 302.638 313.338 302.762 313.51C306.736 319.03 309.382 316.605 313.895 314.486C315.089 315.035 315.61 315.382 316.714 316.11C316.277 316.442 316.078 316.624 315.686 316.992C315.463 317.682 315.418 317.387 315.643 317.927L316.127 318.058C316.808 317.971 317.283 317.507 317.844 317.08L319.945 318.74C319.229 319.298 318.591 319.494 318.799 320.471L319.236 320.618C319.985 320.526 320.42 320.029 321.026 319.525C321.706 320.056 322.591 320.634 323.312 321.133C322.661 321.693 322.049 321.969 322.36 322.846L322.846 322.975C323.544 322.875 323.896 322.477 324.458 322.023C325.156 322.498 325.892 323.05 326.583 323.546C326.009 324.072 325.488 324.359 325.787 325.173L326.213 325.294C326.982 325.227 327.261 324.87 327.898 324.353C328.848 324.961 329.831 325.679 330.757 326.333C329.214 328.17 328.697 329.133 328.115 331.423C321.65 330.576 314.959 328.957 308.392 327.88C306.968 322.66 305.786 321.073 301.289 318.036C301.608 316.42 301.572 314.595 302.497 313.218Z" fill="white"/>
<path d="M296.401 240.354C296.676 240.733 297.2 241.663 297.175 242.091C296.965 245.706 297.07 248.451 297.519 252.04C299.227 265.688 301.499 279.259 303.336 292.887L299.218 292.867L298.825 292.722C298.785 292.55 298.743 292.378 298.702 292.207C297.231 283.047 295.391 273.934 293.837 264.79C292.963 259.648 291.893 253.802 292.337 248.584C292.506 246.622 295.344 241.995 296.401 240.354Z" fill="white"/>
<path d="M349.527 237.806C357.079 237.494 369.039 239.238 376.819 240.087C383.127 240.774 393.506 241.782 399.266 243.498C396.521 243.492 394.171 243.521 391.419 243.626C377.164 243.935 362.011 244.339 347.746 244.939C346.379 242.754 344.961 240.167 343.658 237.913L349.527 237.806Z" fill="#17ADBF"/>
<path d="M202.578 307.598C203.188 307.52 202.974 307.485 203.539 307.63C203.616 308.198 196.086 332.426 195.428 333.65C194.301 334.248 192.825 334.034 191.522 333.98C190.745 333.82 190.666 333.932 190.149 333.488C190.146 331.695 190.894 326.446 191.141 324.466C191.837 318.999 192.494 313.529 193.115 308.053C196.268 307.884 199.423 307.732 202.578 307.598Z" fill="#D9DBD5"/>
<path d="M253.512 112.004C253.698 112.607 253.874 113.22 254.053 113.825C256.912 119.712 260.543 122.808 266.08 126.24C265.488 127.794 264.911 129.288 264.396 130.872C264.093 132.001 263.732 132.723 264.219 133.779L264.559 133.893C265.54 133.264 265.501 132.03 265.644 130.953L265.706 132.083C265.783 133.658 265.851 135.326 264.654 136.529C262.181 139.013 256.453 137.179 254.29 135.09C252.32 127.52 252.328 119.705 253.512 112.004Z" fill="white"/>
<path d="M254.053 113.826C256.912 119.712 260.543 122.808 266.08 126.24C265.488 127.794 264.911 129.288 264.396 130.872L264.273 130.681C261.418 129.295 260.674 128.655 258.716 126.059C256.668 123.344 253.522 117.278 254.053 113.826Z" fill="#D9DBD5"/>
<path d="M352.263 264.475L353.083 265.936C354.92 268.919 356.617 271.481 358.829 274.223C356.441 276.388 355.034 277.407 356.49 280.674C348.009 288.278 346.989 281.834 343.179 275.318L340.818 271.53C345.308 269.581 348.501 267.467 352.263 264.475Z" fill="white"/>
<path d="M352.263 264.475L353.083 265.936C350.274 269.574 347.058 272.828 343.179 275.318L340.818 271.53C345.308 269.581 348.501 267.467 352.263 264.475Z" fill="#D9DBD5"/>
<path d="M286.765 237.83C288.39 237.721 289.995 237.685 291.598 237.583C291.123 238.841 289.514 242.542 289.842 243.949C289.893 244.161 290.149 244.357 290.321 244.502L290.787 244.136C291.34 243.877 292.14 244.061 292.673 244.308C292.341 245.022 291.969 245.753 291.623 246.464C286.343 246.651 281.242 246.841 275.955 246.769C271.183 246.703 266.221 246.352 261.476 246.446C266.297 244.042 270.697 241.295 275.261 238.462C278.686 238.435 283.253 238.018 286.765 237.83Z" fill="#D9DBD5"/>
<path d="M286.765 237.83C288.39 237.721 289.995 237.685 291.597 237.583C291.122 238.841 289.514 242.542 289.842 243.949C289.893 244.161 290.149 244.357 290.321 244.502L290.7 244.527C289.752 245.057 285.418 244.749 284.065 244.692C284.878 242.372 285.777 240.082 286.765 237.83Z" fill="white"/>
<path d="M319.396 234.764C320.101 235.384 326.012 246.174 326.917 247.741L337.254 265.262L335.836 265.858C334.409 266.471 332.967 267.05 331.511 267.594C328.413 262.453 324.398 256.631 320.883 251.802C320.232 246.459 319.974 240.298 319.396 234.764Z" fill="white"/>
<path d="M402.764 297.647C404.199 297.544 405.789 297.515 407.239 297.459C407.888 299.901 408.483 303.656 408.96 306.213L411.792 321.445C409.93 321.703 408.483 321.634 406.628 321.469C403.502 313.641 400.454 305.783 397.486 297.894L402.764 297.647Z" fill="#D9DBD5"/>
<path d="M303.276 300.06C306.607 299.995 309.876 299.879 313.192 299.541C313.929 299.467 316.638 298.961 317.004 299.161L317.183 300.441C317.29 302.956 317.608 305.458 317.97 307.946C314.852 308.865 312.583 309.565 312.975 313.255C309.66 315.195 306.774 317.242 304.15 312.883C304.157 310.29 304.074 307.697 303.903 305.11C303.806 304.805 303.352 300.687 303.276 300.06Z" fill="white"/>
<path d="M303.276 300.06C306.607 299.995 309.876 299.879 313.192 299.541C313.929 299.467 316.638 298.961 317.004 299.161L317.183 300.441C316.748 300.504 315.046 301.191 314.688 301.413C312.692 302.653 305.26 303.953 303.991 304.883L303.903 305.11C303.806 304.805 303.352 300.687 303.276 300.06Z" fill="#D9DBD5"/>
<path d="M393.631 288.498C394.104 289.388 394.38 290.811 394.603 291.812C393.124 293.455 391.791 294.318 389.809 295.326C386.237 297.112 382.44 298.405 378.52 299.166C372.268 300.432 365.327 300.176 358.941 300.742C355.94 301.009 350.593 301.629 347.841 300.719C347.297 299.518 347.083 298.387 346.782 297.107C348.173 297.351 349.582 297.48 350.994 297.495C354.069 297.533 357.509 297.13 360.628 297.038C370.537 296.746 386.172 295.803 393.631 288.498Z" fill="white"/>
<path d="M300.348 327.394C303.909 328.921 308.857 329.135 312.679 329.963C323.054 332.212 335.995 334.955 346.365 330.906C346.392 332.217 346.37 332.989 346.258 334.295C342.097 336.621 334.858 336.659 330.126 336.503C324.864 336.217 319.62 334.834 314.444 333.838C310.737 333.125 303.541 332.844 300.413 331.091C300.368 329.88 300.366 328.611 300.348 327.394Z" fill="white"/>
<path d="M137.251 301.825C140.183 302.12 143.327 302.706 146.339 303.039C144.067 308.396 141.753 315.188 139.699 320.742C138.264 324.834 137.48 324.127 133.448 323.771C134.664 316.693 135.791 308.767 137.251 301.825Z" fill="#D9DBD5"/>
<path d="M352.53 255.614C353.056 256.159 354.461 258.825 354.912 259.635C349.814 266.239 341.845 269.646 334.32 272.56L331.89 268.699C339.972 265.831 346.708 262.076 352.53 255.614Z" fill="white"/>
<path d="M322.474 291.426C322.862 291.939 322.855 295.071 322.886 295.959C315.713 298.59 307.021 298.808 299.441 298.576C299.122 297.192 298.932 295.509 298.732 294.083C306.02 294.177 315.588 293.801 322.474 291.426Z" fill="white"/>
<path d="M273.049 188.335C273.64 188.85 276.22 193.811 276.996 195.026C278.133 196.806 279.11 198.487 280.441 200.284C277.445 201.045 274.419 201.997 271.453 202.893C269.952 203.357 268.457 203.845 266.972 204.356C266.619 203.789 266.237 203.23 265.866 202.674C265.797 201.493 265.747 200.313 265.717 199.133C273.32 198.393 272.786 194.741 273.049 188.335Z" fill="white"/>
<path d="M321.169 254.682C322.547 255.976 331.97 270.648 331.997 271.952C328.987 271.956 325.41 272.119 322.4 272.333C321.87 266.65 321.578 260.424 321.169 254.682Z" fill="white"/>
<path d="M208.663 241.063C210.559 240.987 212.542 240.983 214.446 240.952C217.057 244.838 218.992 246.513 223.358 248.205L219.404 248.225L205.581 248.6L205.557 241.148L208.663 241.063Z" fill="#17ADBF"/>
<path d="M336.639 324.392C337.027 324.35 337.43 324.29 337.799 324.441C341.021 325.75 344.236 326.386 345.942 329.556C343.321 330.638 341.38 331.001 338.566 331.307C335.692 331.753 332.148 331.594 329.259 331.44C330.907 327.182 332.217 325.839 336.639 324.392Z" fill="white"/>
<path d="M382.777 284.253C386.498 284.882 390.268 284.485 392.906 287.158C390.906 289.221 389.287 289.993 386.667 291.194C384.065 292.352 381.617 293.06 378.901 293.872C378.837 289.43 379.153 287.223 382.777 284.253Z" fill="white"/>
<path d="M346.111 300.423C346.702 301.565 346.892 301.79 348.044 302.339C348.365 306.047 348.64 309.761 348.869 313.476L346.225 313.545C345.687 313.536 345.019 313.583 344.519 313.373C343.623 312.994 340.902 302.314 340.434 300.666L343.128 300.548C344.077 300.481 345.152 300.461 346.111 300.423Z" fill="#D9DBD5"/>
<path d="M222.597 203C226.362 203.455 230.004 203.939 233.788 204.3C232.289 207.141 231.286 208.403 228.472 209.944C225.738 211.234 223.049 211.87 220.141 212.67C220.888 209.208 221.478 206.365 222.597 203Z" fill="white"/>
<path d="M219.155 197.165L225.335 198.222C225.481 198.71 225.654 199.191 225.851 199.66C227.527 203.549 233.781 200.393 236.356 199.196C237.568 199.68 238.36 199.51 238.383 200.855L238.326 203.328C232.06 202.815 225.076 202.182 218.891 201.045C218.999 199.753 219.088 198.46 219.155 197.165Z" fill="#D9DBD5"/>
<path d="M243.356 198.841C247.63 199.2 247.731 199.604 252.464 199.203C252.444 200.567 252.558 202.025 252.573 203.417L252.302 203.62C249.037 203.678 245.771 203.671 242.507 203.599C242.531 201.845 242.254 200.003 243.356 198.841Z" fill="#D9DBD5"/>
<path d="M318.79 124.634C321.065 124.636 329.687 124.502 331.491 124.915L331.524 125.084C329.988 126.082 320.498 124.838 318.326 125.773C316.957 126.362 315.113 132.255 314.509 133.797C312.467 138.955 310.464 144.128 308.5 149.315C307.695 151.397 305.535 155.922 305.55 157.913L305.234 158.224C304.939 158.023 304.745 157.746 304.69 157.38C304.542 156.357 315.95 126.959 316.748 125.734C317.258 124.952 317.943 124.816 318.79 124.634Z" fill="#D9DBD5"/>
<path d="M293.969 168.978L306.029 168.957C304.745 169.989 303.382 171.015 302.076 172.027L297.431 175.558C296.413 173.991 294.841 170.708 293.969 168.978Z" fill="white"/>
<path d="M305.104 213.343C306.698 213.978 307.542 214.708 308.873 215.758C307.744 216.786 306.262 217.628 305.771 219.125L305.925 219.287C307.432 218.908 308.5 217.695 309.622 216.634C310.425 217.883 311.189 219.279 311.929 220.576L312.997 222.467C309.247 220.367 306.132 219.633 301.88 220.362C302.91 218.003 303.985 215.662 305.104 213.343Z" fill="white"/>
<path d="M256.495 198.22C258.253 198.473 260.013 198.712 261.774 198.94C261.883 200.126 261.903 201.497 261.948 202.701C261.07 202.857 259.834 202.967 258.92 203.074C257.119 203.27 255.599 203.419 253.777 203.499C253.536 201.905 253.586 200.603 253.721 199.015C254.615 198.73 255.587 198.476 256.495 198.22Z" fill="#D9DBD5"/>
<path d="M255.054 199.04C257.115 199.237 258.461 200.46 256.612 202.322C254.33 202.759 253.772 200.296 255.054 199.04Z" fill="#B5FE28"/>
<path d="M361.539 274.114C362.667 274.745 364.847 276.863 366.283 277.88C364.499 278.888 363.367 280.03 362.004 281.519C360.765 280.879 357.913 280.212 357.375 279.582C355.96 277.927 360.653 274.643 361.539 274.114Z" fill="white"/>
<path d="M345.391 289.094C349.815 290.43 352.06 292.153 354.399 296.038C351.965 296.134 349.083 296.31 346.745 295.748C346.151 293.71 345.685 291.199 345.391 289.094Z" fill="white"/>
<path d="M319.292 309.197C321.269 309.445 322.21 311.893 323.319 313.507C321.107 313.953 320.217 314.276 318.201 315.318L317.932 315.409C316.886 314.705 314.692 313.603 314.406 312.388C313.887 310.19 317.842 309.456 319.292 309.197Z" fill="white"/>
<path d="M301.144 319.209C302.698 320.052 304.504 321.671 305.429 323.182C305.936 324.01 307.238 326.649 307.055 327.517L306.658 327.631C304.306 327.227 302.716 326.888 300.493 326.038C300.584 323.771 300.859 321.459 301.144 319.209Z" fill="white"/>
<path d="M264.758 203.702C265.116 203.968 265.237 204.306 265.281 204.71C264.552 205.229 256.473 207.631 254.879 208.204C254.398 208.001 254.316 205.481 254.248 204.839C257.869 204.539 261.134 204.318 264.758 203.702Z" fill="white"/>
<path d="M292.95 237.694C293.882 238.195 294.656 238.583 295.509 239.224C294.546 240.882 293.507 242.59 292.673 244.309C292.14 244.062 291.34 243.877 290.787 244.136C291.411 241.97 292.029 239.758 292.95 237.694Z" fill="white"/>
<path d="M378.148 283.073C379.096 283.388 380.4 283.662 381.401 283.9C379.887 285.202 379.579 285.745 378.603 287.412C377.466 286.94 376.288 286.607 375.111 286.246C376.144 284.964 376.922 284.154 378.148 283.073Z" fill="white"/>
<path d="M333.381 321.895C334.231 322.276 335.343 322.887 336.193 323.326C333.997 324.022 333.468 324.118 331.622 325.583C330.56 324.646 330.016 324.321 328.795 323.574C330.527 322.798 331.561 322.408 333.381 321.895Z" fill="white"/>
<path d="M270.774 73.9282C274.51 74.4826 278.99 80.7733 279.478 84.4543L279.048 84.3417C278.17 83.3647 277.238 80.6268 276.092 79.0812C274.856 77.4146 271.237 75.1044 270.774 73.9282Z" fill="#1C1C1C"/>
<path d="M367.44 278.712C367.87 278.957 369.059 279.455 369.563 279.684C367.935 280.757 367.184 281.591 365.893 283.013L363.32 281.99C364.794 280.569 365.714 279.785 367.44 278.712Z" fill="white"/>
<path d="M324.016 314.831L324.208 314.816C324.846 315.067 325.452 315.674 325.985 316.136C323.909 316.591 323.017 316.876 321.142 317.859C320.71 317.77 319.441 316.7 318.995 316.358C320.969 315.518 321.909 315.146 324.016 314.831Z" fill="white"/>
<path d="M370.919 280.491L372.854 281.248C372.136 281.856 369.924 284.365 369.702 284.472C368.954 284.155 367.98 283.825 367.2 283.535C368.567 282.11 369.233 281.499 370.919 280.491Z" fill="white"/>
<path d="M374.239 281.885C374.933 282.061 375.905 282.413 376.611 282.641C375.3 283.765 374.732 284.474 373.728 285.841L371.206 284.973C372.087 283.803 373.128 282.828 374.239 281.885Z" fill="white"/>
<path d="M326.757 317.326C327.51 317.329 328.177 318.02 328.783 318.51C326.995 318.978 325.983 319.502 324.377 320.365C323.883 320.174 322.687 319.228 322.201 318.869C323.863 318.129 325.008 317.754 326.757 317.326Z" fill="white"/>
<path d="M330.001 319.688C330.848 319.86 331.325 320.283 332.044 320.776C330.405 321.296 329.183 321.766 327.687 322.602C327.301 322.624 325.956 321.621 325.502 321.325C327.165 320.419 328.175 320.123 330.001 319.688Z" fill="white"/>
<path d="M241.01 199.892L241.325 199.852L241.519 200.086C241.591 201.087 241.683 202.309 241.251 203.257C241.132 203.52 240.846 203.52 240.455 203.655C239.839 203.504 240.03 203.629 239.577 203.257C239.237 202.072 238.972 201.533 239.604 200.284C239.827 199.845 240.442 199.936 241.01 199.892Z" fill="#D9DBD5"/>
<path d="M288.559 154.973C288.998 155.073 289.264 155.174 289.687 155.318C287.948 156.646 288.145 156.803 288.53 158.709C288.24 159.47 288.176 159.318 287.378 159.895L286.417 160.526L286.267 160.474C287.097 158.717 287.707 156.8 288.559 154.973Z" fill="white"/>
<path d="M262.988 199.046C263.781 199.068 263.647 198.952 264.244 199.307C264.615 200.09 264.466 201.472 264.486 202.408C263.677 202.495 263.792 202.618 263.258 202.275C262.827 201.441 262.978 200.058 262.988 199.046Z" fill="#D9DBD5"/>
<path d="M300.585 147.735C301.441 147.903 301.111 147.704 301.677 148.225L301.682 148.675C301.289 149.462 300.799 149.811 300.149 150.405L299.623 150.694L299.434 150.462C299.307 149.178 299.38 148.282 300.585 147.735Z" fill="white"/>
<path d="M300.346 58.5877C302.201 58.4253 305.152 58.5116 307.074 58.5107L318.869 58.5087L327.997 58.4951C339.103 58.4662 336.363 59.3411 336.818 69.5568C336.93 72.075 336.843 73.1328 334.628 74.4896C332.958 74.6459 330.213 74.5723 328.476 74.5735L316.987 74.577L307.234 74.5821C297.512 74.5792 298.114 74.8397 298.308 64.7676C298.36 62.0038 297.559 60.3438 300.346 58.5877Z" fill="#1C1C1C"/>
<path d="M301.356 59.1722C306.531 59.1316 311.706 59.1274 316.879 59.1597C320.871 59.1492 331.279 58.6388 334.323 59.531C334.987 59.7256 335.402 59.9833 335.691 60.6324C336.231 61.8505 336.283 71.1792 335.685 72.4016C335.308 73.1702 334.655 73.4964 333.883 73.7682C329.847 73.7733 302.031 74.1637 300.429 73.4937C299.973 73.3022 299.71 72.8478 299.521 72.4074C298.832 70.7928 298.663 62.2744 299.372 60.6902C299.731 59.8866 300.604 59.5022 301.356 59.1722Z" fill="#B5FE28"/>
<path d="M326.703 62.7865C327.595 62.7905 330.911 62.6913 331.584 62.8583C331.841 63.4625 331.796 63.157 331.72 63.8101C330.572 64.6124 329.355 63.3308 328.305 64.6149C328.206 65.3569 328.128 65.049 328.365 65.6316C328.985 65.9714 330.222 65.822 331.076 65.8541C331.426 66.3132 331.324 66.0468 331.277 66.7161C330.842 67.1908 329.159 67.0669 328.267 67.1288C328.253 67.8325 328.266 68.0887 328.353 68.7869C329.29 69.4527 331.39 68.3978 331.886 69.5726L331.651 69.9916C330.964 70.4978 327.803 70.294 326.666 70.2937L326.703 62.7865Z" fill="#415A0E"/>
<path d="M319.25 62.7908C319.649 62.7689 320.01 62.7705 320.409 62.7689C321.468 63.4263 321.939 66.508 322.538 68.0171L322.618 68.2159L323.515 65.1599C323.847 64.0439 323.943 63.1183 324.917 62.5895C325.482 62.6441 325.238 62.5382 325.667 62.9344C325.834 63.8343 325.725 63.6704 325.381 64.6696C324.764 66.2803 324.262 68.7457 323.292 70.0408C323.018 70.4087 322.257 70.2673 321.74 70.2515C320.955 67.8982 319.903 65.1421 319.25 62.7908Z" fill="#415A0E"/>
<path d="M304.642 64.114C305.523 63.8132 306.498 64.0105 307.193 64.6301C307.887 65.2498 308.195 66.1959 307.996 67.1056C307.798 68.0153 307.126 68.7476 306.235 69.0216C304.888 69.4365 303.458 68.6932 303.022 67.3524C302.587 66.0115 303.309 64.5697 304.642 64.114Z" fill="#415A0E"/>
<path d="M311.033 62.7561C311.713 62.7434 311.796 62.7462 312.465 62.8617C312.663 63.5061 312.605 67.8548 312.616 68.9498C313.755 68.9997 314.411 68.7491 315.486 69.0356C316.007 69.497 315.84 69.3476 315.923 70.2812L311.033 70.2954V62.7561Z" fill="#415A0E"/>
<path d="M316.77 62.749C317.386 62.7363 317.707 62.6819 318.286 62.9049C318.472 63.8659 318.344 68.969 318.335 70.26C317.901 70.2725 317.544 70.2349 317.114 70.1989C316.541 69.6204 316.766 64.0385 316.77 62.749Z" fill="#415A0E"/>
<path d="M349.814 102.843C351.027 102.77 352.191 102.762 353.406 102.764C366.406 102.78 379.416 102.725 392.415 102.809C396.273 102.833 395.892 105.952 395.923 108.941C395.979 114.371 394.73 114.318 390.07 114.265L352.838 114.27C351.233 115.711 349.716 117.204 347.921 118.389C347.783 115.5 347.854 112.427 347.836 109.521C347.821 106.968 347.331 104.273 349.814 102.843Z" fill="#1C1C1C"/>
<path d="M365.409 103.441L382.852 103.429C386.052 103.428 389.189 103.41 392.413 103.5C396.34 103.353 394.793 107.794 395.141 110.068C395.867 114.798 390.407 113.635 387.004 113.631L375.01 113.617C367.715 113.586 359.79 113.809 352.566 113.541C351.311 114.551 349.821 115.955 348.597 117.057C348.619 114.515 347.959 105.663 349.523 104.098C349.915 103.705 350.453 103.492 350.996 103.41C352.609 103.164 354.495 103.44 356.143 103.46C359.233 103.469 362.321 103.463 365.409 103.441Z" fill="#D9DBD5"/>
<path d="M350.156 73.1276C353.522 73.1428 365.835 72.7113 368.158 73.4792C368.736 73.6701 369.211 73.9092 369.467 74.4902C369.761 75.1556 369.877 75.9728 369.929 76.6936C370.098 79.0145 370.277 92.2994 369.668 93.636C369.32 94.3985 368.473 94.8094 367.744 95.1085C364.403 95.0969 351.297 95.6318 349.148 94.6003C348.644 94.3579 348.454 93.9563 348.278 93.4453C347.66 91.6557 347.507 75.8689 348.28 74.463C348.686 73.7205 349.384 73.3789 350.156 73.1276Z" fill="#1C1C1C"/>
<path d="M350.262 73.8578C352.838 73.7759 366.078 73.4999 367.699 73.9416C368.287 74.1015 368.704 74.5189 368.979 75.05C369.447 75.953 369.42 92.0258 369.017 93.0615C368.735 93.7857 368.216 94.0502 367.569 94.3938C363.195 94.5512 358.655 94.3456 354.273 94.4379C353.243 94.4597 349.934 94.5724 349.348 93.8245C348.514 92.7616 348.646 89.4518 348.637 88.0419C348.722 83.8072 348.423 79.6655 348.791 75.4707C348.855 74.7392 349.712 74.1994 350.262 73.8578Z" fill="#D9DBD5"/>
<path d="M358.364 76.7051C361.468 76.6784 360.788 78.0362 362.103 80.004C362.375 80.4091 363.613 80.3175 364.126 80.3307C364.358 81.9786 365.486 90.1697 364.817 91.139C363.624 91.4924 361.291 91.3299 359.965 91.3051C358.649 91.3118 353.795 91.5647 353.082 90.968C352.6 89.5035 353.588 82.0917 353.766 80.2776C357.846 80.3563 354.752 78.3517 358.364 76.7051Z" fill="#1C1C1C"/>
<path d="M354.564 80.9702C355.149 80.9681 355.18 80.9481 355.735 81.0973C356.085 81.4939 356.052 81.8605 356.121 82.409L356.15 82.6572L356.442 82.8723C357.557 82.5698 356.446 81.8543 357.171 81.0725C358.368 80.94 360.123 80.5804 360.955 81.5532C360.993 82.079 360.986 82.1698 361.131 82.669L361.588 82.8603C362.212 82.2832 361.57 81.8025 362.154 80.9936C362.796 80.9265 362.487 80.8752 363.095 81.223C363.891 82.4581 364.039 86.6657 364.237 88.5037L364.393 90.556C360.748 90.5883 357.104 90.5694 353.459 90.4996C353.842 87.3728 354.061 84.0331 354.564 80.9702Z" fill="#B5FE28"/>
<path d="M358.724 77.4144C360.066 77.6316 361.351 78.4927 360.748 79.9958C360.08 80.4288 360.1 80.2738 359.145 80.2829C358.403 80.3014 358.06 80.3712 357.389 80.1108C356.911 79.5271 357.045 79.8493 356.954 79.1177C357.317 78.1573 357.807 77.8409 358.724 77.4144Z" fill="#D9DBD5"/>
<path d="M340.492 141.856C341.839 142.463 343.883 144.611 345.012 145.716C355.375 145.899 365.799 145.599 376.167 145.764C380.116 145.827 379.193 149.758 379.28 152.524C379.32 153.845 379.189 154.919 378.453 156.013C376.932 156.985 372.725 156.67 370.761 156.67L360.468 156.667C355.046 156.664 349.498 156.709 344.073 156.63C343.306 156.618 341.643 156.335 341.069 155.845C339.992 153.856 340.282 144.405 340.492 141.856Z" fill="#1C1C1C"/>
<path d="M341.105 143.167C341.892 143.683 344.035 145.626 344.878 146.345C348.688 146.347 375.76 145.966 377.292 146.554C377.958 146.808 378.324 147.646 378.489 148.282C378.964 150.106 378.982 153.763 378.025 155.387C377.838 155.509 377.664 155.623 377.459 155.71C376.315 156.192 347.679 156.111 344.443 155.952C343.536 155.908 342.633 155.817 341.781 155.49C340.476 153.535 341.058 145.91 341.105 143.167Z" fill="#D9DBD5"/>
<path d="M365.491 149.971C367.678 150.027 368.546 151.253 367.029 153.068C364.686 153.294 364.159 151.642 365.491 149.971Z" fill="#0C0C0C"/>
<path d="M365.798 150.459C366.556 150.762 366.379 150.579 366.854 151.154C366.982 151.832 366.835 152.084 366.62 152.737C365.898 152.575 365.927 152.579 365.559 151.998C365.481 151.246 365.532 151.192 365.798 150.459Z" fill="white"/>
<path d="M363.244 148.947C363.653 149.167 363.813 149.568 364.058 149.985C364.051 150.265 364.034 150.506 363.94 150.774C363.363 152.392 364.08 151.996 364.373 152.881C363.77 153.145 364.063 153.13 363.467 152.989C362.636 151.755 363.844 150.895 362.11 150.384C361.838 150.614 361.78 150.696 361.541 150.962C361.461 151.646 361.347 152.681 360.722 153.087C360.359 152.337 360.441 150.783 361.033 150.122C361.641 150.027 361.951 150.03 362.553 150.024C363.16 149.657 362.963 149.806 363.244 148.947Z" fill="#0C0C0C"/>
<path fill-rule="evenodd" clip-rule="evenodd" d="M371.351 150.068C371.531 150.246 371.657 150.484 371.748 150.745C371.896 151.169 371.952 151.652 371.996 152.032L371.999 152.055C372.041 152.101 372.077 152.142 372.11 152.179C372.265 152.354 372.344 152.443 372.568 152.632C373.592 152.331 373.59 151.907 373.588 151.357C373.586 150.976 373.584 150.533 373.925 150.028C374.033 150.002 374.112 149.981 374.173 149.964C374.273 149.937 374.322 149.924 374.368 149.929C374.412 149.934 374.454 149.955 374.535 149.996C374.6 150.029 374.692 150.075 374.831 150.136C374.732 150.436 374.584 150.589 374.454 150.722C374.201 150.984 374.017 151.173 374.398 152.243C374.485 152.492 374.44 152.538 374.236 152.749L374.186 152.801C373.939 153.058 373.011 152.993 373.011 152.993L372.904 152.992C372.37 152.987 372.062 152.984 371.491 152.895C371.479 152.881 371.466 152.866 371.454 152.851L371.416 152.891C371.169 153.148 370.241 153.082 370.241 153.082L370.134 153.081C369.6 153.076 369.292 153.074 368.721 152.985C368.129 152.323 368.047 150.769 368.41 150.02C369.028 150.422 369.147 151.438 369.227 152.122L369.229 152.145C369.271 152.191 369.307 152.232 369.34 152.269C369.495 152.444 369.574 152.533 369.798 152.722C370.822 152.421 370.82 151.997 370.818 151.447C370.817 151.108 370.815 150.719 371.055 150.282C371.084 150.228 371.118 150.173 371.155 150.118C371.235 150.099 371.299 150.082 371.351 150.068Z" fill="#0C0C0C"/>
<path d="M371.351 150.068C371.531 150.246 371.657 150.484 371.748 150.745C371.896 151.169 371.952 151.652 371.996 152.032L371.999 152.055C372.041 152.101 372.077 152.142 372.11 152.179C372.265 152.354 372.344 152.443 372.568 152.632C373.592 152.331 373.59 151.907 373.588 151.357C373.586 150.976 373.584 150.533 373.925 150.028C374.033 150.002 374.112 149.981 374.173 149.964C374.273 149.937 374.322 149.924 374.368 149.929C374.412 149.934 374.454 149.955 374.535 149.996C374.6 150.029 374.692 150.075 374.831 150.136C374.732 150.436 374.584 150.589 374.454 150.722C374.201 150.984 374.017 151.173 374.398 152.243C374.485 152.492 374.44 152.538 374.236 152.749L374.186 152.801C373.939 153.058 373.011 152.993 373.011 152.993L372.904 152.992C372.37 152.987 372.062 152.984 371.491 152.895C371.479 152.881 371.466 152.866 371.454 152.851L371.416 152.891C371.169 153.148 370.241 153.082 370.241 153.082L370.134 153.081C369.6 153.076 369.292 153.074 368.721 152.985C368.129 152.323 368.047 150.769 368.41 150.02C369.028 150.422 369.147 151.438 369.227 152.122L369.229 152.145C369.271 152.191 369.307 152.232 369.34 152.269M371.351 150.068C371.37 150.063 371.387 150.059 371.403 150.054M371.351 150.068C371.299 150.082 371.235 150.099 371.155 150.118C371.118 150.173 371.084 150.228 371.055 150.282C370.815 150.719 370.817 151.108 370.818 151.447C370.82 151.997 370.822 152.421 369.798 152.722C369.574 152.533 369.495 152.444 369.34 152.269M369.252 152.17C369.284 152.206 369.313 152.239 369.34 152.269M365.491 149.971C367.678 150.027 368.546 151.253 367.029 153.068C364.686 153.294 364.159 151.642 365.491 149.971ZM365.798 150.459C366.556 150.762 366.379 150.579 366.854 151.154C366.982 151.832 366.835 152.084 366.62 152.737C365.898 152.575 365.927 152.579 365.559 151.998C365.481 151.246 365.532 151.192 365.798 150.459ZM363.244 148.947C363.653 149.167 363.813 149.568 364.058 149.985C364.051 150.265 364.034 150.506 363.94 150.774C363.363 152.392 364.08 151.996 364.373 152.881C363.77 153.145 364.063 153.13 363.467 152.989C362.636 151.755 363.844 150.895 362.11 150.384C361.838 150.614 361.78 150.696 361.541 150.962C361.461 151.646 361.347 152.681 360.722 153.087C360.359 152.337 360.441 150.783 361.033 150.122C361.641 150.027 361.951 150.03 362.553 150.024C363.16 149.657 362.963 149.806 363.244 148.947Z" stroke="#1C1C1C" stroke-width="0.200166"/>
<path d="M347.581 148.044L347.053 148.241C346.756 149.145 346.687 151.294 346.908 152.274C347.287 152.628 348.311 152.566 348.966 152.614C350.552 151.092 349.842 149.635 347.963 149.388C347.641 149.345 347.624 148.366 347.581 148.044Z" fill="#0C0C0C"/>
<path d="M348.505 149.912C347.791 150.303 348.045 150.033 347.677 150.713C347.646 151.436 347.722 151.524 347.997 152.219C348.699 151.827 348.607 151.866 348.895 151.278C348.9 150.55 348.839 150.54 348.505 149.912Z" fill="white"/>
<path d="M353.081 153.13C353.491 152.909 353.65 152.509 353.895 152.091C353.888 151.811 353.872 151.571 353.777 151.302C353.201 149.685 353.917 150.08 354.211 149.196C353.607 148.931 353.901 148.946 353.304 149.088C352.474 150.321 353.681 151.181 351.948 151.692C351.676 151.463 351.618 151.381 351.379 151.114C351.299 150.43 351.185 149.396 350.559 148.989C350.196 149.739 350.278 151.293 350.871 151.954C351.478 152.049 351.788 152.046 352.39 152.052C352.998 152.419 352.8 152.27 353.081 153.13Z" fill="#0C0C0C"/>
<path fill-rule="evenodd" clip-rule="evenodd" d="M356.761 152.14C356.787 152.156 356.811 152.17 356.834 152.184L356.761 152.14Z" fill="#0C0C0C"/>
<path d="M358.141 152.4C358.181 152.328 358.223 152.254 358.266 152.179C358.259 151.9 358.243 151.659 358.148 151.391C357.767 150.321 357.951 150.132 358.204 149.87C358.334 149.736 358.482 149.584 358.582 149.284C358.442 149.223 358.351 149.177 358.285 149.144C358.204 149.103 358.162 149.082 358.119 149.077C358.072 149.072 358.024 149.085 357.923 149.112C357.863 149.129 357.784 149.15 357.675 149.176C357.335 149.681 357.337 150.124 357.338 150.505C357.34 151.055 357.342 151.479 356.319 151.78C356.094 151.591 356.015 151.502 355.86 151.327C355.827 151.29 355.791 151.249 355.749 151.203L355.747 151.18C355.667 150.496 355.549 149.48 354.93 149.078C354.567 149.827 354.649 151.381 355.242 152.043C355.812 152.132 356.12 152.134 356.654 152.139L356.761 152.14L356.834 152.184C357.091 152.339 357.179 152.392 357.235 152.506C356.925 153.072 356.404 153.43 355.832 153.795C355.776 154.262 355.737 154.6 355.716 155.073C357.265 154.727 357.75 153.834 358.141 152.4Z" fill="#0C0C0C"/>
<path d="M356.761 152.14C356.787 152.156 356.811 152.17 356.834 152.184M356.761 152.14L356.834 152.184M356.761 152.14L356.654 152.139C356.12 152.134 355.812 152.132 355.242 152.043C354.649 151.381 354.567 149.827 354.93 149.078C355.549 149.48 355.667 150.496 355.747 151.18L355.749 151.203C355.791 151.249 355.827 151.29 355.86 151.327C356.015 151.502 356.094 151.591 356.319 151.78C357.342 151.479 357.34 151.055 357.338 150.505C357.337 150.124 357.335 149.681 357.675 149.176C357.784 149.15 357.863 149.129 357.923 149.112C358.024 149.085 358.072 149.072 358.119 149.077C358.162 149.082 358.204 149.103 358.285 149.144C358.351 149.177 358.442 149.223 358.582 149.284C358.482 149.584 358.334 149.736 358.204 149.87C357.951 150.132 357.767 150.321 358.148 151.391C358.243 151.659 358.259 151.9 358.266 152.179C358.223 152.254 358.181 152.328 358.141 152.4C357.75 153.834 357.265 154.727 355.716 155.073C355.737 154.6 355.776 154.262 355.832 153.795C356.404 153.43 356.925 153.072 357.235 152.506C357.179 152.392 357.091 152.339 356.834 152.184M347.581 148.044L347.053 148.241C346.756 149.145 346.687 151.294 346.908 152.274C347.287 152.628 348.311 152.566 348.966 152.614C350.552 151.092 349.842 149.635 347.963 149.388C347.641 149.345 347.624 148.366 347.581 148.044ZM348.505 149.912C347.791 150.303 348.045 150.033 347.677 150.713C347.646 151.436 347.722 151.524 347.997 152.219C348.699 151.827 348.607 151.866 348.895 151.278C348.9 150.55 348.839 150.54 348.505 149.912ZM353.081 153.13C353.491 152.909 353.65 152.509 353.895 152.091C353.888 151.811 353.872 151.571 353.777 151.302C353.201 149.685 353.917 150.08 354.211 149.196C353.607 148.931 353.901 148.946 353.304 149.088C352.474 150.321 353.681 151.181 351.948 151.692C351.676 151.463 351.618 151.381 351.379 151.114C351.299 150.43 351.185 149.396 350.559 148.989C350.196 149.739 350.278 151.293 350.871 151.954C351.478 152.049 351.788 152.046 352.39 152.052C352.998 152.419 352.8 152.27 353.081 153.13Z" stroke="#1C1C1C" stroke-width="0.200166"/>
<path d="M350.392 122.78L362.64 122.78C364.816 122.78 366.918 122.743 369.102 122.881C371.969 122.982 372.176 125.889 372.127 128.154C372.002 133.997 372.042 134.577 366.397 134.489C363.866 134.485 345.19 134.729 344.334 134.16C344.378 133.298 347.099 130.753 347.85 129.981C347.897 126.978 346.969 124.026 350.392 122.78Z" fill="#1C1C1C"/>
<path d="M350.314 123.501C352.812 123.49 369.136 123.021 370.302 123.883C371.024 124.415 371.265 125.698 371.345 126.521C371.505 128.162 371.764 132.047 370.489 133.301C369.626 134.15 367.463 133.839 366.306 133.821L345.297 133.839C346.381 132.648 347.511 131.461 348.611 130.283C348.704 127.679 347.71 124.911 350.314 123.501Z" fill="#D9DBD5"/>
<path d="M365.373 127.005C365.977 126.868 366.608 127.067 367.023 127.526C367.44 127.984 367.576 128.632 367.38 129.219C367.184 129.806 366.688 130.243 366.08 130.361C365.161 130.539 364.269 129.947 364.075 129.031C363.882 128.114 364.461 127.213 365.373 127.005Z" fill="#1C1C1C"/>
<path d="M359.534 127.007C360.415 126.739 361.352 127.216 361.652 128.088C361.953 128.959 361.51 129.913 360.651 130.246C360.065 130.473 359.403 130.362 358.925 129.956C358.444 129.55 358.225 128.915 358.352 128.3C358.479 127.685 358.932 127.189 359.534 127.007Z" fill="#1C1C1C"/>
<path d="M353.743 127.011C354.629 126.714 355.589 127.188 355.891 128.071C356.194 128.955 355.726 129.917 354.845 130.226C353.955 130.539 352.981 130.067 352.675 129.174C352.368 128.281 352.849 127.31 353.743 127.011Z" fill="#1C1C1C"/>
<path d="M346.088 41.4323C348.527 41.4087 353.638 41.1139 355.415 41.9102C357.11 42.6698 356.98 51.7029 355.83 53.0544C354.913 54.132 352.042 53.901 350.887 53.9001L349.156 56.087L348.026 57.2208C347.076 56.3073 346.001 54.9075 345.145 53.8606C342.699 53.8845 339.615 54.4537 339.522 50.8995C339.459 48.4522 338.977 44.1633 340.371 42.108C341.045 41.114 344.848 41.4187 346.088 41.4323Z" fill="#1C1C1C"/>
<path d="M350.465 42.1581C351.914 42.1148 353.874 41.8859 355.101 42.5454C356.225 43.9354 355.821 47.3219 355.874 49.0858C356.01 53.772 354.146 53.2149 350.605 53.1272C349.765 54.0662 348.889 55.2504 348.126 56.2555C347.654 55.7694 347.167 55.1453 346.73 54.6162L345.513 53.1954C344.195 53.2044 342.28 53.3711 341.129 52.82C340.583 52.2151 340.342 51.5867 340.269 50.7588C339.321 39.9495 341.582 42.1824 350.465 42.1581Z" fill="#D9DBD5"/>
<path d="M345.497 44.4038C346.851 44.3068 347.054 44.7288 348.267 44.8671C349.593 44.2798 351.848 44.1121 351.968 46.2361C352.066 47.9523 350.76 49.1335 349.589 50.2343C349.118 50.6811 348.568 51.1328 348.071 51.559C345.894 49.803 342.041 46.9343 345.497 44.4038Z" fill="#1C1C1C"/>
<path d="M345.821 45.1007C347.255 45.1308 347.132 45.6664 348.219 45.8562C351.09 43.849 352.437 46.4181 349.908 48.9401L348.083 50.7537C346.388 49.178 343.502 47.3186 345.821 45.1007Z" fill="#B5FE28"/>
<path d="M321.449 106.267C322.273 106.245 323.036 106.295 323.663 106.796C325.322 108.296 325.839 106.225 327.507 106.218C330.515 106.206 332.365 109.546 330.717 112.064C329.93 113.267 328.722 114.286 327.714 115.252C326.749 116.223 325.957 116.899 324.905 117.781C322.162 115.294 314.073 108.8 321.449 106.267Z" fill="#1C1C1C"/>
<path d="M324.935 108.612C325.821 107.822 326.376 107.279 327.6 107.09C329.341 106.821 330.421 107.91 330.411 109.649C330.396 111.792 328.869 113.072 327.435 114.447L325.009 116.826C322.49 114.446 315.854 109.789 321.62 106.957C323.277 107.072 323.682 107.568 324.935 108.612Z" fill="#B5FE28"/>
<path d="M329.557 94.1371C331.718 93.8297 331.109 94.2849 332.715 94.7697C333.29 94.9436 336.49 93.0617 337.799 94.9552C339.565 97.5118 337.333 99.923 335.415 101.583C334.661 102.284 333.876 102.981 333.11 103.672C330.465 101.38 324.77 97.376 329.557 94.1371Z" fill="#1C1C1C"/>
<path d="M332.996 96.1615C334.588 94.812 337.259 93.5262 337.585 97.0538C337.71 98.4206 336.325 99.6831 335.355 100.562C334.583 101.291 333.806 102.016 333.025 102.736C330.853 100.603 326.004 97.464 330.131 94.8024C331.694 94.8232 331.848 95.0327 332.996 96.1615Z" fill="#B5FE28"/>
<path d="M320.709 85.0242C322.194 85.0927 322.17 85.6026 323.207 85.6437C323.432 85.5128 324.248 85.0329 324.476 85.0374C325.809 85.0635 327.22 85.6811 327.153 87.2203C327.069 89.1073 326.132 89.9473 324.888 91.1569L323.053 92.7879C320.547 90.9325 316.464 87.4256 320.709 85.0242Z" fill="#1C1C1C"/>
<path d="M321.017 85.7274C321.345 85.8064 321.816 85.8962 322.063 86.1502C323.466 87.5939 324.435 85.145 326.251 86.275C327.051 87.8145 325.726 89.278 324.73 90.2732L322.971 91.8382C321.135 90.0988 317.764 87.8071 321.017 85.7274Z" fill="#B5FE28"/>
<path d="M20.1613 112.091C21.7494 112.048 23.222 112.144 24.4323 113.111C27.633 116.004 28.6299 112.008 31.8481 111.995C37.6512 111.972 41.2192 118.415 38.0395 123.274C36.5214 125.594 34.1917 127.559 32.2469 129.424C30.3859 131.297 28.8573 132.6 26.8285 134.303C21.536 129.504 5.93154 116.976 20.1613 112.091Z" fill="#1C1C1C"/>
<path d="M26.8845 116.613C28.5951 115.087 29.6655 114.04 32.0266 113.675C35.3847 113.157 37.4695 115.258 37.4485 118.613C37.4205 122.748 34.4752 125.216 31.7083 127.869L27.028 132.458C22.1693 127.868 9.36669 118.884 20.4903 113.419C23.6874 113.642 24.4674 114.598 26.8845 116.613Z" fill="#FFA0E4"/>
<path d="M35.7997 88.6886C39.9693 88.0957 38.794 88.9737 41.8932 89.909C43.0021 90.2445 49.176 86.6139 51.7015 90.2669C55.1086 95.199 50.8026 99.8507 47.1017 103.053C45.6465 104.405 44.1319 105.75 42.6558 107.084C37.5522 102.661 26.565 94.937 35.7997 88.6886Z" fill="#1C1C1C"/>
<path d="M42.4364 92.5928C45.5077 89.9893 50.6602 87.5089 51.2898 94.3142C51.5312 96.951 48.8587 99.3866 46.9873 101.081C45.4972 102.488 44 103.887 42.4924 105.277C38.3018 101.161 28.9482 95.1054 36.9096 89.9708C39.9249 90.011 40.2222 90.415 42.4364 92.5928Z" fill="#FFA0E4"/>
<path d="M18.7305 71.1098C21.5954 71.242 21.5499 72.2256 23.5507 72.305C23.9845 72.0525 25.5586 71.1266 25.9993 71.1353C28.5703 71.1857 31.2918 72.3771 31.1623 75.3465C31.0014 78.9869 29.1929 80.6075 26.7933 82.941L23.2534 86.0874C18.4192 82.5079 10.5417 75.7425 18.7305 71.1098Z" fill="#1C1C1C"/>
<path d="M19.3258 72.4652C19.959 72.6177 20.8685 72.7908 21.3442 73.2809C24.0516 76.066 25.9195 71.3416 29.4245 73.5216C30.9671 76.4917 28.4101 79.3149 26.4897 81.235L23.0967 84.2541C19.5532 80.8985 13.0505 76.4774 19.3258 72.4652Z" fill="#FFA0E4"/>
<path d="M559.233 193.939C561.04 193.891 562.715 194 564.092 195.1C567.733 198.392 568.868 193.846 572.529 193.831C579.131 193.804 583.19 201.135 579.573 206.662C577.845 209.302 575.195 211.538 572.982 213.659C570.865 215.79 569.126 217.273 566.818 219.21C560.797 213.751 543.044 199.497 559.233 193.939Z" fill="#1C1C1C"/>
<path d="M566.88 199.084C568.826 197.349 570.044 196.157 572.73 195.742C576.551 195.152 578.922 197.543 578.899 201.36C578.867 206.064 575.516 208.872 572.368 211.89L567.043 217.112C561.516 211.889 546.95 201.668 559.605 195.451C563.243 195.704 564.13 196.792 566.88 199.084Z" fill="#FFA0E4"/>
<path d="M577.026 167.315C581.769 166.641 580.432 167.64 583.958 168.704C585.22 169.086 592.244 164.955 595.117 169.111C598.993 174.722 594.094 180.014 589.884 183.658C588.228 185.195 586.505 186.726 584.826 188.243C579.02 183.212 566.52 174.424 577.026 167.315Z" fill="#1C1C1C"/>
<path d="M584.575 171.757C588.069 168.795 593.931 165.973 594.647 173.715C594.922 176.715 591.881 179.486 589.752 181.414C588.057 183.015 586.353 184.606 584.638 186.188C579.871 181.505 569.229 174.616 578.287 168.774C581.717 168.82 582.056 169.279 584.575 171.757Z" fill="#FFA0E4"/>
<path d="M557.605 147.316C560.864 147.466 560.812 148.586 563.089 148.676C563.582 148.389 565.373 147.335 565.874 147.345C568.799 147.402 571.896 148.758 571.748 152.136C571.565 156.278 569.508 158.121 566.778 160.776L562.75 164.356C557.251 160.284 548.289 152.587 557.605 147.316Z" fill="#1C1C1C"/>
<path d="M558.281 148.858C559.001 149.032 560.036 149.229 560.577 149.786C563.657 152.955 565.782 147.58 569.77 150.06C571.525 153.439 568.616 156.651 566.431 158.835L562.571 162.27C558.54 158.453 551.142 153.423 558.281 148.858Z" fill="#FFA0E4"/>
<path d="M488.244 249.968C490.051 249.919 491.726 250.028 493.103 251.128C496.744 254.42 497.879 249.874 501.54 249.859C508.142 249.832 512.201 257.163 508.584 262.69C506.856 265.33 504.206 267.566 501.993 269.687C499.876 271.818 498.137 273.301 495.829 275.238C489.808 269.779 472.055 255.525 488.244 249.968Z" fill="#1C1C1C"/>
<path d="M495.891 255.112C497.837 253.377 499.055 252.186 501.741 251.771C505.562 251.18 507.934 253.571 507.91 257.388C507.878 262.092 504.527 264.9 501.379 267.918L496.055 273.14C490.527 267.917 475.962 257.696 488.617 251.479C492.254 251.733 493.141 252.82 495.891 255.112Z" fill="#FFA0E4"/>
<path d="M506.037 223.344C510.781 222.669 509.443 223.668 512.969 224.732C514.231 225.114 521.255 220.983 524.128 225.139C528.004 230.75 523.105 236.042 518.895 239.686C517.24 241.223 515.516 242.754 513.837 244.271C508.031 239.24 495.531 230.452 506.037 223.344Z" fill="#1C1C1C"/>
<path d="M513.586 227.785C517.08 224.823 522.942 222.001 523.658 229.744C523.933 232.743 520.892 235.514 518.763 237.443C517.068 239.043 515.365 240.634 513.65 242.216C508.882 237.533 498.24 230.644 507.298 224.802C510.728 224.848 511.067 225.308 513.586 227.785Z" fill="#FFA0E4"/>
<path d="M486.616 203.344C489.875 203.495 489.823 204.614 492.1 204.704C492.593 204.417 494.384 203.363 494.885 203.373C497.81 203.431 500.907 204.786 500.759 208.164C500.576 212.306 498.519 214.15 495.789 216.804L491.761 220.384C486.262 216.312 477.299 208.615 486.616 203.344Z" fill="#1C1C1C"/>
<path d="M487.292 204.886C488.012 205.06 489.047 205.257 489.588 205.814C492.668 208.983 494.793 203.608 498.781 206.088C500.536 209.467 497.627 212.679 495.442 214.864L491.582 218.298C487.55 214.481 480.152 209.451 487.292 204.886Z" fill="#FFA0E4"/>
<path d="M45.1923 238.928C47.1907 238.874 49.0439 238.995 50.567 240.211C54.5947 243.853 55.8493 238.824 59.8991 238.807C67.2018 238.778 71.6918 246.887 67.6904 253.001C65.78 255.921 62.8484 258.394 60.4009 260.74C58.0591 263.097 56.1355 264.737 53.5823 266.88C46.9223 260.841 27.2853 245.075 45.1923 238.928Z" fill="#1C1C1C"/>
<path d="M53.6531 244.618C55.8056 242.699 57.1526 241.381 60.1239 240.922C64.3498 240.269 66.9733 242.913 66.9469 247.135C66.9117 252.339 63.2052 255.444 59.7233 258.783L53.8336 264.559C47.7193 258.782 31.6084 247.476 45.6064 240.599C49.6298 240.88 50.6114 242.083 53.6531 244.618Z" fill="#FFA0E4"/>
<path d="M64.8715 209.478C70.1186 208.732 68.6395 209.837 72.5396 211.014C73.935 211.436 81.7044 206.868 84.8826 211.465C89.1701 217.671 83.7513 223.525 79.0941 227.555C77.2629 229.256 75.3569 230.949 73.4993 232.627C67.0769 227.061 53.2505 217.342 64.8715 209.478Z" fill="#1C1C1C"/>
<path d="M73.2234 214.391C77.0882 211.115 83.5722 207.994 84.3646 216.558C84.6683 219.876 81.3053 222.941 78.9502 225.073C77.075 226.844 75.191 228.604 73.2938 230.353C68.0203 225.174 56.2496 217.553 66.2683 211.092C70.0628 211.142 70.437 211.651 73.2234 214.391Z" fill="#FFA0E4"/>
<path d="M43.3914 187.357C46.9966 187.523 46.9394 188.761 49.4572 188.861C50.0031 188.543 51.9839 187.378 52.5386 187.389C55.774 187.452 59.1987 188.952 59.0358 192.688C58.8333 197.269 56.5575 199.309 53.5378 202.245L49.083 206.205C42.9996 201.7 33.0865 193.187 43.3914 187.357Z" fill="#1C1C1C"/>
<path d="M44.141 189.062C44.9378 189.254 46.0823 189.472 46.6809 190.089C50.088 193.594 52.4386 187.648 56.8493 190.392C58.7906 194.129 55.5728 197.682 53.1561 200.098L48.8863 203.898C44.4272 199.675 36.244 194.111 44.141 189.062Z" fill="#FFA0E4"/>
</svg>
