<svg xmlns="http://www.w3.org/2000/svg" width="318" height="273" viewBox="0 0 318 273" fill="none">
  <path d="M122.003 55.6379C119.807 48.3737 122.255 37.1775 124.442 29.9468C127.127 21.0644 129.76 10.6895 137.08 4.48709C141.183 0.97965 146.602 -0.584408 151.943 0.197258C153.43 0.426808 155.052 1.01174 156.582 1.28282C157.335 1.47229 158.426 1.25906 159.128 1.38018C167.338 3.01296 174.511 10.428 176.018 18.6387C176.584 22.3931 176.284 26.3431 175.978 30.1111C175.537 35.5514 175.396 40.9435 175.296 46.393C175.169 53.2683 174.772 61.5284 170.248 67.0391C170.09 67.2315 169.918 67.1252 169.721 67.0859C169.599 66.8246 169.449 66.6465 169.528 66.4353C170.288 64.4317 171.771 62.0367 172.346 59.9952C173.225 56.8803 173.953 52.287 173.704 49.0883C172.352 56.8315 170.944 61.3691 166.225 67.6567C167.556 69.1678 168.611 71.2878 169.608 73.0699C171.507 70.055 172.605 70.0717 175.773 68.7582C179.584 67.1785 182.536 65.8324 186.774 66.4424C187.838 66.5952 189.361 66.493 190.474 66.623C191.628 66.615 192.978 67.7711 192.527 68.8717C191.334 71.7896 186.309 70.8417 183.778 71.5929C182.676 71.9202 182.199 72.1572 181.223 72.6897C183.242 73.3408 184.005 73.8672 185.678 75.09C185.689 75.0989 187.08 74.8723 187.236 74.9272C192.592 76.818 185.983 80.6536 184.03 82.0093C182.288 86.3628 179.938 87.1098 175.693 88.1347C176.756 90.7524 178.072 93.5044 179.256 96.0886C183.914 96.0782 188.87 96.0378 193.502 96.1615C195.305 94.495 196.938 92.9829 198.637 91.2115L198.946 88.8043L195.183 88.8429C194.086 88.8547 193.073 88.9156 191.983 88.6012C187.671 87.3582 189.459 84.105 190.57 81.1713C191.047 79.9098 191.546 78.6493 192.016 77.4396L198.235 61.5219C202.704 50.1307 200.891 51.7588 213.747 51.7468C220.956 51.7401 220.33 55.0249 217.993 60.3883C216.773 63.1908 215.426 66.7553 214.394 69.6289C215.224 71.7989 216.12 80.7309 215.504 82.8097C214.236 87.0879 210.385 92.3948 207.841 96.2092C212.592 96.2603 220.191 95.8681 224.664 96.6233C232.069 97.8744 232.568 107.847 233.654 114.008L236.82 132.004C242.116 132.356 248.634 132.334 254.045 132.476L287.246 133.368L298.896 133.638C301.861 133.714 306.849 133.411 309.286 135.179C310.845 136.312 312.062 138.731 312.11 140.688C312.221 145.007 312.156 149.378 312.15 153.715L312.13 180.103L312.132 205.264C312.139 209.618 312.228 214.006 312.047 218.35C311.933 221.115 309.742 224.575 306.863 225.074C302.963 225.752 298.618 225.721 294.633 225.889C295.108 227.721 295.52 230.787 295.888 232.801L298.454 246.663C302.774 247.151 319.401 250.824 317.882 254.781C315.367 261.33 283.649 265.063 278.672 265.711C260.569 267.932 242.391 269.491 224.176 270.383C186.565 272.447 148.883 272.855 111.238 271.604C89.3636 271.085 67.5179 269.722 45.7493 267.517C35.392 266.383 25.0201 265.085 14.8329 262.917C11.1996 262.144 -7.00044 258.251 2.92986 252.754C5.87466 251.124 15.1426 248.524 18.7137 248.242C19.8067 242.217 20.7222 236.148 21.8217 230.114C20.3555 229.991 18.5384 229.65 17.138 229.568C3.52785 228.778 5.0522 223.741 5.06181 212.185L5.06725 194.391L5.06652 162.121C5.05637 155.576 5.02935 148.976 5.04404 142.465C5.05927 135.671 9.45372 133.437 15.6068 133.765C18.064 133.895 20.8025 133.908 23.2891 133.973L20.6404 117.921C18.6071 105.712 17.3161 102.2 30.9928 98.2757C33.6174 97.5226 36.1776 96.2507 39.0251 95.9578C41.7653 95.6759 44.3966 95.7803 47.1229 95.8063L58.0681 95.8712L100.486 95.9693C101.384 87.1846 102.763 74.1379 106.386 66.19C109.264 59.8745 115.754 57.6966 122.003 55.6379Z" fill="#1C1C1C"/>
</svg>