<svg width="1232" height="827" viewBox="24 24 1232 827" fill="none" xmlns="http://www.w3.org/2000/svg">
<g clip-path="url(#clip0_495_2212)">
<rect x="24" y="24" width="1232" height="827" rx="36" fill="#F2F2F2"/>
<g filter="url(#filter0_dddd_495_2212)">
<rect x="242" y="34" width="796" height="68" rx="16" fill="#1C1C1C" shape-rendering="crispEdges"/>
<path d="M252 58.6787C252 53.6509 252 51.1369 252.947 49.2031C253.854 47.3516 255.352 45.8544 257.203 44.9474C259.137 44 261.651 44 266.679 44H285.321C290.349 44 292.863 44 294.797 44.9474C296.648 45.8544 298.146 47.3516 299.053 49.2031C300 51.1369 300 53.6509 300 58.6787V77.3213C300 82.3491 300 84.8631 299.053 86.7969C298.146 88.6484 296.648 90.1456 294.797 91.0526C292.863 92 290.349 92 285.321 92H266.679C261.651 92 259.137 92 257.203 91.0526C255.352 90.1456 253.854 88.6484 252.947 86.7969C252 84.8631 252 82.3491 252 77.3213V58.6787Z" fill="#B5FE28"/>
<path fill-rule="evenodd" clip-rule="evenodd" d="M280.38 68.5633C282.28 68.5632 284.139 66.6371 284.139 63.8212C284.139 61.0054 282.279 59.0793 280.38 59.0791C278.48 59.0791 276.62 61.0053 276.62 63.8212C276.62 66.6373 278.48 68.5633 280.38 68.5633Z" fill="#1C1C1C"/>
<path fill-rule="evenodd" clip-rule="evenodd" d="M284.139 63.8212C284.139 66.6371 282.28 68.5632 280.38 68.5633C278.48 68.5633 276.62 66.6373 276.62 63.8212C276.62 61.0053 278.48 59.0791 280.38 59.0791C282.279 59.0793 284.139 61.0054 284.139 63.8212Z" fill="#B5FE28"/>
<path fill-rule="evenodd" clip-rule="evenodd" d="M287.508 68.5633H285.258C286.186 67.2496 286.725 65.5742 286.725 63.8212C286.725 59.9227 284.061 56.405 280.38 56.4049C277.933 56.4049 275.936 57.9603 274.872 60.1476C273.914 59.098 272.616 58.4316 271.116 58.4316C267.9 58.4317 265.613 61.4955 265.613 64.8346C265.613 66.1837 265.986 67.488 266.643 68.5633H264.853L265.268 62.0862C265.469 58.9334 267.63 56.2818 270.601 55.5423L278.892 53.4785C283.283 52.3853 287.508 55.8274 287.508 60.4986V68.5633Z" fill="white"/>
<path fill-rule="evenodd" clip-rule="evenodd" d="M290.094 60.4986C290.094 54.0975 284.305 49.3814 278.287 50.8793L269.996 52.943C265.925 53.9564 262.964 57.5893 262.688 61.9099L261.927 73.808C261.589 79.0877 265.328 83.7075 270.413 84.294L279.465 85.3378C285.134 85.9916 290.094 81.403 290.094 75.5043V60.4986ZM280.38 68.5633C282.28 68.5632 284.139 66.6371 284.139 63.8212C284.139 61.0054 282.279 59.0793 280.38 59.0791C278.48 59.0791 276.62 61.0053 276.62 63.8212C276.62 66.6373 278.48 68.5633 280.38 68.5633ZM287.508 71.2376H264.682L264.507 73.9843C264.26 77.8371 266.989 81.2083 270.7 81.6363L279.752 82.6801C283.889 83.1571 287.508 79.8087 287.508 75.5043V71.2376ZM268.199 64.8346C268.199 62.5782 269.681 61.106 271.116 61.1058C272.551 61.1058 274.034 62.5781 274.034 64.8346C274.034 67.091 272.551 68.5633 271.116 68.5633C269.681 68.5631 268.199 67.0909 268.199 64.8346ZM285.258 68.5633H287.508V60.4986C287.508 55.8274 283.283 52.3853 278.892 53.4785L270.601 55.5423C267.63 56.2818 265.469 58.9334 265.268 62.0862L264.853 68.5633H266.643C265.986 67.488 265.613 66.1837 265.613 64.8346C265.613 61.4955 267.9 58.4317 271.116 58.4316C272.616 58.4316 273.914 59.098 274.872 60.1476C275.936 57.9603 277.933 56.4049 280.38 56.4049C284.061 56.405 286.725 59.9227 286.725 63.8212C286.725 65.5742 286.186 67.2496 285.258 68.5633Z" fill="#1C1C1C"/>
<path fill-rule="evenodd" clip-rule="evenodd" d="M264.682 71.2376H287.508V75.5043C287.508 79.8087 283.889 83.1571 279.752 82.6801L270.7 81.6363C266.989 81.2083 264.26 77.8371 264.507 73.9843L264.682 71.2376Z" fill="#B5FE28"/>
<path d="M271.116 61.1058C269.681 61.106 268.199 62.5782 268.199 64.8346C268.199 67.0909 269.681 68.5631 271.116 68.5633C272.551 68.5633 274.034 67.091 274.034 64.8346C274.034 62.5781 272.551 61.1058 271.116 61.1058Z" fill="#B5FE28"/>
<path d="M307.2 79.9883V56H315.116C317.433 56 319.246 56.5277 320.554 57.5832C321.884 58.6386 322.55 60.1185 322.55 62.0229C322.55 63.1701 322.297 64.1911 321.793 65.086C321.288 65.9578 320.576 66.6347 319.659 67.1165C321.035 67.5295 322.068 68.2523 322.756 69.2848C323.445 70.2943 323.789 71.5792 323.789 73.1394C323.789 75.2962 323.112 76.9826 321.758 78.1986C320.404 79.3917 318.5 79.9883 316.045 79.9883H307.2ZM310.71 76.7531H315.804C318.81 76.7531 320.313 75.4912 320.313 72.9673C320.313 71.7513 319.957 70.8106 319.246 70.1452C318.557 69.4798 317.582 69.1471 316.32 69.1471H310.71V76.7531ZM310.71 66.0152H315.529C316.584 66.0152 317.433 65.7054 318.076 65.086C318.741 64.4665 319.074 63.6175 319.074 62.5391C319.074 61.4837 318.729 60.6692 318.041 60.0956C317.353 59.522 316.378 59.2351 315.116 59.2351H310.71V66.0152Z" fill="white"/>
<path d="M340.843 76.1936L341.139 79.9883H345.361V65.0083C345.361 62.1619 344.501 59.9568 342.781 58.3928C341.092 56.7976 338.699 56 335.602 56C333.632 56 331.802 56.3441 330.113 57.0322C328.455 57.6891 326.938 58.7369 325.562 60.1757L328.424 63.1316C329.456 62.0055 330.535 61.1923 331.661 60.6918C332.818 60.1914 334.023 59.9411 335.274 59.9411C337.057 59.9411 338.417 60.379 339.356 61.2549C340.294 62.1307 340.763 63.3818 340.763 65.0083V65.759H333.819C332.662 65.759 331.567 65.8685 330.535 66.0874C329.534 66.2751 328.643 66.6192 327.861 67.1196C327.016 67.6201 326.328 68.3395 325.796 69.2779C325.265 70.185 324.999 71.2797 324.999 72.5622C324.999 74.0323 325.358 75.3304 326.078 76.4564C326.797 77.5512 327.814 78.4113 329.127 79.0369C330.441 79.6625 331.958 79.9753 333.679 79.9753C335.18 79.9753 336.525 79.6625 337.714 79.0369C338.933 78.4113 339.95 77.5042 340.763 76.3156C340.79 76.2752 340.817 76.2345 340.843 76.1936ZM340.763 69.231V69.8878C340.763 71.1077 340.466 72.2025 339.872 73.1721C339.277 74.1105 338.48 74.8612 337.479 75.4242C336.509 75.9559 335.43 76.2218 334.242 76.2218C332.834 76.2218 331.708 75.8934 330.863 75.2365C330.019 74.5797 329.597 73.7039 329.597 72.6091C329.597 72.0461 329.706 71.5613 329.925 71.1546C330.144 70.7167 330.441 70.357 330.817 70.0755C331.286 69.7314 331.849 69.5125 332.506 69.4186C333.194 69.2935 333.851 69.231 334.476 69.231H340.763Z" fill="white"/>
<path d="M359.98 59.8985L346.86 76.6854V79.9941H365.351V76.1015H352.63L365.398 59.5092V56.0059H347.47V59.8985H359.98Z" fill="white"/>
<path d="M376.805 80C374.614 80 372.658 79.4836 370.937 78.4509C369.216 77.4181 367.854 75.9941 366.853 74.179C365.883 72.3638 365.398 70.2983 365.398 67.9824C365.398 65.6665 365.883 63.6166 366.853 61.8327C367.823 60.0176 369.169 58.5936 370.89 57.5609C372.643 56.5281 374.614 56.0117 376.805 56.0117C379.027 56.0117 380.983 56.5281 382.673 57.5609C384.363 58.5936 385.693 60.0176 386.663 61.8327C387.665 63.6166 388.165 65.6665 388.165 67.9824C388.165 70.2983 387.665 72.3638 386.663 74.179C385.693 75.9628 384.347 77.3868 382.626 78.4509C380.936 79.4836 378.996 80 376.805 80ZM376.805 75.9159C378.182 75.9159 379.371 75.5873 380.373 74.9301C381.405 74.2729 382.188 73.3496 382.72 72.1604C383.283 70.9711 383.565 69.5785 383.565 67.9824C383.565 66.355 383.283 64.9467 382.72 63.7574C382.188 62.5682 381.405 61.6606 380.373 61.0347C379.371 60.3775 378.182 60.0489 376.805 60.0489C375.397 60.0489 374.176 60.3775 373.143 61.0347C372.142 61.6919 371.359 62.6151 370.796 63.8044C370.264 64.9623 369.998 66.355 369.998 67.9824C369.998 69.5785 370.264 70.9711 370.796 72.1604C371.359 73.3496 372.142 74.2729 373.143 74.9301C374.176 75.5873 375.397 75.9159 376.805 75.9159Z" fill="white"/>
<g filter="url(#filter1_d_495_2212)">
<rect x="769" y="47" width="147" height="42" rx="8" fill="#F2F2F2" shape-rendering="crispEdges"/>
<path d="M786.278 74V61.454H790.562C791.786 61.454 792.746 61.736 793.442 62.3C794.15 62.852 794.504 63.62 794.504 64.604C794.504 65.204 794.378 65.732 794.126 66.188C793.874 66.632 793.52 66.986 793.064 67.25C793.76 67.478 794.282 67.856 794.63 68.384C794.978 68.912 795.152 69.572 795.152 70.364C795.152 71.504 794.792 72.398 794.072 73.046C793.364 73.682 792.368 74 791.084 74H786.278ZM788.366 72.092H790.922C792.362 72.092 793.082 71.486 793.082 70.274C793.082 69.698 792.908 69.254 792.56 68.942C792.224 68.618 791.75 68.456 791.138 68.456H788.366V72.092ZM788.366 66.584H790.706C791.234 66.584 791.654 66.44 791.966 66.152C792.278 65.852 792.434 65.444 792.434 64.928C792.434 64.436 792.266 64.052 791.93 63.776C791.606 63.5 791.15 63.362 790.562 63.362H788.366V66.584ZM800.829 74.162C800.085 74.162 799.437 74.042 798.885 73.802C798.345 73.562 797.901 73.226 797.553 72.794C797.205 72.362 796.947 71.876 796.779 71.336C796.611 70.784 796.527 70.214 796.527 69.626C796.527 69.038 796.605 68.468 796.761 67.916C796.929 67.352 797.181 66.848 797.517 66.404C797.853 65.96 798.285 65.612 798.813 65.36C799.341 65.096 799.965 64.964 800.685 64.964C801.369 64.964 801.963 65.084 802.467 65.324C802.983 65.552 803.409 65.876 803.745 66.296C804.081 66.704 804.327 67.172 804.483 67.7C804.651 68.228 804.735 68.792 804.735 69.392C804.735 69.476 804.729 69.596 804.717 69.752C804.717 69.908 804.705 70.064 804.681 70.22H798.525C798.573 70.928 798.813 71.468 799.245 71.84C799.677 72.212 800.229 72.398 800.901 72.398C801.393 72.398 801.843 72.32 802.251 72.164C802.659 72.008 803.031 71.762 803.367 71.426L804.465 72.758C804.093 73.094 803.721 73.364 803.349 73.568C802.977 73.772 802.587 73.922 802.179 74.018C801.783 74.114 801.333 74.162 800.829 74.162ZM802.773 69.212C802.797 69.116 802.809 69.02 802.809 68.924C802.821 68.828 802.827 68.732 802.827 68.636C802.827 68.372 802.779 68.12 802.683 67.88C802.599 67.64 802.467 67.43 802.287 67.25C802.107 67.058 801.885 66.908 801.621 66.8C801.357 66.68 801.057 66.62 800.721 66.62C800.253 66.62 799.857 66.722 799.533 66.926C799.221 67.13 798.975 67.394 798.795 67.718C798.627 68.03 798.525 68.372 798.489 68.744H803.421L802.773 69.212ZM810.333 74.162C809.637 74.162 809.019 74.042 808.479 73.802C807.951 73.55 807.507 73.208 807.147 72.776C806.799 72.332 806.535 71.834 806.355 71.282C806.175 70.73 806.085 70.154 806.085 69.554C806.085 68.954 806.175 68.378 806.355 67.826C806.535 67.274 806.799 66.782 807.147 66.35C807.507 65.918 807.951 65.582 808.479 65.342C809.019 65.09 809.637 64.964 810.333 64.964C811.209 64.964 811.971 65.174 812.619 65.594C813.279 66.014 813.765 66.662 814.077 67.538L812.313 68.222C812.169 67.766 811.935 67.4 811.611 67.124C811.287 66.836 810.861 66.692 810.333 66.692C809.805 66.692 809.373 66.83 809.037 67.106C808.713 67.382 808.473 67.736 808.317 68.168C808.161 68.6 808.083 69.062 808.083 69.554C808.083 70.046 808.161 70.514 808.317 70.958C808.473 71.39 808.713 71.744 809.037 72.02C809.373 72.284 809.805 72.416 810.333 72.416C810.861 72.416 811.287 72.278 811.611 72.002C811.935 71.726 812.169 71.36 812.313 70.904L814.077 71.588C813.765 72.452 813.279 73.1 812.619 73.532C811.971 73.952 811.209 74.162 810.333 74.162ZM819.702 74.162C818.862 74.162 818.106 73.964 817.434 73.568C816.762 73.172 816.234 72.626 815.85 71.93C815.478 71.234 815.292 70.442 815.292 69.554C815.292 68.666 815.478 67.874 815.85 67.178C816.234 66.482 816.756 65.942 817.416 65.558C818.088 65.162 818.85 64.964 819.702 64.964C820.566 64.964 821.322 65.162 821.97 65.558C822.63 65.942 823.152 66.482 823.536 67.178C823.92 67.874 824.112 68.666 824.112 69.554C824.112 70.442 823.92 71.234 823.536 71.93C823.164 72.626 822.642 73.172 821.97 73.568C821.31 73.964 820.554 74.162 819.702 74.162ZM819.72 72.398C820.212 72.398 820.638 72.284 820.998 72.056C821.358 71.828 821.634 71.498 821.826 71.066C822.018 70.634 822.114 70.13 822.114 69.554C822.114 68.966 822.018 68.462 821.826 68.042C821.634 67.61 821.358 67.28 820.998 67.052C820.638 66.824 820.212 66.71 819.72 66.71C819.204 66.71 818.766 66.83 818.406 67.07C818.046 67.298 817.77 67.622 817.578 68.042C817.386 68.462 817.29 68.966 817.29 69.554C817.29 70.13 817.386 70.634 817.578 71.066C817.77 71.498 818.046 71.828 818.406 72.056C818.766 72.284 819.204 72.398 819.72 72.398ZM825.862 74V65.126H827.86V67.43L827.428 67.682C827.536 67.166 827.686 66.734 827.878 66.386C828.082 66.038 828.316 65.762 828.58 65.558C828.844 65.342 829.126 65.192 829.426 65.108C829.738 65.012 830.05 64.964 830.362 64.964C830.842 64.964 831.292 65.06 831.712 65.252C832.132 65.432 832.486 65.732 832.774 66.152C833.074 66.56 833.278 67.118 833.386 67.826L832.216 68.15C832.396 67.382 832.648 66.77 832.972 66.314C833.296 65.846 833.674 65.504 834.106 65.288C834.55 65.072 835.03 64.964 835.546 64.964C836.302 64.964 836.908 65.132 837.364 65.468C837.832 65.792 838.174 66.224 838.39 66.764C838.606 67.292 838.714 67.862 838.714 68.474V74H836.716V68.96C836.716 68.468 836.656 68.054 836.536 67.718C836.428 67.382 836.254 67.13 836.014 66.962C835.774 66.782 835.468 66.692 835.096 66.692C834.7 66.692 834.37 66.794 834.106 66.998C833.842 67.19 833.638 67.49 833.494 67.898C833.362 68.306 833.296 68.81 833.296 69.41V74H831.298V68.87C831.298 68.138 831.16 67.592 830.884 67.232C830.608 66.872 830.218 66.692 829.714 66.692C829.318 66.692 828.982 66.794 828.706 66.998C828.43 67.202 828.22 67.508 828.076 67.916C827.932 68.312 827.86 68.81 827.86 69.41V74H825.862ZM844.652 74.162C843.908 74.162 843.26 74.042 842.708 73.802C842.168 73.562 841.724 73.226 841.376 72.794C841.028 72.362 840.77 71.876 840.602 71.336C840.434 70.784 840.35 70.214 840.35 69.626C840.35 69.038 840.428 68.468 840.584 67.916C840.752 67.352 841.004 66.848 841.34 66.404C841.676 65.96 842.108 65.612 842.636 65.36C843.164 65.096 843.788 64.964 844.508 64.964C845.192 64.964 845.786 65.084 846.29 65.324C846.806 65.552 847.232 65.876 847.568 66.296C847.904 66.704 848.15 67.172 848.306 67.7C848.474 68.228 848.558 68.792 848.558 69.392C848.558 69.476 848.552 69.596 848.54 69.752C848.54 69.908 848.528 70.064 848.504 70.22H842.348C842.396 70.928 842.636 71.468 843.068 71.84C843.5 72.212 844.052 72.398 844.724 72.398C845.216 72.398 845.666 72.32 846.074 72.164C846.482 72.008 846.854 71.762 847.19 71.426L848.288 72.758C847.916 73.094 847.544 73.364 847.172 73.568C846.8 73.772 846.41 73.922 846.002 74.018C845.606 74.114 845.156 74.162 844.652 74.162ZM846.596 69.212C846.62 69.116 846.632 69.02 846.632 68.924C846.644 68.828 846.65 68.732 846.65 68.636C846.65 68.372 846.602 68.12 846.506 67.88C846.422 67.64 846.29 67.43 846.11 67.25C845.93 67.058 845.708 66.908 845.444 66.8C845.18 66.68 844.88 66.62 844.544 66.62C844.076 66.62 843.68 66.722 843.356 66.926C843.044 67.13 842.798 67.394 842.618 67.718C842.45 68.03 842.348 68.372 842.312 68.744H847.244L846.596 69.212ZM858.976 74.234C857.656 74.234 856.576 73.892 855.736 73.208C854.908 72.524 854.398 71.612 854.206 70.472L856.24 69.968C856.372 70.76 856.684 71.36 857.176 71.768C857.68 72.176 858.298 72.38 859.03 72.38C859.438 72.38 859.804 72.308 860.128 72.164C860.452 72.008 860.704 71.792 860.884 71.516C861.076 71.24 861.172 70.928 861.172 70.58C861.172 70.208 861.07 69.902 860.866 69.662C860.662 69.41 860.368 69.188 859.984 68.996C859.6 68.792 859.132 68.582 858.58 68.366C857.824 68.078 857.182 67.766 856.654 67.43C856.126 67.094 855.724 66.698 855.448 66.242C855.172 65.774 855.034 65.222 855.034 64.586C855.034 63.926 855.196 63.344 855.52 62.84C855.844 62.324 856.3 61.922 856.888 61.634C857.476 61.346 858.154 61.202 858.922 61.202C859.75 61.202 860.482 61.388 861.118 61.76C861.754 62.132 862.264 62.696 862.648 63.452L860.992 64.46C860.74 64.004 860.434 63.656 860.074 63.416C859.714 63.164 859.306 63.038 858.85 63.038C858.526 63.038 858.232 63.104 857.968 63.236C857.704 63.356 857.494 63.53 857.338 63.758C857.194 63.986 857.122 64.25 857.122 64.55C857.122 64.862 857.212 65.138 857.392 65.378C857.572 65.606 857.848 65.816 858.22 66.008C858.604 66.2 859.09 66.41 859.678 66.638C860.434 66.926 861.076 67.238 861.604 67.574C862.132 67.91 862.534 68.312 862.81 68.78C863.098 69.236 863.242 69.794 863.242 70.454C863.242 71.186 863.062 71.834 862.702 72.398C862.342 72.962 861.838 73.412 861.19 73.748C860.554 74.072 859.816 74.234 858.976 74.234ZM868.827 74.162C868.083 74.162 867.435 74.042 866.883 73.802C866.343 73.562 865.899 73.226 865.551 72.794C865.203 72.362 864.945 71.876 864.777 71.336C864.609 70.784 864.525 70.214 864.525 69.626C864.525 69.038 864.603 68.468 864.759 67.916C864.927 67.352 865.179 66.848 865.515 66.404C865.851 65.96 866.283 65.612 866.811 65.36C867.339 65.096 867.963 64.964 868.683 64.964C869.367 64.964 869.961 65.084 870.465 65.324C870.981 65.552 871.407 65.876 871.743 66.296C872.079 66.704 872.325 67.172 872.481 67.7C872.649 68.228 872.733 68.792 872.733 69.392C872.733 69.476 872.727 69.596 872.715 69.752C872.715 69.908 872.703 70.064 872.679 70.22H866.523C866.571 70.928 866.811 71.468 867.243 71.84C867.675 72.212 868.227 72.398 868.899 72.398C869.391 72.398 869.841 72.32 870.249 72.164C870.657 72.008 871.029 71.762 871.365 71.426L872.463 72.758C872.091 73.094 871.719 73.364 871.347 73.568C870.975 73.772 870.585 73.922 870.177 74.018C869.781 74.114 869.331 74.162 868.827 74.162ZM870.771 69.212C870.795 69.116 870.807 69.02 870.807 68.924C870.819 68.828 870.825 68.732 870.825 68.636C870.825 68.372 870.777 68.12 870.681 67.88C870.597 67.64 870.465 67.43 870.285 67.25C870.105 67.058 869.883 66.908 869.619 66.8C869.355 66.68 869.055 66.62 868.719 66.62C868.251 66.62 867.855 66.722 867.531 66.926C867.219 67.13 866.973 67.394 866.793 67.718C866.625 68.03 866.523 68.372 866.487 68.744H871.419L870.771 69.212ZM876.459 74.162C875.883 74.162 875.403 73.988 875.019 73.64C874.635 73.28 874.443 72.71 874.443 71.93V61.454H876.441V71.534C876.441 71.81 876.501 72.014 876.621 72.146C876.753 72.266 876.921 72.326 877.125 72.326C877.233 72.326 877.341 72.314 877.449 72.29C877.569 72.266 877.689 72.236 877.809 72.2V73.892C877.581 73.988 877.347 74.054 877.107 74.09C876.867 74.138 876.651 74.162 876.459 74.162ZM881.201 74.162C880.625 74.162 880.145 73.988 879.761 73.64C879.377 73.28 879.185 72.71 879.185 71.93V61.454H881.183V71.534C881.183 71.81 881.243 72.014 881.363 72.146C881.495 72.266 881.663 72.326 881.867 72.326C881.975 72.326 882.083 72.314 882.191 72.29C882.311 72.266 882.431 72.236 882.551 72.2V73.892C882.323 73.988 882.089 74.054 881.849 74.09C881.609 74.138 881.393 74.162 881.201 74.162ZM887.869 74.162C887.125 74.162 886.477 74.042 885.925 73.802C885.385 73.562 884.941 73.226 884.593 72.794C884.245 72.362 883.987 71.876 883.819 71.336C883.651 70.784 883.567 70.214 883.567 69.626C883.567 69.038 883.645 68.468 883.801 67.916C883.969 67.352 884.221 66.848 884.557 66.404C884.893 65.96 885.325 65.612 885.853 65.36C886.381 65.096 887.005 64.964 887.725 64.964C888.409 64.964 889.003 65.084 889.507 65.324C890.023 65.552 890.449 65.876 890.785 66.296C891.121 66.704 891.367 67.172 891.523 67.7C891.691 68.228 891.775 68.792 891.775 69.392C891.775 69.476 891.769 69.596 891.757 69.752C891.757 69.908 891.745 70.064 891.721 70.22H885.565C885.613 70.928 885.853 71.468 886.285 71.84C886.717 72.212 887.269 72.398 887.941 72.398C888.433 72.398 888.883 72.32 889.291 72.164C889.699 72.008 890.071 71.762 890.407 71.426L891.505 72.758C891.133 73.094 890.761 73.364 890.389 73.568C890.017 73.772 889.627 73.922 889.219 74.018C888.823 74.114 888.373 74.162 887.869 74.162ZM889.813 69.212C889.837 69.116 889.849 69.02 889.849 68.924C889.861 68.828 889.867 68.732 889.867 68.636C889.867 68.372 889.819 68.12 889.723 67.88C889.639 67.64 889.507 67.43 889.327 67.25C889.147 67.058 888.925 66.908 888.661 66.8C888.397 66.68 888.097 66.62 887.761 66.62C887.293 66.62 886.897 66.722 886.573 66.926C886.261 67.13 886.015 67.394 885.835 67.718C885.667 68.03 885.565 68.372 885.529 68.744H890.461L889.813 69.212ZM893.539 74V65.126H895.555V67.52L895.177 67.574C895.237 67.058 895.411 66.608 895.699 66.224C895.987 65.828 896.335 65.522 896.743 65.306C897.163 65.078 897.577 64.964 897.985 64.964C898.273 64.964 898.549 65 898.813 65.072C899.077 65.144 899.353 65.264 899.641 65.432L898.669 67.232C898.537 67.148 898.363 67.082 898.147 67.034C897.943 66.974 897.745 66.944 897.553 66.944C897.301 66.944 897.049 66.992 896.797 67.088C896.557 67.184 896.341 67.334 896.149 67.538C895.957 67.73 895.813 67.982 895.717 68.294C895.657 68.462 895.609 68.684 895.573 68.96C895.549 69.224 895.537 69.596 895.537 70.076V74H893.539Z" fill="#0C0C0C"/>
</g>
</svg>