<svg width="56" height="98" viewBox="0 0 56 98" fill="none" xmlns="http://www.w3.org/2000/svg">
<path fill-rule="evenodd" clip-rule="evenodd" d="M0.00294248 95.6869C0.00223345 95.6869 0.00365151 95.6869 0.00294248 95.6869Z" fill="#1C1C1C"/>
<path fill-rule="evenodd" clip-rule="evenodd" d="M35.8138 95.6212C32.2206 98.5397 25.9777 98.0397 19.5852 97.8325C14.4789 97.6669 11.5641 97.1778 6.68194 95.6674C3.80852 93.4086 1.37612 89.8467 1.28143 86.2701C1.10144 79.0238 1.14987 70.2264 1.19401 62.2088V62.2055C1.21159 59.0149 1.22847 55.9478 1.23003 53.1512C1.23545 43.4762 34.4934 44.5008 39.8155 49.7223C41.5848 51.4573 41.5133 54.1726 41.4445 56.788C41.4286 57.3923 41.4128 57.9912 41.4199 58.5714C54.9319 58.7854 60.6869 72.7577 51.5932 82.7905C49.0336 85.6145 45.0915 86.3415 41.4037 86.632C40.3133 90.9869 39.4069 92.7027 35.8138 95.6212Z" fill="#1C1C1C"/>
<path d="M3.13774 55.7486C12.3938 60.1472 21.6715 59.6857 31.6148 58.4843C31.8015 58.5397 32.3102 58.6258 32.3616 58.7954C32.8107 60.3247 33.2598 69.1204 32.5834 70.2663C34.8156 72.8316 35.8465 74.1282 39.0067 75.5492L39.2583 76.1874L38.847 76.7841L39.3097 77.0057C39.6696 78.4217 39.4314 84.7053 39.3827 86.4993C38.2409 86.2302 37.0586 85.8067 35.9926 86.2346L35.7085 86.6595C36.4579 87.7734 37.9217 87.7427 39.1609 87.8917C36.3064 94.5214 31.9611 95.9875 24.9481 95.7024C16.9907 95.3821 9.84776 97.6463 4.40938 90.3351C3.72756 88.8827 3.56525 88.0954 3.18916 86.565L3.21892 84.7523C3.09987 83.1953 3.17293 81.202 3.18916 79.6095L3.17291 77.5617C3.05657 75.6333 3.17291 72.8538 3.20267 70.8622C3.25408 70.2793 3.24055 69.7483 3.23784 69.167C2.95104 65.5525 3.13503 59.5399 3.13774 55.7486Z" fill="#F2F2F2"/>
<path d="M3.13774 55.7486C12.3938 60.1472 21.6715 59.6857 31.6148 58.4843C31.8015 58.5397 32.3102 58.6258 32.3616 58.7954C32.8107 60.3247 33.2598 69.1204 32.5834 70.2663C25.8599 64.2189 24.5747 70.2134 19.4529 73.1655C12.9268 76.9283 10.4755 65.1778 3.23784 69.167C2.95104 65.5525 3.13503 59.5399 3.13774 55.7486Z" fill="#F2F2F2"/>
<path d="M15.5321 63.7082C16.4818 63.2781 17.5911 63.4079 18.4163 64.0456C19.2388 64.6833 19.6474 65.725 19.4769 66.7556C19.3038 67.7861 18.5787 68.6378 17.5938 68.9709C16.1679 69.4517 14.6176 68.7268 14.0683 67.3227C13.5191 65.9186 14.163 64.3288 15.5321 63.7082Z" fill="#30302F"/>
<path d="M16.0163 65.0736C16.6522 64.6963 17.472 64.9118 17.8427 65.5539C18.2133 66.196 17.9915 67.0178 17.3475 67.3832C16.7144 67.7437 15.9081 67.5241 15.5428 66.8904C15.1776 66.257 15.3886 65.4464 16.0163 65.0736Z" fill="#F2F2F2"/>
<path d="M32.9079 72.8787C34.7938 75.0069 35.9274 76.1806 38.8468 76.7887L39.3095 77.0102C39.6694 78.4263 39.4312 84.7099 39.3825 86.5038C38.2407 86.2348 37.0584 85.8113 35.9924 86.2391L35.7083 86.664C36.4577 87.7779 37.9215 87.7473 39.1607 87.8963C36.3062 94.526 31.9609 95.992 24.9479 95.707C16.9905 95.3866 9.84756 97.6508 4.40918 90.3397C5.87294 90.47 7.55048 90.9315 8.96824 90.7632L9.31996 90.1605L9.51479 90.7985C9.89629 90.9125 10.1668 91.0211 10.5673 91.0102C11.498 91.3062 12.1149 91.3958 13.0727 91.4745C21.7633 92.1939 31.4631 90.4456 32.3641 79.945C32.9674 79.8334 33.4301 79.3469 33.514 78.738C33.5951 78.1293 33.2813 77.5356 32.7293 77.2657L32.9079 72.8787Z" fill="#D9DBD5"/>
<path d="M3.23732 69.1651C10.475 65.1759 12.9263 76.9264 19.4524 73.1635C24.5742 70.2114 25.8593 64.217 32.5829 70.2643C34.8151 72.8296 35.8459 74.1262 39.0062 75.5472L39.2578 76.1855L38.8465 76.7822C35.9271 76.1741 34.7934 75.0004 32.9076 72.8722C25.0747 63.223 24.2143 75.8404 16.3111 75.3197C10.962 74.9673 9.00579 67.1849 3.20215 70.8603C3.25356 70.2774 3.24003 69.7463 3.23732 69.1651Z" fill="#30302F"/>
<path d="M3.17236 77.5649C11.0161 71.7749 12.9912 84.8931 20.7429 79.7229C21.8631 78.9772 22.2391 77.6738 23.362 77.3249L23.9058 77.674C24.0925 79.9431 20.3019 82.1639 18.1184 82.409C11.6627 83.1342 8.94626 73.6826 3.18861 79.6127L3.17236 77.5649Z" fill="#30302F"/>
<path d="M3.18896 86.5609C5.4049 84.1574 8.70849 87.4052 9.31997 90.1518L8.96825 90.7545C7.55048 90.9229 5.87295 90.4613 4.40919 90.331C3.72736 88.8786 3.56505 88.0913 3.18896 86.5609Z" fill="#F2F2F2"/>
<path d="M3.21872 84.7499C7.69118 83.9186 10.7918 86.3508 10.5673 91.0033C10.1668 91.0141 9.8963 90.9056 9.5148 90.7915L9.31997 90.1535C8.70849 87.4069 5.4049 84.1591 3.18896 86.5626L3.21872 84.7499Z" fill="#30302F"/>
<path d="M32.364 79.9395C31.758 80.0519 31.1492 79.7587 30.857 79.2141C30.5647 78.6695 30.6568 77.9981 31.0843 77.5524C31.5117 77.1066 32.1773 76.9885 32.7293 77.2602C33.2812 77.5301 33.5951 78.1238 33.5139 78.7325C33.4301 79.3414 32.9674 79.8279 32.364 79.9395Z" fill="#30302F"/>
<path d="M26.406 84.5654C26.7523 84.6259 27.012 84.8151 27.3043 85.0008C27.2826 86.5138 24.1955 89.1111 23.1105 90.2867C22.8535 90.3383 22.5829 90.2812 22.3231 90.2541L22.1094 89.7274C22.5612 87.8257 25.0558 85.8948 26.406 84.5654Z" fill="#30302F"/>
<path d="M41.3873 60.5533C43.6033 60.5797 45.5757 60.773 47.5887 61.7769C50.4567 63.2074 52.4967 65.7604 53.4546 68.8073C54.4529 71.9886 54.0255 75.4291 52.4453 78.3441C50.6569 81.6508 47.8809 83.3476 44.3798 84.3611L41.4306 84.648C41.4144 83.6297 41.3549 82.6284 41.6254 81.6364C42.3289 80.8491 44.4528 80.6251 45.4837 80.2247C47.3235 79.5101 48.8847 78.2732 49.6802 76.4214C50.6461 74.173 50.6867 71.0897 49.7451 68.8277C48.1542 65.009 44.9804 65.0776 41.7066 63.7509C41.1898 62.9772 41.3846 61.4862 41.3873 60.5533Z" fill="#D9DBD5"/>
<path d="M20.5022 47.8955C26.1408 47.8417 32.6669 48.2197 37.8076 50.8015C38.5625 51.1799 39.2173 51.5489 39.5014 52.39C39.3336 53.0657 39.1496 53.3266 38.6274 53.7878C37.7941 54.5241 36.8904 53.6776 36.0706 53.253C32.0067 51.1441 27.4693 51.0339 22.9671 50.811C18.8058 50.7602 14.5714 50.8723 10.4805 51.708C8.90576 52.0297 5.47228 54.1568 4.1898 53.8231C3.68384 53.2487 3.47281 53.051 3.32129 52.2765C3.41328 52.0262 3.52151 51.7761 3.69196 51.5673C6.1974 48.4789 16.6548 48.0771 20.5022 47.8955Z" fill="#F2F2F2"/>
<path d="M16.1246 52.7736C22.4748 51.9103 30.2536 52.6919 36.2114 55.0739C33.311 56.221 29.983 56.8361 26.8823 57.0799C19.8882 57.8531 13.1754 57.0797 6.45459 55.1413C9.60668 53.6247 12.7047 53.2254 16.1246 52.7736Z" fill="#FA4444"/>
<path d="M31.6147 58.4831C35.2349 57.6138 36.3036 57.3999 39.4557 55.5565L39.4422 62.3372C37.8432 62.9491 35.6868 63.4831 35.3783 65.4753C35.1321 67.0569 36.9124 68.867 38.2923 69.3551C38.6035 69.4634 38.92 69.5601 39.2393 69.645C39.6452 70.7141 39.4476 73.8118 39.3475 75.034L39.0066 75.548C35.8464 74.127 34.8155 72.8304 32.5834 70.2651C33.2598 69.1192 32.8107 60.3235 32.3615 58.7943C32.3101 58.6246 31.8014 58.5385 31.6147 58.4831Z" fill="#D9DBD5"/>
<path d="M41.5634 65.9459C43.4573 66.1878 44.9265 66.4555 46.4092 67.7766C47.6268 68.8603 48.3681 70.3234 48.4547 71.9604C48.5764 74.2518 47.5375 75.9545 46.0926 77.6185C44.637 78.6382 43.1543 78.9634 41.4497 79.296C41.4145 74.8455 41.4524 70.395 41.5634 65.9459Z" fill="#F2F2F2"/>
<path d="M38.8383 63.9707L39.3254 64.3416C39.5066 65.4916 39.7502 66.7638 39.0927 67.8079L38.3324 67.8983C38.2512 67.812 38.17 67.7243 38.0943 67.6353C37.5342 66.9929 36.9877 66.3498 37.0418 65.4528C37.3448 64.647 38.1267 64.3475 38.8383 63.9707Z" fill="#D9DBD5"/>
<path d="M34.5394 18.3091C38.5546 13.2081 39.1363 7.85981 34.9831 2.45044C34.3202 1.58874 33.8873 1.39571 33.9063 0.334735L34.2391 0C35.3917 0.263071 36.8798 2.09072 37.4588 3.12644C40.8923 9.26285 39.599 15.7223 34.6693 20.3447C34.047 29.7362 29.7233 29.6879 24.7747 36.1438C23.1864 38.2123 23.6897 40.7263 22.9213 42.0424L22.4965 41.9887C21.7389 40.8745 21.7768 39.618 22.0826 38.3491C23.7736 31.3195 32.7104 29.5242 33.0919 21.35C30.2401 22.4006 26.6849 22.7506 24.8126 19.8117C24.0469 18.6221 23.8114 17.1666 24.1605 15.7954C25.4024 10.939 31.4306 12.0222 33.5681 16.2702C34.1092 17.0866 34.2039 17.4001 34.5394 18.3091Z" fill="#FA4444"/>
<path d="M31.283 20.1434C28.9994 20.3997 25.2142 20.2688 25.3792 16.9222C25.4252 16.038 25.8662 15.2213 26.5751 14.6952C29.3322 12.6634 31.1044 15.8691 32.3977 17.5395C32.5979 18.7482 32.7603 18.5785 32.3193 19.5225L31.283 20.1434Z" fill="#F2F2F2"/>
</svg>
