<svg width="81" height="140" viewBox="0 0 81 140" fill="none" xmlns="http://www.w3.org/2000/svg">
<path d="M64.4573 124.098C66.4943 125.884 71.0212 126.384 72.0816 129.495C73.8504 134.703 65.0818 137.321 61.5232 138.203C52.763 140.336 43.2818 140.448 34.3875 139.199C30.1247 138.601 24.986 137.58 21.2136 135.503C16.6617 132.994 16.4521 128.736 21.3017 126.306C21.6579 128.302 22.0352 129.5 22.6262 131.425C31.8223 136.558 52.1972 136.815 61.8041 131.838C63.7908 130.809 64.0046 126.315 64.4573 124.098Z" fill="#D9DBD5"/>
<path d="M45.547 46.946C40.2825 40.3779 40.534 31.8004 43.2794 24.2188C47.3032 13.1143 56.8892 4.92957 67.3428 0.00372314C68.9984 17.7736 68.4661 42.0587 47.5296 47.6124C46.4356 52.8404 41.6951 77.7421 43.8453 81.2252L44.6039 80.7336C45.8488 78.7083 50.405 66.3241 50.0738 64.1977C48.1206 51.6073 60.4687 43.6037 71.7019 41.7384C71.4379 43.0961 71.3666 42.5436 71.8528 43.7114C74.4725 43.2398 75.7174 43.05 78.4125 42.9184L79.54 42.4887C80.0723 43.2457 79.9005 42.8664 80.1226 43.5919C73.3408 55.3876 66.8356 66.1065 51.9893 67.0903C50.6858 70.3429 47.2823 77.932 48.0577 81.2135L48.4769 81.5996C49.114 81.5233 50.2583 81.4025 50.5475 80.7038C56.0383 67.3262 67.2254 63.9823 80.8897 67.1842C76.0108 73.3021 68.8224 79.2708 60.7664 80.4092C57.9958 80.8011 54.8018 79.1387 52.7648 80.1321L52.8192 81.0584C56.5203 83.0649 68.2943 82.919 68.9817 87.4894C69.9331 93.814 66.7686 109.023 65.683 115.71C65.4147 117.023 65.1674 118.004 65.1129 119.358L64.459 124.101C64.0064 126.318 63.7926 130.811 61.8058 131.841C52.1989 136.818 31.8241 136.561 22.6279 131.428C22.0369 129.503 21.6597 128.305 21.3034 126.309C20.2849 122.465 19.3628 115.288 18.7424 111.192L18.361 108.869C17.5688 104.127 14.1904 90.6197 16.1395 87.1365C18.6083 82.722 27.6452 82.6793 31.954 81.4805L32.1552 80.8786C31.0067 78.7934 30.8223 78.8047 28.6469 78.808L29.2044 78.2753L29.0493 77.0656C14.9659 75.2746 10.9546 66.7265 2.53809 56.2976C4.9943 56.1048 6.17212 56.1836 8.56965 56.3504C8.53612 56.0834 8.50259 55.8168 8.46906 55.5502C10.4349 54.8046 12.8659 56.6065 16.1269 56.1807C21.2699 57.2046 25.7548 60.1144 28.781 64.406C33.3414 70.8857 31.3839 75.0575 34.5443 81.3791C35.6383 84.8727 36.3844 85.3514 38.74 87.8013C39.3478 88.7188 39.5029 89.1866 39.8214 90.2428C40.6765 90.7932 41.1292 90.7634 42.1896 90.3447C41.7411 89.1178 41.7705 86.911 41.2633 85.1678L41.1878 82.6805L41.5819 82.0581L41.1543 81.2873C40.9992 71.6909 43.5602 56.231 45.547 46.946Z" fill="#0C0C0C"/>
<path d="M2.53809 56.2977C4.9943 56.1048 6.17212 56.1836 8.56965 56.3505C21.0561 57.6314 28.7056 62.9919 31.2079 75.8317C28.4876 72.3301 14.8317 57.1766 10.4013 59.7024L10.3426 60.5147C17.5855 65.6719 23.8854 67.9584 29.1834 76.1494C29.2296 76.9001 29.3385 76.6109 29.0493 77.0657C14.9659 75.2746 10.9546 66.7265 2.53809 56.2977Z" fill="#E6FEB6"/>
<path d="M71.8524 43.7069C74.4721 43.2354 75.717 43.0455 78.4121 42.9139C70.6285 55.1459 67.3885 62.1335 52.5967 65.4842C56.4277 59.9213 58.1462 58.1726 63.0419 53.5217C65.5567 51.13 71.165 48.8587 71.5506 46.7411L71.0854 46.3232C67.9795 46.8086 62.9539 50.99 60.4557 53.0984C58.1923 51.9704 58.7917 52.4545 57.7899 50.1505C61.3611 46.6598 67.0573 44.681 71.8524 43.7069Z" fill="#E6FEB6"/>
<path d="M62.4971 55.0339C64.0983 54.8118 65.1252 54.5188 66.6719 54.9719L66.8395 55.5981C65.1713 55.6916 64.0815 55.7406 62.4175 55.6681L62.4971 55.0339Z" fill="#4E6A17"/>
<path d="M34.9282 87.8731C35.9886 89.7224 36.0431 90.3876 38.1598 90.8285L38.382 91.4648C39.673 91.7016 41.5968 91.8479 42.607 92.0822C35.8587 92.4754 29.3577 91.3768 22.7812 90.0803C26.2392 89.1679 31.2984 88.4763 34.9282 87.8731Z" fill="#30302F"/>
<path d="M38.162 90.8261C37.7135 89.2702 37.1812 89.1038 37.4243 87.7894L38.7404 87.7965C39.3482 88.714 39.5032 89.1818 39.8218 90.2381C40.6769 90.7884 41.1296 90.7586 42.19 90.3399C42.5169 89.2044 42.5505 89.2589 43.2882 88.3087L43.5648 88.421C43.9169 89.9551 43.6403 90.0448 44.6085 90.7536C46.7713 90.0553 45.866 87.877 47.4671 87.9855C47.4252 89.4345 47.0019 90.2904 46.5492 91.7034C45.3253 92.47 44.2899 92.1351 42.6092 92.0798C41.599 91.8455 39.6751 91.6992 38.3841 91.4624L38.162 90.8261Z" fill="#30302F"/>
<path d="M53.4763 55.9882L54.0589 55.7246C54.9643 55.3083 55.6768 54.8557 56.5193 54.3351C56.2217 55.7937 56.008 55.6923 56.4104 56.9426C54.6709 59.3255 53.0069 61.6115 51.1626 63.9135C51.5985 61.4975 52.068 57.9083 53.4763 55.9882Z" fill="#E6FEB6"/>
<path d="M57.7906 50.1493C58.7924 52.4534 58.193 51.9692 60.4564 53.0972C59.0983 54.3664 57.7487 55.6469 56.4116 56.9383C56.0092 55.6879 56.223 55.7894 56.5206 54.3307C55.6781 54.8513 54.9655 55.304 54.0602 55.7202L53.4775 55.9839C54.4416 53.4958 55.9715 51.9718 57.7906 50.1493Z" fill="#B5FE28"/>
<path d="M18.7568 98.0634C31.5702 102.029 42.3634 101.774 55.5624 100.756C59.3389 99.8675 62.9562 99.4064 66.5776 98.0505C64.6496 108.75 63.5178 119.91 61.464 130.405C55.3067 132.804 51.9451 133.25 45.3351 133.596C37.627 133.704 30.9373 133.654 23.9627 130.194C22.0262 122.671 19.8424 106.041 18.7568 98.0634Z" fill="#F2F2F2"/>
<path d="M55.5642 100.756C59.3407 99.8675 62.958 99.4064 66.5794 98.0505C64.6513 108.75 63.5196 119.91 61.4658 130.405C55.3085 132.804 51.9469 133.25 45.3369 133.596C46.4602 132.02 49.3607 129.113 50.1529 127.612C53.5397 121.169 56.9222 108.442 56.4193 101.384L55.5642 100.756Z" fill="#D9DBD5"/>
<path d="M17.5386 89.368C18.9721 90.1702 20.4726 90.8426 22.0276 91.377C33.7471 95.5001 55.7273 95.2625 67.3 89.723C67.2665 91.5899 67.1072 93.5067 66.9856 95.374C56.8967 101.875 29.1909 100.359 18.1924 95.4473C17.7607 93.3625 17.6895 91.4838 17.5386 89.368Z" fill="#F2F2F2"/>
<path d="M64.0374 18.4251L65.517 18.8195C64.0835 31.8488 61.0907 40.5302 47.9043 45.6778C48.5791 42.8368 49.6857 37.5358 50.8928 35.1571L51.0647 34.1336L51.4377 33.141C52.2677 30.7645 53.2317 28.3711 54.1412 26.0197L54.355 25.3574C55.252 23.4373 55.91 22.0591 57.004 20.2103C59.5273 19.8657 61.6063 19.1611 64.0374 18.4251Z" fill="#B5FE28"/>
<path d="M51.4404 33.1438C54.0517 32.0808 55.7283 31.7149 58.5408 31.9094L59.2114 32.5993C56.9271 33.4263 53.5026 34.4737 51.0674 34.1363L51.4404 33.1438Z" fill="#B5FE28"/>
<path d="M59.21 32.601L59.8513 32.8919C58.9585 34.3203 52.6209 35.12 50.894 35.1615L51.0659 34.138C53.5012 34.4754 56.9256 33.4279 59.21 32.601Z" fill="#4E6A17"/>
<path d="M54.3563 25.3593C57.173 24.9204 60.7651 23.9874 63.3094 23.9464C60.346 24.9016 57.282 25.9872 54.1426 26.0216L54.3563 25.3593Z" fill="#4E6A17"/>
<path d="M50.2817 15.8521C54.993 9.94624 58.8533 6.77242 65.5807 3.02942C65.6603 8.2931 65.6394 13.5576 65.5178 18.8209L64.0382 18.4265C61.6071 19.1625 59.5281 19.8671 57.0049 20.2116L57.227 19.3913L59.4611 15.4614C60.1904 14.1415 61.1587 12.7843 61.1125 11.3437L60.7605 10.7535C58.6354 11.7205 55.7726 17.7298 54.5612 20.0213C53.484 19.9379 53.9115 20.1601 53.2325 19.4471L53.4631 19.0581C52.7757 16.9309 52.1847 16.7532 50.2817 15.8521Z" fill="#E6FEB6"/>
<path d="M59.4607 15.4592C62.0133 16.4756 63.8575 15.4713 65.0144 16.4324L64.6413 16.9429L64.0377 18.4242C61.6067 19.1602 59.5277 19.8649 57.0044 20.2094L57.2266 19.3891L59.4607 15.4592Z" fill="#B5FE28"/>
<path d="M64.6413 16.9462L64.0377 18.4274C61.6067 19.1635 59.5277 19.8681 57.0044 20.2126L57.2266 19.3923C60.3283 19.0109 61.9797 18.5331 64.6413 16.9462Z" fill="#4E6A17"/>
<path d="M68.4828 68.3482C71.4378 68.0808 74.7533 68.2028 77.7461 68.2414C72.7205 72.8478 70.1636 74.8631 64.0147 77.6353C61.5417 78.2993 57.0778 79.5312 55.6191 76.9077C56.2814 71.9701 64.2452 69.1434 68.4828 68.3482Z" fill="#B5FE28"/>
<path d="M63.9551 70.6516C64.127 71.1521 64.3324 71.4711 64.5839 71.9409C65.879 71.9816 66.9059 72.1115 68.176 72.2649L64.3282 72.8031L61.2307 74.3808L61.4696 73.6766L61.2558 73.8015L62.2283 73.7877L60.4888 74.4617L60.493 74.2622C62.4252 72.7444 63.0582 72.9703 63.9551 70.6516Z" fill="#668D1B"/>
<path d="M50.2822 15.8539C52.1852 16.7551 52.7762 16.9328 53.4636 19.06L53.233 19.4489C53.912 20.1619 53.4845 19.9397 54.5617 20.0231C52.8558 23.8688 50.9655 29.3048 49.3978 32.6337L48.1655 32.58C47.7422 30.4264 46.6021 28.5616 45.5249 26.6859L44.98 25.7756C45.9356 22.2539 48.1823 18.7791 50.2822 15.8539Z" fill="#B5FE28"/>
<path d="M45.7834 44.7473C43.1511 37.8045 42.3799 32.9813 44.9786 25.7761L45.5235 26.6865C46.6007 28.5622 47.7408 30.427 48.1641 32.5806L49.3965 32.6342C48.6043 35.7259 46.9822 41.9637 45.7834 44.7473Z" fill="#E6FEB6"/>
<path d="M48.1641 32.5791L47.9461 32.4861C46.7725 31.0019 45.5151 28.6232 45.5235 26.6851C46.6007 28.5608 47.7407 30.4256 48.1641 32.5791Z" fill="#4E6A17"/>
<path d="M51.3438 83.6434C54.6635 83.9813 64.8446 84.5949 66.4919 87.7792L65.6326 88.9624L63.9896 89.4298C62.2207 88.8887 50.9498 86.3998 50.5894 85.9312L51.3438 83.6434Z" fill="#D9DBD5"/>
<path d="M31.3211 83.9359C32.3857 83.7318 32.0168 83.7712 33.1276 83.9154L34.0162 85.1976C33.4042 87.111 25.9769 87.1206 21.7225 89.6594L17.4766 87.6571C22.5483 84.9502 25.7212 84.446 31.3211 83.9359Z" fill="#D9DBD5"/>
<path d="M49.9134 87.7974C52.269 88.0011 59.4742 88.8888 61.4107 90.0562C60.9077 90.8798 60.1784 90.7997 58.9209 91.1539C55.0354 91.6544 51.8331 91.9205 47.9141 92.1527C48.5973 90.8098 49.2805 89.1898 49.9134 87.7974Z" fill="#30302F"/>
<path d="M17.3638 20.3665C31.2964 26.9082 48.1336 46.0952 37.4495 61.7538L35.3454 62.6868C17.3052 56.8606 17.171 35.9836 17.3638 20.3665Z" fill="#0C0C0C"/>
<path d="M19.2808 23.4999C25.2788 27.102 31.4319 32.1989 34.739 38.4681C32.5007 39.7989 32.2409 40.6033 29.9901 40.1133C28.9422 38.0154 25.283 29.8144 23.2082 29.7167L22.8352 30.5445C23.1789 32.696 25.5178 35.3178 26.5572 37.6411C28.4895 41.9559 30.4008 46.2907 32.3164 50.6096L32.1068 51.1398L30.6439 51.0095C34.3073 55.4977 33.8714 55.0505 35.3719 60.9949C19.1383 52.8298 19.8676 39.5747 19.2808 23.4999Z" fill="#E6FEB6"/>
<path d="M29.9922 40.1142C32.243 40.6041 32.5029 39.7998 34.7411 38.469C36.7279 41.4856 38.1824 45.2458 38.568 48.8434C38.6853 51.3398 38.6644 55.774 37.7297 58.0835L37.0548 58.2558C35.8728 56.8177 35.5082 54.7131 34.9927 52.8488C34.3136 49.6984 31.388 43.2012 29.9922 40.1142Z" fill="#B5FE28"/>
<path d="M34.9927 52.8471C37.0214 50.5129 36.3297 49.6775 38.568 48.8417C38.6853 51.3382 38.6644 55.7724 37.7297 58.0819L37.0549 58.2542C35.8729 56.8161 35.5082 54.7115 34.9927 52.8471Z" fill="#E6FEB6"/>
<path d="M35.3445 62.6908L37.4487 61.7578C38.748 66.0122 39.9049 79.5788 41.1539 81.2877L41.5815 82.0585L41.1875 82.6809L41.2629 85.1681C41.7701 86.9114 41.7407 89.1182 42.1892 90.3451C41.1288 90.7638 40.6761 90.7936 39.821 90.2432C39.5025 89.187 39.3474 88.7192 38.7396 87.8017C36.384 85.3517 35.6379 84.8731 34.5439 81.3795C36.2038 81.387 36.4343 81.3836 38.0564 81.0894C38.6558 79.3311 36.4595 64.2241 35.3445 62.6908Z" fill="#0C0C0C"/>
<path d="M41.2618 85.166L40.9978 88.3058L40.7421 88.1453C40.2475 85.718 39.9122 84.642 41.1864 82.6787L41.2618 85.166Z" fill="#D9DBD5"/>
<path d="M0.265137 55.9866L0.843565 55.4672C1.17888 55.6462 2.24354 56.2582 2.53695 56.293C10.9535 66.7218 14.9647 75.2699 29.0482 77.061L29.2032 78.2707L28.6458 78.8034C15.8575 78.1629 6.20448 66.4682 0.265137 55.9866Z" fill="#0C0C0C"/>
<path d="M0.264066 55.9895L0 55.5154L0.297631 54.7584C3.36581 53.488 12.7841 54.8942 16.1247 56.1789C12.8637 56.6048 10.4327 54.8028 8.46685 55.5485C8.50038 55.8151 8.53391 56.0817 8.56744 56.3487C6.16991 56.1818 4.99209 56.1031 2.53587 56.2959C2.24247 56.2611 1.17781 55.6491 0.842495 55.4701L0.264066 55.9895Z" fill="#0C0C0C"/>
<path d="M71.7013 41.7373C73.8432 41.1865 78.9945 40.0573 80.7675 41.5394C80.7675 42.9322 80.9058 42.2524 80.122 43.5907C79.8999 42.8652 80.0717 43.2445 79.5394 42.4875L78.4119 42.9172C75.7168 43.0488 74.4719 43.2386 71.8522 43.7102C71.366 42.5424 71.4373 43.0949 71.7013 41.7373Z" fill="#30302F"/>
</svg>
