<svg width="32" height="32" viewBox="0 0 32 32" fill="none" xmlns="http://www.w3.org/2000/svg">
<path d="M14.5189 8.6258C13.6719 7.70919 13.2629 6.51949 14.1526 5.54537C15.9826 3.54314 19.0669 6.14285 16.9822 8.60041C18.9509 9.85191 19.1166 12.0779 19.1428 14.2366C19.1472 14.5884 19.0748 15.0381 18.773 15.262C18.5183 15.4505 18.3202 15.2812 18.0036 15.2538C17.9251 15.7334 17.9993 18.7998 18.0054 19.4177C18.7145 19.676 19.3801 19.8519 19.6321 20.6169C19.7028 20.8287 19.6653 20.827 19.8424 20.9478C19.244 20.8734 18.6508 21.1167 18.2766 21.5893L18.2356 21.5193C18.0184 21.4134 17.7411 21.5202 17.4916 21.5815C16.0829 21.9298 14.7509 21.6445 13.3265 21.4721C12.8686 20.799 12.6148 20.6143 11.8559 20.441C12.4918 19.7486 12.7578 19.5175 13.7129 19.5587C13.6379 17.984 13.6397 16.5778 13.6475 15C13.4521 15.1955 13.3579 15.3253 13.0832 15.3808C11.8027 15.0922 12.5485 12.1328 12.7081 11.1795C12.9061 9.99519 13.5245 9.24516 14.5189 8.6258Z" fill="#0C0C0C"/>
<path d="M13.7129 19.5584C13.7757 20.0512 13.9266 20.579 14.4299 20.7567C15.2952 20.593 15.4339 19.5357 15.5072 18.8328C15.6433 19.2337 15.5386 19.1033 15.9006 19.3203L16.1291 19.3168L16.2094 19.1549C16.3158 19.8429 16.4815 20.7672 17.3826 20.7322C17.817 20.4888 17.967 19.8805 18.0054 19.4175C18.7145 19.6757 19.3801 19.8516 19.6321 20.6166C19.7028 20.8285 19.6653 20.8267 19.8424 20.9475C19.244 20.8731 18.6508 21.1164 18.2766 21.5891L18.2356 21.5191C18.0184 21.4132 17.7411 21.5199 17.4916 21.5812C16.0829 21.9296 14.7509 21.6442 13.3265 21.4718C12.8686 20.7987 12.6148 20.614 11.8559 20.4407C12.4918 19.7484 12.7578 19.5173 13.7129 19.5584Z" fill="#D9DBD5"/>
<path d="M15.8335 15.8187L16.2094 19.1552L16.1291 19.3171L15.9006 19.3206C15.5386 19.1035 15.6433 19.234 15.5072 18.8331C15.584 17.9342 15.6546 16.6737 15.8335 15.8187Z" fill="white"/>
<path d="M15.5064 5.21677C15.9757 5.20593 16.4563 5.36809 16.8035 5.6987C17.1088 5.9886 17.251 6.39953 17.2614 6.82077C17.2841 7.68888 16.8811 8.16515 16.3456 8.76263C16.7581 9.02009 17.2222 9.27405 17.5475 9.64661C18.589 10.8416 18.8455 13.0619 18.7495 14.625C18.733 14.8891 18.7216 14.9751 18.5358 15.1458C17.2702 14.7723 18.2654 12.3668 17.483 11.5218C17.0242 11.84 18.1311 19.3645 17.4184 20.4277C17.3155 20.5819 17.2606 20.5747 17.094 20.6061C16.4406 20.1704 16.2889 16.2493 16.0237 15.2172L15.8143 15.1856C14.8653 15.6853 15.6312 19.6559 14.7231 20.581C14.5121 20.6222 14.5121 20.6285 14.3324 20.5102C13.5517 19.0911 14.4431 13.7132 14.089 11.7334L13.9599 11.664C13.5072 12.2023 13.8962 14.0076 13.2952 14.9371C13.1897 15.1002 13.1391 15.1798 12.9481 15.2189C12.9132 15.1693 12.8862 15.1389 12.8626 15.0846C12.5372 14.3445 12.9673 11.7894 13.215 10.9768C13.5569 9.85557 14.219 9.33555 15.1811 8.81221C14.7877 8.43086 14.4004 8.07686 14.2085 7.54133C14.0541 7.10763 14.0053 6.61781 14.2111 6.19192C14.4737 5.64913 14.97 5.39275 15.5064 5.21677Z" fill="#F2F2F2"/>
<path d="M11.8559 20.4409C12.6148 20.6142 12.8686 20.7989 13.3266 21.472C13.7165 22.756 13.4094 23.5596 12.2188 24.1635C13.1687 24.5101 14.8068 25.7548 14.6454 26.8498C14.498 27.0957 14.5765 27.0362 14.3436 27.1623C14.2965 27.1159 14.0139 26.1425 13.7688 25.7583C12.6829 24.0532 10.196 24.1968 9.30893 26.0034C9.18507 26.2546 9.05859 26.9067 8.86407 27.0415L8.7498 26.9259C8.62594 25.332 9.72762 24.6117 11.0561 24.1477C10.4533 23.8361 10.0504 23.4458 9.91079 22.7543C9.81572 22.2737 9.92038 21.7748 10.2004 21.3739C10.6287 20.7534 11.1599 20.5643 11.8559 20.4409Z" fill="#0C0C0C"/>
<path d="M11.3901 20.8785C11.6221 20.8689 11.8663 20.8496 12.0896 20.9249C12.4272 21.0387 12.7403 21.3021 12.9017 21.6216C13.0945 22.0041 13.1041 22.4549 12.9575 22.8558C12.7648 23.3836 12.4211 23.5972 11.9326 23.8265C11.8402 23.8317 11.7556 23.8317 11.664 23.8186C11.2418 23.76 10.803 23.6059 10.5475 23.2409C10.332 22.9328 10.2971 22.5634 10.3687 22.2037C10.4925 21.5744 10.8781 21.219 11.3901 20.8785Z" fill="#F2F2F2"/>
<path d="M23.5234 19.4037C23.9988 19.338 24.3747 19.3442 24.8143 19.563C25.2383 19.7739 25.5627 20.1328 25.7075 20.588C25.841 21.0046 25.7965 21.458 25.5845 21.8405C25.2915 22.3806 24.8518 22.5679 24.2892 22.7333C24.7027 22.8217 25.0969 22.9101 25.4668 23.1228C26.1515 23.5167 26.6723 24.0953 26.8738 24.8734C26.9531 25.1806 27.0534 25.7303 26.8851 26.0113L26.7394 26.0095C26.5022 25.7662 26.5711 24.6983 25.6238 23.6996C25.274 23.4607 24.8649 23.2812 24.441 23.2375C23.0619 23.0939 22.7471 24.1416 21.8704 24.848L21.7876 24.757C21.7631 24.4708 21.887 24.2257 22.0309 23.9867C22.4435 23.2987 23.2286 22.9705 23.9717 22.7919C23.3899 22.5994 22.8962 22.3893 22.5674 21.8379C22.3519 21.4755 22.2813 21.0659 22.3912 20.6562C22.5587 20.0348 22.993 19.7118 23.5234 19.4037Z" fill="#0C0C0C"/>
<path d="M23.7327 19.8012C24.3973 19.6191 25.0864 19.9981 25.2905 20.659C25.4946 21.3189 25.1405 22.0236 24.4898 22.2503C24.0484 22.4043 23.5591 22.3045 23.2119 21.9903C22.8656 21.6761 22.7182 21.1964 22.8264 20.7413C22.9345 20.2852 23.2826 19.9246 23.7327 19.8012Z" fill="#F2F2F2"/>
<path d="M6.95025 18.9588C7.24682 18.9536 7.5399 18.9676 7.81117 19.0971C8.2822 19.3273 8.64157 19.7378 8.80818 20.2368C8.95385 20.6727 8.92768 21.1392 8.7192 21.5497C8.45578 22.0696 8.00307 22.2911 7.47535 22.4679C7.13691 22.4749 6.81155 22.4556 6.50103 22.3138C6.06577 22.1195 5.72733 21.7571 5.56247 21.3099C5.40371 20.8775 5.43076 20.4127 5.62615 19.9969C5.90353 19.4096 6.36757 19.1733 6.95025 18.9588Z" fill="#0C0C0C"/>
<path d="M6.8465 19.4027C7.06457 19.3939 7.32886 19.365 7.53995 19.4219C7.80076 19.492 8.10605 19.7913 8.24823 20.0163C8.45845 20.3497 8.51602 20.7585 8.40699 21.1375C8.29185 21.5515 7.95951 21.78 7.61235 21.9874C7.40562 22.0093 7.17534 22.0119 6.96949 21.9778C6.64152 21.9227 6.31093 21.7161 6.12165 21.4439C5.91841 21.1506 5.87566 20.79 5.95504 20.4478C6.07716 19.9208 6.41037 19.6749 6.8465 19.4027Z" fill="#F2F2F2"/>
<path d="M18.2767 21.5892C18.6509 21.1166 19.244 20.8732 19.8424 20.9476C20.6231 21.0439 21.2407 21.6575 21.3445 22.4409C21.4491 23.2234 21.013 23.9779 20.2847 24.2772C19.5563 24.5757 18.7181 24.3438 18.2462 23.7118C17.7743 23.0798 17.7865 22.2081 18.2767 21.5892Z" fill="#0C0C0C"/>
<path d="M19.3531 21.3747C20.0457 21.2242 20.7304 21.6566 20.8944 22.348C21.0583 23.0395 20.6414 23.7354 19.9558 23.9139C19.4996 24.033 19.0155 23.8947 18.6893 23.5533C18.363 23.2128 18.247 22.7209 18.3848 22.2693C18.5227 21.8167 18.8925 21.4745 19.3531 21.3747Z" fill="#F2F2F2"/>
<path d="M21.818 16.8051C23.1709 16.7377 31.1399 16.6536 31.8866 16.9976C31.5333 17.3189 29.808 17.206 29.2707 17.2077C28.1411 17.22 19.4428 17.3469 18.9011 17.0475C19.2684 16.6957 21.279 16.8156 21.818 16.8051Z" fill="#0C0C0C"/>
<path d="M1.9479 16.8899C4.12334 16.8094 6.31272 16.854 8.4899 16.8497C9.77126 16.8479 11.0997 16.7604 12.375 16.8365C12.5791 16.8488 12.6933 16.8576 12.8591 16.9853L12.8015 17.1175C12.4421 17.2541 11.9406 17.2007 11.5568 17.2033C9.33513 17.2576 7.11259 17.2821 4.89093 17.2751C3.31823 17.2777 1.66529 17.3635 0.113525 17.079C0.722367 16.9565 1.32947 16.9249 1.9479 16.8899Z" fill="#0C0C0C"/>
<path d="M19.6375 24.5775C19.8869 24.5661 20.153 24.5783 20.3998 24.6099C21.1212 24.6965 21.7763 25.0755 22.2124 25.6585C22.4985 26.0471 22.7305 26.6948 22.6599 27.178L22.5456 27.1929C22.0702 26.8506 22.0737 26.202 21.7649 25.7504C21.457 25.3005 20.7653 25.107 20.2655 24.9941L20.18 24.9915C19.2231 24.9687 18.063 25.36 17.6461 26.3079C17.5196 26.5968 17.5309 26.9556 17.2963 27.1788C17.1454 27.0948 17.0617 26.9749 17.018 26.8051C16.95 26.5346 17.0983 26.2607 17.2509 26.048C17.8231 25.2471 18.678 24.7333 19.6375 24.5775Z" fill="#0C0C0C"/>
<path d="M6.37804 22.9038C7.08109 22.8618 7.55909 22.9326 8.19061 23.2618C8.61365 23.4823 9.28356 23.8753 9.40655 24.3813C9.4615 24.608 9.39346 24.7506 9.27134 24.9274C8.91633 24.7681 8.79073 24.2482 8.51858 23.9637C7.98301 23.4044 7.28084 23.3143 6.54813 23.2959C6.35623 23.3449 6.16085 23.3948 5.97506 23.4648C4.85769 23.8859 4.83587 24.5703 4.41805 25.5244L4.28896 25.5577L4.19039 25.4377C4.13021 24.9948 4.22093 24.5449 4.44772 24.1616C4.86902 23.4491 5.60871 23.0998 6.37804 22.9038Z" fill="#0C0C0C"/>
<path d="M10.9837 8.21607C11.1285 8.24276 11.1843 8.26158 11.2977 8.36399C11.2777 8.88505 10.852 9.24594 10.7517 9.73365C10.6427 10.2659 10.8939 10.8421 10.6802 11.363C10.3993 11.1551 10.2728 11.0016 10.2222 10.6496C10.0992 9.79912 10.4813 8.87963 10.9837 8.21607Z" fill="#B5FE28"/>
<path d="M19.5702 5.34947C19.6853 5.38632 19.7944 5.44295 19.8999 5.50326C20.4189 5.80174 20.8306 6.40937 20.9772 6.98566C21.0967 7.455 21.101 7.80572 20.8481 8.22446C20.4259 8.0073 20.6021 7.32133 20.4643 6.92631C20.3552 6.61173 20.0473 6.30284 19.8406 6.04174C19.6295 5.77565 19.531 5.69504 19.5702 5.34947Z" fill="#B5FE28"/>
<path d="M9.95439 7.69826C10.0442 7.72356 10.1341 7.76889 10.2204 7.80513C10.2038 8.1858 9.80261 8.53382 9.67788 8.91124C9.52959 9.35703 9.49383 9.89148 9.39614 10.3571C9.32984 10.326 9.25134 10.2925 9.19551 10.2441C9.02891 10.0996 8.99926 9.8956 8.99577 9.68535C8.98443 8.97111 9.49296 8.19727 9.95439 7.69826Z" fill="#B5FE28"/>
<path d="M20.9676 4.80664C21.279 4.86117 21.5067 5.06467 21.6968 5.30757C22.0972 5.8204 22.2786 6.47197 22.2001 7.11873C22.1024 7.08757 22.0091 7.0389 21.9158 6.99715C21.6549 6.52476 20.8891 5.32166 20.9676 4.80664Z" fill="#B5FE28"/>
</svg>
