<svg width="462" height="299" viewBox="0 0 462 299" fill="none" xmlns="http://www.w3.org/2000/svg">
<path d="M231.162 166.124C231.727 166.215 232.145 166.449 232.58 166.805C233.854 167.842 236.923 170.842 237.118 172.48C236.778 173.705 235.557 174.355 234.521 174.947C233.097 175.762 230.953 176.855 229.27 176.401L229.082 175.915C230.042 174.076 231.553 173.65 233.349 172.877C227.767 172.174 222.259 171.654 216.76 173.205C214.575 173.884 210.326 176.634 208.32 176.319C207.85 175.734 207.813 175.734 207.857 174.991C208.104 174.615 208.389 174.285 208.754 174.022C215.058 169.489 225.577 169.295 232.905 170.537C232.296 169.825 231.353 168.933 230.947 168.097C230.547 167.275 230.84 166.87 231.162 166.124Z" fill="#30302F"/>
<path fill-rule="evenodd" clip-rule="evenodd" d="M377.62 283.346C380.597 283.486 383.56 283.624 386.71 283.608C388.01 283.606 389.416 283.58 390.845 283.553C393.304 283.507 395.833 283.46 398.007 283.532C394.926 281.114 392.318 277.3 392.217 273.47C392.024 265.711 392.075 256.289 392.123 247.704C392.142 244.288 392.16 241.004 392.161 238.009C392.167 227.65 427.827 228.747 433.534 234.338C435.431 236.196 435.354 239.103 435.28 241.903C435.263 242.55 435.246 243.192 435.254 243.813C449.742 244.042 455.913 259.002 446.162 269.745C443.418 272.768 439.191 273.547 435.237 273.858C434.068 278.521 433.096 280.358 429.243 283.483C435.962 283.631 442.681 283.675 449.4 283.614C449.914 283.613 450.563 283.59 451.292 283.565C454.572 283.454 459.487 283.286 461.161 284.727L460.895 285.405C460.205 285.783 459.375 285.793 458.563 285.802C458.482 285.803 458.401 285.804 458.32 285.805C453.042 285.887 447.745 285.873 442.458 285.859C440.992 285.855 439.526 285.851 438.062 285.849L385.622 285.852C383.291 285.852 380.96 285.849 378.628 285.845C372.216 285.836 365.802 285.827 359.394 285.887C357.223 285.844 355.364 286.816 353.49 287.797C352.692 288.215 351.891 288.634 351.062 288.977C343.734 292.006 335.643 291.497 328.349 288.651C327.434 288.294 326.635 287.925 325.882 287.578C323.86 286.645 322.165 285.864 319.429 285.849C312.69 285.811 305.955 285.825 299.219 285.84C296.205 285.846 293.191 285.853 290.177 285.855L231.717 285.866L173.569 285.834C171.472 285.833 169.372 285.83 167.27 285.826C159.26 285.815 151.225 285.803 143.226 285.861C141.03 285.876 138.083 287.6 135.298 289.23C133.802 290.105 132.353 290.953 131.092 291.494C121.305 295.686 112.468 298.537 101.734 298.226C89.975 297.886 78.6834 293.538 69.7237 285.898C58.7087 285.76 47.5951 285.789 36.5127 285.819C31.5755 285.832 26.6444 285.845 21.7309 285.843L8.27083 285.829C7.89059 285.83 7.38563 285.852 6.8109 285.878C4.50213 285.981 1.06762 286.134 0.070651 285.154C0.0237438 284.743 -0.0203924 284.61 0.0100356 284.496C0.0426507 284.375 0.160935 284.276 0.453303 283.884C2.2109 283.42 6.72358 283.541 9.8075 283.624C10.5703 283.644 11.2457 283.662 11.7704 283.669C14.3869 283.948 43.9271 283.893 45.0724 283.512L45.7104 283.401C46.2481 283.43 46.894 283.479 47.5885 283.531C49.6018 283.684 52.0235 283.868 53.4031 283.669C52.6907 283.586 51.7913 283.549 50.9582 283.515C50.6189 283.501 50.2905 283.487 49.9903 283.471C52.8888 280.076 53.5386 275.338 54.1708 270.729C54.4458 268.724 54.7174 266.744 55.1693 264.909C55.3213 264.291 55.4272 263.588 55.5358 262.867C55.7306 261.575 55.9339 260.225 56.4264 259.212C56.5958 257.824 56.1592 253.124 55.9233 251.67C55.9581 251.337 56.0916 250.716 56.2002 250.21C56.2408 250.021 56.2779 249.849 56.3051 249.713C56.3679 249.549 56.5331 248.727 56.6342 248.223C56.6634 248.078 56.6872 247.96 56.7017 247.891C57.301 244.038 57.8737 240.553 59.0301 236.826L59.5906 234.761C61.6973 228.755 64.1238 222.866 66.8598 217.119C67.3011 216.184 67.8713 215.044 68.4776 213.832C69.8371 211.116 71.3785 208.035 72.0571 206.072L81.1366 188.941C81.6716 188.052 82.2156 187.138 82.7687 186.209C86.2579 180.35 90.1098 173.882 94.3698 169.053C104.894 157.125 119.254 150.889 133.877 145.673C135.022 145.264 136.124 144.863 137.202 144.472C141.775 142.81 145.912 141.306 151.043 140.034L151.472 139.929C154.46 129.217 155.775 122.346 156.274 111.137C143.869 112.543 138.109 96.3062 144.936 87.4455C146.473 85.4503 148.277 84.575 150.49 83.5887C147.637 72.5502 147.134 58.6228 159.585 53.4629C165.272 36.9173 187.492 34.9162 201.923 39.1178C209.795 41.4098 215.088 46.018 221.07 51.2266C221.271 51.4018 221.473 51.5777 221.676 51.7542C222.564 52.5086 223.899 53.0849 225.287 53.6835C227.148 54.4865 229.103 55.3297 230.194 56.697C235.103 61.6454 232.953 68.1658 227.598 71.9415C228.37 79.0743 228.329 82.6129 224.279 88.9588C223.623 109.935 219.692 139.249 194.481 143.261L193.933 145.875C199.163 147.752 221.003 155.635 223.76 159.351L223.832 160.146C222.891 161.234 221.265 160.275 220.036 159.551C219.814 159.421 219.606 159.298 219.416 159.196C211.587 154.979 202.083 150.537 193.475 148.369C193.293 149.432 193.171 150.586 193.045 151.77C192.582 156.126 192.077 160.887 188.402 163.036C177.767 169.257 161.288 161.965 154.852 152.433C152.544 149.015 151.592 146.148 151.012 142.383C134.147 147.492 105.965 157.401 95.6907 171.146C84.3234 186.354 58.8316 231.463 58.8218 249.835C58.9378 255.151 64.1798 263.355 68.0791 266.824C102.294 297.261 151.478 261.127 176.622 235.373C177.148 234.834 177.599 234.268 178.055 233.696C178.522 233.11 178.993 232.518 179.555 231.943C179.398 231.789 179.238 231.636 179.078 231.481C177.741 230.193 176.353 228.856 175.818 227.09C175.636 226.786 175.204 226.272 174.833 225.831C174.658 225.623 174.497 225.432 174.383 225.287C169.816 219.484 167.14 213.037 165.109 205.993C161.733 207.815 157.887 210.123 154.199 212.337C152.336 213.456 150.512 214.55 148.811 215.545L117.523 233.939C116.463 234.574 115.402 235.211 114.338 235.848C109.156 238.955 103.939 242.084 98.7327 245.123C97.8839 245.619 97.5915 245.677 96.7641 245.511C95.6621 243.386 106.482 237.468 111.141 234.92C111.935 234.486 112.55 234.149 112.897 233.946C108.686 234.367 104.719 234.869 100.715 236.279C100.493 236.357 100.262 236.449 100.026 236.542C99.2403 236.853 98.3978 237.187 97.6318 237.132C97.3784 236.792 97.2711 236.695 97.2382 236.578C97.2025 236.45 97.2548 236.298 97.3028 235.781C98.8302 232.826 108.958 232.017 114.295 231.592C115.313 231.51 116.157 231.443 116.734 231.377C117.228 231.321 118.768 230.443 119.264 230.153C119.586 228.928 120.185 226.158 120.9 222.848C122.523 215.343 124.746 205.061 125.705 203.721C126.356 203.44 126.374 203.447 126.838 203.604C126.979 203.651 127.16 203.712 127.411 203.784C127.755 204.802 128.243 205.772 128.745 206.769C129.287 207.844 129.844 208.95 130.251 210.18C130.74 211.662 131.069 213.633 131.399 215.612C131.804 218.045 132.212 220.49 132.923 222.054L156.181 208.486C156.72 208.174 157.467 207.729 158.321 207.221C161.004 205.624 164.737 203.402 166.321 202.73L166.35 202.732C168.417 202.876 170.162 202.997 172.044 204.024C182.152 195.704 195.272 185.699 208.012 182.476C217.118 180.172 229.4 181.19 238.039 184.949C239.507 178.861 240.943 172.767 242.344 166.664C242.486 166.052 242.627 165.441 242.768 164.831C243.37 162.223 243.967 159.635 244.653 157.019C245.396 154.206 248.465 150.926 251.474 150.805C258.392 150.531 265.334 150.576 272.271 150.62C275.826 150.642 279.381 150.665 282.93 150.645C283.586 150.641 286.017 150.728 286.551 150.903C289.661 151.915 293.003 156.327 292.565 159.677C292.057 163.56 291.098 167.387 290.138 171.218C289.376 174.256 288.614 177.297 288.077 180.368C296.751 185.941 299.2 193.045 301.883 200.829C302.637 203.016 303.409 205.257 304.343 207.532C304.533 207.473 304.711 207.417 304.879 207.363C306.509 206.845 307.189 206.629 308.909 207.677C317.711 213.049 326.8 221.836 334.009 229.052C336.649 229.579 346.8 231.781 347.456 234.925C347.27 235.326 347.239 235.461 347.16 235.558C347.085 235.652 346.965 235.71 346.62 235.939C345.704 235.867 344.022 234.941 342.54 234.124C341.715 233.669 340.951 233.248 340.415 233.028C339.211 232.532 338.158 232.24 336.899 231.907C337.067 232.087 337.334 232.368 337.675 232.728C340.359 235.555 347.645 243.23 347.76 244.709L347.314 245.237C345.432 245.338 342.608 241.889 340.395 239.187C339.51 238.105 338.722 237.143 338.132 236.576C335.978 234.505 333.784 232.283 331.544 230.015C324.751 223.134 317.546 215.835 309.809 211.095C309.919 221.276 307.604 230.177 300.084 237.564C299.883 237.762 299.479 238.125 299.018 238.541C298.086 239.38 296.917 240.433 296.696 240.764C296.523 240.962 296.354 241.135 296.197 241.297C295.634 241.876 295.214 242.307 295.248 243.158C295.293 244.327 297.111 246.309 298.707 248.051C299.88 249.33 300.933 250.48 301.079 251.082C300.548 250.875 297.717 247.761 297.398 247.215C294.766 242.698 293.292 243.306 290.639 244.4C289.215 244.987 287.452 245.714 284.987 245.863C285.465 246.157 286.237 247.487 286.928 248.677C287.332 249.373 287.708 250.021 287.981 250.385C288.996 251.738 290.079 253.065 291.163 254.393C292.555 256.098 293.948 257.805 295.199 259.569C297.651 263.027 300.295 264.901 303.482 267.16C303.895 267.453 304.317 267.752 304.749 268.062C305.373 268.51 305.83 269.341 306.283 270.165C306.679 270.885 307.072 271.6 307.572 272.053C318.297 280.791 329.13 289.022 344.871 287.718C347.863 287.47 349.773 286.658 351.797 285.797C354.001 284.859 356.341 283.863 360.363 283.477C366.931 282.846 372.298 283.097 377.62 283.346Z" fill="#1C1C1C"/>
<path d="M171.22 86.9231C171.492 83.8944 171.819 81.0678 173.113 78.2871C176.167 71.7219 182.674 76.3947 187.451 77.6499C199.28 80.757 209.563 79.7094 221 75.7444C221.655 76.284 221.467 76.3982 221.583 77.4647C223.519 96.691 221.348 137.277 195.251 140.846C188.963 141.705 181.224 138.581 176.685 134.502C175.009 133.083 170.678 128.158 169.234 128.119C168.422 129.213 169.111 129.951 169.738 131.015C175.956 137.743 182.912 142.857 192.402 143.317C191.507 147.321 191.267 149.723 190.638 153.652C189.232 175.655 145.613 156.097 154.988 136.938C157.096 132.632 158.622 115.803 158.728 110.741C159.597 109.996 160.591 109.429 160.133 108.171C158.234 107.51 154.929 110.414 151.337 108.541C135.775 100.425 150.302 73.9867 160.956 91.674C162.134 93.6295 161.769 96.016 164.158 97.1628C168.024 97.5218 170.73 90.0189 171.22 86.9231Z" fill="white"/>
<path d="M169.738 131.015C175.956 137.743 182.913 142.856 192.402 143.316C191.507 147.321 191.267 149.722 190.638 153.652C190.211 153.219 185.155 151.259 184.119 150.731C177.718 147.464 170.471 138.3 169.738 131.015Z" fill="#D9DBD5"/>
<path d="M171.221 86.9231C171.493 83.8944 171.82 81.0678 173.114 78.2871C176.168 71.7219 182.675 76.3947 187.453 77.6499C199.281 80.757 209.564 79.7094 221.001 75.7444C221.656 76.284 221.468 76.3982 221.584 77.4647C210.306 81.7756 202.137 84.57 190.054 81.6913C186.56 80.8588 180.768 78.4499 177.234 78.9315C174.377 79.98 173.467 85.2164 171.221 86.9231Z" fill="#D9DBD5"/>
<path d="M151.146 90.8174C153.045 90.9238 154.82 91.9045 156.08 93.3312C157.497 94.9361 158.286 97.336 158.133 99.4694C158.07 100.348 157.881 100.991 157.222 101.565L156.636 101.307C155.967 100.443 156.019 99.3188 155.943 98.2712L155.769 98.1101C155.179 98.0555 155.14 98.0671 154.638 98.327C153.578 98.8761 152.611 99.3496 151.436 98.9732C151.417 98.6639 151.361 98.4668 151.484 98.1761C152.175 96.5483 153.631 96.2509 155.154 95.6558C153.997 94.4629 151.966 93.5676 151.111 92.2449C150.84 91.8261 151.06 91.2932 151.146 90.8174Z" fill="#30302F"/>
<path d="M201.352 113.145C202.415 113.116 204.308 113.219 204.95 112.286C207.494 108.595 203.818 100.729 204.744 96.8143L205.265 96.5532C206.71 97.384 206.89 105.883 207.232 107.99C207.715 110.966 207.752 113.914 204.162 114.611C202.669 114.796 201.102 115 200.257 113.514L200.61 113.055L201.352 113.145Z" fill="#0C0C0C"/>
<path d="M204.162 114.615C202.669 114.8 201.102 115.004 200.257 113.518L200.61 113.06L201.352 113.149C203.933 113.656 202.307 113.551 204.162 114.615Z" fill="#30302F"/>
<path d="M190.327 118.123C192.298 118.505 194.233 120.613 196.279 121.28C198.004 121.844 200.792 121.179 202.227 122.092C202.391 122.807 202.325 122.901 202.041 123.589C200.939 123.72 199.887 123.75 198.782 123.616C196.328 123.319 191.86 122.11 190.471 119.992C189.969 119.226 190.12 118.962 190.327 118.123Z" fill="#30302F"/>
<path d="M189.89 90.9784C191.193 90.8935 193.142 90.6714 194.385 91.0464C195.3 91.3222 196.197 91.7179 196.66 92.5585C196.518 92.73 196.497 92.7768 196.337 92.9027C195.389 93.6466 193.564 93.2193 192.438 93.0783C190.575 93.1902 188.882 93.8724 187.033 94.016C186.465 93.571 186.385 93.4954 186.15 92.8158L186.447 92.267C187.444 91.515 188.702 91.2853 189.89 90.9784Z" fill="#30302F"/>
<path d="M212.259 91.9043C214.516 91.9578 216.845 92.1046 218.91 93.1243C219.634 93.4821 219.827 93.7711 220.097 94.4841C219.785 95.0341 219.441 95.1524 218.873 95.3914C217.236 94.7713 211.719 93.9714 211.15 93.5868C210.796 93.3476 210.855 93.2176 210.782 92.7996C211.254 92.2223 211.578 92.1554 212.259 91.9043Z" fill="#30302F"/>
<path d="M213.343 99.7734C214.012 99.8662 214.793 99.997 215.287 100.491C215.738 100.943 215.974 101.602 215.967 102.237C215.952 103.679 215.169 104.663 214.157 105.583C213.774 105.495 213.397 105.396 213.077 105.157C212.485 104.715 212.128 104.069 212.052 103.336C211.906 101.926 212.538 100.853 213.343 99.7734Z" fill="#30302F"/>
<path d="M191.945 98.0459C192.198 98.1755 192.445 98.3139 192.673 98.4848C193.389 99.0226 193.883 99.7444 193.959 100.655C194.074 102.037 193.229 103.12 192.365 104.081C191.852 103.884 191.241 103.699 190.843 103.304C190.328 102.795 190.049 101.985 190.084 101.267C190.155 99.8223 190.964 98.9761 191.945 98.0459Z" fill="#30302F"/>
<path d="M147.214 146.001C147.698 146.277 148.004 146.613 148.294 147.09C148.979 148.217 149.329 149.616 149.876 150.821C150.831 152.929 152.427 155.128 153.845 156.953C156.306 160.091 159.293 162.776 162.672 164.887C169.991 169.556 181.631 172.626 189.686 168.115C191.431 167.138 193.261 164.421 195.076 164.089C195.531 164.005 195.598 164.151 195.973 164.411C196.058 165.266 195.882 165.539 195.524 166.294C195.273 166.582 195.017 166.866 194.757 167.145C191.39 170.742 186.54 172.457 181.696 172.599C172.085 172.879 162.555 168.844 155.623 162.266C152.639 159.435 146.169 151.664 146.295 147.49C146.317 146.751 146.736 146.503 147.214 146.001Z" fill="#30302F"/>
<path d="M394.442 241.048C404.367 245.758 414.315 245.263 424.976 243.977C425.176 244.036 425.722 244.129 425.777 244.31C426.258 245.948 426.74 255.365 426.015 256.592C428.408 259.339 429.513 260.727 432.902 262.249L433.172 262.932L432.731 263.571L433.227 263.808C433.613 265.325 433.357 272.052 433.305 273.973C432.081 273.685 430.813 273.232 429.67 273.69L429.365 274.145C430.169 275.337 431.738 275.305 433.067 275.464C430.006 282.563 425.347 284.132 417.828 283.827C409.296 283.484 401.637 285.909 395.806 278.08C395.075 276.525 394.901 275.682 394.497 274.044L394.529 272.103C394.402 270.436 394.48 268.301 394.497 266.596L394.48 264.404C394.355 262.339 394.48 259.363 394.512 257.23C394.567 256.606 394.552 256.038 394.549 255.415C394.242 251.545 394.439 245.107 394.442 241.048Z" fill="white"/>
<path d="M394.442 241.048C404.367 245.758 414.315 245.263 424.976 243.977C425.176 244.036 425.722 244.129 425.777 244.31C426.258 245.948 426.74 255.365 426.015 256.592C418.805 250.117 417.427 256.536 411.936 259.697C404.938 263.725 402.31 251.144 394.549 255.415C394.242 251.545 394.439 245.107 394.442 241.048Z" fill="white"/>
<path d="M407.732 249.574C408.75 249.113 409.939 249.252 410.824 249.935C411.706 250.618 412.144 251.733 411.962 252.837C411.776 253.94 410.998 254.852 409.942 255.209C408.414 255.723 406.751 254.947 406.162 253.444C405.573 251.94 406.264 250.238 407.732 249.574Z" fill="#30302F"/>
<path d="M408.251 251.033C408.933 250.628 409.812 250.859 410.209 251.547C410.607 252.234 410.369 253.114 409.679 253.505C409 253.891 408.135 253.656 407.744 252.978C407.352 252.3 407.578 251.432 408.251 251.033Z" fill="white"/>
<path d="M426.361 259.388C428.384 261.666 429.599 262.923 432.729 263.574L433.225 263.811C433.611 265.328 433.356 272.056 433.304 273.976C432.079 273.688 430.812 273.235 429.669 273.693L429.364 274.148C430.168 275.341 431.737 275.308 433.066 275.467C430.005 282.566 425.346 284.136 417.827 283.83C409.294 283.487 401.636 285.912 395.804 278.083C397.374 278.223 399.173 278.717 400.693 278.537L401.07 277.892L401.279 278.575C401.688 278.697 401.978 278.813 402.407 278.801C403.405 279.118 404.067 279.214 405.094 279.299C414.412 280.069 424.812 278.197 425.778 266.954C426.425 266.834 426.921 266.313 427.011 265.661C427.098 265.01 426.762 264.374 426.17 264.085L426.361 259.388Z" fill="#D9DBD5"/>
<path d="M394.549 255.416C402.309 251.145 404.938 263.726 411.935 259.697C417.427 256.536 418.805 250.118 426.014 256.593C428.407 259.34 429.513 260.728 432.901 262.249L433.171 262.933L432.73 263.572C429.6 262.921 428.384 261.664 426.362 259.385C417.964 249.054 417.041 262.563 408.567 262.006C402.832 261.629 400.734 253.296 394.511 257.231C394.566 256.607 394.552 256.038 394.549 255.416Z" fill="#30302F"/>
<path d="M394.479 264.405C402.889 258.206 405.007 272.251 413.318 266.716C414.519 265.917 414.922 264.522 416.126 264.148L416.709 264.522C416.91 266.951 412.845 269.329 410.504 269.592C403.582 270.368 400.669 260.248 394.496 266.598L394.479 264.405Z" fill="#30302F"/>
<path d="M394.497 274.044C396.873 271.471 400.415 274.948 401.071 277.889L400.694 278.534C399.174 278.715 397.375 278.221 395.806 278.081C395.075 276.526 394.901 275.683 394.497 274.044Z" fill="white"/>
<path d="M394.529 272.104C399.325 271.214 402.649 273.818 402.409 278.8C401.979 278.811 401.689 278.695 401.28 278.573L401.071 277.89C400.415 274.949 396.873 271.472 394.497 274.045L394.529 272.104Z" fill="#30302F"/>
<path d="M425.778 266.953C425.128 267.073 424.475 266.759 424.162 266.176C423.849 265.593 423.948 264.874 424.406 264.397C424.864 263.92 425.578 263.793 426.17 264.084C426.762 264.373 427.098 265.009 427.011 265.661C426.921 266.313 426.425 266.834 425.778 266.953Z" fill="#30302F"/>
<path d="M419.391 271.908C419.762 271.973 420.041 272.175 420.354 272.374C420.331 273.994 417.021 276.775 415.858 278.034C415.582 278.089 415.292 278.028 415.013 277.999L414.784 277.435C415.269 275.399 417.943 273.331 419.391 271.908Z" fill="#30302F"/>
<path d="M435.455 246.19C437.831 246.219 439.945 246.426 442.104 247.501C445.179 249.032 447.366 251.766 448.393 255.028C449.464 258.434 449.005 262.118 447.311 265.239C445.394 268.78 442.417 270.597 438.663 271.682L435.501 271.989C435.484 270.899 435.42 269.827 435.71 268.765C436.464 267.922 438.741 267.682 439.847 267.253C441.819 266.488 443.493 265.164 444.346 263.181C445.382 260.773 445.426 257.472 444.416 255.05C442.71 250.961 439.307 251.035 435.797 249.614C435.243 248.786 435.452 247.189 435.455 246.19Z" fill="#D9DBD5"/>
<path d="M413.06 232.641C419.106 232.583 426.103 232.988 431.616 235.752C432.425 236.157 433.127 236.552 433.432 237.453C433.252 238.177 433.054 238.456 432.495 238.95C431.601 239.738 430.632 238.832 429.753 238.377C425.396 236.119 420.531 236.001 415.703 235.762C411.241 235.708 406.701 235.828 402.315 236.723C400.626 237.067 396.945 239.345 395.57 238.988C395.027 238.372 394.801 238.161 394.638 237.332C394.737 237.064 394.853 236.796 395.036 236.572C397.722 233.265 408.935 232.835 413.06 232.641Z" fill="white"/>
<path d="M408.366 237.86C415.175 236.936 423.515 237.773 429.904 240.323C426.794 241.551 423.225 242.21 419.901 242.471C412.401 243.299 405.204 242.471 397.998 240.395C401.377 238.772 404.699 238.344 408.366 237.86Z" fill="#B5FE28"/>
<path d="M424.975 243.979C428.856 243.048 430.002 242.819 433.382 240.845L433.367 248.105C431.653 248.761 429.341 249.332 429.01 251.465C428.746 253.159 430.655 255.097 432.134 255.62C432.468 255.736 432.808 255.839 433.15 255.93C433.585 257.075 433.373 260.392 433.266 261.7L432.9 262.25C429.512 260.729 428.407 259.341 426.013 256.594C426.738 255.367 426.257 245.949 425.775 244.312C425.72 244.13 425.175 244.038 424.975 243.979Z" fill="#D9DBD5"/>
<path d="M435.642 251.966C437.673 252.225 439.248 252.512 440.838 253.926C442.144 255.087 442.939 256.653 443.031 258.406C443.162 260.86 442.048 262.683 440.499 264.464C438.938 265.556 437.348 265.904 435.52 266.261C435.483 261.495 435.523 256.73 435.642 251.966Z" fill="white"/>
<path d="M432.721 249.856L433.243 250.254C433.438 251.485 433.699 252.847 432.994 253.965L432.179 254.062C432.092 253.969 432.005 253.875 431.923 253.78C431.323 253.092 430.737 252.404 430.795 251.443C431.12 250.581 431.958 250.26 432.721 249.856Z" fill="#D9DBD5"/>
<path d="M428.111 200.963C432.416 195.501 433.04 189.775 428.587 183.983C427.876 183.06 427.412 182.853 427.432 181.717L427.789 181.359C429.025 181.641 430.62 183.597 431.241 184.706C434.923 191.277 433.536 198.193 428.25 203.142C427.583 213.198 422.947 213.146 417.641 220.059C415.938 222.274 416.478 224.965 415.654 226.375L415.198 226.317C414.386 225.124 414.426 223.779 414.754 222.42C416.567 214.893 426.15 212.971 426.559 204.219C423.501 205.344 419.689 205.718 417.681 202.572C416.86 201.298 416.608 199.74 416.982 198.271C418.314 193.071 424.778 194.231 427.069 198.78C427.65 199.654 427.751 199.99 428.111 200.963Z" fill="#747572"/>
<path d="M426.56 204.222C423.502 205.346 419.69 205.721 417.683 202.574C416.862 201.301 416.609 199.742 416.983 198.274C418.315 193.074 424.779 194.234 427.07 198.782L426.87 199.249L427.216 200.081L426.934 200.653C426.496 200.595 426.505 200.536 426.157 200.241L426.058 200.309C426.273 201.603 426.447 201.421 425.974 202.432L424.863 203.097L426.56 204.222Z" fill="#A7A8A4"/>
<path d="M424.862 203.094C422.414 203.369 418.355 203.229 418.532 199.645C418.582 198.699 419.054 197.824 419.814 197.261C422.771 195.085 424.671 198.518 426.058 200.306C426.272 201.601 426.446 201.419 425.973 202.43L424.862 203.094Z" fill="white"/>
<path d="M213.987 183.516C221.784 182.809 229.359 183.675 236.533 186.857C236.373 188.136 236.083 189.413 235.842 190.679C229.533 191.852 225.895 190.555 218.919 192.726C218.558 192.368 218.144 191.906 217.71 191.644C217.124 191.291 216.558 191.382 215.938 191.576C215.767 192.168 215.772 192.312 216.114 192.846C218.283 196.228 221.572 198.601 223.501 202.307C224.743 204.686 225.555 207.369 224.679 210.013C224.183 211.52 223.26 213.078 221.793 213.8C221.024 212.748 221.291 210.509 220.992 209.197C220.791 208.32 220.309 207.4 219.931 206.584C218.766 204.072 215.628 198.087 212.911 197.249C212.323 197.068 212.188 197.223 211.683 197.501C211.506 198.096 211.483 198.185 211.818 198.714C214.717 203.29 218.162 205.368 219.025 211.326C219.337 213.481 219.375 215.782 217.986 217.59C217.379 218.38 216.384 219.29 215.371 219.409C215.041 218.923 215.081 214.442 214.833 213.356C214.28 210.944 211.647 204.567 209.477 203.401C208.87 203.074 208.651 203.101 208.025 203.322C207.814 203.911 207.746 204.117 208.017 204.735C208.392 205.589 209.239 206.437 209.757 207.234C211.511 209.925 212.588 212.873 213.104 216.038C213.151 217.276 213.017 218.661 212.411 219.761C211.593 221.246 210.166 222.235 208.544 222.663C206.101 223.308 203.391 223.127 201.202 221.827C200.379 221.338 199.713 220.837 199.465 219.907C199.732 219.118 199.998 218.356 200.466 217.66C202.342 214.873 204.334 218.095 206.567 217.678L206.887 217.174C206.597 215.258 203.553 212.448 202.214 210.964C201.653 210.844 201.6 210.931 201.104 211.177C200.806 212.345 201.804 213.105 201.613 214.196C201.11 214.537 200.619 214.916 200.1 215.23C197.601 216.739 196.449 220.305 194.049 222.216C191.208 224.478 188.191 224.09 184.826 223.737C182.907 225.032 181.42 227.034 179.934 228.783C174.37 223.039 170.626 217.226 167.971 209.653C179.242 199.064 198.293 184.386 213.987 183.516Z" fill="white"/>
<path d="M254.544 156.984C260.358 156.645 266.32 156.895 272.148 156.886C277.045 156.878 282.171 156.561 287.042 156.964C288.057 157.048 289.261 157.147 290.085 157.8C290.819 160.935 284.329 185.462 283.131 190.721C278.745 189.017 273.993 186.699 269.351 185.864C267.593 185.548 265.417 185.458 263.897 186.57C262.217 187.796 262.792 189.229 262.464 191.004C262.281 192.002 257.817 192.558 256.697 193.363C255.992 193.87 255.484 194.524 255.388 195.406C255.145 197.618 256.894 200.02 258.231 201.63C258.005 201.823 257.779 202.017 257.564 202.223C256.653 203.094 256.18 204.226 256.18 205.492C256.186 208.034 258.107 210.062 259.766 211.764C259.667 212.784 259.467 213.717 259.601 214.751C260.03 218.03 261.953 219.752 264.405 221.676C267.025 223.273 269.897 224.369 272.783 225.373C272.447 227.045 272.157 228.758 271.707 230.403C271.051 232.813 270.001 233.843 267.886 235.063C261.501 235.177 255.095 235.112 248.707 235.128C244.953 235.137 240.993 235.398 237.262 235.036C236.302 234.943 235.13 234.816 234.396 234.131C234.309 228.586 236.421 222.457 237.654 217.035L244.956 185.49L248.785 169C249.43 166.245 249.894 163.187 250.886 160.543C251.588 158.674 252.792 157.804 254.544 156.984Z" fill="#D9DBD5"/>
<path d="M256.275 160.832C258.056 160.532 259.742 161.735 260.038 163.518C260.337 165.302 259.136 166.989 257.354 167.287C255.576 167.584 253.896 166.381 253.597 164.599C253.299 162.818 254.5 161.132 256.275 160.832Z" fill="#30302F"/>
<path d="M263.542 163.179C264.198 162.884 264.97 163.181 265.257 163.841C265.547 164.501 265.245 165.27 264.584 165.555C263.931 165.837 263.174 165.538 262.887 164.885C262.599 164.233 262.892 163.471 263.542 163.179Z" fill="#30302F"/>
<path d="M287.35 182.643C291.565 185.029 295.624 190.726 297.373 195.189C298.461 197.965 298.609 200.687 298.528 203.625C298.316 211.137 296.518 215.728 293.547 222.501C292.975 223.799 291.986 225.88 292.529 227.28C292.862 227.204 293.118 227.11 293.396 226.898C294.458 226.08 295.131 224.343 295.723 223.158C298.783 217.014 300.15 211.502 300.704 204.691C302.415 209.213 303.991 214.544 307.286 218.188C307.223 218.556 307.153 218.924 307.083 219.291C305.435 227.937 300.608 235.022 293.376 239.93C291.351 237.512 288.865 235.474 286.419 233.499C288.337 232.691 290.776 231.267 291.74 229.363C291.766 228.685 291.786 228.63 291.391 228.086C289.207 228.075 286.323 232.211 281.98 231.946C279.735 231.81 277.222 230.623 275.757 228.905C275.131 228.17 274.701 227.512 274.774 226.542C276.552 226.408 278.554 227.699 280.327 227.973C280.991 228.076 281.133 227.947 281.647 227.579L281.693 226.999C281.516 226.596 281.333 226.178 280.959 225.924C280.031 225.3 278.444 224.975 277.376 224.611C272.424 222.923 266.75 221.5 263.239 217.296C262.479 216.387 261.589 215.269 261.696 214.045C262.337 213.856 262.656 213.872 263.297 214.105C266.68 215.33 268.746 216.813 272.72 217.984C274.635 218.534 278.667 220.15 280.451 219.282L280.553 218.686C280.422 218.502 280.237 218.137 280.071 218.003C278.711 216.898 275.273 216.353 273.518 215.813C269.468 214.565 264.794 212.903 261.481 210.17C260.068 209.006 258.653 207.251 258.537 205.337C258.499 204.728 258.583 204.34 259.073 203.917C259.63 203.439 260.135 203.342 260.831 203.507C262.363 203.872 264.179 205.009 265.63 205.674C268.978 207.206 277.884 211.215 281.383 211.389C282.27 211.434 283.382 211.384 284.057 210.76C283.744 210.09 283.376 209.852 282.7 209.575C275.154 206.489 265.891 205.049 259.5 199.586C258.711 198.912 257.713 197.903 257.69 196.795C257.672 196.053 258.026 195.394 258.574 194.907C259.987 193.649 262.706 194.276 264.414 194.452C268.107 197.324 272.238 199.583 276.645 201.143C279.076 201.993 284.884 204.2 287.295 203.029C287.695 202.455 287.785 202.442 287.707 201.715C286.869 200.849 284.272 200.81 283.033 200.56C278.232 199.591 267.988 196.082 265.27 191.84C264.699 190.948 264.664 190.253 264.896 189.234C265.151 188.819 265.404 188.454 265.862 188.247C269.068 186.803 278.661 191.535 282.12 192.718C284.034 193.373 288.748 195.209 290.631 194.167C291.168 193.871 291.217 193.763 291.4 193.19C290.446 191.824 286.872 191.689 285.29 191.336L287.35 182.643Z" fill="white"/>
<path d="M276.447 154.607C271.997 154.374 253.969 153.596 251.057 156.14C249.818 157.223 248.982 159.007 248.454 160.533C247.523 163.228 247.015 166.169 246.374 168.946L242.818 184.368C239.322 199.287 235.846 214.309 232.464 229.253C232.234 230.271 232.089 232.342 231.207 232.582C229.101 230.383 231.567 223.314 232.229 220.454L236.511 201.956L243.113 173.459C244.317 168.166 245.484 162.732 246.838 157.471C247.123 156.206 248.019 155.277 248.872 154.372C249.647 153.552 251.489 153.051 252.614 153.019C263.171 152.715 273.786 153 284.355 152.925C285.466 152.917 286.464 153.23 287.34 153.885L287.372 154.339C286.624 154.74 286.293 154.647 285.443 154.609L285.582 155.012C284.184 156.166 278.231 155.172 276.447 154.607Z" fill="#B5FE28"/>
<path d="M276.447 154.606C279.511 154.553 282.374 154.52 285.443 154.607L285.583 155.01C284.184 156.165 278.231 155.17 276.447 154.606Z" fill="#1C1C1C"/>
<path d="M221.312 194.168C227.086 192.732 229.656 193.005 235.673 192.921C234.031 201.168 231.884 209.315 230.022 217.513C229.27 220.818 228.284 224.237 227.86 227.598C227.701 228.873 227.518 230.515 228.058 231.72C229.056 233.94 231.359 235.368 233.558 236.175C236.259 237.166 267.245 237.241 269.134 236.272C271.847 234.881 272.908 233.029 273.75 230.157C276.555 232.469 278.229 233.267 281.783 233.701C277.486 241.104 280.321 244.761 284.82 251.005C294.057 263.823 304.751 273.862 317.562 282.981C308.017 282.426 297.53 283.479 288.008 282.851L232.464 282.961C220.752 283.179 208.436 282.984 196.688 282.97L144.926 282.877C161.728 272.469 176.161 258.458 189.867 244.338C197.801 236.166 198.333 236.472 191.824 225.856C194.972 224.723 196.045 223.906 198.334 221.653C202.928 226.424 209.803 225.902 214.499 221.551C218.679 221.384 219.774 219.689 221.739 216.301C232.81 210.934 226.541 201.084 221.312 194.168Z" fill="white"/>
<path d="M221.312 194.168C227.086 192.732 229.656 193.005 235.673 192.921C234.031 201.168 231.884 209.315 230.022 217.513C229.27 220.818 228.284 224.237 227.86 227.598C227.701 228.873 227.518 230.515 228.058 231.72C229.056 233.94 231.359 235.368 233.558 236.175C236.259 237.166 267.245 237.241 269.134 236.272C271.847 234.881 272.908 233.029 273.75 230.157C276.555 232.469 278.229 233.267 281.783 233.701C277.486 241.104 280.321 244.761 284.82 251.005C294.057 263.823 304.751 273.862 317.562 282.981C308.017 282.426 297.53 283.479 288.008 282.851C283.184 275.435 278.241 269.445 274.585 261.183C272.586 256.662 272.064 252.8 270.506 248.855C265.479 244.423 259.972 245.981 253.816 246.017C245.078 246.068 232.865 249.434 225.679 243.421C223.387 241.502 222.702 238.736 219.812 238.882C217.685 238.99 216.258 240.488 214.482 241.284C210.577 243.034 204.922 245.353 202.173 248.853C198.48 253.554 196.014 258.897 192.352 264.053C187.097 271.453 181.656 276.217 175.758 282.636C181.208 282.636 231.852 282.42 232.464 282.961C220.752 283.179 208.436 282.984 196.688 282.97L144.926 282.877C161.728 272.469 176.161 258.458 189.867 244.338C197.801 236.166 198.333 236.472 191.824 225.856C194.972 224.723 196.045 223.906 198.334 221.653C202.928 226.424 209.803 225.902 214.499 221.551C218.679 221.384 219.774 219.689 221.739 216.301C232.81 210.934 226.541 201.084 221.312 194.168Z" fill="#D9DBD5"/>
<path d="M175.805 227.091C181.228 232.787 185.153 236.254 192.709 238.938C165.964 267.599 112.704 319.528 70.7405 283.783C62.8986 277.103 58.8 265.976 58.5583 255.975C58.5119 254.58 58.498 251.108 58.8087 249.836C58.9247 255.152 64.1667 263.356 68.066 266.825C102.28 297.262 151.465 261.128 176.609 235.374C177.674 234.283 178.432 233.079 179.542 231.944C178.072 230.508 176.405 229.069 175.805 227.091Z" fill="#D9DBD5"/>
<path d="M331.011 0.0808941C331.531 0.0492377 332.052 0.0338953 332.574 0.0350012L374.342 0.0391482L385.954 0.0302995C391.133 0.0244935 395.416 -0.538409 399.406 3.45417C401.23 5.30724 402.414 7.69765 402.782 10.2743C403.071 12.2819 402.939 17.6868 402.938 19.8816L402.93 38.7104L402.945 103.234C403.841 104.274 404.748 105.644 405.547 106.784C408.791 105.01 410.948 105.738 413.188 108.497C416.616 107.037 418.795 108.765 421.145 111.022C424.734 111.15 427.401 112.827 429.818 115.44C434.085 120.054 434.403 134.015 436.023 140.457C436.331 141.677 438.428 145.794 438.413 146.198L438.196 146.387L437.916 146.368C434.951 142.869 434.456 135.645 433.748 131.167C433.332 128.549 432.838 125.945 432.27 123.355C431.865 121.497 431.185 118.329 429.984 116.883C427.665 114.092 425.372 112.303 421.835 111.725C422.759 112.662 424.559 114.154 424.928 115.298L424.801 115.434C422.914 114.728 419.108 108.73 415.93 108.802C415.314 108.816 414.425 108.77 413.922 109.21C414.47 110.529 418.669 114.527 418.679 115.241C417.824 115.697 417.29 114.5 416.743 113.965C413.598 110.886 411.216 104.452 405.991 107.541C406.756 108.876 411.422 116.119 411.545 116.869L411.405 116.955C409.91 116.3 405.238 107.707 403.89 105.791C402.432 103.719 396.065 95.0948 393.753 94.7848C393.363 94.7327 393.063 94.8137 392.752 95.0609C392.277 95.4386 392.195 96.1371 392.114 96.6924C392.604 101.103 396.92 105.77 399.014 109.757C401.666 114.805 404.255 120.202 404.96 125.968C405.087 127.005 405.418 130.83 404.931 131.615L404.668 131.626C404.027 131.095 401.301 126.944 401.137 125.947C400.644 122.959 400.796 118.25 397.135 117.009C396.952 116.934 396.276 117.027 396.184 117.266C395.152 120.14 395.316 124.335 394.893 127.42C394.76 128.394 397.552 134.389 397.936 135.838C399.354 141.187 404.966 145.095 409.481 147.7C411.247 148.719 413.273 149.679 414.75 151.136C415.678 152.071 418.253 155.673 418.254 156.849L418.071 156.96C417.011 156.398 415.438 152.682 414.06 151.538C412.063 149.879 409.988 148.965 407.783 147.633C405.838 146.458 404.234 145.276 402.486 143.863C400.526 149.51 397.182 152.441 391.029 152.497L349.811 152.488H337.479C332.35 152.486 327.167 153.041 323.212 149.079C318.961 144.822 319.785 138.537 319.788 132.974L319.795 116.673L319.827 60.3851C319.508 60.1089 319.257 59.812 318.976 59.4987C318.823 56.5691 318.929 53.1463 318.908 50.1768C318.9 49.1826 319.049 48.6721 319.769 48.0308L319.793 45.4037L318.972 44.5673C318.881 42.6466 318.946 40.5527 318.905 38.6114C318.875 37.2009 318.843 35.5764 318.982 34.1779C319.047 33.5249 319.288 33.3355 319.785 32.9507L319.815 28.1205C319.129 27.5822 318.948 27.1182 318.905 26.2219C318.874 25.5868 318.736 21.939 319.062 21.5909C320.348 20.221 319.619 19.4842 319.803 17.7369C319.802 13.0376 319.307 8.19917 322.612 4.33847C324.828 1.74984 327.634 0.381699 331.011 0.0808941Z" fill="#1C1C1C"/>
<path d="M398.872 140.054C398.757 142.235 398.59 143.552 397.141 145.402C395.895 146.993 393.617 148.076 391.594 148.127C388.08 148.217 384.42 148.164 380.89 148.161L359.396 148.153L341.758 148.17C338.614 148.172 335.196 148.312 332.105 148.02C328.856 147.713 326.036 144.385 325.966 141.161C325.903 138.262 325.912 135.413 325.915 132.531L325.927 117.21L325.931 68.2949L325.936 29.7221L325.931 17.6852C325.928 14.0267 325.289 9.52293 327.973 6.67731C329.59 4.93911 331.622 4.1054 334.042 4.17839C336.816 4.2623 340.121 3.88422 342.866 4.39141C343.188 4.45085 343.486 6.03533 343.561 6.40152C344.493 10.9426 348.899 10.2324 352.399 10.2087L359.6 10.2075L370.534 10.2303C372.466 10.2346 374.729 10.2917 376.628 10.1937C382.005 9.91608 380.773 5.88479 382.047 4.40399C383.554 3.77225 390.518 4.26368 392.502 4.33971C393.898 4.39321 395.609 5.38188 396.607 6.38825C397.798 7.59825 398.565 9.16337 398.791 10.8478C399.027 12.6667 398.906 17.6655 398.905 19.7873L398.896 37.8164L398.911 98.2061C398.096 97.2479 397.258 96.3089 396.4 95.39L394.859 94.1141C394.483 91.4627 392.472 91.0382 390.39 92.3871C389.094 91.6103 387.252 91.1775 386.357 92.7934C384.831 95.5482 388.343 98.397 390.408 99.6801L391.759 98.743C393.345 103.38 396.722 106.604 398.679 110.956C399.115 111.927 399.045 115.78 398.826 116.943C397.483 116.089 396.796 115.747 395.464 116.727L395.501 110.726C395.428 108.225 395.475 105.926 392.214 105.886C390.666 105.867 389.112 105.906 387.563 105.891C386.149 105.972 384.075 105.913 382.623 105.913L373.38 105.911L345.014 105.902L336.453 105.898C335.023 105.894 333.599 105.818 332.17 105.895C328.524 106.091 329.148 109.278 329.155 111.872L329.156 119.051L329.156 132.314C329.157 134.654 329.128 136.994 329.194 139.338C329.247 141.233 329.698 142.57 331.875 142.607C334.886 142.661 337.904 142.629 340.915 142.626L358.697 142.621L380.596 142.641C384.41 142.644 388.23 142.65 392.046 142.626C395.522 142.605 395.545 141.18 395.54 138.031C395.537 135.913 395.503 133.796 395.512 131.693C396.469 134.237 397.676 137.676 398.872 140.054Z" fill="white"/>
<path d="M390.431 90.5989C391.305 90.1554 391.88 89.9295 392.888 90.0357C393.957 90.1459 394.931 90.7016 395.572 91.567C396.467 92.7524 396.586 93.9853 396.4 95.3902L394.859 94.1143C394.483 91.4629 392.473 91.0383 390.39 92.3873C389.094 91.6105 387.252 91.1777 386.357 92.7936C384.831 95.5484 388.343 98.3972 390.408 99.6803L391.76 98.7432C393.345 103.38 396.723 106.604 398.679 110.957C399.115 111.927 399.046 115.781 398.827 116.943C397.483 116.089 396.796 115.747 395.464 116.728L395.501 110.727C395.428 108.225 395.475 105.926 392.214 105.886C390.667 105.867 389.112 105.906 387.564 105.891C388.434 105.686 391.193 105.76 392.209 105.77C391.696 104.949 390.375 101.778 389.94 101.449C386.433 98.7997 381.244 94.6296 386.699 90.5732C387.675 89.8473 389.283 90.2507 390.431 90.5989Z" fill="#D9DBD5"/>
<path d="M395.501 110.725C396.313 111.088 397.869 113.691 398.783 114.631L398.772 114.556C398.782 115.25 398.768 116.278 398.827 116.942C397.483 116.087 396.796 115.746 395.464 116.726L395.501 110.725Z" fill="#F2F2F2"/>
<path d="M330.766 31.1485C334.998 30.9831 340.421 31.125 344.721 31.125L371.761 31.1212L386.517 31.1178C388.867 31.118 391.286 31.0667 393.633 31.1998C393.993 31.1924 395.013 31.8175 395.087 32.1606C395.608 34.5959 395.39 38.5946 395.388 41.0011L395.374 54.4841C395.351 57.6643 395.351 60.8446 395.374 64.0249C395.391 66.2703 395.658 69.6253 395.058 71.8523C394.896 72.455 394.206 72.8096 393.656 73.0497C389.053 73.1993 383.656 73.0681 379.012 73.0699L350.137 73.0757L336.894 73.083C335.602 73.0833 329.789 73.5434 329.487 71.9961C328.903 68.9947 329.135 65.2477 329.136 62.1168L329.156 48.341C329.182 43.6445 329.138 38.9581 329.112 34.2627C329.104 32.7453 329.413 31.8103 330.766 31.1485Z" fill="#1C1C1C"/>
<path d="M368.043 31.9323C369.757 31.8767 373.399 31.7922 375.058 31.9175L375.187 31.9063C377.401 31.8781 379.912 31.8333 382.119 31.9276L384.074 31.9271C386.001 31.9081 387.927 31.9003 389.853 31.9036C390.865 31.9063 392.797 31.8666 393.732 31.9721C394.202 32.3438 394.509 32.5047 394.548 33.0958C394.636 34.4165 394.606 35.8101 394.603 37.1364L394.59 44.5388L394.602 68.9903L394.577 70.4772C394.543 71.0246 394.513 71.55 394.047 71.9232C393.191 72.6088 382.372 72.2433 380.333 72.2313L377.249 72.2339C376.746 72.3034 373.502 72.2531 372.841 72.2531L362.795 72.2491C361.766 72.2007 360.493 72.2358 359.446 72.2363L353.202 72.2412C352.352 72.3258 350.307 72.2739 349.402 72.2712L342.19 72.2441C341.222 72.3326 339.105 72.2719 338.073 72.2642C335.711 72.2358 333.348 72.2335 330.985 72.2573C330.597 71.9986 330.365 71.7087 330.049 71.3678C329.871 70.3542 329.953 65.0927 329.956 63.7951L329.966 59.0566L329.97 53.6396L329.971 51.809L329.956 46.5555L329.96 41.2521C329.965 39.6463 329.669 33.3803 330.381 32.4609C331.692 31.6172 334.393 31.8649 335.967 31.873L343.496 31.909C344.655 31.9242 345.814 31.9291 346.973 31.9234C350.635 31.8822 354.298 31.8781 357.961 31.9108C359.488 31.9226 361.015 31.9236 362.542 31.914C364.026 31.8826 365.512 31.8819 366.996 31.9118L368.043 31.9323Z" fill="#1C1C1C"/>
<path d="M368.043 31.9323C369.757 31.8767 373.399 31.7922 375.058 31.9175L375.187 31.9063C377.401 31.8781 379.912 31.8333 382.119 31.9276L384.074 31.9271C386.001 31.9081 387.927 31.9003 389.853 31.9036L379.836 41.778C378.651 42.9551 375.397 46.2788 374.272 47.102C374.26 45.8948 374.426 40.9235 373.987 40.1956C372.084 39.4075 365.219 39.9182 362.893 39.9958C362.111 40.0218 362.387 43.5669 362.381 44.304C360.834 44.3011 352.167 44.0751 351.456 44.625C350.838 45.9547 351.129 54.8808 351.121 56.9887C349.042 56.9667 343.563 56.4375 342.191 57.7484C341.098 58.7932 341.395 60.6196 341.329 62.1272L341.296 62.2046C340.192 62.684 332.11 70.8407 330.985 72.2573C330.597 71.9986 330.365 71.7087 330.049 71.3678C329.871 70.3541 329.953 65.0927 329.956 63.7951L329.966 59.0566L329.97 53.6396L329.971 51.809L329.956 46.5554L329.96 41.2521C329.965 39.6463 329.669 33.3803 330.381 32.4609C331.692 31.6172 334.393 31.8649 335.967 31.873L343.496 31.909C344.655 31.9242 345.814 31.9291 346.973 31.9234C350.635 31.8822 354.298 31.8781 357.961 31.9108C359.488 31.9226 361.015 31.9236 362.542 31.914C364.026 31.8826 365.512 31.8819 366.996 31.9118L368.043 31.9323Z" fill="#A7A8A4"/>
<path d="M329.97 51.8063L330.134 51.6823C333.168 49.3663 338.496 41.7135 342.101 46.8418C342.778 47.8071 343.041 49.0044 342.829 50.1652C342.353 52.6673 333.584 59.7445 331.69 62.1106C331.416 62.4533 330.321 63.4869 329.955 63.7924L329.965 59.0539L329.969 53.6369L329.97 51.8063Z" fill="white"/>
<path d="M329.969 53.6366C330.744 53.0614 331.134 52.6783 332.155 52.844C333.454 53.055 334.077 53.9747 333.651 55.2465C333.299 56.2982 332.456 56.9663 331.651 57.6727C331.091 58.1485 330.545 58.617 329.966 59.0535L329.969 53.6366Z" fill="#B5FE28"/>
<path d="M357.961 31.9102C359.488 31.9219 361.015 31.9229 362.542 31.9133C361.047 33.2865 353.342 41.244 352.405 41.4562C352.003 41.547 351.53 41.4556 351.192 41.218C350.807 40.9467 350.488 40.4155 350.458 39.9418C350.382 38.7851 356.775 33.0548 357.961 31.9102Z" fill="white"/>
<path d="M329.959 41.2498C331.457 39.7741 336.52 33.9507 337.14 39.2583C337.253 40.2214 330.93 45.9463 329.956 46.5531L329.959 41.2498Z" fill="#90C922"/>
<path d="M368.042 31.9304C369.756 31.8748 373.398 31.7904 375.057 31.9156C373.294 33.6909 370.37 38.0071 367.841 34.5587C367.355 33.8966 367.795 32.6213 368.042 31.9304Z" fill="#C8FE5E"/>
<path d="M330.048 71.367C330.93 70.6559 332.476 69.0628 333.31 68.2331C335.007 66.5323 336.718 64.8466 338.444 63.1761C339.01 62.6288 340.597 61.0467 341.201 60.6724C341.336 60.9994 341.315 61.7329 341.329 62.1263L341.296 62.2038C340.191 62.6832 332.109 70.8399 330.985 72.2564C330.597 71.9977 330.364 71.7079 330.048 71.367Z" fill="#F2F2F2"/>
<path d="M343.498 31.9082C344.656 31.9234 345.815 31.9282 346.974 31.9226C346.195 32.612 342.082 36.8877 341.48 36.7807C338.044 36.1701 342.503 32.8294 343.498 31.9082Z" fill="white"/>
<path d="M375.059 31.9174L375.187 31.9062C375.55 31.93 375.913 31.9581 376.275 31.9902L376.328 32.1049C375.446 33.2455 372.926 35.7971 371.717 36.42C368.538 38.0575 365.715 35.2647 366.997 31.9118L368.043 31.9322C367.796 32.6231 367.356 33.8984 367.842 34.5605C370.372 38.0089 373.295 33.6927 375.059 31.9174Z" fill="#F2F2F2"/>
<path d="M382.119 31.9247L384.074 31.9243C384.85 34.7818 381.09 34.408 382.119 31.9247Z" fill="#F2F2F2"/>
<path d="M344.439 40.483C344.961 40.2213 345.596 40.4322 345.858 40.9544C346.12 41.4765 345.91 42.1126 345.39 42.3761C344.868 42.6403 344.231 42.4299 343.968 41.9064C343.705 41.383 343.916 40.7453 344.439 40.483Z" fill="white"/>
<path d="M389.854 31.9036C390.866 31.9063 392.798 31.8666 393.733 31.9721C394.203 32.3438 394.51 32.5047 394.549 33.0958C394.637 34.4165 394.607 35.8101 394.604 37.1363L394.591 44.5388L394.603 68.9903L394.578 70.4772C394.544 71.0246 394.514 71.55 394.048 71.9231C393.192 72.6088 382.373 72.2433 380.333 72.2313L377.25 72.2339C376.746 72.3034 373.503 72.2531 372.842 72.2531L362.796 72.2491C361.767 72.2007 360.494 72.2358 359.447 72.2362L353.203 72.2412C355.195 69.846 357.998 67.5825 360.226 65.2793L366.646 65.2768L370.1 65.2779L372.178 65.2742C373.758 65.2584 377.551 65.4782 378.826 65.0646C379.013 64.8671 379.085 64.6893 379.155 64.4309C379.487 63.2049 379.581 54.866 378.959 54.0367C378.342 53.2125 377.243 53.2706 376.329 53.2551C376.338 52.2927 376.441 51.0412 376.25 50.1578C375.907 49.724 376.126 49.8835 375.52 49.7404C374.829 49.7699 374.872 49.8838 374.409 49.5774C374.125 48.9555 374.269 47.8397 374.273 47.102C375.397 46.2788 378.652 42.955 379.837 41.7779L389.854 31.9036Z" fill="#90C922"/>
<path d="M380.333 72.2317C382.026 70.5108 383.729 68.8005 385.443 67.1012C386.225 66.3229 389.468 62.4167 390.607 64.069C391.164 64.8754 390.928 66.1673 390.744 67.0972L390.846 67.2653C391.272 67.4258 391.258 67.3876 391.706 67.2604L391.844 66.9804C392.669 68.2998 393.139 68.4714 394.603 68.9908L394.578 70.4776C394.544 71.0251 394.514 71.5505 394.048 71.9236C393.192 72.6093 382.373 72.2438 380.333 72.2317Z" fill="#B5FE28"/>
<path d="M391.842 66.9795C392.667 68.299 393.137 68.4705 394.601 68.9899L394.577 70.4768C393.015 70.1844 390.575 69.0178 390.743 67.0963L390.845 67.2644C391.27 67.4249 391.256 67.3867 391.705 67.2596L391.842 66.9795Z" fill="#90C922"/>
<path d="M389.853 31.9036C390.865 31.9063 392.797 31.8666 393.732 31.9721C389.27 36.1475 384.981 40.5563 380.557 44.7673C379.235 46.025 376.771 48.7418 375.519 49.7404C374.828 49.7699 374.871 49.8838 374.408 49.5774C374.124 48.9555 374.268 47.8397 374.272 47.102C375.396 46.2788 378.651 42.955 379.836 41.7779L389.853 31.9036Z" fill="white"/>
<path d="M377.247 72.2299L377.191 72.0475C377.216 72.0083 377.321 71.827 377.347 71.8009C380.375 68.7678 383.462 65.7547 386.504 62.7338C387.884 61.3627 389.783 59.1464 391.787 60.7971C392.275 61.1832 392.762 61.989 392.758 62.615C392.754 63.2833 392.395 64.0505 392.131 64.668C391.738 65.5906 391.696 65.7932 391.818 66.7926L391.842 66.9759L391.704 67.2559C391.255 67.3831 391.27 67.4213 390.844 67.2608L390.742 67.0927C390.926 66.1628 391.161 64.8709 390.605 64.0644C389.465 62.4122 386.223 66.3184 385.441 67.0967C383.727 68.796 382.023 70.5063 380.331 72.2272L377.247 72.2299Z" fill="white"/>
<path d="M366.646 65.2759L370.1 65.277C370.24 66.0323 370.3 66.5775 370.372 67.3312C369.475 68.2178 368.495 68.4107 367.459 67.4868C366.633 66.75 366.64 66.3411 366.646 65.2759Z" fill="#E4F3C0"/>
<path d="M359.447 72.2357C359.522 71.1412 360.083 69.4986 361.59 69.6684C362.93 69.8198 362.842 71.1986 362.796 72.2485C361.767 72.2001 360.493 72.2352 359.447 72.2357Z" fill="white"/>
<path d="M370.097 65.2777L372.176 65.2739C371.656 66.028 371.049 66.7186 370.369 67.3319C370.298 66.5782 370.237 66.033 370.097 65.2777Z" fill="#90C922"/>
<path d="M387.326 44.1454C389.203 42.2648 391.218 42.945 391.553 45.4734C391.66 46.2756 390.638 47.3013 390.086 47.7388C388.611 49.2366 385.79 50.808 385.291 47.1541C385.145 46.0801 386.533 44.8547 387.326 44.1454Z" fill="#90C922"/>
<path d="M387.326 44.144C387.618 45.2585 387.205 45.3448 387.887 46.613C388.68 47.0697 389.393 47.3516 390.086 47.7375C388.611 49.2353 385.79 50.8067 385.291 47.1528C385.145 46.0788 386.533 44.8533 387.326 44.144Z" fill="white"/>
<path d="M391.679 51.2388C392.389 51.0604 393.113 51.4723 393.325 52.1746C393.536 52.8768 393.16 53.6215 392.469 53.866C391.993 54.035 391.463 53.9275 391.089 53.5868C390.716 53.246 390.559 52.727 390.683 52.2361C390.806 51.7452 391.189 51.3619 391.679 51.2388Z" fill="white"/>
<path d="M385.022 56.5274C385.327 56.4008 385.677 56.4525 385.933 56.6617C386.189 56.871 386.31 57.2043 386.247 57.5293C386.184 57.8543 385.949 58.1185 385.633 58.2172C385.175 58.3608 384.685 58.1174 384.521 57.6651C384.358 57.2126 384.578 56.7114 385.022 56.5274Z" fill="white"/>
<path d="M330.987 72.2533C332.111 70.8368 340.193 62.6801 341.298 62.2007C341.348 62.9893 341.277 64.2447 341.975 64.7727C343.152 65.6641 354.052 65.2566 356.202 65.2662L360.226 65.2754C357.999 67.5785 355.195 69.842 353.203 72.2373C352.354 72.3219 350.308 72.2699 349.403 72.2673L342.191 72.2402C341.223 72.3287 339.106 72.268 338.074 72.2602C335.712 72.2319 333.349 72.2295 330.987 72.2533Z" fill="#B5FE28"/>
<path d="M356.2 65.2695L360.224 65.2787C357.997 67.5818 355.193 69.8453 353.202 72.2406C352.407 72.1435 350.093 72.201 349.188 72.2004C351.424 69.8365 354.128 67.6999 356.2 65.2695Z" fill="white"/>
<path d="M338.446 69.7082C339.465 68.7267 340.985 67.5776 342.395 69.0536C343.296 69.996 342.793 71.2426 342.19 72.2421C340.298 72.1306 337.998 72.1901 336.073 72.1951C336.856 71.3734 337.652 70.5141 338.446 69.7082Z" fill="white"/>
<path d="M354.829 45.0921L368.437 45.0955L368.448 46.6272L368.433 51.9657C368.439 53.3335 368.49 55.0325 368.445 56.3757L368.444 57.8229C368.445 58.6649 368.477 59.7385 368.44 60.5609L368.4 64.4799L366.145 64.4752L363.85 64.4716L361.268 64.4666L351.995 64.451L351.991 62.3501C351.96 59.9826 351.943 57.6149 351.94 55.2472C351.945 54.8262 351.912 54.5687 352.085 54.1838C352.985 54.1088 353.18 55.5724 354.952 54.6869C354.948 53.4884 355.177 51.6728 355.325 50.4771C353.751 48.9893 354.414 47.2395 353.13 45.0854L354.829 45.0921Z" fill="white"/>
<path d="M351.99 62.3497C353.516 61.8033 354.946 61.7743 356.537 61.4606C360.378 60.7033 361.005 57.6455 363.066 54.9954C364.552 53.0845 366.029 52.2498 368.432 51.9653C368.438 53.3332 368.489 55.0321 368.444 56.3754L368.443 57.8226C368.444 58.6646 368.476 59.7382 368.439 60.5605L368.399 64.4796L366.144 64.4749L363.849 64.4713L361.267 64.4663L351.994 64.4507L351.99 62.3497Z" fill="#B5FE28"/>
<path d="M363.849 64.4729C363.769 61.3953 366.317 59.682 368.442 57.8242C368.443 58.6662 368.475 59.7398 368.438 60.5622L368.398 64.4812L366.143 64.4765L363.849 64.4729Z" fill="#B5FE28"/>
<path d="M366.142 64.4734C366.733 63.2948 367.566 61.4699 368.437 60.5591L368.398 64.4781L366.142 64.4734Z" fill="#F2F2F2"/>
<path d="M361.267 64.4664C363.077 62.1679 364.208 59.6651 366.048 57.4879C366.73 56.6813 367.414 56.3964 368.444 56.3755L368.443 57.8227C366.317 59.6805 363.77 61.3938 363.849 64.4714L361.267 64.4664Z" fill="#F2F2F2"/>
<path d="M354.827 45.0921L368.435 45.0955L368.447 46.6272C365.424 47.5433 362.842 49.3992 360.242 51.0366C359.411 51.1672 359.215 51.1626 358.372 51.1033C357.231 51.0232 356.387 50.8737 355.324 50.4771C353.75 48.9893 354.412 47.2395 353.129 45.0854L354.827 45.0921Z" fill="#B5FE28"/>
<path d="M353.129 45.0854L354.827 45.0921C355.357 47.1079 355.395 49.4831 357.466 50.3041C357.734 50.4099 358.912 50.887 358.992 51.032L358.372 51.1033C357.231 51.0232 356.387 50.8737 355.324 50.4771C353.75 48.9893 354.412 47.2395 353.129 45.0854Z" fill="#F2F2F2"/>
<path d="M358.807 46.753C359.696 46.7449 360.332 46.5844 361.195 46.8163C361.532 47.1403 361.406 46.9343 361.436 47.538C360.531 47.5517 359.548 47.8349 358.868 47.3048L358.807 46.753Z" fill="#1C1C1C"/>
<path d="M355.324 50.4785C356.387 50.8751 357.231 51.0245 358.372 51.1047C359.215 51.164 359.411 51.1686 360.242 51.038C360.649 53.4194 362.209 59.3408 358.506 59.7472C357.793 59.8206 357.083 59.5821 356.558 59.0929C355.488 58.1047 355.131 56.0936 354.95 54.6883C354.946 53.4897 355.175 51.6741 355.324 50.4785Z" fill="#0C0C0C"/>
<path d="M370.724 54.0047C372.15 53.9707 377.494 53.6597 378.286 54.5147C378.389 54.7439 378.578 55.2237 378.558 55.4553C378.421 56.998 378.886 63.2668 378.486 64.3254C378.095 64.5781 377.796 64.5303 377.326 64.5401L369.246 64.4961C369.172 63.0751 369.015 55.1206 369.475 54.4286C369.952 54.1046 370.138 54.1139 370.724 54.0047Z" fill="#F2F2F2"/>
<path d="M363.175 40.633C366.426 40.5168 370.172 40.609 373.446 40.6352C373.507 43.6625 373.5 46.764 373.521 49.7972L371.589 49.8454C371.534 50.3265 371.544 51.0028 371.536 51.4999C371.604 54.0573 371.222 52.8254 369.214 53.6489C369.18 51.8686 369.446 45.6755 368.8 44.5538C368.057 44.1465 364.29 44.293 363.171 44.2959C363.112 43.1433 363.161 41.8003 363.175 40.633Z" fill="#D9DBD5"/>
<path d="M345.429 58.7123C344.404 58.1103 344.173 58.4176 343.015 58.1346C343.67 57.5641 346.205 57.7813 347.163 57.8185C348.498 57.7731 349.837 57.7957 351.173 57.8064L351.179 60.8175C351.249 61.8546 351.206 63.403 351.21 64.4781C348.844 64.5588 345.447 64.86 343.124 64.3821C341.575 64.0633 341.746 61.7035 342.364 60.5448L342.351 59.872C342.442 58.2673 344.333 59.2068 345.429 58.7123Z" fill="#0C0C0C"/>
<path d="M345.428 58.7123C344.403 58.1103 344.172 58.4176 343.014 58.1346C343.668 57.5641 346.204 57.7813 347.161 57.8185C348.497 57.7731 349.835 57.7957 351.171 57.8064L351.178 60.8175C350.284 60.8728 347.666 60.7953 346.868 60.5878C346.702 60.5022 342.807 59.9376 342.349 59.872C342.441 58.2673 344.331 59.2068 345.428 58.7123Z" fill="#C8FE5E"/>
<path d="M345.427 58.7123C344.403 58.1103 344.172 58.4176 343.014 58.1346C343.668 57.5641 346.203 57.7813 347.161 57.8185C346.273 58.1295 345.961 57.8565 345.262 58.0348L345.187 58.2199L345.469 58.4042C345.737 58.3122 345.623 58.3921 345.802 58.1541L345.952 58.2687C345.683 58.5754 345.774 58.4863 345.427 58.7123Z" fill="#F2F2F2"/>
<path d="M342.349 59.8701C342.807 59.9358 346.702 60.5003 346.868 60.5859C345.359 62.912 343.511 63.7892 342.363 60.5429L342.349 59.8701Z" fill="#F2F2F2"/>
<path d="M351.938 55.2456C351.888 54.0477 351.822 46.1192 351.983 45.2668C352.344 44.9935 352.659 45.0698 353.129 45.0839C354.412 47.2379 353.75 48.9878 355.324 50.4756C355.175 51.6712 354.946 53.4868 354.95 54.6854C353.178 55.5709 352.983 54.1072 352.083 54.1823C351.91 54.5672 351.943 54.8247 351.938 55.2456Z" fill="#B5FE28"/>
<path d="M372.293 50.5453C373.4 50.5029 374.514 50.5254 375.622 50.5365L375.605 53.2527L372.272 53.2397C372.264 52.3528 372.285 51.4351 372.293 50.5453Z" fill="#B5FE28"/>
<path d="M378.824 17.6007C383.521 17.2848 389.033 17.6452 393.784 17.6717C395.762 17.6826 395.356 20.7298 395.373 22.0231C395.394 23.7247 395.76 25.0211 394.066 26.0044C391.741 26.1909 388.66 26.011 386.239 26.0811C384.085 26.0544 381.862 26.1632 379.718 26.0319C377.968 25.9248 377.42 25.1063 377.454 23.4372C377.483 22.0151 377.378 20.6146 377.523 19.2248C377.613 18.3709 378.256 17.9559 378.824 17.6007Z" fill="#1C1C1C"/>
<path d="M379.382 18.3246C381.875 18.277 384.398 18.3173 386.932 18.2958C388.007 18.2867 393.756 17.931 394.338 18.9444C394.686 19.5523 394.686 23.8745 394.435 24.7161C394.11 25.1137 394.013 25.119 393.543 25.2999C390.417 25.2623 387.291 25.2554 384.165 25.2792C383.22 25.2806 378.933 25.5442 378.608 24.764C378.038 23.3971 378.182 20.7164 378.365 19.1982C378.419 18.7528 379.024 18.4783 379.382 18.3246Z" fill="#B5FE28"/>
<path d="M390.491 20.009C391.25 20.0087 391.775 19.9645 392.501 20.1927C392.323 20.5198 391.781 20.5011 391.263 20.8211C391.225 21.3529 391.134 21.1636 391.375 21.4957C391.685 21.5241 391.995 21.5456 392.306 21.5603L392.347 21.7198C391.651 22.3006 391.57 21.8159 390.975 22.4776C391.066 22.609 391.187 22.742 391.292 22.866C391.732 22.9283 392.367 22.9947 392.58 23.4233C391.902 23.6245 391.234 23.5949 390.521 23.6131L390.491 20.009Z" fill="#1C1C1C"/>
<path d="M387.562 19.8418C387.766 19.9104 387.852 19.9666 388.044 20.0662C388.429 20.858 388.594 21.8285 388.787 22.6972C389.074 21.7499 389.098 20.6253 389.721 19.8983L389.966 20.0187C390.075 20.5627 389.971 20.7273 389.8 21.281C389.607 22.0289 389.446 23.3031 388.633 23.5117C387.989 23.1421 387.459 20.5583 387.562 19.8418Z" fill="#1C1C1C"/>
<path d="M380.856 20.7135C381.458 20.506 382.115 20.8226 382.329 21.4235C382.542 22.0244 382.233 22.6858 381.636 22.9065C381.244 23.0515 380.804 22.9741 380.484 22.7037C380.165 22.4335 380.015 22.012 380.092 21.6002C380.169 21.1884 380.461 20.8498 380.856 20.7135Z" fill="#1C1C1C"/>
<path d="M384.027 19.8818C385.284 20.2717 384.117 22.0627 384.76 22.9627C385.496 22.9746 385.678 22.8443 385.968 23.5223C385.316 23.5693 384.567 23.572 383.906 23.5906C383.894 22.6491 383.799 20.6961 384.027 19.8818Z" fill="#1C1C1C"/>
<path d="M386.392 19.8955C386.609 19.9713 386.807 19.9838 386.876 20.1478C387.198 20.9103 387.011 23.0027 386.861 23.7666C386.705 23.7064 386.467 23.6557 386.425 23.5372C386.154 22.7656 386.25 20.6149 386.392 19.8955Z" fill="#1C1C1C"/>
<path d="M334.76 15.8697C338.068 15.5881 340.981 18.0397 341.274 21.353C341.567 24.6661 339.131 27.5933 335.825 27.8997C332.502 28.2077 329.561 25.7512 329.266 22.4203C328.971 19.0896 331.434 16.1529 334.76 15.8697Z" fill="#1C1C1C"/>
<path d="M334.524 16.6272C335.839 16.5581 336.782 16.6463 337.965 17.3662C339.204 18.1245 340.072 19.3647 340.361 20.7899C340.74 22.656 340.173 23.9026 339.207 25.3927C338.414 23.8176 338.11 23.4895 336.653 22.6093C338.33 21.1505 337.87 19.4613 336.093 18.3691C335.798 18.3149 335.459 18.2518 335.16 18.2628C334.473 18.2863 333.827 18.5968 333.379 19.1189C332.388 20.2821 332.741 21.7196 333.906 22.5973C332.333 23.5193 332.141 23.8552 331.349 25.4545C328.82 21.7699 330.137 17.741 334.524 16.6272Z" fill="#B5FE28"/>
<path d="M334.525 23.2685C336.907 23.0925 337.724 23.9 338.534 26.0138C337.607 26.7175 337.106 26.8541 336.024 27.1443C334.128 27.1723 333.53 27.0349 331.963 25.9789C332.693 24.3758 332.839 23.9994 334.525 23.2685Z" fill="white"/>
<path d="M334.939 19.0424C335.531 18.9208 336.143 19.1295 336.538 19.5879C336.933 20.0463 337.05 20.683 336.844 21.2524C336.637 21.8217 336.14 22.2349 335.543 22.3326C334.646 22.4794 333.796 21.8802 333.632 20.9842C333.467 20.0883 334.048 19.2252 334.939 19.0424Z" fill="white"/>
<path d="M333.405 77.2336C336.139 76.7784 338.721 78.637 339.162 81.3779C339.603 84.1188 337.736 86.6967 334.998 87.1259C332.279 87.5522 329.727 85.6965 329.288 82.9741C328.85 80.2515 330.69 77.6858 333.405 77.2336Z" fill="#1C1C1C"/>
<path d="M334.031 77.9472C336.335 77.8273 338.308 79.5842 338.46 81.8911C338.611 84.1979 336.885 86.1987 334.584 86.3823C333.068 86.5034 331.604 85.7971 330.753 84.5341C329.901 83.271 329.795 81.6466 330.474 80.2826C331.152 78.9186 332.511 78.0263 334.031 77.9472Z" fill="#D9DBD5"/>
<path d="M333.619 90.6485C336.349 90.3131 338.835 92.2541 339.178 94.9882C339.52 97.7223 337.59 100.219 334.862 100.57C332.123 100.922 329.619 98.9788 329.275 96.2334C328.931 93.4882 330.878 90.9851 333.619 90.6485Z" fill="#1C1C1C"/>
<path d="M333.399 91.4871C335.69 91.018 337.923 92.5107 338.371 94.8102C338.818 97.1097 337.307 99.3332 335.008 99.7602C332.739 100.182 330.554 98.692 330.113 96.4222C329.671 94.1524 331.138 91.9502 333.399 91.4871Z" fill="#D9DBD5"/>
<path d="M388.215 78.1621C389.365 78.2145 389.439 78.5421 390.434 78.7961C391.023 78.7539 391.682 78.1472 392.297 78.2249C393.774 78.4112 394.967 79.123 394.833 80.757C394.668 82.7609 393.319 83.8853 391.928 85.085C391.37 85.582 390.988 85.8487 390.385 86.2681C388.838 85.1728 386.722 83.5318 386.09 81.6686C385.473 79.8481 386.487 78.6787 388.215 78.1621Z" fill="#1C1C1C"/>
<path d="M390.413 79.9501C391.69 78.9111 393.74 78.0109 394.064 80.6402C394.219 81.9011 393.116 82.9654 392.272 83.8017L390.42 85.4615C388.556 83.9366 384.766 81.2027 387.923 78.9749C389.225 78.8825 389.442 79.0526 390.413 79.9501Z" fill="#B5FE28"/>
<path d="M342.786 93.1294C349.78 93.0224 364.297 93.1134 372.046 93.1909C372.139 93.2656 372.232 93.3404 372.325 93.4151C372.342 93.8229 372.387 93.6305 372.104 93.9805L371.668 94.0249L352.315 94.0298C350.778 94.0303 342.612 94.2907 341.874 93.6836L341.865 93.4012C342.229 93.0502 342.127 93.1636 342.786 93.1294Z" fill="#D9DBD5"/>
<path d="M348.751 144.618C350.691 144.54 375.441 144.522 375.927 144.77C376.13 145.222 376.053 144.991 375.987 145.596C373.647 145.654 349.212 145.696 348.776 145.477C348.594 145.039 348.654 145.166 348.751 144.618Z" fill="#1C1C1C"/>
<path d="M341.965 79.6837C344.444 79.6212 362.969 79.5633 363.488 79.7833C363.725 80.2254 363.635 79.9885 363.587 80.6103L351.291 80.5445C350.278 80.5475 342.476 80.7206 341.973 80.4736C341.791 79.9914 341.821 80.2445 341.965 79.6837Z" fill="#D9DBD5"/>
<path d="M343.9 19.9479C348.754 19.7998 354.002 20.034 358.901 19.944C360.116 19.9217 365.625 19.8734 366.401 19.983C366.78 20.3257 366.635 20.108 366.709 20.7427L351.49 20.7325C349.731 20.7318 345.854 20.8489 344.233 20.7203C343.878 20.4237 343.99 20.539 343.9 19.9479Z" fill="#1C1C1C"/>
<path d="M341.943 97.0686C343.768 97.0711 358.371 96.9119 359.003 97.2135C359.167 97.6252 359.102 97.5458 359.022 98.0558C357.432 98.0663 342.522 98.1836 341.975 97.8936C341.784 97.4344 341.852 97.6735 341.943 97.0686Z" fill="#D9DBD5"/>
<path d="M341.947 83.6669C343.688 83.6785 355.412 83.5294 356.087 83.793C356.292 84.2511 356.221 84.0073 356.146 84.6127C354.689 84.6152 342.625 84.7714 341.994 84.4804C341.793 84.033 341.866 84.2685 341.947 83.6669Z" fill="#D9DBD5"/>
<path d="M343.984 23.2806C348.454 23.2875 355.26 23.2321 359.892 23.3449C359.982 23.4056 360.073 23.4664 360.163 23.5271L360.246 24.0731C358.108 24.1999 354.685 24.0869 352.458 24.093C350.152 24.0994 346.359 24.2185 344.198 24.0463C343.916 23.781 344.012 23.8045 343.984 23.2806Z" fill="#0C0C0C"/>
<path d="M396.419 87.2075C397.653 88.0917 395.915 89.2138 395.151 89.9202C393.671 89.1549 395.663 87.8812 396.419 87.2075Z" fill="#B5FE28"/>
<path d="M385.224 99.2358L385.624 99.3287C386.333 100.033 384.747 101.237 384.191 101.804C383.81 101.642 383.777 101.675 383.56 101.338C383.611 100.489 384.553 99.8491 385.224 99.2358Z" fill="#B5FE28"/>
<path d="M383.164 87.9937C383.882 88.1456 385.296 89.3317 385.523 90.0654C385.58 90.25 385.415 90.4174 385.313 90.5903C384.476 90.4228 383.549 89.5009 383.109 88.79C382.897 88.4464 383.035 88.3709 383.164 87.9937Z" fill="#B5FE28"/>
<path d="M380.966 94.0786C381.742 94.0707 383.129 93.9189 383.551 94.6234C383.43 94.9914 383.5 94.8583 383.212 95.1439C382.315 95.1463 381.157 95.3219 380.503 94.7638L380.485 94.4886C380.666 94.25 380.71 94.2608 380.966 94.0786Z" fill="#B5FE28"/>
<path d="M332.341 106.674L372.111 106.678C377.869 106.679 387.664 106.478 393.64 106.92C393.876 106.937 394.436 107.565 394.477 107.867C394.903 112.208 394.894 117.492 394.635 121.85C394.374 126.251 393.782 126.498 394.774 130.901C395.222 132.886 394.685 138.849 394.453 140.922C394.407 141.342 393.632 141.707 393.242 141.862C373.264 142.079 353.212 141.707 333.227 141.866C332.787 141.848 331.063 141.793 330.757 141.544C329.487 140.514 329.94 135.818 329.944 134.573L329.939 125.185L329.936 114.614C329.935 112.664 329.908 110.718 329.986 108.768C330.051 107.148 330.853 106.77 332.341 106.674Z" fill="white"/>
<path d="M362.366 128.066C363.832 127.965 366.265 128.035 367.792 128.034L378.312 128.032L385.864 128.017C386.884 128.014 391.328 127.793 391.86 128.667C392.782 130.185 392.245 134.615 392.268 136.513C392.275 137.045 391.416 137.572 391.016 137.796C389.693 137.891 387.228 137.818 385.824 137.82L375.417 137.827L367.54 137.828C366.366 137.828 362.089 138.074 361.494 137.144C360.627 135.788 361.106 131.139 361.099 129.383C361.097 128.837 361.957 128.303 362.366 128.066Z" fill="#1C1C1C"/>
<path d="M362.667 128.817L388.957 128.788C391.822 128.813 391.874 129.036 391.676 132.149C391.572 133.783 392.378 136.135 390.874 137.182C387.763 137.266 384.311 137.193 381.178 137.194L364.711 137.192C361.194 137.175 361.736 136.43 361.784 133.111C361.806 131.546 361.317 129.801 362.667 128.817Z" fill="#B5FE28"/>
<path d="M376.293 131.783C376.926 131.919 376.686 131.764 377.084 132.185C377.34 132.918 377.185 133.503 376.908 134.218C376.534 134.088 376.619 134.11 376.278 133.879C375.868 133.12 376.1 132.622 376.293 131.783Z" fill="#B5FE28"/>
<path d="M370.247 131.777C370.855 131.956 370.694 131.819 371.058 132.25C371.252 132.876 371.106 133.368 371.004 134.028C370.679 134.076 370.691 134.097 370.39 133.979C370.21 133.587 370.196 133.57 370.211 133.139L370.247 131.777Z" fill="#B5FE28"/>
<path d="M345.905 110.676L346.113 110.764C346.63 111.461 347.011 117.442 347.077 118.72C348.384 116.826 349.53 115.435 351.929 114.601C352.226 114.498 352.292 114.611 352.496 114.761C352.544 115.201 351.164 117.824 350.913 118.576C350.584 119.563 350.244 120.611 349.939 121.624C350.732 121.213 354.293 119.57 354.666 120.937C354.46 121.443 353.282 122.008 352.785 122.593C351.247 124.405 350.956 125.452 349.148 127.107C349.8 127.08 350.282 126.985 350.771 127.365C351.295 129.067 350.252 134.972 348.83 136.304C348.103 136.985 343.959 136.727 342.76 136.715C340.356 136.601 340.006 134.479 339.502 132.455C339.257 131.467 338.636 127.904 339.284 127.195C339.849 126.974 340.463 127.069 341.087 127.097C338.985 125.352 338.733 123.391 337.175 121.283C336.742 120.695 335.582 119.921 335.542 119.32C336.625 118.458 339.492 120.168 340.457 120.963C340.185 119.256 339.647 117.675 338.983 116.089C338.737 115.502 338.145 114.203 338.026 113.64C339.478 112.958 342.404 117.057 343.065 118.147C343.469 115.456 344.178 112.839 345.905 110.676Z" fill="#1C1C1C"/>
<path d="M339.687 127.808C342.774 127.685 347.148 127.754 350.267 127.834C350.074 130.408 349.926 132.251 349.067 134.705C348.741 135.403 348.567 135.753 347.754 135.938C346.744 136.167 342.069 136.271 341.461 135.584C340.093 134.036 339.769 129.737 339.687 127.808Z" fill="#D9DBD5"/>
<path d="M351.308 115.587C351.336 116.111 351.086 116.368 350.889 116.834C349.191 120.849 349.106 124.52 345.21 127.239C345.128 126.425 345.404 124.91 345.626 124.104C346.663 120.325 347.911 117.633 351.308 115.587Z" fill="#B5FE28"/>
<path d="M339.083 114.676C339.717 114.946 340.57 115.736 341.027 116.276C343.688 119.417 344.651 123.115 344.426 127.128C343.994 126.739 341.477 121.969 341.271 121.286C340.491 118.69 340.362 117.273 339.083 114.676Z" fill="#B5FE28"/>
<path d="M345.707 112.22C346.148 113.286 346.628 118.643 346.284 119.893C346.021 120.847 345.382 122.547 345.05 123.607L344.913 123.455C344.581 121.535 344.329 120.793 343.575 118.982C343.973 116.353 344.336 114.542 345.707 112.22Z" fill="#B5FE28"/>
<path d="M336.657 119.697C337.619 120.058 338.149 120.29 339.064 120.758C340.926 122.079 342.834 124.795 343.311 126.934L343.264 127.072C340.295 127.187 339.225 123.034 337.838 121.019C337.45 120.632 337.024 120.116 336.657 119.697Z" fill="#B5FE28"/>
<path d="M336.657 119.697C337.619 120.058 338.149 120.29 339.064 120.758C338.552 120.795 338.291 120.77 337.838 121.019C337.45 120.632 337.024 120.116 336.657 119.697Z" fill="#90C922"/>
<path d="M352.478 121.258C352.908 121.232 352.754 121.158 353.033 121.346C351.169 123.551 350.082 125.843 347.659 127.168C347.331 127.126 347.003 127.079 346.677 127.027L346.692 126.891C349.795 123.83 348.237 122.794 352.478 121.258Z" fill="#B5FE28"/>
<path d="M361.255 112.147C363.605 112.16 382.47 111.975 383.019 112.331L383.109 112.952L368.824 112.945C366.558 112.95 363.748 113.046 361.523 112.934C361.202 112.655 361.307 112.727 361.255 112.147Z" fill="#1C1C1C"/>
<path d="M361.24 115.993C362.999 116.002 372.611 115.699 373.343 116.234L373.367 116.7C371.729 116.756 362.017 117.066 361.301 116.557L361.24 115.993Z" fill="#1C1C1C"/>
<path d="M373.267 120.619C375.062 121.192 374.945 123.206 373.89 124.411C373.625 124.365 373.166 124.311 373.001 124.124C372.11 123.114 372.425 121.467 373.267 120.619Z" fill="#1C1C1C"/>
<path d="M373.429 121.196C374.212 121.722 373.954 123.238 373.62 123.967C372.854 123.374 373.097 121.973 373.429 121.196Z" fill="#F2F2F2"/>
<path d="M370.78 120.636C372.606 121.119 372.491 123.337 371.393 124.42C369.517 124.081 369.737 121.738 370.78 120.636Z" fill="#1C1C1C"/>
<path d="M371.038 121.189C371.844 121.742 371.572 123.249 371.13 123.976C370.47 123.222 370.576 122.022 371.038 121.189Z" fill="#F2F2F2"/>
<path d="M390.486 110.229L390.602 110.098C390.994 109.657 391.332 109.17 391.919 109.134L392.02 109.364C391.834 109.958 391.406 110.273 390.949 110.723C391.616 111.331 392.122 111.619 392.165 112.483C391.505 112.396 390.985 111.715 390.502 111.223C390.055 111.702 389.717 112.201 389.073 112.247L388.976 112.035C389.162 111.473 389.615 111.153 390.065 110.734C389.412 110.121 388.607 109.754 388.976 108.896C389.537 109.151 390.039 109.766 390.486 110.229Z" fill="#1C1C1C"/>
<path d="M366.91 120.619C368.979 121.206 368.687 124.214 366.522 124.3C366.792 123.799 367.143 123.887 367.519 123.255C365.993 122.553 365.785 121.903 366.91 120.619Z" fill="#1C1C1C"/>
<path d="M362.454 120.117C362.663 120.437 363.174 121.342 363.287 121.688C362.947 121.906 363.093 121.53 362.335 121.396L362.161 121.627C362.217 122.169 362.124 121.931 362.444 122.368C364.152 123.004 362.968 123.949 362.378 124.987C362.166 124.267 362.227 124.452 361.589 123.927C361.416 123.38 361.372 123.606 361.574 123.203C362.209 123.212 361.723 123.529 362.422 123.797L362.692 123.572C362.758 122.265 361.805 122.828 361.547 121.847C361.72 121.014 361.968 120.851 362.454 120.117Z" fill="#1C1C1C"/>
<path d="M364.589 120.641C365.215 120.812 365.434 120.838 365.723 121.469C365.815 122.674 364.95 122.868 364.784 123.676C365.178 123.715 365.399 123.758 365.782 123.834L365.895 124.026L365.775 124.213C365.352 124.369 364.342 124.303 363.842 124.296C363.778 123.477 364.993 122.662 365.155 121.748C364.993 121.314 365.138 121.444 364.788 121.268C364.566 121.453 364.455 121.55 364.264 121.762L364.108 121.936L363.842 121.894C363.818 121.247 364.112 121.001 364.589 120.641Z" fill="#1C1C1C"/>
<path d="M332.863 0.903332C333.313 0.845963 334.212 0.843058 334.682 0.841399L375.3 0.848864L386.171 0.84071C391.159 0.830618 395.084 0.231496 398.93 4.11417C400.546 5.77634 401.589 7.91253 401.908 10.2109C402.267 12.747 402.128 18.0376 402.126 20.8431L402.122 38.9995L402.123 102.198C401.297 101.092 400.67 100.284 399.751 99.2395C399.816 96.3009 399.676 93.2069 399.688 90.2352L399.686 57.9079L399.675 26.5782C399.671 21.9276 399.782 17.2541 399.686 12.606C399.629 9.87454 398.971 7.54108 396.944 5.61461C394.159 2.96819 390.651 3.43252 387.131 3.41041C385.701 3.40142 384.241 3.24826 382.816 3.31267C380.002 3.43971 381.29 6.49048 379.477 8.31909C379.002 8.79739 378.309 9.215 377.638 9.32864C375.281 9.72828 370.339 9.43383 367.78 9.42886C361.618 9.41697 355.446 9.52037 349.286 9.43273C342.786 9.34025 345.364 5.40877 343.519 3.71868C342.943 3.19033 339.352 3.3576 338.446 3.35442C334.558 3.34073 330.515 2.89285 327.542 5.90767C326.375 7.09181 325.509 8.8155 325.251 10.4565C324.954 12.3454 325.132 14.444 325.139 16.3561L325.149 26.2015L325.141 64.5134L325.204 117.942L325.199 133.423C325.192 136.115 325.107 138.936 325.235 141.613C325.354 142.876 325.83 144.397 326.555 145.439C328.111 147.677 330.824 148.876 333.5 148.913C336.006 148.947 338.523 148.935 341.022 148.934L357.757 148.939L380.595 148.927C384.503 148.927 388.551 148.964 392.459 148.866C393.828 148.618 395.317 148.131 396.43 147.283C398.599 145.63 399.305 143.552 399.675 140.957C400.359 141.772 400.995 142.445 401.732 143.213C401.343 144.793 400.99 145.868 400.052 147.233C398.519 149.499 396.131 151.04 393.439 151.504C390.9 151.965 384.928 151.784 382.07 151.784L361.391 151.781L343.383 151.77C338.761 151.777 331.435 152.503 327.648 149.805C325.266 148.111 323.666 145.527 323.209 142.638C322.975 141.072 323.024 137.888 323.022 136.253L323.012 126.224L323.015 90.6263L322.997 38.7655L323.033 22.7686C323.014 19.1764 322.857 15.6046 322.999 12.01C323.232 6.11199 326.985 1.70967 332.863 0.903332Z" fill="#0C0C0C"/>
<path d="M357.679 5.2788C358.919 5.27188 366.028 5.15811 366.799 5.34543C367.049 5.76622 366.954 5.69724 366.89 6.30825C365.757 6.43875 358.611 6.46377 357.88 6.23692C357.589 5.83023 357.688 5.89299 357.679 5.2788Z" fill="#1C1C1C"/>
<path d="M370.264 4.52653C370.702 4.38621 371.183 4.49307 371.521 4.80632C371.859 5.11956 372.003 5.59068 371.897 6.03981C371.792 6.48894 371.453 6.84657 371.011 6.9761C370.34 7.17267 369.635 6.79169 369.43 6.12123C369.226 5.45064 369.597 4.73996 370.264 4.52653Z" fill="#1C1C1C"/>
<path d="M327.384 1.79492L327.506 1.81206L327.557 1.94823C321.25 5.8251 322.215 13.0952 322.215 19.4468L322.222 33.8923L322.22 78.0094L322.226 123.146C322.226 126.617 321.855 141.364 322.619 143.88C323.533 146.887 325.436 149.464 328.174 151.001L328.101 151.132C327.271 150.994 326.163 150.295 325.428 149.851C319.725 146.009 320.566 139.981 320.571 133.893L320.577 120.915L320.572 72.5373L320.608 63.7205C320.613 62.535 320.655 61.1481 320.552 59.9602C320.523 59.6272 320.058 59.437 319.743 59.2386L319.756 49.239L320.684 48.5709C320.585 47.3876 320.742 46.434 320.587 45.2964C320.497 44.6379 320.241 44.5741 319.749 44.2173L319.743 34.1955L320.591 33.5622C320.578 32.5972 320.741 27.9726 320.461 27.4421C320.24 27.3263 319.83 27.1567 319.792 26.9145C319.623 25.8607 319.626 23.3178 319.82 22.3575C319.934 21.7971 320.581 21.3279 320.616 20.3944C320.751 16.7659 320.092 12.1203 321.199 8.68551C322.355 5.09991 324.169 3.45391 327.384 1.79492Z" fill="#30302F"/>
<path d="M390.405 93.441C390.946 92.981 391.417 92.5007 392.156 92.3748C392.958 92.2378 393.957 92.955 394.064 93.7494C393.281 94.1676 392.664 94.0552 391.886 94.5425C391.401 95.1303 391.352 95.9818 391.334 96.7199L391.331 96.908C391.454 97.627 391.549 97.8692 391.045 98.46C389.376 99.1122 384.096 93.985 388.305 92.394C389.467 92.5502 389.563 92.6155 390.405 93.441Z" fill="#B5FE28"/>
<path d="M399.698 112.63C402.155 118.44 402.222 116.949 402.105 123.3C402.027 123.718 402.003 124.15 401.748 124.467C401.231 121.551 401.435 120.509 399.78 117.84C399.697 116.116 399.708 114.358 399.698 112.63Z" fill="#0C0C0C"/>
<path d="M402.866 120.826C403.981 121.869 404.379 128.382 404.347 129.992C403.989 129.575 403.239 128.379 402.899 127.862C402.922 125.516 402.911 123.17 402.866 120.826Z" fill="#F2F2F2"/>
<path d="M402.104 123.301C402.125 124.382 402.128 125.465 402.112 126.546C401.891 125.958 401.739 125.096 401.748 124.468C402.003 124.151 402.027 123.719 402.104 123.301Z" fill="#1C1C1C"/>
<path d="M385.561 131.569L386.002 131.507L386.277 131.739L386.714 131.586L386.98 131.726L387.055 132.016L387.802 131.524L388.282 131.62L388.418 131.861C388.259 132.622 388.02 134.274 387.484 134.712C387.091 134.378 386.973 133.441 386.634 132.761C386.249 133.136 386.453 134.195 385.927 134.657L385.622 134.555C385.283 133.902 384.777 132.296 385.069 131.618L385.561 131.569Z" fill="#0C0C0C"/>
<path d="M374.551 133.91C372.029 137.267 370.52 129.603 374.458 131.994C374.659 132.828 374.626 133.045 374.551 133.91Z" fill="#0C0C0C"/>
<path d="M372.944 131.959L373.498 132.053C373.747 132.252 373.896 132.342 373.998 132.657C374.179 133.219 373.882 133.797 373.629 134.282C373.478 134.256 373.292 134.232 373.156 134.161C372.937 134.047 372.79 133.853 372.708 133.628C372.497 133.05 372.697 132.488 372.944 131.959Z" fill="#B5FE28"/>
<path d="M382.166 131.965C385.243 129.9 385.094 135.054 382.911 134.73C382.227 134.222 382.121 133.889 381.902 133.091L382.166 131.965Z" fill="#0C0C0C"/>
<path d="M382.861 131.94C383.015 131.954 383.192 131.962 383.339 132.014C383.637 132.118 383.81 132.301 383.937 132.584C384.178 133.12 383.906 133.758 383.709 134.265C383.541 134.254 383.334 134.25 383.177 134.188C382.949 134.1 382.778 133.915 382.68 133.699C382.424 133.124 382.652 132.493 382.861 131.94Z" fill="#B5FE28"/>
<path d="M375.068 131.633C375.967 131.542 377.084 131.458 377.642 132.361C377.474 133.129 376.487 133.363 375.792 133.625C375.681 134.013 375.682 134.05 375.681 134.457C375.329 134.644 375.478 134.6 375.057 134.569C374.887 134.622 374.95 134.594 374.722 134.523L374.551 133.911C374.626 133.045 374.659 132.828 374.458 131.995C374.721 131.73 374.708 131.745 375.068 131.633Z" fill="#0C0C0C"/>
<path d="M375.887 132.141C376.093 131.943 376.42 131.949 376.619 132.154C376.817 132.359 376.814 132.686 376.61 132.887C376.404 133.089 376.074 133.084 375.873 132.878C375.672 132.671 375.678 132.34 375.887 132.141Z" fill="#B5FE28"/>
<path d="M379.696 132.524C379.642 133.17 379.655 134.046 379.396 134.61L379.242 134.441C379.072 133.761 378.696 131.966 379.352 131.513C379.796 131.734 379.917 132.046 380.175 132.48L380.926 131.549L381.505 131.613L381.512 132.338C381.486 133 381.538 133.899 381.186 134.422L380.907 134.454C380.401 134.05 380.009 133.13 379.696 132.524Z" fill="#0C0C0C"/>
<path d="M380.175 132.48L380.927 131.549C380.916 132.085 380.988 132.873 380.752 133.279C380.421 132.98 380.383 132.879 380.175 132.48Z" fill="#B5FE28"/>
<path d="M368.946 131.733L369.336 131.61C369.705 131.933 369.716 132.796 370.338 133.057C371.257 132.64 370.542 132.064 371.135 131.525L371.419 131.714C371.463 132.209 371.591 134.239 371.312 134.598L370.992 134.583C370.792 134.205 370.849 133.956 370.868 133.524C370.579 133.208 370.645 133.304 370.157 133.173C369.182 133.473 369.959 134.273 369.205 134.541L368.905 134.413L368.529 133.612L368.523 133.479C369.012 132.834 368.375 132.504 368.946 131.733Z" fill="#0C0C0C"/>
<path d="M368.946 131.733C368.946 132.485 368.98 133.7 368.905 134.413L368.529 133.611L368.523 133.478C369.012 132.833 368.375 132.504 368.946 131.733Z" fill="#B5FE28"/>
<path d="M368.529 133.612C368.473 134.006 368.452 134.019 368.215 134.351C367.384 134.857 366.906 134.802 366.325 133.978L366.375 133.725C366.875 133.612 366.804 133.836 367.481 134.201L367.777 134.047C367.566 133.308 366.229 132.914 366.31 131.885C366.915 131.456 367.844 131.415 368.372 131.988L368.353 132.391L367.964 132.944C368.185 133.127 368.352 133.244 368.523 133.479L368.529 133.612Z" fill="#0C0C0C"/>
<path d="M367.964 132.944C367.379 132.849 367.188 132.863 366.963 132.342L367.2 132.117C367.865 132.066 367.694 132.093 368.354 132.39L367.964 132.944Z" fill="#B5FE28"/>
<path d="M385.561 131.569L386.002 131.507L386.277 131.739C386.241 132.19 386.197 132.789 385.9 133.087C385.604 132.68 385.609 132.084 385.561 131.569Z" fill="#B5FE28"/>
<path d="M387.055 132.016L387.802 131.524C387.78 132.121 387.819 132.735 387.545 133.254L387.376 133.203C387.173 132.681 387.148 132.56 387.055 132.016Z" fill="#B5FE28"/>
<path d="M374.458 131.994C374.721 131.729 374.708 131.745 375.068 131.632C375.161 132.791 375.128 133.409 375.057 134.569C374.887 134.622 374.95 134.593 374.722 134.523L374.551 133.91C374.626 133.045 374.659 132.828 374.458 131.994Z" fill="#B5FE28"/>
</svg>
