<svg width="32" height="32" viewBox="0 0 32 32" fill="none" xmlns="http://www.w3.org/2000/svg">
<path d="M11.0508 13.3936C11.2418 12.334 11.2696 11.1967 11.3524 10.1215C11.4794 8.32751 11.6294 6.53516 11.8027 4.74494C11.8869 3.84044 11.9282 2.89693 12.132 2.01055C12.2266 1.5993 12.3681 1.15497 12.6588 0.838165C13.0468 0.41525 13.616 0.137535 14.1915 0.119568C15.9566 0.0644212 17.9164 0.38599 19.6919 0.540431C21.14 0.666345 22.7179 0.671843 24.1393 0.949191C24.5739 1.03396 25.1872 1.18372 25.5127 1.5044C26.9152 2.88594 25.8747 6.08563 25.8621 7.84732C25.8587 8.32113 26.406 8.02025 26.7931 8.41053C27.0043 8.62349 27.1347 8.86248 27.1305 9.17055C27.1181 10.0899 26.1608 10.887 25.5531 11.479L25.4866 12.2691C26.0243 12.3588 26.5706 12.503 27.0157 12.8328C27.2889 13.0351 27.4942 13.297 27.5381 13.642C27.5781 13.956 27.4486 14.276 27.2593 14.5218C26.6897 15.2614 25.764 15.3915 24.9047 15.5097C25.1144 15.6306 25.3205 15.7556 25.5108 15.9059C26.1549 16.4143 26.7413 17.3073 26.8238 18.1369C26.8511 18.4116 26.7976 18.6778 26.6161 18.8939C26.2781 19.2961 25.8967 19.2547 25.4245 19.302C25.8318 19.8653 26.3081 20.5604 26.1937 21.2966C26.165 21.4813 26.0723 21.6744 25.9103 21.7773C25.5073 22.0334 25.0273 22.0592 24.5733 21.9858C24.5086 23.3124 24.4952 26.7777 23.4874 27.6893C22.4052 28.6676 19.2971 27.9856 17.9333 27.921L17.5294 27.8638C17.3073 28.0985 17.0767 28.4028 16.8279 28.6023C15.4402 30.143 13.2746 30.6461 12.3595 31.8862H1.21826C1.28469 31.796 1.35367 31.708 1.42511 31.6222C2.05286 30.8742 4.15114 28.2144 4.88627 27.8646C5.06763 27.7788 5.34575 27.9393 5.54661 27.9151C5.7128 27.8953 5.93609 27.4913 6.02809 27.3461C6.34433 26.8481 6.69818 26.2981 6.90674 25.7452C7.15246 25.094 7.20165 24.3912 7.30332 23.7086C7.51393 22.2943 7.65189 20.8215 7.9718 19.4305C8.2165 18.3668 8.81504 17.438 9.28604 16.4651C9.6198 15.7754 9.9139 15.034 10.3136 14.3806C10.5262 14.0332 10.7963 13.711 11.0508 13.3936Z" fill="#0C0C0C"/>
<path d="M11.9221 12.8271C12.2418 12.9922 12.5455 13.1613 12.9132 13.0515C13.2427 12.9531 13.5437 12.7315 13.706 12.4254C13.9519 11.9619 13.8509 11.4851 13.7039 11.0098L13.7452 10.9431C13.9432 11.0569 14.1108 11.1622 14.2376 11.3586C14.7639 12.1746 14.4187 13.6763 14.0235 14.4905C13.6907 15.1759 13.1999 15.8002 12.9296 16.5127C12.5825 17.4274 12.4312 18.4394 12.2345 19.3953C12.9178 21.0203 13.1995 22.844 13.109 24.6009C13.0687 25.3831 12.437 27.3404 12.4604 27.6674C12.4639 27.7151 12.5257 27.817 12.5467 27.8654C13.6064 28.4455 16.4999 28.3546 16.8278 28.6024C15.4402 30.1432 13.2745 30.6463 12.3595 31.8863H10.4339C9.50552 30.5341 7.32957 28.9464 5.90311 28.0964C8.27742 25.2408 7.45977 22.6006 8.4041 19.3713C8.67489 18.4454 9.17103 17.6146 9.58924 16.7514C9.92498 16.0583 10.2202 15.3106 10.6238 14.6551C11.0116 14.0254 11.4969 13.4343 11.9221 12.8271Z" fill="white"/>
<path d="M5.03388 28.1865C6.57536 28.7335 8.89909 30.4965 9.84753 31.7783L9.81432 31.8861H1.72247C2.78025 30.6578 3.82317 29.2623 5.03388 28.1865Z" fill="#DADBD7"/>
<path d="M12.5468 27.8653C12.6841 27.7237 12.8169 27.5778 12.9453 27.4282C14.4568 27.4245 16.0134 27.7663 17.5294 27.8638C17.3073 28.0985 17.0767 28.4028 16.8279 28.6023C16.5 28.3544 13.6065 28.4453 12.5468 27.8653Z" fill="#D9DBD5"/>
<path d="M14.0193 1.17161C14.6532 1.15819 15.0696 1.19134 15.7041 1.2503C15.7932 1.52853 15.9648 2.15699 16.2074 2.21874C17.3166 2.50093 20.8924 2.84413 21.9107 2.84186C22.3498 2.49433 22.4619 2.38272 22.6436 1.85552C25.0558 2.02639 25.2351 2.29487 25.0243 4.67315L23.7542 18.4919C23.5524 20.8159 23.4168 23.1443 23.1621 25.463C22.9245 27.6256 20.8208 26.9913 19.2889 26.8945C17.5915 26.7874 15.8414 26.4589 14.1449 26.3834C13.8429 26.3078 13.5062 26.3012 13.1959 26.2719C13.3354 25.7901 13.2519 25.0714 13.4751 24.6532L13.7069 24.6277C13.9149 24.235 13.4549 23.674 13.4178 23.2304C13.4157 23.2047 13.4141 23.179 13.4122 23.1534L13.4034 23.0271C13.3977 22.9813 13.3936 22.9634 13.3971 22.9131C13.4112 22.7071 13.5432 22.6282 13.6816 22.4962L13.5909 22.4461L13.4583 22.4656C13.2517 22.1703 12.9018 20.245 12.8693 19.8424L12.8191 19.7032L12.7144 19.6253C12.6551 19.4372 12.6826 19.3837 12.7341 19.1895L12.767 19.0507C12.7503 18.9775 12.7424 18.9104 12.7463 18.8348C12.7733 18.3237 13.0569 16.7705 13.4365 16.4355C13.4396 16.4326 13.4441 16.4308 13.4459 16.4269C13.5271 16.2415 13.6261 16.1408 13.7641 15.9921C13.7633 15.9859 13.7619 15.9797 13.7618 15.9736C13.7561 15.6807 13.9854 15.3628 14.1831 15.1598L14.2528 14.9866C14.2623 14.8237 14.3391 14.7926 14.4523 14.6803L14.4489 14.5426C14.5293 13.7477 14.8739 13.2162 14.8531 12.3095L14.8167 12.2341C14.8252 12.038 14.7769 11.7617 14.7502 11.5606L14.6983 11.4501C14.6362 11.1894 14.446 10.993 14.2637 10.8103C13.8605 10.7056 13.2563 10.5366 12.9105 10.85C12.4655 11.1162 12.5191 11.4693 12.2641 11.4121L12.865 5.17167C12.9328 4.40753 12.9772 3.62712 13.049 2.86313C13.1395 1.90026 13.2129 1.67937 14.0193 1.17161Z" fill="#F2F2F1"/>
<path d="M12.9105 10.85C13.3332 9.97811 12.9592 4.73183 13.8073 4.40762C14.2571 4.23566 18.2384 4.54043 18.6598 4.95315C18.7837 5.62687 18.2767 11.0429 17.9348 11.7061C17.4887 11.9951 15.4225 11.5895 14.7502 11.5606L14.6983 11.4501C14.6362 11.1894 14.446 10.993 14.2637 10.8103C13.8605 10.7056 13.2563 10.5366 12.9105 10.85Z" fill="#DADBD7"/>
<path d="M12.9105 10.85C13.3332 9.97811 12.9592 4.73183 13.8073 4.40762C14.2571 4.23566 18.2384 4.54043 18.6598 4.95315C18.7837 5.62687 18.2767 11.0429 17.9348 11.7061C17.4887 11.9951 15.4225 11.5895 14.7502 11.5606L14.6983 11.4501C15.483 11.398 17.3427 11.7768 17.8064 11.5593C18.126 10.8434 18.6208 5.6386 18.4479 4.99187C17.99 4.69868 15.1977 4.57255 14.4613 4.52532C14.1908 4.54014 13.937 4.51322 13.6674 4.49203C13.5489 5.56622 13.1378 9.6017 13.2132 10.4486C13.4843 10.6182 13.645 10.2822 14.2637 10.8103C13.8605 10.7056 13.2563 10.5366 12.9105 10.85Z" fill="#0C0C0C"/>
<path d="M13.6675 4.49209C13.9904 4.40974 14.1331 4.4291 14.4614 4.52539C14.1909 4.5402 13.9371 4.51328 13.6675 4.49209Z" fill="#747572"/>
<path d="M15.322 5.68778C15.7753 5.72782 16.1767 5.78795 16.6391 5.7848C17.6233 6.82371 17.6716 7.26775 17.8419 8.68096C17.8853 9.04081 17.9604 9.59111 17.7205 9.89427C17.5349 9.97369 17.4972 10 17.3018 9.96489C17.107 9.80231 17.0544 9.51499 16.9812 9.2812L16.888 9.31882C16.8603 9.43777 16.8404 9.55855 16.8187 9.67867C16.65 9.79791 16.4678 9.76901 16.2702 9.7652C15.7106 9.75779 15.1556 9.68358 14.6003 9.61971C14.5404 9.37646 14.5014 9.12507 14.4553 8.87867C14.3521 9.10175 14.2378 9.43153 13.9956 9.53538C13.8521 9.5969 13.8206 9.57563 13.6828 9.52503C13.4963 9.2776 13.4954 8.96366 13.5337 8.66776C13.6342 7.89328 14.0815 6.79335 14.6227 6.23301C14.8193 6.02936 15.0958 5.85916 15.322 5.68778Z" fill="#0C0C0C"/>
<path d="M16.1207 6.85677C16.4977 6.76818 16.6197 6.41428 16.955 6.39514C17.4679 6.72565 17.7827 8.85292 17.6365 9.44567L17.5071 9.60194L17.3308 9.59754C17.0385 9.2836 16.98 8.28825 16.9645 7.84304C16.8003 8.08563 16.8021 8.34772 16.7721 8.64149L16.7525 9.60312L15.7991 9.5894C15.7889 8.75795 16.0559 7.33769 15.9415 6.64565L16.1207 6.85677Z" fill="#B5FE28"/>
<path d="M16.7721 8.64149C16.7525 8.22166 16.746 7.93441 16.8533 7.52814L16.9348 7.56671L16.9645 7.84304C16.8003 8.08563 16.8021 8.34772 16.7721 8.64149Z" fill="#415A0E"/>
<path d="M16.3151 7.13748C16.5495 7.37325 16.3699 7.71572 16.5409 8.03479L16.3492 7.94877C16.2322 7.71029 16.2943 7.39547 16.3151 7.13748Z" fill="#668D1B"/>
<path d="M15.2512 6.40281C15.4532 6.75078 15.5349 6.83129 15.4064 7.24812L15.4923 7.23206L15.8165 7.40784C15.6631 8.00339 15.6862 8.90392 15.5685 9.55645L14.6173 9.44652C14.6682 9.04458 14.8849 7.72956 14.8566 7.41034L14.7666 7.3802C14.709 7.47319 14.6546 7.55833 14.6023 7.65483C14.4519 7.12104 14.7676 6.6297 15.2512 6.40281Z" fill="#B5FE28"/>
<path d="M14.6023 7.65505C14.6674 7.97486 14.3432 9.3231 13.8689 9.2172C13.4877 8.70291 14.3296 6.64195 14.8278 6.26743C15.0931 6.22783 14.9816 6.20532 15.2512 6.40302C14.7676 6.62992 14.4519 7.12125 14.6023 7.65505Z" fill="#B5FE28"/>
<path d="M15.9415 6.64565C16.0997 6.42447 16.2705 6.13932 16.5031 6.01246L16.6515 6.04714L16.7268 6.20239C16.5084 6.54787 16.2729 6.49714 16.1207 6.85677L15.9415 6.64565Z" fill="#E6FEB6"/>
<path d="M15.2935 5.83631C15.4376 5.96105 15.5892 6.14423 15.699 6.29992C15.8403 6.50027 15.7987 6.61306 15.7556 6.83071C15.5715 6.59861 15.2461 6.30557 15.1777 6.01891L15.2935 5.83631Z" fill="#E6FEB6"/>
<path d="M15.4809 5.94253C15.7294 5.91606 16.0191 5.85013 16.254 5.95514L16.288 6.11289L16.0992 6.19685C15.8615 6.21848 15.672 6.06426 15.4809 5.94253Z" fill="#D9FE91"/>
<path d="M15.4922 7.23216L15.6085 7.00131L15.7242 6.96655C15.8339 7.14864 15.8184 7.18501 15.8164 7.40794L15.4922 7.23216Z" fill="#B5FE28"/>
<path d="M14.8531 12.3094C15.2619 12.3052 17.6118 12.5612 17.7913 12.748C17.9392 12.9021 17.8199 13.9745 17.8039 14.2051C17.7559 14.9028 17.5826 19.0165 17.2308 19.3462C16.4115 19.6352 13.8233 19.0415 12.767 19.0506C12.7503 18.9773 12.7424 18.9102 12.7463 18.8346C12.7732 18.3236 13.0569 16.7704 13.4364 16.4354C13.4396 16.4325 13.4441 16.4307 13.4459 16.4268C13.5271 16.2414 13.6261 16.1406 13.764 15.9919C13.7632 15.9858 13.7618 15.9796 13.7618 15.9734C13.7561 15.6805 13.9854 15.3626 14.1831 15.1597L14.2528 14.9865C14.2623 14.8236 14.3391 14.7925 14.4523 14.6802L14.4489 14.5425C14.5293 13.7475 14.8739 13.2161 14.8531 12.3094Z" fill="#DADBD7"/>
<path d="M14.4489 14.5425C15.3766 14.6829 16.4099 14.9808 16.983 15.785C17.1218 15.9798 17.2541 16.2359 17.2196 16.4813C17.196 16.6495 17.0935 16.7855 16.957 16.8812C16.5356 17.1766 16.0543 17.2131 15.5583 17.2383C15.3584 17.5524 15.0577 17.9642 14.679 18.0752C14.5423 18.1153 14.403 18.0905 14.2866 18.0151C14.0397 17.8552 13.7702 17.4404 13.7151 17.1487C13.6571 16.8424 13.66 16.6704 13.4364 16.4354C13.4396 16.4325 13.4441 16.4307 13.4459 16.4268C13.5271 16.2414 13.6261 16.1406 13.764 15.9919C13.7632 15.9858 13.7618 15.9796 13.7618 15.9734C13.7561 15.6805 13.9854 15.3626 14.1831 15.1597L14.2528 14.9865C14.2623 14.8236 14.3391 14.7925 14.4523 14.6802L14.4489 14.5425Z" fill="#30302F"/>
<path d="M14.1831 15.1597C14.9962 15.2713 16.0478 15.4922 16.568 16.1949C16.6153 16.2588 16.6404 16.2968 16.6653 16.372C16.537 16.5225 16.5222 16.5873 16.3208 16.6046C15.4861 16.6763 14.564 16.204 13.764 15.9919C13.7632 15.9858 13.7618 15.9796 13.7618 15.9734C13.7561 15.6805 13.9854 15.3626 14.1831 15.1597Z" fill="#D9DBD5"/>
<path d="M14.4523 14.6803C15.1896 14.8354 16.474 15.1519 16.8987 15.8165C16.9522 15.9002 16.9674 15.9964 16.9776 16.0932L16.897 16.3035L16.8277 16.3031C16.4085 15.6296 15.7753 15.2997 15.0105 15.1212C14.7614 15.0631 14.5055 15.0257 14.2528 14.9866C14.2623 14.8237 14.3391 14.7926 14.4523 14.6803Z" fill="#B5FE28"/>
<path d="M13.9548 16.3304C14.275 16.3383 14.8432 16.384 15.1161 16.5573C15.2327 16.6313 15.3328 16.7424 15.3586 16.8789C15.4163 17.1829 15.2109 17.4443 15.045 17.677C14.8347 17.7841 14.6478 17.8734 14.4032 17.8359C14.2426 17.8112 14.1045 17.7248 14.0149 17.5888C13.7566 17.1971 13.8496 16.7527 13.9548 16.3304Z" fill="#D9FE91"/>
<path d="M14.2513 16.5476C14.4347 16.4379 14.6632 16.4368 14.8475 16.5447C15.032 16.6525 15.143 16.8522 15.1374 17.0658C15.1318 17.2795 15.0104 17.4731 14.8206 17.5711C14.5395 17.7163 14.1939 17.6119 14.0401 17.3353C13.8863 17.0588 13.9798 16.7099 14.2513 16.5476Z" fill="#0C0C0C"/>
<path d="M14.4047 16.6769C14.6242 16.6098 14.857 16.7311 14.928 16.9495C14.999 17.168 14.8819 17.403 14.6648 17.4779C14.5209 17.5275 14.3615 17.4956 14.2478 17.3944C14.1341 17.2932 14.0839 17.1384 14.1164 16.9897C14.1489 16.841 14.2592 16.7214 14.4047 16.6769Z" fill="#B5FE28"/>
<path d="M16.848 16.5136L16.9051 16.6199C16.8958 16.6396 16.8878 16.6599 16.8773 16.6791C16.7472 16.9175 16.2872 17.0178 16.0495 17.09C15.9654 17.0134 15.9744 17.0043 15.9605 16.8896C16.128 16.7091 16.5527 16.6692 16.792 16.5435L16.848 16.5136Z" fill="#B5FE28"/>
<path d="M16.2041 12.8792C16.3024 12.8825 16.4002 12.8896 16.4983 12.8969C16.8875 12.9258 17.2249 12.9358 17.5011 13.2554C17.5486 13.4354 17.5391 13.5518 17.5014 13.7294C17.4844 13.8095 17.4729 13.7969 17.4085 13.8383C16.9991 13.8431 16.5815 14.0095 16.2044 13.7637C16.0322 13.4479 16.1089 13.2102 16.2041 12.8792Z" fill="#B5FE28"/>
<path d="M16.2828 13.0305C16.5248 13.0474 16.7814 13.0365 16.9855 13.1837C17.0827 13.4014 17.0464 13.5144 17.0214 13.7483C16.791 13.7406 16.5521 13.7615 16.3523 13.6336C16.2248 13.4446 16.2665 13.2471 16.2828 13.0305Z" fill="#1C1C1C"/>
<path d="M17.2213 13.0993C17.3621 13.3349 17.3369 13.408 17.3233 13.6754L17.2402 13.6292C17.1468 13.432 17.1933 13.3128 17.2213 13.0993Z" fill="#DADBD7"/>
<path d="M12.8693 19.8424C14.2928 20.1003 15.7549 20.11 17.1847 20.3104L17.2763 20.2098L17.4122 20.3633L17.4422 20.4545C17.4169 20.7276 17.387 20.9878 17.4292 21.2607C17.4065 21.6625 17.1398 23.1815 17.3298 23.4169C17.5256 23.4316 17.5402 23.4287 17.7052 23.3224C18.0104 22.7843 17.6865 21.665 18.122 21.2985C18.9284 21.1173 22.1046 21.3875 22.8395 21.7458C23.0004 21.9375 22.9613 22.2498 22.9413 22.4853C22.8942 23.0394 22.8464 23.6237 22.7302 24.1673C21.6617 23.7661 19.8249 23.7952 18.6332 23.6959C16.9097 23.5522 15.1211 23.4037 13.4122 23.1533L13.4034 23.027C13.3977 22.9813 13.3937 22.9634 13.3971 22.913C13.4113 22.7071 13.5432 22.6281 13.6816 22.4961L13.5909 22.446L13.4583 22.4655C13.2517 22.1703 12.9018 20.245 12.8693 19.8424Z" fill="#30302F"/>
<path d="M12.8693 19.8424C14.2928 20.1003 15.7549 20.11 17.1847 20.3104L17.2763 20.2098L17.4122 20.3633C17.3976 20.5252 17.4024 20.8118 17.3049 20.9405C17.2583 21.5801 17.3021 22.97 16.8666 23.4248C16.7593 23.4541 16.745 23.4727 16.6471 23.4166C16.0595 23.0798 16.0008 21.9268 15.3309 21.8236L15.3012 21.8569C15.215 21.9522 15.1408 22.0195 15.0316 22.0872C14.7682 22.0479 14.5287 22.0083 14.3527 21.7841C14.3331 21.759 14.3152 21.7326 14.2974 21.7062C14.0258 21.869 13.8215 22.218 13.5909 22.446L13.4583 22.4655C13.2517 22.1703 12.9018 20.245 12.8693 19.8424Z" fill="#DADBD7"/>
<path d="M17.2763 20.2098L17.4122 20.3633C17.3976 20.5252 17.4024 20.8118 17.3049 20.9405C17.3112 20.7057 17.3335 20.509 17.1847 20.3104L17.2763 20.2098Z" fill="#747572"/>
<path d="M15.9144 20.4245C16.2882 20.4605 16.6896 20.4534 16.964 20.7441C17.0898 20.9774 17.0359 21.1969 17.0003 21.4477C16.7756 21.468 16.5302 21.5054 16.3055 21.4941C16.0964 21.4837 16.0208 21.4148 15.8835 21.2745C15.7818 21.0033 15.8664 20.7013 15.9144 20.4245Z" fill="#415A0E"/>
<path d="M16.0544 20.5779C16.2646 20.6053 16.4633 20.625 16.6586 20.7139C16.7824 20.9238 16.7505 21.063 16.7485 21.3037C16.5207 21.3205 16.2654 21.3783 16.0667 21.2473C15.9471 21.0451 16.0199 20.7977 16.0544 20.5779Z" fill="#B5FE28"/>
<path d="M13.6817 22.496L14.2298 22.1015L14.1693 21.8953C14.2285 21.8683 14.2425 21.8854 14.3035 21.9101C14.7109 22.0753 14.6959 22.4382 15.2186 22.2204C15.2949 22.1886 15.3688 22.1479 15.4416 22.1088C15.6696 22.3584 15.8339 22.661 16.0083 22.9491L15.9967 23.0886C15.5863 23.4021 13.9963 23.0983 13.4407 23.0319C13.4283 23.0304 13.4159 23.0286 13.4035 23.0269C13.3978 22.9811 13.3937 22.9632 13.3972 22.9129C13.4113 22.7069 13.5433 22.628 13.6817 22.496Z" fill="#B5FE28"/>
<path d="M18.1763 21.3298C18.8832 21.3404 22.1905 21.5464 22.6647 21.8638C22.8083 22.2939 22.7869 22.7761 22.7394 23.2218C22.7103 23.4949 22.7079 23.7423 22.4854 23.9219L22.2405 23.8624C22.1889 23.7121 22.1353 23.5519 22.0265 23.4321C21.9013 23.2943 21.6942 23.2291 21.5125 23.2248C21.2359 23.2184 21.1537 23.3882 20.9719 23.5463C20.9288 23.5839 20.8379 23.6674 20.7839 23.6869C20.4385 23.8123 18.4442 23.5147 17.9028 23.4705C18.036 22.7742 17.9674 22.0023 18.1763 21.3298Z" fill="#DADBD7"/>
<path d="M18.4645 22.6626C18.4084 22.4454 18.3113 22.1593 18.4242 21.9482C18.5193 21.7707 18.6905 21.6943 18.8795 21.6503C19.3691 21.536 20.0678 21.5991 20.5033 21.8648C20.6325 21.9437 20.7731 22.0767 20.812 22.2281C20.861 22.4193 20.8145 22.6604 20.704 22.8199C20.3802 23.013 19.0758 22.8439 18.6998 22.759C18.643 22.7462 18.587 22.7235 18.5337 22.7005L18.4645 22.6626Z" fill="#1C1C1C"/>
<path d="M18.5641 21.8274C19.0522 21.7036 20.0151 21.8454 20.5052 21.9589C20.6402 22.0728 20.6357 22.0841 20.6492 22.2597C20.6619 22.4249 20.615 22.6054 20.5829 22.7671L20.3039 22.7418L19.6849 22.6789L18.8218 22.6059L18.5708 22.525L18.5641 21.8274Z" fill="#B5FE28"/>
<path d="M19.4587 22.3542C19.6425 22.227 19.8138 22.1517 20.0471 22.1829C20.1211 22.1928 20.1841 22.2222 20.2476 22.2593L20.2295 22.3515C20.0466 22.4631 19.8659 22.4422 19.6608 22.4362L19.4587 22.3542Z" fill="#668D1B"/>
<path d="M19.1856 22.4181C19.0855 22.3997 18.9931 22.3527 18.9001 22.3126L18.8679 22.1981L18.9954 22.1188C19.0808 22.1236 19.1677 22.1261 19.2491 22.1543C19.3833 22.2008 19.3803 22.2358 19.439 22.3528L19.1856 22.4181Z" fill="#668D1B"/>
<path d="M18.4644 22.6626C18.5196 22.3871 18.539 22.1068 18.5641 21.8273L18.5708 22.5249L18.8217 22.6058L18.5336 22.7004L18.4644 22.6626Z" fill="#668D1B"/>
<path d="M20.3041 22.7418L20.583 22.7671C20.451 22.7928 20.4309 22.7884 20.3041 22.7418Z" fill="#668D1B"/>
<path d="M21.3126 23.3494C21.4149 23.3656 21.5236 23.3799 21.6223 23.4118C21.7938 23.4672 21.8853 23.5104 21.9625 23.6768L21.88 23.82C21.6659 23.7937 21.4587 23.7687 21.2507 23.7081L21.1907 23.5774L21.3126 23.3494Z" fill="#DADBD7"/>
<path d="M14.8169 12.234C15.3897 12.1556 17.4478 12.2944 17.8944 12.6317C18.0249 12.7303 18.0222 12.8231 18.0364 12.9767C18.106 13.7218 17.6615 18.8436 17.4317 19.391C16.8286 19.8669 13.6725 19.1825 12.7343 19.1894L12.7672 19.0507C13.8235 19.0416 16.4117 19.6353 17.231 19.3463C17.5828 19.0166 17.7561 14.9029 17.8041 14.2052C17.82 13.9746 17.9394 12.9022 17.7915 12.7481C17.612 12.5612 15.2621 12.3053 14.8533 12.3095L14.8169 12.234Z" fill="#30302F"/>
<path d="M12.8193 19.703C14.0932 19.8921 16.1514 19.8638 17.2764 20.2097L17.1848 20.3103C15.7551 20.1099 14.2929 20.1002 12.8694 19.8423L12.8193 19.703Z" fill="#30302F"/>
<path d="M17.4422 20.4545C17.5233 20.729 17.4978 20.9856 17.4292 21.2607C17.387 20.9878 17.4169 20.7276 17.4422 20.4545Z" fill="#747572"/>
<path d="M18.8729 12.6768C19.5533 12.6436 22.9951 12.9069 23.4854 13.1798C23.5231 13.2488 23.5541 13.3208 23.5709 13.3979C23.7042 14.0107 23.1845 19.7078 23.0013 20.5798C22.9734 20.7121 22.9042 20.8276 22.8297 20.9387C22.2148 20.9975 18.6391 20.6824 18.2551 20.352C18.14 20.2529 18.1306 20.0329 18.1184 19.8887C18.0456 19.0282 18.4419 13.9577 18.6502 13.0579C18.6849 12.9078 18.7749 12.7917 18.8729 12.6768Z" fill="#30302F"/>
<path d="M18.8869 12.8264C20.407 12.961 21.9464 13.0243 23.4574 13.2353C23.4515 14.8143 23.2292 16.3854 23.0923 17.9556C23.0149 18.8437 23.0763 19.9689 22.7933 20.7952C21.2694 20.6844 19.7496 20.5231 18.2365 20.3115C18.1963 19.374 18.6299 13.5006 18.8869 12.8264Z" fill="#DADBD7"/>
<path d="M18.9268 19.7226C19.045 19.002 19.7764 15.4228 19.7162 15.0617L19.5074 14.8522C19.5477 14.7085 19.5681 14.6982 19.6982 14.6203C20.1983 14.3211 21.0004 14.3851 21.3085 13.7701L21.2743 13.6265L21.146 13.5714L20.8983 13.7292L20.8652 13.5968C20.9883 13.4589 21.0196 13.4482 21.1986 13.3963L21.4201 13.4494C21.5028 13.591 21.5062 13.5923 21.4626 13.758C21.4244 13.9034 21.3519 14.0449 21.29 14.1816C21.5289 14.5937 22.5676 14.6448 22.6198 15.1916L22.5723 15.2517C22.5013 15.343 22.4054 15.4577 22.3724 15.5696C22.175 16.2397 22.6475 19.2948 22.3667 19.9023C22.2991 20.0483 22.1179 20.0989 21.9685 20.1207C21.5963 20.175 21.1681 20.0929 20.7954 20.0489C20.8044 19.712 20.7947 19.363 20.8287 19.0283C20.8017 18.8287 20.7538 18.67 20.6793 18.4848C20.5999 19.0015 20.5299 19.5221 20.4359 20.0362C19.9355 19.9498 19.407 19.8897 18.9268 19.7226Z" fill="#0C0C0C"/>
<path d="M20.6791 18.485C20.7105 18.3212 20.7133 18.0784 20.8342 17.9652C20.8891 18.3241 20.8565 18.669 20.8285 19.0284C20.8015 18.8288 20.7537 18.6701 20.6791 18.485Z" fill="#D9DBD5"/>
<path d="M20.3355 15.4929C20.7023 15.5552 21.2621 15.5198 21.5912 15.6378C21.6704 15.6662 21.7189 15.7849 21.7489 15.8532C21.861 16.1086 21.9522 16.3158 22.1436 16.5226C22.1593 16.5396 22.1754 16.5563 22.1913 16.5731C22.2486 17.7041 22.2623 18.8369 22.2322 19.9689C21.824 19.9774 21.4146 19.951 21.0069 19.9334C21.0257 18.8708 21.0638 17.8043 21.027 16.742C20.9453 16.7387 20.9128 16.7707 20.8418 16.8082C20.5208 17.7207 20.4869 18.9088 20.3103 19.8755L19.1014 19.6243L19.6798 16.3644C20.0673 16.1111 20.2084 15.9436 20.3355 15.4929Z" fill="#D9DBD5"/>
<path d="M20.9133 14.3579C21.3722 14.3205 22.1939 14.9417 22.6102 15.1862C22.2213 15.1046 21.8314 15.0387 21.4392 14.9755C20.8058 14.9138 20.1748 14.8762 19.5391 14.8493C19.9778 14.6482 20.4559 14.5119 20.9133 14.3579Z" fill="#DADBD7"/>
<path d="M19.9055 15.0318C20.2024 15.0179 20.8714 15.0502 21.0832 15.2377L21.05 15.4473C20.7011 15.3074 20.1503 15.3935 19.899 15.2092L19.9055 15.0318Z" fill="#D9DBD5"/>
<path d="M21.1677 15.1826C21.4753 15.1787 21.8507 15.1491 22.1275 15.3014C22.1926 15.3373 22.2138 15.4881 22.2365 15.5609C22.0198 15.5097 21.809 15.4833 21.5907 15.4467C21.3328 15.4034 21.3141 15.3941 21.1677 15.1826Z" fill="#D9DBD5"/>
<path d="M19.846 15.3972L20.0563 15.4852C20.1204 15.6904 20.0278 15.809 19.9508 16.0034L19.7942 15.9917C19.7247 15.7705 19.7941 15.6206 19.846 15.3972Z" fill="#DADBD7"/>
<path d="M21.875 15.6258L22.0981 15.7126C22.2226 15.9121 22.1892 16.0559 22.1891 16.2882L22.1707 16.2738C21.9707 16.1205 21.9359 15.8577 21.875 15.6258Z" fill="#DADBD7"/>
<path d="M20.3714 4.98488L20.4718 4.93912L20.5168 4.96875C21.3068 5.06313 23.6976 5.14856 24.1854 5.49858C24.2268 5.59069 24.2532 5.68265 24.2641 5.78305C24.3548 6.6266 23.8845 11.8957 23.4683 12.3848C23.4217 12.4394 23.2948 12.4342 23.2224 12.4382C22.5291 12.4766 21.7957 12.2863 21.1053 12.2248C20.5207 12.1727 19.9035 12.2194 19.328 12.0955C19.1345 12.054 18.995 11.9935 18.844 11.8622C18.5323 10.4375 19.2348 7.1568 19.2298 5.53466C19.2277 4.81988 19.8509 4.87847 20.3714 4.98488Z" fill="#DADBD7"/>
<path d="M20.5168 4.96875C21.3068 5.06313 23.6976 5.14856 24.1854 5.49858C24.2268 5.59069 24.2532 5.68265 24.2641 5.78305C24.3548 6.6266 23.8845 11.8957 23.4683 12.3848C23.4217 12.4394 23.2948 12.4342 23.2224 12.4382C22.5291 12.4766 21.7957 12.2863 21.1053 12.2248C20.5207 12.1727 19.9035 12.2194 19.328 12.0955C19.1345 12.054 18.995 11.9935 18.844 11.8622C18.5323 10.4375 19.2348 7.1568 19.2298 5.53466C19.2277 4.81988 19.8509 4.87847 20.3714 4.98488L19.8766 5.07787C19.5835 5.0588 19.6816 5.02719 19.4674 5.15861C19.3383 5.47013 18.8858 11.2844 18.8954 11.872C19.4865 11.962 23.0962 12.3932 23.4298 12.2175C23.7394 11.5447 24.1972 6.30584 24.0571 5.57184C23.7436 5.34026 21.1747 5.14453 20.5825 5.07765L20.5186 5.04142L20.5168 4.96875Z" fill="#30302F"/>
<path d="M20.3714 4.98505L20.4718 4.93929L20.5168 4.96892L20.5186 5.04159L20.5825 5.07782C20.2731 5.1477 20.1925 5.12438 19.8766 5.07804L20.3714 4.98505Z" fill="#D9DBD5"/>
<path d="M19.8603 6.85243C19.7242 6.62355 19.6767 6.51465 19.7837 6.27961C20.0024 6.19572 19.9054 6.19587 20.1509 6.30198C20.3285 6.50225 20.3104 6.61944 20.3217 6.88168C20.612 7.04529 20.8455 7.72942 20.9616 8.05781L20.9393 7.98778C21.0733 8.05231 21.5371 8.26659 21.6698 8.38942C22.2288 8.90716 23.7086 10.6514 22.4364 11.147C21.9756 11.3265 21.2194 10.9076 20.7822 10.6433C20.5845 10.5247 20.4027 10.381 20.2416 10.2159C20.1453 10.0869 20.1369 9.94095 20.1066 9.77829C20.1779 9.24398 20.2664 8.87768 20.5309 8.40923C20.3332 7.85754 20.021 7.39715 19.8603 6.85243Z" fill="#1C1C1C"/>
<path d="M20.2836 9.79753C20.6641 10.0554 21.0266 10.4184 21.4271 10.6008C21.7248 10.7364 22.5477 10.6127 22.736 10.7805C22.1814 11.353 20.7293 10.5265 20.2981 10.0871L20.2836 9.79753Z" fill="#D9DBD5"/>
<path d="M19.8603 6.85243C19.7242 6.62355 19.6767 6.51465 19.7837 6.27961C20.0024 6.19572 19.9054 6.19587 20.1509 6.30198C20.3285 6.50225 20.3104 6.61944 20.3217 6.88168L20.119 6.85602C20.0625 6.64511 20.0432 6.54193 19.9401 6.34495L19.8682 6.46339L19.9169 6.4716L19.9228 6.50805L19.8348 6.60089C19.8456 6.67202 19.8712 6.78797 19.8603 6.85243Z" fill="#424240"/>
<path d="M20.1065 9.77819L20.2834 9.79726L20.2979 10.0869L20.2415 10.2158C20.1452 10.0868 20.1368 9.94085 20.1065 9.77819Z" fill="#747572"/>
<path d="M20.5861 8.56505C21.2782 8.12527 22.1156 8.53476 21.9264 9.27741L21.9435 9.32882C22.2779 9.41183 22.3107 9.55513 22.4504 9.85631L22.5244 9.93163L22.6874 10.0717C22.7629 10.3441 22.8211 10.3618 22.7282 10.5741C22.0584 10.8792 20.7728 9.97878 20.2572 9.61218L20.5861 8.56505Z" fill="#B5FE28"/>
<path d="M20.5861 8.56505C21.2782 8.12527 22.1156 8.53476 21.9264 9.27741L21.9435 9.32882L21.6684 9.43574L21.3904 9.43772L21.2813 9.41389C21.0207 9.21398 21.0233 9.07604 20.9332 8.74223C20.7866 8.74223 20.7081 8.65635 20.5861 8.56505Z" fill="#E6FEB6"/>
<path d="M20.5861 8.56505C21.2782 8.12527 22.1156 8.53476 21.9264 9.27741C21.8567 9.18267 21.7969 9.06548 21.7386 8.9612C21.4263 8.64865 21.3391 8.57891 20.9332 8.74223C20.7866 8.74223 20.7081 8.65635 20.5861 8.56505Z" fill="#E6FEB6"/>
<path d="M20.9332 8.74223C21.3391 8.57891 21.4263 8.64865 21.7386 8.9612L21.6862 9.04777L21.3882 8.88849L21.2602 8.93169C21.2548 9.13512 21.2829 9.17406 21.3731 9.35908L21.2813 9.41389C21.0207 9.21398 21.0233 9.07604 20.9332 8.74223Z" fill="#1C1C1C"/>
<path d="M21.7385 8.96128C21.7968 9.06556 21.8567 9.18274 21.9264 9.27749L21.9435 9.3289L21.6684 9.43582L21.3903 9.4378L21.2812 9.41397L21.3731 9.35908C21.5544 9.39574 21.4708 9.40678 21.6331 9.33455L21.6862 9.04777L21.7385 8.96128Z" fill="#1C1C1C"/>
<path d="M21.9436 9.32892C22.278 9.41193 22.3108 9.55523 22.4505 9.85641C22.1725 9.87239 22.1204 9.82392 21.8939 9.67968L21.6685 9.43584L21.9436 9.32892Z" fill="#E6FEB6"/>
<path d="M21.8937 9.67968C22.1202 9.82393 22.1723 9.8724 22.4504 9.85642L22.5244 9.93173C22.2412 10.0095 22.1172 10.0238 21.868 9.85957L21.8937 9.67968Z" fill="#1C1C1C"/>
<path d="M21.3905 9.4377L21.6685 9.43571L21.8939 9.67955L21.8681 9.85944L21.3905 9.4377Z" fill="#1C1C1C"/>
<path d="M22.1009 5.60921C22.5367 5.60943 23.3988 5.61984 23.7017 5.97119C23.8644 6.15995 23.7914 6.48056 23.7838 6.71156C23.5264 6.80646 22.9153 6.82523 22.6392 6.79766C22.4356 6.77734 22.2225 6.67006 22.1041 6.50154C21.935 6.26078 22.0546 5.87629 22.1009 5.60921Z" fill="#415A0E"/>
<path d="M23.0281 6.60123C22.754 6.60886 22.4987 6.65652 22.2986 6.48653C22.171 6.29594 22.1299 6.26917 22.1445 6.05489C22.3538 5.73677 22.6712 5.65794 23.0129 5.83607C23.0799 5.93463 23.1488 6.03187 23.2195 6.12786L23.5426 6.07088C23.6604 6.29939 23.6097 6.34456 23.5932 6.64266C23.396 6.6926 23.2317 6.64017 23.0281 6.60123Z" fill="#B5FE28"/>
<path d="M23.0283 6.60105C23.23 6.60509 23.3955 6.59929 23.5934 6.64249C23.3961 6.69243 23.2319 6.63999 23.0283 6.60105Z" fill="#668D1B"/>
<path d="M17.2877 24.1832C17.5347 24.121 17.7991 24.0349 18.0343 24.1763C18.1498 24.2456 18.2353 24.3746 18.2581 24.5089C18.2823 24.6513 18.2511 24.8264 18.1668 24.9459C18.0738 25.0772 17.9317 25.1608 17.768 25.16C17.5698 25.1586 17.3792 25.0522 17.2268 24.9371C17.187 24.6651 17.2284 24.4491 17.2877 24.1832Z" fill="#F2F2F1"/>
<path d="M17.2879 24.1832C17.535 24.121 17.7994 24.0349 18.0346 24.1763C18.15 24.2456 18.2356 24.3746 18.2584 24.5089C18.2826 24.6513 18.2513 24.8264 18.1671 24.9459C18.0741 25.0772 17.932 25.1608 17.7682 25.16C17.57 25.1586 17.3794 25.0522 17.227 24.9371L17.3643 24.9422C17.4747 24.9628 17.6118 24.9994 17.7238 24.9936C17.933 24.9833 17.9844 24.9063 18.118 24.7634C18.1418 24.5823 18.1277 24.561 18.043 24.3971C17.7946 24.2333 17.6659 24.2544 17.3731 24.2404L17.2879 24.1832Z" fill="#424240"/>
<path d="M17.2877 24.1832L17.3729 24.2404C17.3637 24.472 17.3399 24.7116 17.3641 24.9423L17.2268 24.9371C17.187 24.6651 17.2284 24.4491 17.2877 24.1832Z" fill="#424240"/>
<path d="M15.3277 25.6762C15.9692 25.682 19.1995 25.9013 19.5697 26.2313C18.9462 26.309 15.9771 26.0076 15.3788 25.817L15.3277 25.6762Z" fill="#0C0C0C"/>
<path d="M19.763 24.3753C20.0309 24.3985 20.4664 24.375 20.6682 24.5646C20.7065 24.7801 20.6863 24.8021 20.5872 25.0008C20.4869 25.0771 20.3872 25.1314 20.2745 25.1871C20.1269 25.1563 20.0383 25.1563 19.9312 25.0419C19.7578 24.8564 19.7499 24.6123 19.763 24.3753Z" fill="#747572"/>
<path d="M19.8306 24.5639C20.0578 24.5526 20.2767 24.5219 20.4909 24.612C20.5673 24.7955 20.5309 24.8351 20.4725 25.0287C20.3201 25.0727 20.2473 25.0544 20.0991 25.0031C19.943 24.8689 19.8925 24.7585 19.8306 24.5639Z" fill="#F2F2F1"/>
<path d="M13.8657 3.24701C14.3357 3.17009 17.483 3.39896 17.8452 3.61969C17.3369 3.73006 14.2693 3.49173 13.8657 3.24701Z" fill="#424240"/>
<path d="M15.2302 23.8499C15.7942 24.088 15.4898 24.3208 15.7149 24.6988C15.7282 24.7212 15.7432 24.7425 15.7573 24.7644L15.7068 24.8101C15.6348 24.7793 15.5629 24.7644 15.4878 24.7447C15.2336 24.6783 15.0868 24.5984 14.953 24.3694C14.9604 24.1336 15.0835 24.0169 15.2302 23.8499Z" fill="#747572"/>
<path d="M15.2217 24.0853C15.3464 24.0354 15.4879 24.0959 15.5381 24.2205C15.5883 24.3452 15.5282 24.4868 15.4038 24.5374C15.2788 24.5881 15.1365 24.5278 15.0861 24.4027C15.0358 24.2776 15.0965 24.1353 15.2217 24.0853Z" fill="#F2F2F1"/>
<path d="M23.8047 2.71933C23.9569 2.69645 24.1793 2.64079 24.3278 2.68332C24.4914 2.73011 24.5002 2.78717 24.5827 2.92709C24.4845 2.94608 24.3762 2.97057 24.2758 2.9694C24.0623 2.96683 23.9471 2.86153 23.8047 2.71933Z" fill="#0C0C0C"/>
<path d="M13.9354 1.702C14.1482 1.74307 14.2996 1.96564 14.4477 2.11671C14.2569 2.14956 14.1623 2.20573 13.9944 2.08811L13.9354 1.702Z" fill="#424240"/>
<path d="M21.9372 24.5772L22.1789 24.6798L22.2236 24.7933L22.0566 25.0691C21.9243 24.9803 21.8949 24.9679 21.8281 24.8168L21.9372 24.5772Z" fill="#D9DBD5"/>
<path d="M11.4644 12.8608L12.125 5.52705C12.275 3.90564 12.0325 0.319477 14.4547 0.486897C17.5422 0.700372 20.6405 1.00486 23.7289 1.25126C26.5819 1.48438 25.8147 4.16429 25.6525 6.16014C25.4893 8.1345 25.3161 10.1081 25.1329 12.0807L24.373 20.4716C24.2197 22.2087 24.0928 23.9467 23.8758 25.6808C23.7321 27.0235 23.1966 27.8463 21.7425 27.825C20.5161 27.8067 18.9583 27.6725 17.7463 27.5251C16.9511 27.4283 13.5763 27.2523 13.0914 26.9839C13.0529 26.8438 13.042 26.849 13.1129 26.7243C13.1527 26.6539 13.1784 26.5982 13.2463 26.552C14.8965 26.813 16.7194 26.9326 18.3887 27.0983C23.299 27.5852 23.2971 27.7561 23.6714 23.0189C23.7793 21.5628 23.9031 20.1079 24.0428 18.6546C24.3409 15.5362 24.6202 12.4161 24.881 9.29442C25.033 7.58553 25.1882 5.8396 25.3373 4.13217C25.5492 1.70636 24.5384 1.67116 22.4308 1.58441C22.3269 1.83866 22.2379 2.25116 22.001 2.40325C21.4566 2.75284 20.5772 2.43376 19.9542 2.38492C18.8716 2.3 17.8074 2.26502 16.7327 2.12275C15.7702 1.99537 16.3349 1.10422 15.5438 1.00361C14.2312 0.826067 13.1071 0.682479 12.8585 2.30836C12.7068 3.30122 12.6511 4.28785 12.5592 5.28952L11.978 11.9645C11.8216 12.3373 11.6846 12.529 11.4644 12.8608Z" fill="#D9DBD5"/>
<path d="M18.1934 1.48044C18.7166 1.49833 19.6116 1.42294 19.9966 1.79702C19.5276 1.90841 18.7319 1.82012 18.2772 1.68628L18.1934 1.48044Z" fill="#0C0C0C"/>
<path d="M20.4169 1.64417C20.4757 1.59283 20.5578 1.57795 20.6308 1.60537C20.7038 1.6328 20.7558 1.69814 20.7662 1.77544C20.7765 1.85273 20.7436 1.92951 20.6804 1.9752C20.5888 2.04156 20.4611 2.02404 20.3907 1.93552C20.3202 1.84701 20.3318 1.71867 20.4169 1.64417Z" fill="#30302F"/>
<path d="M25.4338 12.5717C25.9926 12.7422 26.7294 12.887 27.0785 13.4091C27.1863 13.5703 27.2323 13.7398 27.1929 13.9323C27.1186 14.2953 26.8342 14.4937 26.5529 14.6944C26.1124 14.8994 25.6828 15.0167 25.2124 15.1272C25.2948 14.2761 25.3686 13.4242 25.4338 12.5717Z" fill="white"/>
<path d="M25.1379 16.0665C25.2669 16.1239 25.3783 16.2122 25.4842 16.3048C25.817 16.5965 26.2271 17.061 26.2598 17.5145C26.1459 17.5672 25.9697 17.1512 25.7991 17.1321C25.8723 17.5248 26.2143 17.9402 26.4336 18.2746C26.4411 18.3239 26.4393 18.3642 26.4309 18.4135C26.3999 18.597 26.3315 18.7427 26.1664 18.8408C25.8114 19.052 25.3136 18.9146 24.9359 18.837C24.953 17.9105 25.0205 16.9857 25.1379 16.0665Z" fill="white"/>
<path d="M24.8234 19.4186L25.1299 19.5182C25.3144 19.6898 25.482 19.8619 25.6088 20.0819C25.7846 20.3869 25.8704 20.7387 25.7652 21.0827C25.6931 21.3184 25.5129 21.543 25.2878 21.6491C25.117 21.7296 24.9884 21.7446 24.8118 21.6792C24.5216 21.2733 24.7956 19.9416 24.8234 19.4186Z" fill="white"/>
<path d="M26.0262 8.40122C26.153 8.4414 26.2971 8.48181 26.4088 8.55536C26.5887 8.6735 26.7087 8.86366 26.7381 9.07684C26.811 9.64129 26.3118 10.1975 25.978 10.5987C25.88 10.6963 25.8195 10.744 25.6859 10.7827C25.5963 10.6232 25.6199 10.4011 25.6306 10.2235C25.6579 9.7705 25.6949 8.69624 26.0262 8.40122Z" fill="white"/>
<path d="M13.2328 10.9446L13.3594 10.9946C13.4745 11.1 13.5178 11.2034 13.5421 11.3549C13.6094 11.7754 13.4619 12.2687 13.205 12.6041C13.0574 12.7967 12.9419 12.8408 12.7085 12.8709C12.5147 12.7932 12.2667 12.7121 12.1662 12.5289C12.3966 11.9679 12.8452 11.4103 13.2328 10.9446Z" fill="#F2F2F1"/>
<path d="M24.8233 19.4184C24.7888 19.2267 24.7567 19.1464 24.8344 18.9619C24.9714 19.0187 25.0165 19.0503 25.0711 19.1945C25.1073 19.29 25.1155 19.4168 25.1298 19.5181L24.8233 19.4184Z" fill="#30302F"/>
<path d="M17.5291 27.8639L17.933 27.9211C17.1226 28.9845 16.2422 29.808 15.0769 30.4746C14.3354 30.8992 13.3965 31.2343 12.8317 31.8863H12.3593C13.2743 30.6462 15.44 30.1431 16.8276 28.6024C17.0765 28.4029 17.3071 28.0986 17.5291 27.8639Z" fill="#30302F"/>
<path d="M28.5002 3.32033C28.2002 3.34446 27.8432 3.40592 27.5775 3.28543C27.3303 2.89816 28.7267 1.03225 29.1182 0.801615C29.63 0.922323 30.7332 2.70719 30.7819 3.21605C30.587 3.44581 30.0576 3.32283 29.7621 3.28829C29.7846 4.27712 29.8289 7.77389 29.0769 8.40566C28.7435 8.39253 28.4854 8.28576 28.1504 8.27696C28.1024 7.72564 28.3887 6.464 28.4448 5.83781C28.523 4.96638 28.5283 4.19623 28.5002 3.32033Z" fill="#0C0C0C"/>
<path d="M28.8016 4.94013C28.9545 4.35984 28.6551 3.51672 29.0484 3.12974C29.304 3.12564 29.237 3.13348 29.4837 3.28924C29.6504 4.87904 29.3843 6.84167 29.0769 8.40551C28.7435 8.39239 28.4854 8.28561 28.1504 8.27681C28.6215 7.9053 28.7458 5.57498 28.8016 4.94013Z" fill="#B5FE28"/>
<path d="M29.1285 1.03515C29.6126 1.56858 30.1401 2.46633 30.5004 3.08431C30.0796 3.04801 29.6278 2.86607 29.4837 3.28943C29.237 3.13367 29.304 3.12582 29.0485 3.12993C28.6551 3.51691 28.9545 4.36003 28.8016 4.94032C28.7959 4.27276 28.7868 3.6627 28.7446 2.99697L27.8147 3.0819C28.1836 2.45079 28.7107 1.61889 29.1285 1.03515Z" fill="#B5FE28"/>
<path d="M9.21697 6.28106C9.36036 6.2774 9.51042 6.27285 9.64904 6.31568C9.84191 6.3753 9.95854 6.51757 10.0415 6.69555C10.2832 7.21394 10.1236 8.00763 9.93163 8.51627C9.82798 8.79069 9.68569 9.08571 9.40574 9.21339C9.11119 9.21669 8.83468 9.03064 8.58082 8.89533C8.37109 8.76025 8.17683 8.59122 7.99569 8.42043C7.69843 8.14022 7.4467 7.68526 7.46415 7.26249C7.47148 7.08641 7.51246 7.04109 7.62784 6.92332C7.899 6.81383 8.27997 6.90983 8.56638 6.94598C8.78102 6.86429 9.02901 6.45509 9.21697 6.28106Z" fill="#0C0C0C"/>
<path d="M9.33512 6.47449C9.38673 6.47449 9.40249 6.47178 9.45872 6.4874C9.63209 6.5355 9.75663 6.64484 9.83236 6.80728C10.1023 7.38595 9.62468 8.48002 9.41305 9.03985C9.08493 8.90279 8.79676 8.746 8.49936 8.55115C8.31881 8.40148 8.11802 8.25085 7.98431 8.05593C7.80332 7.79222 7.74445 7.53702 7.80383 7.22293C7.90587 7.11513 7.92412 7.07428 8.08129 7.06856C8.3644 7.05822 8.62574 7.34701 8.8233 7.51986C8.9367 7.08374 9.01067 6.80237 9.33512 6.47449Z" fill="#B5FE28"/>
<path d="M27.3974 22.9835C27.4949 22.9815 27.5948 22.9781 27.6919 22.9868C28.0271 23.0172 28.0112 23.2689 28.2098 23.4636C28.3968 23.647 28.6572 23.4637 28.886 23.462C29.0232 23.4609 29.1823 23.5506 29.2762 23.646C29.408 23.78 29.4832 23.9302 29.4621 24.1217C29.4168 24.5333 29.0038 24.833 28.7021 25.0567C28.2747 25.2635 27.8639 25.4475 27.4084 25.5854C27.1838 25.0845 26.938 24.466 26.9501 23.9097C26.9594 23.4808 27.094 23.2733 27.3974 22.9835Z" fill="#0C0C0C"/>
<path d="M27.4557 23.1874L27.7915 23.2584C27.9922 23.4409 27.9799 23.5344 28.0342 23.7945C28.32 24.0861 28.6347 23.6161 29.12 23.7999C29.1587 23.8636 29.2059 23.9065 29.2001 23.9829C29.171 24.3666 28.9791 24.5272 28.7041 24.7598C28.3208 24.9694 27.9361 25.1476 27.5341 25.3178C27.394 24.9738 27.2627 24.6169 27.2012 24.249C27.1301 23.8242 27.2017 23.5295 27.4557 23.1874Z" fill="#B5FE28"/>
</svg>
