<svg width="32" height="32" viewBox="0 0 32 32" fill="none" xmlns="http://www.w3.org/2000/svg">
<path fill-rule="evenodd" clip-rule="evenodd" d="M14.9308 13.492L14.9456 13.4542C14.9795 13.368 15.0118 13.2859 15.0428 13.2096C15.0707 13.1408 15.2558 13.0057 15.4198 12.886C15.5202 12.8127 15.6128 12.7452 15.6565 12.7022C15.7306 12.6467 15.8049 12.5918 15.8789 12.5371L15.9109 12.5134L15.9119 12.5127C15.9306 12.4989 15.9493 12.4851 15.9679 12.4713C15.9808 12.4618 15.9938 12.4522 16.0067 12.4426C16.0352 12.4215 16.0636 12.4005 16.092 12.3794C16.3241 12.2068 16.5513 12.0336 16.764 11.8507C16.9251 11.712 17.078 11.5677 17.2183 11.4137C17.2384 11.3917 17.2582 11.3695 17.2777 11.3471C17.4061 11.1998 17.523 11.0434 17.6249 10.8746C17.6526 10.8286 17.6792 10.7818 17.7047 10.7339C17.7823 10.588 17.8489 10.433 17.9027 10.2669C17.9497 10.1214 17.9869 9.96733 18.0129 9.80351" fill="#1C1C1C"/>
<path fill-rule="evenodd" clip-rule="evenodd" d="M28.8096 27.588C28.83 27.5691 28.8513 27.5493 28.8726 27.5296C28.8512 27.5494 28.8302 27.5689 28.8096 27.588Z" fill="white"/>
<path fill-rule="evenodd" clip-rule="evenodd" d="M3.45416 21.9507C4.12884 22.1463 4.69589 22.2165 5.15848 22.2738C6.45851 22.4347 6.93363 22.4936 6.65442 24.9444L6.65411 24.9471C6.60146 25.4092 6.49155 26.3736 6.782 26.7343C7.31391 26.7782 8.54978 25.5781 9.73137 24.4308C10.5631 23.6231 11.3681 22.8415 11.8817 22.5382L11.9609 22.4924C12.4681 22.4547 13.1606 22.4607 13.7993 22.4663C14.1068 22.469 14.4018 22.4716 14.6576 22.4692C16.2202 22.4488 17.782 22.4 19.3429 22.3226C19.3513 21.9763 19.353 21.6459 19.3545 21.333C19.3673 18.7902 19.3743 17.3983 22.9484 17.9571C23.3441 18.019 23.715 18.0286 24.0804 18.0381C24.7436 18.0553 25.389 18.072 26.1336 18.4C26.3771 15.7423 26.6431 7.49951 25.9535 5.17995C25.645 4.14142 25.0713 3.35048 24.0983 2.84547C23.663 2.61939 23.2161 2.50585 22.7308 2.45275C20.301 2.18666 5.7397 2.0822 3.81854 2.71126C2.71038 3.07413 2.13669 3.91284 1.63556 4.90127C0.974327 7.49301 0.71162 18.3976 1.9507 20.4949C2.31175 21.1056 2.87464 21.5586 3.45416 21.9507ZM14.9308 13.492L14.9456 13.4542C14.9795 13.368 15.0118 13.2859 15.0428 13.2096C15.0707 13.1408 15.2558 13.0057 15.4198 12.886C15.5202 12.8127 15.6128 12.7452 15.6565 12.7022C15.7306 12.6467 15.8049 12.5918 15.8789 12.5371L15.9109 12.5134L15.9119 12.5127L15.9679 12.4713L16.0067 12.4426C16.0352 12.4215 16.0636 12.4005 16.092 12.3794C16.3241 12.2068 16.5513 12.0336 16.764 11.8507C16.9251 11.712 17.078 11.5677 17.2183 11.4137C17.2384 11.3917 17.2582 11.3695 17.2777 11.3471C17.4061 11.1998 17.523 11.0434 17.6249 10.8746C17.6526 10.8286 17.6792 10.7818 17.7047 10.7339C17.7823 10.588 17.8489 10.433 17.9027 10.2669C17.9497 10.1214 17.9869 9.96733 18.0129 9.80351C18.5024 6.70951 15.8199 5.31994 13.1475 5.49217C11.7108 5.72742 11.0012 6.08188 9.92386 7.37049C9.04333 8.31499 9.32017 9.97482 10.751 9.95681C11.148 9.95179 11.5148 9.27861 11.8144 8.72887C11.9767 8.43108 12.1192 8.16952 12.2361 8.06999C13.6795 6.84047 15.3163 7.49779 15.7165 9.18004C15.4137 10.4243 14.8147 10.8198 14.173 11.2435C13.7758 11.5057 13.3622 11.7788 12.9924 12.2707C12.6363 12.8741 12.2019 14.1934 12.4696 14.6306C12.5747 14.8027 12.6765 14.9457 12.775 15.0627C13.8245 16.3101 14.4977 14.5954 14.9308 13.492ZM13.3369 16.534C14.0906 16.4105 14.8027 16.9167 14.9345 17.6689C15.0654 18.4212 14.5668 19.1389 13.8155 19.2781C13.3227 19.3694 12.819 19.189 12.4963 18.8058C12.1737 18.4225 12.0811 17.8954 12.2554 17.4255C12.4288 16.9555 12.8416 16.6151 13.3369 16.534Z" fill="white"/>
<path fill-rule="evenodd" clip-rule="evenodd" d="M14.9456 13.4542L14.9308 13.492C14.4977 14.5954 13.8245 16.3101 12.775 15.0627C12.6765 14.9457 12.5747 14.8027 12.4696 14.6306C12.2019 14.1934 12.6363 12.8741 12.9924 12.2707C13.3622 11.7788 13.7758 11.5057 14.173 11.2435C14.8147 10.8198 15.4137 10.4243 15.7165 9.18004C15.3163 7.49779 13.6795 6.84047 12.2361 8.06999C12.1192 8.16952 11.9767 8.43108 11.8144 8.72887C11.5148 9.27861 11.148 9.95179 10.751 9.95681C9.32017 9.97482 9.04333 8.31499 9.92386 7.37049C11.0012 6.08188 11.7108 5.72742 13.1475 5.49217C15.8199 5.31994 18.5024 6.70951 18.0129 9.80351C17.9869 9.96733 17.9497 10.1214 17.9027 10.2669C17.8489 10.433 17.7823 10.588 17.7047 10.7339C17.6792 10.7818 17.6526 10.8286 17.6249 10.8746C17.523 11.0434 17.4061 11.1998 17.2777 11.3471C17.2582 11.3695 17.2384 11.3917 17.2183 11.4137C17.078 11.5677 16.9251 11.712 16.764 11.8507C16.5513 12.0336 16.3241 12.2068 16.092 12.3794C16.0636 12.4005 16.0352 12.4215 16.0067 12.4426L15.9679 12.4713L15.9119 12.5127L15.9109 12.5134L15.8789 12.5371C15.8049 12.5918 15.7306 12.6467 15.6565 12.7022C15.6128 12.7452 15.5202 12.8127 15.4198 12.886C15.2558 13.0057 15.0707 13.1408 15.0428 13.2096C15.0118 13.2859 14.9795 13.368 14.9456 13.4542Z" fill="#1C1C1C"/>
<path fill-rule="evenodd" clip-rule="evenodd" d="M20.8188 18.7118C21.7502 18.699 24.7203 18.9181 25.6242 19.0554C26.1228 19.4175 27.3119 20.7439 27.7413 21.2453C27.9458 21.4842 28.2717 21.8139 28.6403 22.1869C29.6123 23.1705 30.8826 24.4559 31.0174 25.1759C30.9042 25.6451 29.6423 26.8156 28.8743 27.528L28.8735 27.5287L28.8726 27.5296C28.7027 27.6871 28.5569 27.8225 28.4534 27.9224C28.2308 28.1301 28.0158 28.3437 27.8013 28.5568C27.3994 28.9561 26.9992 29.3538 26.5539 29.7075C26.1428 30.0341 25.5483 29.6949 25.2806 29.3634C24.7308 28.6822 23.9386 27.9098 23.1254 27.1168C21.9914 26.011 20.8165 24.8654 20.2017 23.8726C20.1161 22.8079 20.2205 21.0203 20.2922 19.7916C20.2994 19.6676 20.3063 19.5494 20.3126 19.4382C20.3339 19.069 20.5258 18.9276 20.802 18.7242L20.8188 18.7118ZM23.6038 20.1598C23.2511 19.7957 22.73 19.6504 22.2397 19.7799C21.5026 19.9748 21.0573 20.7234 21.2374 21.464C21.4175 22.2046 22.1571 22.6649 22.9017 22.4994C23.3962 22.3894 23.7931 22.0206 23.939 21.5353C24.0841 21.0501 23.9565 20.524 23.6038 20.1598ZM28.3158 24.3688C28.5568 24.4656 28.586 24.48 28.7611 24.6705C28.9912 25.5146 26.8524 27.2329 26.1662 27.6761C25.8852 27.5728 25.485 27.3472 25.6626 27.0008C26.1003 26.1447 27.5429 24.837 28.3158 24.3688Z" fill="white"/>
<path fill-rule="evenodd" clip-rule="evenodd" d="M1.62717 21.6536C2.49102 22.9181 4.26042 23.2587 5.68295 23.3416C5.6803 23.4862 5.67271 23.6729 5.664 23.8873C5.61786 25.0233 5.54023 26.9345 5.99897 27.456C6.9115 28.4941 8.4416 26.9999 9.28726 26.1741C9.3882 26.0755 9.47939 25.9865 9.55861 25.9124C9.85459 25.6355 10.1494 25.3548 10.4445 25.0738C11.0299 24.5164 11.6177 23.9568 12.2236 23.4184C13.5735 23.4196 14.9235 23.4119 16.2735 23.3952C16.5188 23.3897 16.7675 23.3807 17.0176 23.3717C17.6982 23.3471 18.3894 23.3221 19.0535 23.3666C19.2485 23.3797 19.3836 23.7578 19.5211 24.1425C19.6246 24.4322 19.7294 24.7258 19.8623 24.8703C20.7498 25.835 21.644 26.7843 22.5395 27.7351C23.0329 28.2589 23.527 28.7835 24.0207 29.3114L24.0603 29.3538L24.105 29.4018C24.9874 30.3481 25.9387 31.3683 27.2251 30.2548C27.5414 29.9557 27.864 29.6544 28.1888 29.351C29.3307 28.2843 30.5013 27.1908 31.5335 26.0695C32.557 24.9582 31.1187 23.5109 30.2156 22.6022C30.0895 22.4752 29.9738 22.3588 29.8767 22.2553C29.5761 21.9376 29.2741 21.6259 28.9731 21.3153C28.3107 20.6316 27.6533 19.9531 27.0266 19.2269C27.2593 16.0973 27.6603 7.15289 26.7506 4.54231C26.3554 3.40958 25.5232 2.43474 24.4301 1.9229C23.8922 1.67123 23.3427 1.56135 22.7566 1.50142C20.0875 1.22824 5.40278 1.03509 3.42242 1.79402C2.25922 2.23992 1.3887 3.1184 0.895071 4.24896C0.683277 4.78948 0.529849 5.30291 0.443964 5.87953C0.0112031 8.77896 -0.153069 18.1822 0.947593 20.6672C1.10185 21.0147 1.33033 21.4096 1.62717 21.6536ZM5.15848 22.2738C4.69589 22.2165 4.12884 22.1463 3.45416 21.9507C2.87464 21.5586 2.31175 21.1056 1.9507 20.4949C0.71162 18.3976 0.974327 7.49301 1.63556 4.90127C2.13669 3.91284 2.71038 3.07413 3.81854 2.71126C5.7397 2.0822 20.301 2.18666 22.7308 2.45275C23.2161 2.50585 23.663 2.61939 24.0983 2.84547C25.0713 3.35048 25.645 4.14142 25.9535 5.17995C26.6431 7.49951 26.3771 15.7423 26.1336 18.4C25.389 18.072 24.7436 18.0553 24.0804 18.0381C23.715 18.0286 23.3441 18.019 22.9484 17.9571C19.3743 17.3983 19.3673 18.7902 19.3545 21.333C19.353 21.6459 19.3513 21.9763 19.3429 22.3226C17.782 22.4 16.2202 22.4488 14.6576 22.4692C14.4018 22.4716 14.1068 22.469 13.7993 22.4663C13.1606 22.4607 12.4681 22.4547 11.9609 22.4924L11.8817 22.5382C11.3681 22.8415 10.5631 23.6231 9.73137 24.4308C8.54978 25.5781 7.31391 26.7782 6.782 26.7343C6.49155 26.3736 6.60146 25.4092 6.65411 24.9471L6.65442 24.9444C6.93363 22.4936 6.45851 22.4347 5.15848 22.2738ZM25.6242 19.0554C24.7203 18.9181 21.7502 18.699 20.8188 18.7118L20.802 18.7242C20.5258 18.9276 20.3339 19.069 20.3126 19.4382C20.3063 19.5494 20.2994 19.6676 20.2922 19.7916C20.2205 21.0203 20.1161 22.8079 20.2017 23.8726C20.8165 24.8654 21.9914 26.011 23.1254 27.1168C23.9386 27.9098 24.7308 28.6822 25.2806 29.3634C25.5483 29.6949 26.1428 30.0341 26.5539 29.7075C26.9992 29.3538 27.3994 28.9561 27.8013 28.5568C28.0158 28.3437 28.2308 28.1301 28.4534 27.9224C28.5569 27.8225 28.7027 27.6871 28.8726 27.5296L28.8735 27.5287L28.8743 27.528C29.6423 26.8156 30.9042 25.6451 31.0174 25.1759C30.8826 24.4559 29.6123 23.1705 28.6403 22.1869C28.2717 21.8139 27.9458 21.4842 27.7413 21.2453C27.3119 20.7439 26.1228 19.4175 25.6242 19.0554Z" fill="#1C1C1C"/>
<path d="M22.8417 20.638C22.6599 20.5529 22.4465 20.5735 22.2847 20.6917C22.0446 20.8667 21.987 21.2003 22.1546 21.4455C22.3214 21.6906 22.6533 21.7588 22.9034 21.5995C23.0727 21.4917 23.1703 21.3004 23.1569 21.1004C23.1444 20.9002 23.0235 20.723 22.8417 20.638Z" fill="#F2F2F2"/>
<path fill-rule="evenodd" clip-rule="evenodd" d="M22.2397 19.7799C22.73 19.6504 23.2511 19.7957 23.6038 20.1598C23.9565 20.524 24.0841 21.0501 23.939 21.5353C23.7931 22.0206 23.3962 22.3894 22.9017 22.4994C22.1571 22.6649 21.4175 22.2046 21.2374 21.464C21.0573 20.7234 21.5026 19.9748 22.2397 19.7799ZM22.2847 20.6917C22.4465 20.5735 22.6599 20.5529 22.8417 20.638C23.0235 20.723 23.1444 20.9002 23.1569 21.1004C23.1703 21.3004 23.0727 21.4917 22.9034 21.5995C22.6533 21.7588 22.3214 21.6906 22.1546 21.4455C21.987 21.2003 22.0446 20.8667 22.2847 20.6917Z" fill="#1C1C1C"/>
<path d="M28.7611 24.6705C28.586 24.48 28.5568 24.4656 28.3158 24.3688C27.5429 24.837 26.1003 26.1447 25.6626 27.0008C25.485 27.3472 25.8852 27.5728 26.1662 27.6761C26.8524 27.2329 28.9912 25.5146 28.7611 24.6705Z" fill="#B5FE28"/>
<path d="M14.9345 17.6689C14.8027 16.9167 14.0906 16.4105 13.3369 16.534C12.8416 16.6151 12.4288 16.9555 12.2554 17.4255C12.0811 17.8954 12.1737 18.4225 12.4963 18.8058C12.819 19.189 13.3227 19.3694 13.8155 19.2781C14.5668 19.1389 15.0654 18.4212 14.9345 17.6689Z" fill="#1C1C1C"/>
</svg>
