<svg width="408" height="301" viewBox="0 0 408 301" fill="none" xmlns="http://www.w3.org/2000/svg">
<g clip-path="url(#clip0_923_53022)">
<path d="M295.647 47.6739C293.666 42.6057 287.033 28.6228 288.101 24.2041C289.197 19.6689 312.565 12.8009 316.864 14.6273C322.655 17.0874 321.712 32.9667 329.167 33.1843C330.343 33.2186 334.591 40.9172 335.375 42.8208C338.051 44.3116 340.515 45.4997 342.387 47.9518C344.305 52.6499 345.156 56.1781 346.194 61.1408C347.503 71.4851 348.032 79.4333 342.446 88.8365C343.084 90.2649 343.955 92.0852 344.443 93.5217C343.063 98.5228 338.856 103.429 339.402 106.827L339.802 108.244C339.832 110.791 339.815 111.861 339.41 114.385L339.119 115.458C334.712 127.276 323.238 141.411 316.355 152.563C309.146 164.235 290.656 174.018 279.458 182.709C292.937 188.574 287.304 217.993 287.196 229.517C287.183 230.849 287.704 232.03 289.247 231.748C290.881 229.85 290.856 224.898 292.328 223.256C293.779 221.639 301.042 220.415 303.026 220.362C309.593 220.189 324.418 218.787 323.922 228.351C323.889 228.944 328.888 229.502 329.471 229.861C330.755 230.411 331.606 230.97 332.769 231.759C338.072 231.674 343.375 231.65 348.679 231.687L353.277 231.696C357.905 231.714 375.582 231.308 378.421 232.896C379.71 234.862 379.218 240.832 379.159 243.323L368.244 251.249L367.127 327.379C367.027 335.683 367.236 344.29 367.019 352.542C374.044 353.364 388.252 353.701 386.822 363.466C386.097 368.448 382.299 372.407 378.175 375.222C360.235 386.898 335.929 394.181 314.721 397.215C299.103 399.447 281.947 399.309 266.271 399.815C252.863 400.341 239.53 400.438 226.122 400.559C212.983 400.681 199.775 399.176 186.759 399.208C166.569 399.261 146.794 398.416 126.646 397.441C114.485 396.855 101.604 398.068 89.3774 397.801C75.0825 397.579 60.7218 397.453 46.4378 396.96C34.9872 396.563 23.0038 396.972 11.6932 395.294C3.5158 394.08 -0.356522 391.476 -0.173495 383.505C4.51432 376.383 11.3134 373.9 19.5659 371.639C19.5867 369.475 19.5229 364.841 19.816 362.92C20.1291 351.01 19.6576 338.435 19.4437 326.502L18.8254 280.349C15.1249 280.219 10.801 280.913 7.2297 280.173C5.85137 279.887 4.59436 279.263 3.86517 278.046C2.72866 276.147 2.57899 271.317 3.2694 269.21C4.32004 266.004 28.9186 251.841 33.4233 249.418C33.2474 247.988 32.8005 243.909 32.4357 242.689C30.7763 237.139 28.4308 233.56 29.5339 227.527C30.3828 226.096 31.7261 225.518 33.2028 224.675C29.8937 220.775 22.0995 210.133 26.6902 205.497C27.9284 205.477 34.4377 211.731 36.1929 212.986C36.0562 212.668 35.9273 212.347 35.8069 212.022C34.1229 207.554 30.5866 190.153 36.4235 188.256C39.0321 189.427 42.6697 197.97 44.1106 200.936C44.5038 194.203 46.462 187.252 50.6787 181.812C54.6315 186.567 56.363 192.719 57.3536 198.653C58.6118 195.895 60.1999 191.055 63.4193 190.239L64.3469 190.78C66.4753 193.968 66.0096 200.676 65.8741 204.443C66.1055 204.11 66.3415 203.78 66.5808 203.453C67.9345 201.607 70.2409 198.162 72.5306 197.786C76.0865 199.788 72.3563 212.051 70.4789 215.166L70.692 215.57C72.2533 215.362 73.0947 215.172 74.6502 215.461C76.9512 217.95 71.0068 223.326 71.2623 225.185C75.3135 228.738 72.5231 229.323 73.7951 231.671C76.2624 230.7 78.0556 230.994 80.6826 231.155C79.5848 216.381 80.5471 198.969 80.3499 183.913C80.2932 179.612 80.3132 163.96 80.9252 160.166L74.6081 159.173C73.9602 160.156 71.1331 162.556 71.0193 162.898C69.6826 166.918 71.2982 193.495 68.3314 195.042C65.1999 191.177 71.8147 163.647 66.778 162.186C64.8993 163.512 66.2718 185.21 64.1626 187.374L63.4476 187.098C62.3432 184.04 63.8821 165.74 64.1439 160.97C59.4106 154.231 64.8414 143.863 74.7415 152.287C76.5392 152.504 78.5917 152.869 80.4053 153.147C80.5608 149.462 81.388 145.361 78.3808 142.709C76.7123 141.238 76.9111 139.424 76.8144 137.349C76.5184 137.243 76.2245 137.133 75.9331 137.017C50.2426 126.877 49.8582 92.5455 58.4692 70.8393C68.8626 44.6399 101.45 35.6525 113.815 66.2665C115.423 67.4037 115.847 67.6294 116.431 69.4796C120.742 83.1236 120.863 103.657 114.081 116.5C113.852 116.935 113.603 117.359 113.336 117.773C111.042 121.637 107.301 128.267 102.689 129.633C99.1453 132.876 96.0068 134.968 91.5208 136.937C91.7626 141.67 92.0828 141.255 88.5536 143.963C86.8163 145.297 87.4012 151.591 87.485 153.854C93.6199 155.238 115.349 158.192 121.503 159.933C120.738 159.716 131.077 170.813 131.397 171.21C134.138 166.692 140.274 155.658 145.846 153.795C149.592 152.797 158.283 158.915 158.261 162.798C157.962 168.875 152.233 174.33 149.459 179.354C146.846 184.083 144.616 187.713 140.548 191.344C135.467 195.879 133.428 205.677 125.367 201.06L123.604 203.213C123.431 203.393 123.259 203.572 123.086 203.752L122.839 203.987C118.861 207.868 110.48 209.162 106.96 203.594C99.0536 191.088 108.912 174.189 98.2469 163.07L87.2582 161.064C87.7793 178.841 87.2057 196.838 87.5008 214.635C87.5901 220.037 87.6121 225.796 87.1919 231.168L135.661 231.258C132.056 218.576 142.932 203.536 148.606 192.689C154.819 180.777 164.059 169.512 173.559 163.088C173.726 162.975 169.602 148.727 190.858 142.202C189.65 141.179 188.272 139.879 186.843 139.25C185.929 141.1 185.029 142.941 183.103 143.903C180.752 143.847 180.159 141.3 179.721 139.37C173.585 137.024 173.042 136.893 170.388 131.182C165.283 129.883 166.799 128.73 164.275 125.278C163.947 124.829 160.875 124.706 159.086 122.225C155.451 117.185 158.881 115.534 159.667 110.531C159.747 110.021 156.977 105.838 156.858 105.053C154.128 98.0286 160.864 96.2213 161.777 94.1134C160.053 92.2413 160.047 92.2215 160.355 89.9709C161.087 89.8524 160.673 90.0049 161.228 90.9589C161.772 91.8911 164.682 93.5181 165.837 94.3176L166.767 93.6928C161.487 88.4187 168.076 80.6611 174.197 80.359C175.064 80.3266 177.118 80.8293 177.695 80.1434C179.1 78.4736 180.001 76.5238 181.423 74.7876C185.196 70.1797 191.364 71.5543 195.814 74.6283C204.026 65.8681 209.608 67.9873 216.064 76.0765C216.512 76.6383 221.173 76.7317 222.052 77.0949C224.617 78.0631 227.402 81.1496 227.577 83.9054C227.739 86.397 226.513 88.7742 227.406 90.7737C228.89 91.7184 230.537 92.4565 230.779 94.2505C231.316 98.2175 228.41 105.691 225.313 108.041C228.452 117.455 229.949 123.032 228.348 132.971C236.261 132.81 242.252 133.585 245.179 141.731C253.534 139.33 261.639 136.183 269.393 132.332C274.117 129.965 277.161 126.854 282.564 126.522C284.715 121.577 285.862 120.339 290.022 116.524L292.432 114.3C294.263 112.554 296.014 110.668 297.76 108.839L299.203 107.228C305.774 97.731 307.621 93.089 319.223 89.4609C321.787 85.1757 323.034 81.1626 328.366 80.4787C329.142 79.049 329 79.6856 328.908 78.0663C326.19 75.0554 316.413 83.0237 311.585 80.4916C306.928 78.0485 301.563 62.0645 299.657 57.2523C298.544 54.4476 297.36 51.6676 296.118 48.9143L295.647 47.6739Z" fill="#020202"/>
<path d="M20.5469 281.373L28.9561 281.48L29.0049 288.527C29.0566 298.888 29.3638 309.637 29.1604 319.937C28.7047 343.027 27.7895 365.424 28.56 388.516L22.2333 388.116C21.7484 370.289 22.0157 352.659 21.6175 334.899C21.3153 325.059 21.1001 315.216 20.9709 305.373C20.9454 302.224 20.7424 296.877 20.9417 293.857C20.5944 289.955 20.6203 285.34 20.5469 281.373Z" fill="#FCFDFA"/>
<path d="M30.579 281.241C31.6605 281.266 32.526 281.266 33.5375 281.698C33.6671 281.98 33.7768 282.2 33.8076 282.512C34.2037 286.495 33.5816 291.027 33.5562 295.073C33.5166 306.8 33.3932 318.526 33.186 330.251L33.0943 366.638C33.1147 372.567 33.4933 378.698 33.1401 384.611C33.0601 385.958 32.6061 386.346 31.7839 387.377C31.3207 387.656 31.0276 387.693 30.4873 387.729C29.0193 384.995 30.9551 325.663 30.9834 317.081C31.0226 305.129 30.7012 293.192 30.579 281.241Z" fill="#E0E0DE"/>
<path d="M49.0913 203.115C49.2652 203.217 49.5245 203.352 49.6842 203.494C53.7212 207.088 54.7335 217.978 54.8031 223.066C53.2943 224.818 51.9589 226.676 50.6089 228.543L50.0352 228.707C48.764 227.93 47.605 225.86 46.9688 224.522C43.6818 217.606 46.6153 209.778 49.0913 203.115Z" fill="#1BC3D8"/>
<path d="M27.8271 211.658C27.4498 210.435 26.7682 208.969 27.5399 207.895C28.8778 208.349 30.4178 210.227 31.4472 211.317C38.5948 216.082 42.5072 217.156 45.2809 225.358C46.4174 226.893 47.4973 228.356 48.7159 229.837L43.4277 228.505C42.8586 228.303 42.2987 228.078 41.7501 227.829C35.0277 224.754 30.3178 218.286 27.8271 211.658Z" fill="#1BC3D8"/>
<path d="M27.8271 211.658C27.4498 210.435 26.7682 208.969 27.5399 207.895C28.8778 208.349 30.4178 210.227 31.4472 211.317C30.1639 211.687 29.1496 211.637 27.8271 211.658Z" fill="#A4E7EF"/>
<path d="M45.28 225.358C46.4165 226.893 47.4963 228.356 48.7149 229.837L43.4268 228.505C43.9971 227.462 44.6667 226.385 45.28 225.358Z" fill="#A4E7EF"/>
<path d="M35.843 194.984C35.9268 193.519 35.8176 192.246 36.6135 191.06C38.0335 191.297 39.0625 194.001 39.6816 195.252L44.1172 204.495C45.2587 206.425 45.7823 206.977 45.1841 209.081C44.9914 209.746 44.7796 210.406 44.5487 211.06C44.2239 213.442 43.975 215.833 43.8024 218.23C37.1584 212.702 34.2316 203.269 35.843 194.984Z" fill="#1BC3D8"/>
<path d="M35.8438 194.984C35.9276 193.519 35.8183 192.246 36.6142 191.06C38.0342 191.297 39.0632 194.001 39.6823 195.252C38.1893 195.725 37.9325 195.826 36.3149 195.67L35.8438 194.984Z" fill="#A4E7EF"/>
<path d="M44.5486 211.06C44.0087 209.014 43.0756 206.398 44.1171 204.495C45.2586 206.425 45.7822 206.976 45.184 209.081C44.9913 209.746 44.7796 210.406 44.5486 211.06Z" fill="#1BC3D8"/>
<path d="M50.5924 185.447L51.3962 185.232C56.1024 191.177 56.4405 204.917 55.8335 212.258C54.8958 209.927 53.7822 206.936 52.742 204.704C51.6747 202.899 51.1911 201.82 49.3442 200.819C48.4257 201.652 46.5066 204.573 45.777 205.643C45.7332 200.638 46.3686 198.224 47.5727 193.374C48.5116 190.567 49.4659 188.188 50.5924 185.447Z" fill="#1BC3D8"/>
<path d="M50.5928 185.447L51.3966 185.232C56.1027 191.177 56.4409 204.917 55.8338 212.258C54.8962 209.927 53.7826 206.936 52.7424 204.704C56.7415 200.344 52.0253 190.513 50.5928 185.447Z" fill="#A4E7EF"/>
<path d="M47.5727 193.374C49.3075 196.767 46.4733 198.666 49.4104 200.733L49.3442 200.819C48.4257 201.652 46.5066 204.573 45.777 205.643C45.7332 200.638 46.3686 198.224 47.5727 193.374Z" fill="#1BC3D8"/>
<path d="M72.0586 199.579C72.5064 199.986 72.6415 200.31 72.7386 200.891C73.5216 205.567 70.2129 212.834 67.5601 216.692C63.7303 217.612 60.6947 219.168 57.3765 221.151C57.0963 220.828 56.9954 220.806 56.9454 220.367C56.8407 219.448 56.7974 218.708 57.2322 217.851C59.2034 213.967 63.4843 210.271 66.3152 206.887C68.3064 204.506 70.0532 201.955 72.0586 199.579Z" fill="#1BC3D8"/>
<path d="M70.6786 217.566C72.2174 217.254 72.4071 216.935 73.5928 217.48C73.5257 218.777 72.5367 219.901 71.7579 221.048C65.8323 229.141 62.2468 227.87 53.6187 229.865L52.7645 229.57L52.5894 228.917C53.3819 227.192 55.2255 225.722 56.6689 224.388C60.1923 220.781 65.9378 218.977 70.6786 217.566Z" fill="#1BC3D8"/>
<path d="M53.6187 229.867L52.7645 229.572L52.5894 228.919C53.3819 227.194 55.2255 225.724 56.6689 224.39C56.8924 226.49 55.125 228.498 53.6187 229.867Z" fill="#A4E7EF"/>
<path d="M70.6787 217.566C72.2176 217.254 72.4072 216.935 73.593 217.48C73.5258 218.777 72.5369 219.901 71.7581 221.048C71.6072 219.877 71.094 218.692 70.6787 217.566Z" fill="#A4E7EF"/>
<path d="M62.9178 192.22L63.7742 193.093C65.1362 197.556 64.706 202.925 63.8029 207.461C61.6575 209.688 59.5837 211.919 57.6342 214.31L57.1602 214.581L56.7695 214.3C57.6175 210.467 57.362 206.872 58.009 203.088C58.6273 199.47 61.1672 195.444 62.9178 192.22Z" fill="#1BC3D8"/>
<path d="M35.1569 225.958C36.5736 226.826 39.4295 228.108 40.2166 229.499L38.802 229.533C37.0606 229.223 33.5247 229.011 32.354 227.857C33.0498 226.797 34.025 226.525 35.1569 225.958Z" fill="#D7D7D5"/>
<path d="M69.4333 226.261L70.8166 227.115L70.8562 227.822L69.5542 228.815L68.0841 228.32L67.9141 227.717L69.4333 226.261Z" fill="#E0E0DE"/>
<path d="M282.593 282.161L300.104 282.311L300.909 350.586C292.32 350.821 278.537 351.422 270.178 349.611C269.84 349.183 269.435 348.673 268.969 348.083C269.64 344.837 268.518 342.494 263.628 342.174C255.761 341.659 244.55 340.797 236.391 341.283C236.295 331.343 236.366 320.825 235.903 310.936C248.248 310.959 255.998 308.539 266.363 301.883C272.517 297.932 282.631 292.224 282.652 284.113C282.652 283.462 282.631 282.811 282.593 282.161Z" fill="#FCFDFA"/>
<path d="M35.5814 280.296C48.9165 280.316 62.2512 280.487 75.5821 280.809C75.6697 303.402 75.2703 329.018 76.2096 351.38C65.8346 352.162 54.1476 357.482 44.3505 360.844C42.1412 361.604 37.2883 363.614 35.1104 364.083L35.5814 280.296Z" fill="#FCFDFA"/>
<path d="M91.4124 281.008C110.875 281.302 130.715 280.568 149.939 281.03C147.573 282.797 143.938 285.481 142.503 287.987C134.499 301.973 132.161 318.383 126.54 333.278C124.768 337.972 124.238 345.045 127.128 349.38C125.811 351.476 110.497 349.927 107.392 349.804C103.002 349.145 96.3887 349.911 91.1768 349.703C91.183 345.318 91.4299 339.236 90.9771 335.015C90.3667 317.313 91.6221 298.662 91.4124 281.008Z" fill="#FCFDFA"/>
<path d="M316.684 282.185C317.735 282.171 321.145 282.139 321.929 281.786C331.597 277.436 343.909 268.467 352.393 262.293C352.23 272.098 352.451 281.831 352.51 291.631C352.622 310.907 352.009 330.01 352.497 349.303C352.405 350.462 352.26 351.399 352.076 352.536C342.137 351.651 326.636 350.926 316.713 351.028C316.759 347.921 316.805 345.434 316.538 342.338L316.684 282.185Z" fill="#FCFDFA"/>
<path d="M196.045 77.7079C198.586 74.7011 200.874 71.8042 205.146 71.42C210.585 70.931 212.613 75.0109 213.948 79.1137L219.295 78.1188C224.603 80.6517 227.454 84.0873 224.307 89.7597C224.082 90.1629 223.852 90.5629 223.619 90.9597C225.478 91.8991 228.426 93.3462 229.243 95.3513C229.289 97.3475 226.458 100.397 226.27 101.53C225.995 103.189 227.208 103.475 225.145 105.613C224.186 104.779 221.855 99.0627 221.055 97.3912C222.589 95.9583 222.097 97.5566 223.394 95.2943L223.002 94.7042C221.651 94.7107 220.459 95.3359 219.216 95.8653C217.507 95.2077 215.349 94.4446 213.757 93.6329C213.101 92.5305 212.652 91.5141 211.472 90.95L210.83 91.2703C209.382 95.9005 209.655 96.2196 204.516 96.8274C204.219 97.6322 204.431 98.1301 204.617 98.9721C203.777 99.7001 204.18 99.499 202.976 99.6175C200.551 98.4427 199.276 86.3456 193.178 92.2247C191.874 95.2542 194.287 98.3149 190.353 100.054C188.289 100.967 183.808 99.2839 183.587 100.454C182.393 106.787 187.852 109.139 177.718 112.815C180.32 115.459 184.277 119.84 183.058 123.878C181.198 124.918 176.56 121.34 173.708 123.482C171.185 125.376 172.599 128.377 169.346 128.79C165.73 127.172 167.881 123.735 166.01 123.192C157.839 120.82 157.354 117.578 163.594 110.276C159.139 106.593 156.097 103.615 160.537 98.3513C162.283 96.2811 164.51 95.7424 165.836 94.316L166.766 93.6911L167.526 93.2531C166.342 77.7884 176.591 84.3745 179.112 82.8368C181.358 78.8836 182.912 72.5633 189.046 73.8861C192.153 74.5559 193.64 75.7675 196.045 77.7079Z" fill="#E0E0DE"/>
<path d="M165.203 98.0077C165.685 98.2406 165.698 98.3235 165.96 98.7902C165.034 99.8094 163.876 101.493 163.906 102.904L163.961 105.196C163.417 104.866 162.759 104.389 162.404 103.863C162.011 103.28 161.861 102.451 161.997 101.772C162.347 100.032 163.831 98.9917 165.203 98.0077Z" fill="#020202"/>
<path d="M178.96 103.315C179.305 103.498 179.736 103.714 179.991 104.01C180.568 104.68 180.762 105.467 180.67 106.311C180.501 107.861 179.281 108.795 178.124 109.702C177.63 109.457 177.341 109.155 176.958 108.774C177.044 108.697 177.132 108.623 177.216 108.544C178.862 107.003 178.913 105.354 178.96 103.315Z" fill="#020202"/>
<path d="M113.814 66.2665C115.422 67.4037 115.846 67.6294 116.43 69.4796C120.741 83.1236 120.862 103.657 114.08 116.5C113.851 116.935 113.602 117.359 113.335 117.773C112.52 116.866 112.477 115.915 112.235 114.702C118.806 99.2783 119.368 82.062 113.814 66.2665Z" fill="#A4E7EF"/>
<path d="M112.236 114.702C112.478 115.915 112.521 116.866 113.336 117.773C111.042 121.637 107.301 128.267 102.688 129.634C107.372 124.082 108.99 121.222 112.236 114.702Z" fill="#A4E7EF"/>
<path d="M122.177 201.882C121.324 202.676 121.24 202.848 120.148 203.163L119.712 202.706C119.904 200.383 121.162 199.173 123.509 199.628L122.177 201.882Z" fill="#FCFDFA"/>
<path d="M123.509 199.627C124.216 200.098 124.805 200.428 125.368 201.061L123.604 203.215L122.177 201.882L123.509 199.627Z" fill="#020202"/>
<path d="M326.765 82.4327C327.691 89.5995 330.176 92.2994 337.147 95.151C338.468 95.0875 339.527 95.0604 340.866 95.0827C341.391 96.2587 337.559 102.751 336.851 104.515C337.409 108.496 337.797 111.982 336.359 115.937C333.565 123.624 327.478 131.039 323.092 137.96C319.795 143.162 316.509 148.261 312.957 153.161C305.599 163.301 293.937 168.926 283.948 176.292C278.849 180.052 274.075 184.607 269.439 188.98L270.023 188.428C268.255 207.089 269.564 212.951 272.191 231.368C264.657 231.353 256.919 231.424 249.402 231.26C247.059 229.167 244.428 226.853 242.878 224.123C241.977 222.902 240.443 219.156 239.755 217.602C232.204 219.035 223.975 219.405 216.466 221.354C223.845 221.562 231.762 220.034 238.975 218.587C240.151 224.18 242.711 227.438 246.784 231.26C239.759 231.186 232.534 231.292 225.492 231.312C224.546 230.026 222.144 227.395 220.723 226.766C216.008 224.681 212.405 212.817 207.46 212.623C206.034 213.238 206.453 212.859 205.667 213.982C205.602 216.708 208.634 221.002 210.148 223.503C206.37 224.035 203.124 224.708 199.388 225.502C197.743 224.285 197.403 224.121 195.481 223.363C194.011 223.125 192.915 223.075 191.846 222.061C187.967 218.384 187.456 217.525 182.467 215.652C182.394 209.739 181.923 203.232 181.599 197.279C181.446 195.79 181.66 195.588 180.842 194.45C179.941 195.559 179.876 196.59 179.818 198.073C179.994 203.839 180.103 209.563 180.652 215.309C176.457 214.438 173.694 215.157 170.924 211.976C168.677 210.672 162.45 208.804 160.347 210.5C161.716 211.795 166.962 211.72 171.317 213.986C168.485 213.967 160.16 213.915 158.288 216.127L158.544 216.915C160.175 217.385 163.519 216.055 165.388 216.054C173.277 216.049 186.788 215.953 190.053 224.549L196.305 225.502C191.977 229.328 190.649 232.173 190.353 237.891L191.476 241.237C185.832 240.709 183.303 242.082 183.338 235.403C183.633 231.814 187.536 226.276 187.077 224.864C183.34 225.901 181.557 231.721 180.814 235.004C181.474 238.269 181.263 238.278 182.722 241.47C181.308 242.067 178.03 243.387 176.476 243.271C160.019 242.042 132.229 245.02 137.979 220.03C140.157 213.154 143.381 207.532 146.741 201.207C153.552 188.387 162.418 172.799 175.154 164.685C181.644 167.854 186.372 166.553 193.245 167.624C195.951 168.045 200.185 170.163 202.151 169.937C201.958 168.796 201.182 168.442 200.091 167.653C194.902 163.111 180.221 166.886 176.12 162.279C170.597 156.076 187.365 143.522 193.538 143.636C196.348 146.776 197.367 152.794 197.608 156.886C194.029 155.828 190.1 154.935 187.325 152.555C187.141 152.397 187.03 152.358 186.794 152.233C185.831 156.13 194.935 158.06 197.965 159.297C204.126 161.81 208.337 165.302 212.986 169.806C214.055 167.829 215.054 165.648 215.91 163.65C219.355 155.609 224.858 149.125 231.596 143.524C232.238 142.988 231.754 141.457 231.596 140.805C229.907 140.125 228.373 137.619 227.264 136.113C228.181 135.15 228.215 135.056 229.711 135.05C233.955 135.053 243.115 136.755 243.086 142.167C243.073 144.352 240.584 147.384 238.817 148.599C231.858 153.387 224.804 157.09 221.773 165.403L222.62 165.779C223.845 165.259 226.122 161.268 228.181 159.344C233.868 154.029 239.346 152.156 244.649 146.306L245.529 143.789C254.226 141.358 262.673 138.146 270.761 134.195C274.672 132.246 277.565 130.034 281.73 128.229C281.626 130.646 280.021 137.763 280.775 139.185L281.276 139.145C282.689 136.881 283.973 128.735 285.378 125.926C288.526 120.262 294.529 115.734 298.986 110.82C305.49 103.652 309.897 92.5757 320.858 91.6427C322.792 88.3697 324.622 85.5897 326.765 82.4327Z" fill="#FCFDFA"/>
<path d="M337.147 95.1498C338.468 95.0863 339.527 95.0592 340.865 95.0814C341.391 96.2575 337.559 102.749 336.851 104.514C337.409 108.494 337.797 111.981 336.359 115.936C333.565 123.623 327.478 131.037 323.092 137.958C319.794 143.16 316.509 148.26 312.957 153.159C305.598 163.3 293.937 168.925 283.948 176.29C278.849 180.051 274.075 184.605 269.439 188.979L270.023 188.426C268.255 207.088 269.564 212.949 272.191 231.367C264.657 231.351 256.919 231.422 249.402 231.258C247.059 229.166 244.428 226.851 242.877 224.122C245.296 224.302 247.622 227.584 250.34 227.35C260.113 226.506 259.679 201.375 261.134 194.477C261.876 190.954 262.068 188.77 263.619 185.418C271.049 169.365 295.897 161.973 306.524 149.779C315.25 139.769 328.083 123.349 331.693 110.859C332.085 109.504 331.889 106.94 331.777 105.479C333.111 105.559 333.832 105.753 334.491 104.566C333.594 103.392 333.757 103.718 332.102 103.163C334.499 101.148 336.017 97.9997 337.147 95.1498Z" fill="#D7D7D5"/>
<path d="M182.722 241.47C181.308 242.068 178.03 243.387 176.476 243.271C160.019 242.042 132.229 245.021 137.979 220.03C140.679 226.168 143.886 230.533 150.587 233.17C157.893 236.045 172.815 239.259 180.486 237.412C180.539 236.385 180.579 236.005 180.814 235.004C181.474 238.269 181.263 238.278 182.722 241.47Z" fill="#E0E0DE"/>
<path d="M220.214 164.827C220.648 166.548 220.969 167.988 221.286 169.733C223.796 179.693 225.818 188.014 223.825 198.316C223.208 201.528 226.093 202.787 224.183 205.527L223.237 205.695C218.509 203.485 220.71 188.101 219.922 183.016C219.293 178.944 216.929 170.288 217.408 166.79C218.075 165.629 218.98 165.378 220.214 164.827Z" fill="#020202"/>
<path d="M219.08 167.226C219.905 168.553 220.068 170.659 220.439 172.196C222.74 181.727 223.633 190.653 222.165 200.415C222.132 200.346 222.098 200.276 222.061 200.207C220.06 196.49 221.911 188.375 221.569 183.908C221.169 178.612 217.746 172.433 219.08 167.226Z" fill="#FCFDFA"/>
<path d="M181.598 197.279C184.226 199.478 188.664 212.304 190.792 216.114C192.604 219.358 192.895 220.08 195.48 223.363C194.01 223.125 192.914 223.075 191.845 222.061C187.967 218.384 187.455 217.525 182.467 215.652C182.393 209.739 181.922 203.232 181.598 197.279Z" fill="#E0E0DE"/>
<path d="M221.774 165.4L222.62 165.776C223.846 165.256 226.122 161.265 228.182 159.341C233.868 154.026 239.347 152.153 244.65 146.304C244.45 147.352 243.949 149.496 243.228 150.23C239.734 153.782 225.009 168.227 221.286 169.731C220.969 167.986 220.648 166.546 220.214 164.824L221.774 165.4Z" fill="#D7D7D5"/>
<path d="M170.923 211.974C173.891 208.62 176.579 202.355 179.817 198.07C179.993 203.837 180.103 209.56 180.651 215.307C176.456 214.436 173.693 215.155 170.923 211.974Z" fill="#D7D7D5"/>
<path d="M193.538 143.635C196.348 146.776 197.367 152.794 197.608 156.886C194.029 155.828 190.101 154.935 187.325 152.555C187.141 152.396 187.03 152.358 186.794 152.233C188.765 148.835 189.809 147.689 193.601 146.186L194.03 146.019L194.147 145.3C193.66 144.861 193.69 144.538 193.579 143.887L193.538 143.635Z" fill="#E0E0DE"/>
<path d="M331.777 105.481C331.589 105.434 331.406 105.386 331.222 105.335C327.366 104.268 319.682 97.4855 320.804 94.1996C321.083 94.2311 321.408 94.2683 321.787 94.3108C325.686 98.776 326.182 101.179 332.102 103.164C333.757 103.72 333.595 103.394 334.491 104.568C333.832 105.754 333.111 105.561 331.777 105.481Z" fill="#020202"/>
<path d="M191.476 241.236C185.831 240.708 183.302 242.081 183.337 235.402C184.432 236.923 187.637 236.871 190.353 237.89L191.476 241.236Z" fill="#E0E0DE"/>
<path d="M203.54 169.099C205.296 168.283 204.578 168.362 206.318 168.586C210.911 171.355 208.613 186.364 208.12 190.835C207.802 193.719 208.669 199.419 207.9 201.917C207.42 202.186 207.119 202.531 206.694 202.252C201.021 198.529 204.97 187.068 205.063 181.691C205.128 177.908 205.112 176.811 204.809 173.956C204.543 172.486 203.953 170.582 203.54 169.099Z" fill="#020202"/>
<path d="M205.705 170.497C205.861 170.62 205.928 170.666 206.076 170.821C208.913 173.802 206.491 194.973 206.341 200.132C203.612 195.333 206.23 185.86 206.353 180.354C206.426 177.045 206.108 173.78 205.705 170.497Z" fill="#E0E0DE"/>
<path d="M204.808 173.957C201.795 174.054 195.476 171.837 192.438 170.789C193.278 170.645 201.634 172.373 203.094 172.651C203.533 171.888 203.493 170.068 203.539 169.1C203.952 170.583 204.542 172.487 204.808 173.957Z" fill="#D7D7D5"/>
<path d="M277.089 133.654L277.647 134.463C277.331 137.007 276.117 139.649 275.267 142.075C274.875 141.736 274.683 141.599 274.591 141.063C274.166 138.678 275.655 135.51 277.089 133.654Z" fill="#020202"/>
<path d="M73.5633 232.848C93.7879 232.841 114.194 233.409 134.364 233.239C135.679 233.372 136.09 233.27 136.926 234.519C143.78 244.77 154.936 244.453 166.025 245.05C174.452 245.504 177.271 247.047 185.271 242.653C190.375 243.825 189.475 243.037 194.242 241.968C194.663 241.873 197.181 243.095 198.389 243.086C201.911 243.061 205.354 242.191 208.829 241.975C207.452 243.029 202.048 247.525 201.182 248.052C198.846 249.89 190.954 255.38 190.266 257.676C190.715 259.72 191.17 260.318 190.436 262.412C199.863 264.468 223.028 265.207 232.504 264.185C236.969 260.395 253.4 246.594 256.435 242.209C255.789 240.458 255.543 239.66 255.164 237.84C249.96 237.609 244.799 237.411 239.588 237.363C237.62 237.345 228.373 237.714 227.439 236.768L227.539 236.362C227.801 235.234 228.022 234.792 227.547 233.749C229.486 232.627 283.072 233.666 290.647 233.692C290.693 238.238 291.031 245.829 290.789 250.127C291.127 253.256 291.206 256.694 294.074 258.712C298.761 262.004 306.132 262.46 311.756 261.828C316.396 261.307 322.125 259.561 323.084 254.541C323.613 251.74 324.405 252.469 327.14 251.582C335.512 248.863 336.754 240.738 333.577 233.4C346.714 233.699 360.794 234.011 373.931 233.97C369.374 237.816 356.074 246.157 350.533 249.822C341.24 255.968 330.417 264.16 321.074 269.84C295.892 269.253 270.702 269.026 245.512 269.157L120.849 269.143L47.2095 268.537C34.3105 268.38 19.2569 267.926 6.50049 268.239C13.7202 263.805 27.2646 255.949 33.5363 251.14L35.0889 256.824C35.5396 259.929 38.4451 261.247 41.3639 261.948C49.0485 263.791 58.741 263.852 65.9858 260.532C67.7648 259.716 68.3043 257.847 68.7241 256.182C69.7297 251.112 70.017 245.948 70.9388 240.954C71.6805 236.935 73.1555 238.076 73.5633 232.848Z" fill="#FCFDFA"/>
<path d="M134.364 233.24C135.679 233.372 136.091 233.27 136.926 234.519C143.78 244.771 154.936 244.453 166.025 245.05C174.452 245.504 177.272 247.047 185.271 242.653C190.375 243.825 189.476 243.037 194.242 241.968C194.663 241.874 197.182 243.095 198.389 243.086C201.911 243.061 205.354 242.192 208.829 241.975C207.452 243.029 202.048 247.525 201.182 248.052C199.304 247.077 187.634 247.112 185.455 247.732C174.931 250.727 166.769 249.847 155.996 248.162C146.883 246.736 134.892 244.911 134.442 233.474C134.416 233.396 134.39 233.318 134.364 233.24Z" fill="#E0E0DE"/>
<path d="M290.789 250.129C291.127 253.257 291.206 256.696 294.074 258.713C298.761 262.006 306.132 262.462 311.756 261.83C316.396 261.309 322.125 259.563 323.084 254.543C323.505 254.857 323.922 255.179 324.334 255.506C325.748 256.639 326.394 257.168 326.569 258.987C324.98 265.108 308.554 265.204 304.606 265.01C297.81 264.677 283.735 263.212 290.722 254.711C290.656 254.794 290.756 250.658 290.789 250.129Z" fill="#D7D7D5"/>
<path d="M68.7246 256.182C78.8582 261.491 61.1388 265.974 57.0467 265.987C51.9499 266.002 34.1542 266.622 32.4365 260.819C32.6325 258.769 34.5061 258.94 35.0894 256.824C35.5401 259.93 38.4455 261.248 41.3644 261.948C49.049 263.791 58.7415 263.853 65.9863 260.532C67.7652 259.716 68.3047 257.848 68.7246 256.182Z" fill="#D7D7D5"/>
<path d="M190.436 262.413C199.863 264.468 223.028 265.208 232.504 264.185L232.604 264.624C231.57 264.829 230.495 264.937 229.632 265.483C230.378 265.975 230.862 265.95 231.75 266.056C227.289 268.226 199.905 265.715 193.389 265.832C192.122 265.053 190.894 264.469 190.165 263.214L190.436 262.413Z" fill="#E0E0DE"/>
<path d="M256.435 242.21C256.823 242.772 257.332 243.222 257.065 243.667C254.097 248.589 238.091 262.947 234.034 265.207C233.322 265.6 232.55 265.886 231.75 266.057C230.862 265.951 230.378 265.976 229.632 265.484C230.495 264.938 231.571 264.829 232.604 264.624L232.504 264.186C236.97 260.396 253.4 246.595 256.435 242.21Z" fill="#D7D7D5"/>
<path d="M75.3705 56.6631C78.198 53.1066 84.7861 50.0188 89.3084 49.669C106.321 48.391 113.929 66.8121 115.345 80.3926C117.04 96.1776 113.501 113.035 103.379 125.75C96.0342 134.977 83.6138 140.086 73.4035 131.666C61.0319 121.463 58.7935 102.77 60.7263 88.1219C60.9168 86.5139 61.2787 84.9642 61.6172 83.3801C63.0523 75.2427 68.9742 62.1936 75.3705 56.6631Z" fill="#1BC3D8"/>
<path d="M61.6162 83.382C63.0512 75.2446 68.9731 62.1955 75.3695 56.665C75.4199 59.1268 71.9816 62.4928 70.6487 64.6989C67.491 69.9244 63.75 77.8932 63.035 83.8378C62.7361 84.076 62.5472 84.076 62.1407 84.2038L61.6162 83.382Z" fill="#A4E7EF"/>
<path d="M61.618 83.3811L62.1425 84.2029C62.549 84.0751 62.7378 84.0751 63.0368 83.8369C63.3841 85.379 62.6057 88.1068 61.7568 89.4661L61.1636 89.4426C60.9818 88.9682 60.815 88.6216 60.7271 88.123C60.9176 86.515 61.2795 84.9652 61.618 83.3811Z" fill="#1BC3D8"/>
<path d="M89.2585 58.2894C102.208 57.8 108.029 71.0611 109.186 81.6917C110.893 97.3797 106.181 123.016 87.4412 127.196C84.0554 127.436 80.6846 126.564 77.8713 124.721C59.7896 112.95 65.3279 62.4602 89.2585 58.2894Z" fill="#05272B"/>
<path d="M90.9425 120.709C84.682 125.535 79.0182 125.707 74.4096 118.542C67.8469 107.56 68.4748 96.9508 70.4585 84.8468C72.4364 72.7776 87.2052 48.2372 98.906 67.3571C104.479 76.4635 104.356 92.583 101.348 102.989C100.17 106.775 99.1816 109.4 97.1379 112.887C95.3172 115.953 93.5724 118.205 90.9425 120.709Z" fill="#FCFDFA"/>
<path d="M90.9425 120.709C84.682 125.535 79.0182 125.707 74.4096 118.542C67.8469 107.56 68.4748 96.9508 70.4585 84.8468C72.4364 72.7776 87.2052 48.2372 98.906 67.3571C104.479 76.4635 104.356 92.583 101.348 102.989C99.8345 100.258 99.8395 101.996 100.282 97.9739C101.459 91.6827 101.45 86.8402 100.501 80.5858C95.2918 46.2713 73.9014 71.2905 72.235 90.2462C71.1623 102.448 71.8877 115.224 83.9662 122.2C86.6161 121.223 88.1525 121.019 90.9425 120.709Z" fill="#A4E7EF"/>
<path d="M97.1384 112.887C96.2813 107.533 98.4642 103.238 100.282 97.9734C99.84 101.995 99.8351 100.257 101.349 102.988C100.171 106.774 99.1822 109.399 97.1384 112.887Z" fill="#F2F2F2"/>
<path d="M182.731 281.03L225.825 281.57C236.502 281.746 247.675 282.168 258.332 282.148C248.963 290.401 238.732 291.73 227.071 295.563C222.239 297.152 217.344 298.923 212.553 300.636C208.998 296.723 208.22 295.788 202.879 294.607C205.879 297.505 208.396 298.943 211.18 302.122C208.618 301.368 205.411 300.099 202.891 300.987L203.03 301.574C205.335 302.928 207.582 303.12 210.244 303.461C216.44 313.608 220.721 321.263 224.536 332.657C225.82 336.486 226.479 340.339 227.742 344.002C225.754 347.21 223.34 350.24 219.921 352.116C216.406 353.912 207.048 357.59 203.405 354.901C200.898 350.131 198.116 351.063 194.424 347.683C191.533 345.036 189.009 339.238 186.884 335.667L175.331 316.519C169.09 305.517 166.436 294.092 177.811 284.932C179.329 283.709 181.367 282.344 182.731 281.03Z" fill="#D7D7D5"/>
<path d="M5.16943 270.052C16.939 269.647 28.8211 270.236 40.597 270.358L101.1 270.789L227.818 270.912L293.382 271.38C302.513 271.465 311.639 271.85 320.774 271.767L320.953 280.153C276.714 280.234 232.475 279.843 188.242 278.981L5.22072 278.25L5.16943 270.052Z" fill="#D7D7D5"/>
<path d="M153.284 280.924L179.72 280.989C166.707 289.863 164.726 299.52 171.052 313.527C168.277 322.435 156.985 350.701 150.26 355.89C147.495 355.569 144.781 355.347 142.108 354.588C136.507 352.64 133.401 351.184 128.437 348.044C128.287 345.964 126.897 340.647 127.434 339.143C131.211 328.568 134.016 315.696 137.827 305.311C141.905 293.222 142.673 289.105 153.284 280.924Z" fill="#FCFDFA"/>
<path d="M153.284 280.924L179.72 280.989C166.707 289.863 164.726 299.52 171.052 313.527C168.277 322.435 156.985 350.701 150.26 355.89C147.495 355.569 144.781 355.347 142.108 354.588C143.807 352.906 145.735 351.943 147.223 349.791C153.015 341.416 161.116 322.262 162.549 312.71C156.483 303.477 148.147 299.987 137.827 305.311C141.905 293.222 142.673 289.105 153.284 280.924Z" fill="#D7D7D5"/>
<path d="M195.032 98.1452C194.957 96.6274 194.588 94.4994 195.234 93.3399C196.363 92.8441 195.877 92.8764 197.034 93.1373C200 96.0083 198.408 101.673 202.303 101.744C205.66 101.806 206.05 98.8518 208.357 98.4546C210.121 97.1309 210.59 96.6509 212.051 94.9972C215.288 97.0371 219.367 97.3473 219.951 99.5385C217.341 100.805 217.062 98.0106 212.302 101.555L212.153 102.174C213.771 102.685 217.871 101.621 220.36 101.493C222.586 104.644 223.12 107.653 224.362 111.276C227.702 121.005 228.877 136.711 219.172 143.37C210.095 149.597 195.609 144.908 188.703 137.419C187.841 136.528 186.421 134.572 185.303 134.744C185.405 136.139 185.593 136.654 186.165 137.893C185.548 138.198 185.887 138.116 185.099 137.943C184.713 139.409 184.519 140.722 182.858 141.122C181.687 139.945 181.973 139.928 181.476 138.135L180.114 136.753C175.213 135.981 170.99 132.275 173.472 126.894C175.65 122.172 180.402 127.553 184.207 126.474C187.606 123.613 183.352 116.455 181.28 113.628C184.466 111.769 184.773 111.075 186.436 107.765L185.927 102.315C191.09 102.275 191.953 102.43 195.032 98.1452Z" fill="#FCFDFA"/>
<path d="M195.031 98.1452C194.956 96.6274 194.587 94.4994 195.233 93.3399C196.362 92.8441 195.876 92.8764 197.034 93.1373C199.999 96.0083 198.407 101.673 202.303 101.744C205.659 101.806 206.049 98.8518 208.356 98.4546L208.874 100.046C206.733 105.111 197.161 103.351 196.188 97.4452L196.53 97.2191C197.059 98.2993 197.473 99.4313 198.372 100.2C198.48 98.5529 198.455 97.6777 198.345 96.0269C197.521 95.161 197.15 94.6126 196.015 94.1969C195.649 96.3375 196.213 96.8009 195.031 98.1452Z" fill="#D7D7D5"/>
<path d="M185.303 134.745C185.405 136.14 185.593 136.655 186.165 137.894C185.549 138.199 185.888 138.117 185.099 137.944C184.714 139.41 184.52 140.723 182.859 141.123C181.688 139.946 181.973 139.929 181.476 138.136L180.114 136.754C182.154 135.861 183.92 136.149 185.303 134.745Z" fill="#05272B"/>
<path d="M181.476 138.134C182.578 138.067 184.027 137.933 185.099 137.942C184.713 139.409 184.52 140.721 182.859 141.122C181.687 139.944 181.973 139.928 181.476 138.134Z" fill="#E0E0DE"/>
<path d="M219.25 125.335C219.763 125.271 220.03 125.396 220.526 125.538C220.609 125.721 220.638 125.773 220.709 125.984C221.364 127.975 220.409 131.059 219.475 132.871C218.445 134.872 216.79 136.636 214.526 137.3C211.497 138.189 208.492 136.91 205.841 135.582C204.436 134.376 202.886 132.81 202.025 131.183C201.495 130.181 201.623 129.708 201.959 128.711C204.294 126.503 210.261 127.299 213.397 126.862C215.391 126.585 217.341 125.941 219.25 125.335Z" fill="#05272B"/>
<path d="M217.896 127.849L218.371 128.232C218.188 129.14 218.009 129.658 217.2 130.273C214.459 132.367 208.657 131.881 205.372 131.508C204.709 131.035 204.336 130.696 203.934 129.995C205.22 129.181 209.896 129.424 211.726 129.162C213.809 128.865 215.857 128.355 217.896 127.849Z" fill="#FCFDFA"/>
<path d="M208.711 108.226C209.817 108.734 214.818 114.794 215.945 116.106C216.933 117.257 217.116 117.981 216.991 119.448C215.883 121.248 214.219 121.867 212.285 122.557C211.664 122.289 211.347 121.992 210.876 121.534C211.444 120.133 214.292 119.715 215.373 118.26C215.305 117.253 209.774 113.601 208.711 108.226Z" fill="#020202"/>
<path d="M196.852 104.658C197.741 104.803 197.894 104.865 198.577 105.432C198.08 106.4 193.317 108.514 191.414 110.879C191.264 111.096 190.924 111.284 190.707 111.443L190.201 111.083C190.113 110.209 190.294 109.564 190.704 108.793C191.985 106.383 194.306 105.415 196.852 104.658Z" fill="#020202"/>
<path d="M177.703 127.335C178.403 127.519 179.116 127.687 179.781 127.976C180.954 128.486 182.311 129.468 182.789 130.642L182.485 131.32C181.72 130.925 180.978 130.581 180.166 130.285C179.651 131.124 180.03 132.225 180.148 133.188C179.695 133.247 179.242 133.04 178.809 132.91C178.081 131.756 178.393 130.924 178.501 129.596C177.41 129.237 176.832 130.292 175.603 130.011L175.24 129.166C175.708 128.146 176.727 127.819 177.703 127.335Z" fill="#020202"/>
<path d="M197.711 112.071C197.978 112.097 198.244 112.127 198.507 112.183C199.435 112.381 200.354 112.865 200.828 113.691C201.5 114.862 201.064 116.109 200.708 117.297C199.421 117.307 198.932 116.917 198.06 116.092C197.462 114.69 197.582 113.547 197.711 112.071Z" fill="#020202"/>
<path d="M217.216 106.481C218.267 106.676 219.209 106.981 219.868 107.853C220.731 108.997 220.551 110.243 220.297 111.533C219.951 111.586 219.551 111.659 219.205 111.614C218.425 111.514 217.908 111.166 217.475 110.552C216.67 109.416 217.003 107.752 217.216 106.481Z" fill="#020202"/>
<path d="M312.519 16.1948C313.987 16.0161 314.462 15.8956 315.938 16.2943C318.06 17.6354 324.589 35.6593 326.915 39.9705C323.18 39.0593 317.205 37.5702 313.991 40.1929C312.561 43.9059 319.602 45.8665 322.296 46.7955C318.527 47.1251 310.176 47.009 308.792 50.9008C309.634 55.4348 318.106 54.5738 322.05 55.1157C318.623 55.7328 311.898 56.6476 310.472 60.0149L310.843 60.8399C314.333 63.9159 320.403 63.1827 324.935 63.0121C322.121 64.0542 319.89 65.0985 317.184 66.3655C316.146 67.6455 316.088 68.2497 316.872 69.5362C321.057 71.9668 328.591 68.2392 330.834 70.6306L330.576 71.7051C328.925 72.8504 317.547 76.9638 314.945 76.6678C313.565 75.988 311.869 73.0822 311.41 71.8398C308.954 65.1672 291.486 26.5008 292.82 22.8383C295.417 20.667 308.7 17.0737 312.519 16.1948Z" fill="#D7D7D5"/>
<path d="M301.65 21.4533L303.605 21.4529C306.707 23.5632 310.451 30.7857 305.781 33.5063C304.86 34.0442 302.667 34.7099 301.575 35.0706L299.736 35.0269C298.398 34.3164 295.917 30.5492 295.517 29.1228C293.924 23.4426 297.022 22.6083 301.65 21.4533Z" fill="#020202"/>
<path d="M298.965 32.2194C297.752 29.934 295.947 27.471 296.714 25.089C298.098 23.1194 300.966 22.8339 303.422 22.2443C305.919 27.3513 309.784 31.4691 302.45 33.3691C300.399 33.7647 300.274 33.5669 298.965 32.2194Z" fill="#E0E0DE"/>
<path d="M299.253 31.6524C299.707 30.0218 299.369 30.2863 300.528 29.3375C302.371 29.5559 303.042 30.8387 302.584 32.5668L302.45 33.3692C300.399 33.7647 300.274 33.567 298.965 32.2194L299.253 31.6524Z" fill="#020202"/>
<path d="M299.253 31.6515C300.549 32.4878 300.778 32.8312 302.584 32.5659L302.45 33.3683C300.399 33.7638 300.274 33.566 298.965 32.2185L299.253 31.6515Z" fill="#B0ACA8"/>
<path d="M297.96 24.9103C298.522 24.5888 299.214 24.5855 299.781 24.901C300.344 25.2168 300.69 25.8028 300.686 26.4346C300.678 27.0667 300.323 27.6466 299.752 27.9528C298.889 28.417 297.801 28.1218 297.309 27.2895C296.817 26.4576 297.109 25.3976 297.96 24.9103Z" fill="#020202"/>
<path d="M247.376 299.911C256.093 297.806 265.574 293.234 272.182 287.26C273.404 286.157 274.75 282.988 275.939 282.366C277.006 281.807 278.236 281.756 279.353 282.159C279.67 282.459 280.166 282.8 280.312 283.204C280.916 284.885 280.27 286.345 279.516 287.863C275.718 295.533 257.924 304.436 249.694 307.292C239.804 310.142 225.888 308.316 215.502 308.106C214.447 306.541 213.716 304.774 212.928 303.072C222.519 298.222 235.085 303.783 245.862 300.147L245.887 299.797C241.743 298.467 227.714 299.426 222.982 299.562C236.236 294.677 251.34 292.975 261.246 282.224L274.046 282.145C269.38 287.678 262.593 291.641 256.152 294.972C253.167 296.515 250.065 297.899 247.376 299.911Z" fill="#D7D7D5"/>
<path d="M302.025 282.25L310.334 282.329L310.325 294.091C310.459 325.648 308.27 358.834 309.613 390.022C307.774 389.82 305.297 389.796 303.4 389.723L302.233 292.845C302.171 289.433 302.196 285.625 302.025 282.25Z" fill="#FCFDFA"/>
<path d="M302.025 282.25L310.334 282.329L310.325 294.091L309.946 292.095C308.258 290.274 304.864 290.742 302.721 291.467L302.233 292.845C302.171 289.433 302.196 285.625 302.025 282.25Z" fill="#D7D7D5"/>
<path d="M330.392 61.0144C325.089 60.1433 318.464 61.8888 313.849 60.2816L313.636 59.7842C319.052 56.2151 332.752 57.3156 334.503 56.0271L334.415 55.3129C329.383 52.4617 312.49 53.4986 311.614 50.5989L312.34 51.2622L311.648 50.8011L313.282 49.9534L313.123 49.9401C318.068 48.9848 321.395 48.9642 326.419 49.3719C328.299 49.5248 335.124 50.3631 336.362 49.4034C334.999 48.0045 317.097 43.6728 315.992 40.989C319.59 38.7416 338.305 44.7077 340.377 49.0184C344.355 57.2921 345.685 69.9853 344.134 79.1237C343.442 82.4262 339.614 90.3812 337.98 93.0022C333.427 91.1221 331.505 89.7685 328.962 85.596C329.758 83.686 330.488 82.2976 330.613 80.2208C330.705 78.6739 330.526 76.9483 331.297 75.7767C332.564 76.8864 333.619 78.2056 335.199 78.6517L335.599 78.3071C335.32 77.2953 335.291 77.2682 334.611 76.4642C332.885 73.721 331.91 70.5042 334.211 67.8544C331.626 65.9912 322.5 68.4129 317.668 68.4995C320.023 67.175 322.166 66.3564 324.668 65.3413L324.843 64.7577C325.427 64.5798 329.771 61.5535 330.392 61.0144Z" fill="#FCFDFA"/>
<path d="M330.393 61.0129C332.065 61.2479 332.415 61.0101 333.482 61.9601C332.298 63.5228 326.674 65.0988 324.668 65.3399L324.844 64.7563C325.427 64.5783 329.772 61.552 330.393 61.0129Z" fill="#05272B"/>
<path d="M334.611 76.4646C332.885 73.7214 331.909 70.5046 334.211 67.8549C334.536 70.1637 335.032 74.197 334.611 76.4646Z" fill="#E0E0DE"/>
<path d="M225.663 238.593C234.889 239.142 244.258 239.075 253.505 239.184C247.047 246.181 238.479 252.725 231.208 259.071L227.181 259.006C227.656 258.296 228.164 257.618 228.686 256.938L228.24 256.637C226.664 256.793 226.138 258.169 224.812 258.764C224.024 259.119 223.653 258.859 222.899 258.615C222.978 257.86 223.458 257.458 223.92 256.859L223.399 256.398C222.073 256.622 221.569 257.453 220.643 258.359C219.493 258.64 219.188 258.716 218.054 258.423L218.721 258.761L218.046 258.499C218.467 257.755 218.871 257.405 218.684 256.557C217.821 256.571 217.687 256.48 216.995 257.036C215.376 258.331 214.759 258.491 212.726 258.305L213.231 257.907L213.733 256.863L213.331 256.032C211.944 256.208 211.106 257.301 210.152 258.236C209.333 258.347 208.672 258.619 207.968 258.149C208.168 257.431 208.316 256.834 208.29 256.088C206.658 256.026 205.611 257.232 204.316 258.153C203.383 258.234 203.353 258.261 202.521 257.729L203.305 256.304L203.069 255.745C201.697 255.69 201.121 256.572 200 257.269C199.089 257.834 198.525 258.197 197.439 257.973L197.247 257.371C197.635 256.898 197.913 256.531 198.154 255.966L197.579 255.372C196.027 255.54 194.69 257.263 193.138 257.832L192.544 257.446C194.418 254.839 205.951 246.09 209.032 243.501C209.998 243.939 211.03 244.432 212.067 244.682C215.098 245.413 219.313 243.316 221.877 241.857C223.141 242.822 224.829 244.504 226.476 244.504L227.01 243.855C227.151 242.091 226.263 240.242 225.663 238.593Z" fill="#FCFDFA"/>
<path d="M215.562 248.823C220.911 248.387 227.665 248.843 232.939 249.827L233.548 250.818C231.742 251.309 230.846 250.545 229.137 250.436C224.609 250.147 219.773 250.814 215.562 248.823Z" fill="#020202"/>
<path d="M206.851 252.119C212.346 251.56 218.401 251.915 223.933 252.138C225.234 252.191 225.534 252.216 226.376 253.124C221.982 252.784 210.242 254.117 206.851 252.119Z" fill="#05272B"/>
<path d="M227.163 252.406C228.413 252.577 229.697 252.53 230.957 252.539L231.052 253.355C230.756 253.779 230.369 253.789 229.881 253.944C228.697 253.677 228.051 253.151 227.163 252.406Z" fill="#020202"/>
<path d="M101.29 163.47C108.224 164.518 118.714 164.2 122.314 171.125C124.171 174.699 124.322 174.985 128.014 176.792C124.687 180.669 119.31 187.117 118.334 192.041C117.924 194.115 118.701 195.432 119.84 197.092L120.142 197.737C118.937 200.138 117.927 203.523 115.421 204.903C114.451 205.438 113.41 205.605 112.334 205.281C102.798 202.41 106.54 180.5 105.201 172.824C104.615 169.464 102.872 166.466 101.29 163.47Z" fill="#EBFAFC"/>
<path d="M34.1581 241.521L33.647 239.92L34.0797 239.559C44.6594 241.898 58.7125 242.491 69.1712 239.479C68.1227 245.73 67.2001 252.226 66.074 258.422L60.1546 260.021C52.6905 261.497 44.649 261.034 37.5277 258.37C36.2302 252.788 35.1066 247.169 34.1581 241.521Z" fill="#FCFDFA"/>
<path d="M34.1581 241.521L33.647 239.92L34.0797 239.559C44.6594 241.898 58.7125 242.491 69.1712 239.479C68.1227 245.73 67.2001 252.226 66.074 258.422L60.1546 260.021C60.5177 254.812 62.2012 250.278 62.5819 243.582C50.1602 244.869 45.6163 243.747 34.1581 241.521Z" fill="#D7D7D5"/>
<path d="M360.741 256.276C361.8 261.059 360.837 278.873 360.728 285.149C360.286 310.501 359.198 335.842 359.999 361.196L354.916 361.127C354.92 351.978 354.303 342.832 354.249 333.682C354.183 322.468 354.641 311.254 354.612 300.039C354.579 287.143 354.049 274.199 353.711 261.306C356.117 259.735 358.418 257.963 360.741 256.276Z" fill="#D7D7D5"/>
<path d="M277.951 184.67C279.277 185.008 280.524 185.676 281.762 186.244C288.783 195.9 285.948 219.681 285.364 231.375L280.115 231.359L273.582 231.366C272.627 216.226 270.326 204.999 272.165 189.485C274.02 187.735 275.867 186.162 277.951 184.67Z" fill="#D7D7D5"/>
<path d="M277.26 188.129C277.723 188.239 278.224 188.39 278.553 188.752C283.185 193.841 281.455 217.963 280.733 225.107L280.125 225.131C279.016 223.935 279.933 205.576 279.737 202.581C279.412 197.653 278.407 192.93 277.26 188.129Z" fill="#020202"/>
<path d="M292.482 230.583L292.799 228.432L293.224 228.136C301.446 231.868 313.094 231.801 321.22 227.898L321.699 228.266C321.695 229.573 321.783 230.931 321.345 232.159C320.395 232.701 320.04 232.61 318.889 232.635C317.218 234.47 314.003 240.844 315.475 243.235C317.622 244.191 319.39 242.795 321.349 241.77C321.362 243.193 321.445 245.261 321.328 246.621L321.049 249.272C320.257 249.605 319.794 249.564 318.939 249.601L318.96 250.085C320.119 250.792 320.661 250.843 321.145 251.883L320.711 252.759C319.411 253.183 318.164 252.289 317.289 251.344L316.947 251.668C317.184 253.576 319.44 253.455 321.228 253.75C320.699 255.504 319.923 256.691 318.293 257.665C317.368 258.216 312.444 259.734 311.614 259.517C311.556 255.616 311.802 256.373 308.821 254.972C309.717 252.824 310.263 252.244 308.933 250.24C307.691 249.474 306.561 249.759 305.102 249.922C303.205 248.9 305.857 244.006 302.484 243.288C299.324 244.479 297.906 246.565 295.905 249.098C296.968 246.203 298.886 242.598 296.539 239.915C294.779 238.911 294.05 239.688 292.84 239.022L292.849 237.618C292.778 235.176 292.703 233.028 292.482 230.583Z" fill="#FCFDFA"/>
<path d="M321.329 246.623L321.049 249.273C320.257 249.607 319.795 249.565 318.94 249.603L318.961 250.086C320.12 250.793 320.662 250.845 321.145 251.884L320.712 252.76C319.411 253.185 318.164 252.291 317.289 251.346L316.947 251.67C317.185 253.578 319.44 253.457 321.229 253.752L318.043 254.121C317.943 255.376 318.531 254.887 318.831 256.176C315.229 254.493 312.011 250.908 316.972 247.905C318.164 247.184 318.535 247.601 319.79 248.036L320.195 247.671L319.553 246.195L321.329 246.623Z" fill="#A4E7EF"/>
<path d="M318.831 256.176C311.885 257.992 310.259 246.226 319.552 246.195L320.194 247.671L319.79 248.036C318.535 247.601 318.164 247.184 316.971 247.905C312.01 250.908 315.228 254.493 318.831 256.176Z" fill="#020202"/>
<path d="M294.375 233.593C294.505 233.113 294.73 232.619 294.922 232.152L296.122 231.686C298.324 232.289 298.478 231.976 299.854 233.361C299.883 234.934 298.916 235.454 297.486 236.096L295.522 235.489L294.375 233.593Z" fill="#1BC3D8"/>
<path d="M295.521 235.492C295.817 234.403 295.888 233.64 296.693 232.857L297.26 232.903C297.439 233.76 297.318 233.892 296.984 234.689C297.193 235.194 297.26 235.345 297.547 235.81L297.485 236.099L295.521 235.492Z" fill="#05272B"/>
<path d="M292.482 230.583C294.058 231.46 294.325 231.483 296.122 231.685L294.921 232.152C294.729 232.619 294.504 233.113 294.375 233.593C293.553 234.42 293.178 236.414 292.849 237.618C292.778 235.175 292.703 233.028 292.482 230.583Z" fill="#F2F2F2"/>
<path d="M303.918 238.205C304.856 235.863 305.369 234.354 308.3 234.704C310.313 236.628 309.125 238.849 308.191 241.066L308.704 241.269C312.998 239.147 310.893 236.404 312.465 234.996C314.862 236.315 312.857 245.277 304.573 241.429L303.918 238.205Z" fill="#020202"/>
<path d="M306.266 235.391C307.125 235.548 307.408 235.67 308.034 236.259C308.396 237.677 307.404 239.421 306.85 240.737L306.116 240.63L305.52 239.713C305.382 238.13 305.782 236.888 306.266 235.391Z" fill="#FCFDFA"/>
<path d="M302.942 242.176L302.313 242.394C300.845 241.174 300.291 238.498 301.075 236.779C302.138 236.924 302.05 237.228 302.88 238.28L303.918 238.205L304.572 241.429L302.942 242.176Z" fill="#1BC3D8"/>
<path d="M302.88 238.282L303.918 238.208L304.573 241.432L302.943 242.179C302.826 240.655 302.805 239.808 302.88 238.282Z" fill="#A4E7EF"/>
<path d="M77.5147 280.796L84.6965 280.872C84.9354 296.943 84.0457 312.925 83.7092 328.98C83.5003 338.931 83.8318 348.924 83.8322 358.882C82.0645 359.116 79.9653 358.836 78.168 358.78C77.8603 340.354 77.7156 321.925 77.7331 303.497C77.6885 296.219 76.5799 287.966 77.5147 280.796Z" fill="#D7D7D5"/>
<path d="M375.982 235.279L376.695 235.505C377.358 237.498 377 240.181 376.97 242.281C371.751 246.653 365.634 250.444 360.06 254.426C348.061 262.997 336.108 271.799 323.338 279.281C322.392 277.771 322.784 272.806 322.738 270.896L375.982 235.279Z" fill="#D7D7D5"/>
<path d="M365.676 253.057C366.397 254.02 366.209 254.822 366.218 255.993C366.343 273.002 365.576 290.121 365.442 307.15C365.313 324.045 365.859 341.099 364.933 357.963L362.199 359.968C362.14 359.923 362.069 359.886 362.019 359.832C360.477 358.144 362.394 301.189 362.465 294.248C362.611 281.218 362.628 268.186 362.52 255.156L365.676 253.057Z" fill="#E0E0DE"/>
<path d="M196.862 227.352C205.621 227.036 213.702 222.718 221.585 229.589C224.362 232.009 225.312 234.368 226.571 237.631C223.887 234.852 218.688 229.256 214.696 228.519L213.988 228.741L213.681 229.529C216.031 231.388 225.008 236.242 222.523 239.414C219.23 239.2 214.283 230.673 210.875 232.562C210.99 234.666 218.65 237.478 219.659 240.753L219.184 241.559C215.437 241.514 211.572 235.424 208.254 235.883C208.173 236.092 207.944 236.615 207.924 236.807C211.243 238.4 213.671 240.786 215.748 243.685C212.56 242.786 209.59 241.342 206.57 239.993C199.788 240.898 191.24 243.041 193.363 233.153C194.661 230.501 195.091 229.754 196.862 227.352Z" fill="#FCFDFA"/>
<path d="M193.363 233.151C193.494 234.304 193.41 235.756 194.4 236.396C197.344 238.298 203.597 237.594 206.957 237.434L207.924 236.805C211.243 238.397 213.671 240.784 215.748 243.683C212.56 242.784 209.59 241.34 206.57 239.99C199.788 240.896 191.24 243.038 193.363 233.151Z" fill="#E0E0DE"/>
<path d="M140.111 161.716C141.294 160.164 144.098 155.766 146.043 155.644C150.26 155.382 154.723 159.975 156.601 163.171C154.678 168.171 149.271 175.743 146.103 180.467L133.363 171.561C133.798 170.89 135.256 168.553 135.724 168.077L139.291 163.049L140.111 161.716Z" fill="#E0E0DE"/>
<path d="M140.823 163.026C142.783 162.855 142.886 163.187 143.954 162.127C144.081 161.106 144.152 160.43 144.164 159.403L144.888 159.541C145.623 160.718 146.082 162.032 147.137 162.308C148.029 161.22 147.609 160.421 147.218 159.079L148.165 158.916C149.716 160.093 148.835 161.243 150.205 161.936C151.453 161.321 151.602 161.465 152.046 160.284L151.939 160.801L151.813 160.17L151.7 160.241L151.881 160.408C153.398 161.827 153.776 164.666 153.347 166.6C151.525 166.887 152.388 165.657 150.618 166.525C149.879 168.172 150.09 168.2 151.091 169.807C149.598 171.331 148.268 169.939 147.324 171.714C147.656 173.188 148.032 173.506 147.445 174.577L146.567 174.61C145.56 172.77 146.377 172.039 145.26 171.103L144.222 171.414C143.608 173.689 145.432 173.207 144.503 175.305L143.74 175.325C142.252 173.734 143.533 172.777 142.147 171.837C140.176 172.128 139.607 172.598 138.465 170.655C137.135 169.747 136.773 169.266 135.725 168.078L139.291 163.05L140.111 161.717L140.823 163.026Z" fill="#020202"/>
<path d="M139.291 163.05L139.938 163.963C140.86 165.035 141.139 165.011 141.325 166.263C139.494 167.453 139.586 166.162 138.022 167.665L138.171 168.255C139.521 168.139 140.125 168.096 141.507 168.173C142.374 169.051 142.181 168.604 142.24 169.772C141.38 170.482 139.69 170.505 138.465 170.655C137.135 169.747 136.773 169.266 135.725 168.078L139.291 163.05Z" fill="#E0E0DE"/>
<path d="M139.291 163.049L140.111 161.716L140.822 163.025L139.938 163.962L139.291 163.049Z" fill="#D7D7D5"/>
<path d="M147.289 167.307C147.792 166.891 148.542 166.928 148.999 167.391C149.456 167.855 149.461 168.584 149.009 169.053C148.694 169.38 148.217 169.512 147.772 169.394C147.325 169.277 146.983 168.929 146.882 168.492C146.781 168.054 146.937 167.599 147.289 167.307Z" fill="#E0E0DE"/>
<path d="M311.99 282.144C313.14 282.218 314.033 282.022 314.866 282.837C315.221 296.352 314.52 310.056 314.512 323.601L314.304 360.292C314.324 368.331 314.746 376.375 314.545 384.415C314.512 385.867 314.587 386.858 313.478 387.877C312.824 388.382 312.34 388.783 311.519 388.977C311.352 388.718 311.098 388.491 311.018 388.196C310.568 386.546 311.127 382.963 311.123 381.07C311.102 366.273 311.514 351.549 311.84 336.758C312.273 318.556 312.323 300.348 311.99 282.144Z" fill="#E0E0DE"/>
<path d="M61.3471 232.066C65.4354 231.466 67.683 231.387 71.2914 229.383C71.226 231.69 71.2097 234.218 70.9933 236.499C68.3551 237.394 67.0773 237.783 64.2872 238.339C54.6973 239.822 40.8248 239.67 31.5438 236.556L30.9155 229.509C38.6231 233.371 52.7766 232.409 61.3471 232.066Z" fill="#FCFDFA"/>
<path d="M61.3467 232.066C65.435 231.466 67.6826 231.387 71.291 229.383C71.2255 231.69 71.2093 234.218 70.9929 236.499C68.3546 237.394 67.0768 237.783 64.2868 238.339C64.3964 236.601 65.2315 234.284 64.617 232.782C63.3954 231.768 63.3846 232.11 61.3467 232.066Z" fill="#D7D7D5"/>
<path d="M86.1598 280.861C87.16 280.919 88.156 281.026 89.1528 281.124C89.8295 281.818 89.7136 282.221 89.7561 283.138C90.1084 290.721 89.4793 298.593 89.3984 306.205C89.3334 312.317 89.8487 352.013 88.668 355.317C88.6029 355.498 88.1072 355.915 87.9521 356.08C87.2625 356.592 86.6555 356.948 85.8425 357.247C84.5234 354.321 86.2519 307.38 86.3386 300.488C86.3578 293.946 86.2982 287.403 86.1598 280.861Z" fill="#D7D7D5"/>
<path d="M129.058 178.27C132.552 179.969 137.651 184.455 141.021 186.773C138.164 191.242 134.344 195.464 131.034 199.66C130.66 199.896 130.348 200.067 129.905 200.157C128.413 200.457 127.287 199.808 126.057 199.094C123.936 197.863 121.467 196.163 120.964 193.633C120.142 189.497 126.709 181.854 129.058 178.27Z" fill="#E0E0DE"/>
<path d="M129.23 182.684C129.306 183.027 129.329 183.021 129.284 183.432C129.098 185.1 126.631 189.104 125.251 190.073C125.22 189.954 125.18 189.836 125.158 189.715C124.729 187.318 127.78 184.449 129.23 182.684Z" fill="#4C4B48"/>
<path d="M122.965 191.551C124.043 191.558 125.324 191.467 126.37 191.706C127.42 191.945 127.542 192.294 128.048 193.132C126.967 193.256 125.887 193.39 124.808 193.532C123.726 193.001 123.56 192.539 122.965 191.551Z" fill="#D7D7D5"/>
<path d="M197.319 145.912C204.998 148.318 209.47 149.695 217.519 147.104C218.015 148.338 218.632 150.187 219.491 151.123C219.987 152.465 215.666 158.532 214.687 160.123C212.844 160.965 210.828 161.747 208.941 162.517C206.369 161.423 202.504 159.113 199.955 157.677C199.675 154.613 199.434 152.892 198.783 149.882L197.319 145.912Z" fill="#FCFDFA"/>
<path d="M197.319 145.912C204.998 148.318 209.47 149.695 217.519 147.104C218.015 148.338 218.632 150.187 219.491 151.123C210.599 152.704 208.005 152.779 199.695 149.446L198.783 149.882L197.319 145.912Z" fill="#D7D7D5"/>
<path d="M82.3175 160.39C83.4399 160.531 84.3313 160.638 85.3194 161.231C86.0148 165.848 85.3339 171.283 85.3118 175.982L85.2606 210.471C85.2873 217.186 84.8908 224.334 86.0056 230.96C84.8416 231.05 83.8614 231.154 82.7349 230.759C81.54 227.959 82.6715 169.202 82.3175 160.39Z" fill="#E0E0DE"/>
<path d="M293.194 251.023C293.036 248.451 292.189 241.797 294.662 240.019L295.325 240.211C297.117 243.673 294.874 246.688 295.917 248.965C298.477 249.579 300.299 245.084 302.383 244.976C304.23 246.958 302.229 248.723 303.154 251.064C305.327 252.257 306.21 249.679 308.249 252.368C308.22 253.528 307.803 253.845 307.057 254.774L307.048 255.266C308.195 256.167 309.604 257.066 310.117 258.367L310.088 258.706C308.495 259.815 306.252 259.735 304.251 259.674C297.551 258.664 293.353 258.58 293.194 251.023Z" fill="#FCFDFA"/>
<path d="M293.195 251.023C294.758 251.167 298.181 251.573 299.599 251.473C299.711 252.828 299.619 254.482 300.47 255.407C301.571 255.539 301.896 255.66 302.926 255.344L303.318 255.505L302.83 258.336C303.313 258.766 303.839 259.188 304.251 259.674C297.552 258.663 293.353 258.579 293.195 251.023Z" fill="#1BC3D8"/>
<path d="M299.598 251.471C299.71 252.827 299.619 254.481 300.469 255.406C301.57 255.538 301.895 255.659 302.925 255.343L303.317 255.503L301.632 256.868C299.906 256.454 299.206 256.14 298.447 254.551C298.314 253.064 298.743 252.669 299.598 251.471Z" fill="#020202"/>
<path d="M301.633 256.87L303.318 255.505L302.83 258.336L301.917 258.596C300.762 258.336 300.529 258.327 299.782 257.457L300.082 256.904L301.633 256.87Z" fill="#A4E7EF"/>
<path d="M74.8857 154.654C78.4475 154.688 113.7 160.11 115.326 161.025C115.996 161.402 115.961 162.388 116.083 163.082C115.433 163.275 114.666 163.308 113.993 163.225C110.295 162.769 76.6164 157.715 75.8755 157.281C75.1672 156.866 75.0671 155.406 74.8857 154.654Z" fill="#D7D7D5"/>
<path d="M307.279 222.158C309.668 222.171 312.061 222.236 314.42 222.642C316.409 222.983 320.02 223.669 321.199 225.328L320.687 225.941C320.17 226.081 319.311 226.432 318.794 226.453C317.172 226.519 314.416 225.296 312.715 224.997C311.114 224.716 309.376 224.755 307.75 224.724C302.638 224.734 300.158 226.025 295.451 226.817C294.454 226.986 293.766 226.177 293.028 225.622L293.166 225.025C297.418 222.587 302.484 222.456 307.279 222.158Z" fill="#E0E0DE"/>
<path d="M289.917 25.7437C292.594 27.7524 307.073 70.5501 312.944 78.5669C307.824 77.6141 293.999 35.8603 290.701 29.3244C290.313 28.5544 289.988 26.6791 289.917 25.7437Z" fill="#E0E0DE"/>
<path d="M323.666 230.4C325.038 230.565 326.56 230.679 327.844 231.21C329.958 232.088 331.6 234.04 332.401 236.093C333.489 238.874 333.297 242.262 331.963 244.933C330.491 247.877 328.424 249.226 325.313 250.274C324.4 250.228 324.221 250.174 323.454 249.693C323.354 247.555 327.665 246.75 329.111 244.788C330.462 242.957 331 240.495 330.575 238.285C329.587 233.193 326.672 234.977 324.108 232.908C323.562 232.468 323.7 231.082 323.666 230.4Z" fill="#A4E7EF"/>
<path d="M130.733 172.397C135.352 175.88 140.64 178.869 144.878 182.767C144.851 183.924 143.953 184.841 143.282 185.752C138.676 182.529 133.35 179.481 129.256 175.693C129.131 174.423 130.048 173.42 130.733 172.397Z" fill="#D7D7D5"/>
<path d="M67.8621 151.543C70.2814 151.127 72.6045 152.648 73.1127 154.979C73.6205 157.311 72.1305 159.614 69.7445 160.183C68.1297 160.569 66.4266 160.07 65.3018 158.881C64.1769 157.693 63.8088 156.005 64.342 154.477C64.8753 152.948 66.2244 151.824 67.8621 151.543Z" fill="#D7D7D5"/>
<path d="M67.8629 154.673C68.537 154.312 69.3851 154.553 69.7515 155.21C70.1184 155.867 69.8632 156.688 69.1833 157.039C68.5103 157.386 67.6753 157.141 67.3125 156.491C66.9498 155.842 67.1954 155.029 67.8629 154.673Z" fill="#020202"/>
<path d="M227.263 136.111C228.372 137.617 229.906 140.123 231.595 140.803C228.776 142.875 223.419 148.192 221.109 150.742C220.713 149.246 220.117 147.493 219.646 145.991C224.27 142.683 225.087 141.43 227.263 136.111Z" fill="#D7D7D5"/>
<path d="M254.039 240.927L254.422 241.345C254.018 243.364 235.857 259.429 233.118 261.611C231.183 263.151 229.386 262.773 227.06 262.555C226.668 261.798 226.672 261.652 226.722 260.847C227.84 260.267 229.878 260.718 231.129 260.846C239.401 255.533 246.905 247.608 254.039 240.927Z" fill="#E0E0DE"/>
<path d="M323.73 234.999C324.439 235.092 325.306 235.146 325.973 235.401C326.832 235.73 327.457 236.495 327.853 237.286C328.916 239.425 328.07 242.08 327.253 244.154C326.64 244.539 325.969 244.869 325.327 245.218C324.818 245.205 324.518 245.342 324.151 244.95C322.829 243.536 323.692 237.015 323.73 234.999Z" fill="#FCFDFA"/>
<path d="M78.3574 137.668C81.215 138.136 83.548 138.004 86.3927 138.005C87.5625 138.006 88.506 138.025 89.3532 138.82L89.3849 140.874C86.8625 141.493 82.0647 142.707 79.8021 141.148C78.6451 140.351 78.628 138.906 78.3574 137.668Z" fill="#D7D7D5"/>
<path d="M82.4238 143.707L84.3966 143.974C86.2273 146.082 85.3051 151.399 85.2246 154.081L83.3068 153.523C81.5537 151.599 82.3842 146.193 82.4238 143.707Z" fill="#E0E0DE"/>
<path d="M318.581 238.562C318.31 236.832 318.084 236.175 318.872 234.606L319.677 233.991C322.733 234.989 322.295 239.335 319.902 240.844C318.622 241.448 317.955 241.956 316.609 241.656L316.238 240.971C316.646 239.655 317.422 239.322 318.581 238.562Z" fill="#A4E7EF"/>
<path d="M318.581 238.565L319.902 240.847C318.622 241.451 317.955 241.959 316.609 241.659L316.238 240.974C316.646 239.657 317.422 239.325 318.581 238.565Z" fill="#A4E7EF"/>
<path d="M207.615 214.522C210.256 215.145 213.583 221.67 215.108 224.039C214.371 223.937 213.277 223.864 212.665 223.434C210.481 221.896 207.96 217.127 207.615 214.522Z" fill="#E0E0DE"/>
<path d="M118.497 160.416C119.958 160.814 120.662 161.282 121.407 162.531C121.206 163.906 120.831 164.181 119.902 165.179L119.362 165.344C118.515 164.875 118.153 164.682 117.864 163.704C117.478 162.396 117.93 161.545 118.497 160.416Z" fill="#E0E0DE"/>
<path d="M327.399 34.311C329.425 35.5239 331.097 39.4436 332.135 41.6052C328.937 40.6629 326.678 37.4829 327.399 34.311Z" fill="#E0E0DE"/>
<path d="M126.819 169.335C127.314 169.781 127.747 170.375 128.181 170.883C128.14 172.144 127.476 172.647 126.714 173.629C125.7 173.149 125.477 173.092 124.917 172.161C125.047 170.911 125.966 170.186 126.819 169.335Z" fill="#E0E0DE"/>
<path d="M200.199 259.499C201.29 259.512 202.381 259.546 203.471 259.601C204.508 260.319 204.49 260.678 204.822 261.824L202.083 261.906C200.917 261.268 200.772 260.636 200.199 259.499Z" fill="#FCFDFA"/>
<path d="M121.386 165.324C122.207 165.456 123.236 165.937 123.861 166.485C124.854 167.355 124.839 167.98 124.824 169.171C123.961 169.218 123.736 169.269 123.019 168.709C121.959 167.883 121.591 166.565 121.386 165.324Z" fill="#FCFDFA"/>
<path d="M206.144 259.702C207.021 259.744 208.268 259.685 209.062 260.047C209.852 260.407 209.975 261.308 210.243 262.049C209.126 262.048 208.028 262.019 206.914 261.941C206.077 261.095 206.2 260.894 206.144 259.702Z" fill="#E0E0DE"/>
<path d="M194.972 259.615C195.917 259.502 196.868 259.484 197.819 259.45C199.001 260.066 199.137 260.408 199.751 261.513C198.798 261.585 197.549 261.786 196.631 261.516C195.663 261.23 195.426 260.408 194.972 259.615Z" fill="#FCFDFA"/>
<path d="M210.022 163.583C211.047 163.425 212.002 163.306 213.044 163.346L213.377 163.987L212.463 166.233L211.774 166.18C210.973 165.358 210.286 164.729 210.022 163.583Z" fill="#FCFDFA"/>
<path d="M211.13 259.986C212.069 259.933 213.436 259.722 214.319 260.035C215.176 260.338 215.364 261.223 215.703 261.967C214.787 262.05 213.86 262.072 212.941 262.118C211.835 261.528 211.697 261.042 211.13 259.986Z" fill="#FCFDFA"/>
<path d="M216.382 259.93L218.908 260.032C220.026 260.747 220.084 261.379 220.538 262.565L217.941 262.349C216.932 261.649 216.824 261.022 216.382 259.93Z" fill="#FCFDFA"/>
<path d="M222.415 260.268C222.978 259.719 223.891 259.706 224.47 260.237C225.05 260.769 225.091 261.652 224.558 262.231C224.203 262.62 223.657 262.79 223.132 262.675C222.607 262.56 222.19 262.177 222.04 261.677C221.889 261.176 222.035 260.637 222.415 260.268Z" fill="#FCFDFA"/>
<path d="M68.9987 226.284L70.3821 227.138L70.4217 227.845L69.1196 228.838L67.6496 228.342L67.4795 227.74L68.9987 226.284Z" fill="#E0E0DE"/>
<path d="M194.418 0.0736303C198.804 -0.347374 202.207 -0.717422 206.607 -0.0974423C210.073 0.417388 209.287 5.19119 208.831 7.9073C212.705 7.0754 214.259 7.30431 218.183 8.01649C218.258 9.49466 218.246 11.6927 218.784 12.9852L219.33 12.982C221.898 11.7255 223.737 11.1269 226.547 10.5166C228.694 15.7171 230.566 22.9166 232.221 28.4144C233.922 34.048 235.881 39.9044 237.474 45.5162L231.629 47.529C234.756 47.5872 237.983 47.6851 241.097 47.6625C241.051 45.7702 240.905 43.3906 241.185 41.5597C241.08 40.6619 240.417 40.1422 240.171 39.1271C239.663 37.0225 239.834 34.5155 239.909 32.3522C245.558 32.1488 273.729 30.7515 277.402 32.1124L277.552 32.7842C276.889 33.0365 276.439 33.2302 275.801 33.5291C275.609 35.2928 275.676 36.9263 275.71 38.6916C277.673 39.8021 279.925 38.5852 281.959 39.6399L282.076 40.4047C281.33 40.9482 280.988 40.8876 280.062 40.9535C279.387 42.2339 279.825 45.534 279.933 47.2006C282.926 47.2831 293.399 47.2386 295.646 47.6718L296.118 48.9121C297.36 51.6654 298.544 54.4454 299.657 57.2501L298.265 56.9605L185.537 55.6243L184.938 48.0531L195.215 47.6839C195.35 31.8099 195.084 15.9351 194.418 0.0736303Z" fill="#B1AEAA"/>
<path d="M194.418 0.0736303C198.804 -0.347374 202.207 -0.717422 206.607 -0.0974423L203.081 0.366836L208.256 0.789862C208.247 2.47711 208.141 5.39664 208.28 6.98562C208.304 7.89719 208.398 9.02108 208.194 9.88897L207.955 9.96055L207.381 12.2718C205.722 13.382 198.126 12.9084 195.756 12.8437C196.07 24.5546 196.208 36.2695 196.169 47.9844L196.099 49.0537C229.619 49.41 262.81 48.7378 296.118 48.9121C297.36 51.6654 298.544 54.4454 299.657 57.2501L298.265 56.9605L185.537 55.6243L184.938 48.0531L195.215 47.6839C195.35 31.8099 195.084 15.9351 194.418 0.0736303Z" fill="#FCFDFA"/>
<path d="M194.418 0.0736303C198.804 -0.347374 202.207 -0.717422 206.607 -0.0974422L203.081 0.366836L208.256 0.789862C208.247 2.47711 208.141 5.39664 208.28 6.98562C208.304 7.89719 208.398 9.02108 208.194 9.88897L207.955 9.96055L207.381 12.2718C205.722 13.382 198.126 12.9084 195.756 12.8437C196.07 24.5546 196.208 36.2695 196.169 47.9844L196.099 49.0537C192.805 48.9647 189.389 48.8292 186.105 48.8543L186.237 55.0003C209.626 54.9283 232.179 55.5677 255.343 55.6975L282.655 55.6733C285.728 55.6559 295.676 55.0978 297.894 56.1553L298.265 56.9606L185.537 55.6243L184.938 48.0531L195.215 47.6839C195.35 31.8099 195.084 15.9351 194.418 0.0736303Z" fill="#B0ACA8"/>
<path d="M203.081 0.370239L208.255 0.793265C208.247 2.48052 208.14 5.40005 208.28 6.98902C203.931 6.66184 200.064 7.09094 195.755 7.56128L195.621 0.855141L203.081 0.370239Z" fill="#E0E0DE"/>
<path d="M207.381 12.2732C204.805 11.9295 196.898 12.3808 195.782 11.724C195.656 9.88917 195.455 10.5249 196.331 9.1596C198.66 7.73158 206.087 7.1581 207.877 8.65892L207.955 9.96197L207.381 12.2732Z" fill="#FCFDFA"/>
<path d="M208.832 7.90909C212.706 7.07719 214.26 7.3061 218.184 8.01829C218.259 9.49645 218.247 11.6945 218.785 12.987L219.331 12.9838L219.744 13.3805C218.651 15.2393 219.21 16.26 219.881 18.5102C221.62 24.3384 223.596 30.2251 225.351 36.0399C225.914 37.9124 228.007 45.8399 228.561 47.1458L227.469 47.566C224.567 47.6004 221.382 47.7334 218.522 47.3986L217.947 47.3157C215.952 47.9344 211.531 47.7071 209.263 47.6889C209.522 42.9337 209.245 36.486 209.216 31.5707C209.172 24.2397 209.326 16.2281 208.986 8.95412L208.832 7.90909Z" fill="#FCFDFA"/>
<path d="M208.832 7.90909C212.706 7.07719 214.26 7.3061 218.184 8.01829C218.259 9.49645 218.247 11.6945 218.785 12.987L219.331 12.9838L219.744 13.3805C218.651 15.2393 219.21 16.26 219.881 18.5102C221.62 24.3384 223.596 30.2251 225.351 36.0399C225.914 37.9124 228.007 45.8399 228.561 47.1458L227.469 47.566C224.567 47.6004 221.382 47.7334 218.522 47.3986L217.947 47.3157C217.671 45.1018 217.801 39.0606 217.742 36.5572L217.188 8.9707C214.409 8.77375 211.719 8.43484 208.986 8.95412L208.832 7.90909Z" fill="#FCFDFA"/>
<path d="M208.832 7.90909C212.706 7.07719 214.26 7.3061 218.184 8.01829C218.259 9.49645 218.247 11.6945 218.785 12.987L219.331 12.9838L219.744 13.3805C218.651 15.2393 219.21 16.26 219.881 18.5102C221.62 24.3384 223.596 30.2251 225.351 36.0399C225.914 37.9124 228.007 45.8399 228.561 47.1458L227.469 47.566C227.115 45.8383 225.234 40.1877 224.63 38.1308C222.595 31.015 220.486 23.9202 218.297 16.8468C218.322 25.9176 219.422 38.6295 218.522 47.3986L217.947 47.3157C217.671 45.1018 217.801 39.0606 217.742 36.5572L217.188 8.9707C214.409 8.77375 211.719 8.43484 208.986 8.95412L208.832 7.90909Z" fill="#B0ACA8"/>
<path d="M207.955 9.96331L208.195 9.89172L208.151 47.7408C203.945 47.9398 200.371 48.0676 196.17 47.9871C196.209 36.2722 196.071 24.5573 195.757 12.8464C198.127 12.9111 205.723 13.3847 207.382 12.2746L207.955 9.96331Z" fill="#E0E0DE"/>
<path d="M239.908 32.3542C245.558 32.1508 273.729 30.7535 277.402 32.1144L277.552 32.7861C276.889 33.0385 276.439 33.2322 275.801 33.5311C275.609 35.2948 275.676 36.9282 275.709 38.6935L274.579 38.8072C272.257 40.0633 251.353 39.4668 247.429 39.3232C247.404 37.9284 247.542 35.5257 246.867 34.4487L246.308 34.7678C246.225 36.1453 246.45 38.516 245.749 39.2254L243.314 39.5784L242.968 40.1228C243.79 40.194 244.607 40.2558 245.428 40.308C243.456 40.6999 243.502 40.3577 242.464 41.5577L242.143 43.7282C241.868 42.085 242.176 42.5493 241.184 41.5617C241.08 40.6639 240.417 40.1442 240.171 39.1291C239.662 37.0245 239.833 34.5175 239.908 32.3542Z" fill="#E0E0DE"/>
<path d="M239.908 32.3542C245.558 32.1508 273.729 30.7535 277.402 32.1144L277.552 32.7861C276.889 33.0385 276.439 33.2322 275.801 33.5311C275.609 35.2948 275.676 36.9282 275.709 38.6935L274.579 38.8072L274.325 33.0434L241.259 33.153C241.263 35.0347 241.097 37.3529 241.826 39.0418C242.493 39.4199 242.522 39.4959 243.314 39.5784L242.968 40.1228C243.79 40.194 244.607 40.2558 245.428 40.308C243.456 40.6999 243.502 40.3577 242.464 41.5577L242.143 43.7282C241.868 42.085 242.176 42.5493 241.184 41.5617C241.08 40.6639 240.417 40.1442 240.171 39.1291C239.662 37.0245 239.833 34.5175 239.908 32.3542Z" fill="#B0ACA8"/>
<path d="M219.742 13.3822C221.593 12.7368 224.145 11.7569 225.967 11.2372C227.355 15.1912 227.909 18.315 229.014 22.2747C231.024 29.5919 233.263 36.8489 235.722 44.0363C233.258 45.203 231.082 46.1227 228.56 47.1475C228.005 45.8416 225.912 37.9141 225.35 36.0417C223.594 30.2269 221.618 24.3401 219.88 18.5119C219.208 16.2617 218.65 15.241 219.742 13.3822Z" fill="#E0E0DE"/>
<path d="M231.174 37.9333C232.016 38.684 233.021 39.9377 233.163 41.0753C232.367 42.4071 232.271 42.0852 230.394 42.7747L229.319 43.0101L228.885 42.4673L229.336 41.4595C230.303 41.2852 230.478 41.2589 231.374 40.8816C231.249 39.8236 231.207 38.9978 231.174 37.9333Z" fill="#D7D7D5"/>
<path d="M242.143 43.7276L242.464 41.557C243.502 40.3571 243.456 40.6993 245.428 40.3074C246.571 41.587 246.887 43.0959 246.692 44.8369C246.571 45.9009 246.008 46.8716 245.132 47.5239C244.557 47.9578 244.474 47.8341 243.652 47.8996C241.784 46.5525 242.08 45.9216 242.143 43.7276Z" fill="#FCFDFA"/>
<path d="M247.622 40.7045C256.556 41.3022 269.501 41.2428 278.624 40.9059L278.523 47.2149C268.301 47.2278 258.074 47.3702 247.855 47.6423L247.622 40.7045Z" fill="#D7D7D5"/>
<path d="M258.903 75.7428C260.83 75.01 263.344 75.1503 265.462 75.1252L265.904 80.1441C267.542 80.1919 269.151 80.0313 270.423 80.9497C271.749 82.5881 271.419 85.1942 271.444 87.3809C271.724 91.4922 271.699 103.715 272.27 106.376C273.22 107.087 273.325 106.86 274.709 106.891C275.359 106.3 275.342 106.244 275.301 105.03C275.105 98.9178 275.509 92.204 275.088 86.1579C280.583 86.1255 285.215 86.0256 290.71 85.6673C292.011 87.2211 291.857 90.0699 291.915 92.0536C292.061 96.1014 292.515 102.95 292.299 106.813C294.733 107.027 296.743 107.177 299.203 107.229L297.76 108.84C296.013 110.669 294.262 112.555 292.432 114.3L290.022 116.525C287.658 114.462 248.23 117.637 243.177 114.695C242.819 113.662 243.144 109.157 243.131 107.555C247.076 107.487 254.18 107.477 257.899 106.942C257.661 98.5979 258.236 85.3842 258.295 76.6256C258.532 76.2791 258.737 75.9851 258.903 75.7428Z" fill="#B2AFA9"/>
<path d="M290.022 116.525C287.658 114.462 248.23 117.637 243.177 114.695C242.819 113.662 243.144 109.157 243.131 107.555L244.111 108.522C253.663 107.9 266.608 109.01 276.589 108.948C281.984 108.914 292.924 108.471 297.76 108.84C296.013 110.669 294.262 112.555 292.432 114.301L290.022 116.525Z" fill="#FCFDFA"/>
<path d="M290.022 116.525C287.658 114.462 248.23 117.637 243.177 114.695C242.819 113.662 243.144 109.157 243.131 107.555L244.111 108.522C244.378 110.598 244.457 111.962 244.495 114.056C260.504 114.104 276.418 114.482 292.432 114.301L290.022 116.525Z" fill="#D7D7D5"/>
<path d="M276.439 87.5476C281.071 87.5913 285.703 87.5044 290.331 87.2864C290.372 90.4296 290.414 92.3696 290.848 95.4776C290.985 97.8446 291.164 100.204 291.11 102.575C290.994 104.107 290.898 105.001 290.606 106.515C289.493 107.155 278.774 107.025 276.702 107.034C276.597 100.848 276.143 93.6099 276.439 87.5476Z" fill="#FCFDFA"/>
<path d="M279.157 90.2323L286.341 90.1401C286.841 92.0773 287.204 94.6183 287.55 96.6307L288.859 102.252C286.136 102.236 281.592 102.097 279.057 102.424C278.215 99.4872 278.815 93.3173 279.157 90.2323Z" fill="#E0E0DE"/>
<path d="M279.157 90.2323L286.341 90.1401C286.841 92.0773 287.204 94.6183 287.55 96.6307L286.253 97.0404L286.17 96.7233C285.673 94.7158 286.015 92.8829 285.048 91.7174C283.664 91.1819 281.796 91.3651 280.249 91.3991C280.337 94.1682 280.379 97.133 280.533 99.8811C280.212 101.293 280.174 101.489 279.057 102.424C278.215 99.4872 278.815 93.3173 279.157 90.2323Z" fill="#B0ACA8"/>
<path d="M286.253 97.0375L287.549 96.6278L288.859 102.249C286.136 102.234 281.592 102.094 279.057 102.422C280.174 101.487 280.212 101.29 280.533 99.8782C282.659 100.041 284.865 100.516 286.566 99.479C286.732 98.3094 286.632 98.1974 286.253 97.0375Z" fill="#D7D7D5"/>
<path d="M258.903 75.7423L259.187 76.2098C260.896 76.0683 262.368 75.8349 264.031 76.2527C265.061 78.2404 263.89 102.879 263.99 107.201C262.647 107.189 259.996 107.241 258.807 106.979L257.899 106.942C257.661 98.5975 258.236 85.3837 258.295 76.6252C258.532 76.2786 258.737 75.9846 258.903 75.7423Z" fill="#FCFDFA"/>
<path d="M258.903 75.7423L259.187 76.2098C258.703 85.6964 258.933 97.2224 258.807 106.979L257.899 106.942C257.661 98.5975 258.236 85.3837 258.295 76.6252C258.532 76.2786 258.737 75.9846 258.903 75.7423Z" fill="#B0ACA8"/>
<path d="M265.904 80.1416C267.542 80.1893 269.152 80.0288 270.423 80.9472C271.749 82.5855 271.42 85.1916 271.445 87.3783C270.686 88.5063 270.694 89.58 270.565 90.9106C270.903 95.3867 270.694 102.621 270.469 107.037L265.378 107.146C266.004 98.7956 265.253 89.5687 265.824 80.9674L265.904 80.1416Z" fill="#FCFDFA"/>
<path d="M265.904 80.1416C267.542 80.1893 269.151 80.0288 270.423 80.9472C271.749 82.5855 271.419 85.1916 271.444 87.3783C270.686 88.5063 270.694 89.58 270.565 90.9106C270.273 87.6388 271.053 84.3913 269.681 81.9081C268.188 80.8186 268.013 81.1494 265.824 80.9674L265.904 80.1416Z" fill="#B0ACA8"/>
<path d="M291.915 92.0514C292.061 96.0993 292.515 102.947 292.299 106.811L291.444 106.421C291.252 105.023 291.181 103.981 291.11 102.574C291.165 100.203 290.985 97.8435 290.848 95.4764C291.619 94.5629 291.69 93.2744 291.915 92.0514Z" fill="#B0ACA8"/>
<path d="M355.449 194.006C365.43 180.402 376.366 177.876 392.647 176.125C387.331 188.402 390.433 207.296 376.291 213.421C369.22 216.485 359.614 213.498 355.395 222.506C353.978 225.535 354.069 228.294 353.298 231.172L353.277 231.693L348.679 231.685C349.167 231.532 349.379 231.328 349.809 231.04L349.438 230.238C349.25 227.899 349.041 226.28 349.371 223.927L350.234 225.722L350.747 225.617L351.109 224.94L351.397 225.517L351.756 225.35C352.093 223.693 352.348 222.71 352.869 221.098C353.244 218.735 353.715 216.474 354.195 214.131L353.532 213.503C350.972 208.391 352.239 202.176 353.894 197.028C354.203 196.232 355.02 194.817 355.449 194.006Z" fill="#1BC3D8"/>
<path d="M355.449 194.006C365.43 180.402 376.366 177.876 392.647 176.125C387.331 188.402 390.433 207.296 376.291 213.421C369.22 216.485 359.614 213.498 355.395 222.506C353.978 225.535 354.069 228.294 353.298 231.172L353.277 231.693L348.679 231.685C349.167 231.532 349.379 231.328 349.809 231.04L349.438 230.238C349.25 227.899 349.041 226.28 349.371 223.927L350.234 225.722L350.747 225.617L351.109 224.94L351.397 225.517L351.756 225.35C352.093 223.693 352.348 222.71 352.869 221.098C353.244 218.735 353.715 216.474 354.195 214.131C357.93 202.984 366.919 187.397 379.597 184.485C378.876 184.913 378.159 185.351 377.454 185.8C364.964 193.707 357.451 206.252 354.407 220.231C363.621 210.838 366.631 215.779 376.312 211.338C387.715 206.106 386.335 190.243 389.311 180.937C387.202 179.875 385.922 179.298 383.7 178.488C367.452 181.619 353.248 191.563 353.744 208.829C353.778 210.02 353.753 212.411 353.532 213.503C350.972 208.391 352.239 202.176 353.894 197.028C354.203 196.232 355.02 194.817 355.449 194.006Z" fill="#020202"/>
<path d="M352.869 221.099C352.723 223.951 352.06 228.885 353.298 231.172L353.277 231.694L348.679 231.685C349.167 231.532 349.379 231.328 349.809 231.04L349.438 230.238C349.25 227.899 349.041 226.28 349.371 223.928L350.234 225.722L350.747 225.617L351.109 224.94L351.397 225.517L351.756 225.35C352.093 223.693 352.348 222.71 352.869 221.099Z" fill="#A4E7EF"/>
<path d="M383.699 178.489C385.384 178.154 387.931 177.424 389.44 177.89C390.061 178.947 389.686 179.737 389.311 180.937C387.201 179.876 385.921 179.298 383.699 178.489Z" fill="#1BC3D8"/>
<path d="M371.947 201.487C373.152 201.407 374.235 201.487 375.424 201.636L375.807 202.281L376.428 201.955L376.178 201.841L376.378 202.18C374.031 203.069 371.646 203.142 369.17 203.53C367.044 204.285 364.863 204.762 362.662 205.262C365.726 203.362 368.303 202.115 371.947 201.487Z" fill="#020202"/>
<path d="M338.543 199.191C325.164 197.569 318.214 196.97 314.02 183.959C313.624 182.734 310.902 181.01 310.355 179.086C311.06 177.863 312.378 177.497 313.745 177.136C320.474 175.364 327.295 175.132 333.528 178.649C337.347 180.757 340.098 184.307 341.124 188.454C341.649 190.521 341.908 195.465 342.375 196.73C344.126 201.461 346.26 206.174 348.053 210.983C349.938 216.035 349.988 220.146 351.109 224.942L350.746 225.619L350.234 225.725L349.371 223.93C349.041 226.282 349.25 227.902 349.437 230.24C347.344 228.323 348.704 223.565 348.241 222.388C346.427 217.747 341.587 201.947 338.543 199.191Z" fill="#020202"/>
<path d="M318.042 177.787C329.67 176.298 338.296 180.384 340.147 192.197C339.447 192.662 338.392 193.416 337.662 193.748C334.89 190.996 328.619 185.064 324.759 184.039L324.183 184.303C329.916 188.782 335.382 192.764 339.993 198.471L338.642 198.173C333.343 196.044 322.003 196.887 318.363 189.941C316.053 185.525 317.342 184.575 313.256 180.415C316.053 180.009 316.575 180.186 318.042 177.787Z" fill="#1BC3D8"/>
<path d="M338.643 198.173L339.994 198.471C343.825 203.713 349.979 217.988 349.37 223.929C349.041 226.282 349.249 227.901 349.437 230.24C347.344 228.322 348.703 223.565 348.24 222.387C346.427 217.746 341.586 201.946 338.543 199.191L338.643 198.173Z" fill="#A4E7EF"/>
<path d="M337.662 193.748C338.392 193.416 339.446 192.663 340.147 192.197L341.41 198.386L337.662 193.748Z" fill="#A4E7EF"/>
<path d="M313.257 180.413C312.598 179.845 312.785 180.19 312.673 179.349C313.878 178.441 316.442 178.107 318.043 177.785C316.575 180.184 316.054 180.008 313.257 180.413Z" fill="#1BC3D8"/>
<path d="M369.442 71.9628C370.296 72.2115 370.697 72.1322 371.018 72.9556C372.127 75.7931 371.943 80.6833 371.943 83.7626C372.873 82.0135 373.544 80.3772 375.216 79.259L375.971 79.3322C377.171 81.7704 375.341 87.6985 374.736 90.5509C374.395 92.1601 376.65 92.1568 376.859 92.5697C377.876 94.6137 375.424 105.299 374.849 106.644L375.053 107.069C372.748 107.065 362.671 107.369 361.529 106.278L360.649 106.643C359.331 103.981 357.66 95.1641 358.493 92.3501C359.502 91.3718 360.532 91.3884 361.991 91.1595C359.707 83.7456 359.06 85.883 359.369 77.8269C360.795 79.7115 362.079 81.7081 363.38 83.6753C363.079 81.3733 362.308 77.6607 364.134 75.7922L364.926 75.9779C366.052 77.1107 366.281 78.5735 366.703 80.1147C367.411 76.7762 367.682 74.8952 369.442 71.9628Z" fill="#B0ACA8"/>
<path d="M359.234 92.9369C363.987 92.8087 371.166 92.7283 375.911 93.2682C375.498 97.862 374.735 102.205 374.335 106.515L374.848 106.644L375.052 107.069C372.746 107.065 362.67 107.37 361.527 106.278C360.26 101.084 359.647 98.2717 359.234 92.9369Z" fill="#FCFDFA"/>
<path d="M366.701 80.1147C367.41 76.7762 367.681 74.8952 369.44 71.9628L369.574 72.664C371.371 75.2952 371.317 90.0595 368.673 91.9627L367.402 91.2028C366.793 90.0587 366.017 88.9526 366.055 87.7264C367.051 85.8009 366.372 83.3986 366.042 81.1145L366.701 80.1147Z" fill="#FCFDFA"/>
<path d="M366.701 80.1147C367.41 76.7762 367.681 74.8952 369.44 71.9628L369.574 72.664C368.415 74.979 367.785 89.5471 368.673 91.9627L367.402 91.2028C366.793 90.0587 366.017 88.9526 366.055 87.7264C367.051 85.8009 366.372 83.3986 366.042 81.1145L366.701 80.1147Z" fill="#D7D7D5"/>
<path d="M363.7 75.1824C364.717 77.2263 365.301 78.9835 366.043 81.1152C366.372 83.3994 367.052 85.8017 366.056 87.7272C363.825 81.8331 363.725 81.5314 363.7 75.1824Z" fill="#FCFDFA"/>
<path d="M360.06 81.0958C362.958 82.6249 364.542 88.7176 365.572 91.6197L364.158 91.2913C361.523 89.0977 360.54 84.311 360.06 81.0958Z" fill="#E0E0DE"/>
<path d="M361.528 106.278C362.67 107.369 372.747 107.065 375.052 107.068L384.471 107.216C384.704 109.561 385.505 113.968 384.225 115.844C380.385 116.814 342.983 116.738 339.118 115.456L339.41 114.384C339.815 111.859 339.831 110.789 339.802 108.243L339.402 106.826C342.841 106.597 345.581 106.739 349.029 106.886C352.881 106.864 356.808 106.889 360.648 106.643L361.528 106.278Z" fill="#FCFDFA"/>
<path d="M361.528 106.278C362.67 107.369 372.747 107.065 375.052 107.068L384.471 107.216C384.704 109.561 385.505 113.968 384.225 115.844C380.385 116.814 342.983 116.738 339.118 115.456L339.41 114.384C342.533 114.061 352.043 114.42 355.645 114.482C364.913 114.67 374.181 114.72 383.453 114.628L383.637 107.983C372.138 108.182 360.665 108.636 349.204 107.605L349.029 106.886C352.881 106.864 356.808 106.889 360.648 106.643L361.528 106.278Z" fill="#B9B5B1"/>
<path d="M339.403 106.827C342.842 106.598 345.581 106.74 349.029 106.888L349.204 107.606L340.316 107.408C340.007 107.817 339.97 107.779 339.803 108.244L339.403 106.827Z" fill="#B0ACA8"/>
<path d="M345.043 47.8176C348.541 46.7265 378.947 46.8716 384.304 47.3521C384.542 49.5865 385.417 54.0307 384.029 55.6873C380.373 56.8002 352.164 56.9547 348.178 56.0152C345.326 57.5779 346.627 58.2849 346.194 61.1421C345.156 56.1794 344.305 52.6513 342.387 47.9531L345.043 47.8176Z" fill="#FCFDFA"/>
<path d="M345.042 47.8176C348.54 46.7265 378.946 46.8716 384.303 47.3521C384.541 49.5865 385.416 54.0307 384.028 55.6873C380.372 56.8002 352.163 56.9547 348.177 56.0152L347.91 55.6242C349.461 55.0782 378.925 54.8271 383.102 54.6536C383.223 52.7451 383.186 50.3578 383.215 48.4089C376.886 48.6552 349.982 49.32 345.042 47.8176Z" fill="#B0ACA8"/>
<path d="M333.215 152.028C348.224 158.465 352.681 169.326 354.094 184.271C354.328 185.587 354.624 187.09 354.799 188.395C354.882 189.823 354.807 192.984 355.449 194.007C355.02 194.818 354.203 196.233 353.894 197.029L351.655 197.336C349.337 191.483 350.83 179.557 345.468 175.234C335.775 167.413 333.157 165.182 333.215 152.028Z" fill="#1BC3D8"/>
<path d="M333.215 152.028C348.224 158.465 352.681 169.326 354.094 184.271L353.327 183.943C352.389 181.546 351.351 176.149 350.605 173.409C348.007 163.866 342.692 158.632 334.332 153.75C335.308 164.733 336.68 167.274 345.764 173.228C351.98 177.303 351.205 188.57 352.397 195.066L351.655 197.336C349.337 191.483 350.83 179.557 345.468 175.234C335.775 167.413 333.157 165.182 333.215 152.028Z" fill="#020202"/>
<path d="M354.799 188.395C354.883 189.823 354.808 192.984 355.45 194.007C355.02 194.818 354.203 196.234 353.895 197.029L351.656 197.336L352.398 195.066C352.373 188.964 353.052 192.067 354.799 188.395Z" fill="#A4E7EF"/>
<path d="M340.198 161.973C340.419 162.053 340.619 162.109 340.819 162.231C342.812 163.445 344.53 166.996 345.167 169.121C343.241 168.007 340.986 164.004 340.198 161.973Z" fill="#05272B"/>
<path d="M355.974 179.222C356.341 175.277 359.868 163.871 363.937 162.384C367.873 163.5 366.293 168.393 365.542 171.282C364.634 174.807 361.924 177.973 360.21 181.161C359.489 182.509 359.597 184.688 358.534 185.63C357.963 185.166 358.071 185.434 357.917 184.876C358.296 180.748 354.84 182.05 355.974 179.222Z" fill="#E0E0DE"/>
<path d="M355.974 179.222C356.341 175.277 359.868 163.871 363.938 162.384C367.873 163.5 366.293 168.393 365.543 171.282C364.634 174.807 361.924 177.973 360.21 181.161C359.489 182.509 359.597 184.688 358.534 185.63C357.963 185.166 358.071 185.434 357.917 184.876C359.856 174.713 365.876 175.965 364.434 163.65C358.872 168.908 358.797 173.247 356.404 179.645L355.974 179.222Z" fill="#020202"/>
<path d="M329.592 206.789C332.335 207.503 335.537 209.006 337.93 210.496C343.655 214.055 345.623 218.253 346.998 224.432C341.37 215.239 341.728 213.779 331.168 208.81L332.356 213.712C334.47 218.374 337.776 220.33 341.516 223.61C342.925 224.842 344.676 226.696 344.784 228.625L344.176 228.728C344.126 228.688 344.076 228.648 344.026 228.608C342.637 227.462 341.578 225.987 340.198 224.804C333.077 218.702 330.484 216.425 329.592 206.789Z" fill="#020202"/>
<path d="M303.834 196.396L304.28 196.814C300.115 205.239 305.381 204.414 305.944 210.997C306.14 213.313 305.147 214.747 303.672 216.398L302.984 215.875C302.879 214.532 303.859 212.774 304.376 211.518C303.434 208.292 301.199 205.193 301.149 201.776C301.116 199.509 302.283 197.939 303.834 196.396Z" fill="#020202"/>
<path d="M130.157 58.9047C131.046 59.5776 130.763 59.157 131.052 60.1984C130.273 62.2771 125.453 64.6208 123.343 65.8466C122.88 65.377 122.782 65.17 122.423 64.6337C122.987 62.6201 128.165 60.065 130.157 58.9047Z" fill="#1BC3D8"/>
<path d="M275.285 7.54346C277.732 8.19094 283.523 12.8499 283.627 15.4714C281.001 15.1777 275.831 10.1767 275.285 7.54346Z" fill="#020202"/>
<path d="M128.134 89.0574C130.208 88.8718 133.667 88.2716 135.414 89.4384C134.987 90.3499 134.564 90.4041 133.674 90.8696C132.731 90.9756 131.784 91.0565 130.836 91.1127C129.457 91.1843 127.541 91.1483 126.468 90.2128L126.724 89.5666L128.134 89.0574Z" fill="#1BC3D8"/>
<path d="M309.655 203.275L310.022 203.74C309.892 205.356 310.739 206.74 311.156 208.268C311.91 211.037 311.877 212.72 310.426 215.205C309.867 215.044 309.976 215.079 309.667 214.678C310.522 210.751 307.716 206.548 309.655 203.275Z" fill="#020202"/>
<path d="M272.335 18.5905C274.007 18.6167 277.785 19.4321 279.336 20.1499C281.157 20.9927 280.932 20.8326 281.487 22.3459C278.914 22.0944 272.932 21.2237 272.335 18.5905Z" fill="#020202"/>
<path d="M285.706 3.39832C288.245 4.04539 289.546 9.59691 289.483 11.8184C286.886 11.4945 285.823 5.48069 285.706 3.39832Z" fill="#020202"/>
<path d="M120.771 114.314C121.99 114.363 123.007 114.895 124.078 115.42C126.018 116.37 128.338 117.463 129.057 119.589C128.953 119.571 128.848 119.557 128.744 119.537C126.078 119.033 122.234 116.447 120.771 114.314Z" fill="#1BC3D8"/>
<path d="M114.313 127.646C114.499 127.703 114.702 127.754 114.876 127.845C116.734 128.819 118.967 131.982 119.542 133.914C119.339 133.858 119.125 133.812 118.935 133.718C116.837 132.684 115.103 129.707 114.313 127.646Z" fill="#1BC3D8"/>
<path d="M119.714 47.9919C119.521 50.1528 117.742 51.8384 116.161 53.4157C115.813 51.4926 118.337 49.1086 119.714 47.9919Z" fill="#A4E7EF"/>
<path d="M130.556 74.8624C130.8 75.0076 130.853 75.2248 130.985 75.4662C129.862 76.4312 128.063 76.7183 126.633 77.1017C126.424 76.7968 126.382 76.5012 126.294 76.1493C127.439 75.2212 129.123 75.1249 130.556 74.8624Z" fill="#1BC3D8"/>
</g>
<defs>
<clipPath id="clip0_923_53022">
<rect width="408" height="301" fill="white"/>
</clipPath>
</defs>
</svg>
