<svg width="32" height="32" viewBox="0 0 32 32" fill="none" xmlns="http://www.w3.org/2000/svg">
<path fill-rule="evenodd" clip-rule="evenodd" d="M15.8237 8.65774L15.8702 8.35635L15.7147 8.23404C15.373 8.38 15.0991 8.49372 14.7469 8.61308C15.0386 8.95432 15.5046 8.97757 15.8237 8.65774Z" fill="#1C1C1C"/>
<path d="M15.7147 8.23404L15.8702 8.35635L15.8237 8.65774C15.5046 8.97757 15.0386 8.95432 14.7469 8.61308C15.0991 8.49372 15.373 8.38 15.7147 8.23404Z" fill="#D9DBD5"/>
<path fill-rule="evenodd" clip-rule="evenodd" d="M28.3712 25.4662L28.3459 25.5015C28.3545 25.4895 28.3629 25.4777 28.3712 25.4662Z" fill="#1C1C1C"/>
<path fill-rule="evenodd" clip-rule="evenodd" d="M18.6081 17.7749C18.6089 17.7734 18.6097 17.7717 18.6105 17.7702C18.6111 17.769 18.6116 17.7678 18.6122 17.7667M18.6081 17.7749C18.6089 17.7734 18.6097 17.7717 18.6105 17.7702Z" fill="#B5FE28"/>
<path fill-rule="evenodd" clip-rule="evenodd" d="M20.2366 16.4677C20.2413 16.4716 20.2458 16.4754 20.2501 16.479C20.2478 16.4771 20.2454 16.4751 20.243 16.4731C20.241 16.4713 20.2388 16.4695 20.2366 16.4677Z" fill="#B5FE28"/>
<path fill-rule="evenodd" clip-rule="evenodd" d="M18.6049 17.7805C18.6056 17.7794 18.6062 17.7783 18.6068 17.7772C18.6073 17.7764 18.6076 17.7757 18.6081 17.7749" fill="#1C1C1C"/>
<path d="M15.1728 14.8033C15.1605 14.8867 15.1488 14.9647 15.1371 15.0349C13.7966 14.5924 12.665 14.2878 11.2119 14.246C6.49887 14.1103 1.73546 17.31 0.108413 21.7338C0.064667 21.8528 0.068793 21.8724 0.0855456 21.9519C0.0906392 21.976 0.0969 22.0057 0.103337 22.0454C0.145159 22.0506 0.174154 22.0552 0.195901 22.0587C0.22377 22.0632 0.239747 22.0658 0.255558 22.065C0.276756 22.064 0.297675 22.0571 0.346622 22.0409C0.359465 22.0366 0.374306 22.0317 0.391515 22.0261C1.38892 19.4734 4.13488 16.7031 6.67691 15.6673C9.9574 14.3306 12.3402 14.5001 15.5443 15.7283C15.6638 15.0403 15.7936 14.354 15.9338 13.6699C16.0608 13.8542 16.1967 14.05 16.3383 14.2538C17.1117 15.3676 18.0525 16.7224 18.6135 17.7638C18.6133 17.7642 18.6132 17.7645 18.613 17.7649C18.6111 17.769 18.6091 17.7731 18.6068 17.7772C18.6062 17.7783 18.6056 17.7794 18.6049 17.7805C18.4513 18.0463 17.4431 18.3254 16.7329 18.5054C16.7282 18.5066 16.7234 18.5078 16.7187 18.509C16.6351 18.5302 16.5559 18.5499 16.4828 18.5681C16.4718 18.5708 16.4609 18.5735 16.4502 18.5762C16.3264 18.607 16.2222 18.6329 16.1477 18.6529L15.1172 18.9356C15.0602 18.9561 15.0067 18.9765 14.9558 18.9959C14.691 19.0968 14.4946 19.1717 14.2269 19.1016C14.1972 18.8583 14.4154 18.457 14.5783 18.1575C14.6121 18.0952 14.6436 18.0373 14.67 17.9861C14.8645 17.2379 14.159 17.0793 13.5099 16.9333C13.47 16.9243 13.4303 16.9154 13.3911 16.9064C8.2044 15.7159 3.91593 18.6876 1.87483 23.3711C1.88747 23.4029 1.89625 23.4267 1.90301 23.4451C1.91501 23.4777 1.92069 23.4932 1.9304 23.5053C1.93909 23.5162 1.95102 23.5245 1.9736 23.5401C1.993 23.5536 2.02026 23.5725 2.06008 23.6032C2.1959 23.5172 2.5873 22.8513 2.93347 22.2623C3.14869 21.8961 3.34643 21.5597 3.45438 21.4109C6.22064 17.5977 9.76404 16.5089 14.1903 17.6962C14.1451 17.7863 14.0944 17.8801 14.0424 17.9765C13.7409 18.5347 13.3926 19.1797 13.7725 19.7003C14.2673 19.9126 15.4793 19.4874 16.2758 19.2081C16.4368 19.1516 16.5808 19.1011 16.6985 19.063L18.2291 18.6968C18.6323 18.5967 18.9621 18.4761 19.1873 18.1076C19.2044 17.7967 19.1861 17.7651 19.0812 17.5848C19.0483 17.5282 19.0069 17.457 18.9555 17.358C18.5003 16.4857 16.6765 13.6926 15.946 13.136L15.7352 13.0893C15.3822 13.3875 15.2631 14.1931 15.1782 14.7672L15.1728 14.8033Z" fill="#1C1C1C"/>
<path d="M18.7257 20.1771C18.6597 20.0795 18.6115 20.0082 18.4913 19.9554C18.237 20.4237 18.0332 21.1665 18.22 21.691C18.2581 21.7982 18.3105 21.8649 18.3834 21.9489C18.3923 21.959 18.4008 21.9694 18.4094 21.9798C18.4151 21.9867 18.4208 21.9937 18.4266 22.0005C18.4596 22.0396 18.4946 22.0768 18.5297 22.114C18.7594 21.4664 18.8674 20.9005 18.7529 20.217C18.7434 20.2032 18.7344 20.1899 18.7257 20.1771Z" fill="#B5FE28"/>
<path d="M20.5006 19.8084C20.3088 19.6384 20.1571 19.5669 19.9007 19.5465C20.0535 20.2087 20.5281 20.9943 21.1263 21.3477C21.2426 21.4164 21.307 21.4039 21.4128 21.3835C21.4359 21.3791 21.4609 21.3743 21.4888 21.3698C21.4519 20.7647 20.9365 20.1942 20.5006 19.8084Z" fill="#B5FE28"/>
<path d="M20.9847 17.8115C20.9429 17.8101 20.9012 17.8087 20.8596 17.8072C20.8504 17.8431 20.8419 17.8745 20.8341 17.9028C20.7859 18.0792 20.7714 18.1324 20.8751 18.3477C21.3804 18.65 22.2221 18.62 22.8521 18.5975C22.9196 18.5951 22.9847 18.5928 23.0466 18.591C23.049 18.5708 23.0533 18.5464 23.058 18.5197C23.0745 18.4267 23.0956 18.3071 23.0538 18.2521C22.8377 17.9679 22.4711 17.9125 22.1379 17.8776C21.756 17.8377 21.3691 17.8246 20.9847 17.8115Z" fill="#B5FE28"/>
<path d="M22.0552 15.439C21.9582 15.2009 21.9016 15.1667 21.6225 15.1054C21.5495 15.1563 21.4677 15.2108 21.3811 15.2685C20.911 15.5815 20.3001 15.9884 20.1889 16.4278C20.2849 16.5071 20.3172 16.54 20.3559 16.5518C20.4017 16.5657 20.4565 16.5501 20.6364 16.5464C20.6927 16.5136 20.7531 16.4792 20.8163 16.4433C21.2686 16.1863 21.8598 15.8503 22.0552 15.439Z" fill="#B5FE28"/>
<path d="M28.3963 9.5845C27.0829 9.42961 24.1287 9.08122 23.7444 8.86345C23.7316 8.96467 23.6988 9.37606 23.6741 9.6844C23.6587 9.87756 23.6465 10.0303 23.6445 10.0409C24.726 10.1823 25.8041 10.35 26.8777 10.5436C27.3609 10.1171 27.9709 9.9308 28.5855 9.74311C28.6911 9.71086 28.7969 9.67856 28.9021 9.64499C28.7943 9.63144 28.6187 9.61073 28.3963 9.5845Z" fill="#D9DBD5"/>
<path fill-rule="evenodd" clip-rule="evenodd" d="M17.4781 8.18768C17.2121 8.16025 16.9977 8.13815 16.8579 8.12173L16.5647 8.00095L16.4217 9.0196C16.554 9.0395 16.7492 9.06958 16.9897 9.10665C18.5569 9.3482 22.0536 9.88714 22.6902 9.85098C22.8378 9.66514 22.8351 9.5732 22.8293 9.37555C22.8275 9.31306 22.8254 9.23997 22.8276 9.15002C22.4055 8.69566 19.046 8.34931 17.4781 8.18768Z" fill="#D9DBD5"/>
<path d="M20.1524 2.90037C17.9863 2.58125 16.85 5.78142 16.6298 7.55177L16.7686 7.6145C17.5213 7.64611 18.2207 7.75677 18.9606 7.87385L19.0215 7.88347C19.0871 6.80636 19.5974 3.90328 20.505 3.25105C20.5588 3.24761 20.6 3.24371 20.6327 3.24062C20.6945 3.23477 20.7256 3.23183 20.7531 3.24041C20.7809 3.2491 20.805 3.26959 20.8536 3.31082C20.8828 3.3356 20.9208 3.36788 20.9737 3.40959C20.9982 3.58871 20.7203 4.07689 20.455 4.54299C20.2681 4.87138 20.0874 5.18881 20.0231 5.37949C19.7728 6.1216 19.6797 6.86147 19.5837 7.62351C19.5698 7.73383 19.5559 7.84462 19.5414 7.95594C19.7213 7.97427 19.9083 7.99228 20.0997 8.01072C21.0039 8.09781 22.0063 8.19436 22.8244 8.37899C22.752 6.63249 22.4478 3.23846 20.1524 2.90037Z" fill="white"/>
<path d="M21.6005 2.73228L21.6849 2.74263C22.1263 2.69767 22.5676 2.6491 23.0082 2.59693C25.4006 3.61076 25.6239 5.66867 25.8605 7.8497C25.8924 8.14369 25.9246 8.43991 25.9623 8.73611L24.0196 8.47282C23.8171 8.39201 23.7993 8.39887 23.651 8.45597C23.6019 8.47489 23.5384 8.49934 23.4492 8.52794C23.4454 6.43898 23.0939 4.2907 21.6005 2.73228Z" fill="white"/>
<path fill-rule="evenodd" clip-rule="evenodd" d="M28.7613 24.4889C28.7611 24.4887 28.7614 24.4892 28.7613 24.4889Z" fill="#D9DBD5"/>
<path fill-rule="evenodd" clip-rule="evenodd" d="M18.6068 17.7772C18.6062 17.7783 18.6056 17.7794 18.6049 17.7805C18.4513 18.0463 17.4431 18.3254 16.7329 18.5054L16.7187 18.509C16.6351 18.5302 16.5559 18.5499 16.4828 18.5681L16.4502 18.5762C16.3264 18.607 16.2222 18.6329 16.1477 18.6529L15.1172 18.9356C15.0602 18.9561 15.0067 18.9765 14.9558 18.9959C14.691 19.0968 14.4946 19.1717 14.2269 19.1016C14.1972 18.8583 14.4154 18.457 14.5783 18.1575C14.6121 18.0952 14.6436 18.0373 14.67 17.9861C14.8645 17.2379 14.159 17.0793 13.5099 16.9333C13.47 16.9243 13.4303 16.9154 13.3911 16.9064C8.2044 15.7159 3.91593 18.6876 1.87483 23.3711C1.71925 23.2174 1.44783 22.977 1.16417 22.7257C0.885803 22.479 0.595631 22.222 0.391515 22.0261C1.38892 19.4734 4.13488 16.7031 6.67691 15.6673C9.9574 14.3306 12.3402 14.5001 15.5443 15.7283C15.6638 15.0403 15.7936 14.354 15.9338 13.6699C16.0608 13.8542 16.1967 14.05 16.3383 14.2538C17.1117 15.3676 18.0525 16.7224 18.6135 17.7638L18.613 17.7649C18.6111 17.769 18.6091 17.7731 18.6068 17.7772Z" fill="#B5FE28"/>
<path d="M25.8677 24.7503C25.8771 25.4654 25.8255 26.3318 25.7729 27.2129C25.7268 27.9863 25.68 28.771 25.6733 29.4748C24.4943 29.4431 23.0628 29.1009 21.6797 28.7702C20.828 28.5666 19.9946 28.3674 19.25 28.2478C17.3534 27.9431 15.3923 27.4755 13.4903 27.0221C13.1086 26.9311 12.7292 26.8406 12.3533 26.7522C12.0219 26.6742 11.2807 26.3664 11.0508 26.0673C10.5481 25.1937 10.8588 23.5621 11.0827 22.3863L11.0895 22.3507L11.0928 22.3334C11.1252 22.1629 11.1556 22.0021 11.1809 21.8559C11.3207 22.0321 11.4331 22.2234 11.5294 22.4223C11.6602 22.6923 11.7611 22.9761 11.8601 23.2547C12.0071 23.6682 12.15 24.0701 12.3802 24.3979C13.5824 26.1099 17.1911 26.725 19.0432 27.0407L19.0752 27.0461C21.8631 27.5214 23.8661 27.3201 25.4269 24.755C25.4658 24.6911 25.6345 24.7176 25.7571 24.7369C25.804 24.7442 25.8442 24.7506 25.8677 24.7503Z" fill="#D9DBD5"/>
<path fill-rule="evenodd" clip-rule="evenodd" d="M28.3459 25.5015L28.3712 25.4662L28.3989 25.4274C28.4209 25.3967 28.4416 25.3676 28.461 25.3402L28.5972 25.4744C28.6582 26.0318 27.3534 27.9822 26.9847 28.4842L26.8465 28.3287C26.8416 28.1868 26.8796 28.0154 26.9473 27.8263C27.1298 27.3172 27.5288 26.6799 27.8927 26.1464C28.0589 25.9026 28.2184 25.6797 28.3459 25.5015Z" fill="#1C1C1C"/>
<path fill-rule="evenodd" clip-rule="evenodd" d="M29.7736 25.3962C29.5002 25.2441 29.231 25.0942 28.9115 25.0867C29.0115 25.4551 29.4696 25.7359 29.7862 25.9129C30.0597 26.0658 30.3166 26.1907 30.6337 26.2099C30.5194 25.8078 30.2049 25.6343 29.856 25.4419C29.8311 25.4281 29.806 25.4143 29.7809 25.4003L29.7736 25.3962Z" fill="#1C1C1C"/>
<path d="M28.2911 11.8489L28.2901 11.8472L28.2838 11.8367C28.0621 12.9159 28.3468 23.8042 28.7035 24.398C28.7089 24.407 28.7148 24.4159 28.7208 24.4246L28.7234 24.4284C28.7285 24.436 28.7338 24.4437 28.7387 24.4514L28.7401 24.4537L28.7415 24.4559C28.7453 24.462 28.749 24.4683 28.7527 24.4745L28.7567 24.4813L28.7575 24.4826L28.7613 24.4889L28.7657 24.4964C28.9531 23.2372 28.7074 12.5233 28.3059 11.8735L28.3052 11.8725L28.3015 11.8663L28.2995 11.8631C28.2975 11.8596 28.2954 11.8562 28.2933 11.8527L28.2911 11.8489Z" fill="#1C1C1C"/>
<path fill-rule="evenodd" clip-rule="evenodd" d="M29.5167 10.0265C29.4795 9.98125 29.4792 9.98089 29.3766 9.96166C29.2801 9.99547 29.182 10.0294 29.0829 10.0635L29.0164 10.0864C28.4518 10.2808 27.8578 10.4854 27.3393 10.7352C27.3507 11.7166 27.2669 12.8805 27.19 13.9489C27.1688 14.2436 27.1481 14.5311 27.13 14.8055C26.9681 17.3579 26.7906 19.9093 26.5975 22.4595C26.5714 22.8085 26.5443 23.1541 26.5175 23.4972C26.3594 25.5181 26.2078 27.4558 26.2836 29.524C26.3867 29.4677 26.4961 29.409 26.6084 29.3488C26.964 29.158 27.3486 28.9517 27.6559 28.7542C27.9067 28.5989 28.2523 28.417 28.63 28.2181C29.7419 27.6328 31.1328 26.9007 31.2066 26.2655C31.4621 24.0706 31.0591 21.5135 30.6692 19.04C30.4614 17.722 30.2574 16.4278 30.1588 15.2247C30.0641 14.0698 29.7728 11.0249 29.5996 10.1182C29.5568 10.0752 29.5331 10.0465 29.5167 10.0265ZM28.3712 25.4662L28.3459 25.5015C28.2184 25.6797 28.0589 25.9026 27.8927 26.1464C27.5288 26.6799 27.1298 27.3172 26.9473 27.8263C26.8796 28.0154 26.8416 28.1868 26.8465 28.3287L26.9847 28.4842C27.3534 27.9822 28.6582 26.0318 28.5972 25.4744L28.461 25.3402C28.4416 25.3676 28.4209 25.3967 28.3989 25.4274L28.3712 25.4662ZM28.2901 11.8472L28.2911 11.8489L28.2933 11.8527C28.2954 11.8562 28.2975 11.8596 28.2995 11.8631L28.3015 11.8663L28.3052 11.8725L28.3059 11.8735C28.7074 12.5233 28.9531 23.2372 28.7657 24.4964L28.7613 24.4889L28.7575 24.4826L28.7567 24.4813L28.7527 24.4745C28.749 24.4683 28.7453 24.462 28.7415 24.4559L28.7401 24.4537L28.7387 24.4514C28.7338 24.4437 28.7285 24.436 28.7234 24.4284L28.7208 24.4246C28.7148 24.4159 28.7089 24.407 28.7035 24.398C28.3468 23.8042 28.0621 12.9159 28.2838 11.8367L28.2901 11.8472ZM28.9115 25.0867C29.231 25.0942 29.5002 25.2441 29.7736 25.3962L29.7809 25.4003C29.806 25.4143 29.8311 25.4281 29.856 25.4419C30.2049 25.6343 30.5194 25.8078 30.6337 26.2099C30.3166 26.1907 30.0597 26.0658 29.7862 25.9129C29.4696 25.7359 29.0115 25.4551 28.9115 25.0867Z" fill="#D9DBD5"/>
<path fill-rule="evenodd" clip-rule="evenodd" d="M15.8702 8.35635L15.8237 8.65774C15.5046 8.97757 15.0386 8.95432 14.7469 8.61308C15.0991 8.49372 15.373 8.38 15.7147 8.23404C15.703 8.19306 15.6928 8.15405 15.683 8.11682C15.6325 7.9241 15.5942 7.77794 15.4294 7.63997C15.398 7.64652 15.3724 7.65013 15.3507 7.65318C15.2824 7.66279 15.2535 7.66685 15.2061 7.74005C14.9549 8.12826 14.3576 8.21695 13.8082 8.29853C13.3885 8.36084 12.9968 8.41901 12.8085 8.6033C12.3941 9.00899 11.9166 13.0124 11.933 13.5529L12.0899 13.7158C12.6087 13.6358 12.8557 10.4246 12.9422 9.30013C12.9516 9.17765 12.9591 9.07994 12.9649 9.01376C13.8968 9.14388 14.8279 9.27938 15.7583 9.42036C15.754 9.68245 15.7202 9.97921 15.6868 10.2724C15.6265 10.8012 15.5675 11.3184 15.6853 11.6002C15.7752 11.6366 15.8392 11.6657 15.8886 11.6882C15.9554 11.7186 15.996 11.737 16.0384 11.7453C16.1037 11.758 16.1738 11.7467 16.3515 11.7179L16.358 11.7169C16.6244 11.3924 16.5611 10.8493 16.4929 10.2646C16.4639 10.0162 16.4341 9.76017 16.4283 9.51029C17.8932 9.81611 21.2891 10.2614 22.8315 10.4166C22.8317 10.6726 22.7977 10.9428 22.7643 11.2087C22.6892 11.8066 22.6168 12.3834 22.9401 12.7308C22.9975 12.7478 23.0404 12.7617 23.0739 12.7726C23.1341 12.7922 23.1642 12.8019 23.1944 12.8023C23.2245 12.8026 23.2547 12.7935 23.3152 12.7752C23.3492 12.765 23.3929 12.7518 23.4514 12.7358C23.7805 12.3791 23.6564 11.6072 23.5572 10.9906C23.5281 10.8096 23.5012 10.6419 23.4885 10.502C24.5908 10.6905 25.697 10.8554 26.8063 10.9966C26.7241 13.4515 26.5386 15.9271 26.3535 18.397C26.2412 19.8954 26.1291 21.3922 26.0402 22.8811C26.004 23.4884 25.9413 24.1475 25.8677 24.7503C25.8771 25.4654 25.8255 26.3318 25.7729 27.2129C25.7268 27.9863 25.68 28.771 25.6733 29.4748C24.4943 29.4431 23.0628 29.1009 21.6797 28.7702C20.828 28.5666 19.9946 28.3674 19.25 28.2478C17.3534 27.9431 15.3923 27.4755 13.4903 27.0221C13.1086 26.9311 12.7292 26.8406 12.3533 26.7522C12.0219 26.6742 11.2807 26.3664 11.0508 26.0673C10.5481 25.1937 10.8588 23.5621 11.0827 22.3863L11.0895 22.3507L11.0928 22.3334C11.1252 22.1629 11.1556 22.0021 11.1809 21.8559C11.209 21.6987 11.245 21.5162 11.2841 21.3177C11.4565 20.443 11.6896 19.2601 11.5814 18.5843C11.572 18.5248 11.4927 18.4862 11.4143 18.4479C11.3917 18.4369 11.3691 18.4259 11.3484 18.4144C10.9225 18.8342 10.3591 23.5162 10.2794 24.4331C10.1581 25.8279 10.6136 27.0088 12.1204 27.3238C14.0527 27.7279 15.9815 28.1224 17.92 28.5006C18.7336 28.6352 19.6535 28.8557 20.6106 29.0851C22.5944 29.5606 24.7381 30.0745 26.426 29.941C27.2573 29.7034 28.0388 29.2302 28.8174 28.7588C29.4301 28.3878 30.041 28.0179 30.673 27.7648C32.0716 27.2048 31.9858 25.2987 31.8637 24.1543C31.6292 21.9569 31.3128 19.8499 30.9876 17.684L30.9687 17.5583C30.8226 16.585 30.7275 15.5957 30.6324 14.6063C30.4675 12.8909 30.3026 11.1753 29.8715 9.54257C29.748 9.12021 27.7727 8.89241 26.8116 8.78158C26.6838 8.76684 26.5738 8.75415 26.4886 8.74336C26.4776 8.16949 26.434 7.59673 26.358 7.02782C26.1365 5.42251 25.6893 3.68485 24.3483 2.63129C23.7305 2.14581 22.0135 1.67476 21.4932 2.44412L21.6849 2.74263C22.1263 2.69767 22.5676 2.6491 23.0082 2.59693C25.4006 3.61076 25.6239 5.66867 25.8605 7.8497C25.8924 8.14369 25.9246 8.43991 25.9623 8.73611L24.0196 8.47282C23.8171 8.39201 23.7993 8.39887 23.651 8.45597C23.6019 8.47489 23.5384 8.49934 23.4492 8.52794C23.4454 6.43898 23.0939 4.2907 21.6005 2.73228C18.4788 1.23993 16.8364 3.7835 16.1274 6.54753C16.0081 7.0127 15.8378 7.89595 15.8702 8.35635ZM23.7444 8.86345C24.1287 9.08122 27.0829 9.42961 28.3963 9.5845C28.6187 9.61073 28.7943 9.63144 28.9021 9.64499C28.7969 9.67856 28.6911 9.71086 28.5855 9.74311C27.9709 9.9308 27.3609 10.1171 26.8777 10.5436C25.8041 10.35 24.726 10.1823 23.6445 10.0409C23.6465 10.0303 23.6587 9.87756 23.6741 9.6844C23.6988 9.37606 23.7316 8.96467 23.7444 8.86345ZM16.8579 8.12173C16.9977 8.13815 17.2121 8.16025 17.4781 8.18768C19.046 8.34931 22.4055 8.69566 22.8276 9.15002C22.8254 9.23997 22.8275 9.31306 22.8293 9.37555C22.8351 9.5732 22.8378 9.66514 22.6902 9.85098C22.0536 9.88714 18.5569 9.3482 16.9897 9.10665C16.7492 9.06958 16.554 9.0395 16.4217 9.0196L16.5647 8.00095L16.8579 8.12173ZM16.6298 7.55177C16.85 5.78142 17.9863 2.58125 20.1524 2.90037C22.4478 3.23846 22.752 6.63249 22.8244 8.37899C22.0063 8.19436 21.0039 8.09781 20.0997 8.01072C19.9083 7.99228 19.7213 7.97427 19.5414 7.95594C19.5559 7.84462 19.5698 7.73383 19.5837 7.62351C19.6797 6.86147 19.7728 6.1216 20.0231 5.37949C20.0874 5.18881 20.2681 4.87138 20.455 4.54299C20.7203 4.07689 20.9982 3.58871 20.9737 3.40959C20.9208 3.36788 20.8828 3.3356 20.8536 3.31082C20.805 3.26959 20.7809 3.2491 20.7531 3.24041C20.7256 3.23183 20.6945 3.23477 20.6327 3.24062C20.6 3.24371 20.5588 3.24761 20.505 3.25105C19.5974 3.90328 19.0871 6.80636 19.0215 7.88347L18.9606 7.87385C18.2207 7.75677 17.5213 7.64611 16.7686 7.6145L16.6298 7.55177ZM29.3766 9.96166C29.4792 9.98089 29.4795 9.98125 29.5167 10.0265C29.5331 10.0465 29.5568 10.0752 29.5996 10.1182C29.7728 11.0249 30.0641 14.0698 30.1588 15.2247C30.2574 16.4278 30.4614 17.722 30.6692 19.04C31.0591 21.5135 31.4621 24.0706 31.2066 26.2655C31.1328 26.9007 29.7419 27.6328 28.63 28.2181C28.2523 28.417 27.9067 28.5989 27.6559 28.7542C27.3486 28.9517 26.964 29.158 26.6084 29.3488C26.4961 29.409 26.3867 29.4677 26.2836 29.524C26.2078 27.4558 26.3594 25.5181 26.5175 23.4972C26.5443 23.1541 26.5714 22.8085 26.5975 22.4595C26.7906 19.9093 26.9681 17.3579 27.13 14.8055C27.1481 14.5311 27.1688 14.2436 27.19 13.9489C27.2669 12.8805 27.3507 11.7166 27.3393 10.7352C27.8578 10.4854 28.4518 10.2808 29.0164 10.0864L29.0829 10.0635C29.182 10.0294 29.2801 9.99547 29.3766 9.96166Z" fill="#1C1C1C"/>
</svg>
