<svg width="32" height="32" viewBox="0 0 32 32" fill="none" xmlns="http://www.w3.org/2000/svg">
<path fill-rule="evenodd" clip-rule="evenodd" d="M11.4803 31.0291C10.9695 30.9733 10.4718 30.9188 10.0197 30.8957C9.96291 30.8863 9.9087 30.8775 9.85657 30.8691C9.41548 30.7975 9.12296 30.7501 8.66896 30.5621C8.57206 30.1878 8.54708 29.8153 8.52146 29.4333C8.52093 29.4254 8.52039 29.4174 8.51986 29.4095C8.51613 29.3539 8.51235 29.2981 8.50831 29.2421C12.6941 30.1612 18.5015 30.06 22.7137 29.259L22.713 29.2861C22.6777 30.5871 22.676 30.6503 21.3362 30.878C18.4256 31.2209 16.0704 31.3234 13.118 31.1764C12.5834 31.1497 12.0244 31.0886 11.4803 31.0291ZM29.2655 11.3794C29.2305 11.3521 29.2131 11.3384 29.1933 11.3314C29.1737 11.3244 29.1518 11.3238 29.1083 11.3227C29.0831 11.322 29.0506 11.3211 29.0071 11.3187C28.7555 11.345 28.1452 11.3931 27.377 11.4537C25.2183 11.6241 21.8128 11.8928 21.6196 12.05C21.4728 12.4401 21.5643 13.2536 21.6457 13.9779C21.6924 14.3931 21.7358 14.779 21.7291 15.039C21.7234 15.2649 21.8088 15.4698 21.9873 15.6196L22.2309 15.6591C23.0605 15.5637 24.116 15.4846 25.212 15.4026C26.7364 15.2884 28.34 15.1683 29.5259 14.9899C29.5696 14.9381 29.6069 14.8936 29.6379 14.8564C29.7157 14.5539 29.5303 11.7801 29.3405 11.4366C29.3084 11.4128 29.2844 11.3941 29.2655 11.3794ZM28.4408 27.2026L28.3314 27.1732C27.6068 27.4496 26.5653 27.751 25.7915 27.8349C25.8216 27.9132 25.8531 27.9968 25.8855 28.083C25.9959 28.3766 26.1179 28.701 26.2407 28.9522C27.1677 28.9042 27.7998 28.6847 28.6528 28.3268C28.6442 28.268 28.6357 28.2056 28.6268 28.1411C28.584 27.8291 28.5341 27.4654 28.4408 27.2026ZM5.42302 27.836C4.51963 27.7112 3.63453 27.4781 2.78683 27.1418C2.76755 27.2441 2.74629 27.3519 2.72454 27.4619C2.72309 27.4693 2.72164 27.4766 2.72019 27.484C2.66689 27.7536 2.61116 28.0355 2.57416 28.283C2.9521 28.4925 4.7373 29.2049 5.04305 28.8609L5.42302 27.836ZM24.1673 26.7613L24.1686 26.7514C24.1682 26.7547 24.1677 26.758 24.1673 26.7613C24.1671 26.7627 24.1669 26.7641 24.1667 26.7654L24.1673 26.7613Z" fill="#0C0C0C"/>
<path fill-rule="evenodd" clip-rule="evenodd" d="M21.3362 30.878C22.676 30.6503 22.6777 30.5871 22.713 29.2861L22.7137 29.259C18.5015 30.06 12.6941 30.1612 8.50831 29.2421C8.51235 29.2981 8.51613 29.3539 8.51986 29.4095C8.52039 29.4174 8.52093 29.4254 8.52146 29.4333C8.54708 29.8153 8.57206 30.1878 8.66896 30.5621C9.12296 30.7501 9.41548 30.7975 9.85657 30.8691C9.9087 30.8775 9.96291 30.8863 10.0197 30.8957C10.4718 30.9188 10.9695 30.9733 11.4803 31.0291C12.0244 31.0886 12.5834 31.1497 13.118 31.1764C16.0704 31.3234 18.4256 31.2209 21.3362 30.878Z" fill="white"/>
<path d="M29.0071 11.3187C29.0506 11.3211 29.0831 11.322 29.1083 11.3227C29.1518 11.3238 29.1737 11.3244 29.1933 11.3314C29.2131 11.3384 29.2305 11.3521 29.2655 11.3794C29.2844 11.3941 29.3084 11.4128 29.3405 11.4366C29.5303 11.7801 29.7157 14.5539 29.6379 14.8564C29.6069 14.8936 29.5696 14.9381 29.5259 14.9899C28.34 15.1683 26.7364 15.2884 25.212 15.4026C24.1159 15.4847 23.0606 15.5637 22.2309 15.6591L21.9873 15.6196C21.8088 15.4698 21.7234 15.2649 21.7291 15.039C21.7358 14.779 21.6924 14.3931 21.6457 13.9779C21.5643 13.2536 21.4728 12.4401 21.6196 12.05C21.8128 11.8928 25.2183 11.6241 27.377 11.4537C28.1452 11.3931 28.7555 11.345 29.0071 11.3187Z" fill="#B5FE28"/>
<path d="M28.2129 12.2047C28.4186 12.1657 28.466 12.2095 28.5863 12.3476C28.43 12.7196 27.9788 12.3963 27.5681 12.6813C27.5504 12.9085 27.5662 12.8599 27.6719 13.0889C28.0142 13.2496 28.3268 12.8787 28.5445 13.2256C28.399 13.4546 27.8383 13.3902 27.5941 13.6509C27.6055 14.081 28.0117 13.9696 28.3021 13.9494L28.5432 13.9544C28.7014 14.0669 28.6647 14.0066 28.7084 14.1738C28.466 14.4061 27.708 14.3769 27.3397 14.394C27.2461 13.8557 27.1974 12.8977 27.1518 12.3252C27.4751 12.2565 27.8782 12.2337 28.2129 12.2047Z" fill="#0C0C0C"/>
<path d="M26.5026 12.275C26.6241 12.3051 26.6861 12.3414 26.7968 12.396C26.8487 12.766 26.3982 14.1292 26.1831 14.4792C26.152 14.5303 26.0261 14.5026 25.9686 14.4988C25.599 14.2939 25.3662 13.541 25.1947 13.1211C25.1169 12.9341 24.9783 12.6814 25.0245 12.5055C25.1972 12.4337 25.1327 12.4307 25.282 12.4836C25.5066 12.7834 25.8452 13.6456 26.016 14.0322C26.1331 13.5737 26.3324 12.6596 26.5026 12.275Z" fill="#0C0C0C"/>
<path d="M22.6511 12.5921L22.8403 12.6584C23.0542 12.8759 23.0478 13.9546 23.1282 14.4087C23.4553 14.3459 23.7945 14.202 24.0356 14.4518L24.0261 14.6967L22.7144 14.761C22.6783 14.3537 22.4822 12.8413 22.6511 12.5921Z" fill="#0C0C0C"/>
<path d="M24.3285 12.4608C24.4348 12.479 24.4671 12.5031 24.5595 12.553C24.7411 12.8683 24.8423 14.4015 24.6601 14.7159L24.4747 14.6368C24.2868 14.3652 24.1703 12.7514 24.3285 12.4608Z" fill="#0C0C0C"/>
<path d="M28.3314 27.1732L28.4408 27.2026C28.5341 27.4654 28.584 27.8291 28.6268 28.1411C28.6357 28.2056 28.6442 28.268 28.6528 28.3268C27.7998 28.6847 27.1677 28.9042 26.2407 28.9522C26.1179 28.701 25.9959 28.3766 25.8855 28.083C25.8531 27.9968 25.8216 27.9132 25.7915 27.8349C26.5653 27.751 27.6068 27.4496 28.3314 27.1732Z" fill="#F2F2F2"/>
<path d="M2.78683 27.1418C3.63453 27.4781 4.51963 27.7112 5.42302 27.836L5.04305 28.8609C4.7373 29.2049 2.9521 28.4925 2.57416 28.283C2.61116 28.0355 2.66689 27.7536 2.72019 27.484C2.72164 27.4766 2.72309 27.4693 2.72454 27.4619C2.74629 27.3519 2.76755 27.2441 2.78683 27.1418Z" fill="white"/>
<path d="M15.475 0.113281L15.5382 0.117646C16.5696 0.193684 17.4061 0.988415 17.3049 2.06794C17.2258 2.91828 16.562 3.34009 15.9533 3.83396L15.9483 5.27489C17.21 5.89894 18.411 6.64231 19.672 7.27092C19.853 6.9693 20.0175 6.41698 20.3541 6.41704L20.4586 6.55109C20.5497 6.96341 20.3839 7.40768 20.0675 7.68381C18.9444 8.66446 17.5118 9.28675 16.5551 10.4649C16.3178 10.757 15.9812 11.3412 15.6224 11.4559C15.3415 11.3909 14.5689 10.3782 14.2869 10.0718C13.4227 9.22697 12.3635 8.65124 11.4182 7.90921C11.0766 7.64099 10.3829 6.84107 10.8284 6.42615C11.3679 6.40989 11.1131 6.76712 11.5166 7.13036C11.8509 7.19874 12.6655 6.65875 13.0085 6.46929C13.7597 6.04691 14.5189 5.63863 15.2851 5.24452C15.2427 4.49129 15.1928 3.6612 15.8084 3.11021C16.2868 2.66125 16.7696 2.52879 16.6861 1.77581C16.6025 1.02783 16.0033 0.657251 15.2763 0.738919C14.5853 0.816665 14.5195 2.15208 13.9725 2.24532C13.8551 2.13765 13.8113 2.0544 13.7959 1.89252C13.6986 0.869361 14.5973 0.258209 15.475 0.113281Z" fill="#0C0C0C"/>
<path d="M15.5022 5.84177C15.9401 5.83254 18.5426 7.37 19.0552 7.65941C17.6593 8.73419 16.7247 9.09129 15.6326 10.6775C15.4788 10.5858 14.6803 9.54018 14.3879 9.30011C13.655 8.69833 12.8778 8.18675 12.1 7.64973C13.2294 7.03839 14.3639 6.43572 15.5022 5.84177Z" fill="#B5FE28"/>
<path d="M26.4989 15.7626L26.4692 15.7541C26.2663 15.7706 26.0617 15.7879 25.8562 15.8053C25.1903 15.8617 24.5151 15.9189 23.8584 15.9508C23.8556 16.7688 23.8596 17.6149 23.8835 18.4576C23.9029 19.1383 23.9352 19.8168 23.9875 20.4765C24.0234 20.9278 24.0385 21.4067 24.0541 21.8978C24.1152 23.8248 24.1823 25.9403 25.5276 27.3177L25.5536 27.3439L25.9623 27.2298C26.7014 27.0512 27.6423 26.8101 28.3624 26.552C28.9237 25.3248 28.5614 23.3786 28.079 21.5248C27.9568 21.0551 27.8268 20.5913 27.7022 20.1466C27.4732 19.3291 27.2623 18.5762 27.1507 17.97C27.1019 17.7039 26.6267 15.89 26.4989 15.7626Z" fill="#F2F2F2"/>
<path fill-rule="evenodd" clip-rule="evenodd" d="M2.78683 27.1418C3.63453 27.4781 4.51963 27.7112 5.42302 27.836L5.04305 28.8609C4.7373 29.2049 2.9521 28.4925 2.57416 28.283C2.61116 28.0355 2.66689 27.7536 2.72019 27.484L2.72454 27.4619C2.74629 27.3519 2.76755 27.2441 2.78683 27.1418Z" fill="#F2F2F2"/>
<path fill-rule="evenodd" clip-rule="evenodd" d="M24.1686 26.7514L24.1673 26.7613L24.1667 26.7654C24.0267 27.7879 23.987 28.0777 23.349 28.9755C23.3491 29.0181 23.3494 29.0605 23.3497 29.1027L23.3497 29.1036C23.3569 30.3199 23.3629 31.3128 21.8399 31.4267C21.8116 31.4401 21.7562 31.4551 21.6824 31.471C21.6485 31.4783 21.6106 31.4858 21.5698 31.4933C21.1813 31.5654 20.5216 31.6459 20.3441 31.6626C16.8405 31.9918 12.9004 31.986 9.4325 31.4544C7.90843 31.1717 7.90354 30.6442 7.89179 29.361C7.89068 29.2388 7.88949 29.1096 7.88693 28.9732C7.28049 28.1193 7.11762 27.6193 7.0572 26.5546C6.86182 26.8897 6.64886 27.1686 6.42426 27.4627C6.32444 27.5934 6.22233 27.7271 6.11844 27.8701C6.03825 27.9806 5.96432 28.1954 5.88176 28.4353C5.72108 28.9022 5.52773 29.464 5.19196 29.5358C4.53959 29.6751 2.26787 29.2045 2.01704 28.4667C1.91787 28.1748 2.10398 27.3425 2.20345 26.8977C2.21422 26.8495 2.22398 26.8059 2.23224 26.768C2.03533 26.1472 1.82962 25.4429 1.90992 24.7817C2.20035 22.3879 2.88354 19.8668 3.52205 17.5347C3.6323 17.1321 3.74233 16.7174 3.85418 16.2958C4.36152 14.3838 4.90638 12.3303 5.67918 10.6168C6.18083 9.50448 7.18843 8.87315 8.25083 8.38998C8.3484 7.17836 8.65788 6.77875 9.48502 5.85447C10.1715 5.08744 14.2046 4.02791 14.8023 4.78702C14.8031 4.80326 14.8044 4.81635 14.8056 4.82745C14.81 4.87125 14.8113 4.8838 14.7618 4.93499C14.5664 5.13632 14.0407 5.18744 13.3757 5.25208C12.0971 5.3764 10.3038 5.55076 9.35562 6.93968C9.14599 7.24675 8.92699 7.68621 8.90997 8.06419C8.90117 8.25991 8.97255 8.42888 9.1115 8.56552C9.64789 9.09275 10.7385 9.49181 11.8186 9.887C13.0572 10.3402 14.2819 10.7883 14.641 11.4188C14.6413 11.4538 14.6421 11.4812 14.6428 11.5033C14.6442 11.5494 14.6449 11.5722 14.6384 11.5927C14.6321 11.6126 14.6189 11.6306 14.5932 11.6657C14.577 11.6877 14.5559 11.7165 14.5283 11.7569C14.4163 11.8008 14.329 11.8312 14.2139 11.866C14.1529 12.2019 14.1519 12.8582 14.1548 13.568L14.1552 13.68L14.1554 13.7106C14.1601 14.8028 14.1653 15.9779 13.9716 16.2869L13.8677 16.323C13.4633 16.0651 13.5063 15.2576 13.5358 14.703L13.5365 14.691C13.5419 14.5881 13.5468 14.4942 13.5481 14.4146C13.5533 14.1012 13.5609 13.788 13.5685 13.4747C13.5858 12.7622 13.6032 12.0498 13.591 11.3361C13.1863 11.1405 12.6169 10.9026 12.0005 10.6451C10.6822 10.0942 9.14886 9.4535 8.55145 8.94533C7.35579 9.44951 6.46025 10.1576 6.01372 11.4082C5.4536 12.9769 4.96866 14.7266 4.53174 16.3471C4.38876 16.8908 4.241 17.4354 4.093 17.9808C3.55184 19.9753 3.00706 21.9831 2.67764 24.0127C2.58589 24.578 2.5259 25.7759 2.75154 26.2592C2.97022 26.7276 4.47882 27.0712 5.29265 27.2566C5.43892 27.2899 5.56274 27.3181 5.6526 27.341C6.48082 26.6185 7.0453 24.9205 7.08554 23.8328C7.11417 23.0589 7.15264 22.2846 7.19173 21.5101L7.19956 21.3551C7.3212 18.9475 7.44294 16.5379 7.28809 14.1326C7.27739 13.9666 7.34922 13.7634 7.42129 13.6162L7.53619 13.5403C8.21085 14.0737 7.96894 18.7122 7.8185 21.5968C7.76996 22.5278 7.73093 23.276 7.73532 23.6447C7.73793 23.864 7.72558 24.1466 7.7116 24.4664C7.65452 25.7718 7.57034 27.6973 8.36656 28.4745C8.63932 28.7408 9.69712 28.8648 10.3725 28.944C10.5582 28.9658 10.7154 28.9843 10.8189 29.0013C14.5005 29.3818 18.2546 29.3794 21.9113 28.7704C22.1689 28.7274 22.5169 28.6654 22.7599 28.5991C23.5128 27.8491 23.5578 26.6569 23.5508 25.6366C23.5411 24.2383 23.4682 22.8366 23.3953 21.4344C23.3356 20.2878 23.276 19.1408 23.2509 17.995C23.2364 17.3366 23.2334 16.6786 23.2484 16.0212C21.3792 16.2062 21.3469 16.1507 21.2045 14.1513C21.199 14.0722 21.19 13.9792 21.1798 13.8763L21.1778 13.8556L21.174 13.8179C21.1067 13.1456 21.0024 12.1027 21.3748 11.6423C21.7422 11.3851 23.3299 11.2914 24.3653 11.2302C24.6939 11.2108 24.967 11.1947 25.1276 11.1777C24.4411 9.97298 23.9324 9.52194 22.6782 8.93103C21.8218 9.58386 20.5705 10.0875 19.3679 10.5715C18.7518 10.8194 18.1484 11.0623 17.6174 11.3174C17.6194 11.4908 17.6282 11.7533 17.6389 12.0686C17.6567 12.5962 17.6795 13.2717 17.6831 13.9246C17.6887 14.9376 17.648 15.8963 17.4707 16.1647L17.353 16.217C17.3433 16.2118 17.3336 16.2067 17.324 16.2016C17.2304 16.1523 17.1397 16.1045 17.1214 15.9737C17.0359 15.3665 17.0517 14.6467 17.0675 13.9283C17.0708 13.7789 17.0741 13.6294 17.0765 13.4811C17.0861 12.881 17.0807 12.2988 16.9999 11.8026C16.9051 11.7649 16.8393 11.7468 16.7903 11.7334C16.6827 11.7039 16.6566 11.6968 16.5835 11.5523C16.5899 11.3286 17.1037 10.6912 17.2992 10.5831C17.3333 10.5894 17.6561 10.6473 17.6624 10.6441C18.2372 10.3631 18.8253 10.1239 19.4124 9.88524C20.2432 9.54743 21.0719 9.21047 21.8575 8.75688C22.7428 8.24555 22.0948 7.21993 21.6361 6.64249C20.8141 5.60782 19.143 5.37812 17.9117 5.23136C17.8576 5.22471 17.7869 5.21854 17.7056 5.21145C17.246 5.17136 16.4488 5.10183 16.4171 4.74875C16.557 4.60831 16.8923 4.48926 17.115 4.50887C19.5429 4.723 22.7833 5.23585 22.937 8.2992C22.9358 8.32089 22.9339 8.34253 22.932 8.36416C24.6043 9.20748 24.8916 9.53877 25.811 11.1224C26.0121 11.1117 26.3104 11.0807 26.6541 11.0449C27.6512 10.9411 29.0301 10.7976 29.5247 10.9964C30.0157 11.1936 30.3314 14.9157 29.9144 15.2934C29.5787 15.5976 28.3478 15.6354 27.5726 15.6593C27.4316 15.6636 27.3058 15.6675 27.2031 15.6724C27.7472 17.6318 28.2572 19.6003 28.7337 21.5771C28.7692 21.7289 28.8053 21.8797 28.8413 22.0293L28.8532 22.0787L28.8565 22.0922L28.8567 22.0933L28.857 22.0944C29.2378 23.6766 29.5927 25.1507 28.9988 26.7565C29.0087 26.804 29.0225 26.8654 29.0386 26.9369C29.147 27.4189 29.3587 28.3602 29.1697 28.5969C28.6825 29.2053 26.6361 29.7689 25.904 29.4624C25.6491 29.3555 25.4907 28.8521 25.3598 28.4357C25.297 28.2362 25.2405 28.0566 25.1827 27.9503C25.0502 27.7566 24.9143 27.5942 24.7793 27.4328C24.5756 27.1895 24.3739 26.9485 24.1886 26.6057C24.1848 26.6336 24.181 26.6611 24.1773 26.688L24.1686 26.7514ZM11.4803 31.0291C10.9695 30.9733 10.4718 30.9188 10.0197 30.8957C9.96291 30.8863 9.9087 30.8775 9.85657 30.8691C9.41548 30.7975 9.12296 30.7501 8.66896 30.5621C8.57206 30.1878 8.54708 29.8153 8.52146 29.4333L8.51986 29.4095C8.51613 29.3539 8.51235 29.2981 8.50831 29.2421C12.6941 30.1612 18.5015 30.06 22.7137 29.259L22.713 29.2861C22.6777 30.5871 22.676 30.6503 21.3362 30.878C18.4256 31.2209 16.0704 31.3234 13.118 31.1764C12.5834 31.1497 12.0244 31.0886 11.4803 31.0291ZM29.2655 11.3794C29.2305 11.3521 29.2131 11.3384 29.1933 11.3314C29.1737 11.3244 29.1518 11.3238 29.1083 11.3227C29.0831 11.322 29.0506 11.3211 29.0071 11.3187C28.7555 11.345 28.1452 11.3931 27.377 11.4537C25.2183 11.6241 21.8128 11.8928 21.6196 12.05C21.4728 12.4401 21.5643 13.2536 21.6457 13.9779C21.6924 14.3931 21.7358 14.779 21.7291 15.039C21.7234 15.2649 21.8088 15.4698 21.9873 15.6196L22.2309 15.6591C23.0605 15.5637 24.116 15.4846 25.212 15.4026C26.7364 15.2884 28.34 15.1683 29.5259 14.9899C29.5696 14.9381 29.6069 14.8936 29.6379 14.8564C29.7157 14.5539 29.5303 11.7801 29.3405 11.4366C29.3084 11.4128 29.2844 11.3941 29.2655 11.3794ZM28.4408 27.2026L28.3314 27.1732C27.6068 27.4496 26.5653 27.751 25.7915 27.8349C25.8216 27.9132 25.8531 27.9968 25.8855 28.083C25.9959 28.3766 26.1179 28.701 26.2407 28.9522C27.1677 28.9042 27.7998 28.6847 28.6528 28.3268C28.6442 28.268 28.6357 28.2056 28.6268 28.1411C28.584 27.8291 28.5341 27.4654 28.4408 27.2026ZM5.42302 27.836C4.51963 27.7112 3.63453 27.4781 2.78683 27.1418C2.76755 27.2441 2.74629 27.3519 2.72454 27.4619L2.72019 27.484C2.66689 27.7536 2.61116 28.0355 2.57416 28.283C2.9521 28.4925 4.7373 29.2049 5.04305 28.8609L5.42302 27.836ZM26.4989 15.7626L26.4692 15.7541C26.2663 15.7706 26.0617 15.7879 25.8562 15.8053C25.1903 15.8617 24.5151 15.9189 23.8584 15.9508C23.8556 16.7688 23.8596 17.6149 23.8835 18.4576C23.9029 19.1383 23.9352 19.8168 23.9875 20.4765C24.0234 20.9278 24.0385 21.4067 24.0541 21.8978C24.1152 23.8248 24.1823 25.9403 25.5276 27.3177L25.5536 27.3439L25.9623 27.2298C26.7014 27.0512 27.6423 26.8101 28.3624 26.552C28.9237 25.3248 28.5614 23.3786 28.079 21.5248C27.9568 21.0551 27.8268 20.5913 27.7022 20.1466C27.4732 19.3291 27.2623 18.5762 27.1507 17.97C27.1019 17.7039 26.6267 15.89 26.4989 15.7626Z" fill="#0C0C0C"/>
<path fill-rule="evenodd" clip-rule="evenodd" d="M14.5283 11.7569C14.5559 11.7165 14.577 11.6877 14.5932 11.6657L17.0765 13.4811C17.0741 13.6294 17.0708 13.7789 17.0675 13.9283C17.0517 14.6467 17.0359 15.3665 17.1214 15.9737C17.1397 16.1045 17.2304 16.1523 17.324 16.2016C17.3336 16.2067 17.3433 16.2118 17.353 16.217L17.4707 16.1647C17.648 15.8963 17.6887 14.9376 17.6831 13.9246C17.6795 13.2717 17.6567 12.5962 17.6389 12.0686C17.6282 11.7533 17.6194 11.4908 17.6174 11.3174C18.1484 11.0623 18.7518 10.8194 19.3679 10.5715C20.5705 10.0875 21.8218 9.58386 22.6782 8.93103C23.9324 9.52194 24.4411 9.97298 25.1276 11.1777C24.967 11.1947 24.6939 11.2108 24.3653 11.2302C23.3299 11.2914 21.7422 11.3851 21.3748 11.6423C21.0024 12.1027 21.1067 13.1456 21.174 13.8179L21.1778 13.8556L21.1798 13.8763C21.19 13.9792 21.199 14.0722 21.2045 14.1513C21.3469 16.1507 21.3792 16.2062 23.2484 16.0212C23.2334 16.6786 23.2364 17.3366 23.2509 17.995C23.276 19.1408 23.3356 20.2878 23.3953 21.4344C23.4682 22.8366 23.5411 24.2383 23.5508 25.6366C23.5578 26.6569 23.5128 27.8491 22.7599 28.5991C22.5169 28.6654 22.1689 28.7274 21.9113 28.7704C18.2546 29.3794 14.5005 29.3818 10.8189 29.0013C10.7154 28.9843 10.5582 28.9658 10.3725 28.944C9.69712 28.8648 8.63932 28.7408 8.36656 28.4745C7.57034 27.6973 7.65452 25.7718 7.7116 24.4664C7.72558 24.1466 7.73793 23.864 7.73532 23.6447C7.73093 23.276 7.76996 22.5278 7.8185 21.5968C7.96894 18.7122 8.21085 14.0737 7.53619 13.5403L7.42129 13.6162C7.34922 13.7634 7.27739 13.9666 7.28809 14.1326C7.44294 16.5379 7.3212 18.9475 7.19956 21.3551L7.19173 21.5101C7.15264 22.2846 7.11417 23.0589 7.08554 23.8328C7.0453 24.9205 6.48082 26.6185 5.6526 27.341C5.56274 27.3181 5.43892 27.2899 5.29265 27.2566C4.47882 27.0712 2.97022 26.7276 2.75154 26.2592C2.5259 25.7759 2.58589 24.578 2.67764 24.0127C3.00706 21.9831 3.55184 19.9753 4.093 17.9808C4.241 17.4354 4.38876 16.8908 4.53174 16.3471C4.96866 14.7266 5.4536 12.9769 6.01372 11.4082C6.46025 10.1576 7.35579 9.44951 8.55145 8.94533C9.14886 9.4535 10.6822 10.0942 12.0005 10.6451C12.6169 10.9026 13.1863 11.1405 13.591 11.3361C13.6032 12.0498 13.5858 12.7622 13.5685 13.4747C13.5609 13.788 13.5533 14.1012 13.5481 14.4146C13.5468 14.4942 13.5419 14.5881 13.5365 14.691L13.5358 14.703C13.5063 15.2576 13.4633 16.0651 13.8677 16.323L13.9716 16.2869C14.1653 15.9779 14.1601 14.8028 14.1554 13.7106L14.1552 13.68L14.1548 13.568C14.1519 12.8582 14.1529 12.2019 14.2139 11.866C14.329 11.8312 14.4163 11.8008 14.5283 11.7569Z" fill="#F2F2F2"/>
</svg>
