<svg width="400" height="399" viewBox="0 0 400 399" fill="none" xmlns="http://www.w3.org/2000/svg">
<path d="M218.837 79.2457C222.125 78.9619 227.356 79.1127 230.762 79.1111L251.665 79.1076L267.841 79.0839C287.523 79.0335 282.668 80.5618 283.475 98.4073C283.674 102.806 283.52 104.654 279.593 107.024C276.633 107.297 271.768 107.169 268.69 107.171L248.33 107.177L231.045 107.186C213.815 107.181 214.882 107.636 215.226 90.0412C215.319 85.2131 213.899 82.3134 218.837 79.2457Z" fill="#1C1C1C"/>
<path d="M220.627 80.2676C229.798 80.1966 238.969 80.1894 248.137 80.2457C255.213 80.2274 273.658 79.3357 279.053 80.8944C280.229 81.2343 280.965 81.6844 281.476 82.8183C282.433 84.9462 282.526 101.242 281.466 103.378C280.798 104.72 279.641 105.29 278.272 105.765C271.119 105.774 221.822 106.456 218.985 105.285C218.175 104.951 217.709 104.157 217.375 103.388C216.154 100.567 215.855 85.6867 217.112 82.9193C217.748 81.5156 219.294 80.8441 220.627 80.2676Z" fill="#B5FE28"/>
<path d="M265.546 86.5792C267.127 86.5862 273.005 86.4129 274.197 86.7046C274.653 87.76 274.573 87.2263 274.438 88.3672C272.404 89.7688 270.248 87.5301 268.387 89.7732C268.21 91.0693 268.072 90.5315 268.493 91.5492C269.592 92.1428 271.784 91.8818 273.297 91.9378C273.917 92.7398 273.737 92.2745 273.654 93.4436C272.883 94.2728 269.901 94.0565 268.32 94.1645C268.294 95.3938 268.316 95.8413 268.471 97.0611C270.132 98.2242 273.853 96.3814 274.734 98.4336L274.316 99.1656C273.098 100.05 267.497 99.6939 265.482 99.6932L265.546 86.5792Z" fill="#1C1C1C"/>
<path d="M252.341 86.5864C253.048 86.5481 253.687 86.551 254.394 86.5481C256.271 87.6966 257.106 93.08 258.167 95.7162L258.308 96.0633L259.899 90.725C260.487 88.7754 260.657 87.1585 262.383 86.2349C263.385 86.3302 262.951 86.1452 263.713 86.8373C264.009 88.4093 263.816 88.123 263.205 89.8685C262.113 92.6821 261.223 96.9889 259.503 99.2513C259.018 99.894 257.669 99.647 256.753 99.6194C255.361 95.5084 253.498 90.6939 252.341 86.5864Z" fill="#1C1C1C"/>
<path d="M226.448 88.8983C228.01 88.3728 229.738 88.7174 230.969 89.7997C232.2 90.8823 232.746 92.5351 232.393 94.1242C232.042 95.7133 230.85 96.9926 229.272 97.4712C226.885 98.1959 224.349 96.8976 223.578 94.5553C222.807 92.213 224.086 89.6943 226.448 88.8983Z" fill="#415A0E"/>
<path d="M237.778 86.5263C238.983 86.5041 239.131 86.5089 240.316 86.7106C240.667 87.8363 240.564 95.4331 240.583 97.3459C242.601 97.433 243.764 96.9952 245.67 97.4957C246.592 98.3018 246.296 98.0408 246.444 99.6717L237.778 99.6964V86.5263Z" fill="#1C1C1C"/>
<path d="M247.943 86.5136C249.036 86.4914 249.605 86.3964 250.63 86.786C250.961 88.4647 250.733 97.3791 250.717 99.6343C249.949 99.6561 249.316 99.5906 248.554 99.5275C247.539 98.5171 247.937 88.7663 247.943 86.5136Z" fill="#1C1C1C"/>
<path d="M306.503 156.551C308.653 156.424 310.716 156.411 312.869 156.414C335.909 156.443 358.965 156.346 382.002 156.492C388.84 156.536 388.165 161.984 388.22 167.205C388.319 176.69 386.105 176.597 377.847 176.506L311.863 176.514C309.02 179.032 306.33 181.639 303.149 183.709C302.904 178.663 303.03 173.294 302.998 168.218C302.972 163.757 302.104 159.05 306.503 156.551Z" fill="#1C1C1C"/>
<path d="M334.141 157.599L365.054 157.578C370.725 157.576 376.284 157.545 381.998 157.701C388.958 157.445 386.217 165.202 386.834 169.174C388.119 177.438 378.444 175.406 372.412 175.4L351.156 175.375C338.228 175.32 324.183 175.71 311.38 175.241C309.157 177.005 306.515 179.459 304.346 181.383C304.385 176.943 303.215 161.48 305.988 158.746C306.682 158.06 307.637 157.688 308.598 157.544C311.458 157.114 314.799 157.597 317.72 157.631C323.196 157.648 328.668 157.637 334.141 157.599Z" fill="#D9DBD5"/>
<path d="M307.113 104.641C313.077 104.668 334.899 103.914 339.015 105.256C340.04 105.589 340.882 106.007 341.335 107.022C341.856 108.184 342.061 109.612 342.154 110.871C342.453 114.925 342.771 138.132 341.692 140.467C341.075 141.799 339.574 142.517 338.282 143.039C332.36 143.019 309.134 143.953 305.326 142.152C304.433 141.728 304.095 141.026 303.783 140.134C302.688 137.008 302.418 109.43 303.787 106.974C304.506 105.677 305.744 105.08 307.113 104.641Z" fill="#1C1C1C"/>
<path d="M307.298 105.92C311.865 105.776 335.329 105.294 338.202 106.066C339.243 106.345 339.982 107.074 340.47 108.002C341.299 109.58 341.251 137.657 340.538 139.466C340.036 140.731 339.117 141.193 337.97 141.793C330.219 142.068 322.173 141.709 314.406 141.87C312.581 141.908 306.717 142.105 305.679 140.799C304.201 138.942 304.435 133.16 304.419 130.697C304.57 123.3 304.04 116.065 304.692 108.737C304.805 107.459 306.325 106.516 307.298 105.92Z" fill="#D9DBD5"/>
<path d="M321.658 110.894C327.159 110.847 325.954 113.219 328.284 116.657C328.766 117.364 330.961 117.204 331.87 117.228C332.281 120.106 334.28 134.415 333.094 136.108C330.98 136.725 326.844 136.442 324.495 136.398C322.163 136.41 313.56 136.852 312.297 135.809C311.443 133.251 313.194 120.304 313.509 117.135C320.739 117.272 315.257 113.77 321.658 110.894Z" fill="#1C1C1C"/>
<path d="M314.924 118.346C315.962 118.342 316.017 118.307 317 118.568C317.62 119.261 317.563 119.901 317.685 120.859L317.736 121.293L318.254 121.669C320.23 121.14 318.26 119.891 319.545 118.525C321.666 118.293 324.777 117.665 326.252 119.364C326.319 120.283 326.306 120.442 326.563 121.314L327.373 121.648C328.478 120.64 327.341 119.8 328.376 118.387C329.513 118.27 328.967 118.18 330.043 118.788C331.454 120.945 331.718 128.295 332.068 131.506L332.344 135.091C325.885 135.148 319.426 135.115 312.968 134.993C313.646 129.531 314.034 123.696 314.924 118.346Z" fill="#F2E11F"/>
<path d="M322.296 112.134C324.674 112.513 326.952 114.018 325.882 116.643C324.699 117.4 324.735 117.129 323.041 117.145C321.727 117.177 321.12 117.299 319.931 116.844C319.082 115.825 319.32 116.388 319.159 115.11C319.802 113.432 320.67 112.879 322.296 112.134Z" fill="#D9DBD5"/>
<path d="M299.902 49.2758C304.223 49.2346 313.282 48.7196 316.431 50.1107C319.436 51.4375 319.204 67.2172 317.167 69.5782C315.541 71.4606 310.454 71.0571 308.407 71.0555L305.339 74.8757L303.337 76.8563C301.653 75.2606 299.747 72.8153 298.231 70.9865C293.896 71.0283 288.43 72.0225 288.266 65.8138C288.153 61.5387 287.299 54.0465 289.77 50.4563C290.965 48.7199 297.704 49.252 299.902 49.2758Z" fill="#1C1C1C"/>
<path d="M307.659 50.5461C310.226 50.4704 313.7 50.0707 315.875 51.2226C317.868 53.6508 317.151 59.5666 317.244 62.6478C317.485 70.834 314.182 69.861 307.906 69.7077C306.418 71.3481 304.866 73.4167 303.513 75.1724C302.678 74.3232 301.813 73.233 301.039 72.3087L298.883 69.8268C296.547 69.8426 293.153 70.1337 291.113 69.1711C290.146 68.1145 289.718 67.0166 289.59 65.5704C287.909 46.6879 291.916 50.5885 307.659 50.5461Z" fill="#D9DBD5"/>
<path d="M298.852 54.4665C301.253 54.297 301.613 55.0341 303.762 55.2757C306.111 54.2498 310.109 53.9568 310.321 57.6671C310.494 60.6651 308.181 62.7287 306.105 64.6516C305.269 65.432 304.296 66.221 303.415 66.9657C299.556 63.8981 292.728 58.8869 298.852 54.4665Z" fill="#1C1C1C"/>
<path d="M299.427 55.6865C301.969 55.7391 301.75 56.6748 303.678 57.0064C308.765 53.5001 311.153 57.988 306.67 62.3935L303.437 65.5616C300.433 62.8091 295.317 59.5609 299.427 55.6865Z" fill="#F2E11F"/>
<path d="M325.804 78.9067C328.551 79.0619 327.944 79.4135 330.36 80.2076C331.099 79.8934 332.847 78.9362 333.625 78.9961C337.844 79.3204 339.152 82.5382 337.192 86.0901C336.167 87.944 335.299 88.6054 333.676 90.0646L330.46 93.0267C326.353 89.7957 317.593 82.911 325.804 78.9067Z" fill="#6D650E"/>
<path d="M333.334 80.1003C341.714 82.2089 332.71 88.7293 330.377 91.8141L327.726 89.2554C325.522 87.4364 321.907 83.3279 324.921 80.7835C327.006 80.3436 328.363 81.1155 330.358 81.8896C331.306 81.7601 332.508 80.7056 333.334 80.1003Z" fill="#F2E11F"/>
<path d="M256.236 162.535C257.695 162.497 259.048 162.584 260.16 163.459C263.1 166.08 264.016 162.461 266.972 162.449C272.303 162.428 275.581 168.262 272.66 172.662C271.265 174.763 269.125 176.542 267.339 178.231C265.629 179.927 264.225 181.107 262.361 182.649C257.499 178.304 243.164 166.959 256.236 162.535Z" fill="#1C1C1C"/>
<path d="M262.412 166.629C263.984 165.248 264.967 164.299 267.136 163.969C270.221 163.499 272.136 165.402 272.117 168.44C272.091 172.184 269.385 174.419 266.844 176.821L262.544 180.977C258.081 176.82 246.32 168.685 256.538 163.737C259.475 163.939 260.192 164.804 262.412 166.629Z" fill="#F2E11F"/>
<path d="M270.603 141.346C274.434 140.809 273.354 141.604 276.201 142.451C277.22 142.755 282.891 139.468 285.211 142.775C288.341 147.242 284.386 151.454 280.986 154.354C279.649 155.577 278.258 156.795 276.902 158.003C272.213 153.998 262.12 147.004 270.603 141.346Z" fill="#1C1C1C"/>
<path d="M276.7 144.88C279.522 142.523 284.255 140.277 284.833 146.439C285.055 148.826 282.6 151.032 280.881 152.567C279.512 153.84 278.137 155.107 276.752 156.366C272.902 152.639 264.31 147.155 271.623 142.506C274.393 142.542 274.666 142.908 276.7 144.88Z" fill="#F2E11F"/>
<path d="M254.923 125.427C257.555 125.546 257.513 126.437 259.351 126.509C259.75 126.28 261.196 125.442 261.601 125.45C263.962 125.495 266.462 126.574 266.343 129.263C266.196 132.559 264.534 134.027 262.33 136.14L259.078 138.989C254.637 135.748 247.401 129.621 254.923 125.427Z" fill="#1C1C1C"/>
<path d="M255.47 126.655C256.052 126.793 256.887 126.949 257.324 127.393C259.812 129.915 261.528 125.637 264.747 127.611C266.164 130.301 263.816 132.857 262.051 134.596L258.934 137.329C255.679 134.291 249.706 130.288 255.47 126.655Z" fill="#F2E11F"/>
<path d="M303.635 215.53C306.365 216.743 310.506 221.032 312.795 223.24C333.793 223.605 354.916 223.007 375.925 223.336C383.927 223.461 382.057 231.313 382.233 236.839C382.314 239.476 382.049 241.623 380.558 243.808C377.475 245.749 368.951 245.119 364.972 245.12L344.114 245.113C333.128 245.107 321.885 245.197 310.892 245.039C309.338 245.017 305.969 244.45 304.804 243.473C302.621 239.499 303.209 220.621 303.635 215.53Z" fill="#1C1C1C"/>
<path d="M304.875 218.144C306.469 219.174 310.812 223.054 312.521 224.49C320.24 224.495 375.099 223.734 378.204 224.908C379.552 225.416 380.294 227.09 380.629 228.361C381.591 232.003 381.628 239.308 379.688 242.552C379.31 242.794 378.957 243.023 378.542 243.196C376.223 244.158 318.197 243.998 311.639 243.68C309.802 243.591 307.972 243.41 306.245 242.757C303.6 238.851 304.779 223.622 304.875 218.144Z" fill="#D9DBD5"/>
<path d="M369.101 229.994L370.479 229.803L371.336 230.515L372.699 230.046L373.527 230.476L373.762 231.366L376.09 229.856L377.59 230.149L378.012 230.891C377.517 233.23 376.772 238.309 375.1 239.656C373.875 238.63 373.507 235.747 372.449 233.657C371.248 234.811 371.885 238.067 370.243 239.486L369.293 239.172C368.234 237.167 366.656 232.228 367.567 230.144L369.101 229.994Z" fill="#0C0C0C"/>
<path d="M334.764 237.191C326.898 247.51 322.193 223.949 334.475 231.3C335.102 233.863 334.999 234.531 334.764 237.191Z" fill="#0C0C0C"/>
<path d="M329.751 231.191L331.481 231.482C332.255 232.094 332.721 232.369 333.039 233.339C333.603 235.064 332.677 236.841 331.887 238.332C331.417 238.253 330.839 238.18 330.412 237.962C329.731 237.611 329.27 237.014 329.015 236.324C328.359 234.548 328.981 232.819 329.751 231.191Z" fill="#D9DBD5"/>
<path d="M358.514 231.209C368.111 224.863 367.645 240.707 360.837 239.711C358.705 238.15 358.372 237.126 357.691 234.671L358.514 231.209Z" fill="#0C0C0C"/>
<path d="M360.681 231.134C361.161 231.176 361.715 231.203 362.171 231.361C363.102 231.681 363.641 232.243 364.038 233.112C364.788 234.763 363.94 236.723 363.327 238.281C362.803 238.247 362.156 238.235 361.666 238.046C360.955 237.774 360.421 237.206 360.117 236.543C359.318 234.774 360.029 232.833 360.681 231.134Z" fill="#D9DBD5"/>
<path d="M336.376 230.189C339.179 229.91 342.664 229.653 344.404 232.428C343.879 234.79 340.802 235.509 338.635 236.315C338.287 237.505 338.292 237.621 338.287 238.872C337.189 239.448 337.655 239.313 336.342 239.217C335.812 239.379 336.008 239.291 335.298 239.074L334.763 237.192C334.999 234.532 335.102 233.864 334.474 231.301C335.293 230.487 335.253 230.535 336.376 230.189Z" fill="#0C0C0C"/>
<path d="M338.93 231.75C339.572 231.143 340.592 231.161 341.214 231.792C341.832 232.422 341.822 233.428 341.185 234.044C340.543 234.665 339.514 234.652 338.886 234.016C338.259 233.38 338.278 232.363 338.93 231.75Z" fill="#D9DBD5"/>
<path d="M350.81 232.928C350.643 234.915 350.682 237.608 349.874 239.341L349.393 238.821C348.864 236.73 347.693 231.214 349.736 229.82C351.123 230.499 351.501 231.458 352.305 232.795L354.647 229.93L356.451 230.129L356.475 232.356C356.392 234.392 356.554 237.155 355.456 238.763L354.588 238.861C353.01 237.619 351.785 234.791 350.81 232.928Z" fill="#0C0C0C"/>
<path d="M352.306 232.795L354.648 229.93C354.614 231.579 354.84 234.003 354.104 235.249C353.07 234.332 352.953 234.022 352.306 232.795Z" fill="#D9DBD5"/>
<path d="M317.282 230.499L318.497 230.119C319.649 231.114 319.684 233.767 321.624 234.568C324.492 233.284 322.262 231.515 324.109 229.857L324.996 230.439C325.134 231.962 325.531 238.2 324.663 239.306L323.663 239.26C323.041 238.098 323.217 237.332 323.276 236.005C322.374 235.033 322.58 235.327 321.061 234.925C318.017 235.845 320.443 238.307 318.091 239.129L317.155 238.737L315.983 236.274L315.964 235.865C317.488 233.882 315.503 232.868 317.282 230.499Z" fill="#0C0C0C"/>
<path d="M317.282 230.497C317.282 232.811 317.39 236.543 317.155 238.735L315.983 236.272L315.964 235.863C317.488 233.88 315.503 232.866 317.282 230.497Z" fill="#D9DBD5"/>
<path d="M315.983 236.274C315.807 237.486 315.743 237.525 315.003 238.546C312.41 240.101 310.92 239.933 309.107 237.399L309.264 236.621C310.822 236.273 310.602 236.962 312.714 238.084L313.635 237.613C312.979 235.339 308.808 234.127 309.063 230.964C310.95 229.647 313.846 229.521 315.493 231.283L315.434 232.519L314.219 234.221C314.91 234.783 315.429 235.144 315.964 235.865L315.983 236.274Z" fill="#0C0C0C"/>
<path d="M314.219 234.219C312.396 233.93 311.798 233.972 311.097 232.37L311.837 231.678C313.91 231.521 313.376 231.604 315.435 232.518L314.219 234.219Z" fill="#D9DBD5"/>
<path d="M369.101 229.994L370.479 229.803L371.336 230.515C371.224 231.902 371.086 233.744 370.159 234.661C369.238 233.409 369.253 231.577 369.101 229.994Z" fill="#D9DBD5"/>
<path d="M373.762 231.366L376.09 229.856C376.022 231.69 376.144 233.579 375.291 235.173L374.762 235.018C374.13 233.411 374.051 233.04 373.762 231.366Z" fill="#D9DBD5"/>
<path d="M334.475 231.3C335.293 230.486 335.254 230.534 336.376 230.188C336.665 233.751 336.563 235.65 336.342 239.215C335.813 239.378 336.009 239.29 335.298 239.073L334.764 237.191C334.999 234.531 335.102 233.863 334.475 231.3Z" fill="#D9DBD5"/>
<path d="M313.508 190.408L330.934 190.408C334.03 190.409 337.02 190.356 340.129 190.55C344.207 190.691 344.501 194.768 344.432 197.944C344.254 206.14 344.31 206.953 336.28 206.829C332.678 206.824 306.107 207.166 304.889 206.368C304.951 205.159 308.823 201.59 309.891 200.507C309.958 196.296 308.637 192.156 313.508 190.408Z" fill="#1C1C1C"/>
<path d="M313.395 191.424C316.95 191.409 340.175 190.751 341.834 191.96C342.861 192.707 343.204 194.506 343.317 195.66C343.544 197.961 343.913 203.409 342.1 205.167C340.872 206.358 337.794 205.923 336.148 205.897L306.256 205.922C307.799 204.252 309.406 202.588 310.972 200.935C311.104 197.284 309.69 193.401 313.395 191.424Z" fill="#D9DBD5"/>
<path d="M334.823 196.332C335.682 196.139 336.579 196.418 337.17 197.062C337.764 197.705 337.957 198.612 337.678 199.436C337.4 200.26 336.693 200.872 335.829 201.037C334.521 201.288 333.252 200.458 332.976 199.172C332.702 197.887 333.525 196.622 334.823 196.332Z" fill="#1C1C1C"/>
<path d="M326.515 196.338C327.768 195.962 329.102 196.632 329.528 197.854C329.956 199.076 329.327 200.413 328.104 200.881C327.271 201.199 326.329 201.043 325.648 200.474C324.964 199.905 324.652 199.014 324.833 198.152C325.013 197.289 325.658 196.593 326.515 196.338Z" fill="#1C1C1C"/>
<path d="M318.275 196.345C319.537 195.929 320.901 196.593 321.332 197.832C321.763 199.071 321.097 200.421 319.844 200.854C318.577 201.293 317.192 200.63 316.756 199.378C316.32 198.127 317.003 196.765 318.275 196.345Z" fill="#1C1C1C"/>
<path d="M149.854 161.678C150.207 161.815 150.357 161.844 150.663 162.135C151.743 163.153 151.844 164.109 151.904 165.457C151.201 167.211 149.726 168.331 148.255 169.451C148.008 169.638 147.763 169.828 147.521 170.018C146.789 168.694 146.201 167.552 145.89 166.054C146.777 163.839 148.013 163.174 149.854 161.678Z" fill="#F2E11F"/>
<path d="M94.7349 139.019C95.7544 139.304 96.0962 139.595 96.8278 140.351C96.3301 141.839 95.0948 142.389 93.8474 143.317C93.0618 143.013 92.4501 142.553 91.7725 142.063C92.1143 140.406 93.3797 139.981 94.7349 139.019Z" fill="#F2F2F2"/>
<path fill-rule="evenodd" clip-rule="evenodd" d="M289.7 257.15C289.788 256.849 289.876 256.548 289.964 256.247C289.876 256.549 289.788 256.848 289.7 257.15ZM48.2521 227.443C52.1146 219.168 44.3895 235.719 48.2521 227.443Z" fill="#1C1C1C"/>
<path fill-rule="evenodd" clip-rule="evenodd" d="M177.561 249.583C177.444 249.585 177.328 249.586 177.211 249.588C177.327 249.586 177.445 249.585 177.561 249.583Z" fill="#1C1C1C"/>
<path d="M8.94999 398.997C6.88707 384.125 -1.3166 352.507 8.44027 339.773C10.3328 337.302 12.8077 335.286 15.577 333.715C19.24 331.639 23.4181 330.343 27.4443 329.809C48.4812 327.017 114.596 335.118 130.284 347.102C144.551 358 145.612 383.031 149.576 398.997H134.92H132.563H8.94999Z" fill="#D9DBD5"/>
<path d="M132.563 398.995C130.32 387.056 128.413 374.39 123.1 363.355C122.86 362.865 122.896 362.48 122.992 361.96L123.849 361.487C126.752 363.001 128.437 369.511 129.373 372.509C132.047 381.072 133.372 390.166 134.92 398.995H132.563Z" fill="#1C1C1C"/>
<path d="M21.1786 337.029C40.8003 335.497 70.6885 340.088 90.1243 344.22C93.9743 345.036 106.154 347.112 108.295 350.382L107.317 351.263L105.206 351.027C84.0195 345.19 62.1491 341.896 40.2366 339.994C35.8049 339.609 20.7408 340.739 17.9463 338.916C18.8098 337.591 19.7394 337.532 21.1786 337.029Z" fill="#1C1C1C"/>
<path d="M144.102 292.26C144.106 292.329 144.11 292.399 144.114 292.47C144.312 295.845 144.626 301.201 147.023 303.667C147.868 304.533 148.636 304.871 149.829 304.792C152.618 304.606 155.226 301.77 156.828 299.764C160.234 295.474 162.273 290.821 167.322 288.124C170.051 286.667 172.917 285.618 175.4 283.734C185.169 291.28 190.404 298.286 196.185 309.003C198.218 312.774 200.425 316.74 201.378 320.938L200.784 322.058L201.21 322.74C201.486 322.868 202.386 323.167 202.553 323.361C205.222 326.45 211.603 343.116 213.312 347.746C213.558 348.414 213.684 349.089 213.75 349.792L214.541 350.975C217.138 355.096 218.319 360.59 221.252 364.315L221.48 365.581C225.09 373.54 228.22 380.813 229.383 389.553L227.248 392.066C226.355 394.461 225.3 396.714 224.142 398.997H205.084H200.742H175.694H171.778H163.478H158.854H152.66C152.629 398.8 152.598 398.602 152.567 398.405C150.196 383.174 147.441 365.475 139.029 352.329C134.579 345.895 129.086 341.868 121.962 338.685C122.789 337.613 122.891 336.418 123.113 335.128C127.239 332.543 130.669 328.603 132.037 323.949C133.716 318.218 132.636 312.659 129.722 307.565C134.897 302.9 138.387 296.182 144.102 292.26Z" fill="#D9DBD5"/>
<path d="M139.029 352.33C142.849 348.788 143.7 343.312 147.754 339.551C149.289 341.006 150.885 342.413 152.456 343.838L154.879 346.872C155.652 349.237 155.946 352.945 157.613 354.642C158.908 356.416 159.994 358.066 160.845 360.088C161.625 361.886 162.476 363.471 163.556 365.109C172.617 369.402 178.218 372.187 182.506 381.565C178.944 381.802 176.443 382.44 174.05 385.214C173.157 386.248 172.359 387.384 171.574 388.501L172.605 389.483C171.742 392.12 174.542 396.603 175.694 398.998H171.778H163.478H158.854H152.66C152.629 398.801 152.598 398.603 152.567 398.405C150.196 383.174 147.441 365.476 139.029 352.33Z" fill="#D9DBD5"/>
<path d="M165.049 374.37C166.722 378.361 168.689 385.422 171.574 388.502L172.605 389.484C171.742 392.121 174.542 396.604 175.694 398.998H171.778H163.478C162.051 397.692 160.516 396.402 159.19 394.995C157.451 393.144 156.444 389.993 156.648 387.485C156.965 383.488 160.084 380.2 163.022 377.752L162.932 376.422C163.4 375.558 164.294 374.979 165.049 374.37Z" fill="#F2E11F"/>
<path d="M165.05 374.37C166.723 378.361 168.69 385.422 171.575 388.502L172.606 389.484C171.742 392.121 174.543 396.604 175.694 398.998H171.778C168.768 392.145 164.93 384.948 163.023 377.752L162.933 376.422C163.401 375.558 164.294 374.979 165.05 374.37Z" fill="#1C1C1C"/>
<path d="M162.236 376.303L162.932 376.422L163.022 377.752C160.084 380.2 156.965 383.488 156.647 387.485C156.444 389.993 157.451 393.144 159.19 394.995C160.515 396.403 162.051 397.692 163.478 398.999H158.854L159.172 398.123C158.267 397.154 157.331 396.166 156.581 395.072C154.8 392.453 154.165 388.437 154.842 385.368C155.748 381.306 158.8 378.426 162.236 376.303Z" fill="#1C1C1C"/>
<path d="M162.238 376.302C160.841 372.144 159.275 368.259 159.371 363.819L160.139 363.89C162.538 366.882 163.683 370.838 165.05 374.368C164.295 374.977 163.401 375.556 162.933 376.42L162.238 376.302Z" fill="#1C1C1C"/>
<path d="M157.613 354.641C158.909 356.415 159.994 358.065 160.846 360.087L159.688 360.407L158.333 359.608C157.385 357.811 157.457 356.598 157.613 354.641Z" fill="#A7A8A4"/>
<path d="M201.208 322.74C201.484 322.869 202.383 323.168 202.551 323.362C205.22 326.45 211.601 343.117 213.31 347.747C213.556 348.415 213.681 349.089 213.747 349.793C206.275 353.749 208.926 364.487 202.707 368.828C201.118 369.933 199.637 370.01 197.784 369.721C194.036 367.858 193.652 363.068 190.857 360.395C187.721 357.391 183.151 357.663 181.125 353.11C177.466 344.909 192.579 340.033 196.339 335.25C198.677 332.275 199.685 326.383 201.208 322.74Z" fill="#F2E11F"/>
<path d="M182.505 381.566C187.987 384.695 187.843 389.135 192.298 392.512C196.496 395.699 201.096 394.457 205.084 398.999H200.742H175.693C174.542 396.604 171.741 392.122 172.605 389.484L171.573 388.503C172.359 387.385 173.156 386.25 174.05 385.215C176.443 382.442 178.943 381.803 182.505 381.566Z" fill="#D9DBD5"/>
<path d="M182.505 381.566C187.987 384.695 187.843 389.135 192.298 392.512C196.496 395.699 201.096 394.457 205.084 398.999H200.742L201.312 398.348C199.507 395.09 194.037 396.657 191.387 394.682C191.249 394.576 191.117 394.457 190.979 394.345C187.027 391.152 185.984 384.896 180.898 383.524C177.024 384.103 175.015 386.729 172.605 389.484L171.573 388.503C172.359 387.385 173.156 386.25 174.05 385.215C176.443 382.442 178.943 381.803 182.505 381.566Z" fill="#1C1C1C"/>
<path d="M200.784 322.06L201.21 322.741C199.687 326.384 198.679 332.276 196.341 335.251C192.58 340.034 177.468 344.91 181.127 353.111C183.153 357.665 187.723 357.392 190.859 360.396C193.654 363.069 194.038 367.859 197.786 369.722C199.639 370.011 201.12 369.935 202.709 368.829C208.928 364.488 206.277 353.75 213.749 349.794L214.541 350.977C209.702 356.21 210.199 364.193 205.408 368.953C203.843 370.514 200.754 372.241 198.469 372.057C194.056 371.697 191.861 364.163 188.425 361.555C185.93 359.663 182.092 358.214 180.311 355.666C178.908 353.649 178.8 351.195 179.214 348.86C180.761 340.135 190.488 340.541 194.667 334.111C197.192 330.219 196.67 324.924 200.784 322.06Z" fill="#1C1C1C"/>
<path d="M224.233 378.39C222.751 379.72 221.648 381.973 220.335 383.558C219.081 384.084 218.692 384.469 217.342 384.12C217.018 383.629 216.743 383.114 216.605 382.541C215.309 377.201 218.788 369.999 221.48 365.582C225.09 373.541 228.221 380.814 229.384 389.554L227.249 392.067L227.369 391.464C228.113 387.662 227.681 381.423 225.402 378.159L224.233 378.39Z" fill="#D9DBD5"/>
<path d="M224.231 378.393C223.992 379.41 223.632 380.409 223.266 381.391C222.474 383.484 221.671 384.838 219.518 385.796C218.504 385.654 217.995 385.725 217.227 385.004C215.692 383.579 215.182 381.367 215.11 379.345C214.924 373.923 217.587 368.263 221.251 364.319L221.479 365.585C218.786 370.002 215.308 377.204 216.603 382.544C216.741 383.118 217.017 383.632 217.341 384.123C218.69 384.472 219.08 384.087 220.333 383.561C221.647 381.976 222.75 379.723 224.231 378.393Z" fill="#424240"/>
<path d="M152.457 343.84C152.775 340.958 153.015 338.042 153.626 335.204L154.1 337.929C155.222 338.533 155.773 338.786 157.051 338.622C157.728 340.227 157.374 341.485 156.703 343.077C156.163 344.366 155.509 345.626 154.88 346.873L152.457 343.84Z" fill="#F6E95C"/>
<path d="M163.502 315.553C168.822 306.966 173.619 300.422 183.31 296.179C180.252 299.775 176.39 302.814 173.091 306.234C174.351 312.552 178.285 323.072 174.123 328.796C173.691 329.39 173.205 329.889 172.51 330.16L160.954 330.52C160.468 332.769 160.126 334.819 158.747 336.726L158.039 336.542C157.404 329.971 160.204 323.298 162.597 317.311L163.502 315.553Z" fill="#D9DBD5"/>
<path d="M163.502 315.553C168.822 306.966 173.619 300.422 183.31 296.179C180.252 299.775 176.39 302.814 173.091 306.234L171.712 307.955C166.423 315.344 163.359 321.804 160.954 330.52C160.468 332.769 160.126 334.819 158.747 336.726L158.039 336.542C157.404 329.971 160.204 323.298 162.597 317.311L163.502 315.553Z" fill="#F2E11F"/>
<path d="M158.038 316.198L158.44 317.065C156.827 318.039 154.998 319.006 153.601 320.261C149.055 324.336 148.935 329.899 148.791 335.497C148.084 335.273 148.264 335.483 147.994 334.952C146.59 332.23 147.058 329.666 147.982 326.861C149.727 321.58 153.097 318.639 158.038 316.198Z" fill="#F2E11F"/>
<path d="M158.039 316.197C159.784 315.587 161.673 315.636 163.502 315.552L162.597 317.31C161.289 316.678 159.85 316.963 158.441 317.064L158.039 316.197Z" fill="#1C1C1C"/>
<path d="M40.5248 288.262C42.4798 285.217 44.8785 282.474 47.6491 280.122C48.0808 292.67 50.2457 303.823 59.9966 312.8C66.5031 318.796 75.1206 320.957 83.876 320.605C97.285 320.065 109.602 312.227 119.857 304.339C123.995 305.656 127.767 307.527 129.854 311.521C131.683 315.012 131.179 319.532 129.974 323.136C128.475 327.618 123.821 331.691 123.113 335.128C122.891 336.418 122.79 337.613 121.962 338.685C105.663 333.029 88.0798 330.688 71.0068 328.476L68.4402 327.736C68.4941 327.138 68.5421 326.531 68.4881 325.93C68.1643 322.579 61.07 318.613 58.5033 316.62L58.2995 316.2L53.8199 316.222L53.556 315.731C53.49 315.703 53.418 315.675 53.3521 315.649C52.9923 315.504 52.6205 315.352 52.3086 315.117C46.8995 311.096 43.8291 294.993 42.2939 288.515L40.5248 288.262Z" fill="#D9DBD5"/>
<path d="M42.293 288.517L43.2645 287.656C44.5538 290.139 44.9375 294.112 45.8431 296.911C47.1684 301.029 48.8115 305.041 50.7545 308.913C51.4501 310.276 53.585 313.092 53.8069 314.441C53.8549 314.718 53.615 315.424 53.555 315.732C53.489 315.705 53.4171 315.677 53.3511 315.65C52.9913 315.506 52.6195 315.353 52.3077 315.119C46.8985 311.098 43.8282 294.995 42.293 288.517Z" fill="#C8FE5E"/>
<path d="M58.5034 316.622C62.7192 318.014 68.1163 321.363 70.2572 325.382C70.743 326.292 70.8749 327.47 71.0068 328.478L68.4402 327.738C68.4942 327.14 68.5421 326.532 68.4882 325.932C68.1643 322.581 61.0701 318.615 58.5034 316.622Z" fill="#424240"/>
<path d="M233.705 355.573C233.826 354.936 234.202 354.339 234.55 353.785C234.582 353.732 234.615 353.68 234.647 353.628C239.42 345.87 244.722 341.837 253.669 339.705C257.243 340.828 260.745 342.026 264.235 343.392C263.81 344.238 263.414 345.349 262.652 345.923C260.469 347.638 258.161 349.43 257.741 352.345C257.531 353.794 258.047 355.266 259.036 356.348C259.822 357.2 260.997 357.714 262.023 358.234L262.49 358.477C262.652 360.925 263.084 363.817 262.658 366.229C262.107 369.387 260.229 372.58 260.241 375.797C260.253 378.422 261.345 381.527 261.867 384.146C257.333 388.345 253.861 392.744 253.027 399.001H244.716C242.515 398.167 240.308 399.036 238.449 397.723C237.813 395.689 237.765 393.14 237.741 390.994C237.729 389.415 237.447 387.629 238.587 386.476C239.516 385.335 240.506 384.312 241.549 383.277L240.524 382.573C242.107 380.776 243.438 379.002 244.278 376.749C245.693 372.947 245.609 368.736 243.834 365.064C241.513 360.263 238.563 358.648 233.729 356.951L233.705 355.573Z" fill="#D9DBD5"/>
<path d="M233.705 355.57C237.867 356.06 240.734 357.166 243.372 360.507C246.389 364.386 247.684 369.3 246.958 374.137C246.461 377.372 244.692 380.949 241.993 382.96C241.849 383.066 241.693 383.167 241.549 383.273L240.524 382.57C242.107 380.772 243.438 378.998 244.278 376.745C245.693 372.943 245.609 368.733 243.834 365.06C241.513 360.259 238.563 358.644 233.729 356.947L233.705 355.57Z" fill="#1C1C1C"/>
<path d="M264.237 343.389C270.606 345.949 276.231 349.609 279.013 356.043C282.395 363.849 280.309 372.624 277.118 380.14C276.788 380.914 276.447 381.441 275.919 382.091L275.433 382.079C271.703 380.678 268.417 381.151 264.813 382.747C263.817 383.191 262.84 383.658 261.868 384.143C261.346 381.523 260.255 378.419 260.243 375.793C260.231 372.577 262.108 369.383 262.66 366.226C263.086 363.813 262.654 360.921 262.492 358.473L262.024 358.231C260.999 357.711 259.823 357.196 259.038 356.345C258.048 355.263 257.532 353.79 257.742 352.341C258.162 349.426 260.471 347.634 262.654 345.92C263.415 345.346 263.811 344.234 264.237 343.389Z" fill="#D9DBD5"/>
<path d="M262.654 345.921C262.642 346.016 262.636 346.117 262.624 346.211C262.21 349.044 259.547 350.965 259.535 353.869C261.55 356.37 267.673 356.435 270.42 358.73C270.03 359.368 270.024 359.38 269.256 359.557C267.259 360.007 264.489 358.948 262.492 358.475L262.024 358.233C260.999 357.712 259.823 357.198 259.038 356.346C258.048 355.264 257.532 353.792 257.742 352.343C258.162 349.428 260.471 347.636 262.654 345.921Z" fill="#F2E11F"/>
<path d="M33.1606 301.8C35.0377 297.52 37.0226 291.519 40.5248 288.264L42.2939 288.517C43.8291 294.995 46.8994 311.098 52.3086 315.119C52.6204 315.354 52.9922 315.506 53.352 315.65C53.418 315.677 53.49 315.705 53.5559 315.733L53.8198 316.223C51.649 319.613 49.8019 322.663 48.2847 326.388L37.9701 325.62C39.2834 320.308 40.9326 313.154 39.0975 307.853C38.0121 304.733 36.0451 303.248 33.1606 301.8Z" fill="#D9DBD5"/>
<path d="M233.729 356.947C238.563 358.644 241.513 360.259 243.834 365.06C245.609 368.732 245.693 372.943 244.278 376.745C243.438 378.998 242.107 380.772 240.524 382.569C238.677 380.807 237.148 378.477 235.397 376.567C232.326 373.221 228.956 370.228 225.532 367.23C227.877 364.221 230.413 358.774 233.729 356.947Z" fill="#F2E11F"/>
<path d="M261.867 384.144C262.838 383.659 263.816 383.191 264.811 382.748C268.416 381.151 271.702 380.678 275.432 382.08C275.336 382.618 275.378 383.115 274.994 383.528C274.226 388.88 270.886 394.273 268.385 398.998H254.839H253.028C253.861 392.741 257.333 388.342 261.867 384.144Z" fill="#F2E11F"/>
<path d="M261.867 384.144C262.838 383.659 263.816 383.191 264.811 382.748C268.416 381.151 271.702 380.678 275.432 382.08C275.336 382.618 275.378 383.115 274.994 383.528C270.814 382.748 267.078 383.197 263.528 385.634C259.018 388.726 256.29 393.894 254.839 398.998H253.028C253.861 392.741 257.333 388.342 261.867 384.144Z" fill="#1C1C1C"/>
<path d="M228.311 373.172C233.204 376.944 236.023 380.989 238.589 386.471C237.45 387.624 237.732 389.409 237.744 390.988C237.768 393.135 237.816 395.683 238.451 397.718C240.31 399.03 242.517 398.161 244.718 398.995H224.143C225.3 396.712 226.356 394.459 227.249 392.065L229.384 389.551C229.666 391.065 229.582 391.952 230.781 393.058L230.308 393.153L230.793 393.732L231.429 393.348C232.754 387.127 230.242 379.079 228.311 373.172Z" fill="#D9DBD5"/>
<path d="M121.771 302.71C127.845 298.002 134.082 291.876 140.691 288.054C140.79 287.996 140.883 287.941 140.969 287.89C141.797 287.401 142.056 287.247 143.191 287.537C144.163 289.074 144.085 290.521 144.103 292.263C138.388 296.186 134.898 302.903 129.722 307.568C127.474 305.12 124.799 303.974 121.771 302.71Z" fill="#D9DBD5"/>
<path d="M58.3001 316.203L58.504 316.622C61.0706 318.616 68.1649 322.581 68.4887 325.932C68.5427 326.533 68.4948 327.14 68.4408 327.739C62.8937 328.351 56.6449 327.106 51.0679 326.627C52.4711 321.842 54.0783 319.02 58.3001 316.203Z" fill="#F2E11F"/>
<path d="M113.537 137.873C114.991 137.69 116.533 137.711 118.018 137.731C118.186 137.733 118.354 137.736 118.52 137.738C128.157 137.849 134.82 141.661 141.38 148.253C141.092 148.702 140.811 149.16 140.547 149.624C136.367 157.019 143.209 165.341 145.29 172.549C132.841 183.978 116.967 191.023 100.92 195.907C91.4086 198.059 82.8751 198.423 73.3282 196.285C69.826 188.244 67.6971 178.728 69.5201 170.03C71.9248 158.547 80.2904 151.584 89.6875 145.517C90.7789 145.585 91.8464 145.851 92.9438 145.82C96.4736 145.722 99.0708 142.936 101.352 140.49C101.605 140.218 101.855 139.951 102.101 139.692C105.915 138.737 109.627 138.256 113.537 137.873Z" fill="#D9DBD5"/>
<path d="M96.3077 148.085L97.579 149.197C98.6345 154.404 100.014 159.544 101.699 164.588C103.57 170.217 110.88 185.077 110.37 189.939C109.057 189.254 108.475 188.088 107.876 186.813C104.661 179.926 93.789 154.692 96.3077 148.085Z" fill="#1C1C1C"/>
<path d="M54.6778 261.884C56.2489 264.17 55.8052 266.545 56.7707 268.925C59.1754 274.553 62.7615 278.357 68.5605 280.726C100.08 293.614 148.882 249.413 164.162 274.024L164.096 275.02C163.424 275.137 162.751 275.246 162.078 275.358C158.129 276.016 154.191 276.677 150.507 278.297C135.191 285.376 124.727 298.43 110.52 306.921C105.003 310.918 98.3888 314.181 91.7563 315.911C83.5226 318.059 74.1315 317.901 66.6655 313.491C58.5577 308.704 53.9941 300.266 51.7573 291.487C50.9597 288.265 51.3616 284.608 51.4335 281.306C50.9538 279.924 50.504 278.48 50.2342 277.042C49.2027 271.586 51.5714 266.248 54.6778 261.884Z" fill="#D9DBD5"/>
<path d="M51.4335 281.307C52.6149 285.204 63.2593 290.701 66.9054 292.659C67.1332 292.784 67.3791 292.894 67.619 293.001C70.9653 293.638 75.8766 294.721 78.3533 297.078C81.7895 300.346 84.3142 305.63 86.7969 309.684L87.3306 310.41C91.8043 312.467 99.3663 307.493 104.14 306.616C106.149 306.246 108.739 305.69 110.52 306.921C105.003 310.919 98.3888 314.181 91.7563 315.911C83.5227 318.059 74.1315 317.902 66.6655 313.491C58.5577 308.704 53.9941 300.267 51.7573 291.487C50.9597 288.265 51.3616 284.609 51.4335 281.307Z" fill="#D9DBD5"/>
<path d="M51.4335 281.307C52.6149 285.204 63.2593 290.701 66.9054 292.659C67.1332 292.784 67.3791 292.894 67.619 293.001C66.8035 293.331 65.9939 293.162 65.1363 293.076L63.6971 293.963L61.4783 293.271L63.0854 292.306C60.003 290.046 56.249 288.258 52.9087 286.379L52.1112 286.599L51.7573 291.487C50.9597 288.265 51.3616 284.609 51.4335 281.307Z" fill="#A7A8A4"/>
<path d="M70.1536 298.912C67.0532 298.474 64.0788 298.197 61.2963 296.637C59.863 295.833 59.3653 295.464 58.9155 293.903C59.845 293.038 60.2348 293.264 61.4762 293.272L63.695 293.963C66.2077 295.205 68.1207 297.048 70.1536 298.912Z" fill="#F6E95C"/>
<path d="M86.797 309.683C89.9753 306.532 91.3905 301.895 94.5149 299.102C97.9331 296.046 133.045 280.08 138.502 278.532C142.52 277.393 146.651 276.21 150.507 278.296C135.191 285.375 124.727 298.43 110.52 306.92C108.739 305.689 106.149 306.245 104.14 306.615C99.3663 307.492 91.8043 312.466 87.3307 310.409L86.797 309.683Z" fill="#D9DBD5"/>
<path d="M232.862 275.514L232.011 274.582C233.75 267.052 241.786 237.845 246.133 232.548C248.64 231.591 250.979 231.854 253.456 232.783C254.532 233.728 254.843 234.699 255.248 235.962C255.272 236.036 255.296 236.112 255.321 236.188C259.386 239.309 267.908 239.758 272.987 240.877C274.486 239.622 275.95 237.741 278.097 237.94C280.201 238.134 282.474 238.885 284.273 239.984C285.538 242.134 284.839 244.657 284.189 247.009C284.117 247.266 284.047 247.521 283.979 247.773C280.711 260.084 276.525 272.541 272.455 284.654C272.35 284.965 272.246 285.276 272.142 285.587C271.626 284.526 267.35 277.081 267.362 277.036C267.524 276.612 267.668 276.473 268.01 276.189L267.368 276.026C267.331 276.033 267.295 276.041 267.259 276.047C265.754 276.306 264.597 276.503 263.08 276.018C261.197 276.883 260.022 277.484 259.29 279.552C257.623 284.272 259.556 290.856 261.023 295.854C261.165 296.336 261.302 296.803 261.431 297.253L261.851 298.463L262.235 301.495L262.025 303.038C260.644 306.953 260.554 311.208 260.467 315.316C260.465 315.435 260.462 315.555 260.46 315.673C259.73 315.524 258.827 315.346 257.788 315.14C248.346 313.267 227.667 309.163 223.783 305.058C222.626 302.431 223.777 298.704 224.545 296.085C225.606 292.471 227.537 290.584 230.823 288.835C232.814 287.246 234.338 285.641 235.891 283.637C236.874 281.429 235.573 279.659 236.359 277.482L235.207 276.123L232.862 275.514Z" fill="#F2F2F2"/>
<path d="M237.558 269.082L252.508 272.625C250.409 279.465 248.322 286.295 246.865 293.305C242.067 292.057 236.274 289.838 231.375 289.575L230.823 288.833C232.814 287.244 234.338 285.639 235.891 283.635C236.874 281.427 235.573 279.657 236.358 277.48L235.207 276.121L237.558 269.082Z" fill="#D9DBD5"/>
<path d="M236.358 277.481C238.445 276.379 239.603 275.825 242.001 276.538C244.022 277.139 245.911 278.091 246.871 280.047C247.357 281.046 247.171 281.841 247.111 282.926C245.731 284.944 244.352 285.208 242.055 286.043L241.51 286.655C240.748 286.726 239.639 286.916 238.895 286.747C237.144 286.351 236.706 285.016 235.891 283.636C236.874 281.429 235.573 279.658 236.358 277.481Z" fill="#6D650E"/>
<path d="M241.51 286.66C239.555 285.561 238.529 285.294 237.486 283.285L238.247 282.83C239.645 283.399 240.766 284.012 241.971 284.909L242.055 286.048L241.51 286.66Z" fill="#FBF5B3"/>
<path d="M243.494 278.213C243.932 278.582 244.393 278.968 244.747 279.413C245.725 280.633 245.989 281.136 245.875 282.608C244.334 283.755 243.53 283.503 241.635 283.526C240.915 282.498 240.681 282.288 240.615 281.002L243.398 280.513L243.494 278.213Z" fill="#F1FED7"/>
<path d="M257.132 274.321C259.194 274.605 261.419 274.66 263.08 276.017C261.197 276.882 260.022 277.483 259.29 279.551C257.623 284.271 259.556 290.854 261.023 295.852C261.165 296.334 261.302 296.802 261.431 297.252C259.494 296.755 257.713 296.255 255.692 296.348L253.569 296.165C252.958 295.398 252.466 294.564 251.956 293.734C251.65 287.26 254.943 280.336 257.132 274.321Z" fill="#D9DBD5"/>
<path d="M237.012 267.813C242.625 269.084 248.232 270.3 253.713 272.051C251.656 279.108 250.253 287.441 247.339 294.131C242.319 293.103 235.765 292.334 231.375 289.577C236.274 289.84 242.067 292.059 246.865 293.307C248.322 286.297 250.409 279.467 252.508 272.627L237.558 269.084L235.207 276.123L232.862 275.514L234.326 274.921C235.309 272.583 236.203 270.212 237.012 267.813Z" fill="#424240"/>
<path d="M262.025 303.038C257.036 299.859 237.654 298.212 228.629 293.33C239.933 295.512 250.865 299.647 262.235 301.495L262.025 303.038Z" fill="#424240"/>
<path d="M256.322 273.051C260.106 273.615 263.728 274.886 267.368 276.026C267.331 276.032 267.295 276.039 267.259 276.046C265.753 276.305 264.597 276.502 263.08 276.017C261.419 274.66 259.194 274.605 257.132 274.321C254.943 280.336 251.65 287.26 251.956 293.734C252.466 294.564 252.958 295.398 253.569 296.165C252.454 295.602 251.728 295.161 250.919 294.215C249.797 288.464 254.421 278.77 256.322 273.051Z" fill="#424240"/>
<path d="M255.692 296.348C257.713 296.255 259.494 296.755 261.431 297.252L261.851 298.462C259.71 297.9 257.653 297.404 255.692 296.348Z" fill="#A7A8A4"/>
<path d="M244.344 243.253C249.915 244.747 255.564 245.737 261.016 247.672C259.127 254.792 257.483 262.337 254.833 269.207C248.668 268.166 243.331 266.916 237.64 264.303C239.559 257.291 241.562 249.978 244.344 243.253Z" fill="#424240"/>
<path d="M244.89 244.318C249.868 245.679 254.899 246.86 259.901 248.106C258.749 252.77 256.446 257.16 255.937 261.971L255.355 263.605C255.121 264.947 254.845 265.833 254.054 266.955C250.192 268.699 243.169 265.527 239.211 264.272C240.111 257.755 242.564 250.48 244.89 244.318Z" fill="#F2F2F2"/>
<path d="M243.981 254.161C245.414 253.065 246.241 251.388 247.735 250.214L248.91 250.544L250.973 250.654L251.267 251.319C252.268 252.668 252.838 253.171 252.586 254.926C252.466 255.753 252.01 256.694 251.699 257.473C251.381 259.07 250.931 260.737 250.841 262.36L248.976 262.02C247.453 261.715 245.186 261.499 243.879 260.673C242.691 259.923 242.733 259.565 242.397 258.284C242.757 256.797 243.315 255.532 243.981 254.161Z" fill="#F6E95C"/>
<path d="M242.397 258.285L243.513 258.943C245.594 257.584 244.592 254.57 246.505 253.017C246.271 255.325 245.66 257.737 246.583 259.933C247.471 260.442 248.304 260.974 249.138 261.56C249.036 261.898 249.096 261.745 248.976 262.021C247.453 261.716 245.186 261.499 243.879 260.674C242.691 259.924 242.733 259.566 242.397 258.285Z" fill="#1C1C1C"/>
<path d="M249.036 252.944L249.834 252.95C249.852 253.591 249.864 254.233 249.864 254.874C249.864 256.12 249.96 257.587 249.048 258.484C248.329 256.63 248.749 254.849 249.036 252.944Z" fill="#424240"/>
<path d="M248.908 250.544L250.971 250.654L251.265 251.319L249.832 252.951L249.034 252.945L248.908 250.544Z" fill="#FDFAD7"/>
<path d="M243.979 254.164C244.795 251.906 245.952 249.46 248.249 248.331C249.107 247.909 249.814 248.102 250.75 248.168C253.017 249.415 254.318 251.527 255.044 253.947C255.757 256.3 255.044 258.916 254.576 261.265L253.275 263.592L251.715 262.485L250.84 262.363C250.93 260.74 251.38 259.073 251.697 257.476C252.009 256.697 252.465 255.756 252.585 254.929C252.837 253.174 252.267 252.671 251.266 251.322L250.972 250.656L248.909 250.546L247.734 250.217C246.24 251.391 245.413 253.068 243.979 254.164Z" fill="#C2B419"/>
<path d="M251.697 257.475C251.877 259.181 252.135 260.797 251.715 262.485L250.84 262.362C250.93 260.739 251.38 259.072 251.697 257.475Z" fill="#FDFAD7"/>
<path d="M254.576 261.261L255.937 261.968L255.356 263.602L253.275 263.589L254.576 261.261Z" fill="#D9DBD5"/>
<path d="M264.01 248.302C267.158 248.897 270.504 249.361 273.569 250.277C275.032 250.716 277.581 251.724 278.324 253.149C280.357 257.049 274.768 269.477 273.389 273.865C268.196 273.144 262.75 271.772 257.761 270.14C259.236 262.794 261.179 255.261 264.01 248.302Z" fill="#424240"/>
<path d="M263.348 252.799C263.714 251.919 264.044 250.456 264.931 250.08C268.074 248.746 275.12 251.795 278.322 252.821C276.997 258.404 275.504 263.846 273.705 269.3C273.363 270.611 273.339 271.024 272.35 272.012C268.224 272.856 262.917 270.68 258.953 269.572C260.392 263.974 261.855 258.383 263.348 252.799Z" fill="#F2F2F2"/>
<path d="M263.35 252.799C263.715 251.919 264.045 250.456 264.933 250.08C268.075 248.746 275.121 251.795 278.324 252.821C276.998 258.404 275.505 263.846 273.706 269.3L271.703 269.073L272.513 266.818C271.961 263.312 271.02 261.918 268.417 259.524C265.742 257.066 265.988 256.383 265.856 252.913L265.203 252.99L263.35 252.799Z" fill="#D9DBD5"/>
<path d="M265.202 252.987L265.856 252.91C265.987 256.38 265.742 257.063 268.416 259.522C271.019 261.915 271.96 263.309 272.512 266.815L271.702 269.07C269.55 268.468 266.809 267.714 265.412 265.841C263.067 262.691 264.71 256.577 265.202 252.987Z" fill="#6D650E"/>
<path d="M267.751 260.801C268.524 260.677 268.65 260.771 269.382 261.086C268.05 266.782 270.089 263.01 271.415 267.03L270.683 267.462L269.22 267.066C268.608 266.473 267.858 265.965 267.181 265.445C266.095 264.618 265.64 264.253 265.214 262.939L266.785 261.714L267.577 262.132C267.619 261.671 267.673 261.254 267.751 260.801Z" fill="#F1FED7"/>
<path d="M233.768 306.268C238.098 305.931 246.841 308.47 250.439 310.812C246.044 310.992 237.348 308.747 233.768 306.268Z" fill="#424240"/>
<path d="M243.614 301.321C244.694 300.642 246.127 300.931 246.847 301.974C247.572 303.018 247.32 304.438 246.283 305.181C245.587 305.681 244.664 305.768 243.884 305.406C243.105 305.045 242.583 304.292 242.529 303.441C242.469 302.592 242.889 301.779 243.614 301.321Z" fill="#796964"/>
<path d="M228.687 297.553C229.371 297.136 230.228 297.124 230.918 297.522C231.614 297.919 232.027 298.661 231.997 299.451C231.967 300.241 231.494 300.95 230.774 301.295C229.737 301.79 228.483 301.398 227.931 300.401C227.374 299.404 227.704 298.153 228.687 297.553Z" fill="#796964"/>
<path d="M245.748 237.19C247.919 237.41 249.682 237.713 251.697 238.557C251.589 238.571 251.481 238.587 251.373 238.599C249.017 238.874 247.631 238.678 245.748 237.19Z" fill="#747572"/>
<path d="M137.636 182.807C143.315 178.279 147.801 174.527 153.18 169.632C156.202 176.676 157.252 182.111 159.855 188.798C161.018 191.787 167.399 197.797 169.863 200.782L164.742 206.22C164.769 206.634 164.803 207.069 164.838 207.517C165.015 209.772 165.218 212.366 164.658 214.308L164.682 217.099C165.803 220.445 164.25 230.766 162.619 234.071C159.399 240.58 150.817 242.357 144.125 243.332C142.2 243.82 141.618 243.995 140.389 245.634C139.729 247.752 139.183 251.122 138.752 253.389C130.002 249.769 120.881 247.101 111.55 245.432C108.516 244.903 102.171 245.037 100.636 242.826L101.008 241.803C101.078 241.807 101.136 241.809 101.186 241.812C101.421 241.823 101.456 241.825 101.709 241.962C107.412 245.05 108.114 242.046 113.481 240.824C114.429 240.608 116.659 240.932 118.686 240.604C120.821 238.711 120 239.171 120.995 236.491C123.226 230.512 125.888 234.513 127.094 226.495L127.166 226.03C129.241 222.753 133.295 224.794 133.277 220.744C131.897 219.972 128.785 221.089 126.842 221.517C119.166 219.742 114.123 211.427 118.662 204.489C123.868 196.538 133.397 210.622 137.402 205.022C137.861 201.049 137.338 199.177 136.419 195.884C136.279 195.385 136.131 194.852 135.975 194.275C137.498 189.939 138.158 187.357 137.636 182.807Z" fill="white"/>
<path d="M164.682 217.1C161.102 217.79 158.08 217.797 154.505 218.605L154.11 219.337C156.844 221.944 162.079 222.124 163.669 224.648L163.063 225.657C157.804 226.702 148.035 220.51 151.111 216.426C153.282 215.402 161.504 214.744 164.658 214.31L164.682 217.1Z" fill="#1C1C1C"/>
<path d="M121.357 206.127C122.436 206.071 123.545 206.059 124.601 206.312C126.73 206.821 129.722 208.578 130.82 210.489C130.814 211.94 130.844 211.988 129.872 213.066L128.037 212.504L127.293 212.998L127.281 215.806C127.437 216.073 127.437 216.494 127.479 216.799C126.046 216.813 126.034 216.62 124.985 215.741C124.229 213.494 124.877 211.969 125.542 209.757L124.733 208.926L121.513 208.891L120.883 208.038L121.357 206.127Z" fill="#1C1C1C"/>
<path d="M149.008 178.941C150.741 178.786 151.923 178.717 153.572 179.421L153.89 180.417C151.935 182.962 148.738 183.948 146.586 186.462L146.22 186.898C145.986 187.474 145.578 187.83 145.158 188.282L144.091 187.933L143.641 186.547C144.397 182.802 146.076 181.321 149.008 178.941Z" fill="#1C1C1C"/>
<path d="M151.772 189.193C153.637 189.902 154.189 190.139 155.49 191.734C155.946 193.546 155.862 194.691 155.496 196.486C155.106 196.544 154.674 196.63 154.273 196.575C152.725 196.362 152.413 195.843 151.52 194.702C151.088 192.65 151.34 191.204 151.772 189.193Z" fill="#1C1C1C"/>
<path d="M74.7014 249.442C87.0909 242.634 109.495 247.616 122.538 251.244C132.469 254.005 140.973 258.145 149.668 263.554C144.739 263.811 139.809 264.282 134.988 265.385L131.45 266.186C118.37 272.401 93.0697 281.529 78.8812 279.913C74.5875 279.423 67.0494 277.909 64.3569 274.169C63.3614 272.783 63.2774 271.077 63.5953 269.459C64.7047 263.797 69.6881 252.795 74.7014 249.442Z" fill="#F2E11F"/>
<path d="M74.7014 249.442C87.0909 242.634 109.495 247.616 122.538 251.244C132.469 254.005 140.973 258.145 149.668 263.554C144.739 263.811 139.809 264.282 134.988 265.385L131.45 266.186C129.339 265.053 126.1 264.761 123.72 264.293C109.315 261.463 89.9214 261.92 78.3715 252.07C77.0762 251.491 75.8348 250.304 74.7014 249.442Z" fill="#D9DBD5"/>
<path d="M78.3715 252.071C86.0114 252.616 93.6814 256.138 101.213 257.728C110.916 259.777 123.372 260.341 132.529 263.465C133.506 263.798 134.298 264.657 134.988 265.386L131.45 266.187C129.339 265.054 126.1 264.762 123.72 264.294C109.315 261.465 89.9214 261.921 78.3715 252.071Z" fill="#F6E95C"/>
<path d="M280.752 286.597C281.927 282.629 282.941 278.447 284.506 274.617C294.521 300.6 289.256 309.313 281.226 334.413C274.203 329.075 269.31 327.231 260.345 327.361C260.267 325.351 259.907 322.881 260.777 321.034C262.72 321.461 263.067 323.373 265.076 323.532L265.628 322.83C264.111 316.515 263.385 312.916 264.555 306.538C264.896 304.666 265.52 302.491 265.4 300.586C265.196 297.258 263.559 293.493 262.708 290.236C262.669 290.09 262.63 289.939 262.589 289.784C261.869 287.057 260.794 282.986 262.372 280.564C262.995 279.609 263.391 279.462 264.441 279.035C268.171 281.97 271.199 291.585 273.172 296.111C273.676 295.223 274.18 294.856 275.013 294.31C276.392 291.636 277.268 288.749 278.221 285.911C278.257 286.024 278.287 286.137 278.317 286.251C278.665 287.598 278.569 288.51 278.263 289.852C278.863 290.051 279.463 290.247 280.05 290.474L279.751 286.581L280.326 286.265L280.752 286.597Z" fill="white"/>
<path d="M278.221 285.911C278.257 286.025 278.287 286.138 278.317 286.252C278.665 287.599 278.569 288.511 278.263 289.852C278.863 290.052 279.463 290.248 280.05 290.475L279.751 286.582L280.326 286.266L280.752 286.598C281.094 288.478 281.694 290.642 281.562 292.543L280.56 293.63L280.836 293.979L281.562 292.748L281.184 294.206C280.506 293.415 279.9 292.647 279.019 292.07C277.694 293.394 277.256 294.86 277.172 296.768C277.1 298.422 277.969 299.521 277.19 301.143C274.989 300.238 274.102 298.158 273.172 296.112C273.676 295.223 274.179 294.856 275.013 294.311C276.392 291.637 277.268 288.75 278.221 285.911Z" fill="#1C1C1C"/>
<path d="M199.232 308.153C208.005 288.332 209.744 279.225 229.456 267.859C228.55 270.921 227.597 273.97 226.601 277.005C219.183 281.606 213.174 282.565 207.711 290.104C214.943 287.051 224.52 279.682 232.238 279.065C232.79 279.021 233.09 279.528 233.486 279.875L233.456 281.735C230.745 287.222 223.153 288.973 218.745 292.932C217.738 293.835 217.252 294.304 217.174 295.668L218.853 296.14C222.601 300.801 214.344 312.128 213.822 316.966L214.829 317.13C216.519 316.404 217.471 314.966 218.437 313.505C218.585 313.281 218.732 313.055 218.883 312.833C219.465 311.577 219.627 310.562 220.958 309.979C225.54 312.662 230.115 314.433 235.321 315.52C233.989 316.946 232.616 318.736 231.087 319.933C226.174 324.543 220.613 327.422 214.698 330.477C214.455 330.603 214.211 330.729 213.966 330.856C212.419 331.79 211.867 332.184 210.098 331.926C209.15 330.474 209.282 329.939 209.336 328.268C205.145 322.434 202.314 314.641 199.232 308.153Z" fill="white"/>
<path d="M218.883 312.835C219.465 311.579 219.627 310.564 220.958 309.981C225.54 312.664 230.115 314.435 235.321 315.522C233.989 316.948 232.616 318.738 231.087 319.935C227.537 317.307 222.715 315.255 218.883 312.835Z" fill="#D9DBD5"/>
<path d="M209.336 328.268L213.966 330.855C212.419 331.79 211.867 332.183 210.098 331.926C209.15 330.474 209.282 329.939 209.336 328.268Z" fill="#424240"/>
<path d="M71.5575 198.656C83.2033 202.102 91.6469 201.49 103.227 198.405C103.749 199.832 104.648 202.091 105.032 203.474C104.324 204.181 103.593 204.919 102.841 205.678C94.2854 214.316 82.9769 225.73 71.3236 227.103C34.9107 231.393 62.1484 208.496 71.5575 198.656Z" fill="#F2E11F"/>
<path d="M162.596 278.502C162.932 278.464 163.268 278.426 163.604 278.403C167.618 278.135 170.74 280.768 173.61 283.185C173.643 283.212 173.676 283.238 173.708 283.266C160.869 289.574 161.937 288.295 154.285 300.8L151.976 302.206C151.85 302.207 151.729 302.212 151.613 302.214C150.236 302.236 149.504 302.246 148.354 301.15C145.523 298.454 145.463 289 145.451 285.174C149.679 280.896 156.833 279.554 162.596 278.502Z" fill="#F2E11F"/>
<path d="M258.935 330.546C261.778 330.301 264.65 330.217 267.457 330.814C274.887 332.394 279.133 336.831 283.091 342.862C282.011 345.464 280.86 347.983 279.552 350.479L278.701 350.644C277.202 348.782 275.511 346.889 273.657 345.364C269.058 341.56 261.28 337.62 255.103 338.263L254.516 338.329C254.366 335.685 257.31 332.481 258.935 330.546Z" fill="#D9DBD5"/>
<path d="M32.453 303.577C33.0227 303.856 33.5924 304.15 34.1082 304.525C36.0931 305.972 36.9087 308.265 37.3045 310.571C37.9761 314.451 38.0121 321.719 35.2895 324.931C34.426 325.954 32.603 325.734 31.3316 325.828C29.9584 326.097 28.633 326.159 27.2417 326.196L26.6841 325.45C27.1518 318.487 29.5206 309.923 32.453 303.577Z" fill="#F2E11F"/>
<path d="M54.6778 261.885C58.4019 257.921 62.036 255.511 67.0074 253.278C65.784 256.194 61.5862 269.156 60.3209 270.299C59.3314 269.238 58.8697 268.312 57.3525 268.175L56.7707 268.926C55.8052 266.545 56.249 264.171 54.6778 261.885Z" fill="#F6E95C"/>
<path d="M275.013 294.31C274.821 292.918 274.881 291.678 275.193 290.304C277.646 279.369 281.7 268.518 284.998 257.793C286.485 252.967 287.313 247.695 289.364 243.099L289.705 243.571C289.597 255.703 280.524 272.765 278.221 285.91C277.268 288.749 276.392 291.636 275.013 294.31Z" fill="#D9DBD5"/>
<path d="M103.227 198.404L111.418 195.864C111.112 196.257 110.805 196.654 110.496 197.054C108.782 199.273 107.019 201.557 105.032 203.473C104.648 202.09 103.749 199.831 103.227 198.404Z" fill="#F2E11F"/>
<path d="M216.173 248.52C212.635 246.577 207.885 243.256 206.824 239.095C206.644 238.379 206.638 237.186 207.075 236.56C207.897 235.38 208.647 234.981 209.966 234.445C211.627 234.384 214.614 235.995 215.699 235.11C215.813 235.017 216.065 234.635 216.143 234.527C217 233.304 217.75 231.913 219.393 231.696C221.144 231.466 221.732 231.69 223.183 232.521C224.952 235.298 224.352 238.875 223.639 241.916C223.057 244.421 222.008 246.642 220.7 248.847C218.799 249.424 218.062 249.024 216.173 248.52Z" fill="#1C1C1C"/>
<path d="M218.595 233.609C219.495 233.765 220.772 233.99 221.336 234.709C222.409 236.078 222.247 239.444 221.99 241.1C221.63 243.388 220.526 244.719 218.679 246.063C216.43 246.329 215.477 245.515 213.48 244.536C212.029 243.234 210.062 241.61 209.63 239.628C209.33 238.253 209.33 237.677 210.086 236.462C212.557 236.22 214.242 238.576 216.335 238.303L218.595 233.609Z" fill="#F2E11F"/>
<path d="M306.072 262.299C307.32 262.241 308.903 262.16 310.126 262.484C312.657 263.155 313.922 266.032 315.194 268.091C317.508 269.076 319.313 267.985 321.748 268.181C323.607 268.331 325.25 269.308 326.36 270.759C327.013 271.612 327.139 273.234 326.935 274.252C326.096 278.403 323.307 280.876 319.865 283.046C315.415 285.634 310.48 286.881 305.545 288.225C303.47 283.336 301.497 277.165 301.659 271.859C301.797 267.595 302.948 265.178 306.072 262.299Z" fill="#1C1C1C"/>
<path d="M308.133 263.901C308.781 264.155 309.399 264.483 309.968 264.878C312.655 266.725 312.955 270.375 313.573 273.325C315.378 272.232 317.315 270.988 319.485 270.81C321.039 270.683 322.13 271.082 323.281 272.065C323.683 273.031 324.049 273.559 323.881 274.619C323.437 277.397 321.117 278.974 319.012 280.575C315.294 282.753 311.3 283.952 307.21 285.257C305.621 281.386 304.062 276.759 304.199 272.534C304.325 268.619 305.261 266.561 308.133 263.901Z" fill="#F2E11F"/>
<path fill-rule="evenodd" clip-rule="evenodd" d="M40.5231 288.266C42.478 285.22 44.8768 282.478 47.6473 280.125C48.0791 292.673 50.2439 303.826 59.9948 312.804C66.5014 318.799 75.1189 320.96 83.8743 320.608C97.2832 320.069 109.601 312.23 119.855 304.343C123.993 305.66 127.765 307.53 129.852 311.524C131.681 315.016 131.177 319.534 129.972 323.14C129.227 325.367 127.703 327.493 126.272 329.489C124.822 331.511 123.468 333.402 123.112 335.131C127.237 332.546 130.668 328.606 132.035 323.951C133.714 318.22 132.635 312.663 129.72 307.567C127.471 305.12 124.797 303.974 121.768 302.71C123.746 301.177 125.741 299.492 127.76 297.788L127.813 297.744L127.825 297.733C131.988 294.22 136.255 290.619 140.688 288.053L140.967 287.89C141.794 287.4 142.054 287.247 143.189 287.536C144.08 288.946 144.088 290.281 144.097 291.837C144.098 291.977 144.099 292.119 144.1 292.262L144.113 292.473C144.311 295.848 144.625 301.206 147.021 303.67C147.867 304.536 148.634 304.875 149.827 304.796C152.616 304.61 155.225 301.775 156.826 299.768C157.747 298.607 158.568 297.422 159.376 296.254C161.555 293.104 163.636 290.095 167.32 288.127C168.188 287.665 169.069 287.242 169.948 286.821L169.962 286.814C171.842 285.913 173.709 285.019 175.398 283.738C185.167 291.283 190.402 298.29 196.183 309.005C196.282 309.19 196.382 309.375 196.483 309.56C198.429 313.167 200.47 316.949 201.376 320.942L200.783 322.061L201.209 322.741C201.287 322.778 201.418 322.831 201.567 322.888C201.94 323.034 202.432 323.226 202.552 323.365C205.22 326.453 211.601 343.119 213.31 347.749C213.556 348.417 213.682 349.09 213.748 349.796L214.54 350.978C215.692 352.808 216.566 354.908 217.438 357.002L217.442 357.014C218.533 359.635 219.622 362.249 221.25 364.319L221.478 365.583C225.088 373.544 228.218 380.814 229.382 389.554C229.432 389.822 229.47 390.07 229.506 390.304C229.564 390.676 229.616 391.011 229.699 391.326C229.858 391.93 230.131 392.464 230.779 393.06L230.305 393.157L230.791 393.736L231.427 393.35C232.752 387.131 230.239 379.082 228.308 373.175C233.202 376.949 236.02 380.992 238.587 386.473C239.516 385.332 240.506 384.313 241.549 383.276L240.524 382.573C239.454 381.554 238.49 380.341 237.528 379.132L237.522 379.124L237.506 379.103C236.815 378.234 236.125 377.365 235.396 376.57C232.326 373.222 228.956 370.23 225.532 367.234C226.241 366.323 226.968 365.188 227.729 364L227.755 363.96L227.761 363.951C229.506 361.224 231.43 358.218 233.729 356.952L233.705 355.574C233.825 354.939 234.197 354.347 234.543 353.795L234.549 353.785L234.647 353.629C239.42 345.868 244.722 341.837 253.669 339.704C257.243 340.828 260.745 342.025 264.235 343.391C270.604 345.953 276.229 349.612 279.012 356.046C282.394 363.851 280.307 372.626 277.117 380.143C276.787 380.918 276.445 381.442 275.917 382.093L275.431 382.081C275.409 382.207 275.394 382.331 275.38 382.452C275.332 382.848 275.288 383.214 274.994 383.531C274.346 388.045 271.87 392.588 269.61 396.733L269.551 396.841C269.151 397.576 268.759 398.297 268.385 399.002H272.229C280.019 384.016 287.131 370.22 282.028 353.168L282.581 352.042L282.592 352.02C283.621 349.937 284.712 347.727 285.278 345.557C286.136 342.293 285.284 340.085 283.569 337.307L284.872 333.56C293.33 309.285 298.005 295.868 285.5 270.65C287.134 265.912 288.544 261.097 289.951 256.29L289.962 256.25L290.843 253.249L291.437 251.103C292.523 247.508 293.344 243.514 291.635 239.983C290.016 236.64 287.479 235.511 284.067 234.373C277.698 232.245 249.297 225.175 244.2 228.164C239.652 230.834 237.392 239.961 235.826 246.288L235.807 246.362L235.792 246.424C235.488 247.649 235.21 248.77 234.947 249.708L234.011 252.43C233.08 255.019 232.268 257.669 231.459 260.313L231.455 260.326C231.087 261.529 230.719 262.729 230.341 263.922C211.025 275.089 205.022 283.448 197.622 304.153C189.683 291.176 181.707 283.832 168.79 275.614C165.642 268.723 159.374 265.271 153.011 261.766L153.002 261.761C148.978 259.547 144.917 257.31 141.582 254.172L142.583 250.621C142.809 249.502 143.147 248.426 143.489 247.337L143.499 247.307L143.579 247.055C145.008 246.263 146.958 245.966 149.177 245.63C153.372 244.991 158.487 244.212 162.697 239.629C169.007 232.765 168.575 221.048 168.221 211.432L168.179 210.276C168.144 209.316 168.114 208.378 168.094 207.475C171.284 204.127 174.81 200.175 170.481 196.569C161.102 188.745 157.63 175.583 154.775 163.282C155.427 162.087 156.437 162.045 157.513 162.003C158.972 161.946 160.552 161.881 161.521 158.927C161.358 157.135 160.226 156.002 158.962 154.737L158.283 154.047C158.165 152.49 158.577 152.114 159.12 151.619C159.704 151.087 160.438 150.417 160.826 148.004C159.641 145.238 158.202 145.403 156.541 145.596C155.385 145.73 154.122 145.876 152.76 145.059L152.792 144.485C152.903 142.607 153.027 140.509 151.669 139.215C148.692 139.556 146.694 142.575 145.023 145.101C144.758 145.502 144.502 145.888 144.251 146.252C132.125 135.958 126.29 133.476 109.853 133.711L92.6762 136.841C92.6762 136.841 90.0888 138.819 89.3056 139.801C88.0851 141.333 86.9353 142.775 84.9957 144.352C74.1474 153.171 68.5322 162.092 65.332 175.588C65.7902 178.145 66.3903 180.294 66.9578 182.327C68.0056 186.078 68.9438 189.436 68.6723 194.221C68.6657 194.337 68.6586 194.45 68.6509 194.562C69.1531 194.409 69.6364 194.309 70.097 194.273L70.8945 195.557C70.8047 195.962 70.463 196.554 69.93 197.289L70.894 199.343L70.9317 199.304C71.1476 199.083 71.3562 198.868 71.5567 198.658C83.2026 202.103 91.6462 201.489 103.226 198.406L111.418 195.864L110.495 197.054C108.781 199.274 107.018 201.556 105.031 203.473L102.841 205.678L102.833 205.686C102.299 206.225 101.753 206.776 101.198 207.334C95.6518 212.907 89.0942 219.248 82.1089 223.245L86.3009 232.18C86.486 232.279 86.6739 232.372 86.8651 232.467C87.8489 232.956 88.9207 233.488 90.1564 235.097C90.8532 236.003 91.3058 237.041 91.7696 238.105C92.2837 239.284 92.8114 240.494 93.7005 241.591L93.6546 241.678C94.776 241.789 95.781 241.953 96.7675 242.725C95.259 243.749 93.291 243.432 91.5493 243.148L91.4384 243.129C83.5327 242.905 80.6095 244.284 75.5306 246.681C73.8848 247.457 72.0126 248.341 69.6711 249.311C69.3875 249.447 69.0994 249.596 68.8074 249.746C67.8954 250.215 66.946 250.704 65.9831 250.912C62.7448 252.114 59.6025 254.01 56.9579 256.206C50.1514 261.866 48.3764 268.955 47.6627 277.3L43.483 280.509C43.4646 279.163 43.4494 277.817 43.4369 276.471C40.9535 284.217 37.2714 289.587 33.6337 294.89C28.8438 301.875 24.1286 308.75 22.3316 320.794C21.5156 326.263 18.8234 330.229 15.5767 333.718C19.2396 331.642 23.4176 330.346 27.4439 329.811C48.4809 327.02 114.596 335.122 130.284 347.106C141.35 355.559 144.471 372.517 147.164 387.151L147.167 387.165C147.945 391.391 148.687 395.425 149.576 399.002H152.658L152.565 398.408C150.194 383.177 147.439 365.479 139.027 352.332C134.578 345.898 129.084 341.872 121.96 338.69C105.661 333.033 88.078 330.692 71.005 328.48L68.4384 327.74C64.4363 328.18 60.0689 327.656 55.852 327.149L55.8302 327.146C54.2098 326.951 52.6118 326.759 51.0655 326.626C52.4687 321.843 54.0759 319.022 58.2977 316.204L53.8181 316.226C51.6472 319.614 49.8002 322.662 48.283 326.389L37.9684 325.619C39.2817 320.306 40.9308 313.155 39.0958 307.852C38.0103 304.734 36.0434 303.249 33.1589 301.799C33.5066 301.007 33.858 300.156 34.2221 299.273L34.225 299.266C35.8256 295.387 37.6714 290.915 40.5231 288.266ZM235.888 283.639C236.402 282.486 236.292 281.452 236.182 280.415C236.082 279.47 235.981 278.524 236.356 277.484L235.205 276.126L232.86 275.517L232.008 274.584C233.747 267.054 241.783 237.847 246.131 232.549C248.638 231.594 250.976 231.856 253.453 232.784C254.529 233.73 254.841 234.7 255.246 235.964L255.318 236.189C258.31 238.486 263.715 239.337 268.386 240.072C270.062 240.334 271.643 240.584 272.985 240.879C273.265 240.644 273.544 240.388 273.827 240.128L273.866 240.092C275.083 238.968 276.367 237.783 278.094 237.941C280.199 238.137 282.472 238.887 284.271 239.985C285.536 242.136 284.837 244.66 284.186 247.01L283.977 247.775C280.709 260.086 276.522 272.545 272.452 284.656L272.139 285.589C271.841 284.975 270.288 282.232 269.032 280.014L268.869 279.726L268.826 279.651C268.003 278.199 267.355 277.056 267.36 277.039C267.522 276.613 267.666 276.475 268.007 276.19L267.366 276.029L267.256 276.049C265.752 276.306 264.594 276.504 263.078 276.02C261.195 276.886 260.02 277.487 259.288 279.556C257.62 284.274 259.552 290.854 261.02 295.852L261.429 297.256L261.849 298.466L262.232 301.497L262.023 303.042C260.641 306.956 260.551 311.21 260.465 315.318L260.457 315.674L257.785 315.142L257.741 315.135L257.669 315.12C248.175 313.231 227.649 309.146 223.781 305.058C222.657 302.509 223.71 298.92 224.475 296.315L224.542 296.086C225.604 292.473 227.535 290.585 230.821 288.838C232.812 287.249 234.335 285.646 235.888 283.639ZM213.779 330.967C212.369 331.822 211.793 332.171 210.096 331.924C209.242 330.618 209.265 330.053 209.317 328.733C209.32 328.652 209.324 328.568 209.327 328.481C209.329 328.412 209.332 328.34 209.334 328.267C206.28 324.016 203.949 318.725 201.716 313.657L201.712 313.647C200.881 311.762 200.065 309.908 199.23 308.151C200.32 305.688 201.303 303.386 202.224 301.23L202.231 301.215L202.269 301.126C208.729 285.995 212.233 277.789 229.454 267.859C228.548 270.92 227.595 273.968 226.599 277.004C224.375 278.383 222.278 279.434 220.284 280.434C215.627 282.77 211.535 284.824 207.709 290.102C210.195 289.053 212.958 287.492 215.827 285.873L215.843 285.863C221.316 282.775 227.177 279.469 232.236 279.063C232.655 279.031 232.929 279.315 233.21 279.606C233.299 279.698 233.389 279.791 233.484 279.875L233.454 281.733C231.777 285.128 228.233 287.093 224.73 289.033C222.57 290.231 220.425 291.421 218.743 292.931C218.419 293.22 218.149 293.465 217.929 293.71C217.466 294.227 217.225 294.742 217.172 295.667L218.851 296.14C221.295 299.179 218.636 305.05 216.344 310.11L216.34 310.118C215.118 312.818 214.001 315.285 213.82 316.966L214.827 317.129C216.518 316.404 217.469 314.966 218.435 313.504L218.881 312.833C218.994 312.591 219.09 312.358 219.183 312.135C219.315 311.815 219.439 311.516 219.588 311.242C219.874 310.72 220.251 310.289 220.956 309.98C225.538 312.663 230.113 314.434 235.319 315.521C234.933 315.934 234.544 316.378 234.149 316.828C233.179 317.935 232.171 319.084 231.085 319.935C226.177 324.541 220.623 327.412 214.715 330.467L214.696 330.477L213.964 330.855L213.779 330.967ZM127.61 294.146L127.605 294.151L127.598 294.156C122.141 298.698 116.682 303.241 110.518 306.924C105.001 310.921 98.3866 314.184 91.7541 315.914C83.5204 318.062 74.1293 317.906 66.6632 313.494C58.5555 308.708 53.9919 300.27 51.7551 291.49C51.1254 288.947 51.2433 286.132 51.3563 283.435C51.3864 282.716 51.4162 282.005 51.4313 281.31C50.9516 279.927 50.5018 278.484 50.2319 277.047C49.2005 271.588 51.5691 266.253 54.6755 261.887C58.3996 257.923 62.0338 255.516 67.0051 253.281C66.6164 254.209 65.9273 256.15 65.1274 258.403L65.1219 258.418C63.4053 263.256 61.181 269.524 60.3187 270.301C60.1282 270.097 59.9571 269.898 59.7945 269.709C59.1122 268.915 58.5753 268.29 57.3502 268.178L56.7684 268.928C59.1731 274.557 62.7593 278.36 68.5582 280.729C83.4469 286.818 102.192 280.167 119.438 274.048C138.702 267.213 156.098 261.041 164.16 274.028L164.094 275.022L162.076 275.361L162.068 275.363C158.122 276.023 154.187 276.681 150.505 278.299C141.839 282.304 134.726 288.224 127.61 294.146ZM149.979 161.729C149.939 161.714 149.897 161.698 149.852 161.681C149.548 161.928 149.26 162.154 148.988 162.366C147.612 163.438 146.629 164.207 145.888 166.058C146.199 167.555 146.787 168.696 147.519 170.02L148.253 169.453C149.724 168.335 151.199 167.214 151.902 165.46C151.842 164.111 151.741 163.156 150.661 162.139C150.395 161.884 150.247 161.829 149.979 161.729ZM278.22 285.913L278.316 286.254C278.664 287.6 278.568 288.511 278.262 289.855C278.862 290.053 279.461 290.251 280.049 290.476L279.749 286.583L280.325 286.267L280.751 286.598C281.05 285.586 281.339 284.562 281.63 283.532C282.479 280.521 283.339 277.472 284.505 274.619C293.388 297.666 290.249 307.124 283.822 326.487C283.004 328.952 282.131 331.58 281.224 334.414C274.202 329.076 269.309 327.233 260.343 327.364C260.33 327.01 260.307 326.643 260.284 326.267C260.177 324.503 260.058 322.558 260.775 321.036C261.696 321.239 262.259 321.774 262.81 322.298C263.42 322.879 264.02 323.449 265.075 323.533L265.627 322.83C264.109 316.518 263.384 312.917 264.553 306.541C264.636 306.089 264.734 305.619 264.835 305.141C265.153 303.634 265.49 302.033 265.399 300.587C265.261 298.34 264.47 295.893 263.708 293.539L263.701 293.518C263.338 292.392 262.981 291.288 262.706 290.238L262.587 289.785C261.868 287.059 260.793 282.987 262.37 280.565C262.567 280.263 262.741 280.043 262.92 279.867C263.298 279.5 263.697 279.337 264.378 279.061L264.439 279.036C267.349 281.325 269.833 287.682 271.72 292.517C272.252 293.878 272.737 295.118 273.171 296.113C273.674 295.224 274.178 294.858 275.012 294.311C274.82 292.921 274.88 291.681 275.192 290.305C276.895 282.712 279.37 275.161 281.828 267.662L281.836 267.636C282.915 264.345 283.991 261.063 284.996 257.795C285.527 256.075 285.973 254.298 286.421 252.514C287.229 249.295 288.042 246.058 289.362 243.101L289.704 243.573C289.642 250.521 286.639 259.088 283.652 267.609C281.424 273.964 279.204 280.298 278.22 285.913ZM96.8275 140.35C96.0958 139.596 95.754 139.304 94.7346 139.019C94.4517 139.22 94.1726 139.398 93.9052 139.568C92.8914 140.213 92.0425 140.753 91.7721 142.063L91.8938 142.151C92.524 142.608 93.1087 143.031 93.8471 143.317C94.1013 143.128 94.3554 142.955 94.6025 142.786C95.5673 142.126 96.4313 141.536 96.8275 140.35ZM267.456 330.816C264.649 330.219 261.777 330.304 258.934 330.549L258.499 331.061C256.836 333.018 254.377 335.912 254.514 338.331L255.102 338.267C261.279 337.623 269.057 341.563 273.656 345.366C275.509 346.893 277.2 348.783 278.7 350.647L279.551 350.481C280.859 347.987 282.01 345.468 283.089 342.864C279.131 336.834 274.886 332.397 267.456 330.816ZM74.699 249.445C87.0885 242.636 109.493 247.619 122.536 251.247C132.467 254.009 140.97 258.148 149.666 263.558C144.736 263.815 139.807 264.285 134.985 265.389L131.447 266.188C118.368 272.404 93.0674 281.533 78.8788 279.914C74.5851 279.427 67.0471 277.913 64.3545 274.171C63.359 272.785 63.2751 271.08 63.5929 269.462C64.7023 263.8 69.6857 252.798 74.699 249.445ZM163.602 278.405C163.266 278.427 162.931 278.464 162.595 278.504C156.832 279.556 149.678 280.897 145.45 285.175C145.462 289.001 145.522 298.456 148.352 301.151C149.501 302.245 150.232 302.235 151.605 302.215L151.612 302.215L151.974 302.208L154.283 300.8C154.424 300.569 154.563 300.343 154.698 300.121L154.937 299.73L154.96 299.692C158.346 294.154 159.927 291.568 162.114 289.654C164.03 287.978 166.412 286.82 170.88 284.648C171.741 284.229 172.679 283.773 173.707 283.267L173.609 283.186C170.74 280.769 167.615 278.135 163.602 278.405ZM164.658 214.309L164.682 217.101C165.803 220.446 164.25 230.765 162.619 234.071C159.398 240.579 150.817 242.356 144.125 243.331C142.2 243.818 141.618 243.994 140.388 245.635C139.863 247.322 139.409 249.806 139.028 251.892L139.026 251.904C138.93 252.43 138.838 252.931 138.751 253.387C130.002 249.77 120.881 247.1 111.55 245.432C110.794 245.3 109.833 245.21 108.792 245.113L108.68 245.103C105.562 244.816 101.775 244.467 100.635 242.826L101.007 241.802L101.185 241.812C101.323 241.819 101.392 241.824 101.476 241.854C101.536 241.873 101.604 241.906 101.709 241.962C105.591 244.065 107.156 243.344 109.452 242.285C110.528 241.788 111.768 241.215 113.481 240.824C113.903 240.727 114.582 240.738 115.383 240.75C116.378 240.766 117.563 240.785 118.686 240.604C120.182 239.278 120.226 239.107 120.461 238.201C120.562 237.813 120.697 237.293 120.995 236.491C121.98 233.851 123.05 233.156 124.041 232.512C125.293 231.701 126.421 230.97 127.093 226.494L127.165 226.029C128.092 224.566 129.414 224.163 130.592 223.804C132.05 223.361 133.286 222.985 133.276 220.743C132.19 220.135 130.028 220.699 128.209 221.174C127.719 221.303 127.254 221.424 126.842 221.515C119.166 219.741 114.122 211.427 118.662 204.488C121.477 200.187 125.556 202.333 129.343 204.325C132.558 206.015 135.563 207.594 137.402 205.022C137.86 201.048 137.337 199.175 136.418 195.884L135.975 194.276C137.498 189.94 138.158 187.357 137.636 182.806C143.315 178.278 147.801 174.526 153.18 169.632C154.866 173.563 155.939 176.993 157.009 180.417L157.012 180.426L157.02 180.454C157.865 183.154 158.709 185.855 159.854 188.797C160.655 190.854 163.927 194.343 166.693 197.291L166.699 197.297L166.715 197.314C167.959 198.641 169.099 199.857 169.863 200.781L164.742 206.22L164.838 207.517C165.015 209.771 165.218 212.367 164.658 214.309ZM256.487 320.551L238.599 316.147C230.749 325.748 222.995 330.096 211.697 335.018C215.589 344.574 219.613 353.978 224.416 363.136L227.649 358.429L228.566 356.984C234.392 347.798 239.337 340.001 251.072 337.262C251.54 336.287 252.282 335.07 253.073 333.773C254.657 331.177 256.437 328.257 256.601 326.312C256.691 325.258 256.627 324.196 256.562 323.132C256.51 322.271 256.458 321.41 256.487 320.551ZM117.978 137.729C116.504 137.71 114.977 137.689 113.535 137.871C109.625 138.254 105.913 138.737 102.099 139.69L101.349 140.489L101.345 140.494C99.0649 142.938 96.4688 145.72 92.9415 145.819C92.2826 145.836 91.6346 145.75 90.9857 145.661C90.5537 145.601 90.1213 145.542 89.6852 145.515C80.2881 151.582 71.9225 158.546 69.5178 170.03C67.6947 178.726 69.8237 188.243 73.3258 196.285C82.8728 198.423 91.4063 198.059 100.917 195.906C116.965 191.022 132.839 183.977 145.288 172.547C144.692 170.483 143.706 168.328 142.701 166.13C140.193 160.651 137.561 154.901 140.544 149.622C140.808 149.157 141.09 148.702 141.378 148.252C134.817 141.659 128.155 137.849 118.518 137.737L118.015 137.73L117.978 137.729ZM34.1065 304.526C33.7965 304.301 33.4671 304.106 33.1298 303.925C32.9059 303.804 32.6786 303.69 32.4513 303.579C29.5189 309.926 27.1502 318.488 26.6824 325.453L27.2401 326.198C28.6313 326.161 29.9567 326.099 31.3299 325.83C31.5574 325.812 31.8033 325.806 32.0574 325.8L32.1695 325.797C33.3084 325.773 34.6023 325.745 35.2878 324.934C38.0104 321.722 37.9744 314.454 37.3028 310.572C36.907 308.268 36.0915 305.974 34.1065 304.526Z" fill="#1C1C1C"/>
<path fill-rule="evenodd" clip-rule="evenodd" d="M103.227 198.405L111.418 195.864L110.496 197.054C108.782 199.274 107.019 201.555 105.032 203.473L102.841 205.678L102.834 205.685C102.3 206.225 101.753 206.776 101.198 207.334C95.6526 212.906 89.0949 219.247 82.1097 223.245L82.071 223.267C78.5711 225.265 74.9641 226.674 71.3236 227.102C39.0551 230.905 56.7728 213.358 67.7721 202.464L67.7782 202.458C68.9087 201.34 69.9681 200.291 70.8947 199.343L70.9325 199.304C71.1484 199.083 71.357 198.867 71.5575 198.658C83.2033 202.102 91.6469 201.488 103.227 198.405Z" fill="#F2E11F"/>
<path d="M69.9321 197.289C68.3829 199.426 65.2172 202.775 61.9211 206.262V206.262C57.649 210.781 53.1577 215.533 51.6827 218.177C50.6393 220.053 49.7997 222.443 50.5673 224.556C51.3349 226.676 53.3139 227.96 55.3288 228.793C64.1802 232.451 74.2549 230.469 82.7524 227.006C83.7614 230.071 84.7362 231.196 85.787 231.878C85.9569 231.988 86.1287 232.087 86.303 232.18L91.4405 243.13C83.5348 242.905 80.6116 244.285 75.5327 246.681C73.8869 247.458 72.0147 248.341 69.6732 249.312C69.3896 249.448 69.1015 249.596 68.8095 249.747V249.747V249.747C67.8975 250.216 66.9481 250.705 65.9852 250.913C62.7469 252.115 59.6046 254.011 56.96 256.207C50.1535 261.867 48.3785 268.956 47.6649 277.301L43.4851 280.51C43.4667 279.164 43.4515 277.818 43.439 276.472C43.7317 275.559 44.0077 274.613 44.2651 273.63C47.1828 262.484 52.7989 238.048 48.2527 227.445C53.5001 206.607 59.4046 204.127 63.5201 202.4C66.29 201.237 68.2499 200.414 68.653 194.563L69.9321 197.289Z" fill="#F2F2F2"/>
</svg>
