<svg width="176" height="307" viewBox="0 0 176 307" fill="none" xmlns="http://www.w3.org/2000/svg">
<path d="M23.2797 0.297949C27.3115 -0.180283 39.8782 0.0630436 44.3225 0.0563079L129.744 0.0735682C135.509 0.0760941 148.282 -0.319626 153.345 0.699142C175.352 5.13078 173.685 23.6867 173.656 40.3431L173.609 65.6839C173.609 67.7442 173.281 73.1997 174.312 74.6461C174.624 75.0292 175.103 75.8135 175.095 76.3166C174.965 87.1429 175.167 98.0033 175.087 108.827C175.078 109.833 173.555 111.408 173.559 115.105L173.622 260.062C173.593 271.188 175.175 288.616 168.277 297.903C163.564 304.251 156.544 305.701 149.09 306.58C127.665 307.453 106.264 306.682 84.9224 306.754L46.5404 306.733C25.8764 306.698 2.46836 310.221 1.6519 280.661C1.25629 266.325 1.53403 251.854 1.52141 237.501L1.5509 153.364C1.55931 143.268 1.60142 133.149 1.46253 123.047C1.40782 119.033 0.0568354 115.365 0.107338 112.484C0.187301 107.817 0.0989518 102.919 0.296754 98.2529C-0.0441392 96.7909 2.00121 95.3696 1.70661 94.3408C-0.0736094 88.1082 0.191522 81.9265 0.22519 75.4965C0.242024 72.0037 -0.00626221 69.8583 1.03325 66.5764C2.72509 61.2443 0.115786 54.6783 0.19154 49.1538C0.204166 48.3101 0.124213 45.7072 0.254679 44.7575C1.47516 43.3253 1.43308 43.4967 1.51725 41.2714C1.90023 30.9351 -0.187232 19.2626 6.23924 10.2545C10.5488 4.21094 16.1672 1.55752 23.2797 0.297949Z" fill="#1C1C1C"/>
<path d="M27.8551 10.4087C31.3524 10.2853 42.9932 9.46105 44.521 11.3066C47.871 15.3606 45.0975 22.3619 56.0734 22.2693C78.0758 22.0837 101.042 23.1357 123.048 21.9338C127.901 21.6686 128.637 13.9895 130.279 11.15C132.156 9.67406 135.628 10.2588 137.938 10.1931C147.807 9.91192 161.973 10.2672 163.009 23.403C163.766 32.9773 163.392 43.9682 163.362 53.9092L163.257 109.09C163.257 164.949 163.434 220.847 163.375 276.709C163.366 283.952 163.379 288.198 158.11 293.356C150.282 298.505 139.912 296.981 130.721 296.936L96.1768 296.894L50.6739 296.924C42.6566 296.95 34.6687 297.13 26.6009 296.839C19.6736 296.589 13.365 291.883 12.5528 284.707C12.1151 280.827 12.2665 276.366 12.2539 272.43L12.2203 251.066L12.4265 42.2389C12.3928 27.4339 8.9881 12.6761 27.8551 10.4087Z" fill="#F2F2F2"/>
<path d="M44.0665 60.1361C50.0006 59.7471 88.8666 60.0527 90.8952 61.7017C93.0499 68.1178 93.0752 136.491 90.912 138.697C87.1411 140.509 70.0038 140.412 65.0798 140.41C60.5262 140.421 20.6164 140.407 18.7773 138.998C17.7041 138.176 17.3422 135.218 17.1528 133.953C16.1048 126.998 15.078 65.8589 18.0071 61.8983C21.0036 60.2439 39.0878 60.2931 44.0665 60.1361Z" fill="#F2F2F2"/>
<path d="M71.7041 66.3471C73.0424 66.3336 80.9924 66.0937 81.5942 66.9499C82.1455 67.7309 81.7246 68.3514 82.6421 69.0995C83.5848 68.3 84.4476 67.6391 85.5629 67.0788L86.3625 67.4126C87.0232 68.9327 87.179 72.9118 86.7834 74.5309C86.5771 75.3847 86.1058 75.4988 85.424 75.924C84.5192 75.2925 83.6101 74.6686 82.6926 74.0518C82.5621 74.2674 82.4317 74.4817 82.297 74.6943C79.8855 78.486 71.2959 77.719 70.7908 72.9476C70.652 71.6384 70.8413 67.3789 71.7041 66.3471Z" fill="#1C1C1C"/>
<path d="M72.0147 67.5078L81.08 67.6059C81.1347 70.2467 81.0715 72.7928 80.8106 75.4226C77.9488 75.6146 74.9818 75.4614 72.1073 75.4584L72.0147 67.5078Z" fill="#C7F654"/>
<path d="M84.7501 68.2411L85.293 68.7319C85.7938 70.3131 85.9832 72.2867 85.3477 73.8536L84.6786 73.8649C84.2409 73.6776 83.7611 73.4936 83.3613 73.233C82.507 72.6727 82.4943 72.309 82.3512 71.3719C82.7721 70.0576 83.799 69.1866 84.7501 68.2411Z" fill="#D8EE8E"/>
<path d="M28.3303 248.315C48.6366 247.828 69.0776 248.448 89.4007 248.37L116.819 248.302C122.173 248.303 127.724 248.04 133.048 248.603C135.274 248.839 137.37 249.733 138.729 251.589C139.802 253.054 139.992 254.768 139.668 256.504C139.142 259.305 137.606 260.734 135.35 262.306L130.8 262.798L57.6555 262.869C47.0963 262.838 34.5253 263.628 24.1933 262.413C22.371 262.199 20.8433 261.906 19.4503 260.625C18.0362 259.324 17.2618 257.456 17.2071 255.546C17.1566 253.672 17.9772 252.04 19.2524 250.718C21.6934 248.186 25.0855 248.413 28.3303 248.315Z" fill="#282524"/>
<path d="M23.3306 249.497C41.6588 248.73 60.2859 249.357 78.6352 249.355C85.8361 249.354 131.099 248.553 135.076 250.032C136.49 250.557 137.538 251.803 138.127 253.156C138.834 254.779 138.759 256.847 138.026 258.439C137.113 260.426 135.691 260.98 133.763 261.62C120.51 261.633 27.4928 263.204 21.7439 260.901C20.2751 260.301 19.122 259.111 18.5749 257.622C18.0067 256.041 18.1835 254.386 18.9031 252.896C19.8837 250.869 21.3273 250.232 23.3306 249.497Z" fill="#FCFDFA"/>
<path d="M38.0815 253.905C38.8643 253.882 39.6135 254.152 40.4089 254.166C41.5284 254.185 42.2312 254.303 43.2581 254.758L42.9845 254.719C43.2118 254.927 43.4307 255.116 43.5948 255.382C44.2682 256.472 44.4155 256.811 44.0746 257.973C42.6647 257.708 41.461 257.545 40.0301 257.68C39.5503 257.724 39.1548 257.36 38.7465 257.119L39.1547 257.305C38.7086 256.126 38.2625 255.18 38.0815 253.905Z" fill="#D7D7D5"/>
<path d="M31.323 253.7C31.6133 253.783 31.7059 253.798 32.0132 253.947C34.1174 254.964 32.9937 255.772 33.5787 257.452C33.1032 257.643 32.6192 257.866 32.1015 257.828C31.2767 257.768 31.2388 257.553 30.7464 256.947C30.4812 255.611 30.7927 254.885 31.323 253.7Z" fill="#D7D7D5"/>
<path d="M54.5962 254.362C55.1559 254.292 55.3873 254.532 55.8671 254.789C55.9808 255.087 56.086 255.386 56.1575 255.696C56.4648 257.004 56.1407 258.054 55.4589 259.163C54.5625 259.545 54.4615 259.536 53.5103 259.326L53.9817 258.519C54.251 258.407 54.1122 258.481 54.4363 258.234L54.7056 258.027L55.0296 258.042C54.2342 257.796 54.007 257.772 53.4304 257.137C54.4236 257.113 54.5751 257.227 55.3368 256.534L55.2906 255.463L54.3184 254.807L54.5962 254.362Z" fill="#B0ACA8"/>
<path d="M24.6521 252.947C25.3086 253.165 25.6369 253.659 26.062 254.171C26.4281 255.291 26.3439 256.037 26.1167 257.18L25.376 257.147C24.509 255.955 24.69 254.369 24.6521 252.947Z" fill="#B0ACA8"/>
<path d="M35.0509 253.748L36.1914 254.093L36.4313 254.927L36.0526 254.686C36.4398 255.732 36.768 256.124 36.3766 257.242L35.657 257.531L35.3034 257.219L35.6822 257.194C34.9836 256.027 34.8279 255.079 35.0509 253.748Z" fill="#B0ACA8"/>
<path d="M46.0778 254.755L46.8816 254.487L46.7007 254.893C47.0037 255.726 47.0752 256.652 47.2015 257.527L46.2546 258.716C45.9768 258.313 45.8169 257.937 45.6148 257.492C45.9263 257.183 46.0273 257.052 46.2167 256.641L45.7285 255.486L46.0778 254.755Z" fill="#B0ACA8"/>
<path d="M28.4568 253.021L28.8272 253.351C29.2859 254.502 28.9492 255.726 28.7725 256.92L27.6951 256.533C27.2742 255.322 28.0149 254.204 28.4568 253.021Z" fill="#B0ACA8"/>
<path d="M48.7457 255.147C49.1581 254.838 49.0318 254.852 49.6253 254.846L49.4064 257.469L49.1539 257.495L48.6615 256.99L48.7457 255.147Z" fill="#B0ACA8"/>
<path d="M98.6557 61.2894C101.454 60.4694 150.922 60.8967 155.829 61.4006C158.249 62.9085 157.849 66.5887 157.971 69.2009C157.815 70.764 157.626 73.4785 157.281 74.9165L157.192 78.8097C144.058 78.9608 130.918 78.9108 117.784 78.6594C111.105 78.5841 105.04 78.787 98.2937 78.5104C98.3358 75.3964 97.6961 63.8401 98.8577 61.8093L98.6557 61.2894Z" fill="#D7D7D5"/>
<path d="M98.6557 61.2894C101.454 60.4694 150.922 60.8967 155.829 61.4006C158.249 62.9085 157.849 66.5887 157.971 69.2009C157.815 70.764 157.626 73.4785 157.281 74.9165C157.108 71.8573 157.891 64.8917 156.796 62.8875C154.006 61.5104 136.015 62.0148 131.966 62.0026C127.522 62.2341 117.173 62.1356 112.825 61.6986C109.147 61.6835 102.288 61.457 98.8577 61.8093L98.6557 61.2894Z" fill="#4C4B48"/>
<path d="M112.825 61.6986C117.43 61.5163 127.416 61.3884 131.966 62.0026C127.522 62.2341 117.173 62.1356 112.825 61.6986Z" fill="#B0ACA8"/>
<path d="M130.725 66.0136C131.112 66.2687 131.427 66.5444 131.709 66.9195C132.703 68.2523 133.894 71.0708 133.54 72.6996C132.4 72.3152 132.076 71.5625 131.36 70.6288C130.005 71.0207 129.256 72.1371 127.981 72.7707L127.825 72.2542C128.726 70.1392 129.592 68.0174 130.725 66.0136Z" fill="#1C1C1C"/>
<path d="M121.062 66.0876L121.684 66.6265C121.815 67.3199 121.895 68.0785 122.286 68.6809C122.606 69.1751 123.061 69.1242 123.612 69.245C124.706 68.8118 125.089 68.0772 125.695 67.1291L125.952 66.7216L126.28 66.8092C126.482 69.0606 126.566 71.1036 126.289 73.363L125.539 72.6132C125.451 71.999 125.413 71.1836 125.102 70.6426C124.773 70.0693 124.268 70.0882 123.683 69.9421C122.387 70.4136 121.907 71.5545 121.238 72.6798L121.55 72.1502C120.493 70.6102 120.998 67.945 121.062 66.0876Z" fill="#1C1C1C"/>
<path d="M116.428 65.6914C117.767 66.0071 117.923 66.0825 119.038 66.8874L119.034 67.566C118.146 67.5197 117.409 67.4305 116.525 67.321C114.707 68.3495 114.615 69.8397 115.764 71.4588C117.422 72.2313 116.689 72.0755 118.705 71.8373L119.185 71.5081L119.236 72.0579C117.645 73.5999 116.1 73.8037 114.476 71.9934C113.306 69.3021 114.286 67.3665 116.428 65.6914Z" fill="#1C1C1C"/>
<path d="M133.99 66.4627C135.594 66.2897 137.399 65.9259 138.973 66.3318C139.159 67.561 138.098 67.9479 137.85 68.997C137.673 69.7345 137.879 71.0446 137.892 71.8411L137.656 73.094L137.122 73.2497C136.208 71.6163 136.945 69.7 136.372 67.8784C135.472 67.5695 134.845 67.2996 134.155 66.629C134.1 66.5747 134.045 66.5183 133.99 66.4627Z" fill="#1C1C1C"/>
<path d="M20.2247 33.1746C28.3641 33.0458 36.4992 32.9957 44.6386 33.0239C49.5457 33.0159 54.3393 32.9721 59.2591 33.1687C63.6781 32.9431 63.4634 37.2076 63.3919 40.6213C63.3035 44.5789 64.6755 49.1259 60.7573 51.5297C47.9507 51.2237 34.618 51.9839 21.824 51.163C21.218 51.1243 19.0631 50.8242 18.8274 50.1948C17.4344 46.4624 17.7964 39.9305 18.1583 35.9708C18.2888 34.5891 19.3998 33.721 20.2247 33.1746Z" fill="#C7F654"/>
<path d="M51.3046 37.896C53.1059 37.8025 54.9408 37.6042 56.6832 38.0408L56.923 38.5687L56.1907 38.9552L56.237 41.7437L56.0266 42.4569L55.1933 42.5192C55.9046 43.7585 55.8372 44.177 55.8457 45.5835C56.4264 45.4618 56.2286 45.5077 56.8683 45.6756L56.7337 46.3572C54.9997 47.1221 53.4426 46.9104 51.5445 46.8498C51.4098 43.8667 51.3299 40.8815 51.3046 37.896Z" fill="#1C1C1C"/>
<path d="M56.2375 41.7452C54.129 41.4325 54.0617 41.736 52.8076 40.4659L52.8496 39.7085C54.3016 38.6847 54.0996 39.0122 56.1912 38.9567L56.2375 41.7452Z" fill="#CEF06E"/>
<path d="M55.8458 45.5847C55.1388 45.5249 54.3812 45.4213 53.67 45.3363C52.6726 44.3546 52.8746 44.8319 52.7483 43.5757C53.7836 42.493 53.4638 42.8121 55.1935 42.5204C55.9047 43.7597 55.8374 44.1782 55.8458 45.5847Z" fill="#CEF06E"/>
<path d="M41.9074 37.684L42.989 38.0734C44.079 39.1948 45.3963 43.2085 46.0697 44.8928C46.8399 42.1813 47.1639 41.1903 48.3844 38.5954C48.9483 38.1874 48.9147 38.1411 49.5923 38.0506L49.2387 38.5293L49.5586 38.9385L49.3608 39.4411C48.6411 41.4589 47.5974 45.363 45.7835 46.298L45.0554 45.9431C43.8939 44.1784 42.6397 39.9055 41.9074 37.684Z" fill="#1C1C1C"/>
<path d="M23.836 39.9533C24.6483 39.4283 25.6794 39.3867 26.5337 39.8443C27.3839 40.3023 27.9183 41.1872 27.9309 42.1546C27.9394 43.1216 27.4217 44.0179 26.58 44.4936C25.3343 45.1995 23.7477 44.7845 23.0069 43.5565C22.262 42.3285 22.6324 40.7325 23.836 39.9533Z" fill="#1C1C1C"/>
<path d="M32.1983 37.4636C34.4036 39.4725 32.2951 41.6267 33.2799 44.8867C35.1317 46.6123 36.0113 44.0928 37.7284 46.7411C36.1838 46.9285 33.6545 46.8695 32.0258 46.8805C31.8953 44.4527 31.5376 39.67 32.1983 37.4636Z" fill="#1C1C1C"/>
<path d="M39.2637 37.7839C39.7309 38.1211 39.794 38.2676 40.1812 38.724C40.6526 41.6612 40.56 44.2969 40.0339 47.224C38.119 45.2058 38.9144 40.3578 39.2637 37.7839Z" fill="#1C1C1C"/>
<path d="M111.167 186.787C112.758 182.249 111.71 178.329 113.369 174.241C113.827 173.112 121.373 173.066 122.678 173.087C128.448 173.182 134.315 172.781 140.055 173.325C140.055 173.325 141.107 174.184 141.208 174.267C141.978 175.508 141.713 177.027 141.633 178.513L141.541 181.628C141.722 182.37 141.726 182.63 142.079 183.307C143.834 183.579 143.312 183.283 144.508 184.241C144.954 185.387 145.03 186.15 144.579 187.355C144.268 188.206 143.628 188.897 142.807 189.275C140.093 190.488 138.813 188.13 137.193 186.559L135.695 187.251C132.231 187.878 113.651 188.345 111.167 186.787Z" fill="#D7D7D5"/>
<path d="M142.079 183.307C143.834 183.579 143.312 183.283 144.508 184.241C144.954 185.387 145.03 186.15 144.579 187.355C144.268 188.206 143.628 188.897 142.807 189.275C140.093 190.488 138.813 188.13 137.193 186.559C138.085 182.299 139.714 185.166 142.079 183.307Z" fill="#1C1C1C"/>
<path d="M138.838 184.259C139.343 184.391 139.15 184.304 139.55 184.527C140.917 185.285 141.889 184.999 143.413 184.957C144.011 185.8 143.8 186.476 143.754 187.471C143.203 187.85 142.601 188.181 142.024 188.527C140.757 188.505 140.564 188.482 139.516 187.78C138.729 186.458 138.704 185.741 138.838 184.259Z" fill="#FFA0E4"/>
<path d="M111.167 186.787C112.758 182.249 111.71 178.329 113.369 174.241C113.827 173.112 121.373 173.066 122.678 173.087C128.448 173.182 134.315 172.781 140.055 173.325C140.055 173.325 141.107 174.184 141.208 174.267C141.978 175.508 141.713 177.027 141.633 178.513C141.318 177.55 141.019 176.294 140.749 175.292C140.333 174.585 140.282 174.197 139.289 174.124C131.373 173.538 121.348 173.887 113.512 174.121C113.503 178.511 113.937 182.548 111.891 186.478L111.167 186.787Z" fill="#4C4B48"/>
<path d="M111.891 186.477C116.18 186.868 133.586 186.288 135.695 187.25C132.231 187.877 113.651 188.344 111.167 186.786L111.891 186.477Z" fill="#B0ACA8"/>
<path d="M140.749 175.292C141.019 176.294 141.318 177.55 141.633 178.513L141.541 181.628C140.602 180.068 140.77 177.165 140.749 175.292Z" fill="#7F7A75"/>
<path d="M116.087 181.395C119.496 180.833 130.459 180.408 133.208 181.833C129.513 182.376 119.202 182.717 116.087 181.395Z" fill="#1C1C1C"/>
<path d="M112.039 113.207C111.668 110.722 111.348 108.194 112.224 105.806C115.426 102.732 139.739 104.803 145.206 104.172C151.33 103.464 156.216 107.293 152.407 113.477C150.736 114.28 149.103 114.486 147.26 114.219C146.448 114.489 144.183 114.758 143.375 114.675C137.997 114.125 115.49 116.055 112.039 113.207Z" fill="#D7D7D5"/>
<path d="M112.039 113.207C111.668 110.722 111.348 108.194 112.224 105.806C115.426 102.732 139.739 104.803 145.206 104.172C151.33 103.464 156.216 107.293 152.407 113.477C153.165 104.845 152.02 104.909 143.775 105.072C139.819 105.047 116.192 104.735 113.684 105.246C112.072 107.305 112.623 109.898 112.783 112.64L112.039 113.207Z" fill="#625F5F"/>
<path d="M112.783 112.641C117.4 115.27 140.917 112.187 147.26 114.22C146.447 114.49 144.183 114.759 143.375 114.676C137.997 114.126 115.489 116.056 112.038 113.208L112.783 112.641Z" fill="#7F7A75"/>
<path d="M113.684 105.248C116.192 104.737 139.819 105.049 143.775 105.074C136.692 105.948 121.263 105.338 113.684 105.248Z" fill="#B0ACA8"/>
<path d="M130.944 110.188L119.404 109.592L119.038 109.002L118.974 109.546L117.893 109.322L118.562 109.021L118.676 109.456L119.126 109.509L119.408 108.912C122.543 108.715 140.964 107.204 142.584 108.249C139.184 108.944 136.617 108.787 133.153 108.734L133.481 109.503L131.668 109.73L130.944 110.188Z" fill="#282524"/>
<path d="M131.668 109.731C130.493 109.453 130.131 109.362 129.046 108.849C130.397 108.41 131.705 108.635 133.153 108.735L133.481 109.504L131.668 109.731Z" fill="#D7D7D5"/>
<path d="M133.481 109.504L134.201 110.26C133.107 110.697 132.152 110.385 130.944 110.19L131.668 109.731L133.481 109.504Z" fill="#7F7A75"/>
<path d="M113.865 86.3708C116.672 85.1588 133.132 85.7507 136.81 86.4436C138.826 86.8229 139.02 93.964 137.606 95.4517C137.437 95.6151 136.886 96.1181 136.692 96.1627C132.867 97.051 114.673 97.3549 111.946 96.494C111.256 94.1921 113.305 93.026 112.481 89.5155C112.182 88.2323 113.099 87.2254 113.865 86.3708Z" fill="#E0E0DE"/>
<path d="M113.865 86.3708L114.088 86.8337C113.04 88.494 113.625 93.0747 113.015 95.9382C116.668 95.9369 135.628 96.4101 137.357 95.0461L137.606 95.4517C137.437 95.6151 136.886 96.1181 136.692 96.1627C132.867 97.051 114.673 97.3549 111.946 96.494C111.256 94.1921 113.305 93.026 112.481 89.5155C112.182 88.2323 113.099 87.2254 113.865 86.3708Z" fill="#625F5F"/>
<path d="M113.865 86.3708C116.672 85.1588 133.132 85.7507 136.81 86.4436C138.826 86.8229 139.02 93.964 137.606 95.4517L137.357 95.0461C137.441 92.5552 137.833 89.5029 136.533 87.4182C134.016 86.0967 117.935 86.7444 114.088 86.8337L113.865 86.3708Z" fill="#7F7A75"/>
<path d="M116.02 89.1932C119.008 88.6885 132.235 88.3584 134.398 89.6382C131.427 90.1404 118.292 90.6536 116.02 89.1932Z" fill="#282524"/>
<path d="M116.314 92.1495C118.683 91.689 124.719 91.2709 126.739 92.5785C124.041 92.885 118.688 93.444 116.314 92.1495Z" fill="#282524"/>
<path d="M157.97 69.2002C159.119 110.435 159.174 151.694 158.139 192.933C158.025 202.176 158.012 211.421 158.101 220.665C158.134 224.527 158.825 240.033 156.88 242.4C151.178 244.597 120.948 242.911 112.892 243.365C110.868 243.673 110.363 243.493 108.351 242.987L99.564 242.673C108.718 241.86 150.77 243.97 156.434 241.763C157.701 239.678 157.192 192.822 157.209 185.722C157.457 150.084 157.453 114.446 157.192 78.809L157.28 74.9158C157.625 73.4778 157.815 70.7633 157.97 69.2002Z" fill="#282524"/>
<path d="M108.352 242.988C109.745 242.898 111.323 242.654 112.607 243.08L112.893 243.366C110.869 243.675 110.364 243.494 108.352 242.988Z" fill="#D7D7D5"/>
<path d="M119.433 156.837C124.269 156.73 136.347 155.482 140.206 157.339C143.232 158.797 142.311 161.913 143.241 164.653C143.401 165.115 143.434 165.377 143.317 165.872L142.163 166.005C137.437 166.003 121.31 167.502 118.217 164.349C117.266 163.379 117.219 162.453 117.316 161.169C117.472 159.116 117.855 158.168 119.433 156.837Z" fill="#282524"/>
<path d="M119.298 157.678C123.137 157.633 137.353 156.826 140.021 157.939C140.72 158.23 141.288 158.803 141.498 159.547C141.881 160.891 142.193 164.086 141.578 165.213C136.806 165.158 123.073 166.487 119.555 164.25C118.781 163.758 118.431 163.172 118.238 162.303C117.926 160.902 118.516 158.842 119.298 157.678Z" fill="#D7D7D5"/>
<path d="M121.537 160.776C125.376 160.19 135.825 159.875 139.074 161.191C135.939 161.64 123.751 162.31 121.537 160.776Z" fill="#4C4B48"/>
<path d="M123.477 121.448C127.539 121.434 135.261 120.313 138.872 121.464C143.544 122.956 141.503 126.371 143.119 129.34C143.455 129.958 143.594 130.17 143.544 130.877L142.433 131.497C137.812 131.469 125.923 133.181 122.657 130.078C121.47 128.95 121.411 127.639 121.432 126.108C121.466 123.843 121.866 123.001 123.477 121.448Z" fill="#282524"/>
<path d="M123.486 122.318C127.741 122.254 137.425 121.2 140.813 123.101C141.894 124.582 141.469 126.743 141.877 128.503C142.004 129.049 142.117 129.597 142.235 130.146L141.608 130.627C135.392 130.604 129.167 130.654 122.956 130.37C122.825 129.676 122.728 128.979 122.64 128.278C122.35 126.007 121.971 124.277 123.486 122.318Z" fill="#D7D7D5"/>
<path d="M113.781 139.052C117.198 138.911 120.636 138.743 124.062 138.751C126.183 138.755 128.99 138.8 130.527 140.515C131.503 141.601 131.654 142.845 131.566 144.236C131.41 146.766 131.259 148.189 129.331 149.902C125.228 150.045 114.909 150.83 111.479 149.183L111.378 148.414C112.935 145.235 111.681 142.003 113.781 139.052Z" fill="#4C4B48"/>
<path d="M113.537 140.039C120.94 139.742 134.992 136.605 129.748 148.992C127.429 149.474 115.397 149.24 112.729 148.904C113.495 146.954 113.373 142.433 113.537 140.039Z" fill="#D7D7D5"/>
<path d="M112.729 148.905C117.594 148.613 124.807 148.762 129.748 148.993C127.429 149.475 115.397 149.241 112.729 148.905Z" fill="#7F7A75"/>
<path d="M116.378 143.926C119.126 143.426 124.648 143.133 127.143 144.358C124.42 144.716 118.768 145.26 116.378 143.926Z" fill="#282524"/>
<path d="M98.6557 61.2894L98.8577 61.8093C97.6961 63.8401 98.3358 75.3964 98.2937 78.5104C98.4537 113.296 98.4325 148.083 98.2305 182.868C98.6471 197.493 98.1126 212.307 98.281 226.948C98.3104 229.75 98.2221 232.571 98.0874 235.37C97.3762 232.513 97.111 220.891 97.4982 218.042C96.1388 185.931 96.9511 147.941 97.2036 115.5L97.3467 82.1728C97.3551 76.3275 97.313 70.3193 97.4982 64.4689C97.5529 62.6844 97.7045 62.5928 98.6557 61.2894Z" fill="#1C1C1C"/>
<path d="M98.2302 182.867C98.6468 197.492 98.1123 212.305 98.2807 226.947C98.3101 229.749 98.2218 232.57 98.0871 235.369C97.3759 232.512 97.1107 220.89 97.4979 218.041C98.0155 215.384 97.8304 209.156 97.8682 206.343C97.9735 198.619 97.6747 190.561 98.2302 182.867Z" fill="#625F5F"/>
<path d="M60.7448 291.599C66.6831 291.368 112.514 291.095 114.244 291.744C114.837 291.967 114.787 292.151 115.035 292.732L114.606 293.732C108.348 294.369 101.711 293.932 95.4023 293.938C85.0113 293.95 74.5909 294.12 64.2042 293.922C62.7817 293.896 61.5949 293.981 60.5722 292.918L60.7448 291.599Z" fill="#1C1C1C"/>
<path d="M148.414 224.911C149.078 224.947 149.735 225.02 150.366 225.246C151.25 225.56 151.923 226.176 152.294 227.045C152.967 228.626 152.454 230.513 151.751 231.994C150.796 234.016 148.485 236.68 146.2 237.21C144.941 237.501 144.154 236.624 143.195 235.954C142.105 235.016 140.964 233.994 140.203 232.763C139.222 231.185 138.275 228.893 138.772 227.035C138.915 226.497 139.42 226.011 139.912 225.772C142.223 224.651 143.532 225.957 145.619 226.768L148.414 224.911Z" fill="#1C1C1C"/>
<path d="M148.161 226.143C148.358 226.149 148.577 226.148 148.775 226.175C150.096 226.347 150.517 226.774 151.275 227.762C151.532 229.037 151.376 229.991 150.896 231.175C149.974 233.456 148.257 234.896 146.052 235.859C144.625 235.774 144.314 235.317 143.253 234.428C142.222 233.323 141.225 232.187 140.606 230.794C139.975 229.373 139.836 228.389 140.421 226.923C140.779 226.587 141.023 226.194 141.532 226.163C142.98 226.074 144.651 228.017 145.614 228.919C146.477 228.01 147.327 227.084 148.161 226.143Z" fill="#FFA0E4"/>
<path d="M138.11 208.931C138.699 208.918 139.39 208.871 139.962 208.997C140.812 209.188 141.54 209.728 141.969 210.485C142.668 211.704 142.458 213.309 142.033 214.592C141.38 216.583 139.592 219.035 137.593 219.851C136.351 220.359 135.686 219.808 134.571 219.302C132.387 217.929 130.366 215.675 129.845 213.071C129.617 211.915 129.878 211.418 130.451 210.474C133.174 208.773 133.439 210.35 135.892 210.54C136.604 210.594 137.563 209.422 138.11 208.931Z" fill="#1C1C1C"/>
<path d="M136.557 212.788C137.193 211.64 137.454 210.938 138.611 210.271C139.987 210.142 139.453 209.993 140.598 210.87C141.751 213.591 140.909 215.07 139.129 217.216C138.291 218.11 138.173 218.23 137.05 218.708C133.654 218.498 131.448 215.685 131.309 212.409C131.869 211.147 131.49 211.537 132.728 210.942C134.297 210.855 135.27 211.833 136.557 212.788Z" fill="#FFA0E4"/>
<path d="M20.8226 185.226C22.6112 184.444 24.6818 184.693 26.2306 185.877C27.7793 187.061 28.5663 188.993 28.2801 190.923C27.9939 192.852 26.6851 194.476 24.8628 195.162C22.1398 196.186 19.1012 194.854 18.007 192.161C16.9128 189.467 18.1628 186.391 20.8226 185.226Z" fill="#1C1C1C"/>
<path d="M21.3149 186.129C23.4823 185.229 25.9696 186.225 26.9165 188.372C27.8676 190.519 26.9291 193.03 24.8038 194.027C23.3855 194.693 21.7189 194.539 20.4479 193.625C19.1769 192.71 18.4993 191.179 18.6803 189.622C18.8613 188.066 19.8671 186.729 21.3149 186.129Z" fill="#D7D7D5"/>
<path d="M21.1635 210.43C22.9858 209.779 25.0186 210.165 26.4789 211.439C27.9393 212.712 28.5958 214.676 28.2002 216.572C27.8046 218.469 26.4116 220.003 24.564 220.583C21.7821 221.458 18.8109 219.943 17.885 217.176C16.9591 214.41 18.4153 211.41 21.1635 210.43Z" fill="#1C1C1C"/>
<path d="M21.4532 211.375C23.688 210.559 26.1626 211.713 26.9791 213.952C27.7955 216.19 26.6423 218.666 24.4034 219.481C22.1644 220.296 19.6898 219.142 18.8776 216.904C18.0611 214.665 19.2143 212.19 21.4532 211.375Z" fill="#D7D7D5"/>
<path d="M21.4621 161.552C24.2355 160.764 27.1353 162.317 28.0191 165.064C28.9029 167.811 27.4509 170.764 24.7364 171.742C22.8972 172.406 20.8392 172.012 19.3747 170.715C17.9101 169.418 17.2704 167.424 17.7039 165.515C18.1374 163.607 19.5767 162.087 21.4621 161.552Z" fill="#1C1C1C"/>
<path d="M22.0727 162.488C24.3747 162.021 26.6263 163.477 27.1439 165.766C27.6616 168.056 26.256 170.34 23.9791 170.907C22.4599 171.286 20.8564 170.814 19.7874 169.672C18.7142 168.531 18.3481 166.899 18.8237 165.409C19.295 163.918 20.5407 162.8 22.0727 162.488Z" fill="#D7D7D5"/>
<path d="M21.584 227.709C23.4652 227.217 25.4643 227.785 26.8068 229.192C28.1494 230.598 28.6207 232.623 28.0441 234.48C27.4633 236.337 25.923 237.733 24.0208 238.126C21.18 238.714 18.3897 236.93 17.7289 234.105C17.0682 231.28 18.7769 228.444 21.584 227.709Z" fill="#1C1C1C"/>
<path d="M20.8223 229.144C22.1901 228.37 23.8693 228.393 25.2161 229.205C26.567 230.016 27.3708 231.491 27.3288 233.063C27.2867 234.636 26.3987 236.064 25.0098 236.8C22.9014 237.916 20.2837 237.131 19.1389 235.037C17.9942 232.944 18.7433 230.318 20.8223 229.144Z" fill="#D7D7D5"/>
<path d="M147.487 123.337C148.884 122.625 150.563 122.732 151.86 123.616C153.16 124.5 153.876 126.022 153.724 127.586C153.577 129.15 152.588 130.51 151.148 131.134C149.01 132.059 146.527 131.119 145.538 129.012C144.549 126.904 145.408 124.391 147.487 123.337Z" fill="#282524"/>
<path d="M148.994 123.795C150.854 123.584 152.538 124.912 152.769 126.771C153.001 128.63 151.692 130.329 149.836 130.581C148.615 130.746 147.403 130.243 146.658 129.264C145.909 128.285 145.749 126.981 146.233 125.848C146.717 124.717 147.77 123.932 148.994 123.795Z" fill="#E0E0DE"/>
<path d="M144.015 196.526C146.965 197.831 150.163 196.737 151.679 197.731C152.217 198.081 152.146 198.458 152.268 199.047C151.847 200.755 151.081 201.932 150.075 203.358C149.158 204.104 148.122 204.772 147.159 205.463C145.429 204.092 142.925 202.254 142.618 199.903C142.424 198.418 143.127 197.581 144.015 196.526Z" fill="#1C1C1C"/>
<path d="M149.339 197.417L150.61 198.352C150.955 199.534 151.006 200.375 150.349 201.525C149.827 202.435 148.661 203.345 147.622 203.553C146.646 203.748 146.023 203.076 145.248 202.563C144.848 201.987 144.407 201.394 144.087 200.769C143.75 200.102 143.443 199.424 143.704 198.717C145.109 198.186 146.04 199.375 147.428 199.286C147.9 199.256 148.973 197.816 149.339 197.417Z" fill="#FFA0E4"/>
<path d="M147.82 157.925C149.242 157.326 150.871 157.537 152.091 158.477C153.312 159.416 153.935 160.939 153.72 162.465C153.505 163.99 152.491 165.283 151.056 165.851C148.876 166.715 146.406 165.662 145.522 163.489C144.634 161.317 145.661 158.835 147.82 157.925Z" fill="#282524"/>
<path d="M147.786 158.366C148.888 158.383 149.999 158.358 150.967 158.957C151.725 159.423 152.293 160.117 152.499 160.992C152.878 162.643 152.082 163.989 151.22 165.303C149.852 165.279 148.366 165.343 147.293 164.348C146.468 163.587 146.06 162.79 146.073 161.659C146.085 160.257 146.902 159.331 147.786 158.366Z" fill="#E0E0DE"/>
<path d="M104.114 141.487C105.519 140.844 107.161 141.019 108.398 141.944C109.635 142.868 110.267 144.395 110.048 145.925C109.829 147.454 108.794 148.741 107.346 149.281C105.216 150.074 102.843 149.041 101.972 146.943C101.105 144.845 102.047 142.434 104.114 141.487Z" fill="#282524"/>
<path d="M104.333 142.358C105.894 141.559 107.805 142.117 108.689 143.63C109.577 145.143 109.127 147.084 107.666 148.052C106.644 148.729 105.335 148.786 104.257 148.2C103.184 147.614 102.519 146.481 102.536 145.256C102.553 144.032 103.243 142.916 104.333 142.358Z" fill="#E0E0DE"/>
<path d="M104.644 88.7967C106.862 88.1139 109.214 89.3495 109.909 91.563C110.607 93.7769 109.387 96.1377 107.177 96.8484C104.947 97.5653 102.561 96.331 101.858 94.0977C101.155 91.8644 102.405 89.4855 104.644 88.7967Z" fill="#282524"/>
<path d="M104.935 89.7325C106.673 89.2219 108.504 90.2036 109.038 91.9364C109.573 93.6691 108.622 95.5113 106.896 96.0733C105.756 96.4442 104.51 96.1731 103.626 95.3635C102.742 94.5544 102.363 93.3323 102.637 92.1658C102.906 90.9993 103.786 90.0693 104.935 89.7325Z" fill="#D7D7D5"/>
<path d="M104.753 175.582C106.908 175.032 109.122 176.26 109.795 178.383C110.469 180.505 109.37 182.785 107.291 183.582C105.835 184.14 104.189 183.845 103.02 182.816C101.845 181.787 101.34 180.193 101.702 178.676C102.064 177.158 103.238 175.967 104.753 175.582Z" fill="#282524"/>
<path d="M104.017 176.959C105.511 175.973 107.523 176.376 108.52 177.864C109.522 179.351 109.135 181.367 107.658 182.379C106.159 183.405 104.114 183.013 103.104 181.506C102.09 180.001 102.502 177.958 104.017 176.959Z" fill="#E0E0DE"/>
<path d="M33.9659 145.32C34.7907 145.434 35.7124 145.544 36.4573 145.932C37.682 146.573 38.4143 147.787 38.7678 149.092C39.1129 150.334 38.9319 151.662 38.267 152.767L37.177 152.596C36.4195 152.774 35.5188 152.953 34.7402 152.892C33.6881 152.811 32.4508 152.29 31.7942 151.438C31.2134 150.68 31.0746 149.763 31.2134 148.835C31.4744 147.142 32.7075 146.296 33.9659 145.32Z" fill="#282524"/>
<path d="M34.4494 146.477C35.956 146.177 37.429 147.12 37.7909 148.614C38.1529 150.107 37.2691 151.62 35.7919 152.042C34.7818 152.33 33.696 152.042 32.9595 151.291C32.223 150.539 31.9579 149.445 32.2693 148.441C32.5807 147.436 33.4183 146.683 34.4494 146.477Z" fill="#FCFDFA"/>
<path d="M20.0649 145.175C22.3249 146.415 23.8905 145.512 26.0705 146.343C26.8659 146.646 26.8323 146.875 27.1774 147.613C27.1226 148.871 26.6218 149.655 25.9947 150.696C25.2666 151.415 24.6774 151.913 23.7347 152.319C22.8804 152.313 22.1145 152.264 21.3359 151.875C20.0691 151.245 19.3368 150.118 19.0085 148.767C18.6298 147.2 19.2989 146.419 20.0649 145.175Z" fill="#1C1C1C"/>
<path d="M20.2833 146.183C22.6359 147.6 24.2351 146.457 25.6997 147.374C26.0154 148.544 25.6155 149.336 25.2115 150.42C24.1804 151.181 23.9952 151.386 22.7369 151.454C21.8489 151.122 21.205 150.813 20.6999 149.975C19.8919 148.632 19.9256 147.626 20.2833 146.183Z" fill="#FFA0E4"/>
<path d="M47.0923 186.453C51.8438 186.275 59.6843 185.47 64.1917 186.567L64.0865 187.024C61.9991 188.283 53.1148 187.801 50.2235 187.859C47.0671 187.923 35.0053 188.747 32.8295 187.682L33.2714 187.164C37.6568 186.386 42.6228 186.631 47.0923 186.453Z" fill="#1C1C1C"/>
<path d="M73.808 42.6288C76.5183 42.5509 80.1377 43.4194 80.3692 46.6407C79.4896 47.51 79.7379 47.2338 78.1933 47.4086C75.8618 47.4666 72.6128 47.9344 70.9041 46.1549L70.9504 45.1239C71.9184 43.7393 72.3939 43.5271 73.808 42.6288Z" fill="#1C1C1C"/>
<path d="M72.9245 43.9185C74.8057 43.8583 78.2777 43.5661 78.9722 45.6441L78.4082 46.3951C76.5607 46.3846 74.0061 46.7992 72.4237 46.0933L72.1248 45.2804L72.9245 43.9185Z" fill="#FCFDFA"/>
<path d="M45.3242 162.851C47.862 162.846 59.5786 162.348 61.0264 163.465C60.9801 163.515 60.9422 163.572 60.8875 163.615C59.0989 165.112 51.3172 164.123 48.8215 164.037C43.5903 164.17 38.2665 164.476 33.0394 164.214L32.9637 163.84C35.8634 162.309 42.0205 162.946 45.3242 162.851Z" fill="#1C1C1C"/>
<path d="M32.6268 218.015C33.0309 217.962 33.4223 217.916 33.8305 217.895C37.0669 217.729 56.5315 216.904 58.4085 218.566C58.0045 218.738 57.6762 218.865 57.2427 218.939C54.9196 219.335 35.5055 219.402 33.7421 218.816C33.4265 218.712 32.913 218.222 32.6268 218.015Z" fill="#1C1C1C"/>
<path d="M48.5312 229.377C50.4587 229.311 52.483 229.125 54.4063 229.236C55.3112 229.287 55.4753 229.304 56.0687 229.975C54.7893 231.085 43.4515 230.812 41.0694 230.866L37.2522 230.947C35.7414 230.971 33.9443 231.24 32.787 230.116C35.7877 229.076 44.916 229.474 48.5312 229.377Z" fill="#1C1C1C"/>
<path d="M90.7603 39.069C95.4276 39.2117 94.67 43.0897 92.9656 46.0273C88.4835 46.1384 88.9169 41.9451 90.7603 39.069Z" fill="#1C1C1C"/>
<path d="M90.9031 39.8226C92.6202 40.5656 92.0858 40.1021 93.1043 41.493C93.4031 42.9496 93.0411 43.696 92.5992 45.089C91.5765 44.8432 91.5555 44.8099 90.7937 44.0433C90.1877 42.697 90.6296 41.2909 90.9031 39.8226Z" fill="#FCFDFA"/>
<path d="M149.873 41.6095C150.791 40.5082 151.91 38.8567 153.211 38.6172C152.844 40.0434 151.376 41.2921 150.294 42.4093C151.969 43.8769 153.286 44.8851 153.947 46.9858C152.356 46.5425 150.732 44.3892 149.541 43.0833L143.948 48.122C145.568 45.3128 146.355 44.5012 148.56 42.225C147.146 40.8669 145.724 39.6477 144.764 37.9339C146.666 38.3503 148.228 40.1773 149.873 41.6095Z" fill="#1C1C1C"/>
<path d="M50.8675 192.358L51.806 192.462L52.2774 193.096C50.5982 194.356 37.8083 193.675 35.0559 193.67C34.2311 193.668 33.7723 193.469 33.0442 193.091L33.2126 192.658C38.9699 192.101 45.0681 192.411 50.8675 192.358Z" fill="#1C1C1C"/>
<path d="M41.2041 174.683C44.7646 174.515 48.1777 174.347 51.7129 174.94L51.8939 175.302C49.6339 175.889 47.2603 175.764 44.9455 175.767C41.5114 175.925 36.983 176.385 33.7087 175.21C36.1539 174.67 38.7085 174.738 41.2041 174.683Z" fill="#1C1C1C"/>
<path d="M45.2906 150.429C45.0086 149.237 44.5204 149.026 43.5945 148.283C44.4447 147.392 46.8604 145.723 48.1482 145.644C48.6069 146.601 48.6069 146.169 48.4891 147.004L45.4168 148.083L45.5641 148.348C47.4285 148.327 48.3712 147.96 49.617 148.869C49.2971 150.054 49.537 149.621 48.6364 150.454L48.2745 150.996C46.793 151.783 46.3595 152.215 44.8276 152.032L44.5793 151.22L45.2906 150.429Z" fill="#625F5F"/>
<path d="M45.2906 150.429C45.7577 150.446 48.5396 150.422 48.6364 150.454L48.2745 150.996C46.793 151.783 46.3595 152.215 44.8276 152.032L44.5793 151.22L45.2906 150.429Z" fill="#1C1C1C"/>
<path d="M74.9194 37.0553C76.3083 36.6861 77.735 37.5133 78.1011 38.9017C78.4673 40.2905 77.6382 41.7143 76.2536 42.0805C74.8647 42.4468 73.4422 41.6196 73.0761 40.2329C72.7099 38.8462 73.5348 37.4237 74.9194 37.0553Z" fill="#1C1C1C"/>
<path d="M74.776 38.3285C75.4452 37.9092 76.3289 38.0995 76.7708 38.7584C77.2085 39.4176 77.0444 40.3063 76.3963 40.7647C75.9628 41.0737 75.3946 41.1217 74.9149 40.8898C74.4351 40.6582 74.1195 40.1834 74.09 39.6504C74.0605 39.1179 74.3215 38.6114 74.776 38.3285Z" fill="#FCFDFA"/>
<path d="M147.412 17.8065C149.448 17.7324 151.906 17.4942 153.817 18.0507C154.936 18.9933 154.591 18.8409 154.793 20.7496C152.963 20.9563 150.513 21.4413 148.859 20.8186C147.576 19.5772 147.933 19.7721 147.412 17.8065Z" fill="#1C1C1C"/>
<path d="M32.5898 212.518C36.6132 212.006 45.9015 211.66 49.8491 212.561L50.0553 213.297C44.9251 213.637 38.5533 214.109 33.5199 213.403C33.0275 213.333 32.876 212.907 32.5898 212.518Z" fill="#1C1C1C"/>
<path d="M32.7157 169.151C36.5876 168.645 42.8836 168.124 46.6503 169.082L47.1216 170.049C42.7658 170.208 37.4966 170.876 33.2292 169.992L32.7157 169.151Z" fill="#1C1C1C"/>
<path d="M149.406 251.082C150.723 252.035 152.323 253.487 152.701 255.076L152.327 255.292C151.691 254.653 151.077 254.091 150.34 253.575C149.217 255.327 150.597 258.183 149.414 260.344C148.838 258.21 149.339 255.9 148.556 253.829L146.494 255.181L145.976 254.846C146.359 253.503 148.367 252.05 149.406 251.082Z" fill="#1C1C1C"/>
<path d="M51.4601 168.757C54.3135 168.571 63.9679 167.849 66.0175 169.084L66.0764 169.78C62.6296 169.846 54.1872 170.673 51.4685 169.442L51.4601 168.757Z" fill="#1C1C1C"/>
<path d="M104.21 39.1078L104.88 39.6812C105.035 40.7332 104.972 41.1732 105.675 41.8821C107.093 41.4312 106.344 40.2567 108.192 39.3238L108.427 39.7233L106.874 41.9907C106.929 43.2717 107.48 43.4393 108.528 44.6189L108.747 45.457C107.704 45.6326 107.266 44.1617 105.97 43.4725C104.732 42.8175 105.448 44.6799 104.206 45.1691C103.861 43.1328 104.08 41.1656 104.21 39.1078Z" fill="#1C1C1C"/>
<path d="M84.3168 39.2412C85.9244 39.141 87.0775 38.941 88.2349 40.1956C88.2938 42.1459 86.5767 42.4027 86.038 44.7105C86.9008 44.9854 87.33 44.9572 87.8603 45.5277C87.2543 46.2665 87.6247 46.0741 86.7535 46.2046C85.453 45.9705 85.2721 45.9891 84.1568 45.3412C84.0642 43.1752 87.4521 44.061 86.7493 40.385C84.9859 39.6386 85.8318 41.0219 84.1694 40.6494L84.3168 39.2412Z" fill="#1C1C1C"/>
<path d="M98.4276 39.1413C100.321 39.0735 100.982 38.8634 102.224 40.3482C102.253 42.3298 100.944 42.5925 100.355 44.6258L102.19 45.0232L102.35 45.5288L99.7407 46.3817L98.5707 45.578L98.537 44.7243C100.052 43.1014 101.58 42.3411 100.957 40.0636C100.077 40.1504 99.3493 40.5928 98.5539 40.989L98.1499 40.5718L98.4276 39.1413Z" fill="#1C1C1C"/>
<path d="M32.4547 235.285C35.5733 234.829 43.8094 234.069 46.5155 235.711C43.5148 236.335 35.0556 236.976 32.4547 235.285Z" fill="#1C1C1C"/>
<path d="M25.582 17.2089C27.4548 17.4286 26.8278 17.1327 28.1703 18.1632C28.7848 19.728 28.7721 19.1184 28.4565 20.5678C27.337 21.5757 27.8799 21.3669 26.4364 21.3959L25.7714 21.0124C26.5037 20.7493 26.7646 20.6112 27.438 20.2626C26.7352 18.7336 26.4742 20.4394 25.2453 18.5775L25.582 17.2089Z" fill="#1C1C1C"/>
<path d="M136.044 18.5205L136.684 18.2902C136.882 19.4778 136.865 19.6175 136.414 20.734L135.783 21.1507L134.495 21.2741L133.7 20.6498C133.376 19.4348 133.376 19.9375 134.062 18.5744L136.044 18.5205Z" fill="#D7D7D5"/>
<path d="M136.044 18.5205L136.684 18.2902C136.882 19.4778 136.865 19.6175 136.414 20.734L135.783 21.1507C135.577 19.9884 135.741 19.7017 136.044 18.5205Z" fill="#1C1C1C"/>
<path d="M134.495 21.2732L133.7 20.6489C133.376 19.434 133.376 19.9366 134.062 18.5735C134.218 19.4378 134.428 20.409 134.495 21.2732Z" fill="#1C1C1C"/>
<path d="M35.5859 17.2922L36.6969 17.7481C37.2777 19.0712 36.8611 20.4032 36.6254 21.9036C36.1372 20.7118 35.367 18.5387 35.5859 17.2922Z" fill="#282524"/>
<path d="M11.2223 14.0389L11.8956 15.9274C8.70975 24.6623 9.81664 46.5435 9.82926 56.5535L9.71141 228.569L9.76191 264.159C9.78296 270.768 9.6735 277.791 10.0944 284.374C10.4437 289.862 13.1246 293.398 16.1842 297.68C13.6843 295.734 9.98498 292.805 9.50941 289.584C6.79489 271.184 7.8049 245.606 7.78386 227.23L7.80492 56.7834C7.80492 46.349 7.66603 35.7429 7.95643 25.3203C8.06585 21.369 9.44205 17.549 11.2223 14.0389Z" fill="#D7D7D5"/>
<path d="M160.858 9.75983C166.232 11.6033 167.962 20.9549 168.021 25.9511C168.231 42.7338 168.147 59.5309 168.147 76.317L168.084 239.97C168.071 254.273 168.231 269.088 167.074 283.382C166.674 288.334 164.847 292.236 161.535 295.908L160.942 296.078C160.702 295.052 164.797 290.541 165.226 286.738C166.531 275.15 166.148 261.331 166.144 249.732L166.123 175.507L166.19 46.0225C166.207 38.1199 166.362 30.0017 165.925 22.113C165.651 17.2213 163.4 13.7541 160.858 9.75983Z" fill="#D7D7D5"/>
<path d="M77.1873 12.1227C80.8319 11.8886 94.253 11.5809 97.4179 12.0776C98.0197 13.1385 97.7924 12.9566 97.6325 14.4608C94.4297 14.3955 78.3952 15.2859 76.9474 13.4572L77.1873 12.1227Z" fill="#4C4B48"/>
<path d="M105.044 11.3231C106.087 10.7691 107.384 11.1648 107.939 12.208C108.495 13.2516 108.103 14.5486 107.064 15.1085C106.016 15.6709 104.715 15.2769 104.156 14.2295C103.596 13.1821 103.992 11.8796 105.044 11.3231Z" fill="#4C4B48"/>
<path d="M15.8184 8.99327C14.5559 11.3297 13.2466 13.6415 11.8956 15.9274L11.2223 14.0389C12.9436 11.6772 13.7352 10.9327 15.8184 8.99327Z" fill="#E0E0DE"/>
<path d="M55.5406 63.5151C53.9187 63.9427 52.0899 63.8863 50.6074 64.5888C50.8684 64.4651 48.9654 66.2577 49.0614 66.1184C48.6181 66.7616 48.9237 68.4788 49.0323 69.2584C48.373 70.2813 48.9408 71.7968 50.0366 72.2438C50.06 73.032 50.0349 73.8208 49.9606 74.6057C49.4299 74.6667 48.7986 75.5957 48.2399 75.9094C47.5034 76.3228 43.646 77.6968 43.3535 78.1649C42.5028 79.5282 41.6401 82.7518 41.0505 84.3927C40.3255 83.1498 40.1096 82.3001 39.0766 81.3063C39.0772 80.6762 39.0572 79.5352 38.6773 79.079C38.4225 78.7727 37.5621 76.7426 37.4456 76.7089C36.0081 76.2952 36.9131 78.3863 37.1199 78.8362C36.5349 78.5165 36.1813 78.324 35.6328 77.9268C35.0352 77.4936 34.3679 76.3079 33.7189 76.3362C33.5452 76.4361 33.4036 76.5957 33.2944 76.5729C33.0973 76.5318 33.0373 76.5021 32.8682 76.5859C32.7208 76.7291 32.7203 76.7179 32.6728 76.9154C32.7568 77.2977 32.7911 77.1999 32.6631 77.5733C32.4735 78.1293 33.3133 78.9987 33.4115 79.4464C33.6686 80.6199 33.9286 80.9253 34.893 81.6602C35.0306 81.7462 35.1643 81.8267 35.2963 81.9224C35.6665 82.153 36.1127 82.4475 36.492 82.6464C36.74 82.7637 36.6554 82.705 36.8148 82.9744C36.8451 83.2774 36.6166 83.8101 36.5446 84.1771C37.0319 85.646 38.7041 89.3205 39.5377 90.5295C39.608 92.6572 39.5783 94.8765 39.5777 97.0111L39.5765 118.191C39.5765 120.468 39.6057 122.827 39.5451 125.097L27.2311 125.094C26.677 125.094 22.9418 125.034 22.611 125.148C23.4994 125.308 43.6014 125.241 43.7711 125.188L43.5506 130.047L44.1082 130.315C44.1053 130.713 43.5808 132.704 43.4214 133.211C42.2388 133.395 38.8081 133.827 38.1214 134.79C38.0334 134.914 37.9957 135.031 38.0226 135.186C38.0614 135.404 38.3139 135.564 38.4865 135.662C39.3989 136.179 40.7043 136.385 41.7292 136.571C47.7228 137.658 61.5513 137.854 67.2022 136.044C67.5906 135.919 68.4185 135.666 68.6281 135.285C68.6933 135.166 68.7035 135.04 68.6516 134.914C68.4527 134.437 67.6221 134.173 67.1764 134.033C65.9373 133.642 64.6564 133.446 63.3744 133.275C62.9453 132.681 61.8987 132.515 61.3337 132.161C60.6127 131.701 59.9265 131.17 59.2827 130.607C58.652 130.054 58.5491 129.677 57.7064 129.496C58.0218 129.373 58.2955 129.236 58.6 129.087C58.636 127.904 58.572 126.419 58.5491 125.223L58.5468 125.086C58.588 123.121 58.4657 121.123 58.5245 119.161C58.6902 113.602 58.7125 108.041 58.7685 102.484C58.7691 102.429 58.8822 102.406 58.929 102.387C59.181 102.566 58.9022 104.458 59.0033 104.856C59.0776 105.147 59.2672 105.434 59.2941 105.726C59.3409 106.233 58.9759 107.351 59.5849 107.597C60.1985 107.794 61.3754 107.978 61.9518 107.693C62.2923 107.359 62.1546 106.362 62.2918 106.138C62.9402 105.077 62.9225 104.377 63.071 103.147C63.2144 103.86 63.0699 104.316 63.5201 105.003C63.5749 105.086 63.5229 106.303 63.6326 106.509C63.7069 106.649 63.7252 106.682 63.8886 106.753C66.3258 107.535 74.5937 107.281 76.6955 106.448C76.7561 105.871 76.764 105.294 76.781 104.715C76.9415 104.537 77.0509 104.298 77.166 104.082C77.2891 104.654 77.4707 105.018 77.7093 105.544C77.9102 105.987 77.8419 107.111 78.3275 107.353C78.8823 107.631 79.8439 107.225 80.4262 107.107C80.4973 107.092 80.6811 106.987 80.6989 106.909C80.8388 106.437 80.7079 105.771 80.7177 105.264C80.7264 104.808 80.98 104.322 80.9526 103.97C80.8585 102.762 80.7484 101.524 80.6185 100.323C80.2599 97.2067 79.8317 94.0993 79.3343 91.003C79.0095 88.9188 78.7244 86.6501 78.1497 84.6296C77.7775 83.3207 76.6062 82.8606 75.4937 82.308C75.4591 81.4676 75.2948 81.6515 74.8869 80.9788C74.7752 80.7946 74.7657 80.3225 74.5458 80.1484C73.7363 79.5075 71.8701 79.3612 70.8961 79.3442C71.5071 78.8158 72.0083 78.655 72.62 78.1868C72.7841 78.0611 72.9368 77.5466 72.9223 77.322C72.8782 76.6372 72.3177 76.0801 71.8416 75.6532C71.7636 75.5808 71.5626 75.2017 71.4919 75.1706C71.0456 74.9742 71.0436 75.1789 70.6811 74.7582C70.2315 74.2363 69.4997 74.7678 69.1464 75.1751C68.5453 75.868 67.9134 76.6816 67.6021 77.5672C67.5609 77.6833 67.5764 78.1247 67.5804 78.2662C67.2267 78.626 66.9679 79.0786 66.7005 79.5083C66.2955 79.5444 65.4631 79.6658 65.1306 79.8788C64.6404 80.1929 64.605 80.5641 64.4919 81.0862C64.1908 81.372 64.0748 81.4791 63.8383 81.8157C63.3464 81.2914 62.8625 80.7587 62.3877 80.2178C61.9215 79.6801 60.8783 78.3438 60.3396 78.0335C58.7891 77.1411 56.7746 76.9336 55.4235 75.6564C55.9382 74.8786 56.8769 72.7707 57.0266 71.8405C57.1511 70.6623 57.1985 69.4909 57.2328 68.3034C57.2505 67.6976 57.8178 66.7534 57.4111 66.1727C57.1683 65.8262 57.3802 65.3137 57.2094 64.911C56.9569 64.3159 56.0885 63.7654 55.5406 63.5151Z" fill="#1C1C1C"/>
<path d="M49.9623 74.6032C49.4316 74.6642 48.8003 75.5932 48.2415 75.9069C47.5051 76.3203 43.6476 77.6943 43.3551 78.1624C42.5044 79.5257 41.6418 82.7493 41.0522 84.3902C40.3272 83.1473 40.1112 82.2976 39.0783 81.3038C39.0789 80.6737 39.0589 79.5327 38.679 79.0765C38.4242 78.7702 37.5638 76.74 37.4472 76.7064C36.0098 76.2927 36.9148 78.3838 37.1216 78.8337C36.5366 78.514 36.1829 78.3215 35.6345 77.9243C35.0369 77.4911 34.3696 76.3054 33.7206 76.3337C33.5469 76.4336 33.4052 76.5932 33.2961 76.5704C33.099 76.5293 33.039 76.4996 32.8699 76.5834C32.7225 76.7266 32.7219 76.7154 32.6745 76.9129C32.7585 77.2952 32.7928 77.1974 32.6648 77.5708C32.4751 78.1268 33.3149 78.9962 33.4132 79.4439C33.6703 80.6173 33.9302 80.9228 34.8946 81.6577C35.0323 81.7437 35.166 81.8242 35.298 81.9199C35.6682 82.1505 36.1144 82.445 36.4937 82.6439C36.7417 82.7612 36.6571 82.7025 36.8165 82.9719C36.8468 83.2749 36.6183 83.8076 36.5463 84.1746C37.0336 85.6434 38.7058 89.318 39.5393 90.527L39.7736 90.8074L40.093 91.1298L40.2792 90.9751C40.4357 91.0951 40.6014 91.2071 40.7762 91.2978C41.183 91.5087 41.6983 91.5307 42.1268 91.3785C43.911 90.7445 45.1302 86.3328 45.9957 84.6352L46.0254 84.5772C46.1031 84.6442 46.17 84.6701 46.1597 84.7459C46.062 85.4464 45.5147 86.4658 45.2547 87.1144C45.3193 87.3538 45.3644 87.573 45.4055 87.8178C45.5889 88.9025 45.9489 89.99 46.1151 91.0748C46.1334 91.8266 45.8534 93.245 45.7163 94.0456C46.9012 94.2628 48.1632 94.5702 49.3881 94.8001C49.3841 94.8827 49.3779 94.9651 49.3693 95.0472C49.1819 96.7661 48.9031 96.7637 47.3566 96.4334C46.6841 96.2897 46.0614 96.12 45.4044 95.9138C45.0856 97.7707 44.7571 99.626 44.42 101.48C45.6181 101.997 49.1036 103.26 50.2805 102.267C51.2032 101.488 51.466 98.8637 51.6168 97.645C51.8979 95.3763 52.2498 93.0191 52.3464 90.7273C52.3389 87.5606 51.5134 83.8235 50.9489 80.6971C50.7193 79.4251 49.7995 75.9489 49.8606 74.9071L49.8663 74.8116L49.8246 74.7342C49.9509 74.6816 49.9097 74.7284 49.9623 74.6032Z" fill="#B5FE28"/>
<path d="M49.9607 74.6032C49.43 74.6642 48.7987 75.5932 48.24 75.9069C47.5035 76.3203 43.6461 77.6943 43.3536 78.1624C42.5029 79.5257 41.6402 82.7493 41.0506 84.3902C40.3256 83.1473 40.1097 82.2976 39.0767 81.3038C39.0773 80.6737 39.0573 79.5327 38.6774 79.0765C38.4226 78.7702 37.5622 76.74 37.4456 76.7064C36.0082 76.2927 36.9132 78.3838 37.12 78.8337C36.535 78.514 36.1813 78.3215 35.6329 77.9243C35.0353 77.4911 34.368 76.3054 33.719 76.3337C33.5453 76.4336 33.4036 76.5932 33.2945 76.5704C33.0974 76.5293 33.0374 76.4996 32.8683 76.5834C32.7209 76.7266 32.7204 76.7154 32.6729 76.9129C32.7569 77.2952 32.7912 77.1974 32.6632 77.5708C32.4736 78.1268 33.3134 78.9962 33.4116 79.4439C33.6687 80.6173 33.9287 80.9228 34.893 81.6577C35.0307 81.7437 35.1644 81.8242 35.2964 81.9199C35.6666 82.1505 36.1128 82.445 36.4921 82.6439C36.7401 82.7612 36.6555 82.7025 36.8149 82.9719C36.8452 83.2749 36.6167 83.8076 36.5447 84.1746C37.032 85.6434 38.7042 89.318 39.5378 90.527L39.772 90.8074L40.0914 91.1298L40.2776 90.9751C39.0482 89.7341 37.6496 86.2553 36.9635 84.5522C38.4254 84.3647 39.1676 83.8751 39.6818 82.4587C40.4896 84.0423 41.4442 85.5429 42.3698 87.0554C42.5354 87.3267 42.6908 88.2904 42.8617 88.3979C43.3353 88.1684 42.368 86.4792 42.1864 86.1772C42.119 86.109 42.0373 85.9684 41.9813 85.8823C41.6602 85.4574 41.4842 85.1206 41.2294 84.6571C41.9836 82.8198 42.6223 79.8899 43.5364 78.2862C45.0475 79.2295 45.4228 80.4676 45.8187 82.1975C45.913 82.6098 45.9564 83.253 46.0736 83.6315L46.1838 83.6437C46.3141 83.4076 46.0284 81.8562 45.937 81.5359C45.5194 80.0727 45.0989 78.93 43.7895 78.134C45.2023 77.3974 46.9294 76.8587 48.4085 76.0878C48.1828 76.7019 47.9572 77.6097 47.7766 78.2605C48.216 78.5014 48.5439 78.613 49.0089 78.7777C48.5473 79.0835 48.2445 79.3127 47.84 79.6875C48.1743 80.6599 48.6884 81.7904 49.0975 82.747C48.7433 82.7217 47.5327 82.5289 47.3053 82.6499L47.2202 82.8845L47.0842 83.0479L47.1225 83.1519L49.3671 83.3865L49.5888 83.9406C49.2055 83.9005 47.2493 83.6546 47.0516 83.6864L47.1013 83.7933C47.4344 83.9944 49.2049 84.0852 49.6819 84.1148C50.1767 85.0806 50.5486 86.1855 50.9799 87.1826C51.1782 87.6417 51.9066 89.7564 52.198 89.8708C52.2014 88.9104 48.6216 81.0491 48.0937 79.7498C48.3674 79.5393 49.2403 79.0105 49.3363 78.7724C49.2037 78.5096 48.4039 78.2695 48.0691 78.1233C48.2302 77.508 48.4879 76.2258 48.8775 75.7501C49.1066 75.4716 49.5814 75.1677 49.8647 74.8116L49.823 74.7342C49.9493 74.6816 49.9082 74.7284 49.9607 74.6032Z" fill="#1C1C1C"/>
<path d="M49.0968 82.7478C48.7426 82.7225 47.532 82.5298 47.3047 82.6507L47.2195 82.8854C47.584 82.9167 49.0237 83.2048 49.1951 82.9579L49.0968 82.7478Z" fill="#B8FB35"/>
<path d="M46.1141 91.078C46.4049 90.1893 46.8579 85.0644 46.2843 84.5429C46.1832 84.5821 46.1329 84.5821 46.0244 84.5804C46.1021 84.6474 46.1689 84.6733 46.1586 84.7491C46.0609 85.4496 45.5136 86.4691 45.2537 87.1177C45.3182 87.357 45.3634 87.5762 45.4045 87.821C45.5879 88.9058 45.9478 89.9933 46.1141 91.078Z" fill="#B5FE28"/>
<path d="M43.5808 87.1456C43.2518 86.5962 42.6793 85.8662 41.9817 85.885C42.0377 85.9712 42.1194 86.1118 42.1868 86.18L42.2337 86.1493C42.6787 86.2988 43.0672 86.8466 43.5808 87.1456Z" fill="#B5FE28"/>
<path fill-rule="evenodd" clip-rule="evenodd" d="M44.8331 88.0408C44.9165 87.8448 44.9961 87.6576 45.0732 87.4843C45.0976 87.6008 45.1371 87.7823 45.1856 88.0048C45.4095 89.0321 45.8237 90.9326 45.8153 91.3331C45.8004 92.0851 45.3605 94.6515 45.1863 95.525C45.0311 96.3028 44.8943 97.1752 44.7559 98.0578C44.5645 99.2782 44.3699 100.518 44.1196 101.556C44.5353 101.862 44.9035 102.003 45.3668 102.182C45.4015 102.195 45.4367 102.208 45.4725 102.222L44.9486 111.408C44.9239 111.837 44.9002 112.271 44.8764 112.706C44.8193 113.751 44.7617 114.805 44.6887 115.833C44.6548 116.309 44.523 116.866 44.389 117.434C44.2632 117.967 44.1354 118.508 44.0842 118.999C43.8809 120.954 43.8275 122.971 43.7754 124.94L43.7723 125.057L43.7711 125.184L39.5452 125.093C39.5909 123.377 39.5855 121.611 39.5801 119.867C39.5783 119.304 39.5766 118.743 39.5766 118.187L39.5777 97.0073C39.5779 96.5281 39.5795 96.0446 39.5811 95.5589C39.5866 93.8809 39.5922 92.1758 39.5377 90.5257L39.772 90.8062L40.0914 91.1285L40.4947 91.4551L40.7186 91.5904C42.9745 92.4097 44.0628 89.8515 44.8331 88.0408Z" fill="#F2F2F2"/>
<path d="M39.5452 125.093L27.2312 125.09C27.1346 125.09 26.9413 125.089 26.6863 125.086C25.4782 125.075 22.8842 125.05 22.611 125.145C23.4994 125.305 43.6015 125.237 43.7711 125.184L39.5452 125.093Z" fill="#F2F2F2"/>
<path d="M53.805 132.708C53.4223 132.756 52.6978 132.738 52.2905 132.741C51.273 132.749 50.2555 132.771 49.2386 132.806C48.8421 132.816 48.0565 132.807 47.7126 132.853L47.7303 132.926C48.0028 134.043 49.1694 135.857 47.2733 136.194C46.0758 136.407 44.707 136.421 43.5575 135.964C42.4869 135.539 43.1484 133.995 43.4232 133.209C42.2406 133.393 38.8099 133.826 38.1232 134.789C38.0352 134.912 37.9975 135.03 38.0244 135.184C38.0632 135.403 38.3157 135.562 38.4883 135.66C39.4006 136.178 40.7061 136.384 41.731 136.569C47.7246 137.656 61.5531 137.853 67.2039 136.042C67.5924 135.918 68.4202 135.664 68.6299 135.283C68.695 135.165 68.7053 135.038 68.6533 134.913C68.4545 134.436 67.6238 134.171 67.1782 134.031C65.9391 133.641 64.6582 133.444 63.3762 133.274C63.503 133.569 63.5801 133.756 63.6155 134.082C63.6881 134.738 63.0659 134.782 62.5889 134.899C62.0564 135.03 61.496 135.094 60.9441 135.122C60.3659 135.152 59.7872 135.13 59.213 135.055C58.3749 134.948 57.59 134.672 56.7707 134.528C56.0171 134.418 55.2727 134.402 54.522 134.262C53.5148 134.074 53.7188 133.532 53.805 132.708Z" fill="#D9DBD5"/>
<path d="M53.5984 125.057C53.5601 124.762 53.527 124.446 53.5047 124.146C53.3579 122.139 53.0093 120.115 53.1082 118.1C53.143 117.398 53.1973 116.654 53.1362 115.961C52.8945 113.216 52.4443 110.491 52.1495 107.752C51.22 112.112 50.0203 116.446 49.3993 120.864C49.209 122.217 49.0136 123.578 48.8051 124.928C48.788 125.036 48.7691 125.146 48.7571 125.254C50.3716 125.202 51.9873 125.2 53.6018 125.248L53.5984 125.057Z" fill="white"/>
<path d="M53.6023 125.251C51.9878 125.202 50.3721 125.204 48.7576 125.256C48.5228 126.808 48.3171 128.772 48.0526 130.26L47.3042 130.465C47.2151 130.936 47.6013 132.24 47.711 132.855C48.0549 132.809 48.8404 132.818 49.2369 132.808C50.2539 132.773 51.2714 132.751 52.2889 132.743C52.6962 132.74 53.4206 132.758 53.8034 132.71C53.8285 132.081 53.9799 130.912 54.2553 130.367C54.4701 129.941 54.7312 129.829 54.0725 129.49C53.8542 129.221 53.652 125.848 53.6023 125.251Z" fill="#F2F2F2"/>
<path d="M67.7382 89.9948C67.5307 89.7705 67.487 89.7911 67.425 89.5315C67.7069 88.9894 67.9738 88.6922 67.8818 88.112L67.8244 88.0492C67.6299 88.2902 67.6273 88.5149 67.6058 88.8125C67.2273 89.227 66.8814 89.6024 67.5138 90.1544C67.7154 90.3305 68.2864 90.6356 68.5161 90.3943L68.5318 90.3033C68.3275 90.2026 67.9621 90.0785 67.7382 89.9948Z" fill="#CFEF5D"/>
<path d="M73.6333 91.4742C74.5828 91.3287 74.6853 89.7194 74.59 88.9853L74.4817 89.0143L74.3466 89.5471L74.2781 89.5865C74.2715 89.7042 73.8069 90.9675 73.7253 91.1329C73.4343 91.2659 73.341 91.2935 73.1537 91.5459L73.2046 91.5997C73.3971 91.5683 73.4513 91.5468 73.6333 91.4742Z" fill="#CFEF5D"/>
<path d="M73.2377 92.3149C72.9244 92.4749 72.7097 92.701 72.5388 93.0034L72.5251 93.2157C72.7319 92.9819 73.3003 92.4018 73.6077 92.7302C73.6716 93.3176 72.8181 94.1081 72.6791 94.6094C72.7796 95.4548 73.3662 95.363 73.9157 95.8403C74.1663 96.4779 73.0458 96.9819 72.6047 97.2727C72.5349 97.8063 72.653 98.3852 72.2223 98.8025C71.975 98.8658 71.9456 98.8017 71.6578 98.7047C71.4601 98.76 71.5325 98.7125 71.3975 98.9268C71.5195 99.2475 72.2223 99.0798 72.4637 98.9739C73.1215 98.6846 72.6249 97.9446 72.8546 97.4945C73.1032 97.0077 74.0018 97.0461 74.1715 96.4475C74.608 95.3952 73.1724 95.3056 72.9949 94.8113C72.6732 93.9149 75.0687 93.0148 73.2377 92.3149Z" fill="#CFEF5D"/>
<path d="M75.2957 104.241C75.3857 104.18 75.466 104.112 75.5482 104.041L75.5508 103.939C75.2774 103.915 75.0536 104.081 74.7834 104.041C74.7123 104.03 74.6137 104.101 74.5478 104.133C74.6281 104.24 74.649 104.309 74.7919 104.323C74.9485 104.339 75.1423 104.276 75.2957 104.241Z" fill="#CFEF5D"/>
<path d="M73.3591 103.591C73.2716 103.368 73.2025 103.123 73.1646 102.887C73.0556 102.204 73.5098 101.809 73.8681 101.309C74.0482 101.057 74.2733 100.641 74.2028 100.322C74.1656 100.15 74.0416 100.019 73.9 99.9232C73.686 99.7787 73.3265 99.7004 73.0752 99.7712C72.8814 99.8258 72.7776 100.165 72.6987 100.34L72.5871 100.379C72.3176 100.342 72.1466 100.186 71.9189 100.055C71.7538 99.9602 71.6937 99.9382 71.5097 99.9848L71.4732 100.092C71.4804 100.1 71.4869 100.108 71.4947 100.116C71.7022 100.342 72.1336 100.68 72.454 100.678C72.7476 100.676 72.8449 100.435 73.0191 100.249C73.1287 100.132 73.2416 100.055 73.4067 100.058C73.5659 100.062 73.7141 100.115 73.8302 100.224C74.2342 100.603 73.1033 101.762 72.9747 102.135C72.8553 102.482 72.8938 102.881 72.9069 103.243L73.1215 103.626L73.3591 103.591Z" fill="#CFEF5D"/>
<path d="M75.8703 96.7956C75.6106 96.6707 75.2426 96.5434 74.9829 96.694C74.0269 97.2486 75.8886 98.5579 76.0106 98.9897C76.0935 99.0361 76.1562 99.0283 76.2514 99.0312L76.2815 98.9173C76.1444 98.6061 76.0589 98.5217 75.8338 98.2614C75.8984 97.8625 75.811 97.5754 75.9349 97.1138L76.0106 97.1133L76.04 97.0217L75.8703 96.7956Z" fill="#CFEF5D"/>
<path d="M79.7454 100.75C79.7878 100.449 80.2178 100.061 80.2178 99.7567C80.2198 98.8426 79.6566 98.9529 80.0521 98.0295L79.9327 98.0059C79.7356 98.111 79.6495 98.3016 79.5327 98.4958C79.6638 98.7686 79.8126 99.041 79.9059 99.3284C80.0704 99.8361 79.4309 100.426 79.4596 100.817C79.6377 101.084 79.7624 101.077 80.0965 101.152C80.18 101.071 80.2133 100.99 80.2674 100.887C80.1454 100.755 79.9686 100.779 79.7454 100.75Z" fill="#CFEF5D"/>
<path d="M77.3601 97.9449L77.2237 98.0678C77.2185 98.2525 77.2668 98.2396 77.4273 98.4109C77.4612 98.6517 77.5376 98.9681 77.4997 99.1906L77.4384 99.3037C77.5121 99.4898 77.6185 99.5355 77.7855 99.6513C78.9386 99.1249 77.8593 98.3623 77.3601 97.9449Z" fill="#CFEF5D"/>
<path d="M74.5489 101.193C74.1535 101.535 73.6947 101.921 73.6445 102.481C73.6079 102.883 73.7965 103.178 74.0432 103.472L74.3244 103.438C74.1385 103.055 73.7802 102.695 73.929 102.231C74.0445 101.871 74.3695 101.532 74.5489 101.193Z" fill="#CFEF5D"/>
<path d="M77.3486 96.7818L77.3172 96.9353L77.3701 97.0103C77.7995 97.4626 78.0566 97.6587 78.6968 97.736L78.6961 97.6595C78.3411 97.3564 77.7701 97.0488 77.3486 96.7818Z" fill="#CFEF5D"/>
<path d="M73.9899 104.621C73.8385 104.662 73.6858 104.695 73.5494 104.774C73.2721 105.103 72.9393 105.395 72.9719 105.863C72.9771 105.941 72.9895 106.017 73.0052 106.093L73.244 106.022C73.2257 105.96 73.2074 105.898 73.197 105.834C73.1494 105.563 73.3047 105.39 73.4541 105.181C73.5814 105.117 73.7321 105.052 73.8417 104.961C73.9847 104.842 73.9775 104.796 73.9899 104.621Z" fill="#CFEF5D"/>
<path d="M74.0702 104.056L73.8444 103.99C73.614 104.14 73.1716 104.362 73.0933 104.632C73.2219 104.681 73.387 104.589 73.5103 104.534C73.7387 104.434 73.9168 104.248 74.0702 104.056Z" fill="#CFEF5D"/>
<path d="M75.3995 91.5372C75.1293 91.5394 74.8396 91.5315 74.6275 91.7295C74.5349 91.8159 74.4872 91.9279 74.4898 92.0548C74.499 92.5486 74.9623 92.9264 75.2951 93.2284L75.2612 93.2625C74.8879 93.6372 74.2751 94.2372 74.3065 94.8038C74.3182 95.0162 74.4318 95.184 74.5903 95.3169C74.7482 95.4484 74.8735 95.4678 75.0693 95.4506C75.252 95.3394 75.3871 95.2165 75.5189 95.0464C75.7225 94.7824 76.0429 94.2775 76.0012 93.934L75.9131 93.9295L75.6925 94.1583C75.5783 94.4663 75.4478 94.9034 75.1398 95.0766C74.991 95.16 74.9238 95.1421 74.7757 95.0935C74.7111 95.0274 74.6556 94.9624 74.6262 94.8729C74.3861 94.148 75.2292 93.9449 75.4595 93.4098C75.6677 92.925 74.9577 92.6399 74.8148 92.2451C74.7528 92.072 74.7685 92.0147 74.8455 91.8622C75.3708 91.6541 75.5424 92.2831 76.0194 92.3461L76.1173 92.2575C76.024 91.9532 75.6494 91.7132 75.3995 91.5372Z" fill="#CFEF5D"/>
<path d="M77.5634 89.2732L77.3807 89.3909C77.2045 89.7968 77.4779 90.4367 77.4061 90.8808C77.3187 91.4237 76.8403 91.901 76.8279 92.4705C76.8103 93.2428 77.7944 93.4725 78.2192 93.9733C78.537 94.3484 77.3663 95.0816 77.3265 95.5123C77.4648 95.5333 77.5484 95.5311 77.6795 95.481C77.8988 95.0838 78.2701 94.8515 78.5233 94.4933C79.0584 93.7349 77.3402 93.2086 77.1373 92.6754C76.9682 92.2325 77.5843 91.2422 77.6619 90.7321C77.733 90.2657 77.6658 89.7298 77.5634 89.2732Z" fill="#CFEF5D"/>
<path d="M76.3065 89.0298C75.3212 89.0964 75.6455 89.8426 76.2152 90.2549C76.2191 89.8172 76.0305 89.9145 75.9339 89.4972C75.9731 89.2836 76.1414 89.1726 76.3065 89.0298Z" fill="#CFEF5D"/>
<path d="M79.0388 98.2966C79.0284 98.3056 79.0173 98.3134 79.0075 98.3236C78.8431 98.5062 79.0017 98.9989 78.9697 99.2514C78.8907 99.883 77.9948 100.423 78.1246 101.063C78.2101 101.483 78.6206 101.735 78.9495 101.952C79.0114 101.882 79.0082 101.855 79.0225 101.761C78.922 101.445 78.6075 101.379 78.4365 101.13C78.0815 100.612 79.1276 99.8344 79.2307 99.2602C79.2816 98.979 79.2039 98.5287 79.0388 98.2966Z" fill="#CFEF5D"/>
<path d="M76.6254 101.925C76.5745 101.962 76.5523 102.005 76.5184 102.057C76.6489 102.344 77.2003 102.426 77.3941 102.704C77.4646 102.806 77.4352 102.865 77.4163 102.976C77.094 103.134 76.7409 102.74 76.4062 102.808L76.3977 102.927C76.521 103.039 76.645 103.145 76.7925 103.224C76.9641 103.317 77.214 103.356 77.3974 103.285C77.5122 103.241 77.6121 103.149 77.6591 103.035C77.723 102.879 77.6924 102.71 77.6232 102.562C77.4437 102.179 76.9948 102.051 76.6254 101.925Z" fill="#CFEF5D"/>
<path d="M72.1305 103.471C72.3341 102.946 72.5397 102.336 72.3478 101.773C72.3048 101.647 72.2069 101.48 72.0737 101.433C71.8825 101.364 71.6098 101.393 71.4375 101.493C71.4506 101.502 71.4636 101.512 71.4773 101.521C71.6587 101.649 72.1064 101.765 72.1494 101.987C72.2349 102.423 71.8701 103.111 72.0365 103.455L72.1305 103.471Z" fill="#CFEF5D"/>
<path d="M76.6257 87.3875C76.351 87.3661 76.0743 87.3164 75.8296 87.4723C75.5235 87.6676 75.4543 88.1219 75.3702 88.4504C75.192 88.3704 75.0034 88.2562 74.8044 88.2674L74.7476 88.402C74.8931 88.5706 75.0041 88.6365 75.2103 88.7147C75.716 88.6277 75.5724 88.0546 75.8961 87.7627C76.0664 87.6095 76.3542 87.6807 76.5617 87.5569C76.6068 87.5298 76.6126 87.4387 76.6257 87.3875Z" fill="#CFEF5D"/>
<path d="M79.618 96.7347C79.6708 96.6308 79.6532 96.6712 79.6552 96.5431C78.7474 95.7639 79.6271 95.4857 79.1586 94.573C78.9863 95.4213 78.6372 96.3001 79.618 96.7347Z" fill="#CFEF5D"/>
<path d="M75.2706 85.8924C75.1871 85.9579 75.1505 86.0502 75.1042 86.1429C75.1231 86.3275 75.1453 86.4412 75.2967 86.5685C75.5453 86.7777 75.8181 86.8284 76.1326 86.8097L76.3134 86.6128L76.2938 86.5107C76.1091 86.5043 75.8651 86.5052 75.6895 86.4416C75.4318 86.348 75.3672 86.1261 75.2706 85.8924Z" fill="#CFEF5D"/>
<path d="M73.0622 89.7621C73.2814 89.0708 73.1039 88.8516 72.7072 88.2666C72.5532 88.0391 72.5538 88.0013 72.3006 87.9055C71.9 88.2902 73.4106 89.0461 72.7463 89.5798C72.4337 89.831 72.1564 89.6009 71.8725 89.8573C71.7916 89.9336 71.727 89.9313 71.6396 89.9121L71.5639 90.3294C72.1159 90.0082 72.7196 90.0522 73.0622 89.7621Z" fill="#CFEF5D"/>
<path d="M72.8839 84.0634C72.8108 84.1069 72.788 84.1612 72.7476 84.2331C72.8572 84.6065 73.2683 84.9951 73.5169 85.3001C73.5469 85.5746 73.5528 85.8554 73.5691 86.1312C73.2931 86.1847 72.7978 86.2384 72.6046 86.4606C72.4989 86.5818 72.4813 86.7052 72.4983 86.8592C72.8311 86.6592 73.6109 86.4933 73.7949 86.3341C73.853 86.1994 73.8673 86.0835 73.8504 85.939C73.776 85.3154 73.3825 84.448 72.8839 84.0634Z" fill="#CFEF5D"/>
<path d="M72.4505 90.6803C72.3167 90.6901 72.1973 90.7223 72.0759 90.7785C71.8586 90.8793 71.7242 91.0574 71.6452 91.279C71.5252 91.6141 71.565 92.1064 71.7137 92.4255C71.9715 92.1965 71.6557 91.8161 71.7712 91.5167C71.7777 91.4999 71.7862 91.4839 71.7934 91.4674C71.9402 91.1304 72.3193 91.0224 72.4505 90.6803Z" fill="#CFEF5D"/>
<path d="M67.0305 84.8313C67.0292 84.6225 67.1962 83.703 67.1825 83.6757L67.0031 83.7797C66.8608 83.9954 66.8471 84.3446 66.8145 84.612L66.1371 85.2239C66.1078 85.4324 66.0099 86.0167 66.006 86.1976C66.1893 86.1144 66.22 86.1141 66.3257 85.9542C66.3088 85.2975 66.5306 85.1949 67.0305 84.8313Z" fill="#CFEF5D"/>
<path d="M67.8194 85.7916L67.7959 85.6261C67.4605 85.7424 66.9201 85.8882 66.7851 86.2418C66.601 86.7219 66.9378 87.1359 67.4363 87.1203L67.5446 87.0586C67.4474 86.7051 66.9515 86.6681 67.0206 86.3852C67.3286 86.0762 67.5296 86.032 67.8194 85.7916Z" fill="#CFEF5D"/>
<path d="M68.9649 90.8377C68.5642 91.2159 68.4813 91.5586 68.3097 92.0711L68.4937 92.4129C68.5512 92.0305 68.7632 91.3447 68.974 91.0162L68.9649 90.8377Z" fill="#CFEF5D"/>
<path d="M59.9751 102.546C59.6918 102.561 59.4197 102.765 59.209 102.942C59.4015 102.961 59.5659 102.976 59.7578 102.933C59.9105 102.8 59.9202 102.734 59.9751 102.546Z" fill="#CFEF5D"/>
<path fill-rule="evenodd" clip-rule="evenodd" d="M67.198 101.083C67.3005 100.59 67.3175 99.8415 66.8104 99.5526L66.6786 99.5971C66.6538 99.7475 66.7449 99.9024 66.8436 100.07C66.9369 100.229 67.037 100.399 67.0525 100.588C67.0721 100.824 66.958 101.033 66.858 101.216C66.7751 101.368 66.702 101.503 66.723 101.619L66.9618 101.608C66.9437 101.655 66.9258 101.701 66.9085 101.746C66.6383 102.443 66.4741 102.866 66.8346 103.638L67.1582 103.689L66.9831 103.498C66.9913 103.478 66.9996 103.458 67.0082 103.437C67.0695 103.287 67.1434 103.107 67.2585 103.007C67.3788 102.903 67.4515 102.912 67.5899 102.929L67.6076 102.931C67.7548 103.015 67.7987 103.138 67.8498 103.281C67.8571 103.301 67.8646 103.322 67.8725 103.344C67.8999 103.418 67.9176 103.451 67.988 103.495L68.0575 103.432C67.9974 103.084 68.0014 102.78 68.0986 102.439C67.7566 102.427 67.4214 102.511 67.1708 102.761C67.0984 102.833 67.0397 102.921 66.9836 103.006L66.8909 102.973C66.8067 102.814 66.8256 102.683 66.8739 102.517C67.0077 102.056 67.4756 101.605 67.8913 101.388C68.0622 101.299 68.1699 101.289 68.3507 101.342L68.3567 101.348C68.3913 101.385 68.4208 101.416 68.4381 101.466C68.5562 101.816 68.4562 102.131 68.2872 102.438C68.3123 102.434 68.3356 102.432 68.3577 102.429C68.4785 102.413 68.5594 102.403 68.6637 102.317C68.851 101.837 68.7799 100.927 68.0947 100.978C68.0471 100.985 67.9903 100.993 67.9282 101.002C67.6883 101.037 67.3691 101.084 67.198 101.083Z" fill="#CFEF5D"/>
<path d="M67.3228 92.4495C67.2837 92.3048 67.2034 92.2693 67.0774 92.1706C66.9385 92.7868 66.881 93.2355 66.3942 93.6734C65.0591 93.2193 64.4516 93.5621 65.2581 95.0257C65.5302 95.5199 66.7218 96.6613 67.3248 96.2046C67.6002 96.0105 67.5904 95.3706 67.6073 95.0476L67.6158 94.8938C67.8827 95.1663 68.3832 95.7775 68.746 95.7904C68.6925 95.448 67.9825 94.7799 67.6093 94.7762C67.1257 95.0609 67.4422 95.5098 67.1453 95.9589C66.6813 96.1717 66.2787 95.6956 65.959 95.3828C65.6575 95.0871 64.7302 94.0065 65.3691 93.723C66.0386 93.7348 66.3753 94.1359 66.7642 93.7424C67.0631 93.4397 67.2008 92.856 67.3228 92.4495Z" fill="#CFEF5D"/>
<path d="M67.7769 92.3206C67.6881 92.475 67.5531 92.6871 67.5028 92.8509C67.6418 93.3966 67.6777 93.6463 68.0738 94.0618L68.1077 93.9593C67.878 93.3429 67.9191 92.5058 67.7769 92.3206Z" fill="#CFEF5D"/>
<path d="M64.9968 102.353C65.4216 102.064 66.0794 101.881 66.2928 101.367C66.4253 101.047 66.3496 100.682 66.2295 100.371C66.1134 100.285 66.1147 100.267 65.9633 100.282C65.838 100.593 66.1708 101.007 65.9985 101.322C65.7538 101.768 64.9877 101.817 64.771 102.222C64.6764 102.399 64.636 102.641 64.5714 102.834L64.4245 102.837L64.251 103.009L64.7006 103.148L64.9133 103.135C65.0536 102.935 65.002 102.595 64.9968 102.353Z" fill="#CFEF5D"/>
<path d="M63.3467 91.7437C63.2481 91.2426 62.8703 90.6635 62.2908 90.7314C61.466 91.2306 62.5199 92.8347 62.8944 93.0189C62.8938 92.5392 62.1068 91.526 62.2047 90.9864C62.7398 90.7259 62.929 91.7676 63.3219 91.9831L63.3467 91.7437Z" fill="#CFEF5D"/>
<path d="M67.1559 104.791C67.4091 104.539 67.7445 104.495 68.0747 104.372L68.0473 104.327L66.9751 104.344L67.1559 104.791Z" fill="#CFEF5D"/>
<path d="M64.1995 99.407L64.2178 99.3762C64.4573 98.9604 64.9298 97.5113 64.7164 97.08C64.426 97.0803 64.4606 98.6998 63.9353 99.1736C63.718 99.2901 63.6325 99.3219 63.4719 99.5111L63.4648 99.652C63.6377 99.7489 63.56 99.7265 63.7923 99.7025C63.9385 99.6024 64.0586 99.5166 64.1995 99.407Z" fill="#CFEF5D"/>
<path d="M66.5244 91.3472C66.4435 91.0325 66.6569 90.6211 66.3992 90.2071L66.2706 90.683C66.2327 90.9972 66.285 90.9834 66.1107 91.1853C65.5874 91.3476 65.0333 90.5564 64.6098 90.5925C64.3749 91.0529 66.0657 91.7618 66.5244 91.3472Z" fill="#CFEF5D"/>
<path d="M64.0583 95.7938L63.9722 95.909C64.0166 96.0351 63.9794 96.0053 64.0629 96.0709C64.6789 96.2967 65.1781 96.4241 65.3321 97.1898C65.3765 97.4117 65.3249 97.5409 65.4254 97.755L65.5266 97.7488C65.5377 97.7229 65.5481 97.6971 65.5592 97.6712C65.8228 96.3412 65.0541 96.1203 64.0583 95.7938Z" fill="#CFEF5D"/>
<path d="M61.8258 98.2288C60.599 98.6804 60.3066 99.4512 61.2385 100.401C61.3533 100.27 61.3722 100.252 61.3892 100.08C60.6355 99.4292 60.9716 98.9902 61.6861 98.5404C61.7285 98.5078 61.8062 98.4191 61.8467 98.3758L61.8258 98.2288Z" fill="#CFEF5D"/>
<path d="M64.1855 91.4412C64.6482 91.8166 65.5703 92.9141 66.1419 92.54C66.2274 92.3496 66.2143 92.4331 66.1869 92.2227L66.0949 92.1999L65.8359 92.3695C65.3047 92.3278 64.9745 91.559 64.2521 91.2105L64.1855 91.4412Z" fill="#CFEF5D"/>
<path d="M66.2782 104.515C66.1529 104.349 65.8912 104.186 65.6824 104.162C65.5473 104.146 65.4442 104.178 65.3255 104.24C65.2641 104.352 65.2034 104.463 65.1519 104.58L65.0572 104.709L65.7764 104.795L66.3376 104.872C66.35 104.749 66.3095 104.633 66.2782 104.515Z" fill="#CFEF5D"/>
<path d="M78.1945 103.459C78.1371 103.724 78.1997 103.806 78.3224 104.049C78.4601 104.393 78.5847 104.874 78.9658 104.995L79.0291 104.936C79.0102 104.649 78.8562 104.34 78.7192 104.089C78.5051 103.695 78.601 103.602 78.1945 103.459Z" fill="#D8EA8E"/>
<path d="M65.7065 87.867L65.5864 87.6837C65.5153 88.0354 65.3084 88.8027 65.3215 89.0906L65.3828 89.0984C65.7104 88.6673 65.7809 88.4239 65.7065 87.867Z" fill="#CFEF5D"/>
<path d="M62.2605 96.3058C62.2925 96.2512 62.3094 96.2286 62.3094 96.1644C62.3107 95.8882 62.5561 95.6184 62.7369 95.4138L62.7225 95.2795C62.3479 95.4187 62.0314 95.5701 62.0928 96.0337L62.2605 96.3058Z" fill="#D8EA8E"/>
<path d="M64.7943 103.772C64.5619 103.773 64.312 103.754 64.1345 103.93C64.0693 103.995 64.0118 104.066 63.9557 104.137C64.1489 104.188 64.2937 104.223 64.496 104.185C64.6716 104.093 64.7192 103.943 64.7943 103.772Z" fill="#D1DC9C"/>
<path d="M60.9139 95.9127C61.8458 94.8166 63.4021 94.8443 62.1459 93.015C61.8843 92.6339 61.7361 91.9437 61.4249 91.5109L61.3433 91.499C61.0718 92.1085 62.3854 93.6244 62.3254 94.2251C62.2653 94.8304 60.7782 95.1676 60.7318 95.9362C60.6986 96.4905 61.141 97.0771 61.4614 97.4637C59.9305 98.1185 59.0802 98.3657 60.031 100.072L60.1354 100.151C60.0838 100.235 60.0577 100.288 59.9847 100.357C60.2548 100.576 60.2372 100.799 60.4375 100.901C60.8082 100.417 59.9057 99.5929 59.89 98.9683C59.8718 98.2509 61.4281 97.9057 61.8138 97.4955C61.3563 96.8281 61.1912 96.6678 60.9139 95.9127Z" fill="#CFEF5D"/>
<path d="M67.7384 97.6132C67.5322 97.5932 67.3404 97.5854 67.1531 97.6922C67.0669 97.7411 66.9926 97.8036 66.9645 97.8991C66.9051 98.0986 67.0056 98.2989 67.1041 98.469C67.356 98.9022 67.9962 99.6785 68.4765 99.8006C68.4393 99.4268 67.8102 98.9059 67.5472 98.6491C67.4011 98.4453 67.2118 98.2206 67.2588 97.9537C67.2764 97.8519 67.2908 97.8553 67.375 97.798C68.0262 97.8128 68.434 98.739 68.9607 98.9973L69.039 98.9632L69.0272 98.813C68.6598 98.3432 68.2435 97.929 67.7384 97.6132Z" fill="#CFEF5D"/>
<path d="M65.0025 85.3057C64.964 85.3265 64.9457 85.334 64.9105 85.3654C64.7154 85.5394 64.6912 86.2698 64.6501 86.5546C64.408 86.9349 64.0015 87.1718 63.6387 87.4225C63.5982 87.7574 63.5819 88.0933 63.5636 88.43C63.7822 88.2247 63.8645 87.8094 63.9591 87.5283C64.1692 87.3614 64.4159 87.192 64.5947 86.9919C65.0234 86.5121 65.0273 85.9128 65.0025 85.3057Z" fill="#CFEF5D"/>
<path d="M69.9456 95.7996C69.7707 95.6549 69.712 95.5864 69.4817 95.5551C69.2637 95.6289 69.3368 95.5732 69.2076 95.7659C69.1377 96.2387 69.4523 96.5682 69.9195 96.5614L70.172 96.2384C70.1851 96.0005 70.1466 96.0409 69.9456 95.7996Z" fill="#D8EA8E"/>
<path d="M63.1141 89.0948C63.0789 89.106 63.0698 89.108 63.0319 89.1265C62.8564 89.213 61.4482 89.9023 61.377 89.9923C61.3503 90.0263 61.3288 90.1116 61.3118 90.1546C61.8214 90.1471 62.3454 89.9286 62.7552 89.6316C62.9843 89.4658 63.0685 89.3759 63.1141 89.0948Z" fill="#CFEF5D"/>
<path d="M62.3884 87.4061C62.3806 87.4166 62.3721 87.4265 62.3656 87.4375C62.1907 87.7268 62.2742 87.8607 62.2945 88.155C62.3238 88.5891 61.978 88.8176 61.7176 89.0938C61.8709 89.0806 62.0373 89.0658 62.1848 89.0184C62.3454 88.9669 62.4609 88.8272 62.5261 88.677C62.6899 88.299 62.5248 87.7707 62.3884 87.4061Z" fill="#CFEF5D"/>
<path d="M64.7368 88.3035C64.6598 88.3358 64.586 88.3819 64.5123 88.4221C64.3009 88.8054 64.5201 89.6552 64.5821 90.0929C64.601 90.0802 64.6199 90.0681 64.6382 90.0548C64.9926 89.7954 64.6845 88.7377 64.7368 88.3035Z" fill="#CFEF5D"/>
<path d="M64.3045 85.5885C64.1172 85.7024 63.9528 85.9525 63.7766 86.1004C63.5417 86.2969 63.2258 86.4102 63.0372 86.6489C63.1286 86.6873 63.2232 86.7134 63.3231 86.7166C63.5521 86.7242 63.8242 86.5572 63.9776 86.3937C64.2047 86.1524 64.3156 85.9201 64.3045 85.5885Z" fill="#CFEF5D"/>
<path d="M79.4773 103.397C79.4989 103.187 79.5641 102.926 79.4604 102.735L79.2979 102.701C79.2555 102.965 79.2196 103.228 79.1935 103.494L79.4773 103.397Z" fill="#CFEF5D"/>
<path d="M79.9613 102.427C79.8412 102.594 79.8321 102.621 79.8236 102.827C79.9084 102.972 79.9221 103.012 80.0696 103.086C80.1062 102.867 80.0181 102.637 79.9613 102.427Z" fill="#CFEF5D"/>
<path d="M75.6562 83.0966C75.5832 83.1401 75.5603 83.1944 75.5199 83.2663C75.6295 83.6397 76.0406 84.0283 76.2892 84.3333C76.3192 84.6078 76.3251 84.8886 76.3414 85.1644C76.0654 85.2179 75.5701 85.2716 75.3769 85.4938C75.2712 85.615 75.2536 85.7384 75.2706 85.8924C75.6034 85.6924 76.3832 85.5265 76.5672 85.3673C76.6253 85.2326 76.6396 85.1167 76.6227 84.9722C76.5483 84.3486 76.1548 83.4812 75.6562 83.0966Z" fill="#CFEF5D"/>
<path d="M77.7855 86.4251C76.8001 86.4917 77.1244 87.2379 77.6941 87.6502C77.698 87.2125 77.5094 87.3098 77.4128 86.8925C77.452 86.6789 77.6204 86.5679 77.7855 86.4251Z" fill="#CFEF5D"/>
<path d="M78.8056 92.7547C78.8585 92.6508 78.8408 92.6912 78.8428 92.5631C77.9351 91.784 78.8147 91.5057 78.3462 90.593C78.1739 91.4413 77.8248 92.3201 78.8056 92.7547Z" fill="#CFEF5D"/>
<path d="M69.7803 85.6054C69.7072 85.6489 69.6843 85.7032 69.6439 85.7751C69.7535 86.1485 70.1646 86.5371 70.4133 86.8421C70.4433 87.1166 70.4491 87.3973 70.4655 87.6731C70.1894 87.7267 69.6941 87.7804 69.501 88.0026C69.3953 88.1238 69.3777 88.2472 69.3946 88.4012C69.7274 88.2012 70.5072 88.0353 70.6912 87.8761C70.7493 87.7414 70.7637 87.6255 70.7467 87.481C70.6723 86.8574 70.2788 85.99 69.7803 85.6054Z" fill="#CFEF5D"/>
<path d="M70.2147 92.5672C69.814 92.9454 69.7311 93.2882 69.5595 93.8006L69.7435 94.1425C69.8009 93.76 70.013 93.0742 70.2238 92.7457L70.2147 92.5672Z" fill="#CFEF5D"/>
<path d="M70.8836 93.9957C70.676 93.7714 70.6323 93.7919 70.5703 93.5323C70.8522 92.9903 71.1191 92.693 71.0271 92.1128L70.9697 92.05C70.7752 92.2911 70.7726 92.5157 70.7511 92.8134C70.3726 93.2279 70.0268 93.6032 70.6591 94.1552C70.8607 94.3313 71.4317 94.6364 71.6614 94.3952L71.6771 94.3041C71.4728 94.2034 71.1074 94.0793 70.8836 93.9957Z" fill="#CFEF5D"/>
<path d="M65.3358 81.242C65.2973 81.2628 65.279 81.2703 65.2438 81.3017C65.0487 81.4757 65.0245 82.2061 64.9834 82.4908C64.7413 82.8712 64.3348 83.1081 63.9719 83.3588C63.9315 83.6937 63.9152 84.0296 63.8969 84.3663C64.1155 84.161 64.1977 83.7457 64.2924 83.4646C64.5025 83.2977 64.7491 83.1283 64.9279 82.9282C65.3567 82.4484 65.3606 81.8491 65.3358 81.242Z" fill="#CFEF5D"/>
<path d="M62.3465 85.2759C62.1592 85.3899 61.9948 85.6399 61.8186 85.7879C61.5837 85.9843 61.2678 86.0977 61.0792 86.3364C61.1706 86.3747 61.2652 86.4008 61.3651 86.4041C61.5941 86.4116 61.8662 86.2447 62.0196 86.0811C62.2467 85.8398 62.3576 85.6075 62.3465 85.2759Z" fill="#CFEF5D"/>
<path d="M61.101 87.3882C61.0932 87.3987 61.0847 87.4087 61.0782 87.4197C60.9033 87.7089 60.9868 87.8429 61.0071 88.1372C61.0364 88.5713 60.6906 88.7997 60.4302 89.0759C60.5835 89.0628 60.7499 89.048 60.8974 89.0005C61.058 88.949 61.1735 88.8093 61.2387 88.6591C61.4025 88.2812 61.2374 87.7529 61.101 87.3882Z" fill="#CFEF5D"/>
<path d="M74.3865 82.2834C74.288 81.7823 73.9102 81.2033 73.3307 81.2711C72.5058 81.7703 73.5597 83.3744 73.9343 83.5586C73.9336 83.0789 73.1467 82.0658 73.2445 81.5261C73.7796 81.2657 73.9689 82.3074 74.3617 82.5228L74.3865 82.2834Z" fill="#CFEF5D"/>
<path d="M68.0986 102.439L68.2872 102.438C68.4562 102.131 68.5562 101.816 68.4381 101.466C68.4208 101.416 68.3913 101.385 68.3567 101.348C68.3547 101.346 68.3527 101.344 68.3507 101.342C68.1699 101.289 68.0622 101.299 67.8913 101.388C67.4756 101.605 67.0077 102.056 66.8739 102.517C66.8256 102.683 66.8067 102.814 66.8909 102.973L66.9836 103.006C67.0397 102.921 67.0984 102.833 67.1708 102.761C67.4214 102.511 67.7566 102.427 68.0986 102.439Z" fill="#1C1C1C"/>
<path fill-rule="evenodd" clip-rule="evenodd" d="M66.9831 103.498L67.1582 103.689C67.4433 103.664 67.7381 103.665 68.03 103.666C68.1637 103.666 68.2969 103.667 68.4281 103.665C68.4026 103.656 68.3793 103.649 68.3577 103.642C68.2208 103.6 68.155 103.579 68.0575 103.432L67.988 103.495C67.9176 103.451 67.8999 103.418 67.8725 103.344C67.8646 103.322 67.8571 103.301 67.8498 103.281C67.7987 103.138 67.7548 103.015 67.6076 102.931L67.5899 102.929C67.4515 102.912 67.3788 102.903 67.2585 103.007C67.1434 103.107 67.0695 103.287 67.0082 103.437C66.9996 103.458 66.9913 103.478 66.9831 103.498Z" fill="#1C1C1C"/>
<path d="M62.7476 100.082C61.5208 100.534 61.2285 101.305 62.1603 102.254C62.2752 102.124 62.2941 102.105 62.3111 101.934C61.5574 101.283 61.8934 100.844 62.608 100.394C62.6504 100.361 62.7281 100.273 62.7685 100.229L62.7476 100.082Z" fill="#CFEF5D"/>
<path d="M70.7507 102.968C70.491 102.843 70.2961 103.095 70.0998 103.303C69.5583 103.877 70.769 104.73 70.891 105.162C70.9739 105.208 71.0366 105.201 71.1318 105.204L71.1618 105.09C71.0248 104.779 70.7142 104.434 70.7142 104.434L70.8153 103.286L70.891 103.286L70.9204 103.194L70.7507 102.968Z" fill="#CFEF5D"/>
<path d="M76.7606 100.765C76.6353 100.6 76.3736 100.436 76.1648 100.412C76.0297 100.397 75.9266 100.428 75.8079 100.49C75.7465 100.602 75.6858 100.713 75.6343 100.83L75.5397 100.959L76.2588 101.045L76.82 101.122C76.8324 100.999 76.7919 100.883 76.7606 100.765Z" fill="#CFEF5D"/>
<path d="M63.457 96.8884C63.2821 96.7437 63.2234 96.6752 62.9931 96.6439C62.7751 96.7177 62.8482 96.662 62.719 96.8547C62.6492 97.3275 62.9637 97.657 63.4309 97.6502L63.6835 97.3272C63.6965 97.0893 63.658 97.1297 63.457 96.8884Z" fill="#D8EA8E"/>
<path d="M69.3568 97.0652L69.2706 97.1805C69.315 97.3065 69.2778 97.2768 69.3613 97.3424C69.9774 97.5682 70.4766 97.6955 70.6306 98.4612C70.6749 98.6832 70.6234 98.8123 70.7239 99.0264L70.825 99.0202C70.8361 98.9944 70.8466 98.9685 70.8577 98.9427C71.1213 97.6126 70.3526 97.3917 69.3568 97.0652Z" fill="#CFEF5D"/>
<path d="M60.6778 105.678C60.4732 105.653 60.2047 105.579 60.0573 105.716L59.9813 105.672L60.0093 105.724C60.4087 105.896 60.6743 105.896 61.1085 105.933C61.4205 105.952 61.4765 105.956 61.7855 105.894L61.7718 105.843C61.3713 105.698 61.104 105.703 60.6778 105.678Z" fill="#0C0C0C"/>
<path d="M60.5622 106.669C60.3577 106.645 60.0892 106.57 59.9418 106.708L59.8658 106.664L59.8938 106.716C60.2931 106.888 60.5588 106.887 60.993 106.925C61.3049 106.944 61.3609 106.948 61.67 106.885L61.6563 106.834C61.2558 106.69 60.9884 106.695 60.5622 106.669Z" fill="#0C0C0C"/>
<path d="M79.2821 106.459C79.0766 106.472 78.7993 106.448 78.6785 106.61L78.596 106.581L78.6326 106.627C79.0558 106.723 79.317 106.674 79.7508 106.632C80.0611 106.594 80.1169 106.588 80.41 106.47L80.3876 106.422C79.9681 106.353 79.7059 106.406 79.2821 106.459Z" fill="#0C0C0C"/>
<path d="M79.1363 105.568C78.9308 105.581 78.6535 105.557 78.5327 105.719L78.4502 105.69L78.4868 105.736C78.91 105.832 79.1712 105.783 79.605 105.741C79.9153 105.703 79.971 105.697 80.2642 105.579L80.2418 105.531C79.8223 105.462 79.5601 105.515 79.1363 105.568Z" fill="#0C0C0C"/>
<path d="M69.6384 89.5371C69.557 89.5642 69.5164 89.5886 69.4396 89.627C69.3143 89.9528 69.3735 90.1707 69.4266 90.5143C69.5555 90.4789 69.546 90.4744 69.6373 90.3718C69.7074 90.1036 69.6607 89.8197 69.6384 89.5371Z" fill="#B8FB35"/>
<path d="M71.7795 89.4355C71.6507 89.4538 71.6598 89.4526 71.5521 89.528C71.4532 89.827 71.4851 90.0673 71.5913 90.364C71.6945 90.3123 71.6649 90.3239 71.7491 90.2328C71.8311 89.9663 71.7942 89.7184 71.7795 89.4355Z" fill="#B8FB35"/>
<path d="M56.8146 98.342C55.5635 98.7316 53.0714 98.8219 51.7597 98.6278C51.5917 99.8989 51.3089 102.138 50.0383 102.742C49.0597 103.207 46.7796 102.656 45.7598 102.3L45.7067 103.093C45.373 107.329 45.2782 111.598 44.9503 115.836C44.892 116.588 44.6383 117.461 44.4858 118.216C44.159 119.831 44.1847 121.416 44.1076 123.057C44.0008 125.341 43.9511 127.64 43.8242 129.925C45.8998 130.499 45.8575 130.36 47.8405 130.108C48.1262 127.221 48.6935 124.297 49.0608 121.417C49.4888 118.057 50.2943 114.727 51.0559 111.428C51.622 108.978 52.1316 106.345 52.8235 103.932C53.1571 103.652 53.9392 103.011 54.3586 102.959C54.3803 103.229 53.3234 103.864 53.0943 104.033C52.9469 104.5 52.3464 106.731 52.379 107.116C52.6178 109.984 53.1326 112.88 53.3879 115.755C53.4976 116.99 53.3142 118.172 53.3542 119.402C53.6205 122.705 53.9312 126.016 54.2106 129.32C55.964 129.534 56.6878 129.561 58.3663 128.963C58.3115 127.741 58.3212 126.545 58.3006 125.324C58.2595 123.093 58.2503 120.861 58.272 118.63C58.2989 117.243 58.372 115.852 58.3989 114.475C58.4571 110.705 58.4874 106.936 58.4891 103.166C58.492 102.958 58.4846 102.774 58.4754 102.566C58.3189 102.359 57.9378 102.508 57.6807 102.25C56.986 101.553 56.8535 99.2947 56.8146 98.342Z" fill="#434343"/>
<path d="M56.8146 98.342C55.5635 98.7316 53.0714 98.8219 51.7597 98.6278C51.5917 99.8989 51.3089 102.138 50.0383 102.742C49.0597 103.207 46.7796 102.656 45.7598 102.3L45.7067 103.093C47.0018 103.504 49.11 103.911 50.3651 103.26C51.5517 102.644 51.8728 100.419 52.0928 99.1959C53.3079 99.2217 54.486 99.2596 55.6897 99.077C55.9068 99.0441 56.1513 99.014 56.369 98.9987C56.3982 99.6348 56.4707 100.251 56.5598 100.879C56.7375 102.132 57.0803 103.088 58.4891 103.166C58.492 102.958 58.4846 102.774 58.4754 102.566C58.3189 102.359 57.9378 102.508 57.6807 102.25C56.986 101.553 56.8535 99.2947 56.8146 98.342Z" fill="#2E2E2E"/>
<path d="M49.4714 104.936L49.3994 104.996C49.3069 105.196 49.1384 106.74 49.0858 107.121L48.1403 114.143C47.5998 118.099 46.8206 122.026 46.5012 126.029C46.4486 126.691 46.1293 128.475 46.2298 129.054C46.4258 128.755 46.5823 126.943 46.6343 126.493L47.2793 120.975C47.4873 119.291 49.6691 105.651 49.4714 104.936Z" fill="#0C0C0C"/>
<path d="M57.2142 104.395L57.1216 104.435C57.0519 104.567 57.2205 108.008 57.2342 108.46C57.3227 110.682 57.3656 112.905 57.3622 115.128C57.3507 116.176 57.2119 117.247 57.2245 118.288C57.2645 121.551 57.1982 125.08 57.4821 128.32L57.5456 128.27C57.6592 128.021 57.4199 122.192 57.3953 121.446C57.3039 118.66 57.5718 115.886 57.5273 113.12C57.4724 110.21 57.3679 107.301 57.2142 104.395Z" fill="#0C0C0C"/>
<path d="M56.6045 76.7282L56.5422 76.7422C56.5428 76.8618 57.4763 78.0973 57.646 78.3829C57.2792 78.6448 57.0947 78.729 56.6822 78.9227C57.0621 79.1539 57.722 79.5667 58.0476 79.8585C58.0471 82.7004 57.3546 85.8913 56.953 88.711C56.8942 89.1229 56.4674 90.3682 56.4714 90.5515C56.5571 93.5007 56.8936 96.4731 57.1695 99.4139C57.2866 100.659 57.2724 102.384 58.8669 102.183C58.8955 102.165 58.9314 102.144 58.9554 102.12C59.1463 101.928 59.3388 97.9739 59.3428 97.4654C59.3468 97.0554 59.3028 96.6427 59.2628 96.235C58.6801 96.3122 58.4527 96.2782 58.3858 95.5653C58.3539 95.2256 58.331 94.8775 58.2984 94.5368L59.0189 94.2712C58.9286 93.3607 58.6378 91.5465 58.7201 90.7157C59.1343 86.5317 60.2426 82.4328 60.1066 78.19C58.8549 77.6707 57.8585 77.3471 56.6045 76.7282Z" fill="#B5FE28"/>
<path d="M56.4735 66.7195C54.2157 67.5792 54.5899 66.8388 52.4767 66.5698C52.1733 66.7599 51.8974 66.9239 51.6186 67.1512C51.6311 67.5421 51.6574 67.9989 51.6414 68.3845C51.1564 69.1034 51.0375 69.1064 50.8998 69.9971L50.8753 69.6166L50.9056 69.671L50.8479 69.6137C50.7987 69.7927 50.7747 69.8749 50.7136 70.0501C50.6559 70.2133 50.637 70.3878 50.6576 70.5599L50.7822 70.6294C50.6759 70.6689 50.6062 70.6709 50.4942 70.687C50.1309 70.5413 50.0914 69.4943 49.443 69.3846C49.2905 69.4247 49.2882 69.4278 49.1871 69.5202C49.0134 69.6781 49.0065 69.8685 49.0134 70.0536C49.0608 71.2815 49.387 71.8074 50.5039 72.0188C50.8056 72.53 50.701 73.2963 51.1804 73.7175C51.8962 74.3475 52.7349 75.22 53.665 75.4711C54.1403 75.5994 55.1132 75.6233 55.3743 75.1947C56.4707 73.3968 56.9934 71.5699 56.9254 69.5037C56.822 69.3121 56.8552 69.3734 56.5844 69.2806C56.7472 69.273 56.8283 69.2862 56.9637 69.1946C57.0117 69.0034 57.0134 69.0968 56.9529 68.9046C56.9352 68.1245 56.7746 67.4327 56.4735 66.7195Z" fill="white"/>
<path d="M56.9529 68.9026C56.4718 68.8218 55.8222 68.9179 55.5172 69.3422L55.5332 69.4458C55.8651 69.6049 56.177 69.4271 56.5312 69.2981L56.5844 69.2787C56.7472 69.2711 56.8283 69.2842 56.9637 69.1926C57.0117 69.0015 57.0134 69.0949 56.9529 68.9026Z" fill="#0C0C0C"/>
<path d="M50.8997 69.9982L50.8752 69.6176L50.9055 69.6721L50.8478 69.6148C50.7986 69.7938 50.7746 69.876 50.7135 70.0512C50.6558 70.2143 50.6369 70.3889 50.6575 70.561L50.7821 70.6304C50.9123 70.4055 50.8906 70.2622 50.8997 69.9982Z" fill="#1C1C1C"/>
<path d="M54.7023 72.8678C54.2544 72.8363 53.5386 72.7102 53.2084 73.0617C53.0827 73.5186 53.7665 73.8894 54.1287 74.0058C54.7566 74.0381 55.1611 74.0048 55.545 73.3262C55.6256 73.1842 55.5896 73.1041 55.5382 72.9643C55.345 72.8464 54.9503 72.8736 54.7023 72.8678Z" fill="#0C0C0C"/>
<path d="M53.6409 72.9771L53.5552 72.9723L53.5072 73.0261L53.4421 72.9965L53.4135 73.0634C53.6786 73.3096 54.7424 73.3041 55.0823 73.2989C55.1874 73.2854 55.2051 73.2643 55.3063 73.2188L55.3131 73.1633C55.0395 73.0023 54.0071 72.9946 53.6409 72.9771Z" fill="#EBEBEA"/>
<path d="M53.8818 73.4928C53.8412 73.4821 53.7858 73.4871 53.7407 73.4874L53.7864 73.569C54.0903 73.7485 54.1331 73.763 54.4805 73.8244L54.6679 73.7788L54.6776 73.7079C54.4308 73.5785 54.1583 73.5466 53.8818 73.4928Z" fill="#9E9E9E"/>
<path d="M53.0951 68.5951C52.5101 68.5646 52.1416 68.9322 51.7451 69.3149C52.4849 69.0684 52.6209 68.949 53.359 69.1533C53.6687 69.271 54.1926 69.5268 54.4765 69.2695C54.3554 68.8323 53.4853 68.6901 53.0951 68.5951Z" fill="#2E2E2E"/>
<path d="M53.4661 69.7006C52.9319 69.6812 52.796 69.7262 52.4097 70.0798C52.6291 70.0092 52.8211 69.9312 53.0502 69.9208L53.0953 69.9935L52.9799 70.2322C53.0525 70.2911 53.1405 70.3531 53.2164 70.4094C53.3981 70.4292 53.3227 70.4542 53.4558 70.353C53.5072 70.2107 53.5324 70.0818 53.6438 69.9889C53.7637 70.0803 53.7803 70.1018 53.922 70.1599C53.9094 69.8991 53.6632 69.8042 53.4661 69.7006Z" fill="#0C0C0C"/>
<path d="M56.3382 69.7419C56.0486 69.7364 55.6195 69.868 55.4956 70.1479L55.5772 70.202C55.7058 70.1499 55.7629 70.0867 55.8669 69.9955L55.932 70.0608C55.9223 70.2797 55.9223 70.2685 55.9977 70.4751C56.1371 70.4752 56.1771 70.4577 56.3108 70.4237C56.4342 70.2558 56.3931 70.2996 56.3862 70.0343L56.4365 69.9907C56.5736 70.1062 56.5936 70.1633 56.7433 70.1886L56.7324 70.0986C56.6039 69.8968 56.5439 69.8773 56.3382 69.7419Z" fill="#0C0C0C"/>
<path d="M55.1726 69.9039C55.1458 69.9332 55.1041 70.0068 55.0807 70.0439C55.1058 70.4743 55.1932 71.0694 55.3343 71.4734L55.4234 71.3487C55.3989 70.9612 55.3212 70.2487 55.1726 69.9039Z" fill="#1C1C1C"/>
<path d="M55.566 71.8336C55.5271 71.852 55.4294 71.9197 55.394 71.9457C55.0552 72.198 54.6473 71.9372 54.2754 71.9403L54.1977 72.0416C54.7056 72.1776 55.3432 72.6008 55.566 71.8336Z" fill="#0C0C0C"/>
<path d="M54.909 74.3685C54.6439 74.3575 54.1206 74.2759 53.9497 74.4474C54.2485 74.5744 54.653 74.5984 54.909 74.3685Z" fill="#0C0C0C"/>
<path d="M58.7203 130.523C57.5885 128.238 56.2625 132.741 54.4761 130.353C54.3789 130.706 54.2544 131.096 54.2355 131.458C54.2869 131.55 54.263 131.536 54.3395 131.593L54.2641 131.7C54.0899 131.911 54.0344 132.644 54.0504 132.922C54.0264 133.031 54.0076 133.116 53.9762 133.224C54.1698 133.158 54.9622 133.404 55.2885 133.441C55.3913 133.358 55.4678 133.318 55.5798 133.251L55.6632 133.127C55.8266 133.376 56.4956 133.284 56.8047 133.375C58.7751 133.958 60.6782 134.354 62.716 133.795C62.9263 133.738 63.0314 133.746 63.1639 133.543C62.9771 133.027 61.4717 132.553 60.7919 132.102C59.8492 132.276 60.12 132.325 59.4419 132.551L59.3767 132.475L59.4162 132.343C59.6258 132.158 60.1257 132.019 60.4039 131.927L60.4194 131.86C60.2645 131.723 60.18 131.721 59.9732 131.668C59.9303 131.592 59.936 131.551 59.9201 131.457C59.687 131.267 59.6081 131.184 59.3213 131.206C59.3813 131.018 59.2676 131.213 59.2979 130.941C59.0859 130.794 59.0579 130.779 58.806 130.733L58.7203 130.523Z" fill="#EBEBEA"/>
<path d="M54.2668 131.704C54.0926 131.915 54.0372 132.648 54.0532 132.926C54.0292 133.035 54.0103 133.12 53.9789 133.229C54.1726 133.162 54.965 133.408 55.2912 133.445C55.394 133.362 55.4706 133.322 55.5826 133.255C55.1861 132.282 55.1398 132.28 54.2668 131.704Z" fill="#B8FB35"/>
<path d="M54.0532 132.925C54.0292 133.034 54.0103 133.119 53.9789 133.227C54.1726 133.161 54.965 133.407 55.2912 133.444C55.394 133.361 55.4706 133.32 55.5826 133.254C55.0427 133.153 54.5873 133.057 54.0532 132.925Z" fill="#0C0C0C"/>
<path d="M55.6655 133.131C55.6558 132.415 54.9291 131.86 54.3418 131.597L54.2664 131.703C55.1394 132.279 55.1861 132.281 55.5826 133.254L55.6655 133.131Z" fill="#0C0C0C"/>
<path d="M59.9766 131.668C59.9337 131.592 59.9394 131.551 59.9234 131.456C59.4944 131.546 59.1779 131.603 58.8237 131.883L58.7928 131.987C58.9808 132.058 59.828 131.761 59.9766 131.668Z" fill="#0C0C0C"/>
<path d="M59.3233 131.21C59.3833 131.022 59.2696 131.217 59.2998 130.944C58.7571 131.17 58.644 131.059 58.0921 131.471L58.0972 131.573C58.376 131.572 58.8799 131.292 59.3233 131.21Z" fill="#0C0C0C"/>
<path d="M58.7204 130.524C58.3867 130.569 57.6332 130.748 57.4738 131.06L57.5149 131.068L57.4926 130.997L57.4886 131.067C57.9148 131.051 58.3507 130.826 58.8061 130.734L58.7204 130.524Z" fill="#0C0C0C"/>
<path d="M55.1523 75.7185L54.986 75.7577C54.8129 76.0618 55.0454 76.6711 55.1288 77.0301C56.0989 81.2212 56.268 85.6872 56.4069 89.9774C56.5674 89.3507 56.6714 88.7286 56.7862 88.0921C57.2541 85.7535 57.6637 82.2848 57.782 79.9527C57.2753 79.6039 56.7154 79.3167 56.2395 78.9176C56.5668 78.6787 56.9039 78.5031 57.257 78.3091C56.7953 77.5258 55.7807 76.3787 55.1523 75.7185Z" fill="#B5FE28"/>
<path d="M46.0288 130.926C44.7377 130.837 45.045 131.425 44.5485 131.582C44.3926 131.516 44.28 131.446 44.1161 131.466C44.0121 131.652 43.3968 134.086 43.2557 134.554C43.947 135.06 44.512 135.122 45.3404 135.2C45.9157 135.225 47.7953 135.248 47.9924 134.551C47.9216 134.095 47.6285 133.546 47.4839 133.093C47.3468 132.664 47.3942 131.777 47.1063 131.475C46.4059 131.652 46.8424 131.105 46.0288 130.926Z" fill="#EBEBEA"/>
<path d="M46.1058 132.44C45.5654 132.384 45.1958 132.405 44.7061 132.683L44.6901 132.763C44.873 132.826 45.0449 132.744 45.2363 132.687C45.7728 132.636 46.4526 132.772 46.7594 132.692L46.712 132.607C46.5235 132.492 46.3258 132.479 46.1058 132.44Z" fill="#0C0C0C"/>
<path d="M46.296 131.854C45.9567 131.826 44.8169 131.768 44.6832 132.145C44.8375 132.208 44.9015 132.167 45.0631 132.119L45.1226 132.1C45.579 132.035 46.5771 132.172 46.7565 132.062C46.6194 131.893 46.5228 131.902 46.296 131.854Z" fill="#0C0C0C"/>
<path d="M45.8188 133.024C45.3749 133.037 45.059 133.096 44.6608 133.299L44.6574 133.355C44.9619 133.415 45.2264 133.316 45.544 133.25C46.0199 133.22 46.2941 133.368 46.8043 133.296L46.7832 133.239C46.4084 133.058 46.2359 133.062 45.8188 133.024Z" fill="#0C0C0C"/>
<path d="M60.4696 78.4627C60.3908 78.7776 60.3856 80.2029 60.3422 80.6632C60.1948 82.226 59.9914 83.7385 59.7686 85.2906C60.2171 85.6438 60.5656 85.9318 60.9901 86.3164C61.1455 85.7332 61.2432 85.2248 61.4306 84.6352C62.0516 82.9507 63.429 83.0606 63.7272 82.298C63.7038 81.9582 63.3633 81.6808 63.1268 81.4349C62.2035 80.4764 61.3569 79.4532 60.4696 78.4627Z" fill="#B5FE28"/>
<path d="M50.3407 71.9645C50.3098 72.5049 50.347 73.1893 50.2853 73.7027C50.1282 75.0083 50.1287 75.6297 50.4178 76.9107C51.3862 77.7139 52.1843 78.1256 53.4972 78.0134C54.0136 77.9692 54.7221 77.7837 54.5998 77.1062C54.6021 76.6102 54.6015 76.2375 54.6581 75.7413C53.6309 75.7659 53.0915 75.6955 52.266 75.0006C51.7027 74.5261 51.1817 74.0916 50.6955 73.5233C50.4721 72.9251 50.4247 72.6012 50.3407 71.9645Z" fill="#EBEBEA"/>
<path d="M54.6581 75.7431C53.6309 75.7677 53.0915 75.6973 52.266 75.0024C51.7027 74.5278 51.1817 74.0933 50.6955 73.525C50.768 74.2321 51.9552 75.5222 52.4894 76.151C53.0778 76.8432 53.6851 76.5891 54.5164 76.6253C54.5112 76.6251 54.5912 77.0733 54.5998 77.1079C54.6021 76.612 54.6015 76.2392 54.6581 75.7431Z" fill="#D5D4D4"/>
<path d="M59.7763 85.6327C59.6495 85.8267 59.5301 86.9723 59.4649 87.2629C58.9268 89.6616 58.8993 91.758 59.3147 94.1711C59.3987 94.6614 59.4004 95.1793 59.5049 95.6789C59.5826 95.5407 59.5883 95.3055 59.6055 95.1389C59.9654 92.1271 60.3899 89.5564 60.9303 86.5771L59.7763 85.6327Z" fill="#F2F2F2"/>
<path d="M70.0543 79.5916C69.162 79.6021 68.2828 80.767 67.5384 81.3711C67.7886 81.4951 68.0154 81.6554 68.2474 81.8108C68.6941 81.5646 69.8411 80.9627 70.2977 81.1126C70.9797 81.412 71.6018 81.682 72.2597 82.0301L72.7837 81.543C71.6469 80.8405 71.2346 79.969 70.0543 79.5916Z" fill="#B8FB35"/>
<path d="M55.2891 133.44C54.9629 133.403 54.1705 133.157 53.9768 133.223C53.9837 133.461 53.9619 133.622 54.0831 133.818C54.5567 134.145 56.3792 134.152 57.0179 134.327C58.9021 134.844 60.6714 135.082 62.6076 134.654C63.1092 134.544 63.3325 134.547 63.3445 134.005L63.2891 133.902C62.9532 133.888 62.5344 134.148 62.2093 134.176C61.5283 134.233 60.7182 134.338 60.0384 134.279C58.3667 134.136 56.9905 133.597 55.2891 133.44Z" fill="#EBEBEA"/>
<path d="M45.7474 94.3263L45.6994 94.3428C45.6092 94.5188 45.4658 95.3984 45.4195 95.6471C46.245 95.9236 47.8573 96.2869 48.7125 96.3609C48.9896 96.0212 49.0399 95.4368 49.0936 95.0098C47.9715 94.8194 46.8552 94.5914 45.7474 94.3263Z" fill="#B5FE28"/>
<path d="M70.0871 81.3318C69.7719 81.3782 68.862 81.8295 68.5319 81.9843C69.2357 82.5775 69.9224 83.1215 70.4852 83.8601C70.5209 83.8584 70.5565 83.8567 70.5922 83.855C70.9961 83.3341 71.5946 82.6754 72.033 82.2306C71.4256 81.9335 70.7093 81.5613 70.0871 81.3318Z" fill="#B5FE28"/>
<path d="M69.5314 76.529C68.7333 76.8332 67.3639 77.184 67.8815 78.4123C68.0478 78.8071 68.2494 79.0498 68.5728 79.327C68.989 79.3096 69.4248 79.2842 69.8394 79.281C69.8261 79.0605 69.831 78.8052 69.7471 78.6093L69.7812 78.5831C69.6928 78.4918 69.7313 78.5186 69.6117 78.4763L69.6029 78.5225L69.1432 77.899C68.9932 77.9207 68.9276 77.9857 68.8034 78.0741L68.6813 78.0556C68.6099 77.8067 69.3062 77.4675 69.5216 77.2822L69.5314 76.529Z" fill="#EBEBEA"/>
<path d="M69.7477 78.6112L69.7818 78.5851C69.6935 78.4938 69.7319 78.5205 69.6123 78.4783L69.6035 78.5245C69.4702 78.6334 69.3858 78.7022 69.2658 78.8253L69.2569 78.953C69.487 79.0378 69.6295 78.7774 69.7477 78.6112Z" fill="#0C0C0C"/>
<path d="M69.2351 79.5252C67.6717 79.6182 66.8005 79.7376 65.2945 80.0673C65.3054 80.0847 65.395 80.2233 65.4042 80.2496C66.0286 80.5535 66.6645 80.895 67.2821 81.217C68.0602 80.6593 68.4681 80.0525 69.2351 79.5252Z" fill="#B5FE28"/>
<path d="M43.2968 134.88L43.2579 134.932C43.1545 135.617 43.495 135.746 44.1223 135.894C45.2992 136.169 46.9709 136.241 48.0461 135.596C48.0929 135.455 48.1306 135.105 48.0586 134.972C46.5418 135.628 44.7696 135.692 43.2968 134.88Z" fill="#EBEBEA"/>
<path d="M70.4094 74.8131C70.3466 74.8096 70.1075 74.7999 70.0625 74.8129C69.3617 75.0148 68.5899 76.2846 68.2197 76.8345C68.6745 76.5867 69.0083 76.5067 69.4582 76.2786C69.6223 76.1954 69.6059 76.0111 69.6368 75.8157C69.6524 75.6051 69.6183 75.6975 69.7427 75.5284L69.8111 75.5577C69.846 75.7068 69.7927 77.3456 69.798 77.6484C70.3981 76.997 71.1979 75.5813 70.4094 74.8131Z" fill="#EBEBEA"/>
<path d="M57.6727 129.532C56.4158 129.681 56.0461 129.755 54.8121 129.672C54.559 129.856 54.7533 130.327 54.8984 130.54C55.6965 131.204 56.3872 130.647 56.9534 130.019C57.1996 129.746 57.5607 129.77 57.6727 129.532Z" fill="#A7A8A4"/>
<path d="M71.084 75.2614C70.8892 75.3497 70.8916 75.435 70.8936 75.6981C70.9022 76.8492 70.6951 76.7006 70.2385 77.6262C70.3374 77.7692 70.3966 77.7586 70.5807 77.845C71.2343 77.3671 71.687 76.5537 71.5023 75.7105C71.4449 75.4487 71.3053 75.3988 71.084 75.2614Z" fill="#EBEBEA"/>
<path d="M69.6868 77.531C69.5513 77.6004 69.5605 77.6026 69.463 77.7241C69.4862 78.0073 69.8734 78.3563 70.0782 78.5785L70.154 79.3868C70.3594 79.2958 70.5704 79.1928 70.7748 79.0971C70.9691 78.9456 71.1641 78.8271 71.2725 78.6116C71.2197 78.311 70.1196 77.9264 69.6868 77.531Z" fill="#D5D4D4"/>
<path d="M71.8642 75.9645C71.6498 76.1665 71.6823 76.9229 71.5404 77.1937C71.4047 77.4527 70.9616 77.7081 70.944 78.0107L71.1106 78.1542C71.3657 78.0159 71.6624 77.8789 71.8419 77.6444C72.2741 77.0798 72.4944 76.4663 71.8642 75.9645Z" fill="#EBEBEA"/>
<path d="M59.0455 94.5743C58.8953 94.6148 58.8062 94.6243 58.6868 94.726C58.5131 95.1069 58.6645 95.6276 58.7393 96.0586C58.8347 96.0325 59.0598 95.9921 59.1038 95.9306C59.2826 95.6835 59.0924 94.8825 59.0455 94.5743Z" fill="#B5FE28"/>
<path d="M72.5361 76.8298C72.339 77.0099 72.3143 77.5231 72.0738 77.818C71.8562 78.0847 71.7607 78.0445 71.549 78.2489L71.5866 78.4396C72.0077 78.4037 72.2441 78.2051 72.5295 77.9239C72.6573 77.4527 72.7641 77.2469 72.5361 76.8298Z" fill="#EBEBEA"/>
<path d="M46.8512 130.557C45.792 130.647 45.4481 130.63 44.3888 130.36C44.3723 130.693 44.3363 131.145 44.3683 131.463C44.5414 131.249 44.7036 131.048 44.8676 130.826C45.4783 130.633 45.7977 130.636 46.4433 130.741C46.5655 130.609 46.6518 130.62 46.8512 130.557Z" fill="#A7A8A4"/>
<path d="M46.4435 130.743C46.5618 130.817 46.82 131.08 46.9514 131.195C47.0137 131.012 47.0725 130.722 46.9942 130.542L46.8514 130.559C46.652 130.622 46.5658 130.612 46.4435 130.743Z" fill="#A7A8A4"/>
<path d="M67.6703 78.6365C67.6474 78.6588 67.6057 78.7363 67.5868 78.7679C67.5628 79.1417 67.6365 79.322 68.0028 79.3853L68.0587 79.3192C67.9593 79.1071 67.7919 78.9046 67.6703 78.6365Z" fill="#2E2E2E"/>
<path d="M33.8379 76.5681C33.7379 76.6423 33.7693 76.6147 33.6951 76.7177C33.8768 77.4089 35.6798 78.8362 35.6467 79.0723C34.8868 79.12 33.6882 76.8806 33.0992 76.7928C32.9592 76.9042 33.0112 76.8314 32.9718 77.0396C33.0409 77.251 33.0346 77.2345 33.2723 77.3803C33.7796 77.6912 34.0133 78.337 34.4526 78.803C34.732 79.0991 35.0954 79.3822 35.329 79.6603L35.3153 79.7606C35.0416 79.7672 34.6212 79.3306 34.3886 79.1265L34.64 79.9804C34.848 80.1383 35.0965 80.275 35.1559 80.5181L35.0736 80.5564C34.7914 80.4823 34.6274 80.305 34.3989 80.1123C34.3007 79.7599 34.1367 78.9466 33.7859 78.8191L33.7111 78.9307C33.6345 79.4589 33.8065 80.0838 34.0499 80.5497C35.0331 81.6132 36.006 82.0649 37.2166 82.7472C37.2715 82.7781 37.2103 82.9768 37.1972 83.0447C37.8354 83.4732 38.7826 82.3484 39.0648 81.8397C38.6232 81.0862 38.91 80.2535 38.7443 79.8787C38.4946 79.314 37.508 77.2896 37.22 76.8626L37.0949 76.8936C36.5865 77.4856 37.372 78.2651 37.3063 79.0302L37.2303 79.0851C35.7266 78.8589 34.7383 77.156 33.8379 76.5681Z" fill="#EBEBEA"/>
<path d="M36.185 80.6144C36.0764 80.6009 36.0993 80.6072 35.9873 80.627C36.0039 80.775 37.271 80.9868 37.7566 81.5523L37.8263 81.6375L37.9109 81.6319C37.9132 80.9276 36.694 80.7079 36.185 80.6144Z" fill="#0C0C0C"/>
<path d="M39.2768 82.0389C38.5964 82.9439 38.3998 83.3328 37.1629 83.4029L37.4846 84.1126L37.5354 84.1998C38.2182 84.3073 39.7384 82.983 39.2768 82.0389Z" fill="#2E2E2E"/>
<path d="M33.0178 77.5622C32.7498 77.8791 33.148 78.5188 33.3463 78.8266L33.408 78.8054C33.5828 78.604 33.7668 78.4671 33.6216 78.1766C33.5308 77.9937 33.1755 77.6981 33.0178 77.5622Z" fill="#EBEBEA"/>
<path d="M95.7049 44.8798C96.0695 44.712 96.5224 44.8319 96.7165 45.1478C96.9106 45.4638 96.7738 45.8565 96.4107 46.0261C96.0445 46.1964 95.5902 46.0771 95.3946 45.7599C95.1991 45.4428 95.3373 45.0483 95.7049 44.8798Z" fill="#1C1C1C"/>
</svg>
