<svg width="32" height="32" viewBox="0 0 32 32" fill="none" xmlns="http://www.w3.org/2000/svg">
<path fill-rule="evenodd" clip-rule="evenodd" d="M6.14786 6.91491L6.15026 6.91427L6.15242 6.91369C6.1517 6.91389 6.15098 6.91408 6.15026 6.91427C6.14946 6.91449 6.14866 6.9147 6.14786 6.91491Z" fill="#1C1C1C"/>
<path fill-rule="evenodd" clip-rule="evenodd" d="M6.15242 6.91369C6.1517 6.91389 6.15098 6.91408 6.15026 6.91427C6.14946 6.91449 6.14866 6.9147 6.14786 6.91491L6.15026 6.91427L6.15242 6.91369Z" fill="#1C1C1C"/>
<path d="M20.5277 28.2762C20.1245 28.5629 19.586 28.9459 19.4934 29.0556C19.2797 29.1805 19.0531 29.317 18.8171 29.4592C17.6262 30.1767 16.1959 31.0385 14.9702 31.289C13.7647 31.0103 12.1882 30.1281 11.1381 29.4822C7.34393 27.1485 4.19674 23.7698 3.18447 19.3118C3.10354 19.0548 3.01761 18.6411 2.94656 18.2991C2.92508 18.1957 2.90495 18.0988 2.88674 18.0148C2.42395 14.791 2.27002 11.6214 2.43852 8.36635C2.45595 8.21628 2.46032 8.01008 2.46527 7.77705C2.48286 6.94851 2.50764 5.78082 3.15182 5.59099C3.69866 5.42987 4.23746 5.2844 4.77327 5.13975C5.83411 4.85335 6.88323 4.57012 7.95977 4.17477C9.51352 3.59221 11.0168 2.88324 12.4546 2.05483C12.5269 2.01412 12.6503 1.93889 12.8056 1.84411C13.5049 1.41755 14.8533 0.595088 15.1201 0.742592C15.473 0.937736 15.8208 1.13243 16.1657 1.32545C18.2946 2.51716 20.31 3.64538 22.7225 4.42452C23.6278 4.74587 24.395 4.93509 25.1598 5.12372C25.7164 5.26099 26.2717 5.39795 26.8781 5.5853C27.4657 6.18736 27.4732 7.32635 27.4796 8.28554C27.4805 8.42859 27.4814 8.56764 27.4842 8.70032C27.56 12.271 27.5794 16.5789 26.4816 19.985C26.4216 20.1711 23.7166 23.2934 23.3936 23.6355C23.878 22.8237 24.452 21.8353 24.7777 20.9417C26.1653 17.1352 26.2123 12.9465 26.0966 8.94291C26.0943 8.86421 26.0934 8.77561 26.0923 8.68047C26.0916 8.61189 26.0909 8.53986 26.0895 8.46556L26.0893 8.45068C26.0788 7.89373 26.0352 7.21459 25.7403 6.90527C25.4158 6.63448 24.8033 6.48602 24.324 6.36983C24.235 6.34826 24.1506 6.3278 24.0735 6.30788C21.8206 5.72595 19.1844 4.68512 17.1838 3.51348L17.0782 3.4516C15.8241 2.71687 15.2949 2.40684 14.793 2.44611C14.4266 2.47479 14.0748 2.68961 13.4662 3.06126L13.4252 3.0863C13.1143 3.27611 12.7373 3.50518 12.2601 3.7698C10.6005 4.68998 8.5734 5.5074 6.7407 6.07245C6.1879 6.24848 5.73813 6.34852 5.37223 6.42991C4.08282 6.71671 3.83486 6.77186 3.78975 9.10413C3.70844 13.3058 3.66985 18.5245 5.81353 22.2742C7.58857 25.4954 10.97 28.1797 14.4073 29.5673C15.2575 29.9105 16.4812 29.2127 17.296 28.7481L17.2975 28.7473L17.302 28.7447C17.3254 28.7314 17.3485 28.7182 17.3711 28.7053L17.3804 28.7L17.401 28.6883L17.4182 28.6785C17.4324 28.6705 17.4463 28.6626 17.4602 28.6548C18.323 28.1597 19.1541 27.611 19.9483 27.012L20.9301 27.9864C20.8541 28.0441 20.7038 28.1509 20.5277 28.2762Z" fill="#F2F2F2"/>
<path fill-rule="evenodd" clip-rule="evenodd" d="M20.0798 29.4498C20.373 29.2755 20.7998 28.947 21.146 28.6805C21.2398 28.6083 21.3277 28.5407 21.4053 28.4819C21.7196 28.7884 22.5845 29.3347 22.9911 28.9299C23.8588 28.0658 24.6294 27.0943 25.3993 26.1237C25.7963 25.6232 26.1931 25.1229 26.603 24.6377C27.3692 23.7355 28.1409 22.8378 28.9178 21.9448C29.0022 21.8477 29.103 21.7391 29.2112 21.6226C29.6689 21.1297 30.2584 20.4947 30.2963 19.9788C30.3409 19.3708 29.0958 18.3053 28.4937 18.2425C28.1574 18.2074 27.8608 18.4839 27.6212 18.7073C27.5887 18.7376 27.5573 18.7669 27.5269 18.7944C28.1079 16.6176 28.5767 7.30263 27.7703 5.67143C27.6391 5.40597 27.4656 5.21208 27.2072 5.06599C26.8241 4.84936 25.7392 4.56987 24.7423 4.31308C24.1182 4.15233 23.5287 4.00048 23.1675 3.8785C21.7936 3.40617 19.5608 2.51967 18.3175 1.77472C17.987 1.57669 17.6921 1.3968 17.4265 1.2348C16.1839 0.476733 15.5837 0.110589 14.9855 0.113296C14.4272 0.115822 13.8703 0.439486 12.7937 1.06515C12.5118 1.22898 12.1943 1.41351 11.8318 1.61841C10.5566 2.34431 9.22568 2.96784 7.85168 3.48311C7.0719 3.782 6.0175 4.14057 5.21861 4.356C4.81753 4.46415 4.45323 4.53969 4.12491 4.60777C2.66959 4.90953 1.92121 5.0647 1.81049 7.26396C1.6216 11.0161 1.62032 14.7828 2.30972 18.4887C2.3317 18.5811 2.35432 18.6787 2.3776 18.7792C2.46499 19.1564 2.56173 19.5739 2.6696 19.9038C4.20059 25.0713 7.17539 27.9741 11.835 30.6749C12.9184 31.3029 14.5369 32.192 15.7326 31.7821C16.783 31.4221 19.3111 30.1446 20.0798 29.4498ZM25.3475 7.39288C24.8583 7.19201 24.1833 7.00741 23.5716 6.84012C23.3366 6.77585 23.111 6.71413 22.9088 6.65503C21.889 6.34822 20.8858 5.98888 19.9032 5.57835C18.8921 5.14213 17.9029 4.65689 16.939 4.12436C16.7896 4.04007 16.5919 3.92315 16.3765 3.79575C15.8817 3.50308 15.2934 3.15512 14.9814 3.02052C14.5415 3.21983 14.1209 3.46886 13.705 3.71512L13.6373 3.75518C12.4018 4.48607 11.1202 5.14979 9.79035 5.69299C8.78805 6.10717 7.76275 6.46325 6.71948 6.75958C6.58218 6.79877 6.39292 6.84944 6.18136 6.90596C6.17176 6.90853 6.16211 6.9111 6.15242 6.91369C6.1517 6.91389 6.15098 6.91408 6.15026 6.91427C6.14946 6.91449 6.14866 6.9147 6.14786 6.91491C6.0774 6.93374 6.00486 6.95312 5.9309 6.97296C5.40195 7.11488 4.81041 7.27783 4.54 7.38937C4.3033 12.158 4.17545 17.5656 6.33633 21.9333C6.44578 22.0278 6.64672 22.3496 6.86283 22.6956C7.0824 23.0471 7.31766 23.4238 7.48859 23.6128C8.3668 22.0937 9.64242 21.7147 11.1531 21.2659C11.3098 21.2193 11.4691 21.172 11.6307 21.1226C11.7187 21.0957 11.8005 21.0714 11.8761 21.049C12.6904 20.8075 12.8076 20.7727 12.8017 19.7658C11.7187 18.9584 11.4458 18.4069 11.0067 17.175C9.39122 17.1452 8.82046 15.9052 9.46812 14.5106C8.45227 13.7251 8.30474 12.854 9.01721 11.7927C8.96787 11.7173 8.92299 11.639 8.88272 11.5584C8.31446 10.4428 8.95086 9.7025 9.97086 9.24915C10.261 8.1648 10.8036 7.42177 12.0377 7.76015L12.0543 7.73529C12.9391 6.43123 14.0919 6.19849 15.3246 7.2429C16.7921 6.28041 17.9762 6.83115 18.6838 8.32571C20.4124 8.31587 21.1429 9.62249 20.4742 11.1648C21.6526 12.28 21.1067 13.0052 20.679 13.5735C20.4629 13.8606 20.277 14.1076 20.3585 14.3447C20.8543 15.787 20.7751 17.1638 18.89 17.1838C18.4835 18.4282 18.1418 18.9079 17.1587 19.7414C17.1589 19.8264 17.1573 19.9053 17.1558 19.9787C17.1451 20.5014 17.1401 20.7479 17.8166 20.9523C18.0872 21.034 18.3441 21.1077 18.589 21.1779C20.2403 21.6513 21.3516 21.97 22.5376 23.5835C23.1422 22.7236 23.8 21.6659 24.1686 20.6817C25.5865 16.8961 25.6581 11.3837 25.3475 7.39288ZM20.5277 28.2762C20.1245 28.5629 19.586 28.9459 19.4934 29.0556C19.2797 29.1805 19.0531 29.317 18.8171 29.4592C17.6262 30.1767 16.1959 31.0385 14.9702 31.289C13.7647 31.0103 12.1882 30.1281 11.1381 29.4822C7.34393 27.1485 4.19674 23.7698 3.18447 19.3118C3.10354 19.0548 3.01761 18.6411 2.94656 18.2991C2.92508 18.1957 2.90495 18.0988 2.88674 18.0148C2.42395 14.791 2.27002 11.6214 2.43852 8.36635C2.45595 8.21628 2.46032 8.01008 2.46527 7.77705C2.48286 6.94851 2.50764 5.78082 3.15182 5.59099C3.69866 5.42987 4.23746 5.2844 4.77327 5.13975C5.83411 4.85335 6.88323 4.57012 7.95977 4.17477C9.51352 3.59221 11.0168 2.88324 12.4546 2.05483C12.5269 2.01412 12.6503 1.93889 12.8056 1.84411C13.5049 1.41755 14.8533 0.595088 15.1201 0.742592C15.473 0.937736 15.8208 1.13243 16.1657 1.32545C18.2946 2.51716 20.31 3.64538 22.7225 4.42452C23.6278 4.74587 24.395 4.93509 25.1598 5.12372C25.7164 5.26099 26.2717 5.39795 26.8781 5.5853C27.4657 6.18736 27.4732 7.32635 27.4796 8.28554C27.4805 8.42859 27.4814 8.56764 27.4842 8.70032C27.56 12.271 27.5794 16.5789 26.4816 19.985C26.4216 20.1711 23.7166 23.2934 23.3936 23.6355C23.878 22.8237 24.452 21.8353 24.7777 20.9417C26.1653 17.1352 26.2123 12.9465 26.0966 8.94291C26.0943 8.86421 26.0934 8.77561 26.0923 8.68047C26.0916 8.61189 26.0909 8.53986 26.0895 8.46556L26.0893 8.45068C26.0788 7.89373 26.0352 7.21459 25.7403 6.90527C25.4158 6.63448 24.8033 6.48602 24.324 6.36983C24.235 6.34826 24.1506 6.3278 24.0735 6.30788C21.8206 5.72595 19.1844 4.68512 17.1838 3.51348L17.0782 3.4516C15.8241 2.71687 15.2949 2.40684 14.793 2.44611C14.4266 2.47479 14.0748 2.68961 13.4662 3.06126L13.4252 3.0863C13.1143 3.27611 12.7373 3.50518 12.2601 3.7698C10.6005 4.68998 8.5734 5.5074 6.7407 6.07245C6.1879 6.24848 5.73813 6.34852 5.37223 6.42991C4.08282 6.71671 3.83486 6.77186 3.78975 9.10413C3.70844 13.3058 3.66985 18.5245 5.81353 22.2742C7.58857 25.4954 10.97 28.1797 14.4073 29.5673C15.2575 29.9105 16.4812 29.2127 17.296 28.7481L17.2975 28.7473L17.302 28.7447C17.3254 28.7314 17.3485 28.7182 17.3711 28.7053L17.3804 28.7L17.401 28.6883L17.4182 28.6785C17.4324 28.6705 17.4463 28.6626 17.4602 28.6548C18.323 28.1597 19.1541 27.611 19.9483 27.012L20.9301 27.9864C20.8541 28.0441 20.7038 28.1509 20.5277 28.2762ZM29.7102 19.9698C29.3094 19.516 28.9797 19.2172 28.4759 18.872C27.5964 19.7085 26.6273 20.8871 25.7035 22.0105C25.1665 22.6635 24.6449 23.2979 24.165 23.8356C23.961 24.0643 23.762 24.3083 23.5615 24.5541C23.1774 25.0249 22.788 25.5023 22.3481 25.8908C21.904 25.5889 21.5289 25.2034 21.1571 24.8212C20.8054 24.4597 20.4566 24.1013 20.0553 23.8196C19.6381 24.2078 19.3083 24.5524 18.9191 24.9702C19.2676 25.3761 19.6644 25.7652 20.0519 26.1452C20.1233 26.2153 20.1944 26.285 20.2648 26.3544C20.3416 26.4338 20.4355 26.5327 20.5413 26.6442C21.1047 27.2378 22.0067 28.1882 22.4741 28.448C23.0103 28.0752 24.2784 26.4678 25.2351 25.2549C25.6192 24.7681 25.9531 24.3448 26.1694 24.0904C26.8549 23.277 27.5468 22.4692 28.2452 21.6669C28.3525 21.5453 28.4794 21.4053 28.6142 21.2567C29.0052 20.8255 29.4636 20.32 29.7102 19.9698Z" fill="#1C1C1C"/>
<path fill-rule="evenodd" clip-rule="evenodd" d="M28.4759 18.872C28.9797 19.2172 29.3094 19.516 29.7102 19.9698C29.4636 20.32 29.0052 20.8255 28.6142 21.2567C28.4794 21.4053 28.3525 21.5453 28.2452 21.6669C27.5468 22.4692 26.8549 23.277 26.1694 24.0904C25.9531 24.3448 25.6192 24.7681 25.2351 25.2549C24.2784 26.4678 23.0103 28.0752 22.4741 28.448C22.0067 28.1882 21.1047 27.2378 20.5413 26.6442C20.4355 26.5327 20.3416 26.4338 20.2648 26.3544C20.1944 26.285 20.1233 26.2153 20.0519 26.1452C19.6644 25.7652 19.2676 25.3761 18.9191 24.9702C19.3083 24.5524 19.6381 24.2078 20.0553 23.8196C20.4566 24.1013 20.8054 24.4597 21.1571 24.8212C21.5289 25.2034 21.904 25.5889 22.3481 25.8908C22.788 25.5023 23.1774 25.0249 23.5615 24.5541C23.762 24.3083 23.961 24.0643 24.165 23.8356C24.6449 23.2979 25.1665 22.6635 25.7035 22.0105C26.6273 20.8871 27.5964 19.7085 28.4759 18.872Z" fill="#B5FE28"/>
<path fill-rule="evenodd" clip-rule="evenodd" d="M6.14786 6.91491L6.15026 6.91427L6.15242 6.91369L6.18136 6.90596C6.39292 6.84944 6.58218 6.79877 6.71948 6.75958C7.76275 6.46325 8.78805 6.10717 9.79035 5.69299C11.1202 5.14979 12.4018 4.48607 13.6373 3.75518L13.705 3.71512C14.1209 3.46886 14.5415 3.21983 14.9814 3.02052C15.2934 3.15512 15.8817 3.50308 16.3765 3.79575C16.5919 3.92315 16.7896 4.04007 16.939 4.12436C17.9029 4.65689 18.8921 5.14213 19.9032 5.57835C20.8858 5.98888 21.889 6.34822 22.9088 6.65503C23.111 6.71413 23.3366 6.77585 23.5716 6.84012C24.1833 7.00741 24.8583 7.19201 25.3475 7.39288C25.6581 11.3837 25.5865 16.8961 24.1686 20.6817C23.8 21.6659 23.1422 22.7236 22.5376 23.5835C21.3516 21.97 20.2403 21.6513 18.589 21.1779C18.3441 21.1077 18.0872 21.034 17.8166 20.9523C17.1401 20.7479 17.1451 20.5014 17.1558 19.9787C17.1573 19.9053 17.1589 19.8264 17.1587 19.7414C18.1418 18.9079 18.4835 18.4282 18.89 17.1838C20.7751 17.1638 20.8543 15.787 20.3585 14.3447C20.277 14.1076 20.4629 13.8606 20.679 13.5735C21.1067 13.0052 21.6526 12.28 20.4742 11.1648C21.1429 9.62249 20.4124 8.31587 18.6838 8.32571C17.9762 6.83115 16.7921 6.28041 15.3246 7.2429C14.0919 6.19849 12.9391 6.43123 12.0543 7.73529L12.0377 7.76015C10.8036 7.42177 10.261 8.1648 9.97086 9.24915C8.95086 9.7025 8.31446 10.4428 8.88272 11.5584C8.92299 11.639 8.96787 11.7173 9.01721 11.7927C8.30474 12.854 8.45227 13.7251 9.46812 14.5106C8.82046 15.9052 9.39122 17.1452 11.0067 17.175C11.4458 18.4069 11.7187 18.9584 12.8017 19.7658C12.8076 20.7727 12.6904 20.8075 11.8761 21.049C11.8005 21.0714 11.7187 21.0957 11.6307 21.1226C11.4691 21.172 11.3098 21.2193 11.1531 21.2659C9.64242 21.7147 8.3668 22.0937 7.48859 23.6128C7.31766 23.4238 7.0824 23.0471 6.86283 22.6956C6.64672 22.3496 6.44578 22.0278 6.33633 21.9333C4.17545 17.5656 4.3033 12.158 4.54 7.38937C4.81041 7.27783 5.40195 7.11488 5.9309 6.97296C6.00486 6.95312 6.0774 6.93374 6.14786 6.91491Z" fill="white"/>
</svg>
