<svg width="175" height="306" viewBox="0 0 175 306" fill="none" xmlns="http://www.w3.org/2000/svg">
<path d="M23.1001 0.296893C27.1191 -0.179644 39.6459 0.0628203 44.076 0.0561085L129.226 0.0733076C134.973 0.0758245 147.705 -0.318493 152.752 0.696666C174.689 5.11261 173.027 23.6028 172.998 40.2002L172.952 65.4512C172.952 67.5042 172.625 72.9404 173.653 74.3817C173.963 74.7634 174.441 75.545 174.433 76.0462C174.303 86.8342 174.504 97.6561 174.425 108.442C174.416 109.444 172.897 111.013 172.902 114.697L172.965 259.14C172.935 270.227 174.513 287.594 167.637 296.848C162.938 303.173 155.941 304.618 148.511 305.494C127.153 306.364 105.821 305.596 84.5469 305.667L46.2869 305.646C25.6885 305.612 2.35489 309.122 1.54103 279.667C1.14668 265.382 1.42354 250.962 1.41095 236.66L1.44035 152.82C1.44874 142.761 1.49071 132.677 1.35226 122.611C1.29773 118.611 -0.0489655 114.956 0.00137672 112.085C0.0810852 107.435 -0.00698294 102.555 0.190191 97.9049C-0.149619 96.448 1.88923 95.0318 1.59557 94.0066C-0.178996 87.7961 0.0852927 81.6363 0.118854 75.2291C0.135635 71.7486 -0.111863 69.6109 0.924348 66.3406C2.61081 61.0273 0.00979781 54.4846 0.0853111 48.9797C0.0978967 48.139 0.0181984 45.5453 0.148249 44.5989C1.36485 43.1719 1.3229 43.3426 1.4068 41.1252C1.78857 30.8255 -0.292257 19.1944 6.11379 10.2182C10.4097 4.19603 16.0102 1.552 23.1001 0.296893Z" fill="#1C1C1C"/>
<path d="M27.6609 10.3718C31.1471 10.2489 42.751 9.42754 44.2738 11.2666C47.6132 15.3062 44.8486 22.2827 55.7896 22.1904C77.722 22.0054 100.615 23.0537 122.552 21.8561C127.389 21.5918 128.123 13.94 129.759 11.1105C131.63 9.6398 135.091 10.2225 137.394 10.157C147.232 9.87681 161.353 10.2309 162.385 23.3201C163.14 32.8605 162.767 43.8125 162.737 53.7183L162.633 108.703C162.633 164.365 162.809 220.065 162.75 275.729C162.742 282.946 162.754 287.177 157.502 292.316C149.699 297.448 139.362 295.929 130.2 295.884L95.7655 295.843L50.4072 295.872C42.4154 295.898 34.4529 296.077 26.4108 295.788C19.5055 295.539 13.2169 290.849 12.4072 283.699C11.9709 279.832 12.1219 275.387 12.1093 271.464L12.0758 250.176L12.2814 42.0892C12.2478 27.3367 8.85391 12.6312 27.6609 10.3718Z" fill="#F2F2F2"/>
<path d="M43.8209 59.9231C49.7361 59.5355 88.4786 59.84 90.5007 61.4831C92.6486 67.8765 92.6737 136.007 90.5174 138.205C86.7585 140.012 69.6757 139.914 64.7674 139.913C60.2282 139.923 20.4453 139.909 18.612 138.505C17.5422 137.686 17.1814 134.739 16.9926 133.479C15.948 126.548 14.9244 65.6256 17.8443 61.6791C20.8312 60.0305 38.858 60.0795 43.8209 59.9231Z" fill="#F2F2F2"/>
<path d="M71.3705 66.1121C72.7046 66.0987 80.6293 65.8595 81.2292 66.7128C81.7788 67.4909 81.3593 68.1093 82.2738 68.8547C83.2135 68.0581 84.0736 67.3995 85.1853 66.8411L85.9824 67.1738C86.6411 68.6886 86.7963 72.6536 86.4019 74.2669C86.1964 75.1176 85.7265 75.2313 85.0469 75.655C84.1449 75.0258 83.2387 74.4041 82.3242 73.7895C82.1941 74.0043 82.0641 74.2178 81.9298 74.4297C79.526 78.208 70.9637 77.4437 70.4602 72.6892C70.3218 71.3846 70.5105 67.1402 71.3705 66.1121Z" fill="#1C1C1C"/>
<path d="M71.6802 67.2687L80.7166 67.3664C80.7712 69.9979 80.7082 72.5349 80.4481 75.1555C77.5954 75.3467 74.6378 75.1941 71.7725 75.1911L71.6802 67.2687Z" fill="#C7F654"/>
<path d="M84.3751 67.9993L84.9163 68.4885C85.4155 70.064 85.6043 72.0306 84.9709 73.5919L84.3038 73.6033C83.8675 73.4166 83.3893 73.2333 82.9907 72.9736C82.1391 72.4153 82.1265 72.0528 81.9839 71.1191C82.4034 69.8094 83.427 68.9415 84.3751 67.9993Z" fill="#D8EE8E"/>
<path d="M28.1347 247.436C48.3764 246.95 68.7524 247.568 89.011 247.49L116.343 247.422C121.679 247.423 127.212 247.162 132.519 247.722C134.738 247.957 136.828 248.849 138.183 250.698C139.252 252.157 139.441 253.866 139.118 255.595C138.594 258.387 137.063 259.811 134.814 261.377L130.279 261.867L57.3667 261.938C46.841 261.907 34.3099 262.694 24.0108 261.484C22.1943 261.27 20.6714 260.978 19.2828 259.702C17.8733 258.405 17.1013 256.544 17.0468 254.641C16.9964 252.774 17.8145 251.147 19.0856 249.83C21.5188 247.307 24.9002 247.533 28.1347 247.436Z" fill="#282524"/>
<path d="M23.1508 248.613C41.4208 247.849 59.9887 248.474 78.2797 248.472C85.4577 248.471 130.577 247.672 134.541 249.146C135.951 249.669 136.995 250.911 137.583 252.259C138.288 253.877 138.212 255.937 137.482 257.524C136.572 259.503 135.154 260.055 133.232 260.693C120.022 260.706 27.2998 262.271 21.5692 259.977C20.1051 259.379 18.9556 258.193 18.4102 256.709C17.8439 255.134 18.0201 253.485 18.7375 252C19.7149 249.981 21.1539 249.346 23.1508 248.613Z" fill="#FCFDFA"/>
<path d="M37.8549 253.006C38.6352 252.982 39.382 253.252 40.1748 253.265C41.2908 253.285 41.9914 253.402 43.015 253.856L42.7423 253.817C42.9688 254.023 43.187 254.212 43.3506 254.477C44.0219 255.563 44.1687 255.902 43.8289 257.059C42.4235 256.795 41.2236 256.633 39.7973 256.767C39.319 256.811 38.9247 256.448 38.5178 256.208L38.9247 256.394C38.48 255.219 38.0353 254.276 37.8549 253.006Z" fill="#D7D7D5"/>
<path d="M31.1178 252.801C31.4073 252.884 31.4996 252.899 31.8058 253.047C33.9034 254.061 32.7833 254.866 33.3664 256.54C32.8923 256.731 32.4099 256.952 31.8939 256.914C31.0716 256.854 31.0339 256.641 30.5431 256.036C30.2788 254.705 30.5892 253.982 31.1178 252.801Z" fill="#D7D7D5"/>
<path d="M54.317 253.461C54.875 253.392 55.1057 253.63 55.584 253.886C55.6972 254.183 55.8021 254.481 55.8734 254.791C56.1797 256.094 55.8567 257.14 55.177 258.245C54.2835 258.625 54.1828 258.617 53.2347 258.408L53.7045 257.603C53.973 257.491 53.8346 257.565 54.1576 257.319L54.4261 257.113L54.7491 257.128C53.9562 256.883 53.7297 256.859 53.155 256.227C54.145 256.202 54.296 256.315 55.0554 255.625L55.0092 254.558L54.0401 253.904L54.317 253.461Z" fill="#B0ACA8"/>
<path d="M24.4681 252.05C25.1226 252.268 25.4498 252.76 25.8735 253.271C26.2385 254.386 26.1546 255.13 25.928 256.269L25.1897 256.236C24.3255 255.049 24.5059 253.468 24.4681 252.05Z" fill="#B0ACA8"/>
<path d="M34.8339 252.849L35.9708 253.193L36.2099 254.024L35.8324 253.784C36.2183 254.826 36.5456 255.217 36.1554 256.33L35.438 256.619L35.0856 256.308L35.4632 256.283C34.7668 255.12 34.6116 254.175 34.8339 252.849Z" fill="#B0ACA8"/>
<path d="M45.8257 253.852L46.627 253.586L46.4466 253.99C46.7487 254.821 46.82 255.743 46.9458 256.614L46.0019 257.799C45.725 257.398 45.5656 257.024 45.3643 256.579C45.6747 256.272 45.7754 256.141 45.9642 255.732L45.4775 254.581L45.8257 253.852Z" fill="#B0ACA8"/>
<path d="M28.2608 252.124L28.6299 252.454C29.0872 253.601 28.7516 254.82 28.5754 256.01L27.5015 255.624C27.0819 254.418 27.8203 253.303 28.2608 252.124Z" fill="#B0ACA8"/>
<path d="M48.4851 254.243C48.8963 253.936 48.7704 253.949 49.3619 253.944L49.1438 256.557L48.8921 256.583L48.4012 256.08L48.4851 254.243Z" fill="#B0ACA8"/>
<path d="M98.2365 61.0723C101.026 60.2552 150.336 60.681 155.228 61.1831C157.64 62.6857 157.242 66.3528 157.363 68.9557C157.208 70.5133 157.019 73.2182 156.675 74.6511L156.587 78.5305C143.494 78.6811 130.397 78.6312 117.304 78.3808C110.646 78.3057 104.601 78.5079 97.8757 78.2323C97.9177 75.1293 97.28 63.614 98.4379 61.5904L98.2365 61.0723Z" fill="#D7D7D5"/>
<path d="M98.2365 61.0723C101.026 60.2552 150.336 60.681 155.228 61.1831C157.64 62.6857 157.242 66.3528 157.363 68.9557C157.208 70.5133 157.019 73.2182 156.675 74.6511C156.503 71.6027 157.283 64.6619 156.192 62.6647C153.411 61.2926 135.477 61.7951 131.441 61.7829C127.011 62.0137 116.695 61.9155 112.361 61.4801C108.695 61.465 101.857 61.2393 98.4379 61.5904L98.2365 61.0723Z" fill="#4C4B48"/>
<path d="M112.361 61.4801C116.951 61.2984 126.906 61.1709 131.441 61.7829C127.011 62.0137 116.695 61.9155 112.361 61.4801Z" fill="#B0ACA8"/>
<path d="M130.204 65.7797C130.589 66.0339 130.904 66.3087 131.185 66.6825C132.175 68.0106 133.363 70.819 133.01 72.442C131.873 72.059 131.55 71.309 130.837 70.3786C129.486 70.7691 128.739 71.8816 127.468 72.5129L127.313 71.9982C128.211 69.8907 129.075 67.7765 130.204 65.7797Z" fill="#1C1C1C"/>
<path d="M120.571 65.8535L121.192 66.3905C121.322 67.0814 121.402 67.8373 121.792 68.4376C122.111 68.9301 122.564 68.8793 123.113 68.9997C124.204 68.568 124.586 67.836 125.19 66.8913L125.446 66.4853L125.773 66.5725C125.975 68.816 126.058 70.8517 125.782 73.1031L125.035 72.356C124.947 71.744 124.909 70.9314 124.599 70.3924C124.271 69.821 123.768 69.8399 123.185 69.6944C121.893 70.1642 121.414 71.301 120.747 72.4223L121.058 71.8946C120.005 70.3601 120.508 67.7043 120.571 65.8535Z" fill="#1C1C1C"/>
<path d="M115.953 65.4587C117.287 65.7733 117.442 65.8484 118.554 66.6505L118.55 67.3267C117.664 67.2805 116.93 67.1916 116.049 67.0825C114.237 68.1073 114.145 69.5923 115.29 71.2057C116.943 71.9754 116.213 71.8202 118.222 71.5828L118.701 71.2547L118.751 71.8026C117.165 73.3392 115.626 73.5422 114.006 71.7384C112.84 69.0566 113.817 67.1278 115.953 65.4587Z" fill="#1C1C1C"/>
<path d="M133.459 66.2273C135.057 66.0548 136.857 65.6924 138.426 66.0968C138.611 67.3217 137.553 67.7072 137.306 68.7526C137.13 69.4875 137.335 70.793 137.348 71.5866L137.113 72.835L136.58 72.9902C135.67 71.3626 136.404 69.4531 135.833 67.638C134.936 67.3301 134.311 67.0612 133.623 66.3929C133.568 66.3388 133.513 66.2826 133.459 66.2273Z" fill="#1C1C1C"/>
<path d="M20.0548 33.0571C28.1683 32.9287 36.2776 32.8788 44.3911 32.9069C49.2827 32.899 54.061 32.8553 58.9651 33.0512C63.3701 32.8264 63.1561 37.0758 63.0848 40.4774C62.9967 44.421 64.3643 48.9519 60.4586 51.3472C47.6927 51.0422 34.4024 51.7998 21.649 50.9818C21.0449 50.9432 18.8969 50.6441 18.662 50.017C17.2734 46.2978 17.6342 39.789 17.995 35.8433C18.125 34.4666 19.2326 33.6016 20.0548 33.0571Z" fill="#C7F654"/>
<path d="M51.0359 37.7617C52.8315 37.6686 54.6606 37.471 56.3974 37.906L56.6365 38.4321L55.9065 38.8172L55.9527 41.5958L55.7429 42.3065L54.9123 42.3685C55.6213 43.6035 55.5542 44.0205 55.5625 45.422C56.1415 45.3008 55.9443 45.3465 56.582 45.5139L56.4477 46.193C54.7193 46.9552 53.1671 46.7442 51.2751 46.6838C51.1408 43.7113 51.0611 40.7367 51.0359 37.7617Z" fill="#1C1C1C"/>
<path d="M55.9531 41.5974C53.8514 41.2857 53.7843 41.5881 52.5341 40.3225L52.5761 39.5679C54.0234 38.5477 53.822 38.8741 55.907 38.8187L55.9531 41.5974Z" fill="#CEF06E"/>
<path d="M55.5627 45.4232C54.8579 45.3636 54.1028 45.2604 53.3938 45.1757C52.3995 44.1974 52.6009 44.6731 52.4751 43.4214C53.5071 42.3425 53.1882 42.6604 54.9124 42.3697C55.6214 43.6047 55.5543 44.0217 55.5627 45.4232Z" fill="#CEF06E"/>
<path d="M41.6686 37.5505L42.7468 37.9385C43.8333 39.056 45.1464 43.0554 45.8177 44.7338C46.5854 42.0318 46.9084 41.0444 48.125 38.4587C48.6872 38.0522 48.6536 38.006 49.329 37.9158L48.9766 38.3928L49.2954 38.8005L49.0983 39.3014C48.3809 41.312 47.3405 45.2023 45.5324 46.134L44.8066 45.7804C43.6487 44.0219 42.3986 39.7641 41.6686 37.5505Z" fill="#1C1C1C"/>
<path d="M23.6546 39.8118C24.4643 39.2887 25.4922 39.2471 26.3438 39.7031C27.1912 40.1595 27.724 41.0413 27.7366 42.0053C27.7449 42.9688 27.2289 43.8619 26.3899 44.3359C25.1481 45.0394 23.5666 44.6258 22.8282 43.4022C22.0857 42.1785 22.4548 40.5882 23.6546 39.8118Z" fill="#1C1C1C"/>
<path d="M31.9904 37.3309C34.1886 39.3327 32.0869 41.4792 33.0686 44.7277C34.9144 46.4472 35.7912 43.9366 37.5028 46.5756C35.9632 46.7622 33.4419 46.7035 31.8184 46.7144C31.6883 44.2952 31.3317 39.5294 31.9904 37.3309Z" fill="#1C1C1C"/>
<path d="M39.0333 37.6501C39.499 37.9861 39.5619 38.1321 39.9479 38.5868C40.4178 41.5136 40.3254 44.14 39.801 47.0567C37.8922 45.0457 38.6851 40.2148 39.0333 37.6501Z" fill="#1C1C1C"/>
<path d="M110.709 186.126C112.294 181.604 111.25 177.697 112.903 173.624C113.36 172.499 120.882 172.453 122.182 172.474C127.934 172.569 133.782 172.169 139.504 172.711C139.504 172.711 140.553 173.567 140.654 173.65C141.421 174.886 141.157 176.4 141.077 177.88L140.985 180.985C141.166 181.724 141.17 181.983 141.522 182.658C143.272 182.928 142.751 182.634 143.943 183.588C144.387 184.73 144.463 185.491 144.014 186.692C143.704 187.539 143.066 188.228 142.248 188.605C139.542 189.813 138.267 187.464 136.652 185.898L135.158 186.588C131.705 187.212 113.184 187.678 110.709 186.126Z" fill="#D7D7D5"/>
<path d="M141.522 182.658C143.272 182.928 142.751 182.634 143.943 183.588C144.387 184.73 144.463 185.491 144.014 186.692C143.704 187.539 143.066 188.228 142.248 188.605C139.542 189.813 138.267 187.464 136.652 185.898C137.541 181.653 139.165 184.51 141.522 182.658Z" fill="#1C1C1C"/>
<path d="M138.291 183.606C138.795 183.737 138.602 183.651 139 183.873C140.364 184.628 141.333 184.344 142.852 184.302C143.447 185.142 143.238 185.815 143.191 186.807C142.642 187.184 142.042 187.514 141.467 187.859C140.204 187.837 140.011 187.814 138.967 187.115C138.182 185.797 138.157 185.083 138.291 183.606Z" fill="#FFA0E4"/>
<path d="M110.709 186.126C112.294 181.604 111.25 177.697 112.903 173.624C113.36 172.499 120.882 172.453 122.182 172.474C127.934 172.569 133.782 172.169 139.504 172.711C139.504 172.711 140.553 173.567 140.654 173.65C141.421 174.886 141.157 176.4 141.077 177.88C140.763 176.921 140.465 175.67 140.196 174.671C139.781 173.967 139.731 173.58 138.741 173.507C130.85 172.923 120.857 173.271 113.045 173.504C113.037 177.879 113.469 181.902 111.43 185.818L110.709 186.126Z" fill="#4C4B48"/>
<path d="M111.43 185.817C115.705 186.206 133.056 185.628 135.158 186.587C131.705 187.211 113.184 187.676 110.709 186.125L111.43 185.817Z" fill="#B0ACA8"/>
<path d="M140.196 174.671C140.465 175.67 140.763 176.921 141.077 177.88L140.985 180.985C140.05 179.43 140.217 176.537 140.196 174.671Z" fill="#7F7A75"/>
<path d="M115.613 180.752C119.011 180.193 129.939 179.769 132.679 181.189C128.995 181.73 118.717 182.07 115.613 180.752Z" fill="#1C1C1C"/>
<path d="M111.577 112.806C111.208 110.33 110.889 107.811 111.761 105.431C114.954 102.368 139.189 104.432 144.639 103.803C150.743 103.098 155.614 106.912 151.817 113.075C150.151 113.875 148.524 114.08 146.686 113.814C145.877 114.084 143.62 114.352 142.814 114.269C137.453 113.721 115.017 115.644 111.577 112.806Z" fill="#D7D7D5"/>
<path d="M111.577 112.806C111.208 110.33 110.889 107.811 111.761 105.431C114.954 102.368 139.189 104.432 144.639 103.803C150.743 103.098 155.614 106.912 151.817 113.075C152.572 104.474 151.431 104.538 143.213 104.7C139.269 104.675 115.717 104.364 113.217 104.873C111.61 106.925 112.16 109.508 112.319 112.241L111.577 112.806Z" fill="#625F5F"/>
<path d="M112.319 112.242C116.921 114.862 140.364 111.79 146.686 113.815C145.876 114.085 143.619 114.353 142.814 114.27C137.453 113.722 115.017 115.645 111.577 112.807L112.319 112.242Z" fill="#7F7A75"/>
<path d="M113.217 104.875C115.717 104.366 139.269 104.677 143.212 104.701C136.152 105.573 120.772 104.965 113.217 104.875Z" fill="#B0ACA8"/>
<path d="M130.422 109.798L118.919 109.204L118.554 108.616L118.491 109.158L117.413 108.935L118.08 108.634L118.193 109.068L118.642 109.121L118.923 108.526C122.048 108.33 140.411 106.824 142.026 107.866C138.636 108.558 136.077 108.402 132.624 108.349L132.952 109.115L131.143 109.341L130.422 109.798Z" fill="#282524"/>
<path d="M131.144 109.342C129.973 109.065 129.612 108.975 128.53 108.464C129.877 108.026 131.181 108.25 132.624 108.35L132.952 109.116L131.144 109.342Z" fill="#D7D7D5"/>
<path d="M132.952 109.116L133.669 109.87C132.578 110.305 131.626 109.994 130.422 109.8L131.144 109.342L132.952 109.116Z" fill="#7F7A75"/>
<path d="M113.398 86.0648C116.196 84.8571 132.603 85.4469 136.27 86.1374C138.279 86.5154 138.472 93.6311 137.063 95.1136C136.895 95.2764 136.345 95.7776 136.152 95.8221C132.339 96.7072 114.203 97.0101 111.485 96.1522C110.797 93.8585 112.84 92.6965 112.017 89.1984C111.72 87.9198 112.634 86.9164 113.398 86.0648Z" fill="#E0E0DE"/>
<path d="M113.398 86.0648L113.62 86.5261C112.575 88.1805 113.159 92.745 112.55 95.5983C116.192 95.5971 135.091 96.0686 136.815 94.7094L137.063 95.1136C136.895 95.2764 136.345 95.7776 136.152 95.8221C132.339 96.7072 114.203 97.0101 111.485 96.1522C110.797 93.8585 112.84 92.6965 112.017 89.1984C111.72 87.9198 112.634 86.9164 113.398 86.0648Z" fill="#625F5F"/>
<path d="M113.398 86.0648C116.196 84.8571 132.603 85.4469 136.27 86.1374C138.279 86.5154 138.472 93.6311 137.063 95.1136L136.815 94.7094C136.899 92.2273 137.289 89.1858 135.993 87.1085C133.484 85.7917 117.454 86.4371 113.62 86.5261L113.398 86.0648Z" fill="#7F7A75"/>
<path d="M115.545 88.8773C118.524 88.3743 131.709 88.0454 133.866 89.3206C130.904 89.8211 117.811 90.3325 115.545 88.8773Z" fill="#282524"/>
<path d="M115.839 91.8231C118.201 91.3642 124.217 90.9476 126.23 92.2505C123.541 92.5559 118.205 93.113 115.839 91.8231Z" fill="#282524"/>
<path d="M157.363 68.9551C158.508 110.044 158.562 151.157 157.53 192.25C157.417 201.46 157.405 210.672 157.493 219.883C157.526 223.732 158.214 239.183 156.276 241.541C150.592 243.73 120.458 242.051 112.428 242.503C110.41 242.81 109.907 242.631 107.901 242.126L99.1419 241.813C108.266 241.003 150.185 243.106 155.831 240.906C157.094 238.829 156.587 192.139 156.603 185.064C156.851 149.553 156.847 114.041 156.587 78.5299L156.675 74.6504C157.019 73.2175 157.207 70.5126 157.363 68.9551Z" fill="#282524"/>
<path d="M107.902 242.127C109.291 242.038 110.864 241.795 112.144 242.219L112.429 242.504C110.411 242.811 109.908 242.632 107.902 242.127Z" fill="#D7D7D5"/>
<path d="M118.948 156.281C123.768 156.174 135.808 154.931 139.655 156.781C142.672 158.234 141.753 161.34 142.68 164.07C142.839 164.53 142.873 164.792 142.756 165.284L141.606 165.417C136.895 165.415 120.819 166.909 117.735 163.767C116.787 162.801 116.741 161.878 116.838 160.598C116.993 158.552 117.375 157.607 118.948 156.281Z" fill="#282524"/>
<path d="M118.814 157.119C122.64 157.074 136.811 156.271 139.471 157.38C140.167 157.67 140.733 158.24 140.943 158.982C141.325 160.321 141.635 163.505 141.023 164.628C136.265 164.573 122.577 165.898 119.069 163.668C118.298 163.178 117.949 162.594 117.756 161.728C117.446 160.332 118.033 158.279 118.814 157.119Z" fill="#D7D7D5"/>
<path d="M121.045 160.206C124.871 159.623 135.288 159.308 138.527 160.62C135.401 161.068 123.252 161.735 121.045 160.206Z" fill="#4C4B48"/>
<path d="M122.979 121.018C127.028 121.004 134.726 119.887 138.325 121.034C142.982 122.52 140.947 125.923 142.558 128.881C142.894 129.498 143.032 129.709 142.982 130.413L141.874 131.031C137.268 131.003 125.417 132.709 122.161 129.618C120.978 128.493 120.92 127.187 120.94 125.661C120.974 123.405 121.373 122.565 122.979 121.018Z" fill="#282524"/>
<path d="M122.988 121.885C127.229 121.821 136.882 120.771 140.259 122.665C141.338 124.141 140.914 126.294 141.321 128.048C141.447 128.592 141.56 129.138 141.677 129.684L141.052 130.164C134.856 130.141 128.651 130.191 122.459 129.908C122.329 129.216 122.233 128.522 122.145 127.824C121.855 125.56 121.478 123.837 122.988 121.885Z" fill="#D7D7D5"/>
<path d="M113.313 138.559C116.72 138.419 120.147 138.252 123.562 138.259C125.677 138.264 128.475 138.309 130.006 140.018C130.979 141.099 131.13 142.339 131.042 143.725C130.887 146.246 130.736 147.664 128.815 149.371C124.724 149.514 114.438 150.295 111.019 148.655L110.918 147.888C112.47 144.72 111.22 141.5 113.313 138.559Z" fill="#4C4B48"/>
<path d="M113.07 139.543C120.45 139.247 134.457 136.122 129.23 148.464C126.919 148.944 114.925 148.711 112.265 148.376C113.028 146.434 112.907 141.928 113.07 139.543Z" fill="#D7D7D5"/>
<path d="M112.265 148.378C117.114 148.087 124.305 148.235 129.23 148.465C126.919 148.946 114.925 148.712 112.265 148.378Z" fill="#7F7A75"/>
<path d="M115.902 143.416C118.642 142.918 124.146 142.626 126.634 143.847C123.919 144.204 118.285 144.745 115.902 143.416Z" fill="#282524"/>
<path d="M98.2365 61.0723L98.4379 61.5904C97.28 63.614 97.9177 75.1293 97.8757 78.2323C98.0351 112.895 98.014 147.558 97.8127 182.22C98.228 196.794 97.6952 211.554 97.863 226.144C97.8924 228.936 97.8043 231.747 97.67 234.536C96.9611 231.689 96.6968 220.108 97.0827 217.27C95.7277 185.272 96.5374 147.417 96.7891 115.091L96.9317 81.8817C96.9401 76.0571 96.8981 70.0702 97.0827 64.2406C97.1373 62.4624 97.2884 62.3711 98.2365 61.0723Z" fill="#1C1C1C"/>
<path d="M97.8124 182.219C98.2277 196.792 97.6949 211.553 97.8627 226.143C97.8921 228.935 97.804 231.746 97.6697 234.535C96.9608 231.688 96.6964 220.107 97.0824 217.268C97.5984 214.621 97.4138 208.416 97.4516 205.613C97.5565 197.915 97.2586 189.886 97.8124 182.219Z" fill="#625F5F"/>
<path d="M60.4461 290.567C66.3655 290.335 112.051 290.064 113.775 290.711C114.367 290.933 114.316 291.116 114.564 291.695L114.136 292.691C107.898 293.326 101.282 292.891 94.9934 292.897C84.6355 292.909 74.2483 293.078 63.8945 292.881C62.4766 292.854 61.2935 292.94 60.2741 291.88L60.4461 290.567Z" fill="#1C1C1C"/>
<path d="M147.836 224.115C148.499 224.151 149.154 224.223 149.783 224.448C150.664 224.761 151.335 225.375 151.704 226.241C152.375 227.817 151.864 229.696 151.163 231.172C150.211 233.187 147.908 235.842 145.63 236.369C144.375 236.659 143.591 235.786 142.634 235.118C141.548 234.184 140.411 233.165 139.651 231.939C138.674 230.366 137.73 228.082 138.225 226.23C138.368 225.694 138.871 225.211 139.362 224.972C141.665 223.855 142.97 225.156 145.051 225.965L147.836 224.115Z" fill="#1C1C1C"/>
<path d="M147.584 225.342C147.781 225.347 147.999 225.347 148.196 225.373C149.514 225.545 149.933 225.97 150.688 226.955C150.944 228.225 150.789 229.176 150.311 230.357C149.392 232.629 147.68 234.064 145.482 235.024C144.06 234.939 143.75 234.483 142.692 233.597C141.665 232.496 140.67 231.365 140.054 229.977C139.424 228.561 139.286 227.58 139.869 226.119C140.226 225.784 140.469 225.393 140.977 225.362C142.42 225.273 144.085 227.209 145.046 228.108C145.906 227.202 146.753 226.279 147.584 225.342Z" fill="#FFA0E4"/>
<path d="M137.566 208.191C138.153 208.178 138.841 208.131 139.412 208.257C140.259 208.447 140.985 208.985 141.413 209.739C142.109 210.954 141.899 212.554 141.476 213.832C140.825 215.816 139.042 218.259 137.05 219.073C135.812 219.578 135.149 219.029 134.037 218.526C131.86 217.157 129.847 214.911 129.326 212.316C129.1 211.165 129.36 210.669 129.93 209.728C132.645 208.034 132.909 209.605 135.355 209.794C136.064 209.848 137.02 208.681 137.566 208.191Z" fill="#1C1C1C"/>
<path d="M136.018 212.035C136.651 210.891 136.911 210.19 138.065 209.526C139.437 209.397 138.904 209.249 140.045 210.123C141.195 212.835 140.356 214.308 138.581 216.447C137.746 217.338 137.629 217.457 136.509 217.933C133.123 217.724 130.925 214.921 130.786 211.657C131.344 210.399 130.967 210.788 132.2 210.195C133.765 210.108 134.734 211.082 136.018 212.035Z" fill="#FFA0E4"/>
<path d="M20.6508 184.57C22.4337 183.791 24.4977 184.039 26.0416 185.219C27.5854 186.399 28.3699 188.324 28.0846 190.247C27.7994 192.169 26.4947 193.787 24.6781 194.471C21.9639 195.491 18.9349 194.164 17.8442 191.48C16.7534 188.796 17.9994 185.731 20.6508 184.57Z" fill="#1C1C1C"/>
<path d="M21.1415 185.469C23.302 184.573 25.7814 185.566 26.7253 187.705C27.6734 189.844 26.7379 192.346 24.6193 193.34C23.2056 194.004 21.5443 193.85 20.2773 192.939C19.0104 192.028 18.3349 190.501 18.5153 188.951C18.6957 187.4 19.6984 186.068 21.1415 185.469Z" fill="#D7D7D5"/>
<path d="M20.9906 209.685C22.8071 209.036 24.8334 209.42 26.2891 210.69C27.7449 211.959 28.3993 213.915 28.005 215.805C27.6106 217.695 26.222 219.223 24.3803 219.802C21.6073 220.673 18.6455 219.164 17.7226 216.407C16.7996 213.65 18.2512 210.662 20.9906 209.685Z" fill="#1C1C1C"/>
<path d="M21.2794 210.626C23.5071 209.814 25.9738 210.963 26.7877 213.194C27.6016 215.425 26.452 217.891 24.2202 218.704C21.9884 219.516 19.5217 218.366 18.712 216.136C17.8981 213.905 19.0476 211.438 21.2794 210.626Z" fill="#D7D7D5"/>
<path d="M21.2883 160.98C24.0529 160.195 26.9434 161.742 27.8244 164.479C28.7054 167.216 27.258 170.159 24.5521 171.134C22.7188 171.795 20.6674 171.402 19.2075 170.11C17.7475 168.818 17.1099 166.831 17.542 164.929C17.9741 163.027 19.4088 161.513 21.2883 160.98Z" fill="#1C1C1C"/>
<path d="M21.8969 161.913C24.1916 161.447 26.436 162.898 26.952 165.179C27.4681 167.46 26.0669 169.736 23.7973 170.302C22.2829 170.679 20.6845 170.208 19.6189 169.071C18.5491 167.934 18.1842 166.308 18.6582 164.823C19.1281 163.337 20.3698 162.224 21.8969 161.913Z" fill="#D7D7D5"/>
<path d="M21.4098 226.903C23.285 226.412 25.2777 226.978 26.616 228.38C27.9543 229.782 28.4241 231.799 27.8494 233.649C27.2704 235.5 25.735 236.891 23.8388 237.283C21.0071 237.868 18.2256 236.091 17.567 233.276C16.9083 230.461 18.6116 227.635 21.4098 226.903Z" fill="#1C1C1C"/>
<path d="M20.6505 228.332C22.014 227.561 23.6878 227.584 25.0303 228.393C26.3769 229.202 27.1782 230.671 27.1363 232.238C27.0943 233.805 26.2091 235.228 24.8247 235.961C22.7229 237.073 20.1136 236.291 18.9725 234.205C17.8314 232.119 18.5781 229.502 20.6505 228.332Z" fill="#D7D7D5"/>
<path d="M146.913 122.9C148.305 122.19 149.979 122.297 151.271 123.178C152.568 124.059 153.281 125.575 153.13 127.134C152.983 128.692 151.997 130.047 150.562 130.669C148.431 131.591 145.956 130.655 144.97 128.555C143.984 126.455 144.84 123.95 146.913 122.9Z" fill="#282524"/>
<path d="M148.415 123.356C150.269 123.147 151.947 124.469 152.178 126.322C152.409 128.175 151.104 129.868 149.254 130.118C148.037 130.283 146.829 129.782 146.087 128.806C145.34 127.83 145.181 126.531 145.663 125.403C146.145 124.275 147.194 123.493 148.415 123.356Z" fill="#E0E0DE"/>
<path d="M143.451 195.83C146.392 197.13 149.581 196.04 151.091 197.03C151.628 197.38 151.557 197.755 151.678 198.342C151.259 200.044 150.495 201.217 149.493 202.638C148.578 203.381 147.546 204.046 146.585 204.735C144.861 203.369 142.365 201.537 142.059 199.195C141.866 197.716 142.566 196.881 143.451 195.83Z" fill="#1C1C1C"/>
<path d="M148.759 196.717L150.026 197.65C150.37 198.827 150.42 199.666 149.766 200.812C149.245 201.718 148.083 202.624 147.047 202.831C146.074 203.026 145.453 202.356 144.681 201.846C144.283 201.272 143.842 200.681 143.523 200.057C143.188 199.393 142.881 198.717 143.141 198.013C144.543 197.484 145.47 198.669 146.854 198.58C147.324 198.55 148.394 197.116 148.759 196.717Z" fill="#FFA0E4"/>
<path d="M147.244 157.365C148.662 156.769 150.286 156.979 151.502 157.915C152.719 158.851 153.34 160.369 153.126 161.889C152.912 163.409 151.901 164.698 150.47 165.263C148.297 166.124 145.835 165.075 144.954 162.91C144.069 160.746 145.092 158.272 147.244 157.365Z" fill="#282524"/>
<path d="M147.21 157.805C148.309 157.822 149.417 157.797 150.382 158.394C151.137 158.859 151.703 159.55 151.909 160.422C152.286 162.067 151.493 163.408 150.633 164.718C149.27 164.693 147.789 164.757 146.719 163.765C145.897 163.007 145.49 162.214 145.503 161.087C145.515 159.689 146.329 158.766 147.21 157.805Z" fill="#E0E0DE"/>
<path d="M103.677 140.986C105.078 140.345 106.715 140.52 107.948 141.441C109.181 142.362 109.811 143.884 109.592 145.408C109.374 146.931 108.342 148.214 106.899 148.752C104.776 149.542 102.41 148.513 101.542 146.422C100.678 144.331 101.617 141.929 103.677 140.986Z" fill="#282524"/>
<path d="M103.896 141.854C105.452 141.058 107.357 141.614 108.238 143.122C109.123 144.629 108.674 146.563 107.218 147.528C106.199 148.202 104.894 148.259 103.82 147.675C102.751 147.091 102.088 145.962 102.104 144.742C102.121 143.521 102.809 142.41 103.896 141.854Z" fill="#E0E0DE"/>
<path d="M104.206 88.4822C106.416 87.8018 108.762 89.033 109.454 91.2386C110.15 93.4447 108.934 95.7972 106.731 96.5053C104.508 97.2197 102.129 95.9897 101.428 93.7644C100.728 91.539 101.974 89.1685 104.206 88.4822Z" fill="#282524"/>
<path d="M104.496 89.4147C106.228 88.9058 108.053 89.8841 108.586 91.6107C109.119 93.3373 108.171 95.173 106.451 95.733C105.314 96.1026 104.072 95.8324 103.191 95.0257C102.31 94.2195 101.932 93.0017 102.205 91.8393C102.474 90.6769 103.35 89.7503 104.496 89.4147Z" fill="#D7D7D5"/>
<path d="M104.315 174.96C106.463 174.412 108.669 175.636 109.341 177.751C110.012 179.865 108.917 182.137 106.845 182.931C105.393 183.488 103.753 183.194 102.586 182.168C101.416 181.143 100.913 179.555 101.273 178.043C101.634 176.531 102.805 175.344 104.315 174.96Z" fill="#282524"/>
<path d="M103.581 176.332C105.07 175.349 107.076 175.752 108.07 177.234C109.068 178.716 108.682 180.724 107.21 181.733C105.716 182.755 103.678 182.364 102.671 180.863C101.66 179.363 102.071 177.328 103.581 176.332Z" fill="#E0E0DE"/>
<path d="M33.7523 144.805C34.5745 144.918 35.4933 145.029 36.2358 145.415C37.4566 146.053 38.1866 147.264 38.539 148.564C38.883 149.801 38.7026 151.125 38.0398 152.226L36.9532 152.056C36.1981 152.233 35.3003 152.411 34.5242 152.351C33.4754 152.269 32.242 151.751 31.5876 150.901C31.0086 150.146 30.8702 149.233 31.0086 148.307C31.2687 146.621 32.4979 145.777 33.7523 144.805Z" fill="#282524"/>
<path d="M34.2342 145.958C35.7361 145.66 37.2044 146.599 37.5652 148.087C37.926 149.575 37.045 151.083 35.5725 151.503C34.5656 151.791 33.4833 151.503 32.7491 150.755C32.015 150.006 31.7507 148.916 32.0611 147.915C32.3716 146.914 33.2064 146.163 34.2342 145.958Z" fill="#FCFDFA"/>
<path d="M19.8955 144.661C22.1483 145.896 23.7089 144.996 25.882 145.825C26.6749 146.127 26.6414 146.354 26.9854 147.09C26.9308 148.343 26.4316 149.125 25.8065 150.162C25.0807 150.878 24.4934 151.375 23.5537 151.78C22.7021 151.774 21.9386 151.725 21.1624 151.337C19.8997 150.709 19.1697 149.586 18.8425 148.24C18.4649 146.679 19.132 145.9 19.8955 144.661Z" fill="#1C1C1C"/>
<path d="M20.1132 145.665C22.4583 147.077 24.0525 145.938 25.5124 146.852C25.827 148.017 25.4285 148.807 25.0258 149.887C23.9979 150.645 23.8133 150.849 22.559 150.917C21.6738 150.586 21.0319 150.279 20.5285 149.444C19.7231 148.105 19.7566 147.103 20.1132 145.665Z" fill="#FFA0E4"/>
<path d="M46.837 185.793C51.5734 185.615 59.389 184.813 63.8821 185.906L63.7772 186.362C61.6964 187.616 52.8404 187.136 49.9583 187.193C46.8119 187.257 34.7885 188.078 32.6196 187.017L33.0601 186.501C37.4315 185.725 42.3818 185.97 46.837 185.793Z" fill="#1C1C1C"/>
<path d="M73.4678 42.4778C76.1695 42.4002 79.7774 43.2656 80.0081 46.4755C79.1313 47.3417 79.3788 47.0665 77.8392 47.2406C75.5151 47.2985 72.2764 47.7646 70.5732 45.9914L70.6193 44.9641C71.5842 43.5844 72.0582 43.3729 73.4678 42.4778Z" fill="#1C1C1C"/>
<path d="M72.5871 43.7629C74.4623 43.7029 77.9233 43.4118 78.6155 45.4824L78.0534 46.2308C76.2117 46.2203 73.6653 46.6335 72.0879 45.93L71.79 45.1199L72.5871 43.7629Z" fill="#FCFDFA"/>
<path d="M45.0746 162.275C47.6043 162.269 59.2836 161.773 60.7268 162.886C60.6806 162.936 60.6429 162.993 60.5884 163.036C58.8054 164.527 51.0485 163.541 48.5608 163.456C43.3461 163.589 38.0392 163.894 32.8288 163.632L32.7533 163.259C35.6438 161.734 41.7814 162.369 45.0746 162.275Z" fill="#1C1C1C"/>
<path d="M32.4175 217.242C32.8203 217.19 33.2104 217.144 33.6173 217.123C36.8434 216.958 56.2462 216.135 58.1172 217.792C57.7145 217.963 57.3873 218.09 56.9552 218.164C54.6394 218.558 35.287 218.624 33.5293 218.041C33.2146 217.937 32.7028 217.449 32.4175 217.242Z" fill="#1C1C1C"/>
<path d="M48.2713 228.564C50.1927 228.499 52.2106 228.314 54.1278 228.424C55.0297 228.475 55.1934 228.492 55.7849 229.16C54.5096 230.267 43.2077 229.995 40.8333 230.048L37.0282 230.129C35.5221 230.153 33.7308 230.421 32.5771 229.301C35.5683 228.264 44.6677 228.662 48.2713 228.564Z" fill="#1C1C1C"/>
<path d="M90.3662 38.9306C95.0187 39.0728 94.2635 42.9371 92.5645 45.8643C88.0966 45.975 88.5287 41.7965 90.3662 38.9306Z" fill="#1C1C1C"/>
<path d="M90.5086 39.6815C92.2203 40.4219 91.6875 39.96 92.7027 41.346C93.0006 42.7975 92.6398 43.5412 92.1993 44.9293C91.1798 44.6843 91.1589 44.6512 90.3995 43.8873C89.7954 42.5458 90.2359 41.1447 90.5086 39.6815Z" fill="#FCFDFA"/>
<path d="M149.291 41.4621C150.206 40.3647 151.322 38.7191 152.618 38.4804C152.253 39.9016 150.789 41.1458 149.711 42.2591C151.38 43.7215 152.693 44.7261 153.352 46.8194C151.766 46.3776 150.147 44.232 148.96 42.9307L143.384 47.9516C145 45.1523 145.784 44.3435 147.982 42.0754C146.573 40.7221 145.155 39.5073 144.198 37.7995C146.094 38.2144 147.651 40.035 149.291 41.4621Z" fill="#1C1C1C"/>
<path d="M50.6002 191.677L51.5357 191.781L52.0056 192.412C50.3317 193.667 37.5826 192.989 34.8389 192.984C34.0166 192.982 33.5594 192.783 32.8336 192.407L33.0014 191.976C38.7404 191.421 44.8192 191.73 50.6002 191.677Z" fill="#1C1C1C"/>
<path d="M40.9676 174.064C44.5167 173.897 47.919 173.73 51.4429 174.321L51.6233 174.681C49.3705 175.266 47.0044 175.142 44.6971 175.144C41.2738 175.302 36.7598 175.76 33.496 174.59C35.9334 174.051 38.4798 174.119 40.9676 174.064Z" fill="#1C1C1C"/>
<path d="M45.041 149.896C44.7599 148.708 44.2733 148.498 43.3504 147.757C44.1978 146.87 46.6058 145.207 47.8895 145.128C48.3468 146.081 48.3468 145.651 48.2294 146.484L45.1669 147.558L45.3137 147.822C47.1722 147.801 48.1119 147.436 49.3537 148.342C49.0348 149.523 49.274 149.091 48.3762 149.921L48.0154 150.461C46.5387 151.245 46.1066 151.675 44.5795 151.494L44.332 150.684L45.041 149.896Z" fill="#625F5F"/>
<path d="M45.041 149.896C45.5067 149.913 48.2797 149.889 48.3762 149.921L48.0154 150.461C46.5387 151.245 46.1066 151.675 44.5795 151.494L44.332 150.684L45.041 149.896Z" fill="#1C1C1C"/>
<path d="M74.5757 36.9241C75.9601 36.5562 77.3823 37.3805 77.7473 38.7639C78.1123 40.1478 77.2858 41.5665 75.9056 41.9315C74.5212 42.2964 73.1032 41.4721 72.7382 40.0903C72.3732 38.7086 73.1955 37.2911 74.5757 36.9241Z" fill="#1C1C1C"/>
<path d="M74.4327 38.1928C75.0998 37.775 75.9807 37.9646 76.4212 38.6211C76.8575 39.278 76.6939 40.1635 76.0479 40.6203C75.6157 40.9282 75.0494 40.9761 74.5711 40.7449C74.0929 40.5142 73.7783 40.041 73.7489 39.51C73.7195 38.9793 73.9796 38.4747 74.4327 38.1928Z" fill="#FCFDFA"/>
<path d="M146.837 17.7435C148.868 17.6696 151.318 17.4322 153.222 17.9868C154.338 18.926 153.994 18.7741 154.196 20.6761C152.371 20.8821 149.929 21.3653 148.281 20.7449C147.001 19.5078 147.358 19.702 146.837 17.7435Z" fill="#1C1C1C"/>
<path d="M32.3806 211.765C36.3912 211.255 45.65 210.91 49.5851 211.808L49.7906 212.541C44.6767 212.88 38.3252 213.351 33.3078 212.647C32.8169 212.577 32.6659 212.152 32.3806 211.765Z" fill="#1C1C1C"/>
<path d="M32.5061 168.551C36.3657 168.047 42.6417 167.529 46.3964 168.483L46.8662 169.447C42.5242 169.605 37.2719 170.271 33.0179 169.39L32.5061 168.551Z" fill="#1C1C1C"/>
<path d="M148.826 250.193C150.139 251.142 151.733 252.589 152.11 254.173L151.737 254.388C151.104 253.751 150.491 253.191 149.757 252.677C148.637 254.422 150.013 257.269 148.834 259.422C148.259 257.295 148.758 254.994 147.978 252.93L145.923 254.277L145.407 253.943C145.788 252.605 147.789 251.157 148.826 250.193Z" fill="#1C1C1C"/>
<path d="M51.1909 168.159C54.0353 167.974 63.659 167.254 65.702 168.485L65.7608 169.179C62.3249 169.244 53.9094 170.069 51.1993 168.842L51.1909 168.159Z" fill="#1C1C1C"/>
<path d="M103.774 38.9693L104.441 39.5406C104.596 40.589 104.533 41.0273 105.234 41.7337C106.647 41.2845 105.901 40.1141 107.742 39.1845L107.977 39.5826L106.429 41.842C106.484 43.1185 107.033 43.2854 108.078 44.4608L108.296 45.296C107.256 45.4709 106.819 44.0052 105.527 43.3186C104.294 42.6658 105.007 44.5216 103.769 45.0091C103.425 42.98 103.644 41.0198 103.774 38.9693Z" fill="#1C1C1C"/>
<path d="M83.9432 39.1022C85.5457 39.0023 86.6952 38.8031 87.8488 40.0532C87.9076 41.9966 86.196 42.2525 85.659 44.5522C86.519 44.8261 86.9469 44.798 87.4755 45.3664C86.8714 46.1026 87.2405 45.9109 86.3721 46.0409C85.0758 45.8077 84.8955 45.8261 83.7837 45.1806C83.6915 43.0223 87.0685 43.9049 86.3679 40.2419C84.6102 39.4982 85.4534 40.8766 83.7963 40.5054L83.9432 39.1022Z" fill="#1C1C1C"/>
<path d="M98.0092 39.0026C99.897 38.9351 100.556 38.7258 101.793 40.2053C101.823 42.1798 100.518 42.4416 99.9306 44.4677L101.76 44.8637L101.919 45.3675L99.318 46.2174L98.1518 45.4166L98.1182 44.5659C99.6285 42.9487 101.151 42.1911 100.53 39.9217C99.6537 40.0081 98.9279 40.449 98.135 40.8438L97.7323 40.428L98.0092 39.0026Z" fill="#1C1C1C"/>
<path d="M32.2459 234.452C35.3546 233.997 43.5646 233.24 46.2621 234.876C43.2709 235.498 34.8386 236.137 32.2459 234.452Z" fill="#1C1C1C"/>
<path d="M25.3951 17.1479C27.262 17.3669 26.6369 17.072 27.9752 18.0989C28.5877 19.6581 28.575 19.0507 28.2604 20.495C27.1445 21.4992 27.6857 21.2912 26.2467 21.3201L25.5839 20.938C26.3138 20.6758 26.574 20.5382 27.2452 20.1909C26.5446 18.6673 26.2845 20.367 25.0595 18.5116L25.3951 17.1479Z" fill="#1C1C1C"/>
<path d="M135.506 18.4549L136.144 18.2254C136.341 19.4088 136.324 19.548 135.875 20.6605L135.246 21.0758L133.962 21.1987L133.169 20.5766C132.846 19.366 132.846 19.8669 133.53 18.5086L135.506 18.4549Z" fill="#D7D7D5"/>
<path d="M135.506 18.4549L136.144 18.2254C136.341 19.4088 136.324 19.548 135.875 20.6605L135.246 21.0758C135.04 19.9176 135.204 19.6319 135.506 18.4549Z" fill="#1C1C1C"/>
<path d="M133.962 21.1979L133.169 20.5758C132.846 19.3651 132.846 19.866 133.53 18.5077C133.685 19.3689 133.895 20.3367 133.962 21.1979Z" fill="#1C1C1C"/>
<path d="M35.3672 17.2309L36.4747 17.6852C37.0536 19.0037 36.6383 20.3309 36.4034 21.826C35.9167 20.6384 35.149 18.473 35.3672 17.2309Z" fill="#282524"/>
<path d="M11.081 13.9892L11.7522 15.871C8.57645 24.5749 9.67982 46.3786 9.69241 56.3532L9.57493 227.759L9.62527 263.223C9.64624 269.809 9.53714 276.807 9.95665 283.366C10.3049 288.835 12.9772 292.358 16.0271 296.626C13.5352 294.686 9.84762 291.767 9.37357 288.558C6.66767 270.223 7.67448 244.736 7.6535 226.426L7.6745 56.5822C7.6745 46.1848 7.53605 35.6163 7.82552 25.2306C7.93459 21.2933 9.30642 17.4869 11.081 13.9892Z" fill="#D7D7D5"/>
<path d="M160.241 9.72526C165.598 11.5622 167.322 20.8807 167.381 25.8592C167.591 42.5824 167.507 59.32 167.507 76.0466L167.444 239.12C167.431 253.372 167.591 268.135 166.437 282.378C166.038 287.312 164.218 291.2 160.916 294.86L160.325 295.029C160.086 294.007 164.167 289.512 164.595 285.723C165.896 274.176 165.514 260.405 165.51 248.847L165.489 174.886L165.556 45.8595C165.573 37.9849 165.728 29.8955 165.292 22.0347C165.019 17.1603 162.775 13.7054 160.241 9.72526Z" fill="#D7D7D5"/>
<path d="M76.8364 12.0797C80.4694 11.8465 93.8479 11.5399 97.0026 12.0349C97.6025 13.092 97.376 12.9107 97.2165 14.4096C94.024 14.3446 78.0404 15.2318 76.5973 13.4095L76.8364 12.0797Z" fill="#4C4B48"/>
<path d="M104.604 11.283C105.645 10.7309 106.937 11.1252 107.491 12.1647C108.044 13.2046 107.654 14.4971 106.618 15.055C105.573 15.6154 104.277 15.2228 103.719 14.1791C103.161 13.1354 103.555 11.8375 104.604 11.283Z" fill="#4C4B48"/>
<path d="M15.6625 8.96141C14.404 11.2896 13.0989 13.5932 11.7522 15.871L11.081 13.9892C12.7968 11.6358 13.5859 10.894 15.6625 8.96141Z" fill="#E0E0DE"/>
<path d="M55.2585 63.2901C53.6417 63.7162 51.8187 63.66 50.3409 64.36C50.6012 64.2368 48.7042 66.023 48.7999 65.8842C48.3579 66.5251 48.6626 68.2362 48.7708 69.0131C48.1136 70.0323 48.6797 71.5425 49.772 71.9879C49.7953 72.7732 49.7703 73.5593 49.6962 74.3414C49.1672 74.4022 48.5379 75.3279 47.9809 75.6405C47.2468 76.0524 43.4016 77.4216 43.1101 77.8881C42.2621 79.2465 41.4021 82.4587 40.8144 84.0938C40.0917 82.8552 39.8765 82.0086 38.8468 81.0182C38.8474 80.3904 38.8275 79.2535 38.4488 78.7989C38.1948 78.4937 37.3371 76.4707 37.2209 76.4372C35.7881 76.0249 36.6902 78.1086 36.8963 78.5569C36.3132 78.2383 35.9606 78.0466 35.4139 77.6508C34.8182 77.2191 34.1531 76.0376 33.5061 76.0658C33.333 76.1653 33.1918 76.3244 33.083 76.3017C32.8865 76.2607 32.8267 76.2311 32.6581 76.3146C32.5112 76.4573 32.5107 76.4462 32.4634 76.6429C32.5471 77.0239 32.5813 76.9264 32.4537 77.2985C32.2646 77.8526 33.1018 78.7189 33.1997 79.165C33.456 80.3343 33.7151 80.6386 34.6764 81.371C34.8137 81.4566 34.9469 81.5368 35.0785 81.6322C35.4475 81.862 35.8923 82.1554 36.2704 82.3536C36.5176 82.4706 36.4333 82.412 36.5922 82.6805C36.6224 82.9824 36.3946 83.5132 36.3228 83.8789C36.8086 85.3426 38.4755 89.0041 39.3064 90.2089C39.3765 92.329 39.3468 94.5404 39.3463 96.6674L39.3451 117.772C39.3451 120.041 39.3742 122.392 39.3138 124.653L27.039 124.651C26.4866 124.651 22.7632 124.591 22.4335 124.705C23.319 124.865 43.3572 124.797 43.5264 124.745L43.3065 129.586L43.8624 129.853C43.8595 130.25 43.3367 132.234 43.1778 132.739C41.999 132.923 38.5792 133.353 37.8946 134.313C37.8069 134.436 37.7694 134.553 37.7961 134.707C37.8348 134.925 38.0866 135.084 38.2585 135.181C39.168 135.697 40.4693 135.902 41.491 136.087C47.4655 137.17 61.2501 137.366 66.883 135.562C67.2702 135.438 68.0954 135.185 68.3044 134.805C68.3693 134.688 68.3796 134.561 68.3278 134.436C68.1296 133.961 67.3015 133.698 66.8573 133.558C65.6221 133.169 64.3453 132.973 63.0674 132.803C62.6397 132.211 61.5963 132.045 61.0331 131.693C60.3144 131.235 59.6305 130.705 58.9886 130.144C58.3599 129.594 58.2574 129.218 57.4174 129.038C57.7318 128.915 58.0046 128.778 58.3081 128.63C58.344 127.451 58.2802 125.971 58.2574 124.779L58.2551 124.643C58.2961 122.685 58.1743 120.694 58.2329 118.739C58.3981 113.2 58.4203 107.658 58.4761 102.121C58.4767 102.066 58.5894 102.043 58.6361 102.024C58.8873 102.203 58.6094 104.088 58.7102 104.485C58.7842 104.775 58.9733 105.06 59 105.352C59.0467 105.857 58.6828 106.971 59.2899 107.215C59.9015 107.413 61.0747 107.596 61.6493 107.312C61.9887 106.978 61.8515 105.985 61.9882 105.762C62.6345 104.704 62.6169 104.007 62.7649 102.782C62.9079 103.492 62.7638 103.946 63.2126 104.631C63.2672 104.713 63.2154 105.926 63.3248 106.132C63.3988 106.271 63.417 106.304 63.5799 106.375C66.0094 107.154 74.251 106.901 76.3461 106.07C76.4066 105.496 76.4144 104.921 76.4314 104.344C76.5914 104.166 76.7004 103.929 76.8151 103.714C76.9378 104.283 77.1188 104.646 77.3567 105.17C77.557 105.611 77.4888 106.731 77.9729 106.973C78.526 107.25 79.4846 106.845 80.0649 106.727C80.1358 106.713 80.319 106.608 80.3368 106.53C80.4762 106.06 80.3458 105.397 80.3556 104.891C80.3642 104.437 80.6171 103.952 80.5897 103.602C80.4959 102.398 80.3861 101.165 80.2566 99.9673C79.8992 96.8623 79.4723 93.7659 78.9765 90.6807C78.6528 88.6038 78.3685 86.3432 77.7957 84.3298C77.4247 83.0255 76.2571 82.5671 75.1481 82.0164C75.1137 81.179 74.9499 81.3623 74.5432 80.6919C74.4319 80.5084 74.4225 80.0379 74.2033 79.8645C73.3963 79.2259 71.536 79.0801 70.5652 79.0631C71.1743 78.5366 71.6739 78.3763 72.2836 77.9098C72.4472 77.7846 72.5993 77.2719 72.5849 77.0481C72.5409 76.3658 71.9822 75.8106 71.5076 75.3852C71.4299 75.313 71.2295 74.9353 71.1591 74.9043C70.7142 74.7086 70.7122 74.9126 70.3509 74.4933C69.9026 73.9733 69.1732 74.503 68.821 74.9089C68.2218 75.5993 67.592 76.4099 67.2816 77.2924C67.2406 77.4081 67.256 77.8479 67.26 77.9889C66.9074 78.3475 66.6495 78.7985 66.3829 79.2266C65.9792 79.2627 65.1494 79.3836 64.818 79.5959C64.3293 79.9089 64.294 80.2787 64.1813 80.799C63.8812 81.0838 63.7655 81.1905 63.5298 81.5258C63.0394 81.0035 62.5571 80.4726 62.0838 79.9336C61.6191 79.3979 60.5792 78.0662 60.0422 77.7571C58.4966 76.8678 56.4886 76.6611 55.1417 75.3884C55.6548 74.6134 56.5905 72.513 56.7397 71.586C56.8639 70.412 56.9111 69.2447 56.9453 68.0614C56.963 67.4578 57.5285 66.517 57.123 65.9383C56.881 65.593 57.0922 65.0823 56.922 64.6811C56.6702 64.088 55.8046 63.5396 55.2585 63.2901Z" fill="#1C1C1C"/>
<path d="M49.6979 74.3389C49.1688 74.3997 48.5395 75.3254 47.9826 75.638C47.2485 76.0499 43.4033 77.4191 43.1117 77.8855C42.2637 79.244 41.4038 82.4562 40.8161 84.0913C40.0934 82.8527 39.8781 82.0061 38.8485 81.0157C38.8491 80.3879 38.8291 79.251 38.4504 78.7964C38.1964 78.4912 37.3388 76.4682 37.2226 76.4347C35.7897 76.0224 36.6918 78.1061 36.898 78.5544C36.3148 78.2358 35.9623 78.0441 35.4156 77.6483C34.8199 77.2166 34.1547 76.0351 33.5078 76.0633C33.3347 76.1628 33.1934 76.3219 33.0847 76.2992C32.8882 76.2582 32.8284 76.2286 32.6598 76.3121C32.5129 76.4548 32.5123 76.4437 32.465 76.6404C32.5488 77.0214 32.5829 76.9239 32.4554 77.296C32.2663 77.8501 33.1034 78.7164 33.2014 79.1625C33.4577 80.3318 33.7168 80.6361 34.6781 81.3685C34.8153 81.4541 34.9486 81.5343 35.0802 81.6297C35.4492 81.8595 35.894 82.1529 36.2721 82.3511C36.5193 82.4681 36.435 82.4095 36.5939 82.678C36.6241 82.9799 36.3963 83.5107 36.3245 83.8764C36.8103 85.3401 38.4772 89.0016 39.3081 90.2064L39.5416 90.4858L39.8599 90.8069L40.0456 90.6528C40.2016 90.7724 40.3668 90.884 40.541 90.9743C40.9465 91.1845 41.4602 91.2065 41.8873 91.0548C43.6658 90.423 44.8811 86.0269 45.7439 84.3354L45.7735 84.2776C45.851 84.3444 45.9176 84.3702 45.9073 84.4457C45.81 85.1437 45.2644 86.1595 45.0053 86.8058C45.0696 87.0444 45.1146 87.2628 45.1556 87.5067C45.3384 88.5876 45.6972 89.6713 45.8629 90.7521C45.8812 91.5013 45.6021 92.9146 45.4654 93.7124C46.6465 93.9288 47.9046 94.2352 49.1255 94.4643C49.1216 94.5466 49.1153 94.6287 49.1068 94.7105C48.92 96.4233 48.6421 96.4209 47.1004 96.0918C46.4301 95.9486 45.8094 95.7795 45.1545 95.574C44.8367 97.4244 44.5092 99.2731 44.1732 101.12C45.3675 101.636 48.8419 102.894 50.0151 101.904C50.9348 101.128 51.1968 98.5135 51.3471 97.2991C51.6273 95.0385 51.9781 92.6896 52.0744 90.4059C52.067 87.2504 51.2441 83.5266 50.6814 80.4113C50.4525 79.1438 49.5356 75.6798 49.5965 74.6417L49.6022 74.5466L49.5606 74.4694C49.6865 74.417 49.6455 74.4637 49.6979 74.3389Z" fill="#B5FE28"/>
<path d="M49.6963 74.3389C49.1673 74.3997 48.538 75.3254 47.981 75.638C47.2469 76.0499 43.4017 77.4191 43.1101 77.8855C42.2622 79.244 41.4022 82.4562 40.8145 84.0913C40.0918 82.8527 39.8766 82.0061 38.8469 81.0157C38.8475 80.3879 38.8276 79.251 38.4488 78.7964C38.1949 78.4912 37.3372 76.4682 37.221 76.4347C35.7882 76.0224 36.6903 78.1061 36.8964 78.5544C36.3133 78.2358 35.9607 78.0441 35.414 77.6483C34.8183 77.2166 34.1532 76.0351 33.5062 76.0633C33.3331 76.1628 33.1919 76.3219 33.0831 76.2992C32.8866 76.2582 32.8268 76.2286 32.6582 76.3121C32.5113 76.4548 32.5107 76.4437 32.4635 76.6404C32.5472 77.0214 32.5814 76.9239 32.4538 77.296C32.2647 77.8501 33.1019 78.7164 33.1998 79.1625C33.4561 80.3318 33.7152 80.6361 34.6765 81.3685C34.8138 81.4541 34.947 81.5343 35.0786 81.6297C35.4476 81.8595 35.8924 82.1529 36.2705 82.3511C36.5177 82.4681 36.4334 82.4095 36.5923 82.678C36.6225 82.9799 36.3947 83.5107 36.3229 83.8764C36.8087 85.3401 38.4756 89.0016 39.3065 90.2064L39.54 90.4858L39.8583 90.8069L40.044 90.6528C38.8185 89.4163 37.4243 85.9498 36.7404 84.2527C38.1977 84.0659 38.9375 83.578 39.45 82.1666C40.2553 83.7446 41.2069 85.2399 42.1295 86.747C42.2946 87.0174 42.4495 87.9777 42.6198 88.0848C43.0919 87.856 42.1278 86.1729 41.9467 85.8719C41.8795 85.804 41.798 85.6638 41.7422 85.578C41.4222 85.1547 41.2468 84.8191 40.9928 84.3572C41.7445 82.5264 42.3812 79.6069 43.2924 78.0089C44.7987 78.9489 45.1728 80.1826 45.5675 81.9063C45.6615 82.3171 45.7048 82.9581 45.8215 83.3353L45.9314 83.3474C46.0613 83.1121 45.7765 81.5662 45.6854 81.247C45.2691 79.789 44.8499 78.6504 43.5447 77.8573C44.953 77.1232 46.6746 76.5865 48.149 75.8183C47.9241 76.4302 47.6991 77.3348 47.5192 77.9833C47.9571 78.2234 48.284 78.3346 48.7476 78.4987C48.2874 78.8033 47.9856 79.0317 47.5824 79.4053C47.9155 80.3742 48.4281 81.5007 48.8358 82.4539C48.4827 82.4287 47.276 82.2366 47.0493 82.3571L46.9645 82.5909L46.8289 82.7537L46.8671 82.8574L49.1046 83.0911L49.3256 83.6433C48.9435 83.6033 46.9935 83.3583 46.7965 83.3899L46.846 83.4965C47.178 83.6969 48.9429 83.7873 49.4184 83.8169C49.9116 84.7792 50.2823 85.8802 50.7123 86.8737C50.9099 87.3312 51.636 89.4385 51.9265 89.5524C51.9299 88.5954 48.3614 80.7619 47.8352 79.4673C48.108 79.2576 48.9782 78.7306 49.0739 78.4934C48.9417 78.2315 48.1445 77.9922 47.8107 77.8466C47.9713 77.2334 48.2282 75.9557 48.6166 75.4818C48.8449 75.2042 49.3182 74.9015 49.6007 74.5466L49.5591 74.4694C49.6849 74.417 49.6439 74.4637 49.6963 74.3389Z" fill="#1C1C1C"/>
<path d="M48.8352 82.4547C48.4821 82.4295 47.2753 82.2374 47.0487 82.358L46.9638 82.5917C47.3272 82.6229 48.7623 82.9101 48.9331 82.664L48.8352 82.4547Z" fill="#B8FB35"/>
<path d="M45.8619 90.7554C46.1518 89.8698 46.6034 84.763 46.0316 84.2434C45.9308 84.2825 45.8807 84.2825 45.7725 84.2808C45.8499 84.3476 45.9166 84.3734 45.9063 84.4489C45.8089 85.1469 45.2633 86.1628 45.0042 86.8091C45.0686 87.0476 45.1136 87.266 45.1546 87.5099C45.3374 88.5908 45.6962 89.6745 45.8619 90.7554Z" fill="#B5FE28"/>
<path d="M43.3367 86.8369C43.0087 86.2895 42.438 85.562 41.7427 85.5808C41.7985 85.6666 41.8799 85.8068 41.9471 85.8747L41.9938 85.8442C42.4375 85.9931 42.8247 86.539 43.3367 86.8369Z" fill="#B5FE28"/>
<path fill-rule="evenodd" clip-rule="evenodd" d="M44.585 87.729C44.6681 87.5337 44.7475 87.3471 44.8243 87.1744C44.8486 87.2905 44.8881 87.4714 44.9364 87.6931C45.1596 88.7167 45.5725 90.6105 45.5641 91.0095C45.5492 91.7589 45.1107 94.3162 44.937 95.1866C44.7824 95.9617 44.646 96.8309 44.508 97.7105C44.3172 98.9266 44.1233 100.162 43.8738 101.196C44.2881 101.501 44.6551 101.642 45.117 101.82C45.1516 101.833 45.1867 101.846 45.2224 101.86L44.7001 111.013C44.6755 111.441 44.6519 111.873 44.6282 112.307C44.5712 113.348 44.5138 114.398 44.441 115.423C44.4072 115.897 44.2759 116.452 44.1423 117.018C44.0169 117.549 43.8895 118.088 43.8385 118.577C43.6358 120.526 43.5826 122.536 43.5306 124.497L43.5275 124.614L43.5264 124.741L39.3139 124.65C39.3595 122.94 39.354 121.18 39.3487 119.442C39.3469 118.881 39.3452 118.322 39.3452 117.768L39.3463 96.6636C39.3465 96.1861 39.3481 95.7044 39.3497 95.2204C39.3552 93.5483 39.3608 91.8492 39.3065 90.2051L39.54 90.4845L39.8583 90.8057L40.2604 91.1311L40.4836 91.266C42.7323 92.0824 43.8171 89.5332 44.585 87.729Z" fill="#F2F2F2"/>
<path d="M39.3139 124.65L27.039 124.647C26.9427 124.647 26.7501 124.646 26.4958 124.643C25.2916 124.632 22.7058 124.607 22.4335 124.701C23.3191 124.861 43.3573 124.793 43.5264 124.741L39.3139 124.65Z" fill="#F2F2F2"/>
<path d="M53.5284 132.238C53.1469 132.285 52.4247 132.268 52.0187 132.271C51.0044 132.279 49.9902 132.3 48.9765 132.335C48.5812 132.345 47.7982 132.336 47.4553 132.382L47.473 132.455C47.7447 133.569 48.9075 135.375 47.0174 135.711C45.8237 135.923 44.4592 135.938 43.3134 135.483C42.2462 135.059 42.9057 133.52 43.1796 132.737C42.0008 132.921 38.5809 133.352 37.8964 134.311C37.8087 134.434 37.7711 134.551 37.7979 134.705C37.8366 134.923 38.0883 135.082 38.2603 135.179C39.1698 135.695 40.4711 135.901 41.4928 136.086C47.4673 137.169 61.2519 137.364 66.8847 135.56C67.272 135.436 68.0972 135.183 68.3062 134.804C68.3711 134.686 68.3814 134.56 68.3295 134.435C68.1313 133.959 67.3033 133.696 66.8591 133.556C65.6239 133.167 64.3471 132.971 63.0691 132.801C63.1956 133.096 63.2724 133.282 63.3077 133.607C63.3801 134.26 62.7599 134.304 62.2844 134.422C61.7536 134.552 61.1949 134.616 60.6448 134.644C60.0685 134.673 59.4916 134.651 58.9192 134.577C58.0838 134.47 57.3013 134.195 56.4847 134.052C55.7335 133.942 54.9914 133.926 54.2431 133.786C53.2391 133.599 53.4424 133.059 53.5284 132.238Z" fill="#D9DBD5"/>
<path d="M53.3224 124.614C53.2842 124.32 53.2512 124.005 53.229 123.706C53.0826 121.706 52.7353 119.69 52.8338 117.682C52.8685 116.982 52.9226 116.241 52.8617 115.55C52.6208 112.815 52.172 110.1 51.8782 107.371C50.9516 111.715 49.7557 116.033 49.1366 120.436C48.947 121.784 48.7522 123.14 48.5444 124.485C48.5273 124.593 48.5085 124.703 48.4965 124.81C50.1059 124.758 51.7164 124.757 53.3258 124.805L53.3224 124.614Z" fill="white"/>
<path d="M53.3263 124.807C51.7169 124.759 50.1064 124.76 48.497 124.813C48.263 126.359 48.0579 128.315 47.7943 129.798L47.0482 130.003C46.9594 130.472 47.3444 131.771 47.4537 132.384C47.7965 132.338 48.5796 132.347 48.9748 132.337C49.9885 132.302 51.0028 132.281 52.0171 132.273C52.4231 132.27 53.1452 132.287 53.5268 132.24C53.5518 131.614 53.7028 130.448 53.9773 129.905C54.1914 129.481 54.4516 129.37 53.795 129.031C53.5775 128.763 53.3759 125.402 53.3263 124.807Z" fill="#F2F2F2"/>
<path d="M67.4173 89.676C67.2105 89.4525 67.1669 89.473 67.1051 89.2143C67.3861 88.6742 67.6522 88.378 67.5604 87.7999L67.5032 87.7373C67.3094 87.9775 67.3068 88.2013 67.2853 88.4979C66.908 88.911 66.5632 89.285 67.1936 89.835C67.3946 90.0105 67.9637 90.3145 68.1927 90.0741L68.2083 89.9834C68.0047 89.8831 67.6404 89.7594 67.4173 89.676Z" fill="#CFEF5D"/>
<path d="M73.2937 91.1501C74.2402 91.0052 74.3423 89.4016 74.2473 88.6701L74.1393 88.699L74.0047 89.2299L73.9364 89.2691C73.9299 89.3864 73.4667 90.6452 73.3854 90.8101C73.0953 90.9426 73.0023 90.9701 72.8156 91.2216L72.8663 91.2752C73.0582 91.2439 73.1122 91.2225 73.2937 91.1501Z" fill="#CFEF5D"/>
<path d="M72.8993 91.9878C72.5871 92.1473 72.373 92.3727 72.2026 92.674L72.1889 92.8855C72.3952 92.6525 72.9617 92.0745 73.2681 92.4017C73.3319 92.987 72.481 93.7747 72.3425 94.2742C72.4426 95.1166 73.0274 95.0252 73.5751 95.5008C73.8249 96.1362 72.708 96.6384 72.2683 96.9281C72.1987 97.4599 72.3165 98.0367 71.8871 98.4525C71.6406 98.5156 71.6113 98.4517 71.3245 98.355C71.1274 98.4101 71.1996 98.3628 71.0649 98.5764C71.1866 98.8959 71.8871 98.7288 72.1278 98.6233C72.7835 98.335 72.2885 97.5977 72.5175 97.1491C72.7653 96.664 73.661 96.7023 73.8301 96.1059C74.2653 95.0573 72.8342 94.968 72.6573 94.4754C72.3366 93.5823 74.7245 92.6853 72.8993 91.9878Z" fill="#CFEF5D"/>
<path d="M74.9508 103.871C75.0405 103.811 75.1205 103.743 75.2025 103.673L75.2051 103.571C74.9325 103.547 74.7094 103.713 74.4401 103.672C74.3692 103.661 74.271 103.732 74.2053 103.764C74.2853 103.871 74.3061 103.94 74.4486 103.954C74.6047 103.969 74.7979 103.906 74.9508 103.871Z" fill="#CFEF5D"/>
<path d="M73.0203 103.224C72.9331 103.002 72.8642 102.758 72.8265 102.523C72.7178 101.842 73.1706 101.449 73.5277 100.951C73.7072 100.699 73.9316 100.284 73.8614 99.9668C73.8243 99.7954 73.7007 99.6647 73.5596 99.5693C73.3462 99.4253 72.9878 99.3472 72.7374 99.4178C72.5442 99.4722 72.4407 99.8098 72.362 99.9847L72.2508 100.024C71.9821 99.9869 71.8117 99.8307 71.5847 99.7005C71.4201 99.6061 71.3603 99.5842 71.1768 99.6306L71.1404 99.737C71.1476 99.7451 71.1541 99.7534 71.1619 99.7613C71.3687 99.9861 71.7987 100.323 72.1181 100.321C72.4108 100.319 72.5077 100.079 72.6814 99.8939C72.7907 99.7773 72.9032 99.7005 73.0678 99.7038C73.2265 99.7071 73.3742 99.7608 73.49 99.8694C73.8926 100.247 72.7653 101.401 72.6372 101.773C72.5181 102.119 72.5565 102.517 72.5695 102.877L72.7835 103.259L73.0203 103.224Z" fill="#CFEF5D"/>
<path d="M75.5236 96.4527C75.2647 96.3282 74.8978 96.2014 74.6389 96.3514C73.686 96.9041 75.5418 98.2088 75.6634 98.6391C75.7461 98.6852 75.8085 98.6775 75.9035 98.6804L75.9334 98.5669C75.7968 98.2569 75.7116 98.1727 75.4872 97.9133C75.5516 97.5158 75.4644 97.2298 75.588 96.7698L75.6634 96.7693L75.6927 96.678L75.5236 96.4527Z" fill="#CFEF5D"/>
<path d="M79.3863 100.394C79.4286 100.093 79.8573 99.7067 79.8573 99.4034C79.8592 98.4925 79.2979 98.6024 79.6921 97.6823L79.573 97.6587C79.3766 97.7634 79.2907 97.9533 79.1743 98.1469C79.305 98.4187 79.4533 98.6902 79.5463 98.9766C79.7103 99.4825 79.0728 100.071 79.1014 100.46C79.279 100.726 79.4032 100.719 79.7363 100.794C79.8195 100.713 79.8527 100.632 79.9067 100.529C79.7851 100.398 79.6088 100.422 79.3863 100.394Z" fill="#CFEF5D"/>
<path d="M77.0086 97.5979L76.8727 97.7204C76.8674 97.9045 76.9156 97.8916 77.0756 98.0623C77.1094 98.3023 77.1855 98.6176 77.1478 98.8392L77.0867 98.952C77.1602 99.1373 77.2662 99.1829 77.4327 99.2983C78.5821 98.7738 77.5062 98.0139 77.0086 97.5979Z" fill="#CFEF5D"/>
<path d="M74.2064 100.835C73.8122 101.176 73.3549 101.56 73.3048 102.118C73.2684 102.518 73.4564 102.812 73.7022 103.106L73.9826 103.071C73.7972 102.69 73.4401 102.331 73.5884 101.869C73.7035 101.51 74.0275 101.173 74.2064 100.835Z" fill="#CFEF5D"/>
<path d="M76.9971 96.439L76.9659 96.5919L77.0186 96.6666C77.4466 97.1174 77.7029 97.3127 78.341 97.3897L78.3404 97.3136C77.9865 97.0116 77.4173 96.7051 76.9971 96.439Z" fill="#CFEF5D"/>
<path d="M73.6491 104.25C73.4982 104.292 73.346 104.324 73.21 104.403C72.9336 104.73 72.6018 105.022 72.6343 105.488C72.6395 105.566 72.6519 105.641 72.6675 105.718L72.9056 105.646C72.8874 105.585 72.8692 105.523 72.8587 105.459C72.8113 105.189 72.9661 105.017 73.1151 104.809C73.2419 104.745 73.3922 104.68 73.5014 104.589C73.6439 104.471 73.6367 104.424 73.6491 104.25Z" fill="#CFEF5D"/>
<path d="M73.7292 103.688L73.5041 103.622C73.2745 103.772 72.8334 103.992 72.7554 104.261C72.8835 104.31 73.0481 104.218 73.171 104.164C73.3987 104.064 73.5763 103.879 73.7292 103.688Z" fill="#CFEF5D"/>
<path d="M75.0543 91.2129C74.785 91.2152 74.4961 91.2073 74.2847 91.4045C74.1924 91.4906 74.1449 91.6022 74.1475 91.7287C74.1566 92.2207 74.6184 92.5973 74.9502 92.8982L74.9164 92.9321C74.5443 93.3055 73.9335 93.9034 73.9647 94.468C73.9764 94.6796 74.0896 94.8468 74.2477 94.9793C74.4051 95.1103 74.53 95.1296 74.7251 95.1125C74.9072 95.0016 75.0419 94.8792 75.1733 94.7097C75.3762 94.4467 75.6956 93.9435 75.654 93.6012L75.5662 93.5968L75.3463 93.8248C75.2325 94.1317 75.1024 94.5673 74.7954 94.7398C74.647 94.8229 74.5801 94.8051 74.4324 94.7567C74.368 94.6908 74.3127 94.626 74.2834 94.5368C74.044 93.8145 74.8845 93.6121 75.1141 93.0789C75.3216 92.5958 74.6139 92.3117 74.4714 91.9183C74.4096 91.7458 74.4252 91.6887 74.502 91.5368C75.0256 91.3294 75.1967 91.9562 75.6722 92.0189L75.7698 91.9307C75.6768 91.6275 75.3034 91.3883 75.0543 91.2129Z" fill="#CFEF5D"/>
<path d="M77.2112 88.957L77.0291 89.0742C76.8535 89.4787 77.126 90.1164 77.0545 90.5588C76.9673 91.0998 76.4905 91.5754 76.4781 92.1429C76.4606 92.9125 77.4415 93.1414 77.865 93.6405C78.1818 94.0141 77.0148 94.7448 76.9751 95.174C77.113 95.1949 77.1963 95.1927 77.327 95.1428C77.5456 94.747 77.9157 94.5155 78.1681 94.1585C78.7015 93.4028 76.9888 92.8784 76.7865 92.3471C76.618 91.9057 77.2321 90.919 77.3095 90.4107C77.3804 89.946 77.3134 89.412 77.2112 88.957Z" fill="#CFEF5D"/>
<path d="M75.9584 88.7144C74.9762 88.7808 75.2995 89.5244 75.8673 89.9352C75.8712 89.499 75.6832 89.596 75.587 89.1802C75.626 88.9673 75.7938 88.8567 75.9584 88.7144Z" fill="#CFEF5D"/>
<path d="M78.682 97.9484C78.6716 97.9574 78.6606 97.9651 78.6508 97.9753C78.4869 98.1573 78.645 98.6482 78.6131 98.8998C78.5344 99.5292 77.6413 100.067 77.7707 100.705C77.8559 101.123 78.2651 101.375 78.5929 101.591C78.6547 101.521 78.6515 101.495 78.6658 101.401C78.5656 101.085 78.2521 101.02 78.0816 100.772C77.7278 100.255 78.7705 99.4807 78.8733 98.9086C78.924 98.6283 78.8466 98.1797 78.682 97.9484Z" fill="#CFEF5D"/>
<path d="M76.2763 101.563C76.2255 101.601 76.2034 101.643 76.1696 101.696C76.2997 101.981 76.8493 102.063 77.0425 102.34C77.1128 102.442 77.0835 102.501 77.0647 102.611C76.7433 102.768 76.3914 102.376 76.0577 102.444L76.0493 102.563C76.1722 102.674 76.2958 102.779 76.4428 102.859C76.6139 102.951 76.863 102.99 77.0458 102.919C77.1603 102.875 77.2598 102.784 77.3066 102.67C77.3704 102.515 77.3398 102.346 77.2709 102.199C77.092 101.817 76.6444 101.69 76.2763 101.563Z" fill="#CFEF5D"/>
<path d="M71.7957 103.104C71.9986 102.581 72.2035 101.973 72.0123 101.413C71.9693 101.287 71.8718 101.121 71.7391 101.073C71.5485 101.005 71.2766 101.034 71.1048 101.133C71.1179 101.143 71.1309 101.152 71.1445 101.162C71.3254 101.289 71.7716 101.405 71.8145 101.625C71.8997 102.06 71.5361 102.745 71.702 103.089L71.7957 103.104Z" fill="#CFEF5D"/>
<path d="M76.2765 87.0779C76.0027 87.0567 75.7269 87.0071 75.4829 87.1624C75.1779 87.357 75.1089 87.8098 75.025 88.1371C74.8474 88.0573 74.6594 87.9436 74.461 87.9547L74.4044 88.0889C74.5495 88.2568 74.6601 88.3225 74.8656 88.4005C75.3698 88.3138 75.2266 87.7426 75.5493 87.4518C75.7191 87.2992 76.0059 87.3701 76.2128 87.2468C76.2577 87.2197 76.2635 87.129 76.2765 87.0779Z" fill="#CFEF5D"/>
<path d="M79.2593 96.392C79.312 96.2885 79.2944 96.3287 79.2964 96.2011C78.3916 95.4247 79.2684 95.1475 78.8014 94.238C78.6296 95.0833 78.2816 95.959 79.2593 96.392Z" fill="#CFEF5D"/>
<path d="M74.9257 85.5881C74.8425 85.6534 74.806 85.7453 74.7599 85.8378C74.7787 86.0217 74.8008 86.135 74.9518 86.2619C75.1996 86.4703 75.4715 86.5208 75.785 86.5022L75.9652 86.306L75.9457 86.2042C75.7616 86.1979 75.5183 86.1987 75.3434 86.1354C75.0864 86.0421 75.022 85.821 74.9257 85.5881Z" fill="#CFEF5D"/>
<path d="M72.7243 89.4442C72.9429 88.7552 72.766 88.5369 72.3705 87.9539C72.217 87.7273 72.2176 87.6895 71.9652 87.5941C71.5658 87.9774 73.0717 88.7307 72.4095 89.2625C72.0979 89.5128 71.8215 89.2835 71.5385 89.539C71.4578 89.615 71.3934 89.6127 71.3063 89.5936L71.2308 90.0094C71.7811 89.6894 72.3828 89.7332 72.7243 89.4442Z" fill="#CFEF5D"/>
<path d="M72.5467 83.7656C72.4738 83.809 72.4511 83.8631 72.4107 83.9348C72.52 84.3068 72.9298 84.6941 73.1776 84.9979C73.2076 85.2715 73.2134 85.5512 73.2297 85.826C72.9545 85.8794 72.4608 85.9329 72.2683 86.1543C72.1629 86.2751 72.1453 86.3981 72.1622 86.5515C72.494 86.3523 73.2713 86.1869 73.4548 86.0283C73.5126 85.8941 73.527 85.7786 73.51 85.6346C73.4359 85.0132 73.0436 84.1489 72.5467 83.7656Z" fill="#CFEF5D"/>
<path d="M72.1146 90.3591C71.9813 90.3688 71.8622 90.401 71.7412 90.457C71.5246 90.5573 71.3906 90.7348 71.3119 90.9557C71.1922 91.2896 71.2319 91.7801 71.3802 92.0981C71.6371 91.8699 71.3223 91.4909 71.4375 91.1925C71.444 91.1758 71.4524 91.1598 71.4596 91.1433C71.6059 90.8076 71.9839 90.7 72.1146 90.3591Z" fill="#CFEF5D"/>
<path d="M66.7118 84.5308C66.7105 84.3228 66.8771 83.4065 66.8634 83.3793L66.6845 83.4829C66.5427 83.6979 66.5291 84.0459 66.4965 84.3123L65.8213 84.922C65.7921 85.1298 65.6945 85.712 65.6906 85.8923C65.8734 85.8093 65.9039 85.8091 66.0093 85.6498C65.9924 84.9953 66.2136 84.8932 66.7118 84.5308Z" fill="#CFEF5D"/>
<path d="M67.4982 85.4876L67.4748 85.3228C67.1404 85.4387 66.6018 85.584 66.4672 85.9363C66.2838 86.4147 66.6194 86.8273 67.1164 86.8117L67.2243 86.7502C67.1274 86.398 66.6331 86.3611 66.702 86.0792C67.009 85.7713 67.2094 85.7273 67.4982 85.4876Z" fill="#CFEF5D"/>
<path d="M68.6401 90.5159C68.2407 90.8928 68.1581 91.2343 67.987 91.7449L68.1704 92.0856C68.2277 91.7045 68.4391 91.0211 68.6492 90.6938L68.6401 90.5159Z" fill="#CFEF5D"/>
<path d="M59.6788 102.183C59.3965 102.197 59.1253 102.401 58.9152 102.577C59.107 102.597 59.271 102.612 59.4622 102.569C59.6144 102.435 59.6242 102.37 59.6788 102.183Z" fill="#CFEF5D"/>
<path fill-rule="evenodd" clip-rule="evenodd" d="M66.8789 100.725C66.981 100.234 66.9979 99.4879 66.4925 99.2L66.3611 99.2442C66.3363 99.3941 66.4271 99.5485 66.5256 99.7157C66.6185 99.8738 66.7183 100.043 66.7338 100.232C66.7534 100.467 66.6396 100.675 66.5399 100.858C66.4573 101.009 66.3844 101.143 66.4053 101.259L66.6434 101.248C66.6253 101.295 66.6075 101.341 66.5902 101.386C66.3209 102.08 66.1572 102.502 66.5165 103.271L66.8392 103.321L66.6646 103.131C66.6727 103.112 66.681 103.091 66.6896 103.07C66.7507 102.921 66.8244 102.742 66.9391 102.642C67.059 102.538 67.1315 102.547 67.2695 102.565L67.2871 102.567C67.4339 102.65 67.4776 102.772 67.5285 102.915C67.5358 102.935 67.5433 102.956 67.5512 102.977C67.5785 103.052 67.5961 103.084 67.6663 103.129L67.7355 103.066C67.6757 102.718 67.6796 102.416 67.7765 102.076C67.4357 102.064 67.1015 102.148 66.8517 102.397C66.7795 102.469 66.721 102.557 66.6651 102.641L66.5727 102.608C66.4888 102.449 66.5076 102.319 66.5558 102.154C66.6891 101.694 67.1555 101.245 67.5699 101.029C67.7403 100.94 67.8476 100.931 68.0278 100.983L68.0338 100.989C68.0683 101.026 68.0978 101.057 68.115 101.107C68.2327 101.455 68.133 101.769 67.9645 102.075C67.9895 102.072 68.0128 102.069 68.0348 102.066C68.1552 102.051 68.2359 102.04 68.3399 101.955C68.5265 101.477 68.4556 100.57 67.7726 100.62C67.7253 100.627 67.6686 100.635 67.6067 100.644C67.3676 100.679 67.0494 100.726 66.8789 100.725Z" fill="#CFEF5D"/>
<path d="M67.0032 92.122C66.9642 91.9779 66.8842 91.9424 66.7586 91.8441C66.6201 92.4582 66.5629 92.9052 66.0776 93.3415C64.7467 92.8891 64.1411 93.2306 64.9451 94.6891C65.2163 95.1816 66.4041 96.3189 67.0052 95.8638C67.2797 95.6704 67.2699 95.0327 67.2868 94.7109L67.2953 94.5576C67.5613 94.8291 68.0603 95.4382 68.4219 95.4511C68.3686 95.1099 67.6609 94.4441 67.2888 94.4404C66.8068 94.7242 67.1223 95.1714 66.8263 95.619C66.3638 95.831 65.9625 95.3566 65.6437 95.0449C65.3432 94.7503 64.4189 93.6735 65.0557 93.391C65.7231 93.4027 66.0587 93.8024 66.4464 93.4104C66.7443 93.1087 66.8816 92.527 67.0032 92.122Z" fill="#CFEF5D"/>
<path d="M67.4559 91.9935C67.3674 92.1474 67.2327 92.3588 67.1827 92.522C67.3212 93.0658 67.357 93.3146 67.7518 93.7286L67.7857 93.6265C67.5567 93.0123 67.5977 92.1781 67.4559 91.9935Z" fill="#CFEF5D"/>
<path d="M64.6846 101.99C65.1081 101.702 65.7638 101.52 65.9765 101.008C66.1086 100.689 66.0331 100.325 65.9134 100.016C65.7976 99.9295 65.7989 99.9118 65.648 99.9268C65.5231 100.237 65.8549 100.649 65.6831 100.963C65.4392 101.408 64.6755 101.456 64.4596 101.86C64.3652 102.036 64.3249 102.277 64.2605 102.47L64.1142 102.472L63.9411 102.645L64.3893 102.783L64.6014 102.77C64.7412 102.57 64.6898 102.232 64.6846 101.99Z" fill="#CFEF5D"/>
<path d="M63.0397 91.4187C62.9415 90.9194 62.5649 90.3424 61.9872 90.41C61.165 90.9074 62.2156 92.5058 62.5889 92.6894C62.5883 92.2114 61.8038 91.2018 61.9014 90.6641C62.4348 90.4046 62.6234 91.4426 63.015 91.6573L63.0397 91.4187Z" fill="#CFEF5D"/>
<path d="M66.8368 104.42C67.0892 104.168 67.4236 104.125 67.7527 104.003L67.7254 103.957L66.6566 103.975L66.8368 104.42Z" fill="#CFEF5D"/>
<path d="M63.8899 99.0548L63.9081 99.0242C64.1468 98.6098 64.6178 97.1659 64.4051 96.7361C64.1156 96.7364 64.1501 98.3502 63.6264 98.8223C63.4098 98.9384 63.3246 98.97 63.1646 99.1586L63.1574 99.299C63.3298 99.3956 63.2524 99.3732 63.484 99.3493C63.6297 99.2495 63.7494 99.1641 63.8899 99.0548Z" fill="#CFEF5D"/>
<path d="M66.2074 91.0236C66.1267 90.71 66.3394 90.3001 66.0825 89.8876L65.9544 90.3617C65.9166 90.6749 65.9687 90.6611 65.795 90.8623C65.2733 91.024 64.721 90.2356 64.2989 90.2716C64.0647 90.7304 65.7501 91.4367 66.2074 91.0236Z" fill="#CFEF5D"/>
<path d="M63.7491 95.4544L63.6632 95.5693C63.7075 95.6949 63.6704 95.6652 63.7537 95.7306C64.3677 95.9556 64.8653 96.0825 65.0189 96.8455C65.0631 97.0667 65.0117 97.1953 65.1119 97.4087L65.2127 97.4025C65.2238 97.3767 65.2342 97.351 65.2452 97.3252C65.508 95.9999 64.7417 95.7798 63.7491 95.4544Z" fill="#CFEF5D"/>
<path d="M61.5237 97.8808C60.3007 98.3309 60.0093 99.0989 60.9382 100.045C61.0527 99.9149 61.0716 99.8969 61.0885 99.7259C60.3372 99.077 60.6722 98.6396 61.3844 98.1913C61.4267 98.1588 61.5041 98.0705 61.5445 98.0274L61.5237 97.8808Z" fill="#CFEF5D"/>
<path d="M63.8759 91.1173C64.3371 91.4914 65.2563 92.585 65.8261 92.2122C65.9113 92.0225 65.8983 92.1057 65.871 91.896L65.7792 91.8733L65.521 92.0423C64.9915 92.0007 64.6624 91.2346 63.9423 90.8874L63.8759 91.1173Z" fill="#CFEF5D"/>
<path d="M65.9619 104.145C65.837 103.98 65.5762 103.817 65.368 103.793C65.2334 103.777 65.1306 103.809 65.0122 103.871C64.9511 103.982 64.8906 104.093 64.8392 104.209L64.7449 104.338L65.4617 104.424L66.0211 104.501C66.0335 104.378 65.9931 104.262 65.9619 104.145Z" fill="#CFEF5D"/>
<path d="M77.8404 103.092C77.7831 103.356 77.8456 103.438 77.9679 103.68C78.1051 104.024 78.2293 104.503 78.6092 104.623L78.6723 104.565C78.6535 104.279 78.5 103.97 78.3633 103.72C78.15 103.327 78.2456 103.235 77.8404 103.092Z" fill="#D8EA8E"/>
<path d="M65.392 87.5558L65.2723 87.3731C65.2014 87.7235 64.9953 88.4881 65.0083 88.775L65.0694 88.7827C65.3959 88.3532 65.4662 88.1107 65.392 87.5558Z" fill="#CFEF5D"/>
<path d="M61.957 95.9647C61.9889 95.9102 62.0058 95.8877 62.0058 95.8238C62.0071 95.5485 62.2517 95.2797 62.4319 95.0758L62.4175 94.942C62.0442 95.0807 61.7287 95.2315 61.7898 95.6935L61.957 95.9647Z" fill="#D8EA8E"/>
<path d="M64.4827 103.404C64.2511 103.406 64.002 103.387 63.8251 103.562C63.76 103.626 63.7028 103.697 63.6468 103.768C63.8394 103.819 63.9838 103.854 64.1854 103.816C64.3604 103.724 64.4079 103.575 64.4827 103.404Z" fill="#D1DC9C"/>
<path d="M60.6147 95.573C61.5436 94.4807 63.095 94.5083 61.8428 92.6855C61.582 92.3058 61.4343 91.618 61.124 91.1867L61.0427 91.1749C60.7721 91.7822 62.0815 93.2928 62.0217 93.8913C61.9618 94.4945 60.4794 94.8305 60.4332 95.5964C60.4 96.1487 60.8411 96.7332 61.1604 97.1185C59.6344 97.771 58.7868 98.0173 59.7346 99.717L59.8387 99.7965C59.7873 99.8803 59.7613 99.9326 59.6884 100.001C59.9577 100.219 59.9401 100.442 60.1398 100.543C60.5093 100.061 59.6097 99.2401 59.5941 98.6177C59.5759 97.9029 61.1273 97.5588 61.5117 97.1502C61.0557 96.4851 60.8911 96.3254 60.6147 95.573Z" fill="#CFEF5D"/>
<path d="M67.4175 97.2674C67.212 97.2475 67.0207 97.2397 66.834 97.3461C66.7482 97.3949 66.674 97.4572 66.6461 97.5524C66.5869 97.7511 66.687 97.9507 66.7853 98.1201C67.0363 98.5519 67.6745 99.3254 68.1532 99.447C68.1161 99.0746 67.4891 98.5555 67.2269 98.2997C67.0812 98.0966 66.8926 97.8727 66.9394 97.6067C66.957 97.5053 66.9713 97.5087 67.0552 97.4515C67.7044 97.4663 68.1109 98.3892 68.6359 98.6466L68.7139 98.6126L68.7022 98.4629C68.336 97.9949 67.921 97.5821 67.4175 97.2674Z" fill="#CFEF5D"/>
<path d="M64.6903 85.0035C64.6519 85.0242 64.6337 85.0317 64.5986 85.063C64.4041 85.2364 64.38 85.9642 64.339 86.2479C64.0977 86.627 63.6925 86.863 63.3308 87.1128C63.2905 87.4465 63.2742 87.7813 63.256 88.1167C63.4739 87.9122 63.5559 87.4984 63.6502 87.2182C63.8596 87.0519 64.1055 86.8831 64.2837 86.6838C64.7111 86.2057 64.715 85.6085 64.6903 85.0035Z" fill="#CFEF5D"/>
<path d="M69.6177 95.4602C69.4434 95.3161 69.3848 95.2478 69.1552 95.2166C68.938 95.2901 69.0108 95.2346 68.882 95.4267C68.8124 95.8978 69.1259 96.2261 69.5917 96.2193L69.8434 95.8975C69.8564 95.6604 69.818 95.7007 69.6177 95.4602Z" fill="#D8EA8E"/>
<path d="M62.8079 88.7792C62.7728 88.7904 62.7637 88.7923 62.726 88.8108C62.551 88.897 61.1473 89.5838 61.0764 89.6735C61.0497 89.7074 61.0282 89.7923 61.0113 89.8352C61.5193 89.8278 62.0417 89.6101 62.4502 89.3141C62.6785 89.1488 62.7624 89.0593 62.8079 88.7792Z" fill="#CFEF5D"/>
<path d="M62.0845 87.0965C62.0767 87.1069 62.0683 87.1168 62.0618 87.1278C61.8874 87.416 61.9707 87.5495 61.9909 87.8427C62.0201 88.2753 61.6754 88.5029 61.4158 88.7782C61.5687 88.7651 61.7346 88.7503 61.8816 88.703C62.0416 88.6517 62.1567 88.5125 62.2218 88.3628C62.385 87.9862 62.2205 87.4598 62.0845 87.0965Z" fill="#CFEF5D"/>
<path d="M64.4254 87.9907C64.3486 88.0229 64.2751 88.0688 64.2016 88.1088C63.9909 88.4909 64.2094 89.3376 64.2712 89.7738C64.2901 89.7611 64.309 89.749 64.3272 89.7358C64.6804 89.4773 64.3734 88.4234 64.4254 87.9907Z" fill="#CFEF5D"/>
<path d="M63.9945 85.2853C63.8078 85.3988 63.6439 85.648 63.4683 85.7954C63.2341 85.9912 62.9193 86.1041 62.7313 86.342C62.8223 86.3802 62.9167 86.4062 63.0162 86.4095C63.2445 86.417 63.5158 86.2506 63.6686 86.0877C63.895 85.8472 64.0056 85.6157 63.9945 85.2853Z" fill="#CFEF5D"/>
<path d="M79.1191 103.03C79.1406 102.821 79.2056 102.562 79.1022 102.371L78.9402 102.337C78.898 102.6 78.8622 102.862 78.8362 103.127L79.1191 103.03Z" fill="#CFEF5D"/>
<path d="M79.6015 102.064C79.4818 102.231 79.4727 102.257 79.4643 102.463C79.5489 102.607 79.5625 102.647 79.7095 102.721C79.7459 102.503 79.6581 102.273 79.6015 102.064Z" fill="#CFEF5D"/>
<path d="M75.3102 82.8023C75.2373 82.8456 75.2146 82.8997 75.1742 82.9714C75.2835 83.3434 75.6933 83.7307 75.9411 84.0346C75.9711 84.3081 75.9769 84.5878 75.9932 84.8627C75.718 84.916 75.2243 84.9695 75.0318 85.191C74.9264 85.3117 74.9088 85.4347 74.9257 85.5881C75.2575 85.3889 76.0348 85.2235 76.2183 85.0649C76.2761 84.9307 76.2905 84.8152 76.2735 84.6712C76.1994 84.0498 75.8071 83.1855 75.3102 82.8023Z" fill="#CFEF5D"/>
<path d="M77.4326 86.1189C76.4504 86.1854 76.7737 86.9289 77.3416 87.3397C77.3455 86.9035 77.1575 87.0005 77.0612 86.5847C77.1002 86.3718 77.2681 86.2612 77.4326 86.1189Z" fill="#CFEF5D"/>
<path d="M78.4495 92.4261C78.5022 92.3226 78.4846 92.3628 78.4866 92.2352C77.5818 91.4588 78.4586 91.1816 77.9916 90.2721C77.8199 91.1174 77.4718 91.9931 78.4495 92.4261Z" fill="#CFEF5D"/>
<path d="M69.4529 85.3022C69.38 85.3455 69.3573 85.3996 69.3169 85.4713C69.4262 85.8434 69.836 86.2306 70.0839 86.5345C70.1138 86.808 70.1196 87.0878 70.1359 87.3626C69.8607 87.4159 69.367 87.4694 69.1745 87.6909C69.0691 87.8116 69.0515 87.9346 69.0685 88.088C69.4002 87.8888 70.1775 87.7234 70.361 87.5648C70.4189 87.4306 70.4332 87.3151 70.4163 87.1711C70.3421 86.5498 69.9499 85.6854 69.4529 85.3022Z" fill="#CFEF5D"/>
<path d="M69.8859 92.2393C69.4865 92.6161 69.4039 92.9577 69.2328 93.4683L69.4162 93.809C69.4735 93.4279 69.6849 92.7445 69.895 92.4172L69.8859 92.2393Z" fill="#CFEF5D"/>
<path d="M70.5527 93.6627C70.3458 93.4392 70.3022 93.4597 70.2404 93.201C70.5214 92.6609 70.7875 92.3646 70.6958 91.7865L70.6385 91.7239C70.4447 91.9641 70.4421 92.188 70.4206 92.4846C70.0433 92.8976 69.6986 93.2716 70.3289 93.8217C70.5299 93.9972 71.0991 94.3012 71.328 94.0608L71.3437 93.97C71.14 93.8697 70.7758 93.7461 70.5527 93.6627Z" fill="#CFEF5D"/>
<path d="M65.0225 80.9542C64.9841 80.9749 64.9659 80.9824 64.9308 81.0137C64.7363 81.1871 64.7122 81.9149 64.6713 82.1986C64.4299 82.5776 64.0247 82.8137 63.663 83.0635C63.6227 83.3972 63.6064 83.7319 63.5882 84.0674C63.8061 83.8629 63.8881 83.4491 63.9824 83.1689C64.1919 83.0026 64.4377 82.8338 64.616 82.6344C65.0433 82.1563 65.0472 81.5591 65.0225 80.9542Z" fill="#CFEF5D"/>
<path d="M62.0427 84.9739C61.856 85.0874 61.6921 85.3366 61.5165 85.484C61.2823 85.6798 60.9675 85.7927 60.7795 86.0305C60.8706 86.0687 60.9649 86.0947 61.0644 86.098C61.2927 86.1055 61.564 85.9392 61.7168 85.7762C61.9432 85.5357 62.0538 85.3042 62.0427 84.9739Z" fill="#CFEF5D"/>
<path d="M60.8012 87.0787C60.7934 87.0891 60.785 87.099 60.7784 87.11C60.6041 87.3982 60.6874 87.5317 60.7075 87.825C60.7368 88.2575 60.3921 88.4852 60.1325 88.7604C60.2854 88.7473 60.4512 88.7325 60.5983 88.6852C60.7583 88.6339 60.8734 88.4947 60.9385 88.3451C61.1017 87.9684 60.9372 87.442 60.8012 87.0787Z" fill="#CFEF5D"/>
<path d="M74.0445 81.9919C73.9463 81.4926 73.5696 80.9156 72.992 80.9832C72.1698 81.4807 73.2203 83.079 73.5937 83.2626C73.593 82.7846 72.8086 81.7751 72.9061 81.2373C73.4395 80.9778 73.6282 82.0158 74.0198 82.2305L74.0445 81.9919Z" fill="#CFEF5D"/>
<path d="M67.7765 102.076L67.9645 102.075C68.133 101.769 68.2327 101.455 68.115 101.107C68.0978 101.057 68.0683 101.026 68.0338 100.989C68.0318 100.987 68.0298 100.985 68.0278 100.983C67.8476 100.931 67.7403 100.94 67.5699 101.029C67.1555 101.245 66.6891 101.694 66.5558 102.154C66.5076 102.319 66.4888 102.449 66.5727 102.608L66.6651 102.641C66.721 102.557 66.7795 102.469 66.8517 102.397C67.1015 102.148 67.4357 102.064 67.7765 102.076Z" fill="#1C1C1C"/>
<path fill-rule="evenodd" clip-rule="evenodd" d="M66.6646 103.131L66.8392 103.321C67.1233 103.296 67.4172 103.298 67.7081 103.299C67.8415 103.299 67.9742 103.3 68.105 103.298C68.0796 103.289 68.0563 103.282 68.0348 103.275C67.8984 103.233 67.8327 103.212 67.7355 103.066L67.6663 103.129C67.5961 103.084 67.5785 103.052 67.5512 102.977C67.5433 102.956 67.5358 102.935 67.5285 102.915C67.4776 102.772 67.4339 102.65 67.2871 102.567L67.2695 102.565C67.1315 102.547 67.059 102.538 66.9391 102.642C66.8244 102.742 66.7507 102.921 66.6896 103.07C66.681 103.091 66.6727 103.112 66.6646 103.131Z" fill="#1C1C1C"/>
<path d="M62.4426 99.7277C61.2197 100.178 60.9283 100.946 61.8572 101.892C61.9716 101.762 61.9905 101.744 62.0074 101.573C61.2561 100.924 61.5911 100.486 62.3034 100.038C62.3457 100.006 62.4231 99.9173 62.4634 99.8742L62.4426 99.7277Z" fill="#CFEF5D"/>
<path d="M70.4203 102.603C70.1614 102.479 69.967 102.73 69.7714 102.937C69.2316 103.509 70.4385 104.359 70.5601 104.79C70.6427 104.836 70.7052 104.828 70.8001 104.831L70.8301 104.717C70.6935 104.407 70.3838 104.064 70.3838 104.064L70.4846 102.92L70.5601 102.92L70.5894 102.829L70.4203 102.603Z" fill="#CFEF5D"/>
<path d="M76.411 100.408C76.2861 100.243 76.0253 100.081 75.8171 100.057C75.6825 100.041 75.5797 100.072 75.4613 100.134C75.4002 100.246 75.3397 100.356 75.2883 100.473L75.194 100.602L75.9108 100.687L76.4702 100.764C76.4826 100.641 76.4423 100.526 76.411 100.408Z" fill="#CFEF5D"/>
<path d="M63.1497 96.5452C62.9754 96.401 62.9169 96.3327 62.6872 96.3016C62.47 96.3751 62.5428 96.3196 62.414 96.5116C62.3444 96.9827 62.658 97.3111 63.1237 97.3043L63.3755 96.9824C63.3885 96.7454 63.3501 96.7856 63.1497 96.5452Z" fill="#D8EA8E"/>
<path d="M69.0307 96.7214L68.9449 96.8362C68.9891 96.9618 68.952 96.9322 69.0353 96.9976C69.6493 97.2225 70.147 97.3495 70.3005 98.1124C70.3447 98.3336 70.2933 98.4623 70.3935 98.6756L70.4943 98.6694C70.5054 98.6437 70.5158 98.6179 70.5268 98.5922C70.7896 97.2668 70.0234 97.0467 69.0307 96.7214Z" fill="#CFEF5D"/>
<path d="M60.3793 105.303C60.1754 105.279 59.9078 105.205 59.7608 105.342L59.6851 105.298L59.713 105.35C60.1111 105.521 60.3759 105.52 60.8087 105.558C61.1196 105.577 61.1754 105.581 61.4835 105.519L61.4699 105.468C61.0707 105.324 60.8041 105.329 60.3793 105.303Z" fill="#0C0C0C"/>
<path d="M60.2641 106.292C60.0602 106.267 59.7926 106.193 59.6457 106.33L59.5699 106.286L59.5978 106.338C59.9959 106.509 60.2607 106.509 60.6935 106.546C61.0045 106.565 61.0603 106.569 61.3684 106.507L61.3547 106.456C60.9555 106.312 60.689 106.317 60.2641 106.292Z" fill="#0C0C0C"/>
<path d="M78.9246 106.082C78.7196 106.095 78.4433 106.071 78.3228 106.233L78.2406 106.203L78.2771 106.249C78.6989 106.345 78.9593 106.296 79.3917 106.254C79.701 106.216 79.7566 106.21 80.0488 106.093L80.0265 106.045C79.6083 105.976 79.347 106.029 78.9246 106.082Z" fill="#0C0C0C"/>
<path d="M78.7792 105.194C78.5743 105.207 78.2979 105.183 78.1775 105.345L78.0952 105.315L78.1318 105.361C78.5536 105.457 78.814 105.408 79.2463 105.366C79.5556 105.329 79.6113 105.322 79.9034 105.205L79.8811 105.158C79.463 105.088 79.2016 105.142 78.7792 105.194Z" fill="#0C0C0C"/>
<path d="M69.3115 89.2199C69.2304 89.2469 69.1899 89.2712 69.1133 89.3095C68.9884 89.6341 69.0474 89.8513 69.1003 90.1937C69.2288 90.1584 69.2194 90.1539 69.3104 90.0517C69.3802 89.7845 69.3337 89.5015 69.3115 89.2199Z" fill="#B8FB35"/>
<path d="M71.4458 89.1187C71.3174 89.1369 71.3264 89.1357 71.2191 89.2109C71.1205 89.5088 71.1523 89.7482 71.2581 90.0439C71.3611 89.9924 71.3315 90.0039 71.4155 89.9132C71.4972 89.6476 71.4604 89.4006 71.4458 89.1187Z" fill="#B8FB35"/>
<path d="M56.5285 97.9936C55.2813 98.3819 52.7971 98.4718 51.4896 98.2784C51.3222 99.545 51.0402 101.776 49.7737 102.378C48.7982 102.842 46.5253 102.293 45.5088 101.937L45.4558 102.728C45.1232 106.949 45.0287 111.203 44.7018 115.426C44.6437 116.175 44.3909 117.044 44.2388 117.797C43.9131 119.406 43.9387 120.986 43.8618 122.621C43.7553 124.897 43.7058 127.188 43.5793 129.465C45.6483 130.037 45.6062 129.898 47.5829 129.647C47.8676 126.77 48.4331 123.857 48.7993 120.987C49.2258 117.639 50.0288 114.321 50.788 111.033C51.3523 108.592 51.8603 105.968 52.55 103.564C52.8826 103.285 53.6622 102.646 54.0802 102.594C54.1018 102.863 53.0483 103.496 52.8199 103.665C52.673 104.13 52.0744 106.353 52.1069 106.737C52.345 109.594 52.8581 112.48 53.1126 115.345C53.222 116.575 53.0392 117.753 53.079 118.979C53.3444 122.271 53.6542 125.57 53.9327 128.862C55.6805 129.075 56.402 129.102 58.0752 128.507C58.0205 127.289 58.0302 126.097 58.0097 124.88C57.9687 122.657 57.9596 120.433 57.9812 118.209C58.008 116.828 58.0809 115.441 58.1077 114.069C58.1657 110.313 58.1959 106.557 58.1976 102.801C58.2005 102.593 58.1931 102.41 58.184 102.203C58.0279 101.997 57.6481 102.145 57.3918 101.888C56.6993 101.193 56.5672 98.9429 56.5285 97.9936Z" fill="#434343"/>
<path d="M56.5285 97.9936C55.2813 98.3819 52.7971 98.4718 51.4896 98.2784C51.3222 99.545 51.0402 101.776 49.7737 102.378C48.7982 102.842 46.5253 102.293 45.5088 101.937L45.4558 102.728C46.7468 103.137 48.8483 103.543 50.0994 102.894C51.2823 102.281 51.6023 100.063 51.8216 98.8445C53.0329 98.8702 54.2072 98.908 55.4071 98.726C55.6235 98.6932 55.8673 98.6633 56.0842 98.648C56.1133 99.2818 56.1856 99.8958 56.2745 100.522C56.4516 101.771 56.7933 102.723 58.1976 102.801C58.2005 102.593 58.1931 102.41 58.184 102.203C58.0279 101.997 57.6481 102.145 57.3918 101.888C56.6993 101.193 56.5672 98.9429 56.5285 97.9936Z" fill="#2E2E2E"/>
<path d="M49.2086 104.564L49.1368 104.624C49.0446 104.823 48.8766 106.362 48.8242 106.742L47.8817 113.738C47.3429 117.681 46.5661 121.594 46.2478 125.583C46.1954 126.242 45.877 128.02 45.9773 128.597C46.1726 128.299 46.3287 126.493 46.3805 126.045L47.0234 120.547C47.2307 118.868 49.4056 105.277 49.2086 104.564Z" fill="#0C0C0C"/>
<path d="M56.9267 104.025L56.8345 104.066C56.765 104.197 56.933 107.625 56.9467 108.076C57.0349 110.29 57.0777 112.505 57.0742 114.72C57.0628 115.764 56.9245 116.832 56.937 117.869C56.9769 121.121 56.9108 124.637 57.1938 127.865L57.257 127.815C57.3704 127.568 57.1318 121.759 57.1073 121.016C57.0162 118.24 57.2832 115.476 57.2388 112.719C57.1841 109.82 57.0799 106.921 56.9267 104.025Z" fill="#0C0C0C"/>
<path d="M56.319 76.4564L56.2569 76.4704C56.2575 76.5895 57.188 77.8207 57.3572 78.1052C56.9916 78.3662 56.8076 78.4501 56.3964 78.6432C56.7752 78.8735 57.4329 79.2849 57.7575 79.5756C57.757 82.4075 57.0667 85.587 56.6664 88.3967C56.6077 88.8072 56.1823 90.0481 56.1863 90.2307C56.2717 93.1694 56.6072 96.1313 56.8822 99.0618C56.999 100.302 56.9847 102.021 58.5742 101.821C58.6027 101.803 58.6385 101.782 58.6625 101.758C58.8527 101.567 59.0446 97.6268 59.0486 97.1201C59.0526 96.7116 59.0087 96.3004 58.9688 95.8941C58.388 95.971 58.1613 95.9371 58.0947 95.2268C58.0628 94.8883 58.04 94.5414 58.0075 94.202L58.7257 93.9373C58.6357 93.0299 58.3458 91.2222 58.4278 90.3943C58.8407 86.2251 59.9455 82.1408 59.81 77.913C58.5622 77.3955 57.569 77.0731 56.319 76.4564Z" fill="#B5FE28"/>
<path d="M56.1884 66.4832C53.9378 67.3398 54.3108 66.602 52.2043 66.334C51.9019 66.5234 51.6268 66.6868 51.3489 66.9133C51.3614 67.3028 51.3876 67.758 51.3717 68.1423C50.8882 68.8586 50.7697 68.8616 50.6325 69.7491L50.608 69.37L50.6382 69.4242L50.5806 69.3671C50.5317 69.5455 50.5077 69.6274 50.4468 69.8019C50.3893 69.9645 50.3705 70.1385 50.391 70.3099L50.5151 70.3792C50.4092 70.4185 50.3397 70.4206 50.2281 70.4366C49.8659 70.2914 49.8266 69.2481 49.1803 69.1388C49.0282 69.1788 49.0259 69.1819 48.9251 69.2739C48.752 69.4313 48.7452 69.621 48.752 69.8054C48.7993 71.029 49.1244 71.553 50.2378 71.7637C50.5385 72.2731 50.4343 73.0367 50.9121 73.4563C51.6257 74.0842 52.4617 74.9536 53.3888 75.2037C53.8626 75.3316 54.8325 75.3555 55.0927 74.9284C56.1856 73.1368 56.7067 71.3164 56.6389 69.2575C56.5358 69.0666 56.5689 69.1276 56.2989 69.0352C56.4612 69.0276 56.5421 69.0407 56.6771 68.9495C56.7249 68.759 56.7266 68.8521 56.6662 68.6605C56.6486 67.8832 56.4886 67.1938 56.1884 66.4832Z" fill="white"/>
<path d="M56.6662 68.6585C56.1867 68.578 55.5392 68.6737 55.2351 69.0966L55.251 69.1998C55.5819 69.3583 55.8929 69.1812 56.2459 69.0527L56.2989 69.0333C56.4612 69.0257 56.5421 69.0388 56.6771 68.9475C56.7249 68.757 56.7266 68.8501 56.6662 68.6585Z" fill="#0C0C0C"/>
<path d="M50.6323 69.7502L50.6079 69.371L50.6381 69.4253L50.5805 69.3682C50.5316 69.5466 50.5076 69.6284 50.4467 69.803C50.3892 69.9656 50.3704 70.1396 50.3909 70.311L50.515 70.3802C50.6449 70.1561 50.6232 70.0133 50.6323 69.7502Z" fill="#1C1C1C"/>
<path d="M54.4229 72.6097C53.9764 72.5783 53.2628 72.4526 52.9336 72.8029C52.8083 73.2581 53.49 73.6276 53.8511 73.7436C54.477 73.7758 54.8802 73.7426 55.2629 73.0664C55.3432 72.925 55.3073 72.8452 55.256 72.7058C55.0635 72.5883 54.67 72.6154 54.4229 72.6097Z" fill="#0C0C0C"/>
<path d="M53.3648 72.7186L53.2794 72.7138L53.2315 72.7674L53.1666 72.7379L53.1381 72.8046C53.4024 73.0499 54.4628 73.0444 54.8016 73.0392C54.9064 73.0258 54.9241 73.0048 55.0249 72.9594L55.0317 72.9042C54.7589 72.7437 53.7298 72.7361 53.3648 72.7186Z" fill="#EBEBEA"/>
<path d="M53.6049 73.2324C53.5645 73.2218 53.5092 73.2268 53.4642 73.2271L53.5098 73.3084C53.8128 73.4873 53.8555 73.5017 54.2017 73.5629L54.3885 73.5175L54.3982 73.4468C54.1522 73.3179 53.8805 73.2861 53.6049 73.2324Z" fill="#9E9E9E"/>
<path d="M52.8207 68.3521C52.2375 68.3217 51.8702 68.688 51.475 69.0694C52.2125 68.8238 52.348 68.7048 53.0838 68.9083C53.3925 69.0256 53.9147 69.2805 54.1977 69.0242C54.077 68.5885 53.2097 68.4468 52.8207 68.3521Z" fill="#2E2E2E"/>
<path d="M53.1906 69.4537C52.6581 69.4343 52.5225 69.4792 52.1376 69.8315C52.3562 69.7612 52.5476 69.6834 52.776 69.6731L52.8209 69.7455L52.7059 69.9834C52.7782 70.0421 52.8659 70.1038 52.9417 70.16C53.1228 70.1797 53.0476 70.2046 53.1803 70.1038C53.2315 69.9619 53.2566 69.8335 53.3677 69.741C53.4873 69.8321 53.5038 69.8535 53.645 69.9113C53.6325 69.6514 53.387 69.5569 53.1906 69.4537Z" fill="#0C0C0C"/>
<path d="M56.0536 69.4949C55.7648 69.4894 55.3371 69.6205 55.2136 69.8994L55.295 69.9533C55.4231 69.9014 55.4801 69.8384 55.5837 69.7475L55.6487 69.8126C55.639 70.0307 55.639 70.0196 55.7141 70.2255C55.8531 70.2255 55.893 70.2081 56.0262 70.1742C56.1492 70.0069 56.1082 70.0505 56.1014 69.7862L56.1515 69.7427C56.2882 69.8578 56.3081 69.9148 56.4573 69.94L56.4465 69.8503C56.3184 69.6492 56.2586 69.6297 56.0536 69.4949Z" fill="#0C0C0C"/>
<path d="M54.8917 69.6562C54.8649 69.6855 54.8233 69.7588 54.8 69.7957C54.825 70.2246 54.9122 70.8176 55.0528 71.2202L55.1417 71.096C55.1172 70.7098 55.0397 69.9999 54.8917 69.6562Z" fill="#1C1C1C"/>
<path d="M55.2837 71.5791C55.245 71.5975 55.1476 71.6649 55.1123 71.6909C54.7746 71.9422 54.368 71.6823 53.9973 71.6855L53.9198 71.7864C54.4261 71.9219 55.0616 72.3436 55.2837 71.5791Z" fill="#0C0C0C"/>
<path d="M54.6288 74.1051C54.3646 74.0941 53.8429 74.0128 53.6727 74.1837C53.9705 74.3102 54.3737 74.3341 54.6288 74.1051Z" fill="#0C0C0C"/>
<path d="M58.4281 130.06C57.2999 127.784 55.9781 132.271 54.1973 129.891C54.1005 130.243 53.9763 130.631 53.9575 130.992C54.0088 131.084 53.9849 131.07 54.0612 131.127L53.986 131.233C53.8123 131.444 53.7571 132.174 53.773 132.451C53.7491 132.56 53.7303 132.645 53.699 132.752C53.8921 132.686 54.6819 132.932 55.0071 132.968C55.1096 132.885 55.1859 132.845 55.2976 132.779L55.3807 132.656C55.5436 132.904 56.2105 132.812 56.5186 132.903C58.4827 133.483 60.3797 133.879 62.4111 133.321C62.6207 133.264 62.7255 133.273 62.8576 133.07C62.6714 132.556 61.1707 132.083 60.493 131.634C59.5534 131.808 59.8233 131.856 59.1473 132.082L59.0824 132.006L59.1217 131.875C59.3307 131.69 59.829 131.552 60.1064 131.459L60.1217 131.393C59.9674 131.256 59.8831 131.255 59.677 131.202C59.6342 131.126 59.6399 131.085 59.624 130.991C59.3916 130.802 59.313 130.719 59.0272 130.742C59.087 130.554 58.9736 130.749 59.0038 130.477C58.7925 130.33 58.7646 130.315 58.5135 130.27L58.4281 130.06Z" fill="#EBEBEA"/>
<path d="M53.9887 131.238C53.8151 131.448 53.7598 132.178 53.7758 132.455C53.7518 132.564 53.7331 132.649 53.7017 132.757C53.8948 132.691 54.6847 132.936 55.0098 132.972C55.1124 132.889 55.1887 132.849 55.3003 132.783C54.9051 131.814 54.8589 131.811 53.9887 131.238Z" fill="#B8FB35"/>
<path d="M53.7758 132.454C53.7518 132.563 53.7331 132.648 53.7017 132.755C53.8948 132.689 54.6847 132.935 55.0098 132.971C55.1124 132.888 55.1887 132.848 55.3003 132.782C54.7621 132.682 54.3082 132.586 53.7758 132.454Z" fill="#0C0C0C"/>
<path d="M55.383 132.659C55.3733 131.946 54.6489 131.393 54.0635 131.13L53.9883 131.237C54.8585 131.81 54.9051 131.813 55.3003 132.782L55.383 132.659Z" fill="#0C0C0C"/>
<path d="M59.6803 131.201C59.6376 131.125 59.6433 131.085 59.6274 130.99C59.1997 131.08 58.8842 131.137 58.5311 131.415L58.5003 131.52C58.6877 131.59 59.5323 131.295 59.6803 131.201Z" fill="#0C0C0C"/>
<path d="M59.0291 130.745C59.0889 130.558 58.9756 130.752 59.0058 130.48C58.4647 130.705 58.352 130.595 57.8019 131.006L57.807 131.107C58.0849 131.106 58.5872 130.827 59.0291 130.745Z" fill="#0C0C0C"/>
<path d="M58.4281 130.062C58.0955 130.106 57.3444 130.285 57.1855 130.595L57.2265 130.604L57.2043 130.533L57.2003 130.602C57.6251 130.587 58.0597 130.363 58.5135 130.271L58.4281 130.062Z" fill="#0C0C0C"/>
<path d="M54.8714 75.4502L54.7056 75.4894C54.5331 75.7923 54.7649 76.3995 54.848 76.7572C55.815 80.9335 55.9836 85.3837 56.122 89.6586C56.282 89.0342 56.3856 88.4143 56.5001 87.78C56.9665 85.4497 57.3749 81.9933 57.4927 79.6695C56.9876 79.3219 56.4295 79.0357 55.9551 78.638C56.2814 78.4 56.6174 78.225 56.9694 78.0317C56.5092 77.2511 55.4978 76.1081 54.8714 75.4502Z" fill="#B5FE28"/>
<path d="M45.7769 130.462C44.4898 130.374 44.7962 130.959 44.3013 131.116C44.1459 131.05 44.0337 130.98 43.8702 131C43.7666 131.186 43.1532 133.611 43.0126 134.077C43.7017 134.582 44.2649 134.643 45.0907 134.721C45.6641 134.746 47.5378 134.769 47.7342 134.075C47.6636 133.62 47.3715 133.073 47.2274 132.622C47.0907 132.194 47.138 131.31 46.851 131.009C46.1528 131.186 46.5879 130.641 45.7769 130.462Z" fill="#EBEBEA"/>
<path d="M45.8537 131.971C45.315 131.915 44.9465 131.936 44.4584 132.213L44.4425 132.293C44.6247 132.355 44.7962 132.274 44.9869 132.217C45.5217 132.166 46.1994 132.302 46.5052 132.222L46.4579 132.138C46.27 132.023 46.073 132.01 45.8537 131.971Z" fill="#0C0C0C"/>
<path d="M46.0433 131.387C45.705 131.359 44.5688 131.301 44.4356 131.677C44.5893 131.739 44.6531 131.699 44.8143 131.651L44.8735 131.632C45.3286 131.568 46.3235 131.703 46.5023 131.594C46.3656 131.426 46.2693 131.434 46.0433 131.387Z" fill="#0C0C0C"/>
<path d="M45.5676 132.553C45.1251 132.565 44.8102 132.624 44.4132 132.827L44.4098 132.883C44.7133 132.942 44.977 132.844 45.2937 132.778C45.768 132.748 46.0414 132.895 46.55 132.824L46.5289 132.767C46.1553 132.587 45.9833 132.59 45.5676 132.553Z" fill="#0C0C0C"/>
<path d="M60.1718 78.1847C60.0932 78.4986 60.0881 79.9188 60.0448 80.3774C59.8979 81.9347 59.6952 83.4419 59.473 84.9885C59.9201 85.3404 60.2675 85.6274 60.6906 86.0106C60.8455 85.4295 60.9429 84.9229 61.1297 84.3354C61.7487 82.6569 63.1218 82.7664 63.4191 82.0065C63.3957 81.6679 63.0563 81.3914 62.8205 81.1465C61.9002 80.1914 61.0562 79.1717 60.1718 78.1847Z" fill="#B5FE28"/>
<path d="M50.0751 71.7095C50.0443 72.248 50.0813 72.93 50.0198 73.4416C49.8632 74.7426 49.8638 75.3618 50.152 76.6382C51.1173 77.4386 51.9128 77.8489 53.2215 77.737C53.7364 77.693 54.4425 77.5081 54.3207 76.833C54.3229 76.3388 54.3224 75.9675 54.3787 75.473C53.3548 75.4976 52.8172 75.4274 51.9943 74.735C51.4328 74.2621 50.9134 73.8291 50.4287 73.2629C50.2061 72.6668 50.1588 72.344 50.0751 71.7095Z" fill="#EBEBEA"/>
<path d="M54.3787 75.4748C53.3548 75.4993 52.8172 75.4291 51.9943 74.7367C51.4328 74.2638 50.9134 73.8308 50.4287 73.2646C50.5011 73.9691 51.6845 75.2546 52.2169 75.8812C52.8035 76.571 53.4089 76.3178 54.2375 76.3539C54.2324 76.3537 54.3121 76.8003 54.3207 76.8348C54.3229 76.3406 54.3224 75.9692 54.3787 75.4748Z" fill="#D5D4D4"/>
<path d="M59.4807 85.3294C59.3543 85.5226 59.2352 86.6642 59.1703 86.9538C58.6339 89.3439 58.6065 91.433 59.0205 93.8375C59.1043 94.326 59.106 94.8421 59.2102 95.3399C59.2876 95.2022 59.2933 94.9678 59.3104 94.8018C59.6692 91.8007 60.0923 89.2391 60.6311 86.2705L59.4807 85.3294Z" fill="#F2F2F2"/>
<path d="M69.726 79.3096C68.8366 79.3201 67.9602 80.4809 67.2181 81.0828C67.4676 81.2064 67.6936 81.3661 67.9249 81.521C68.3702 81.2756 69.5135 80.6759 69.9687 80.8253C70.6485 81.1236 71.2686 81.3926 71.9245 81.7396L72.4467 81.2542C71.3136 80.5541 70.9026 79.6857 69.726 79.3096Z" fill="#B8FB35"/>
<path d="M55.0078 132.967C54.6826 132.93 53.8927 132.685 53.6996 132.751C53.7065 132.988 53.6848 133.148 53.8056 133.344C54.2777 133.67 56.0944 133.677 56.731 133.851C58.6092 134.366 60.3729 134.604 62.303 134.177C62.803 134.067 63.0256 134.07 63.0376 133.53L62.9824 133.428C62.6475 133.413 62.2301 133.673 61.906 133.7C61.2272 133.757 60.4196 133.862 59.7419 133.804C58.0756 133.661 56.7037 133.124 55.0078 132.967Z" fill="#EBEBEA"/>
<path d="M45.4964 93.9921L45.4486 94.0086C45.3586 94.184 45.2157 95.0605 45.1695 95.3083C45.9924 95.5838 47.5996 95.9458 48.4521 96.0196C48.7283 95.681 48.7784 95.0987 48.8319 94.6732C47.7134 94.4836 46.6007 94.2564 45.4964 93.9921Z" fill="#B5FE28"/>
<path d="M69.7588 81.0437C69.4445 81.09 68.5376 81.5396 68.2085 81.6939C68.91 82.285 69.5945 82.827 70.1556 83.5631C70.1911 83.5613 70.2267 83.5597 70.2622 83.5579C70.6649 83.0389 71.2614 82.3825 71.6984 81.9393C71.093 81.6432 70.379 81.2724 69.7588 81.0437Z" fill="#B5FE28"/>
<path d="M69.2048 76.2579C68.4092 76.561 67.0442 76.9106 67.5602 78.1345C67.7259 78.5279 67.9269 78.7698 68.2492 79.046C68.6641 79.0287 69.0986 79.0034 69.5118 79.0002C69.4986 78.7804 69.5035 78.5261 69.4198 78.3308L69.4538 78.3047C69.3657 78.2138 69.4041 78.2404 69.2848 78.1983L69.2761 78.2444L68.8179 77.623C68.6683 77.6447 68.6029 77.7094 68.4791 77.7976L68.3574 77.7791C68.2862 77.5311 68.9803 77.1931 69.195 77.0085L69.2048 76.2579Z" fill="#EBEBEA"/>
<path d="M69.4204 78.3328L69.4544 78.3067C69.3663 78.2157 69.4047 78.2424 69.2854 78.2003L69.2767 78.2463C69.1438 78.3549 69.0596 78.4235 68.9401 78.5461L68.9312 78.6734C69.1606 78.7578 69.3026 78.4983 69.4204 78.3328Z" fill="#0C0C0C"/>
<path d="M68.9094 79.2435C67.351 79.3361 66.4826 79.4551 64.9814 79.7836C64.9922 79.801 65.0816 79.9392 65.0907 79.9653C65.7132 80.2682 66.347 80.6084 66.9626 80.9293C67.7383 80.3736 68.1449 79.769 68.9094 79.2435Z" fill="#B5FE28"/>
<path d="M43.0536 134.402L43.0148 134.454C42.9118 135.137 43.2512 135.265 43.8765 135.412C45.0496 135.687 46.716 135.758 47.7878 135.116C47.8344 134.976 47.872 134.627 47.8003 134.494C46.2883 135.147 44.5217 135.211 43.0536 134.402Z" fill="#EBEBEA"/>
<path d="M70.08 74.5481C70.0174 74.5446 69.7791 74.5349 69.7342 74.5479C69.0357 74.7491 68.2663 76.0144 67.8973 76.5624C68.3506 76.3154 68.6833 76.2357 69.1318 76.0084C69.2954 75.9255 69.2791 75.7418 69.3098 75.5471C69.3254 75.3373 69.2914 75.4293 69.4154 75.2608L69.4836 75.29C69.5184 75.4386 69.4653 77.0716 69.4706 77.3733C70.0687 76.7243 70.866 75.3136 70.08 74.5481Z" fill="#EBEBEA"/>
<path d="M57.3838 129.073C56.1309 129.222 55.7624 129.295 54.5323 129.212C54.28 129.396 54.4736 129.865 54.6183 130.078C55.4139 130.739 56.1024 130.184 56.6668 129.558C56.9122 129.286 57.2721 129.31 57.3838 129.073Z" fill="#A7A8A4"/>
<path d="M70.7524 74.9948C70.5582 75.0828 70.5607 75.1678 70.5627 75.43C70.5712 76.577 70.3648 76.4289 69.9097 77.3513C70.0082 77.4937 70.0673 77.4832 70.2508 77.5693C70.9023 77.0931 71.3535 76.2825 71.1694 75.4423C71.1123 75.1815 70.9731 75.1317 70.7524 74.9948Z" fill="#EBEBEA"/>
<path d="M69.3597 77.2563C69.2246 77.3255 69.2338 77.3277 69.1366 77.4488C69.1598 77.731 69.5457 78.0787 69.7499 78.3001L69.8255 79.1056C70.0302 79.0149 70.2405 78.9123 70.4442 78.8169C70.6379 78.6659 70.8323 78.5479 70.9403 78.3331C70.8877 78.0336 69.7911 77.6503 69.3597 77.2563Z" fill="#D5D4D4"/>
<path d="M71.5302 75.6954C71.3165 75.8967 71.3489 76.6504 71.2074 76.9203C71.0721 77.1783 70.6305 77.4328 70.613 77.7343L70.779 77.8774C71.0333 77.7396 71.329 77.6031 71.508 77.3693C71.9387 76.8067 72.1584 76.1954 71.5302 75.6954Z" fill="#EBEBEA"/>
<path d="M58.7523 94.2393C58.6025 94.2797 58.5136 94.2891 58.3946 94.3904C58.2215 94.77 58.3724 95.2888 58.447 95.7184C58.5421 95.6923 58.7665 95.6521 58.8103 95.5907C58.9886 95.3445 58.799 94.5464 58.7523 94.2393Z" fill="#B5FE28"/>
<path d="M72.1999 76.5576C72.0034 76.7371 71.9788 77.2485 71.7391 77.5423C71.5222 77.8081 71.427 77.7681 71.216 77.9717L71.2535 78.1617C71.6732 78.1259 71.9089 77.928 72.1933 77.6479C72.3207 77.1784 72.4273 76.9733 72.1999 76.5576Z" fill="#EBEBEA"/>
<path d="M46.5967 130.094C45.5408 130.184 45.198 130.168 44.1422 129.898C44.1256 130.23 44.0898 130.68 44.1217 130.997C44.2942 130.784 44.4559 130.584 44.6194 130.362C45.2282 130.17 45.5465 130.173 46.19 130.278C46.3119 130.147 46.3979 130.157 46.5967 130.094Z" fill="#A7A8A4"/>
<path d="M46.1903 130.28C46.3082 130.354 46.5656 130.616 46.6966 130.73C46.7586 130.548 46.8173 130.259 46.7393 130.079L46.5969 130.097C46.3981 130.159 46.3122 130.149 46.1903 130.28Z" fill="#A7A8A4"/>
<path d="M67.3496 78.3579C67.3268 78.3801 67.2852 78.4574 67.2664 78.4888C67.2425 78.8614 67.316 79.041 67.681 79.1041L67.7368 79.0382C67.6377 78.8269 67.4709 78.6251 67.3496 78.3579Z" fill="#2E2E2E"/>
<path d="M33.6247 76.2968C33.5251 76.3708 33.5564 76.3434 33.4824 76.4459C33.6635 77.1347 35.4608 78.5569 35.4278 78.7922C34.6703 78.8397 33.4755 76.6083 32.8884 76.5208C32.7489 76.6318 32.8007 76.5593 32.7614 76.7667C32.8303 76.9773 32.824 76.9609 33.0609 77.1062C33.5667 77.416 33.7996 78.0595 34.2375 78.5239C34.516 78.8189 34.8782 79.101 35.1111 79.3782L35.0974 79.4781C34.8247 79.4847 34.4055 79.0496 34.1737 78.8462L34.4243 79.6971C34.6316 79.8544 34.8793 79.9906 34.9386 80.2329L34.8566 80.2711C34.5752 80.1972 34.4118 80.0205 34.184 79.8285C34.086 79.4774 33.9226 78.6669 33.5729 78.5399L33.4983 78.6511C33.422 79.1774 33.5934 79.8001 33.836 80.2644C34.8161 81.3241 35.786 81.7742 36.9927 82.4541C37.0474 82.4849 36.9865 82.6828 36.9734 82.7505C37.6095 83.1775 38.5537 82.0567 38.835 81.5498C38.3948 80.7989 38.6807 79.9692 38.5155 79.5957C38.2667 79.033 37.2832 77.0158 36.9961 76.5903L36.8714 76.6213C36.3646 77.2111 37.1476 77.9879 37.0821 78.7503L37.0064 78.805C35.5075 78.5796 34.5223 76.8827 33.6247 76.2968Z" fill="#EBEBEA"/>
<path d="M35.9644 80.3288C35.8561 80.3154 35.8789 80.3217 35.7673 80.3414C35.7838 80.4889 37.047 80.6999 37.531 81.2634L37.6005 81.3483L37.6848 81.3427C37.6871 80.641 36.4718 80.422 35.9644 80.3288Z" fill="#0C0C0C"/>
<path d="M39.0463 81.7483C38.3681 82.65 38.1722 83.0376 36.9392 83.1075L37.2598 83.8146L37.3105 83.9016C37.9911 84.0087 39.5065 82.6891 39.0463 81.7483Z" fill="#2E2E2E"/>
<path d="M32.8072 77.2875C32.5401 77.6033 32.9371 78.2406 33.1347 78.5474L33.1962 78.5262C33.3704 78.3255 33.5538 78.1892 33.4092 77.8997C33.3186 77.7174 32.9644 77.4229 32.8072 77.2875Z" fill="#EBEBEA"/>
<path d="M95.2951 44.7208C95.6586 44.5537 96.11 44.6731 96.3035 44.9878C96.497 45.3027 96.3607 45.6941 95.9986 45.8631C95.6337 46.0328 95.1808 45.9139 94.9858 45.5978C94.7909 45.2818 94.9287 44.8888 95.2951 44.7208Z" fill="#1C1C1C"/>
</svg>
