<svg width="408" height="400" viewBox="0 0 408 400" fill="none" xmlns="http://www.w3.org/2000/svg">
<g clip-path="url(#clip0_923_57730)">
<path d="M44.6426 271.446C44.4898 271.521 44.3858 271.673 44.313 271.873C44.1852 272.223 44.1533 272.724 44.1212 273.226C44.0726 273.988 44.0236 274.756 43.6401 275.018C41.9063 280.784 37.5112 298.759 36.8137 304.47C48.7573 328.927 140.412 334.701 164.196 335.823C212.699 338.543 261.295 336.318 309.529 329.168C327.721 326.343 349.86 322.46 366.386 311.478C371.672 307.966 372.39 302.181 370.158 295.685C369.513 293.986 368.905 291.149 368.259 288.056L368.144 287.506C367.991 286.776 367.831 285.986 367.664 285.16C366.74 280.599 365.597 274.955 364.299 272.236C364.027 271.665 363.747 271.223 363.462 270.948C362.693 263.826 358.431 246.759 355.724 235.916C355.168 233.686 354.676 231.718 354.295 230.155L335.667 154.026L270.295 -118.009H138.576C137.455 -113.846 136.448 -109.427 135.449 -105.044C134.896 -102.619 134.346 -100.205 133.78 -97.8505L122.761 -52.0538L83.9305 108.556L58.5903 212.815C55.5134 225.072 52.5343 237.37 49.653 249.706C49.209 251.564 48.7404 253.455 48.2675 255.362C46.9465 260.692 45.5917 266.157 44.6426 271.446Z" fill="#A4E7EF"/>
<path d="M214.709 84.5513C215.862 83.9585 215.536 83.8951 216.492 84.146C218.354 87.1716 218.101 97.155 217.275 100.719C217.032 101.747 216.728 102.758 216.362 103.747L217.014 104.699C223.105 105.225 226.891 109.231 228.253 115.076C236.373 119.188 239.533 123.66 242.095 132.206C245.424 143.328 249.671 163.33 235.373 168.383C236.138 174.254 236.859 177.631 233.942 183.007C234.678 187.393 233.859 186.355 233 190.651C232.837 191.456 233.156 194.254 233.257 195.309C235.833 220.994 238.102 246.709 240.062 272.449C240.171 273.939 240.261 278.008 240.515 279.269C241.084 282.08 243.83 285.352 241.776 288.705C240.841 290.234 239.116 289.567 238.558 291.147C239.823 294.842 245.921 299.089 249.28 300.906L249.747 300.858C252.443 291.091 254.62 280.625 257.008 270.74C257.671 267.993 256.983 266.971 257.653 264.116L266.161 227.695C267.632 221.485 269.121 215.276 270.57 209.062C270.762 208.248 270.393 206.033 270.237 205.139C269.454 200.65 272.179 201.261 275.792 201.385C275.821 194.372 276.317 179.332 275.734 172.936C274.118 171.789 272.302 173.612 271.875 170.682C271.317 166.885 275.165 166.647 275.904 164.933C275.853 163.951 275.853 163.812 275.266 163.032C274.161 162.785 272.06 162.67 270.878 162.789C264.512 163.434 265.516 158.635 265.534 154.245C265.545 151.842 265.614 152.181 263.686 151.351C262.907 150.453 263.074 143.567 263.309 142.11C263.469 141.121 264.519 140.954 265.219 140.779C266.621 137.044 263.918 125.12 267.433 124.678C270.483 124.293 283.324 123.695 286.151 125.057C290.147 128.948 284.948 138.708 289.738 142.697C290.47 143.307 290.531 149.807 289.629 150.989C288.89 151.46 288.31 151.747 287.774 152.438C287.364 155.696 288.604 159.722 286.335 162.136C284.875 163.693 282.719 161.714 281.977 164.022C281.379 166.832 287.227 170.843 289.357 171.367C289.756 170.979 290.423 170.114 290.944 170.177C293.238 170.449 295.495 171.612 297.655 172.391C300.604 173.456 303.369 174.652 300.437 177.799C296.064 180.18 287.129 170.567 284.651 171.013C283.513 172.575 283.995 172.411 281.937 172.754C281.629 172.803 281.321 172.85 281.016 172.894C280.422 174.539 280.745 197.898 280.748 201.367C282.31 201.323 284.296 201.094 285.651 201.752C286.672 203.331 285.872 208.801 286.361 211.011C290.223 228.418 294.767 245.805 298.484 263.243C300.202 271.287 300.974 278.413 303.343 286.629C319.536 286.631 338.769 287.096 354.748 286.563C361.987 286.832 369.455 286.528 376.701 286.641C379.611 286.686 384.966 286.471 387.647 287.028C386.068 288.441 367.505 287.861 363.77 287.868C343.791 287.861 323.572 287.718 303.615 287.95L308.275 308.172C308.869 310.712 309.84 315.441 310.579 317.778C313.373 318.606 318.757 319.654 318.547 323.283C318.293 323.718 318.003 324.133 317.601 324.446C308.949 331.194 268.346 330.351 256.189 328.976C251.272 328.42 239.16 327.094 236.134 323.301C235.978 322.314 236.036 322.098 236.221 321.102L236.272 320.825C231.196 320.466 224.492 320.949 219.615 321.131C206.358 321.627 144.009 321.43 136.736 312.907C135.82 307.362 160.579 305.139 165.188 304.64C169.287 301.527 175.774 299.059 180.075 295.956C181.452 294.963 181.809 293.606 182.918 292.53C183.518 291.947 184.63 292.061 185.472 291.267C184.638 289.893 180.909 290.029 180.555 287.611C180.037 284.078 181.668 280.706 181.507 277.151C180.806 261.651 180.155 246.07 180.058 230.553C180.01 223.696 180.003 216.838 180.039 209.981C180.061 207.939 180.657 198.363 179.559 197.61C178.745 198.105 177.949 200.247 177.188 201.479C177.278 205.708 178.006 208.132 173.043 209.078C164.634 210.681 135.043 211.947 128.521 207.711C127.286 205.986 127.607 203.776 127.672 201.655C126.527 199.714 126.257 199.223 125.693 197.054L125.23 197.161C124.165 201.347 122.187 203.031 119.867 206.398C119.325 207.43 118.83 210.71 117.385 210.987C114.451 211.551 109.508 209.556 106.88 208.338C107.819 202.558 106.546 198.62 107.246 193.55C108.49 184.555 111.093 175.162 113.044 166.246C115.265 156.096 117.943 145.835 120.999 135.91C122.863 129.962 126.278 128.363 131.625 125.864C132.048 120.951 134.578 118.14 139.227 117.064C138.452 112.146 138.876 109.538 142.895 105.975C144.872 103.616 154.853 100.062 156.203 104.603C156.955 107.131 155.167 106.16 158.118 110.212C157.92 111.396 156.743 112.617 155.948 113.609C156.81 114.434 157.977 115.789 158.814 116.704C165.318 116.839 168.637 116.207 172.187 122.213C176.267 118.321 180.578 115.638 186.066 114.118C186.255 113.397 186.461 112.681 186.683 111.969C187.723 108.705 189.665 106.825 192.948 105.695C194.339 105.214 195.075 105.431 196.52 104.681C196.509 103.155 196.325 102.498 195.977 101.004C193.654 100.906 191.861 100.963 190.611 98.6667C189.245 96.1633 189.495 93.0899 192.053 91.5612L192.582 92.4355C194.886 92.9045 195.252 93.4199 196.915 95.0304C197.785 91.5876 198.404 89.3929 198.252 85.769C203.941 84.7505 211.427 86.5668 214.709 84.5513Z" fill="#1C1C1C"/>
<path d="M275.861 312.887C275.897 320.064 276.044 326.176 276.444 327.086C278.136 328.353 279.107 328.178 280.502 326.606C280.977 324.792 280.838 319.067 280.753 315.55C280.735 314.807 280.719 314.162 280.712 313.673L281.226 314.585C282.74 314.961 287.766 315.194 291.325 315.359C292.545 315.415 293.592 315.464 294.267 315.507C295.861 315.61 297.727 315.833 299.586 316.055C301.731 316.312 303.866 316.567 305.564 316.635C305.586 316.752 305.608 316.874 305.631 317.002C306.073 319.454 306.847 323.752 310.191 322.866C311.607 321.289 311.164 319.776 310.626 317.937C310.61 317.884 310.595 317.831 310.579 317.778C310.88 317.867 311.212 317.958 311.563 318.055C314.469 318.861 318.734 320.045 318.547 323.283C318.293 323.718 318.003 324.133 317.601 324.446C308.949 331.194 268.346 330.351 256.189 328.976L256.009 328.955C250.982 328.387 239.123 327.048 236.134 323.301C235.986 322.363 236.031 322.12 236.194 321.244C236.203 321.198 236.212 321.151 236.221 321.102L236.272 320.825C232.308 320.545 227.353 320.777 223.05 320.979C221.841 321.036 220.685 321.092 219.615 321.131C206.358 321.627 144.009 321.43 136.736 312.907C135.872 307.679 157.828 305.403 164.207 304.742C164.594 304.702 164.924 304.669 165.188 304.64C152.182 319.913 197.125 312.09 201.198 309.522C201.997 309.018 201.849 305.114 201.785 303.437C201.777 303.212 201.77 303.027 201.767 302.896C203.354 302.869 205.921 302.954 208.728 303.048C213.909 303.22 219.906 303.42 222.068 302.987L222.721 301.517C222.7 301.751 222.67 302.033 222.637 302.351C222.399 304.611 221.976 308.647 223.173 309.575C226.732 312.331 242.395 315.173 246.453 315.41C246.403 315.595 246.349 315.791 246.291 315.997C245.679 318.188 244.783 321.397 246.482 323.086C249.689 323.549 250.79 318.657 251.396 315.963C251.446 315.741 251.493 315.535 251.537 315.347C254.704 315.069 258.61 314.641 258.269 310.035L275.861 312.887Z" fill="#D9DBD5"/>
<path fill-rule="evenodd" clip-rule="evenodd" d="M275.861 312.887L258.269 310.035C258.113 307.884 256.178 305.592 254.475 304.31C254.327 304.198 254.175 304.087 254.022 303.979C256.341 294.072 258.66 284.166 261.037 274.273C261.377 272.862 261.862 271.422 262.345 269.987C262.887 268.379 263.427 266.776 263.758 265.225C265.185 258.536 266.858 251.814 268.534 245.081C270.87 235.695 273.211 226.289 274.896 216.929C275.239 224.959 275.153 233.038 275.066 241.123C274.944 252.511 274.822 263.909 275.9 275.191C276.137 277.676 276.086 280.817 276.04 283.698C276.023 284.737 276.007 285.745 276.005 286.673C275.722 286.669 275.343 286.662 274.893 286.655C271.728 286.6 265.059 286.484 263.512 286.897L263.49 287.28C265.105 288.072 270.668 287.962 274.092 287.895C274.84 287.88 275.485 287.867 275.965 287.866C275.968 288.834 275.952 290.8 275.931 293.361L275.931 293.367L275.931 293.374C275.889 298.564 275.827 306.191 275.861 312.887Z" fill="#A4E7EF"/>
<path d="M207.781 216.236C208.868 219.645 210.709 232.294 211.379 236.321L218.495 279.652C219.452 285.474 217.579 285.569 220.01 291.183C221.351 291.333 222.662 291.306 223.648 292.168C225.007 294.216 222.764 298.207 222.721 301.517L222.068 302.987C218.735 303.654 206.281 302.818 201.767 302.896C201.484 298.206 200.426 296.839 199.828 292.507C199.549 290.669 202.183 291.029 203.23 289.756C205.625 286.841 203.462 284.176 203.709 280.507C205.194 259.092 206.553 237.667 207.781 216.236Z" fill="#A4E7EF"/>
<path d="M280.697 287.867C286.49 287.824 293.034 287.647 298.759 287.915C300.487 295.267 303.448 309.993 305.564 316.635C302.394 316.509 297.702 315.728 294.267 315.507C291.625 315.337 283.259 315.09 281.226 314.585L280.712 313.673L280.697 287.867Z" fill="#A4E7EF"/>
<path d="M214.709 84.5513C215.862 83.9585 215.536 83.8951 216.492 84.146C218.354 87.1716 218.101 97.155 217.275 100.719C217.032 101.747 216.728 102.758 216.362 103.747C210.796 113.375 202.549 105.786 201.448 106.294C201.683 106.842 201.712 106.997 202.064 107.488C202.415 112.767 208.611 112.178 211.238 113.611C208.448 115.851 206.376 117.599 203.962 120.224C201.788 118.291 200.582 117.269 198.792 114.988C198.462 111.04 198.194 107.092 197.611 103.245C196.803 97.9191 195.361 100.945 191.882 98.386C189.545 96.6671 190.919 94.204 192.582 92.4355C194.886 92.9045 195.252 93.4199 196.915 95.0304C197.785 91.5876 198.404 89.3929 198.252 85.769C203.941 84.7505 211.427 86.5668 214.709 84.5513Z" fill="white"/>
<path d="M209.969 91.229L210.842 91.9204C212.038 94.4911 213.169 96.5058 210.774 98.4724C210.143 98.2142 210.172 98.2544 209.763 97.7119L210.995 96.5605C211.092 95.3983 210.107 93.5429 209.969 91.229Z" fill="#0C0C0C"/>
<path d="M205.43 100.045C207.738 100.915 211.22 101.148 211.945 101.761C209.604 102.901 206.872 102.209 205.43 100.045Z" fill="#0C0C0C"/>
<path d="M202.882 89.0098C204.339 88.7513 205.074 88.4836 206.252 89.2789L205.962 89.6878L205.136 89.5372C204.031 89.9707 203.335 90.3423 202.143 90.3329C202.121 89.5933 202.201 89.7686 202.882 89.0098Z" fill="#1C1C1C"/>
<path d="M212.952 88.2016C214.126 88.1527 215.763 88.0896 216.405 89.2015L215.774 89.4159C214.6 89.4264 213.654 89.4094 212.481 89.3406L212.288 88.8976L212.952 88.2016Z" fill="#1C1C1C"/>
<path d="M202.064 107.488C203.252 108.21 204.096 108.739 205.433 109.154C207.991 109.95 210.383 108.727 211.959 110.995L212.147 112.905C211.778 113.263 211.695 113.433 211.238 113.611C208.611 112.178 202.415 112.767 202.064 107.488Z" fill="#D9DBD5"/>
<path d="M132.617 125.502C135.693 117.77 137.406 118.279 145.394 117.606C144.109 118.771 142.728 120.076 141.406 121.177C140.464 120.511 139.577 119.709 138.482 119.573L138.104 119.991C139.328 121.523 141.523 122.621 143.073 123.889C146.16 126.415 150.318 130.565 152.422 133.899C155.289 129.388 158.97 126.089 163.154 122.847C163.932 122.244 166.127 120.69 166.391 119.92C165.09 119.841 164.69 120.148 163.691 121.037C163.561 121.153 163.433 121.272 163.307 121.392C162.146 120.31 160.685 119.023 159.603 117.905C161.911 118.027 164.844 118.109 167.091 118.359C170.215 120.584 171.14 121.877 172.055 125.675C169.165 127.226 160.596 131.741 157.467 131.766L157.429 131.563C157.304 130.925 157.307 130.767 156.952 130.202L156.355 130.279C156.017 131.111 155.968 131.318 155.829 132.206C155.103 132.781 154.675 133.079 154.071 133.814L154.228 134.144L155.524 134.113C157.372 136.36 156.951 156.783 157.411 157.66C159.946 149.614 157.014 141.736 157.141 133.484C162.704 131.446 166.632 129.657 172.057 127.331L172.43 127.519L172.287 127.762C171.788 128.63 171.697 128.719 171.513 129.671C172.543 130.662 173.753 130.568 175.203 130.54C175.428 130.536 175.653 130.53 175.878 130.522C175.295 132.334 175.073 132.885 176.138 134.596C177.892 137.414 179.571 140.769 183.387 139.434C184.633 141.145 189.354 160.201 189.821 162.915C190.941 169.453 199.086 197.325 195.839 201.525C194.1 202.707 190.582 203.583 188.466 204.176C186.651 204.593 185.759 204.971 184.249 203.554C182.081 201.585 179.814 196.216 179.643 193.139C179.082 183.004 178.7 172.156 178.196 162.032C178.009 159.057 177.824 156.371 177.876 153.384C177.917 150.967 178.641 147.409 178.304 145.248L177.935 145.435C173.996 158.117 181.524 189.846 176.566 200.812C175.208 201.259 173.546 201.855 172.193 202.214C172.454 198.94 172.817 195.321 172.873 192.068C167.928 187.004 166.454 183.766 164.73 176.891C156.378 176.617 147.968 176.925 139.604 176.942C138.377 183.877 136.864 187.121 131.764 192.145C131.984 195.484 132.3 198.817 132.713 202.138L128.676 201.129C127.894 199.617 127.434 198.794 126.945 197.172C125.487 187.681 130.264 148.509 126.573 144.551L126.212 144.709C125.798 145.745 127.029 150.097 127.089 151.851C127.216 155.555 126.925 159.192 126.714 162.885C126.299 168.786 125.964 174.692 125.709 180.602C125.516 184.799 125.701 192.563 124.373 196.182C122.926 200.169 122.585 201.415 119.682 204.617L116.256 203.978C114.263 203.443 109.487 202.551 108.526 200.898C106.152 190.657 119.552 145.469 123.506 133.034C124.189 130.885 129.947 127.921 132.238 126.646C136.464 129.079 142.698 131.502 147.374 133.456C147.533 140.738 145.03 147.361 146.995 153.76C147.294 153.381 147.929 135.02 149.09 133.958L150.304 134.103L150.598 133.614C149.915 133.039 149.819 133.003 149 132.626C148.175 131.057 148.705 130.957 147.546 130.176L147.154 130.477L147.013 131.654C145.422 131.982 134.459 126.601 132.617 125.502Z" fill="#F2F2F2"/>
<path d="M178.195 162.033C178.469 162.35 178.734 162.673 178.992 163.003C181.038 165.649 184.967 200.393 188.465 204.177C186.65 204.595 185.758 204.972 184.248 203.555C182.08 201.586 179.813 196.217 179.642 193.141C179.081 183.005 178.699 172.158 178.195 162.033Z" fill="#D9DBD5"/>
<path d="M116.256 203.978C118.691 201.079 122.629 178.406 123.528 173.693C123.892 171.784 124.978 165.692 125.902 164.154C126.162 163.725 126.434 163.302 126.714 162.885C126.299 168.786 125.964 174.692 125.709 180.602C125.516 184.799 125.701 192.563 124.373 196.182C122.926 200.169 122.585 201.415 119.682 204.617L116.256 203.978Z" fill="#D9DBD5"/>
<path d="M204.002 121.863C206.875 118.485 208.976 116.918 212.629 114.349C214.227 113.224 218.263 111.038 219.234 109.804L218.701 109.244C216.651 109.799 215.245 111.665 213.538 111.922C211.77 109.343 214.919 107.497 216.683 105.602C218.256 105.986 223.299 107.061 223.934 108.916C224.47 110.485 226.662 113.247 226.723 114.373C225.06 114.906 223.597 114.823 222.009 115.121C219.075 115.671 213.636 118.319 211.531 120.521L211.618 120.95C212.94 120.818 214.542 119.671 215.698 118.91C236.985 104.873 246.652 142.015 243.706 156.57C243.351 159.024 241.92 162.873 239.978 164.46C229.347 173.142 213.371 161.962 204.183 155.993C200.976 153.911 196.092 150.575 194.863 146.819C194.603 146.013 195.577 145.155 196.081 144.553C202.23 136.217 196.193 131.788 210.701 138.65C213.448 139.949 228.912 147.944 230.564 147.935C229.894 146.891 227.72 145.761 226.553 145.051C226.97 144.697 230.307 145.08 231.615 144.941L231.771 144.487C230.466 143.542 227.209 143.539 225.564 143.526C225.325 141.096 225.702 136.354 224.238 134.731C224.14 138.141 224.299 140.729 224.531 144.147C223.821 143.773 221.053 142.384 220.538 142.02C215.071 139.66 204.668 133.217 199.755 134.425C197.661 133.209 195.494 132.319 193.704 131.796C193.382 131.701 187.863 126.396 187.686 126.16C184.224 121.598 174.276 126.308 173.245 125.917C170.726 121.185 183.376 115.995 186.916 115.056C189.077 117.765 194.762 121.542 198.255 121.303L198.585 120.833C195.693 119.607 185.24 115.99 187.74 111.003C189.106 108.277 193.918 106.536 196.831 105.748C197.074 108.479 197.36 111.266 197.566 113.993C196.237 112.321 196.066 111.748 194.204 110.681C195.345 113.738 201.404 119.728 204.002 121.863Z" fill="#1BC3D8"/>
<path d="M243.707 156.569C243.352 159.024 241.921 162.872 239.979 164.459C229.348 173.141 213.373 161.961 204.184 155.993C200.977 153.91 196.093 150.574 194.865 146.818C194.604 146.013 195.578 145.154 196.082 144.552C202.082 152.421 217.039 159.857 226.848 161.415C234.46 162.624 237.812 160.092 243.707 156.569Z" fill="#0C5861"/>
<path d="M220.538 142.02C221.593 141.242 223.683 136.172 224.238 134.731C224.14 138.141 224.299 140.729 224.531 144.147C223.821 143.773 221.053 142.384 220.538 142.02Z" fill="#0C5861"/>
<path d="M221.47 191.592C224.847 191.038 228.217 190.441 231.579 189.8L231.837 193.518C233.395 206.032 234.435 219.717 235.533 232.334C236.844 246.326 238 260.331 239.007 274.348C239.156 276.638 239.199 279.884 239.775 282.09C240.051 283.138 242.975 285.928 241.163 287.825C239.674 289.383 234.065 290.308 231.906 290.24C229.047 290.889 223.641 290.361 220.514 290.145C219.521 286.18 220.38 283.773 219.644 279.294L214.568 248.436C213.764 243.576 212.434 236.823 211.93 232.051C210.289 224.675 209.858 214.525 207.256 207.3C206.973 206.509 205.216 205.062 204.513 204.471C204.01 201.892 203.919 199.441 203.756 196.822C203.586 195.866 203.524 193.29 203.466 192.205C209.187 192.359 214.912 192.17 220.608 191.637L222.017 195.488C223.818 198.174 227.087 201.937 230.75 201.526L231.058 201.025C227.728 198.422 226.634 200.293 223.547 195.739C222.912 194.329 222.217 192.945 221.47 191.592Z" fill="white"/>
<path d="M211.93 232.051C212.053 231.278 212.17 230.447 212.34 229.688C217.29 244.744 220.156 268.088 225.526 283.708C225.816 283.895 226.066 284.054 226.269 284.185C224.939 284.177 222.993 283.968 221.892 284.438L221.971 284.792C224.171 285.394 225.417 285.35 227.707 285.214C225.167 286.256 226.464 287.61 227.037 290.158C228.479 290.149 230.525 290.073 231.906 290.24C229.047 290.889 223.641 290.361 220.514 290.145C219.521 286.18 220.38 283.773 219.644 279.294L214.568 248.436C213.764 243.576 212.434 236.823 211.93 232.051Z" fill="#D9DBD5"/>
<path d="M203.466 192.205C209.187 192.359 214.912 192.17 220.608 191.637L222.017 195.488C217.086 197.027 209.053 196.848 203.756 196.822C203.586 195.866 203.524 193.29 203.466 192.205Z" fill="#D9DBD5"/>
<path d="M221.47 191.592C224.847 191.038 228.217 190.441 231.579 189.8L231.837 193.518C228.721 194.56 226.079 194.912 223.547 195.739C222.912 194.329 222.217 192.945 221.47 191.592Z" fill="#D9DBD5"/>
<path d="M226.269 284.185C229.751 284.048 234.258 283.097 236.816 283.138L236.946 283.43C233.979 284.932 231.03 285.128 227.707 285.214C225.417 285.35 224.171 285.394 221.971 284.792L221.892 284.438C222.993 283.968 224.939 284.177 226.269 284.185Z" fill="#1C1C1C"/>
<path d="M197.419 191.792C199.285 192.025 200.401 192.138 202.27 192.145L202.444 196.206C202.69 198.818 202.922 202.195 203.361 204.714C203.651 204.984 204.988 206.183 205.162 206.402C207.165 208.606 207.231 208.846 207.02 212.034C206.683 217.157 206.191 222.29 205.846 227.416L203.792 260.645C203.386 267.108 202.969 273.673 202.625 280.132C202.176 288.515 205.901 289.831 195.889 290.243C195.024 290.256 194.154 290.258 193.284 290.247C177.52 290.021 182.686 287.876 182.526 276.104C182.399 266.813 181.773 256.64 181.49 247.264C181.105 232.11 181.081 216.949 181.418 201.794C183.866 204.885 185.036 207.169 186.929 210.549C187.857 212.204 195.458 210.075 196.766 208.889C198.15 206.782 196.625 201.956 197.766 199.353C198.06 198.682 198.027 196.819 197.987 195.994C197.763 194.598 197.571 193.197 197.419 191.792Z" fill="white"/>
<path d="M205.162 206.402C207.165 208.606 207.231 208.846 207.02 212.034C206.683 217.157 206.191 222.29 205.846 227.416L203.792 260.645C203.386 267.108 202.969 273.673 202.625 280.132C202.176 288.515 205.901 289.831 195.889 290.243L195.916 285.127C197.792 285.194 198.173 285.128 200.006 284.673C198.912 283.761 192.897 284.097 190.774 283.78L190.419 283.725C191.941 283.539 194.55 283.608 196.162 283.603C196.539 277.887 197.999 269.047 198.677 262.901L205.162 206.402Z" fill="#D9DBD5"/>
<path d="M197.419 191.792C199.285 192.025 200.401 192.138 202.27 192.145L202.444 196.206L197.987 195.994C197.763 194.598 197.571 193.197 197.419 191.792Z" fill="#D9DBD5"/>
<path d="M195.914 285.127C193.646 285.175 185.916 284.601 184.473 283.549C186.726 283.118 188.095 283.498 190.418 283.724L190.773 283.779C192.896 284.097 198.911 283.761 200.005 284.673C198.172 285.128 197.791 285.194 195.914 285.127Z" fill="#1C1C1C"/>
<path d="M140.503 177.987C148.297 177.896 156.091 177.878 163.884 177.932C165.472 184.551 167.472 187.771 172.022 192.683C171.664 195.899 171.327 199.039 170.815 202.239C168.533 202.534 166.249 202.814 163.963 203.077C154.305 204.122 143.489 203.628 133.895 202.103C133.428 199.094 133.143 195.648 132.823 192.589C137.846 187.611 138.915 184.708 140.503 177.987Z" fill="#F2F2F2"/>
<path d="M188.469 152.196C189.966 152.564 196.901 160.706 200.006 162.911C198.741 162.957 196.683 162.972 195.502 163.145C194.364 163.179 194.1 162.99 193.31 163.579C194.364 164.42 200.756 164.24 202.354 164.427C206.042 164.388 212.818 164.011 216.217 164.198C217.387 167.519 217.978 169.507 219.739 172.536C221.239 174.309 222.46 175.902 224.674 176.818L224.76 176.373C223.873 175.158 223.246 174.671 222.115 173.691C220.003 171.528 218.655 167.98 217.565 165.186C223.626 168.216 227.59 168.935 234.272 168.714C234.344 169.975 234.554 171.384 234.717 172.653C235.163 181.925 234.123 182.152 225.289 183.648C215.133 185.368 206.18 185.162 196.017 184.767C193.35 175.044 190.784 162.193 188.469 152.196Z" fill="#1BC3D8"/>
<path d="M217.565 165.186C223.626 168.216 227.59 168.935 234.272 168.714C234.344 169.975 234.554 171.384 234.717 172.653C232.181 173.199 222.702 173.365 222.115 173.691C220.003 171.528 218.655 167.98 217.565 165.186Z" fill="#0C5861"/>
<path d="M202.354 164.427C206.042 164.388 212.818 164.011 216.217 164.198C217.387 167.519 217.978 169.507 219.739 172.536C215.583 171.948 205.676 167.087 202.354 164.427Z" fill="#0C5861"/>
<path d="M281.552 216.736C282.027 218.623 282.255 219.557 282.433 221.479C286.694 238.745 289.846 256.249 295.18 273.179C296.469 277.275 297.48 282.368 298.397 286.597C292.629 286.621 286.44 286.53 280.708 286.69C280.679 279.24 280.954 272.698 281.425 265.292C281.885 258.148 281.128 250.371 281.509 243.183C281.117 236.182 281.36 223.885 281.552 216.736Z" fill="#A4E7EF"/>
<path d="M281.552 216.736C282.027 218.623 282.255 219.557 282.433 221.479C281.23 223.739 281.972 239.126 281.509 243.183C281.117 236.182 281.36 223.885 281.552 216.736Z" fill="#D9DBD5"/>
<path d="M181.638 296.4C189.494 286.153 186.406 301.454 198.067 296.941L198.861 296.265C200.553 297.15 200.495 303.56 200.611 305.554C198.556 306 196.226 306.566 194.172 306.88C189.494 307.729 166.254 312.037 165.285 306.936C166.348 304.364 171.22 302.338 173.74 301.202C175.599 301.911 177.659 303.573 179.27 303.353C178.392 302.135 176.878 301.444 175.544 300.58L175.504 300.055L176.603 299.45C179.351 298.949 181.283 302.485 182.686 301.717C182.234 300.5 179.933 299.535 179.084 297.863L179.559 297.444C180.889 297.357 183.037 298.73 184.949 299.243L185.213 298.961C184.379 297.658 183.016 297.114 181.638 296.4Z" fill="#F2F2F2"/>
<path d="M198.067 296.941L198.861 296.265C200.553 297.15 200.495 303.56 200.611 305.554C198.556 306 196.226 306.566 194.172 306.88C194.907 304.155 199.038 299.764 198.067 296.941Z" fill="#D9DBD5"/>
<path d="M225.956 297.663C227.253 298.001 229.985 298.698 230.989 297.863C235.554 294.075 236.453 289.685 241.406 297.1C239.685 297.79 236.858 298.44 236.29 300.225L236.71 300.566C238.757 299.81 241.518 297.727 243.507 298.215C244.054 299.021 243.967 298.594 243.822 299.528C242.438 300.057 240.362 300.694 239.344 301.671L239.177 302.375C241.482 303.176 243.388 299.254 247.054 301.069L247.178 301.462C245.38 302.178 243.645 302.576 242.377 303.931L242.467 304.55C244.152 304.967 247.214 302.138 249.022 303.313C249.265 304.662 247.826 309.562 247.406 311.207C239.978 310.316 234.576 308.851 227.376 306.777L223.648 305.934C223.72 304.124 223.568 297.538 225.195 296.928L225.956 297.663Z" fill="#F2F2F2"/>
<path d="M223.648 305.934C223.72 304.124 223.568 297.538 225.195 296.928L225.956 297.663C225.456 298.891 226.985 304.962 227.376 306.777L223.648 305.934Z" fill="#D9DBD5"/>
<path d="M270.965 125.527C273.128 125.484 283.828 124.974 285.404 125.961C286.984 126.951 286.941 138.91 286.042 140.599L284.799 140.814L269.215 140.824C269.143 136.881 268.929 132.595 269.212 128.689C269.342 126.886 269.712 126.51 270.965 125.527Z" fill="white"/>
<path d="M271.682 127.442C272.37 127.105 273.203 127.349 273.598 128.005C273.993 128.661 273.823 129.51 273.203 129.963C272.754 130.292 272.153 130.339 271.656 130.084C271.16 129.828 270.848 129.314 270.852 128.755C270.859 128.196 271.178 127.688 271.682 127.442Z" fill="#1C1C1C"/>
<path d="M213.657 91.1686C214.253 90.8771 214.974 91.0887 215.316 91.6563C215.658 92.2235 215.51 92.9588 214.974 93.3502C214.585 93.6354 214.065 93.6762 213.635 93.4549C213.206 93.234 212.936 92.7889 212.939 92.305C212.945 91.8214 213.221 91.3817 213.657 91.1686Z" fill="#1C1C1C"/>
<path d="M205.164 92.1297C205.76 91.8382 206.481 92.0498 206.823 92.6174C207.165 93.1846 207.018 93.9199 206.481 94.3114C206.093 94.5966 205.572 94.6373 205.142 94.416C204.713 94.1951 204.443 93.75 204.446 93.2661C204.453 92.7825 204.729 92.3428 205.164 92.1297Z" fill="#1C1C1C"/>
<path d="M276.309 207.569C277.86 207.515 278.52 207.45 280.023 207.785C280.425 208.434 280.404 265.266 280.136 270.91C278.918 270.975 277.646 271.171 276.57 270.639C276.143 268.558 276.346 254.767 276.349 251.809L276.309 207.569Z" fill="#D9DBD5"/>
<path d="M128.76 202.016C140.593 205.947 163.788 205.045 175.953 202.285C176.029 203.975 175.959 205.592 175.905 207.277C164.691 210.68 140.558 209.961 128.966 207.291L128.76 202.016Z" fill="#F2F2F2"/>
<path d="M281.499 207.297C282.658 207.394 283.55 207.333 284.466 207.995C286.042 214.565 298.311 265.657 297.96 267.884C296.746 268.239 296.347 268.391 295.039 268.414C294.354 267.836 294.195 266.906 293.992 266.024C289.937 248.302 285.72 230.602 281.872 212.835C281.484 211.059 281.484 209.107 281.499 207.297Z" fill="#D9DBD5"/>
<path d="M272.487 207.363C273.172 207.394 273.875 207.515 274.556 207.615C276.295 210.32 271.252 227.46 270.411 231.127L264.889 255.098C264.404 257.258 262.61 267.389 261.432 268.452C260.186 268.273 259.258 268.319 258.505 267.511C259.139 262.88 271.415 209.16 272.487 207.363Z" fill="#D9DBD5"/>
<path d="M185.024 139.387C192.339 144.305 191.976 144.957 196.186 151.23C197.969 153.889 209.861 161.187 213.339 163.171C209.64 163.192 198.484 163.608 195.502 163.145C196.683 162.972 198.741 162.957 200.006 162.911C196.901 160.706 189.966 152.564 188.469 152.196C187.148 148.036 186.374 143.66 185.024 139.387Z" fill="#0C5861"/>
<path d="M232.093 183.477C232.455 183.474 232.474 183.549 232.85 183.72C233.691 190.35 227.713 189.209 222.575 190.125C214.484 191.567 205.393 191.113 197.175 190.952C196.885 189.3 196.472 187.506 196.128 185.849C209.143 186.465 219.194 186.435 232.093 183.477Z" fill="white"/>
<path d="M179.649 125.504C186.62 124.735 189.473 129.317 194.14 133.907C193.169 136.381 192.426 138.842 190.444 140.627C187.245 141.589 187.501 137.624 183.554 136.874C182.43 137.356 182.438 137.748 181.637 138.885L180.905 138.951C179.879 138.128 180.15 138.538 179.72 137.418C180.426 135.878 182.31 135.441 183.718 133.81L183.433 132.993C182.137 133.602 180.158 135.079 178.888 135.959L178.373 135.781C177.767 132.871 181.828 132.705 182.749 130.286L182.054 130.039C180.859 130.303 179.091 132.2 177.85 133.165C176.732 133.213 177.089 133.351 176.237 132.823C176.504 131.156 180.425 128.669 181.876 127.613C180.922 127.051 173.66 129.568 171.519 130.032C174.235 127.248 175.961 126.433 179.649 125.504Z" fill="white"/>
<path d="M284.614 141.902L288.842 141.943C289.023 144.879 288.994 147.824 288.751 150.756L282.182 150.844C282.248 148.317 282.635 144.9 279.932 143.288C278.135 142.216 276.2 143.901 275.664 145.708L275.682 150.765L267.225 150.781C267.12 147.874 267.225 144.933 267.294 142.023C273.07 142.064 278.842 142.023 284.614 141.902Z" fill="#D9DBD5"/>
<path d="M277.208 271.672C278.176 271.859 278.694 271.869 279.477 272.469C279.654 288.401 279.386 304.362 279.542 320.297C279.563 322.566 279.571 324.796 279.397 327.061L277.835 326.774C276.632 325.15 277.139 314.054 277.143 311.192L277.208 271.672Z" fill="#D9DBD5"/>
<path d="M296.133 269.097C297.409 269.258 296.992 269.051 297.887 269.761C300.318 277.112 302.434 289.762 304.59 297.503C305.395 300.399 309.931 319.723 309.898 321.925C308.427 321.728 308.858 321.985 307.978 321.122C306.771 317.306 295.608 271.176 296.133 269.097Z" fill="#D9DBD5"/>
<path d="M258.835 269.048L260.328 269.374L260.639 269.963C259.288 277.877 256.28 288.771 254.451 296.825C253.056 302.957 250.335 316.215 248.338 321.614C247.762 321.804 247.541 321.695 246.954 321.562C246.856 321.323 246.762 321.085 246.664 320.846C250.009 305.863 255.23 282.885 258.835 269.048Z" fill="#D9DBD5"/>
<path d="M276.987 147.9C277.088 145.948 276.809 146.328 277.747 144.818C278.827 144.26 278.349 144.324 279.556 144.589C281.027 145.861 280.853 146.487 280.751 148.297C281.085 150.977 281.48 164.923 280.24 166.666C278.878 166.803 278.682 166.823 277.334 166.485C276.24 164.848 276.86 150.857 276.987 147.9Z" fill="#D9DBD5"/>
<path d="M276.987 147.9C277.088 145.948 276.809 146.328 277.747 144.818C278.827 144.26 278.349 144.324 279.556 144.589C281.027 145.861 280.853 146.487 280.751 148.297C280.135 147.063 279.965 146.479 278.791 146.029C277.748 146.46 277.595 146.928 276.987 147.9Z" fill="#D9DBD5"/>
<path d="M151.353 114.58C151.956 114.534 153.029 114.466 153.6 114.544C156.219 114.903 161.761 120.351 161.427 122.855L160.769 123.211C158.582 122.836 155.45 121.183 153.275 120.199C150.465 119.199 147.243 123.145 144.13 123.028C143.003 122.48 143.32 122.808 142.761 121.849C146.626 118.546 146.6 116.408 151.353 114.58Z" fill="#F2F2F2"/>
<path d="M148.006 103.951C150.85 104.443 154.116 108.993 152.731 111.493L152.121 111.646C150.565 110.372 150.376 107.919 148.698 106.379L148.189 106.458C148.532 108.528 150.758 112.544 150.689 113.477C148.694 113.142 147.018 109.406 145.364 108.978C145.64 110.236 146.738 111.63 147.492 112.732C147.577 113.745 147.68 113.344 147.154 114.208C145.982 114.192 143.944 112.224 142.763 111.326C144.209 113.545 145.018 114.816 146.165 117.208C144.344 115.77 143.447 114.849 141.274 114.077C142.13 115.301 142.806 115.523 142.764 116.632L141.972 116.882C140.038 116.28 140.179 115.793 140.044 113.816C139.706 108.867 144.445 106.304 148.006 103.951Z" fill="#F2F2F2"/>
<path d="M199.752 306.955C200.169 306.971 200.107 307.016 200.524 307.231L200.415 308.343C199.527 309.532 197.52 309.912 196.107 310.108C186.434 311.451 175.187 314.092 165.577 311.684C165.092 311.44 164.821 311.114 164.436 310.733L164.47 310.06C165.867 309.408 172.729 310.667 175.047 310.524C183.353 310.014 191.661 308.704 199.752 306.955Z" fill="#F2F2F2"/>
<path d="M277.06 172.435C278.35 172.533 278.604 172.33 279.488 173.018C279.825 175.655 279.626 180.494 279.618 183.318L279.636 201.433C278.51 201.459 278.285 201.534 277.285 201.104C276.462 198.385 277.049 176.534 277.06 172.435Z" fill="#D9DBD5"/>
<path d="M152.108 121.062C153.449 121.148 157.968 123.563 159.445 124.298C156.891 126.471 154.558 128.89 152.479 131.52C151.967 131.254 146.559 125.27 145.14 124.141C147.439 123.181 149.821 122.078 152.108 121.062Z" fill="#1BC3D8"/>
<path d="M269.15 151.881L275.635 151.887L275.639 161.636C274.501 161.656 273.034 161.7 271.918 161.65C267.976 161.473 269.121 154.709 269.15 151.881Z" fill="white"/>
<path d="M271.48 202.521C274.244 202.517 282.669 202.333 284.698 202.777C285.299 203.778 285.093 205.112 285.06 206.354C280.487 206.185 276.129 206.252 271.559 206.312L271.48 202.521Z" fill="#D9DBD5"/>
<path d="M223.282 307.072C223.854 307.132 247.471 312.997 246.906 312.7L247.301 314.009C243.768 314.717 229.416 311.195 225.561 309.581C223.728 308.813 223.941 308.667 223.282 307.072Z" fill="#F2F2F2"/>
<path d="M195.096 203.327L195.694 203.392C196.404 204.391 196.614 206.677 196.828 207.999C193.669 209.019 191.364 209.836 188.085 210.3C187.358 209.467 186.484 206.815 186.04 205.649C189.828 204.96 191.408 204.447 195.096 203.327Z" fill="#F2F2F2"/>
<path d="M108.783 202.815C110.692 203.629 114.381 204.703 116.479 205.377L118.05 205.543C119.16 207.079 117.984 209.004 116.721 210.071L115.976 209.922C113.653 209.812 110.441 208.578 108.134 207.814L108.783 202.815Z" fill="#F2F2F2"/>
<path d="M116.479 205.377L118.05 205.543C119.16 207.079 117.984 209.004 116.721 210.071L115.976 209.922L116.605 209.65L115.309 209.275C115.386 207.318 115.441 207.016 116.479 205.377Z" fill="#D9DBD5"/>
<path d="M195.426 133.345L199.133 135.314C197.607 139.676 196.835 141.716 194.19 145.467L190.712 142.59C193.549 139.224 193.977 137.451 195.426 133.345Z" fill="#F2F2F2"/>
<path d="M186.878 291.038C190.918 291.4 201.676 289.496 197.766 295.925C192.074 297.8 192.11 296.896 189.146 292.917C188.476 292.015 187.517 292.504 186.878 291.038Z" fill="#F2F2F2"/>
<path d="M235.555 291.104L236.754 290.978L237.095 291.303C236.352 292.479 233.739 292.78 232.642 293.728C232.196 294.112 231.584 296.043 231.352 296.702C230.413 297.287 228.971 297.078 227.779 297.052C225.207 295.874 225.489 294.323 225.163 291.687C229.073 291.696 231.66 291.518 235.555 291.104Z" fill="#F2F2F2"/>
<path d="M282.18 151.859C283.568 151.87 285.1 151.985 286.503 152.062C286.51 154.633 286.698 159.021 286.093 161.321C284.934 161.584 284.061 161.944 283.01 161.508C281.452 159.801 282.155 154.564 282.18 151.859Z" fill="white"/>
<path d="M273.27 167.842C276.625 167.923 280.056 167.16 282.716 168.346C283.596 169.608 283.306 169.671 283.382 171.487C279.955 171.372 276.607 172.159 273.976 171.015C273.063 169.788 273.36 169.667 273.27 167.842Z" fill="#D9DBD5"/>
<path d="M290.597 171.147C293.017 171.706 298.126 173.484 300.065 174.903C300.626 176.067 300.456 175.725 300.036 177.273C297.909 176.653 292.115 174.852 290.539 173.087C290.206 172.717 290.495 171.793 290.597 171.147Z" fill="#D9DBD5"/>
<path d="M267.407 125.472L268.161 125.799C268.211 128.648 268.124 138.856 267.758 141.274C267.001 140.863 267.258 141.062 266.78 140.273C266.621 137.142 266.182 127.993 267.407 125.472Z" fill="#B5FE28"/>
<path d="M265.179 141.557C265.512 141.825 265.653 142.105 265.9 142.465C266.088 144.453 266.537 149.826 265.439 151.304C263.479 149.559 263.501 143.468 265.179 141.557Z" fill="#B5FE28"/>
<path d="M253.849 305.304C255.255 306.312 256.889 307.968 256.443 309.786L255.643 310.17C254.643 310.522 254.186 310.804 253.171 310.542C252.57 309.104 253.414 307.028 253.849 305.304Z" fill="#F2F2F2"/>
<path d="M151.126 103.401C154.892 102.734 155.906 105.254 154.791 108.42C154.544 108.417 154.099 108.303 153.837 108.248C153.272 107.187 151.326 104.148 151.126 103.401Z" fill="#F2F2F2"/>
<path d="M266.867 151.627L267.494 152.059C268.211 153.313 268.135 159.745 268.428 161.905C265.751 160.183 266.591 154.514 266.867 151.627Z" fill="#B5FE28"/>
<path d="M255.99 311.306C256.613 311.265 256.302 311.214 256.918 311.606L256.421 312.602C254.943 313.731 254.407 313.768 252.551 314.132C251.95 313.903 252.222 314.025 251.743 313.393L252.138 312.664C253.258 311.922 254.678 311.654 255.99 311.306Z" fill="#F2F2F2"/>
<path d="M154.994 108.834C156.41 109.235 156.06 108.926 156.744 109.867C156.658 111.069 155.472 112.301 154.684 113.287L153.891 113.455L153.685 113.108C154.103 111.571 154.453 110.33 154.994 108.834Z" fill="#F2F2F2"/>
<path d="M192.053 91.5612C190.622 89.5754 188.875 84.028 190.69 81.5801C197.205 72.7898 198.636 69.0746 210.803 72.793C213.083 73.4891 216.387 70.8427 217.778 73.1266C217.735 73.7745 217.565 74.8625 217.84 75.3898C219.489 75.5097 219.423 75.221 220.326 76.133C221.181 79.4132 219.047 85.8965 218.967 89.5406C218.855 94.5223 219.782 100.275 217.014 104.699L216.362 103.747C216.728 102.758 217.032 101.747 217.275 100.719C218.101 97.155 218.354 87.1716 216.492 84.146C215.536 83.8951 215.862 83.9585 214.709 84.5513C211.427 86.5668 203.941 84.7505 198.252 85.769C198.404 89.3929 197.785 91.5876 196.915 95.0304C195.252 93.4199 194.886 92.9045 192.582 92.4355L192.053 91.5612Z" fill="#0C0C0C"/>
<path d="M198.252 85.769C201.042 81.7235 209.655 84.6354 214.709 84.5513C211.427 86.5668 203.941 84.7505 198.252 85.769Z" fill="#D9DBD5"/>
<path d="M65.9704 286.553C100.928 287.045 136.073 286.319 171.045 286.558C171.849 286.563 173.275 286.772 173.867 287.31C171.698 288.236 150.34 287.843 146.581 287.853L79.9184 287.853C69.1133 287.847 56.2809 287.532 45.6877 287.922C42.3463 287.936 22.0574 288.236 20.3516 287.339C24.3398 285.722 58.7723 286.66 65.9704 286.553Z" fill="#0C0C0C"/>
<path d="M263.125 104.445C270.745 104.207 279.115 104.423 286.793 104.379C287.448 104.254 289.506 104.864 289.673 105.601C290.361 108.693 291.112 113.997 288.383 116.001C280.861 116.047 273.06 116.174 265.538 115.998C264.578 115.975 262.335 115.637 261.828 114.735C260.933 113.141 261.375 109.009 261.397 107.166C261.411 105.857 262.27 105.132 263.125 104.445Z" fill="#B5FE28"/>
<path d="M281.669 107.98L281.905 107.625L282.51 107.681C283.148 107.704 285.042 107.646 285.383 107.948C284.637 108.285 283.887 108.499 283.474 109.179C283.916 109.98 284.416 109.891 285.539 110.25C285.064 110.723 284.51 110.674 283.811 110.747L283.484 111.296L283.756 111.877L285.738 112.249C285.814 112.364 285.89 112.479 285.966 112.593L285.387 113.105C284.311 112.937 283.749 112.893 282.734 112.433C282.597 111.998 282.481 111.729 282.426 111.275L280.579 110.865L281.669 107.98Z" fill="#0C0C0C"/>
<path d="M281.669 107.98L281.905 107.625L282.51 107.681C282.539 108.891 282.608 110.079 282.426 111.275L280.579 110.865L281.669 107.98Z" fill="#B5FE28"/>
<path d="M280.578 110.864C280.183 112.366 280.488 111.899 279.531 112.906L278.901 112.849C277.741 111.562 277.68 109.7 277.665 108.068L277.911 107.999L279.64 112.614C279.886 111.363 280.176 108.686 280.864 107.879L281.669 107.979L280.578 110.864Z" fill="#0C0C0C"/>
<path d="M265.324 108.992C265.998 108.491 266.954 108.635 267.454 109.311C267.954 109.988 267.809 110.942 267.132 111.441C266.454 111.94 265.501 111.796 265.001 111.12C264.505 110.444 264.646 109.491 265.324 108.992Z" fill="#0C0C0C"/>
<path d="M271.037 107.611C271.932 108.728 271.697 109.778 271.642 111.319C272.86 113.077 272.403 111.128 274.016 112.817C272.291 112.858 272.381 113.127 271.146 112.356C270.287 110.954 270.744 109.218 271.037 107.611Z" fill="#0C0C0C"/>
<path d="M275.255 107.534L275.899 108.254C276.207 110.074 276.023 111.246 275.845 113.058C274.671 111.685 274.961 109.205 275.255 107.534Z" fill="#0C0C0C"/>
<path d="M260.015 164.173C260.395 164.654 260.243 164.38 260.261 165.142C259.221 166.451 256.986 167.821 255.54 168.81C255.033 168.282 255.221 168.587 255.022 167.831C255.718 166.832 258.649 165.195 260.015 164.173Z" fill="#B5FE28"/>
<path d="M300.513 121.032L301.191 121.083L301.22 121.627C300.042 122.83 298.067 123.911 296.589 124.811L295.995 124.558L295.886 123.996C296.806 122.967 299.219 121.76 300.513 121.032Z" fill="#B5FE28"/>
<path d="M296.861 128.844C298.879 128.868 301.727 128.449 302.966 130.033C301.347 130.163 298.035 130.608 296.767 129.756L296.861 128.844Z" fill="#B5FE28"/>
<path d="M252.566 159.627C254.497 159.328 257.49 159.003 259.073 160.139C257.475 160.924 253.95 161.01 252.566 159.627Z" fill="#B5FE28"/>
<path d="M293.506 116.216L293.977 116.676C294.3 118.264 293.126 120.316 292.408 121.733C292.209 121.507 291.981 121.114 291.81 120.848C291.93 119.157 292.76 117.741 293.506 116.216Z" fill="#B5FE28"/>
<path d="M263.827 167.296C264.592 168.821 263.555 171.921 262.693 173.31C261.983 171.315 263.055 169.405 263.827 167.296Z" fill="#B5FE28"/>
<path d="M316.481 362.256C316.452 361.941 316.438 361.626 316.432 361.31C316.395 359.002 317.762 356.521 319.381 354.938C321.621 352.761 324.635 351.56 327.758 351.598C330.312 351.629 330.994 352.627 332.946 353.137C336.092 353.872 339.511 353.612 341.834 356.255C342.662 357.197 343.375 358.409 344.263 359.265L345.108 359.913L344.677 360.345C345.19 363.468 346.112 363.024 345.927 367.445C345.687 373.079 340.65 379.989 344.04 384.996C343.138 386.251 343.09 387.566 342.442 388.767C341.186 392.504 340.016 396.179 339.494 400.098H320.137H304.397H107.304C104.72 395.585 102.021 394.076 97.5807 391.868C98.0425 386.413 97.9127 385.007 94.5126 380.628C95.0366 378.893 95.6534 376.06 95.8643 374.257C96.3386 370.198 96.4074 370.164 94.2397 367.285C94.0474 366.113 94.0242 364.607 93.9697 363.397C96.4816 363.439 100.364 363.945 102.976 364.188L119.007 365.597C132.431 366.625 145.875 367.382 159.33 367.864L159.621 367.002L234.069 367.556C239.959 367.091 247.015 367.177 253.094 366.91C267.827 366.33 282.548 365.437 297.244 364.231C302.619 363.783 311.461 363.2 316.481 362.256Z" fill="#D9DBD5"/>
<path d="M316.481 362.256C316.453 361.941 316.438 361.626 316.433 361.31C316.396 359.002 317.763 356.521 319.381 354.938C321.621 352.761 324.635 351.56 327.758 351.598C330.312 351.629 330.994 352.627 332.946 353.137C336.092 353.872 339.511 353.612 341.834 356.255C342.662 357.197 343.375 358.409 344.263 359.265L345.108 359.913L344.677 360.345C345.191 363.468 346.112 363.024 345.927 367.445C345.687 373.079 340.65 379.989 344.04 384.996C343.139 386.251 343.09 387.566 342.442 388.767C341.186 392.504 340.016 396.179 339.494 400.098H320.137H304.397C307.211 395.54 309.654 394.142 314.272 391.882C314.166 391.386 314.084 390.887 314.021 390.385C313.484 385.837 314.703 383.6 317.374 380.24C316.809 378.708 315.023 371.892 315.511 370.378C316.187 368.269 318.847 366.517 317.569 363.765C316.384 363.201 306.814 364.383 304.916 364.563C297.113 365.295 289.299 365.91 281.478 366.409C265.624 367.445 249.746 368.121 233.86 368.435L234.069 367.556C239.96 367.091 247.015 367.177 253.094 366.91C267.827 366.33 282.549 365.437 297.244 364.231C302.619 363.783 311.461 363.2 316.481 362.256Z" fill="#1C1C1C"/>
<path d="M313.786 399.879C321.995 391.814 332.135 391.064 342.442 388.767C341.186 392.504 340.016 396.179 339.493 400.099H320.137C318.256 399.796 315.75 399.879 313.786 399.879Z" fill="#D9DBD5"/>
<path d="M159.62 367.002L234.068 367.556L233.86 368.435C224.516 368.415 214.835 368.763 205.348 368.763C190.003 368.729 174.662 368.429 159.33 367.864L159.62 367.002Z" fill="#0C0C0C"/>
<path d="M448.883 350.294C448.989 351.956 449.046 353.62 449.055 355.285C438.446 359.652 429.852 363.623 425.728 374.785C423.259 381.464 419.746 393.214 418.644 400.098H416.498C416.926 395.106 418.547 387.52 416.612 382.856C415.67 380.585 413.918 379.287 411.683 378.391C404.693 375.59 383.216 377.812 375.282 379.332C372.171 379.929 369.06 380.756 366.14 382C355.143 386.681 356.145 390.61 352.36 399.93L352.292 400.098H350.942C352.3 395.189 353.642 390.045 357.244 386.254C366.38 376.634 388.134 376.146 400.854 375.846C399.116 372.497 397.515 370.383 394.073 368.788C403.606 356.529 418.593 355.297 433.04 353.246C434.698 353.011 439.653 352.785 440.82 352.143L441 351.399C443.974 350.732 447.428 352.328 448.672 351.639L448.883 350.294Z" fill="#D9DBD5"/>
<path d="M-29.1547 351.479C-28.5568 352.3 -28.5799 352.367 -27.5259 352.511C-12.7716 354.532 6.1526 354.839 16.4559 367.371C15.7119 369.277 15.5523 370.92 15.455 372.96C13.9483 374.047 13.313 374.569 11.9527 375.833C24.2525 376.672 41.9645 376.86 50.6136 386.819C53.2934 389.906 55.7196 395.757 56.158 399.731L55.9391 400.099H54.9547C50.965 382.26 40.2826 380.035 23.5744 378.03C16.918 377.231 10.0756 377.057 3.37583 377.248C-11.1148 377.662 -7.76632 390.163 -6.87955 400.099H-8.70932C-9.72395 392.97 -12.8521 382.426 -15.3277 375.656C-19.3286 364.716 -25.8448 361.043 -35.9743 356.576C-35.9501 354.82 -35.75 353.923 -36.8457 352.604C-34.0824 351.384 -32.1464 351.04 -29.1547 351.479Z" fill="#D9DBD5"/>
<path d="M355.468 357.538L357.423 357.68C358.636 361.522 360.7 362.146 364.473 362.656C364.584 364.514 364.756 366.613 364.804 368.453C355.366 372.361 348.541 375.679 344.04 384.996C340.65 379.989 345.687 373.08 345.927 367.445C346.113 363.024 345.191 363.469 344.677 360.346L345.108 359.914C347.117 359.938 353.057 359.082 355.114 358.39C355.311 358.325 355.383 357.824 355.468 357.538Z" fill="#D9DBD5"/>
<path d="M67.6651 359.138C70.9989 353.999 73.2409 354.218 78.8395 353.064C79.7234 352.881 81.0871 352.052 82.0284 351.821C84.8385 351.201 88.3177 351.983 90.6806 353.598C93.9423 355.827 95.3496 358.494 95.3285 362.357C100.055 363.068 105.973 363.467 110.786 363.895C120.843 364.791 130.915 365.513 140.998 366.06C146.011 366.315 154.96 366.406 159.621 367.002L159.33 367.864C145.875 367.382 132.431 366.625 119.007 365.597L102.977 364.188C100.365 363.945 96.4819 363.439 93.97 363.397C94.0245 364.607 94.0476 366.113 94.24 367.285C96.4077 370.163 96.3389 370.198 95.8645 374.257C95.6536 376.06 95.0368 378.893 94.5128 380.628C97.9129 385.007 98.0428 386.413 97.581 391.868C102.021 394.076 104.721 395.585 107.304 400.098H97.4055H64.6822C63.8112 395.554 62.7169 391.055 61.4034 386.619L61.2913 386.288C58.7797 379.022 54.8552 376.816 48.4706 373.701C48.1626 370.685 47.7591 367.676 47.2607 364.685L47.4862 364.598C53.1177 362.385 52.0845 360.141 52.6898 354.676C52.77 355.463 52.7677 356.713 53.1585 357.261C56.7301 357.218 63.6605 358.835 67.6651 359.138Z" fill="#1C1C1C"/>
<path d="M47.2607 364.685L47.4862 364.598C53.1177 362.386 52.0845 360.141 52.6898 354.677C52.77 355.463 52.7677 356.713 53.1585 357.262C53.3648 357.72 53.3357 357.911 53.7824 358.009C57.6003 358.844 63.3063 359.773 67.1308 360.047C66.8328 360.933 66.5985 361.778 66.3376 362.672C63.729 371.61 72.982 379.361 66.2902 387.563C65.1203 386.893 62.8536 386.804 61.4034 386.619L61.2913 386.288C58.7797 379.022 54.8552 376.817 48.4706 373.701C48.1626 370.686 47.7591 367.676 47.2607 364.685Z" fill="#D9DBD5"/>
<path d="M61.4028 386.619C62.853 386.804 65.1197 386.893 66.2896 387.563L66.6042 388.302C68.0386 388.818 73.1458 389.429 74.9381 389.78C83.4971 391.446 91.1184 393.514 97.6634 399.402L97.7 399.85L97.4049 400.098H64.6816C63.8106 395.554 62.7163 391.055 61.4028 386.619Z" fill="#D9DBD5"/>
<path d="M397.883 329.464C396.796 328.751 396.216 328.44 395.957 327.213C396.353 325.207 398.508 323.305 398.831 322.107C399.678 319.051 399.322 311.033 401.334 308.827C405.29 304.489 417.294 305.147 421.561 308.912C422.186 309.463 426.284 314.68 426.615 315.364C430.528 323.401 421.013 331.197 421.692 338.453C422.837 339.329 422.557 338.241 424.255 339.105C425.14 340.183 425.557 341.892 425.993 343.255C432.435 344.571 436.645 346.312 441 351.398L440.82 352.142C439.653 352.785 434.698 353.01 433.04 353.246C418.593 355.297 403.606 356.528 394.073 368.788C390.993 367.396 386.293 365.942 382.908 366.234C381.11 365.185 381.489 360.665 381.461 358.765C383.496 356.659 384.463 355.228 385.981 352.774C388.804 352.246 391.527 351.684 394.395 351.474C396.082 350.693 400.529 348.039 402.47 347.018C402.244 345.987 402.067 344.658 401.896 343.592C403.149 342.904 405.395 341.977 405.478 340.435C404.881 339.746 401.1 339.636 399.447 337.784C397.526 335.634 397.88 332.26 397.883 329.464Z" fill="#1C1C1C"/>
<path d="M385.981 352.773C388.804 352.246 391.527 351.684 394.395 351.474C392.258 353.154 390.928 354.118 389.03 356.594C387.092 359.12 385.708 362.955 384.103 365.761C383.63 365.949 383.23 366.106 382.908 366.234C381.11 365.185 381.489 360.665 381.461 358.765C383.496 356.658 384.463 355.227 385.981 352.773Z" fill="#D9DBD5"/>
<path d="M-14.155 343.167C-11.8477 336.154 -11.3406 339.943 -9.92436 338.321C-9.3798 330.846 -17.961 324.18 -15.1451 316.2C-14.9019 315.511 -10.7772 309.927 -10.0428 309.255C-5.65519 305.237 5.8483 304.395 10.4157 308.679C12.3405 310.592 11.9121 318.669 12.9402 321.478C13.8992 324.496 15.1921 325.094 16.189 327.649C15.4752 328.249 14.7283 328.906 13.9859 329.463C13.9349 331.662 13.9742 334.175 13.4636 336.373C12.826 339.115 7.17061 339.562 6.31866 340.618C6.3138 342.068 8.72952 343.035 9.88401 343.641C9.74045 344.783 9.60973 346.01 9.39167 347.132C11.9384 348.428 14.557 349.71 16.9902 351.199C18.1195 352.079 19.9019 353.383 20.8883 354.34C20.789 360.597 19.6225 362.085 16.4559 367.37C6.15255 354.838 -12.7716 354.531 -27.5259 352.51C-28.58 352.366 -28.5568 352.299 -29.1548 351.478C-23.9181 346.283 -21.2966 345.032 -14.155 343.167Z" fill="#1C1C1C"/>
<path d="M344.263 359.266C347.911 358.599 351.787 358.084 355.468 357.538C355.383 357.824 355.311 358.324 355.114 358.39C353.057 359.081 347.117 359.937 345.108 359.913L344.263 359.266Z" fill="#0C0C0C"/>
<path d="M16.9902 351.199C17.8222 351.086 18.2389 350.993 19.0706 351.208C19.4736 351.31 19.8752 351.417 20.275 351.531C20.9129 350.78 20.134 349.965 20.7965 348.819C20.8096 350.66 20.8401 352.5 20.8884 354.34C19.902 353.383 18.1196 352.079 16.9902 351.199Z" fill="#D9DBD5"/>
<path d="M-27.8205 344.912C-27.1417 345.844 -27.168 345.919 -25.9715 346.083C-9.22244 348.378 12.2602 348.726 23.9565 362.953C23.1118 365.116 22.9307 366.981 22.8202 369.297C21.1098 370.531 20.3886 371.123 18.8445 372.558C32.8071 373.51 52.9137 373.724 62.7321 385.03C65.7741 388.534 68.5284 395.176 69.0261 399.687L68.7776 400.105H-4.61099C-5.7628 392.012 -9.31381 380.042 -12.1242 372.357C-16.6659 359.938 -24.0631 355.769 -35.5621 350.698C-35.5346 348.704 -35.3074 347.686 -36.5513 346.189C-33.4143 344.803 -31.2167 344.414 -27.8205 344.912Z" fill="#0C0C0C"/>
<path d="M28.8842 341.891C29.0971 335.855 29.9343 330.306 34.6258 325.894C41.5927 319.343 55.1973 319.102 61.9585 326.105C65.086 329.345 64.8735 331.668 63.826 335.769C62.7101 340.137 64.5265 342.782 66.7374 346.325C66.219 347.032 65.6365 347.872 65.0889 348.541C64.4017 354.744 65.5746 357.292 59.1818 359.803L58.9259 359.903C59.4916 363.298 59.9497 366.714 60.2993 370.137C67.5471 373.674 72.0021 376.177 74.8532 384.426L74.9806 384.801C76.4716 389.837 77.7138 394.945 78.7026 400.104H68.778L69.0265 399.686C68.5288 395.174 65.7745 388.532 62.7325 385.028C52.9141 373.722 32.8075 373.509 18.8448 372.557C20.389 371.122 21.1102 370.529 22.8206 369.295C22.9311 366.98 23.1122 365.114 23.9569 362.951C27.5516 356.951 28.8758 355.262 28.9885 348.159C28.9338 346.07 28.8991 343.981 28.8842 341.891Z" fill="#0C0C0C"/>
<path fill-rule="evenodd" clip-rule="evenodd" d="M73.553 390.774C73.2896 390.845 72.9081 390.458 72.7275 389.791C72.5468 389.123 72.6811 388.597 72.9445 388.526C73.2079 388.454 73.5894 388.841 73.7701 389.509C73.9507 390.176 73.8163 390.702 73.553 390.774Z" fill="#1C1C1C"/>
<path fill-rule="evenodd" clip-rule="evenodd" d="M72.7275 389.791C72.9081 390.458 73.2896 390.845 73.553 390.774C73.8163 390.702 73.9507 390.176 73.7701 389.509C73.5894 388.841 73.2079 388.454 72.9445 388.526C72.6811 388.597 72.5468 389.123 72.7275 389.791Z" fill="#B5FE28"/>
<path fill-rule="evenodd" clip-rule="evenodd" d="M72.5647 391.041L72.8766 390.957C72.6637 390.68 72.4814 390.303 72.3689 389.888C72.1188 388.964 72.2625 388.03 72.7729 387.892C73.1122 387.8 73.4888 388.094 73.7767 388.572C73.8422 388.287 73.9794 388.081 74.1873 388.024C74.6333 387.904 75.147 388.544 75.3612 389.336C75.4477 389.656 75.4796 389.979 75.4575 390.258L75.7057 390.191L75.2327 388.671C75.0025 387.931 74.5328 387.384 74.0734 387.32L72.7915 387.142C72.1125 387.048 71.7476 388.022 72.0473 389.13L72.5647 391.041Z" fill="white"/>
<path fill-rule="evenodd" clip-rule="evenodd" d="M71.6887 389.227C71.278 387.709 71.7781 386.374 72.7086 386.503L73.9905 386.681C74.62 386.769 75.2636 387.519 75.579 388.533L76.4479 391.325C76.8334 392.563 76.6114 393.799 75.944 394.129L74.7559 394.716C74.0119 395.083 73.0299 394.182 72.6514 392.784L71.6887 389.227ZM73.553 390.774C73.2896 390.845 72.9081 390.458 72.7275 389.791C72.5468 389.123 72.6811 388.597 72.9445 388.526C73.2079 388.454 73.5894 388.841 73.7701 389.509C73.9507 390.176 73.8163 390.702 73.553 390.774ZM72.7362 391.675L75.901 390.819L76.1015 391.463C76.3829 392.367 76.2208 393.269 75.7337 393.509L74.5457 394.096C74.0027 394.365 73.2861 393.707 73.01 392.687L72.7362 391.675ZM75.0026 389.433C74.8579 388.898 74.5578 388.605 74.3589 388.658C74.16 388.712 74.0488 389.117 74.1935 389.652C74.3383 390.187 74.6384 390.48 74.8374 390.426C75.0362 390.372 75.1474 389.968 75.0026 389.433ZM72.8766 390.957L72.5647 391.041L72.0473 389.13C71.7476 388.022 72.1125 387.048 72.7915 387.142L74.0734 387.32C74.5328 387.384 75.0025 387.931 75.2327 388.671L75.7057 390.191L75.4575 390.258C75.4796 389.979 75.4477 389.656 75.3612 389.336C75.147 388.544 74.6333 387.904 74.1873 388.024C73.9794 388.081 73.8422 388.287 73.7767 388.572C73.4888 388.094 73.1122 387.8 72.7729 387.892C72.2625 388.03 72.1188 388.964 72.3689 389.888C72.4814 390.303 72.6637 390.68 72.8766 390.957Z" fill="#1C1C1C"/>
<path fill-rule="evenodd" clip-rule="evenodd" d="M75.901 390.819L72.7362 391.675L73.01 392.687C73.2861 393.707 74.0027 394.365 74.5457 394.096L75.7337 393.509C76.2208 393.269 76.3829 392.367 76.1015 391.463L75.901 390.819Z" fill="#B5FE28"/>
<path d="M74.3589 388.658C74.5578 388.605 74.8579 388.898 75.0026 389.433C75.1474 389.968 75.0362 390.372 74.8374 390.426C74.6384 390.48 74.3383 390.187 74.1935 389.652C74.0488 389.117 74.16 388.712 74.3589 388.658Z" fill="#B5FE28"/>
<path d="M455.226 344.508C455.344 346.363 455.407 348.221 455.417 350.079C443.576 354.953 433.984 359.386 429.381 371.844C426.626 379.298 422.704 392.414 421.474 400.097H345.909C347.426 394.617 348.923 388.876 352.943 384.644C363.14 373.907 387.421 373.363 401.619 373.028C399.679 369.29 397.892 366.931 394.05 365.151C404.69 351.467 421.417 350.093 437.542 347.804C439.393 347.541 444.923 347.289 446.226 346.572L446.427 345.742C449.746 344.997 453.601 346.779 454.99 346.01L455.226 344.508Z" fill="#0C0C0C"/>
<path d="M355.813 330.438C355.425 329.753 354.925 328.859 354.6 328.138C353.584 325.868 353.708 320.136 356.441 319.003C356.925 319.529 357.164 319.76 357.718 320.21C359.302 318.83 357.839 317.336 360.429 316.024C362.108 316.788 366.131 318.683 367.782 318.933C371.939 319.563 375.841 318.575 379.858 320.522C383.359 322.218 383.426 324.319 385.353 327.274C386.277 328.69 387.672 328.875 388.446 331.197C390.237 336.57 387.309 342.54 385.019 347.277C383.324 350.016 382.244 351.613 379.973 353.964C380.005 356.085 379.581 361.129 381.588 362.3C385.366 361.974 390.613 363.597 394.05 365.151C397.892 366.931 399.679 369.29 401.619 373.028C387.421 373.363 363.14 373.907 352.943 384.644C348.923 388.876 347.426 394.617 345.909 400.097L333.132 400.097C333.715 395.722 335.021 391.621 336.423 387.45C337.146 386.109 337.2 384.641 338.207 383.24C334.422 377.652 340.045 369.94 340.312 363.651C340.519 358.717 339.491 359.213 338.917 355.728L339.398 355.245C341.641 355.272 348.27 354.316 350.567 353.544C350.787 353.472 350.866 352.913 350.962 352.593L353.144 352.752C352.822 349.657 352.838 348.446 352.978 345.37C352.239 344.597 351.494 343.829 350.742 343.066C354.625 336.487 354.249 338.48 355.813 330.438Z" fill="#0C0C0C"/>
<path fill-rule="evenodd" clip-rule="evenodd" d="M337.549 393.881C337.813 393.937 338.15 393.622 338.265 393.081C338.38 392.541 338.2 392.116 337.936 392.06C337.672 392.004 337.335 392.319 337.22 392.859C337.105 393.4 337.285 393.825 337.549 393.881Z" fill="#1C1C1C"/>
<path fill-rule="evenodd" clip-rule="evenodd" d="M338.265 393.081C338.15 393.622 337.813 393.937 337.549 393.881C337.285 393.825 337.105 393.4 337.22 392.859C337.335 392.319 337.672 392.004 337.936 392.06C338.2 392.116 338.38 392.541 338.265 393.081Z" fill="#B5FE28"/>
<path fill-rule="evenodd" clip-rule="evenodd" d="M338.539 394.091L338.227 394.025C338.409 393.8 338.552 393.494 338.624 393.158C338.783 392.409 338.556 391.655 338.045 391.546C337.705 391.474 337.364 391.714 337.127 392.102C337.037 391.872 336.884 391.706 336.675 391.662C336.229 391.567 335.786 392.088 335.65 392.729C335.595 392.988 335.593 393.249 335.641 393.475L335.392 393.422L335.714 392.191C335.871 391.592 336.279 391.146 336.722 391.092L337.958 390.941C338.612 390.86 339.059 391.646 338.868 392.543L338.539 394.091Z" fill="white"/>
<path fill-rule="evenodd" clip-rule="evenodd" d="M339.227 392.619C339.489 391.39 338.877 390.314 337.98 390.424L336.744 390.575C336.137 390.649 335.577 391.26 335.363 392.081L334.771 394.343C334.509 395.346 334.84 396.344 335.522 396.606L336.737 397.074C337.498 397.367 338.374 396.633 338.615 395.5L339.227 392.619ZM337.549 393.881C337.813 393.937 338.15 393.622 338.265 393.081C338.38 392.541 338.2 392.116 337.936 392.06C337.672 392.004 337.335 392.319 337.22 392.859C337.105 393.4 337.285 393.825 337.549 393.881ZM338.43 394.605L335.259 393.931L335.123 394.453C334.931 395.185 335.173 395.913 335.671 396.105L336.886 396.572C337.441 396.786 338.08 396.25 338.256 395.424L338.43 394.605ZM336.009 392.805C336.101 392.372 336.367 392.133 336.566 392.175C336.766 392.218 336.912 392.544 336.82 392.977C336.727 393.411 336.461 393.649 336.262 393.607C336.063 393.565 335.917 393.238 336.009 392.805ZM338.227 394.025L338.539 394.091L338.868 392.543C339.059 391.646 338.612 390.86 337.958 390.941L336.722 391.092C336.279 391.146 335.871 391.592 335.714 392.191L335.392 393.422L335.641 393.475C335.593 393.249 335.595 392.988 335.65 392.729C335.786 392.088 336.229 391.567 336.675 391.662C336.884 391.706 337.037 391.872 337.127 392.102C337.364 391.714 337.705 391.474 338.045 391.546C338.556 391.655 338.783 392.409 338.624 393.158C338.552 393.494 338.409 393.8 338.227 394.025Z" fill="#1C1C1C"/>
<path fill-rule="evenodd" clip-rule="evenodd" d="M335.259 393.931L338.43 394.605L338.256 395.424C338.08 396.25 337.441 396.786 336.886 396.572L335.671 396.105C335.173 395.913 334.931 395.185 335.123 394.453L335.259 393.931Z" fill="#B5FE28"/>
<path d="M336.566 392.175C336.367 392.133 336.101 392.372 336.009 392.805C335.917 393.238 336.063 393.565 336.262 393.607C336.461 393.649 336.727 393.411 336.82 392.977C336.912 392.544 336.766 392.218 336.566 392.175Z" fill="#B5FE28"/>
<path d="M350.739 352.989L352.808 353.139C354.092 357.206 356.276 357.867 360.27 358.406C360.388 360.374 360.57 362.595 360.621 364.542C350.63 368.68 343.406 372.192 338.642 382.054C335.053 376.754 340.385 369.441 340.639 363.476C340.835 358.797 339.86 359.267 339.316 355.962L339.772 355.504C341.899 355.53 348.186 354.623 350.364 353.891C350.573 353.822 350.648 353.292 350.739 352.989Z" fill="#D9DBD5"/>
</g>
<defs>
<clipPath id="clip0_923_57730">
<rect width="408" height="400" fill="white"/>
</clipPath>
</defs>
</svg>
