<svg width="250" height="250" viewBox="0 0 250 250" fill="none" xmlns="http://www.w3.org/2000/svg">
<path d="M51.6753 69.6027C52.2947 66.3567 53.9486 63.2831 56.7496 61.495C61.4561 58.4902 68.4689 57.6183 73.8642 56.6301L89.1985 53.8129C94.7839 52.7536 100.375 51.728 105.973 50.7363C113.004 49.4701 121.233 46.7793 126.036 54.2828C128.048 57.4274 128.799 61.8581 129.691 65.5074L131.956 74.7785L138.346 100.329C140.279 96.4587 145.17 94.1791 147.821 98.545C150.367 102.739 151.134 107.553 154.124 111.457C155.813 109.733 157.302 108.034 158.745 106.093C159.339 105.293 160.217 103.503 161.034 103.184C161.384 103.285 161.239 103.193 161.445 103.51C161.218 105.172 156.143 110.98 154.752 112.331C156.548 114.668 158.938 117.611 160.374 120.104C161.477 122.019 162.6 125.285 163.425 127.457C164.458 130.198 165.58 132.904 166.791 135.572C169.316 141.094 172.936 146.356 174.811 151.887C175.782 154.749 176.643 159.67 177.22 162.75L179.514 175.281C179.974 177.884 180.514 180.772 180.861 183.37C181.506 188.205 181.763 193.206 183.804 197.76C186.828 204.511 191.761 210.709 196.246 216.553C197.001 217.537 200.914 222.065 201.046 222.843C200.719 223.245 200.917 223.13 200.464 223.255C200.136 223.16 199.843 223.025 199.623 222.748C194.16 215.85 188.564 209.135 184.197 201.453C180.847 195.559 180.407 189.68 179.539 183.171C179.183 180.626 178.776 178.088 178.322 175.558L175.897 162.465C175.422 159.941 174.571 155.134 173.804 152.792C171.903 146.99 168.146 141.626 165.552 135.882C164.286 133.021 163.1 130.126 161.995 127.2C161.414 125.67 160.386 122.701 159.627 121.346C158.124 118.662 155.744 115.691 153.817 113.254C150.804 116.144 148.162 118.154 144.646 120.378C144.796 121.007 147.448 127.283 147.849 128.032L148.035 128.134C148.851 127.704 149.393 127.265 150.27 127.52L150.373 127.721C150.069 128.431 149.557 128.737 148.862 129.02C148.585 129.131 148.304 129.232 148.021 129.325C148.432 130.337 148.695 131.322 148.985 132.354C151.156 140.06 153.717 147.674 153.263 155.797C153.205 156.83 153.462 158.183 153.138 159.189L155.828 169.886C157.382 176.114 159.439 182.048 155.822 188.079C154.705 189.943 153.597 190.712 152.09 192.073C151.713 193.285 149.262 195.958 148.051 196.348C147.889 197.307 147.637 200.357 147.134 200.947L146.819 200.949L146.982 201.073L147.084 200.99C146.378 200.623 146.463 200.028 146.451 199.286C146.42 198.733 146.392 198.18 146.369 197.627L146.118 197.737C143.124 199.022 137.799 200.073 134.469 200.894C128.82 202.344 123.206 203.932 117.634 205.655C115.702 206.239 111.126 207.544 109.392 208.294C115.322 213.702 119.824 217.667 127.138 221.362C132.83 224.238 139.328 226.607 144.28 230.576C148.511 234.364 154.216 243.954 156.84 249.142C155.208 249.217 151.899 249.909 150.539 249.354L150.51 249.529C150.193 249.858 150.224 249.847 149.796 250C149.315 249.872 149.466 249.915 149.07 249.517C148.157 250.005 141.137 249.949 139.853 249.849C136.68 245.985 134.708 241.476 130.461 238.267C127.718 236.195 124.782 235.404 121.686 234.029C119.381 233.006 117.178 231.822 115.048 230.486C109.519 227.023 104.84 222.741 99.8735 218.591C97.1171 216.306 94.3061 214.089 91.4414 211.941C88.43 212.534 85.7291 212.989 82.8134 211.726C78.7562 209.967 77.0563 206.985 75.4683 203.159C68.0502 199.377 56.6911 195.701 59.4062 184.406C60.0572 181.698 61.2623 180.59 63.6406 179.209C60.0729 177.576 56.0215 175.315 54.3093 171.427C52.3275 166.927 54.0341 160.413 58.4807 157.967C58.7197 157.835 58.971 157.903 59.1998 158.013C59.2327 158.362 59.2378 158.318 59.4117 158.62L59.6915 157.503L59.5859 157.349C58.4988 157.672 56.3434 156.292 55.448 155.657C49.7506 151.617 49.0083 145.203 53.158 139.7C53.9481 138.652 55.1509 137.544 56.4867 137.37C58.3688 132.884 60.5847 131.268 65.3754 130.531L64.4915 126.905C62.5311 125.921 60.4044 125.111 58.3242 124.146C53.472 121.896 47.1002 117.018 50.0474 110.898C50.9229 109.08 52.4102 108.226 54.2674 107.591C54.1479 106.649 53.6257 105.379 53.3957 104.387L49.751 89.042C48.5395 83.7484 46.4748 77.1799 49.8126 72.2849C50.4182 71.3967 51.2325 70.563 51.6753 69.6027Z" fill="#1C1C1C"/>
<path d="M63.6415 179.208C60.0738 177.576 56.0225 175.315 54.3102 171.427C52.3285 166.927 54.035 160.413 58.4817 157.967C58.7207 157.835 58.972 157.903 59.2007 158.012C59.2336 158.362 59.2387 158.317 59.4127 158.62C58.0199 167.057 62.9329 170.268 69.8616 173.468C65.3539 174.544 64.3806 180.337 65.3857 184.183C67.3763 191.8 75.9962 193.814 81.8964 197.191C84.5196 203.935 90.0539 206.584 97.0053 205.136C99.6616 207.282 102.436 209.382 105.029 211.575C109.408 215.277 113.316 218.975 118.095 222.194C121.493 224.481 124.23 226.264 128.024 227.921C129.803 228.698 132.85 229.958 134.438 230.792C139.769 233.593 146.719 244.022 149.071 249.517C148.158 250.005 141.138 249.949 139.854 249.848C136.681 245.984 134.709 241.476 130.462 238.267C127.719 236.195 124.782 235.404 121.687 234.029C119.382 233.006 117.179 231.822 115.049 230.485C109.52 227.023 104.841 222.74 99.8745 218.591C97.1181 216.306 94.3071 214.089 91.4424 211.941C88.431 212.534 85.73 212.989 82.8144 211.726C78.7571 209.967 77.0573 206.985 75.4693 203.159C68.0512 199.377 56.692 195.701 59.4071 184.406C60.0582 181.697 61.2633 180.59 63.6415 179.208Z" fill="#D9DBD5"/>
<path d="M98.375 204.901C101.34 204.44 106.174 203.182 109.297 202.486L134.62 196.839C137.836 196.13 142.049 195.007 145.211 194.457C145.781 194.743 146.055 194.547 146.497 194.959C146.687 195.442 146.633 195.499 146.566 195.993L146.532 196.265L146.506 196.459L146.718 196.895C146.659 197.502 146.568 198.746 146.451 199.286C146.42 198.733 146.392 198.181 146.37 197.628L146.118 197.738C143.124 199.022 137.799 200.074 134.469 200.895C128.82 202.345 123.206 203.933 117.634 205.655C115.702 206.24 111.126 207.545 109.392 208.295C115.322 213.703 119.824 217.668 127.138 221.363C132.83 224.239 139.328 226.608 144.28 230.577C148.511 234.365 154.216 243.955 156.84 249.143C155.208 249.218 151.899 249.91 150.539 249.355L150.51 249.53C146.747 242.759 141.25 232.352 133.938 229.216C127.513 226.461 123.768 224.769 117.908 220.609C111.126 215.795 105.138 209.557 98.375 204.901Z" fill="#D9DBD5"/>
<path d="M54.2674 107.592C54.1479 106.65 53.6257 105.38 53.3957 104.388L49.751 89.0429C48.5395 83.7492 46.4748 77.1807 49.8126 72.2858C50.4182 71.3976 51.2325 70.5638 51.6753 69.6035C51.3238 73.8256 52.5324 77.7498 53.5112 81.8615C54.2518 84.982 55.0107 88.0981 55.7878 91.2097L59.798 107.666C57.5742 107.213 56.5106 107.167 54.2674 107.592Z" fill="#D9DBD5"/>
<path d="M59.6921 157.503L59.5865 157.35C58.4995 157.673 56.3441 156.293 55.4486 155.658C49.7513 151.618 49.009 145.204 53.1586 139.701C53.9487 138.653 55.1516 137.545 56.4873 137.371C55.6291 140.545 55.4955 142.999 57.1865 146.001C58.5971 148.505 61.5073 150.766 64.2881 151.507C66.6132 152.128 68.376 151.562 70.3739 150.403C70.5502 151.286 70.7121 152.045 70.942 152.915C65.3188 151.261 62.1422 151.717 59.6921 157.503Z" fill="#D9DBD5"/>
<path d="M145.73 129.722C146.702 129.638 147.094 129.631 148.023 129.326C148.433 130.338 148.696 131.323 148.987 132.355C151.157 140.062 153.719 147.675 153.264 155.798C153.206 156.831 153.464 158.184 153.139 159.191C150.536 149.736 148.167 139.333 145.73 129.722Z" fill="#D9DBD5"/>
<path d="M143.613 120.949L144.648 120.379C144.798 121.008 147.45 127.284 147.851 128.033L148.037 128.135C147.181 128.442 146.399 128.577 145.51 128.757C144.845 126.163 144.213 123.559 143.613 120.949Z" fill="#D9DBD5"/>
<path d="M115.535 53.1819C119.695 52.7594 122.426 54.5433 123.785 58.3983C124.886 61.5183 125.572 64.6159 126.352 67.8213L129.399 80.0881L139.816 121.833C137.743 122.785 135.749 123.743 133.637 124.614C134.084 124.123 134.499 123.605 134.883 123.064C135.179 122.639 135.464 122.184 135.368 121.665C134.351 121.671 131.545 124.901 131.843 126.016C132.549 126.591 136.307 127.205 137.136 126.657L137.11 126.468C136.267 125.754 135.088 125.697 133.976 125.517C136.111 124.872 138.161 123.97 140.079 122.832L149.474 160.803C150.648 165.543 151.96 170.253 153.102 175.014C153.782 177.847 154.296 180.666 152.647 183.32C152.139 184.137 150.802 185.369 149.89 185.704C146.165 187.072 141.64 187.832 137.771 188.763C128.94 190.89 119.933 192.67 111.117 194.76C109.137 195.083 105.854 195.912 103.91 196.417C92.6945 199.334 91.0117 196.807 88.4592 186.377L86.0965 176.806L77.7726 143.115L66.2186 95.9431L62.4327 80.5453C61.7018 77.5586 60.9077 74.5356 60.3236 71.5155C59.9641 69.6572 59.9538 67.9372 60.7621 66.1772C61.4723 64.6307 63.3838 63.0571 65.1392 62.6348C66.3981 62.3319 71.145 61.0857 72.3457 61.3305C73.4184 62.6704 73.8594 64.6296 75.6809 65.3228C78.1233 66.2524 81.0972 65.3067 83.7024 64.8301L93.3423 63.0486L101.169 61.5758C102.785 61.269 104.856 60.973 106.355 60.3769C109.568 59.0985 108.48 55.8121 108.992 54.5744C109.706 53.9677 114.339 53.3677 115.535 53.1819Z" fill="#F2F2F2"/>
<path d="M105.046 116.246L105.318 116.582L105.572 116.493L105.696 116.569L105.704 117.151L105.757 117.154C105.791 116.717 105.714 116.634 105.948 116.391C107.949 116.395 111.001 117.224 112.215 117.211C112.786 117.058 113.298 117.077 113.797 117.397L114.007 117.233L114.123 117.465L114.108 117.347C113.924 117.168 113.76 117.058 113.538 116.929L113.556 116.677C117.152 117.545 119.229 119.668 121.118 122.797L121.184 122.909C121.876 124.07 122.699 125.414 123.22 126.646C125.5 128.02 128.487 129.176 131.081 129.845C132.581 130.215 134.357 130.073 135.741 130.822C136.548 131.258 137.207 132.569 137.452 133.418C138.175 135.927 134.932 136.946 133.271 137.598C132.77 139.85 132.51 140.944 130.626 142.383C130.21 144.306 129.627 146.046 127.818 147.17C126.93 147.726 125.85 147.887 124.838 147.613C122.541 147.006 122.43 145.745 121.325 145.246C121.59 146.404 122.891 151.239 122.484 151.929L122.173 152.012L121.894 151.828C120.849 151.76 120.246 152.091 119.291 152.317C114.668 153.407 110.074 154.618 105.43 155.694C103.069 156.233 100.714 156.796 98.3643 157.382C97.6629 157.558 95.1642 158.07 94.868 158.473C94.7652 158.573 94.5916 158.704 94.4762 158.798L94.1836 158.749C93.8938 158.387 93.8929 158.034 93.8177 157.566C91.6061 158.814 88.5813 159.864 86.2919 158.199C83.5328 156.005 82.6489 150.166 82.5594 146.877C82.6963 146.513 82.7714 145.983 82.8743 145.581L82.9888 145.558L82.8779 145.625L83.0193 145.723C83.0381 145.971 83.0676 146.166 83.1016 146.412C83.2465 146.04 83.2241 145.713 83.2519 145.299C85.3221 145.299 87.3905 145.185 89.4473 144.955C89.5663 144.746 89.5681 144.733 89.6549 144.514C89.4026 144.417 85.9349 144.442 85.1101 144.344C84.0249 144.353 82.9262 144.34 81.8392 144.335C81.7301 142.208 81.8625 140.132 81.9036 138.002C81.7927 137.716 81.6746 137.432 81.5485 137.151C81.2237 136.41 81.255 136.197 81.2156 135.393C81.1986 134.391 81.4563 132.812 81.6254 131.832C81.8491 126.647 84.8748 123.68 88.7728 120.816C89.0403 121.185 89.0868 121.236 89.2854 121.666C89.9662 121.179 90.7258 120.691 91.4254 120.223C92.0678 119.772 93.0358 118.935 93.79 118.727C94.1622 118.624 94.4118 118.892 94.7517 119.116C94.7025 118.729 95.0049 118.627 95.2876 118.402C98.6703 120.069 103.582 120.714 105.046 116.246Z" fill="#0C0C0C"/>
<path d="M105.046 116.246L105.318 116.582L105.572 116.493L105.696 116.569L105.704 117.151L105.757 117.154C105.791 116.717 105.714 116.634 105.948 116.391C107.949 116.395 111.001 117.224 112.215 117.211C112.786 117.058 113.298 117.077 113.797 117.397L114.007 117.233L114.123 117.465L114.108 117.347C113.924 117.168 113.76 117.058 113.538 116.929L113.556 116.677C117.152 117.545 119.229 119.668 121.118 122.797L121.184 122.909C120.86 123.168 120.742 123.221 120.529 123.577C121.018 124.341 121.623 125.231 122.007 126.036C121.093 125.432 120.128 124.768 119.178 124.232C118.341 124.202 118.588 124.091 117.991 124.496C116.765 124.336 115.19 126.119 115.813 127.207C116.364 127.32 116.18 126.906 116.972 126.995C116.821 127.39 116.849 127.373 116.93 127.795C116.596 128.031 116.177 128.312 115.866 128.564C115.607 128.271 115.466 128.239 115.113 128.065C114.362 128.215 114.223 128.146 113.523 127.872L111.661 126.734L111.317 127.015L111.332 127.483C110.612 127.364 110.484 127.304 109.82 127.577L109.76 127.637L109.139 127.281L109.148 127.134C108.37 126.807 108.074 126.687 107.256 127.001C106.382 127.332 105.678 128.001 105.302 128.857C104.961 129.655 104.981 130.339 105.414 131.084C105.807 131.338 105.793 131.394 105.999 131.807C103.592 134.037 101.225 134.954 99.1105 131.724C99.0836 132.624 99.0479 133.525 99.0559 134.425C101.848 135.519 103.59 136.188 104.671 139.302L104.264 139.52C104.321 139.774 104.334 139.829 104.41 140.063L104.262 140.183C103.45 140.858 102.858 141.711 102.078 142.361C101.906 142.365 101.734 142.37 101.563 142.374C101.205 142.59 101.055 142.651 100.67 142.768C101.123 142.92 102.021 143.067 102.572 143.208L102.668 143.103L102.927 143.201C102.716 143.704 102.287 144.77 101.808 145.023C98.2051 146.919 94.2364 148.216 90.5326 149.929C90.1067 150.126 89.8061 150.187 89.3659 150.076L89.3024 149.882C89.9349 149.066 91.1973 148.607 92.1367 148.21C92.0552 147.085 91.9255 145.752 91.93 144.641C91.1221 144.754 90.2561 144.896 89.4473 144.955C89.5663 144.746 89.5681 144.733 89.6549 144.514C89.4026 144.417 85.9349 144.442 85.1101 144.344C84.0249 144.353 82.9262 144.34 81.8392 144.335C81.7301 142.208 81.8625 140.132 81.9036 138.002C81.7927 137.716 81.6746 137.432 81.5485 137.151C81.2237 136.41 81.255 136.197 81.2156 135.393C81.1986 134.391 81.4563 132.812 81.6254 131.832C81.8491 126.647 84.8748 123.68 88.7728 120.816C89.0403 121.185 89.0868 121.236 89.2854 121.666C89.9662 121.179 90.7258 120.691 91.4254 120.223C92.0678 119.772 93.0358 118.935 93.79 118.727C94.1622 118.624 94.4118 118.892 94.7517 119.116C94.7025 118.729 95.0049 118.627 95.2876 118.402C98.6703 120.069 103.582 120.714 105.046 116.246Z" fill="#B5FE28"/>
<path d="M98.358 131.497C99.3153 128.154 102.395 130.676 104.301 131.331C104.757 131.488 105.037 131.308 105.413 131.084C105.806 131.338 105.792 131.394 105.998 131.806C103.591 134.037 101.224 134.954 99.1095 131.724C99.0827 132.624 99.0469 133.525 99.0549 134.424C101.847 135.518 103.589 136.188 104.67 139.302L104.263 139.52C104.32 139.773 104.333 139.829 104.409 140.062L104.261 140.183C103.449 140.858 102.857 141.711 102.077 142.361C101.905 142.365 101.734 142.37 101.562 142.374C99.674 142.092 99.8843 141.723 99.5801 139.953L99.4521 139.751L99.3009 139.746C99.2786 140.192 99.2714 140.562 99.275 141.007C98.961 140.539 99.2437 137.496 98.3848 136.704C98.0377 135.466 98.1674 132.822 98.358 131.497Z" fill="#0C0C0C"/>
<path d="M99.582 139.954C100.046 139.728 103.477 140.056 104.411 140.064L104.263 140.184C103.451 140.859 102.859 141.712 102.079 142.362C101.907 142.366 101.735 142.371 101.564 142.375C99.676 142.094 99.8862 141.724 99.582 139.954Z" fill="white"/>
<path d="M99.0742 135.266C99.3167 135.335 99.5573 135.409 99.7962 135.49C101.826 136.175 102.937 137.319 103.847 139.187C102.364 139.166 101.106 139.122 99.6244 139.019C99.3355 137.676 99.2102 136.622 99.0742 135.266Z" fill="#FA4444"/>
<path d="M92.382 143.657C92.2541 142.309 91.2959 135.409 92.2335 134.756C92.6692 135.597 93.0503 142.223 93.223 143.658C93.2838 144.166 93.1523 144.197 92.8714 144.497C92.679 145.167 92.8812 147.082 92.9394 147.895C95.134 146.817 100.794 145.146 101.787 143.501C101.681 143.193 100.018 143.123 99.176 142.396C98.7457 140.955 98.5623 138.336 98.3851 136.705C99.244 137.498 98.9613 140.541 99.2753 141.009C99.2717 140.564 99.2789 140.194 99.3012 139.748L99.4524 139.752L99.5804 139.955C99.8846 141.724 99.6743 142.094 101.562 142.376C101.204 142.591 101.055 142.652 100.669 142.769C101.122 142.921 102.02 143.068 102.571 143.209L102.667 143.104L102.926 143.202C102.715 143.705 102.287 144.771 101.807 145.024C98.2044 146.92 94.2357 148.218 90.5319 149.93C90.106 150.127 89.8054 150.189 89.3652 150.078L89.3017 149.884C89.9342 149.067 91.1966 148.609 92.136 148.211C92.0546 147.086 91.9248 145.753 91.9293 144.642C91.1214 144.755 90.2554 144.897 89.4466 144.956C89.5656 144.747 89.5674 144.734 89.6542 144.515C89.4019 144.418 85.9342 144.443 85.1094 144.346C87.7092 144.211 89.8117 143.967 92.382 143.657Z" fill="#0C0C0C"/>
<path d="M105.758 117.154C105.792 116.716 105.715 116.634 105.949 116.391C107.95 116.394 111.002 117.224 112.216 117.211C112.787 117.058 113.299 117.077 113.798 117.396L114.008 117.232L114.124 117.464L114.109 117.346C113.925 117.167 113.76 117.058 113.539 116.928L113.557 116.677C117.153 117.545 119.229 119.668 121.119 122.796L121.185 122.908C120.861 123.168 120.743 123.22 120.53 123.576C121.019 124.34 121.624 125.231 122.008 126.036C121.094 125.432 120.129 124.767 119.179 124.231C118.342 124.202 118.589 124.091 117.992 124.495C116.766 124.336 115.191 126.118 115.814 127.207C116.365 127.32 116.181 126.905 116.973 126.995C116.822 127.389 116.85 127.372 116.931 127.795C116.597 128.031 116.178 128.312 115.867 128.563C115.608 128.271 115.467 128.239 115.114 128.065C114.363 128.214 114.224 128.145 113.524 127.872C113.887 127.856 114.117 127.847 114.481 127.797L114.611 127.598L114.476 127.679C114.648 127.277 114.499 126.351 114.61 125.943C114.744 125.453 115.245 124.667 115.512 124.217C118.532 122.48 117.459 123.848 119.34 123.754C119.651 123.47 119.556 123.643 119.615 123.208C119.294 122.634 119.165 122.818 118.802 122.492C118.029 121.799 118.647 120.834 117.321 120.57C115.273 117.508 109.555 117.028 106.093 116.746C105.938 116.733 105.841 117.009 105.758 117.154Z" fill="#B5FE28"/>
<path d="M113.556 116.678C117.152 117.546 119.228 119.669 121.118 122.797L121.184 122.909C120.86 123.168 120.742 123.221 120.529 123.577C117.785 119.559 116.963 118.62 112.215 117.212C112.786 117.059 113.297 117.078 113.797 117.397L114.007 117.233L114.122 117.465L114.108 117.347C113.924 117.168 113.759 117.059 113.537 116.929L113.556 116.678Z" fill="#0C0C0C"/>
<path d="M115.112 128.066C115.103 127.033 114.384 126.346 115.27 125.111C116.35 123.607 117.606 123.222 119.178 124.233C118.34 124.203 118.587 124.092 117.99 124.497C116.764 124.337 115.189 126.12 115.812 127.208C116.363 127.321 116.18 126.907 116.971 126.996C116.82 127.391 116.848 127.374 116.929 127.796C116.596 128.032 116.176 128.313 115.866 128.565C115.606 128.272 115.465 128.24 115.112 128.066Z" fill="#0C0C0C"/>
<path d="M81.6254 131.832C81.8491 126.648 84.8748 123.68 88.7728 120.816C89.0403 121.186 89.0868 121.237 89.2854 121.666C83.7162 125.503 83.497 127.3 82.3098 133.531C82.1962 134.924 82.1013 136.643 81.9036 138.003C81.7927 137.716 81.6746 137.433 81.5485 137.152C81.2237 136.41 81.255 136.197 81.2156 135.393C81.1986 134.391 81.4563 132.813 81.6254 131.832Z" fill="#0C0C0C"/>
<path d="M81.2156 135.393C81.1986 134.391 81.4563 132.813 81.6254 131.832C81.807 132.601 81.7229 133.307 81.8705 133.955L82.1443 132.959L82.3671 133.181L82.2678 132.895L82.1523 132.903L82.1219 132.997L82.3304 133.204L82.3098 133.531C82.1962 134.924 82.1013 136.643 81.9036 138.002C81.7927 137.716 81.6746 137.433 81.5485 137.152C81.2237 136.41 81.255 136.197 81.2156 135.393Z" fill="#0C0C0C"/>
<path d="M105.046 116.246L105.318 116.582L105.571 116.493L105.696 116.569L105.704 117.151C105.269 118.407 104.733 118.984 103.623 119.748C100.527 121.132 97.6438 120.701 94.7514 119.116C94.7022 118.729 95.0046 118.627 95.2873 118.402C98.67 120.069 103.582 120.714 105.046 116.246Z" fill="#0C0C0C"/>
<path d="M109.146 127.135C110.137 126.338 110.462 126.343 111.659 126.735L111.315 127.016L111.33 127.484C110.61 127.365 110.482 127.305 109.818 127.578L109.758 127.638L109.137 127.282L109.146 127.135Z" fill="#0C0C0C"/>
<path d="M102.926 143.201C103.536 142.282 107.041 138.199 107.905 138.146C108.208 138.908 106.767 140.899 106.716 142.189C107.416 143.471 115.513 142.541 117.103 142.302C116.168 142.802 115.853 142.94 114.948 143.303C113.894 143.726 110.657 143.974 110.096 144.463C110.543 145.737 113.64 144.237 113.909 144.698C114.257 144.814 114.852 145.034 115.192 145.108C115.552 144.664 116.138 143.789 116.637 143.662C117.241 143.093 117.527 142.84 118.026 142.154L119.836 141.863C119.974 142.877 120.104 144.048 120.316 145.033L120.583 145.038L120.711 145.36C120.97 145.232 120.878 145.291 121.075 145.066C121.159 145.124 121.257 145.169 121.324 145.246C121.59 146.404 122.89 151.239 122.483 151.93L122.172 152.012L121.893 151.828C120.848 151.76 120.245 152.091 119.29 152.317C114.668 153.407 110.074 154.618 105.429 155.694C103.068 156.234 100.713 156.796 98.3635 157.382C97.6621 157.558 95.1633 158.07 94.8672 158.473C94.7643 158.573 94.5908 158.704 94.4754 158.798L94.1828 158.749C93.8929 158.387 93.892 158.034 93.8169 157.566C91.6053 158.814 88.5805 159.864 86.2911 158.199C83.532 156.006 82.6481 150.166 82.5586 146.877C82.6955 146.513 82.7706 145.984 82.8735 145.581L82.988 145.559L82.8771 145.625L83.0184 145.723C83.0372 145.971 83.0668 146.166 83.1007 146.412C83.2457 146.04 83.2233 145.713 83.2511 145.299C85.3213 145.299 87.3897 145.185 89.4465 144.955C90.2553 144.896 91.1213 144.754 91.9292 144.641C91.9247 145.752 92.0544 147.085 92.1358 148.21C91.1965 148.608 89.9341 149.066 89.3016 149.883L89.3651 150.077C89.8053 150.188 90.1059 150.126 90.5317 149.929C94.2356 148.217 98.2043 146.919 101.807 145.023C102.287 144.77 102.715 143.704 102.926 143.201Z" fill="white"/>
<path d="M118.026 142.154L119.836 141.863C119.973 142.877 120.104 144.048 120.316 145.033L120.583 145.038L120.711 145.36C120.969 145.233 120.878 145.292 121.075 145.066C121.159 145.124 121.256 145.169 121.323 145.247C121.589 146.405 122.89 151.239 122.483 151.93L122.172 152.012L121.892 151.829C120.847 151.761 120.244 152.092 119.29 152.317C114.667 153.408 110.073 154.618 105.429 155.695C103.068 156.234 100.712 156.797 98.363 157.383C97.6616 157.558 95.1629 158.071 94.8667 158.473C94.7638 158.574 94.5903 158.704 94.4749 158.798L94.1823 158.75C93.8924 158.388 93.8916 158.034 93.8164 157.566C94.2109 157.386 94.2458 157.213 94.6279 157.272L94.958 156.983C97.1803 155.631 99.28 154.088 101.234 152.372C103.277 150.592 104.864 148.557 107.667 148.322C111.03 148.04 112.734 147.527 115.191 145.108C115.551 144.664 116.138 143.789 116.636 143.662C117.24 143.093 117.526 142.84 118.026 142.154Z" fill="#C8FA44"/>
<path d="M120.316 145.033L120.583 145.039L120.711 145.361C120.97 145.233 120.878 145.292 121.075 145.066C121.159 145.124 121.257 145.169 121.324 145.247C121.589 146.405 122.89 151.239 122.483 151.93L122.172 152.012L121.893 151.829C121.293 149.582 120.767 147.315 120.316 145.033Z" fill="#0C0C0C"/>
<path d="M93.8164 157.566C94.2109 157.386 94.2458 157.212 94.6279 157.272L94.8667 158.473C94.7638 158.573 94.5903 158.704 94.4749 158.798L94.1823 158.749C93.8924 158.387 93.8916 158.034 93.8164 157.566Z" fill="#0C0C0C"/>
<path d="M110.865 146.409C110.669 146.211 110.739 146.297 110.651 146.003C111.08 145.425 113.053 145.074 113.908 144.697C114.256 144.814 114.851 145.034 115.19 145.107C112.733 147.526 111.029 148.039 107.666 148.321C104.864 148.556 103.276 150.591 101.233 152.371C99.2791 154.087 97.1793 155.63 94.957 156.982C94.9696 156.581 95.1512 156.098 95.2657 155.684C95.5913 155.303 97.9121 153.888 98.5025 153.385C99.8186 152.263 101.196 151.142 102.491 149.981C104.202 148.446 105.307 147.536 107.692 147.412C108.539 147.367 110.279 147.021 111.117 146.765C111.063 146.537 111.072 146.623 110.865 146.409Z" fill="#0C0C0C"/>
<path d="M110.867 146.41C111.639 146.309 112.363 146.135 113.081 146.041C112.399 146.343 111.854 146.63 111.119 146.766C111.066 146.538 111.075 146.623 110.867 146.41Z" fill="white"/>
<path d="M82.5586 146.877C82.6955 146.513 82.7706 145.983 82.8735 145.581L82.988 145.558L82.8771 145.624L83.0184 145.723C83.0372 145.971 83.0668 146.166 83.1007 146.412C83.2457 146.04 83.2233 145.713 83.2511 145.299C83.9507 149.265 83.6796 155.395 87.5409 157.862C87.1768 157.98 86.665 158.154 86.2911 158.199C83.532 156.005 82.6481 150.166 82.5586 146.877Z" fill="#0C0C0C"/>
<path d="M87.5428 157.863L87.804 157.934C90.4128 158.656 93.0556 156.907 95.269 155.686C95.1545 156.099 94.9729 156.582 94.9604 156.983L94.6302 157.272C94.2482 157.213 94.2133 157.386 93.8188 157.566C91.6072 158.814 88.5824 159.864 86.293 158.2C86.6669 158.155 87.1787 157.98 87.5428 157.863Z" fill="#0C0C0C"/>
<path d="M105.999 131.807C106.482 131.407 106.476 131.275 106.997 131.197C107.53 131.475 108.066 131.792 108.555 132.14C110.365 133.426 112.485 134.028 114.601 134.669C113.728 136.088 112.362 137.751 111.797 139.149C111.12 139.155 109.639 139.211 109.05 139.081C108.876 138.07 109.07 137.556 108.298 136.978C106.829 136.776 106.073 138.68 104.873 139.333L104.671 139.303C103.59 136.189 101.848 135.519 99.0558 134.425C99.0478 133.526 99.0836 132.625 99.1104 131.725C101.225 134.955 103.592 134.038 105.999 131.807Z" fill="white"/>
<path d="M116.929 127.795C119.327 129.574 120.928 130.207 123.778 131.229C124.511 131.493 126.303 131.655 126.578 131.906C126.611 132.334 126.552 132.432 126.438 132.845C126.516 133.16 126.509 133.197 126.643 133.487L126.116 133.847C124.77 133.275 123.024 133.26 121.549 133.015C118.735 132.547 116.02 131.374 113.555 129.974C114.336 129.55 115.11 129.04 115.866 128.563C116.176 128.312 116.596 128.031 116.929 127.795Z" fill="white"/>
<path d="M126.644 133.487C128.08 133.966 132.151 133.022 133.636 132.501C133.784 132.45 134.76 131.619 134.958 131.451C135.543 131.642 135.901 132.037 136.184 132.564C135.837 134.35 129.108 135.101 127.454 135.458C126.938 134.641 126.821 134.493 126.117 133.847L126.644 133.487Z" fill="#FA4444"/>
<path d="M116.972 126.996C116.18 126.907 116.364 127.321 115.813 127.208C115.19 126.119 116.764 124.337 117.991 124.496C118.998 125.123 119.886 125.688 120.957 126.216C120.009 126.843 119.583 127.272 118.9 128.213C118.157 127.627 117.861 127.321 116.972 126.996Z" fill="white"/>
<path d="M109.82 127.577C110.484 127.304 110.612 127.364 111.332 127.483C111.895 127.87 113.634 128.781 113.8 129.034C113.623 129.391 113.758 129.259 113.355 129.416C112.3 129.309 110.651 128.255 109.82 127.577Z" fill="white"/>
<path d="M115.401 134.818C115.818 134.88 116.234 134.954 116.646 135.041C116.853 135.45 116.292 137.468 117.165 137.313C118.585 137.059 123.431 136.303 124.434 135.496L125.484 134.639L125.774 134.687C126.278 135.086 126.42 135.449 126.731 136.012C125.749 136.661 125.376 136.817 124.279 137.289C124.111 137.923 124.072 137.697 124.329 138.192C122.55 138.758 121.389 139.107 119.534 139.37C119.516 139.363 119.497 139.357 119.478 139.35C118.645 138.633 117.275 139.421 116.492 138.933C115.321 138.937 113.775 139.068 112.57 139.13C113.51 137.605 114.494 136.442 115.401 134.818Z" fill="#FA4444"/>
<path d="M116.492 138.933C119.148 138.627 121.747 138.177 124.278 137.289C124.111 137.923 124.072 137.697 124.328 138.193C122.55 138.758 121.389 139.108 119.534 139.371C119.515 139.364 119.496 139.358 119.478 139.35C118.645 138.634 117.275 139.422 116.492 138.933Z" fill="#0C0C0C"/>
<path d="M124.327 138.192C124.984 137.905 126.407 137.156 126.931 137.064L127.096 137.158C127.022 137.691 126.575 138.186 126.163 138.478C122.003 141.427 112.552 142.119 107.535 141.798L108.585 139.958C111.337 139.999 116.84 139.994 119.532 139.37C121.387 139.107 122.548 138.757 124.327 138.192Z" fill="white"/>
<path d="M122.48 141.195C122.574 141.162 122.714 141.104 122.796 141.205C123.851 142.506 125.125 143.638 126.905 143.594C127.965 143.568 128.719 143.24 129.654 142.812C129.135 144.116 128.876 144.876 127.892 145.923C127.211 146.457 126.678 146.584 125.873 146.829C123.219 146.333 121.188 144.23 120.625 141.625C121.246 141.492 121.864 141.348 122.48 141.195Z" fill="white"/>
<path d="M131.995 137.889C132.199 137.947 132.091 137.896 132.3 138.074C131.065 141.619 130.014 141.967 126.479 142.826C125.726 142.564 123.87 141.595 123.68 140.816L123.885 140.59C125.013 140.613 125.926 142.729 127.163 141.621C126.595 141.107 125.422 140.709 125.503 140.013L126.064 139.607C126.676 140.116 128.217 141.372 128.948 140.973C128.751 140.273 127.501 139.812 127.234 138.967L127.384 138.703C128.583 138.408 129.426 140.115 130.64 139.88C131.457 139.051 130.552 138.57 131.995 137.889Z" fill="white"/>
<path d="M136.382 133.775L136.542 133.814L136.656 134.046C136.34 136.49 129.973 137.507 127.956 137.809C127.905 137.217 127.697 136.747 127.775 136.298C127.913 136.195 130.66 135.804 131.048 135.734C133.151 135.36 134.567 134.87 136.382 133.775Z" fill="white"/>
<path d="M107.7 127.732C108.635 127.656 110.264 128.928 111.137 129.503C110.193 130.083 109.771 130.596 109.07 131.415C108.415 131.332 107.825 130.572 106.994 130.241C106.511 130.346 106.44 130.43 106.003 130.307C105.657 129.198 106.834 128.237 107.7 127.732Z" fill="white"/>
<path d="M119.944 133.625C121.816 133.895 123.129 134.139 125.042 134.3C123.471 135.15 122.86 135.352 121.108 135.748C120.032 135.859 117.996 136.428 117.514 136.295L117.41 136.069C117.931 134.296 118.242 135.463 119.808 133.774L119.944 133.625Z" fill="#F2F2F2"/>
<path d="M129.738 130.414C130.457 130.455 133.322 131.078 134.604 131.207C133.376 131.776 132.588 132.125 131.248 132.347C130.405 132.491 128.03 132.914 127.299 132.858L127.168 132.686C127.507 131.761 128.999 131.355 129.738 130.414Z" fill="#F2F2F2"/>
<path d="M116.763 132.584C117.364 132.826 118.634 133.173 119.299 133.376C118.707 133.764 118.34 133.932 117.71 134.228C116.968 134.209 115.754 134.019 114.98 133.921C115.666 133.341 116.008 133.072 116.763 132.584Z" fill="white"/>
<path d="M126.449 129.264C127.334 129.574 128.223 129.873 129.115 130.161C128.496 130.505 128.158 130.652 127.498 130.914C126.467 130.937 125.913 130.837 124.926 130.632C125.437 130.18 125.945 129.723 126.449 129.264Z" fill="white"/>
<path d="M111.624 130.129L112.228 130.227L112.371 130.434C112.143 130.904 111.184 131.749 110.72 132.239C110.526 132.299 110.286 132.272 110.073 132.271C109.87 131.983 109.92 132.145 109.932 131.783C110.456 130.931 110.789 130.676 111.624 130.129Z" fill="white"/>
<path d="M113.282 130.941C113.765 131.133 113.742 131.034 113.981 131.389C113.801 131.824 112.961 132.58 112.514 133.145L111.348 132.641L113.282 130.941Z" fill="white"/>
<path d="M121.618 126.836L122.183 127.042L122.269 127.262C121.994 127.717 121.037 128.403 120.545 129.024C120.196 128.861 120.033 128.84 119.844 128.516C120.006 127.714 120.878 127.331 121.618 126.836Z" fill="white"/>
<path d="M123.231 127.738C123.663 127.918 123.548 127.798 123.8 128.127C123.595 128.637 122.941 129.008 122.432 129.681L122.339 129.806C121.986 129.678 121.83 129.661 121.566 129.399V129.092C121.882 128.557 122.683 128.11 123.231 127.738Z" fill="white"/>
<path d="M114.917 131.879C115.291 131.953 115.377 131.924 115.655 132.163C115.499 132.599 114.818 132.998 114.332 133.594L114.234 133.717C113.836 133.651 113.853 133.666 113.507 133.466L113.461 133.221C113.747 132.695 114.419 132.265 114.917 131.879Z" fill="white"/>
<path d="M124.76 128.541C125.213 128.687 125.083 128.575 125.372 128.891C125.208 129.281 124.347 130.038 123.962 130.452C123.467 130.265 123.512 130.368 123.246 130.01C123.372 129.514 124.29 128.919 124.76 128.541Z" fill="white"/>
<path d="M97.6149 86.5728C99.6484 85.6146 102.971 81.9788 104.97 86.5102C105.025 86.6363 105.13 88.0812 105.212 88.0982C107.233 88.5178 107.969 89.8732 107.201 91.7886C106.761 92.8828 106.147 93.4133 105.154 94.1156C105.974 97.1646 106.594 99.6804 107.188 102.776C107.673 106.92 107.901 110.378 104.31 113.25C104.516 114.006 104.675 114.574 104.947 115.311C106.567 115.469 112.242 115.989 113.554 116.677L113.535 116.928C113.757 117.058 113.922 117.167 114.106 117.346L114.12 117.464L114.005 117.233L113.795 117.396C113.295 117.077 112.784 117.058 112.213 117.211C110.999 117.224 107.946 116.394 105.946 116.391C105.711 116.634 105.788 116.716 105.754 117.154L105.702 117.15L105.694 116.569L105.569 116.493L105.316 116.581L105.044 116.246C103.58 120.714 98.6679 120.069 95.2852 118.402C95.0025 118.626 94.7001 118.728 94.7493 119.116C94.4093 118.891 94.1597 118.624 93.7876 118.727C93.0334 118.934 92.0653 119.772 91.423 120.222C90.7234 120.69 89.9638 121.179 89.283 121.666C89.0844 121.236 89.0378 121.185 88.7703 120.816C90.4594 119.548 92.7122 118.405 94.2599 117.043C94.2796 115.079 93.8564 113.713 93.5129 111.795C92.7981 111.051 91.6386 109.335 91.0794 108.894L90.7314 108.968C88.9189 109.819 87.2969 107.932 86.7314 106.371C86.489 105.236 86.6303 104.717 87.2709 103.748C84.6648 100.654 81.3769 95.0935 86.3539 92.4614C85.7482 92.1367 85.3483 92.1259 85.3062 91.3574L85.5111 91.2313C85.9996 91.293 86.2277 91.59 86.6062 91.9291C87.703 85.8052 92.7829 86.1774 97.6149 86.5728Z" fill="white"/>
<path d="M97.6149 86.5728C99.6484 85.6146 102.971 81.9788 104.97 86.5102C105.025 86.6363 105.13 88.0812 105.212 88.0982C107.233 88.5178 107.969 89.8732 107.201 91.7886C106.761 92.8828 106.147 93.4133 105.154 94.1156C105.974 97.1646 106.594 99.6804 107.188 102.776C106.937 103.294 107.061 103.246 106.649 103.459L106.459 103.45L106.39 103.681C105.799 100.551 105.085 97.4446 104.249 94.3706C102.521 94.8475 102.461 94.7965 100.627 94.9208C98.2179 95.0845 93.5415 93.9018 91.8256 95.7537C91.1877 96.4426 91.9803 98.1693 91.8784 98.8832C91.7746 99.6151 91.2083 100.441 91.0123 101.206C91.1868 102.162 91.7361 104.013 91.287 104.746C90.081 105 88.8419 102.513 87.559 105.28L87.4525 106.139C87.2476 105.766 87.2145 105.556 87.1108 105.151C86.6536 105.794 87.3049 105.368 86.7314 106.371C86.489 105.236 86.6303 104.717 87.2709 103.748C84.6648 100.654 81.3769 95.0935 86.3539 92.4614C85.7482 92.1367 85.3483 92.1259 85.3062 91.3574L85.5111 91.2313C85.9996 91.293 86.2277 91.59 86.6062 91.9291C87.703 85.8052 92.7829 86.1774 97.6149 86.5728Z" fill="#0C0C0C"/>
<path d="M106.39 103.683L106.46 103.452L106.649 103.461C107.061 103.247 106.937 103.295 107.188 102.777C107.674 106.921 107.901 110.379 104.31 113.252C104.516 114.007 104.676 114.575 104.948 115.312C106.567 115.471 112.243 115.99 113.554 116.678L113.535 116.93C113.757 117.06 113.922 117.169 114.106 117.348L114.12 117.466L114.005 117.234L113.795 117.398C113.296 117.078 112.784 117.06 112.213 117.213C110.999 117.225 107.947 116.396 105.946 116.392C105.712 116.636 105.789 116.718 105.755 117.155L105.702 117.152L105.694 116.57L105.569 116.494L105.316 116.583L105.044 116.247L104.533 116.13C103.719 115.445 103.671 114.7 103.388 113.638C102.968 113.808 102.51 113.891 102.087 114.028C100.945 114.397 96.7777 114.001 96.5039 112.552C97.1722 112.274 98.4319 112.942 99.1243 113.047C105.958 114.079 106.808 108.593 106.39 103.683Z" fill="#0C0C0C"/>
<path d="M90.2827 108.307L90.518 108.211C91.1335 107.956 91.3286 107.63 91.775 107.729C91.7499 107.675 92.0577 108.423 91.9298 108.219C93.0883 110.071 94.5932 111.216 94.8821 113.578C95.0888 115.265 95.5612 116.301 94.7238 117.935C94.6987 117.983 95.2149 118.355 95.2883 118.403C95.0056 118.628 94.7032 118.73 94.7524 119.117C94.4124 118.893 94.1628 118.625 93.7907 118.728C93.0365 118.936 92.0684 119.773 91.4261 120.224C90.7265 120.692 89.9669 121.18 89.2861 121.667C89.0875 121.238 89.0409 121.187 88.7734 120.817C90.4625 119.549 92.7153 118.407 94.263 117.044C94.2827 115.081 93.8595 113.714 93.516 111.796C92.8012 111.053 91.6417 109.336 91.0825 108.896L90.7345 108.969L90.4259 108.899L90.2827 108.307Z" fill="#0C0C0C"/>
<path d="M86.7344 106.372C87.3078 105.369 86.6565 105.796 87.1137 105.152C87.2175 105.558 87.2506 105.767 87.4555 106.14L87.5619 105.281C87.8384 107.136 88.3304 107.991 90.2826 108.307L90.4257 108.899L90.7344 108.969C88.9218 109.821 87.2998 107.933 86.7344 106.372Z" fill="#0C0C0C"/>
<path d="M100 100.289L100.417 100.319C101.102 100.663 102.942 104.037 102.573 104.995C102.348 105.578 101.91 105.71 101.416 105.927C101.059 105.863 101.018 105.804 100.699 105.617L100.674 105.392C101.011 105.135 101.302 104.944 101.658 104.713C101.709 104.61 101.761 104.508 101.812 104.406C101.135 102.791 100.505 102.001 100 100.289Z" fill="#0C0C0C"/>
<path d="M98.5651 107.695C99.4562 107.86 99.9795 108.229 101.071 108.246C102.009 108.263 102.25 107.793 102.935 107.916C103.163 108.288 103.095 108.077 103.031 108.599C101.919 109.17 98.1088 109.55 98.5651 107.695Z" fill="#0C0C0C"/>
<path d="M96.0696 98.5126C96.5295 98.501 96.8354 98.484 97.162 98.8106C96.9204 99.3277 95.2787 99.7249 94.5657 100.261C94.4056 100.409 94.3528 100.416 94.1569 100.523L93.9108 100.432L93.8008 100.165C94.0602 99.0951 95.1463 98.7954 96.0696 98.5126Z" fill="#0C0C0C"/>
<path d="M102.408 97.0406C103.211 96.9726 103.848 96.8894 104.354 97.6346L104.258 97.8815C103.723 98.0873 103.81 97.9996 103.151 97.8905C102.783 97.9469 101.379 98.4192 101.141 97.8645L101.262 97.5818C101.775 97.2544 101.832 97.2302 102.408 97.0406Z" fill="#0C0C0C"/>
<path d="M88.6952 104.885C89.7804 104.983 91.3318 105.796 90.302 107.008C90.064 106.727 89.7867 106.379 89.4933 106.152C89.0835 105.838 88.5807 105.873 88.4062 105.378L88.6952 104.885Z" fill="#0C0C0C"/>
<path d="M103.088 99.5547C104.219 99.8356 104.237 100.727 103.633 101.528C103.013 101.297 102.786 101.224 102.637 100.523C102.725 99.9591 102.715 99.9886 103.088 99.5547Z" fill="#0C0C0C"/>
<path d="M96.2213 101.092C97.2824 101.555 97.4193 102.244 96.6892 103.109C95.6344 102.617 95.6094 101.938 96.2213 101.092Z" fill="#0C0C0C"/>
<path d="M128.619 175.434C129.489 175.218 130.503 175.4 131.302 175.787C132.362 176.287 133.157 177.216 133.489 178.342C133.818 179.443 133.674 180.631 133.092 181.623C131.947 183.545 129.257 183.804 127.223 184.256L121.078 185.623L97.0367 191.028C93.3865 191.322 90.8117 188.264 92.5616 184.779C93.5028 182.906 97.3927 182.382 99.4236 181.922L107.297 180.167C114.197 178.634 121.729 176.756 128.619 175.434Z" fill="#0C0C0C"/>
<path d="M128.982 176.092C129.677 176.017 130.383 176.12 131.012 176.434C131.833 176.837 132.453 177.559 132.727 178.431C133.021 179.338 132.934 180.325 132.487 181.167C132.171 181.75 131.6 182.31 130.974 182.502C127.827 183.465 124.168 184.165 120.958 184.872C115.768 186.012 110.586 187.181 105.409 188.381C102.703 188.994 99.5636 189.597 96.919 190.312C95.9322 190.353 95.2326 190.345 94.3567 189.841C92.0763 188.527 92.1943 184.807 94.7835 183.883C96.325 183.333 97.9139 183.024 99.509 182.667L106.37 181.135L128.982 176.092Z" fill="white"/>
<path d="M110.662 183.207L110.774 183.208C111.159 183.461 111.022 183.296 111.198 183.723L111.086 183.988C110.762 184.244 110.343 184.442 109.937 184.514C105.305 185.34 100.735 186.601 96.1323 187.522C95.6698 187.279 95.5722 187.139 95.6903 186.673C96.2406 186.169 108.957 183.517 110.662 183.207Z" fill="#D9DBD5"/>
<path d="M122.117 74.5195C125.327 73.6717 125.39 78.3578 125.999 80.204C128.864 88.8875 125.453 88.008 117.456 89.5549C116.438 90.5426 115.164 92.6316 113.953 92.7541C113.757 92.0366 113.687 91.1733 113.598 90.4245C112.976 90.4227 112.201 90.4576 111.652 90.1167C110.423 89.3536 109.53 83.9946 109.191 82.531C108.881 81.1872 108.22 78.9774 109.132 77.7536C109.852 76.7871 120.298 74.7823 122.117 74.5195Z" fill="#0C0C0C"/>
<path d="M122.11 75.1778C123.907 74.9766 124.446 76.212 124.708 77.7882C125.067 79.9557 126.759 84.4906 126.081 86.458C125.174 87.5092 118.729 88.6204 117.009 88.9523C116.381 89.5374 115.097 91.2855 114.481 91.5351L114.355 91.2175C114.329 90.9259 114.332 90.5421 114.24 90.2656C113.925 89.3137 112.889 89.957 112.215 89.5696C111.039 88.8932 109.747 82.1386 109.45 80.5944C109.326 79.9539 109.211 78.9626 109.635 78.4098C110.573 77.1858 120.018 75.5848 122.11 75.1778Z" fill="white"/>
<path d="M121.753 78.1348L121.931 78.2659L121.938 78.5562C121.336 79.0806 113.828 80.4888 112.497 80.7375L112.321 80.6641L112.234 80.4351C112.702 79.8831 120.456 78.3981 121.753 78.1348Z" fill="#0C0C0C"/>
<path d="M122.223 81.0793C122.533 81.0462 122.385 81.0194 122.662 81.2269L122.583 81.1232L122.682 81.1411L122.666 81.3656C121.975 81.9096 114.893 83.2614 113.464 83.5629C113.092 83.6174 113.27 83.6309 112.93 83.4672L112.949 83.2283C113.482 82.7076 120.867 81.3593 122.223 81.0793Z" fill="#0C0C0C"/>
<path d="M118.045 84.9574C118.572 84.9073 118.568 84.8903 118.921 85.2187C118.674 85.5667 115.108 86.2377 114.43 86.3871L113.945 86.4971L113.765 86.2708C113.641 86.2923 113.524 86.3486 113.402 86.396L113.621 86.4229L113.565 86.1429C114.361 85.7197 116.996 85.19 118.045 84.9574Z" fill="#0C0C0C"/>
<path d="M126.746 91.9609C129.685 92.232 130.389 97.5149 129.58 99.3561C129.07 100.517 123.308 101.41 121.723 101.742C121.009 102.551 119.438 104.684 118.407 104.565C118.276 104.041 118.212 103.027 118.16 102.453C114.882 102.278 115.621 99.952 114.813 97.3727C114.403 95.799 114.962 94.5259 116.582 94.151C119.869 93.3906 123.437 92.4494 126.746 91.9609Z" fill="#0C0C0C"/>
<path d="M126.506 92.6094C127.762 92.6192 128.075 92.9395 128.475 94.0936C131.136 101.75 126.157 99.2039 121.302 101.237C120.565 101.545 119.579 103.294 119.009 103.414L118.881 103.026C118.847 102.705 118.806 102.404 118.761 102.085C118.241 101.544 117.747 101.966 117.146 101.67C116.64 101.422 116.345 100.96 116.179 100.436C115.823 99.313 115.05 96.5798 115.642 95.568C116.315 94.4139 124.66 93.0048 126.506 92.6094Z" fill="white"/>
<path d="M125.121 95.8937C125.345 95.7533 125.63 95.7542 125.853 95.8964C126.076 96.0378 126.197 96.2954 126.164 96.5585C126.132 96.8206 125.95 97.0407 125.7 97.123C125.372 97.2321 125.014 97.0783 124.866 96.7651C124.718 96.452 124.829 96.078 125.121 95.8937Z" fill="#1C1C1C"/>
<path d="M122.126 96.5363C122.465 96.4138 122.84 96.5802 122.976 96.9148C123.112 97.2485 122.96 97.6305 122.63 97.779C122.407 97.8801 122.146 97.8506 121.95 97.7021C121.754 97.5535 121.654 97.3102 121.691 97.0669C121.728 96.8235 121.894 96.6204 122.126 96.5363Z" fill="#1C1C1C"/>
<path d="M118.977 97.2422C119.285 97.0731 119.673 97.1733 119.859 97.4712C120.046 97.7682 119.97 98.1601 119.684 98.3649C119.484 98.509 119.22 98.5296 118.999 98.4186C118.779 98.3077 118.637 98.084 118.633 97.8371C118.628 97.5902 118.761 97.3611 118.977 97.2422Z" fill="#1C1C1C"/>
<path d="M78.0926 70.0843C78.2984 70.0496 78.539 70.0096 78.7466 69.9997C79.1769 69.9799 79.5965 70.1383 79.9069 70.4378C80.9447 71.4295 81.3706 74.4904 81.4592 75.9356C81.5164 76.863 81.2731 77.1145 80.6683 77.7516C77.2641 78.3412 73.8188 79.2357 70.4084 79.8279C69.7052 79.9505 69.0655 80.0426 68.3665 80.2099C67.9102 80.2779 67.4245 80.3253 66.9925 80.124C66.3204 79.8109 65.9621 79.0406 65.7613 78.3678C65.587 77.7834 64.9216 74.6667 64.918 74.1749C64.9154 73.8217 64.9988 73.4763 65.1975 73.1803C65.8813 72.1609 76.2067 70.4968 78.0926 70.0843Z" fill="#C8FA44"/>
<path d="M77.7921 72.3906C77.8842 72.3867 77.8136 72.3772 78.0578 72.4983L78.1294 72.7946C77.818 73.1794 77.2821 73.1865 76.7346 73.2841L76.6094 73.469C76.7301 73.9496 76.5995 73.7816 76.9341 74.0424C77.2589 73.9735 77.5389 73.9226 77.8681 73.8706C78.2573 74.0984 78.1625 73.9401 78.2689 74.2879C77.9495 74.5985 77.3045 74.5176 76.9243 74.9896C76.9967 75.3795 76.927 75.191 77.2777 75.5182C77.767 75.426 78.2385 75.3716 78.7324 75.3095C78.7664 75.7767 78.8299 75.5811 78.5946 75.9316C77.9782 76.2892 77.2168 76.3415 76.4939 76.4574C76.1271 75.2523 75.8793 74.0273 75.6172 72.7966C76.3401 72.6515 77.0656 72.5162 77.7921 72.3906Z" fill="#0C0C0C"/>
<path d="M74.1804 76.0704C74.2064 75.3022 74.2144 73.8228 74.3692 73.1368C74.7181 72.8902 74.5302 72.9369 74.9516 72.9878C75.348 73.5739 74.8183 76.2308 74.3952 76.797C74.0525 76.8924 74.0051 76.8683 73.7179 76.5975C73.2992 75.8278 72.375 74.4856 71.8633 73.6482C72.4063 73.3929 72.1585 73.3847 72.6309 73.5544C73.2482 74.1988 73.6955 75.2542 74.1804 76.0704Z" fill="#0C0C0C"/>
<path d="M70.5286 76.9488L70.2691 76.8032L70.2539 76.8146C70.635 76.728 70.7648 76.7211 70.7299 76.6026C70.5509 75.9985 70.3237 74.387 70.4606 73.7327C70.7853 73.3861 70.5912 73.4946 71.0734 73.4121L71.1289 73.6654L71.3185 73.7953C71.5467 74.7254 71.8849 76.3272 72.1703 77.1857C71.782 77.4122 71.8115 77.4194 71.3677 77.4409L71.0197 77.534L70.8998 77.3986L70.5286 76.9488Z" fill="#0C0C0C"/>
<path d="M70.5286 76.9488L70.2691 76.8032L70.2539 76.8146C70.635 76.728 70.7648 76.7211 70.7299 76.6026C70.5509 75.9985 70.3237 74.387 70.4606 73.7327C70.7853 73.3861 70.5912 73.4946 71.0734 73.4121L71.1289 73.6654L70.7746 73.7537C70.4973 74.3191 71.2157 76.6372 71.3677 77.4409L71.0197 77.534L70.8998 77.3986L70.5286 76.9488Z" fill="#D9FE91"/>
<path d="M68.4805 78.0504C68.1779 76.7358 67.756 75.7211 67.939 74.3454L68.1453 74.25C68.7115 75.0114 68.8909 76.2426 69.0729 77.1676L70.5294 76.9477L70.9007 77.3976C70.2422 77.7943 69.259 77.9036 68.4805 78.0504Z" fill="#0C0C0C"/>
<path d="M133.257 112.679C133.713 112.651 134.061 112.824 134.339 113.131C134.626 113.447 134.839 113.906 134.998 114.436C135.317 115.497 135.397 116.759 135.477 117.518C135.509 117.834 135.452 118.058 135.34 118.257C135.229 118.453 135.061 118.631 134.842 118.854C133.359 119.088 130.739 119.638 129.36 120.137L129.306 120.156L129.271 120.203C128.558 121.163 128.101 121.92 127.365 122.827C127.09 122.076 126.871 121.444 126.651 120.641L126.601 120.457L126.417 120.506C125.801 120.669 125.182 120.822 124.562 120.967L124.55 120.97L124.538 120.975C124.23 121.092 123.803 121.217 123.38 121.275C122.949 121.335 122.555 121.321 122.288 121.196C121.798 120.967 121.495 120.536 121.289 120.018L121.207 119.79C121.021 119.232 120.806 118.404 120.716 117.587C120.625 116.758 120.667 115.986 120.95 115.503C120.949 115.504 120.974 115.475 121.072 115.421C121.162 115.372 121.289 115.316 121.451 115.256C121.774 115.136 122.218 115.002 122.75 114.86C123.812 114.577 125.206 114.266 126.638 113.969C129.491 113.375 132.45 112.841 133.257 112.679Z" fill="#B5FE28" stroke="#1C1C1C" stroke-width="0.383672"/>
<path d="M125.312 116.711C125.957 115.382 126.951 115.36 127.922 116.423L128.185 117.349C127.84 119.388 125.993 119.373 125.315 117.591L125.312 116.711Z" fill="#0C0C0C"/>
<path d="M126.271 116.262C127.626 116.463 127.703 117.253 127.204 118.343C127.029 118.329 126.822 118.311 126.654 118.258C126.366 118.167 126.135 117.949 126.029 117.666C125.836 117.15 126.046 116.707 126.271 116.262Z" fill="#C8FA44"/>
<path d="M131.831 114.613C131.949 114.62 132.26 114.632 132.382 114.67C132.794 114.796 133.135 115.087 133.325 115.473C133.823 116.479 133.252 117.296 132.309 117.701C132.095 117.726 131.844 117.737 131.626 117.752C130.823 117.158 130.723 115.962 130.834 115.063C131.165 114.654 131.178 114.771 131.831 114.613Z" fill="#0C0C0C"/>
<path d="M132.049 115.357C132.106 115.36 132.258 115.367 132.318 115.385C132.519 115.447 132.686 115.589 132.779 115.778C133.023 116.27 132.743 116.669 132.282 116.867C132.178 116.879 132.055 116.885 131.948 116.892C131.556 116.602 131.507 116.017 131.561 115.577C131.723 115.378 131.729 115.434 132.049 115.357Z" fill="#C8FA44"/>
<path d="M124.927 117.912C125.133 118.536 125.1 118.549 124.899 119.063C124.351 119.551 123.585 119.606 123.009 119.136L122.994 118.898C123.463 118.557 123.768 119.065 124.386 118.718L124.382 118.397C123.879 117.919 121.717 118.088 123.022 116.488C123.817 116.069 124.266 116.212 124.714 116.924L124.911 116.993L125.121 116.473C125.296 116.647 125.244 116.56 125.313 116.71L125.316 117.591L124.927 117.912Z" fill="#0C0C0C"/>
<path d="M124.714 116.924L124.912 116.992L125.121 116.473C125.296 116.646 125.244 116.559 125.313 116.71L125.316 117.59L124.927 117.911C124.493 117.612 123.698 117.517 123.477 117.11L123.808 116.931C124.113 116.948 124.41 116.942 124.714 116.924Z" fill="#C8FA44"/>
<path d="M128.237 115.431C128.757 115.282 128.542 115.236 128.924 115.441C129.371 116.331 129.08 116.96 129.514 117.584C129.882 117.659 130.116 117.549 130.479 117.444L130.731 117.536L130.822 117.8C130.547 118.2 129.614 118.341 129.141 118.31C128.882 118.098 128.893 118.119 128.808 117.794C128.512 117.886 128.622 117.867 128.31 117.853L128.185 117.348L127.922 116.421C128.027 115.979 128.069 115.856 128.237 115.431Z" fill="#0C0C0C"/>
<path d="M128.237 115.432C128.467 116.268 128.655 116.94 128.808 117.795C128.512 117.887 128.622 117.868 128.31 117.854L128.185 117.349L127.922 116.422C128.027 115.98 128.069 115.857 128.237 115.432Z" fill="#C8FA44"/>
<path d="M144.319 161.41C148.055 161.306 147.593 165.051 145.981 167.228C145.364 168.061 144.752 168.938 144.132 169.776C143.387 169.494 142.391 168.97 141.654 168.608C140.37 167.94 139.121 167.121 138.58 165.692C138.136 164.517 138.394 162.91 139.834 162.616C140.956 162.388 141.483 162.556 142.445 163.125C143.09 162.135 143.272 161.952 144.319 161.41Z" fill="#0C0C0C"/>
<path d="M144.293 162.217C148.808 162.235 144.94 167.301 143.819 168.861L141.797 167.77C140.773 167.176 139.856 166.69 139.389 165.514C139.048 164.657 139.21 163.441 140.331 163.298C141.316 163.171 141.976 163.708 142.715 164.265C143.216 163.291 143.38 162.856 144.293 162.217Z" fill="#C8FA44"/>
<path d="M89.7208 162.442C91.732 161.968 93.7512 163.19 94.2675 165.19C94.7828 167.19 93.6045 169.236 91.6157 169.794C90.2916 170.165 88.8691 169.791 87.8984 168.816C86.9286 167.841 86.5609 166.417 86.9394 165.094C87.3178 163.771 88.3815 162.757 89.7208 162.442Z" fill="#0C0C0C"/>
<path d="M93.1467 167.873C92.3979 168.951 91.0487 169.436 89.7846 169.081C88.5214 168.726 87.6222 167.609 87.5444 166.299C87.4675 164.988 88.2297 163.773 89.4437 163.272C90.6569 162.771 92.0543 163.095 92.9239 164.078C93.8633 165.141 93.9555 166.708 93.1467 167.873Z" fill="#C8FA44"/>
<path d="M92.6465 172.109C94.7096 171.938 96.5266 173.456 96.7252 175.517C96.9238 177.577 95.4289 179.415 93.3712 179.64C92.0158 179.789 90.6854 179.196 89.8892 178.09C89.092 176.984 88.9525 175.534 89.5233 174.295C90.0941 173.057 91.2875 172.222 92.6465 172.109Z" fill="#0C0C0C"/>
<path d="M137.444 153.521C141.772 153.261 139.152 158.457 137.874 160.28C137.365 160.152 136.451 159.777 135.929 159.581C131.372 157.599 132.456 153.689 135.951 154.973C136.473 154.175 136.622 154.015 137.444 153.521Z" fill="#0C0C0C"/>
<path d="M137.546 154.303C137.862 154.293 138.157 154.27 138.449 154.405C138.756 154.544 138.988 154.808 139.087 155.13C139.458 156.355 138.144 158.406 137.518 159.416L135.773 158.676C132.588 157.072 133.603 154.256 136.342 156.026C136.738 155.184 136.845 154.92 137.546 154.303Z" fill="#C8FA44"/>
<path d="M134.198 186.568C134.386 186.641 134.522 186.754 134.696 186.872C134.812 187.275 134.832 187.087 134.637 187.454C134.284 187.694 133.751 187.928 133.328 188.007C126.475 189.28 119.491 191.407 112.653 192.589C112.573 192.576 112.367 192.487 112.281 192.453C112.038 192.026 112.066 192.24 112.131 191.801C112.317 191.578 112.463 191.493 112.744 191.425C119.854 189.683 127.091 188.317 134.198 186.568Z" fill="#0C0C0C"/>
<path d="M147.636 172.578C151.692 173.056 148.944 176.694 147.521 178.378L146.002 177.604C144.838 176.911 143.455 175.935 143.587 174.428C143.729 172.801 145.981 173.501 146.444 173.426C146.938 172.99 147.06 172.891 147.636 172.578Z" fill="#0C0C0C"/>
<path d="M147.586 173.357C150.743 173.05 148.036 176.582 147.313 177.481L145.844 176.743C144.893 176.12 144.477 175.813 144.199 174.7C144.435 173.69 145.865 174.133 146.581 174.37C146.763 174.292 147.347 173.579 147.586 173.357Z" fill="white"/>
<path d="M117.556 157.975L117.911 157.999C118.237 158.349 118.16 158.148 118.168 158.613C117.81 159.085 111.307 160.317 110.161 160.566L96.8302 163.546L96.4303 163.519C96.127 163.173 96.1986 163.369 96.2129 162.907C96.5842 162.515 99.617 161.95 100.372 161.779C106.09 160.466 111.818 159.198 117.556 157.975Z" fill="#0C0C0C"/>
<path d="M119.556 167.751C120.182 167.773 119.938 167.658 120.352 168.018L120.341 168.31C119.865 168.853 114.585 169.844 113.555 170.072L99.2425 173.195C98.8802 173.296 98.7898 173.212 98.5331 173.036C98.4696 172.602 98.4463 172.823 98.7219 172.374C99.7597 172.024 103.901 171.22 105.22 170.93L119.556 167.751Z" fill="#0C0C0C"/>
<path d="M141.028 145.877C144.555 145.392 143.17 149.769 141.205 150.675C141.011 150.764 140.625 150.53 140.415 150.441C139.217 149.772 136.615 147.923 138.473 146.592C139.832 145.619 139.52 147.353 141.028 145.877Z" fill="#0C0C0C"/>
<path d="M141.541 146.521C143.714 146.92 141.709 149.139 141.052 149.965L139.765 149.21C139.083 148.668 138.446 148.205 138.771 147.276C139.446 146.98 139.834 147.234 140.563 147.494C140.931 147.066 141.113 146.891 141.541 146.521Z" fill="#C8FA44"/>
<path d="M140.483 174.319L140.871 174.299L141.092 174.51C141.29 175.432 139.874 179.485 139.392 180.269L139.106 180.296C138.673 179.814 138.341 178.911 138.067 178.288C137.62 176.979 135.857 177.176 135.352 176.059C135.707 175.399 139.579 174.563 140.483 174.319Z" fill="#0C0C0C"/>
<path d="M139.533 175.295L139.547 175.485C139.123 175.946 138.664 176.514 138.074 176.761C137.609 176.956 137.491 176.756 136.975 176.486C136.927 176.464 136.676 176.276 136.625 176.24C136.997 175.929 138.957 175.459 139.533 175.295Z" fill="white"/>
<path d="M140.088 175.92C140.081 176.341 139.441 178.541 139.206 178.918L139.055 178.869C138.923 178.437 138.672 177.887 138.492 177.461L140.088 175.92Z" fill="white"/>
<path d="M81.2147 135.393C81.2541 136.197 81.2228 136.41 81.5475 137.151C81.6737 137.432 81.7918 137.716 81.9027 138.002C81.8615 140.132 81.7291 142.208 81.8383 144.336C82.9253 144.34 84.0239 144.353 85.1091 144.344C85.934 144.442 89.4017 144.417 89.654 144.514C89.5672 144.733 89.5654 144.746 89.4464 144.955C87.3896 145.185 85.3212 145.299 83.2509 145.299C83.2232 145.713 83.2456 146.04 83.1006 146.412C83.0666 146.166 83.0371 145.971 83.0183 145.723L82.877 145.625L82.9879 145.559L82.8734 145.581C82.7705 145.983 82.6954 146.513 82.5585 146.877C82.461 146.185 82.5334 145.87 82.1469 145.372C81.8866 145.316 81.5064 145.251 81.3552 145.033C80.414 143.682 81.0233 136.862 81.2147 135.393Z" fill="#0C0C0C"/>
<path d="M86.4799 72.75C86.9603 72.7886 87.7995 73.1152 88.0876 73.5187C88.0786 74.5425 86.6525 74.5792 85.8509 74.7121C85.2506 74.861 84.9804 75.0073 84.4732 74.6259C84.2424 73.328 85.4931 72.9542 86.4799 72.75Z" fill="#0C0C0C"/>
<path d="M119.639 65.2405C120.017 64.5997 120.318 63.9406 120.906 63.5184L121.177 63.4883C121.394 64.1804 120.592 65.0082 120.192 65.5815C120.881 65.9754 121.526 66.2523 121.983 66.8804L122.011 67.1458C121.335 67.3399 120.462 66.5708 119.901 66.1832L119.926 66.1144L119.333 65.7838C118.666 65.3567 117.826 64.9333 117.504 64.2257L117.631 64.0924C118.452 64.2248 118.959 64.7285 119.639 65.2405Z" fill="#0C0C0C"/>
<path d="M96.7543 68.4727L97.0799 68.6473C97.1292 69.2025 96.7248 69.7282 96.4233 70.2696C96.8733 70.6461 97.8252 71.3525 97.98 71.8348L97.7205 72.0028C97.0746 71.8646 96.731 71.1096 95.9777 70.8922C95.7925 71.1548 95.908 71.3318 95.967 71.763C96.0198 71.8716 96.0278 72.0348 96.0475 72.1673L95.831 72.3796C94.999 72.2105 94.8961 69.7173 94.9551 68.9971L95.1681 68.9515C95.5009 69.4955 95.5179 69.8547 95.6297 70.4763C96.0386 69.6138 96.1987 69.2535 96.7543 68.4727Z" fill="#0C0C0C"/>
<path d="M89.9674 69.8675C90.5534 69.8346 90.7726 69.8903 91.2056 70.2464C91.6609 71.2571 91.1045 71.5058 90.8781 72.652C91.516 72.6731 91.6609 72.4635 92.0895 72.7078L92.0161 72.9844C91.5688 73.2726 90.6688 73.4028 90.1123 73.5193C89.792 73.4649 89.9343 73.5297 89.7061 73.2636C89.8484 72.2903 91.4051 71.3287 90.624 70.5738C89.8654 70.4685 90.056 70.9578 89.2356 71.0928C89.1461 70.4385 89.5362 70.2534 89.9674 69.8675Z" fill="#0C0C0C"/>
<path d="M92.9477 69.2227C93.5158 69.3251 93.6679 69.3423 94.0115 69.7227C93.8397 71.5419 94.7514 71.124 94.6726 72.1883C94.228 72.9447 92.7769 73.2404 92.5013 72.2729L92.7062 72.139L93.3396 72.2791L93.7046 72.1911C94.0678 71.8603 93.965 72.0566 94.0508 71.5968C93.5078 71.0579 93.1938 71.4707 92.7804 71.0097C93.1786 70.7416 93.2358 70.7313 93.5454 70.3499L93.5105 70.0532C93.0667 69.9402 92.5451 70.1868 92.0101 70.3222L91.9609 70.1415C92.1792 69.6272 92.4467 69.5397 92.9477 69.2227Z" fill="#0C0C0C"/>
<path d="M85.1382 70.6638C85.6132 70.3859 86.2243 70.5459 86.5016 71.0211C86.7799 71.4962 86.6197 72.1067 86.1447 72.3847C85.6696 72.6627 85.0595 72.5029 84.7812 72.0275C84.503 71.5523 84.6631 70.9417 85.1382 70.6638Z" fill="#0C0C0C"/>
<path d="M119.333 65.7832L119.926 66.1139L119.901 66.1827L119.434 66.9254C119.161 67.3644 118.89 67.9314 118.315 67.9357C118.189 67.2088 118.923 66.3617 119.333 65.7832Z" fill="#0C0C0C"/>
<path d="M75.8357 172.842C75.5736 172.942 73.15 172.979 72.7993 172.95C70.8973 172.837 69.1876 171.792 67.5433 170.984C61.8261 168.175 58.7277 163.733 61.1786 157.328C63.682 150.418 70.9044 154.186 75.6461 155.928C77.9194 156.764 80.0147 158.254 80.9102 160.584C82.2074 163.956 80.9335 168.802 77.2385 170.017C74.7532 171.062 71.706 170.04 69.2243 169.446C68.2681 169.218 68.1267 168.967 67.2575 169.455C67.7256 170.306 68.4346 170.466 69.3996 170.742C70.6781 171.102 71.9834 171.362 73.3021 171.523C73.7825 171.578 75.3562 171.617 75.6058 171.883L75.8357 172.842Z" fill="white"/>
<path d="M71.588 157.177C73.6609 156.972 76.6231 157.84 78.3721 158.992C75.4403 161.965 75.2793 163.533 74.7219 167.546C74.6987 167.715 74.263 168.005 74.1091 168.126C71.3142 167.371 67.907 165.443 67.3471 162.34C66.8079 159.35 68.7714 157.579 71.588 157.177Z" fill="#0C0C0C"/>
<path d="M71.1144 158.224C73.1077 158.025 74.7887 158.525 76.6738 159.107C74.4693 161.336 73.9898 163.985 73.7196 166.966C71.8373 166.291 68.9238 164.632 68.4014 162.631C67.8061 160.354 69.0737 158.843 71.1144 158.224Z" fill="#F2F2F2"/>
<path d="M59.3398 61.3242C57.5812 63.2946 57.3073 63.8415 56.4965 66.3633C56.0978 69.3078 56.2217 71.2208 56.9405 74.1356C57.7682 77.4918 58.6027 80.8565 59.4235 84.2142L65.5136 108.931L70.4031 128.756C70.9695 131.056 71.9813 135.981 72.6899 138.008L72.502 138.263C71.398 135.551 69.6248 134.206 67.2145 132.744C65.8087 127.532 64.505 121.671 63.2197 116.386L57.2829 92.1444L54.4293 80.5318C52.9675 74.3676 51.0926 68.7787 56.0833 63.7231C57.1929 62.8014 58.1125 62.0959 59.3398 61.3242Z" fill="#F2F2F2"/>
<path d="M59.3424 61.3242C57.5838 63.2946 57.3099 63.8415 56.4991 66.3633C56.4102 66.3606 56.4818 66.3693 56.2084 66.2911C56.3782 65.3155 56.7439 65.4785 56.8145 64.3695C56.6235 63.9223 56.6108 64.0322 56.0859 63.7231C57.1955 62.8014 58.1151 62.0959 59.3424 61.3242Z" fill="white"/>
<path d="M59.0882 92.7754C59.8865 92.8398 60.0991 93.0268 60.3377 93.8132C60.6989 95.2053 61.2325 96.7575 61.5017 98.1549C61.8046 99.7277 62.9291 102.235 62.2085 103.681C61.5981 103.674 61.8057 103.792 61.4488 103.499C61.4538 101.126 58.9417 93.6709 59.0882 92.7754Z" fill="#0C0C0C"/>
<path d="M62.3398 106.778C62.7882 106.752 62.763 106.749 63.1942 106.875C64.0655 107.677 66.0286 116.095 65.6495 117.226L65.0591 117.309C64.6728 117.04 64.6303 115.94 64.504 115.395C63.914 112.854 63.4592 110.252 62.6169 107.779C62.4774 107.369 62.4084 107.213 62.3398 106.778Z" fill="#0C0C0C"/>
<path d="M56.334 81.6367L56.8603 81.736C57.5456 82.3641 58.7067 87.0646 58.2815 87.9565C57.813 87.9342 57.5217 87.7615 57.3998 87.2873C57.1311 86.2424 55.9497 82.5206 56.334 81.6367Z" fill="#0C0C0C"/>
<path d="M74.3416 174.107C78.6288 174.078 83.5977 173.84 84.4172 179.224C84.6954 181.126 84.2061 183.06 83.0565 184.601C81.3235 186.896 78.3685 187.652 75.6022 187.857C74.7192 187.922 73.8782 187.647 72.8485 187.801C72.4575 188.126 72.5783 187.926 72.4718 188.423C73.2278 189.685 78.4159 188.716 79.6988 188.323C79.9735 189.55 80.2562 190.775 80.5461 191.998C80.8332 193.221 81.09 194.337 81.3128 195.578C75.5476 192.834 66.831 189.669 66.2333 182.271C66.0798 180.371 66.5944 177.521 67.8869 176.073C69.4685 174.301 72.1444 174.198 74.3416 174.107Z" fill="white"/>
<path d="M78.0793 175.446C79.0742 175.382 80.3991 175.177 81.1605 175.917C81.1113 176.537 79.9473 178.482 79.8498 179.135C79.704 180.407 79.8928 181.74 79.8785 183.017C79.8623 184.483 77.4038 183.788 76.5253 183.626C74.685 183.064 72.9547 182.284 72.6354 180.145C72.4877 179.095 72.7776 178.032 73.4361 177.202C74.592 175.758 76.3893 175.592 78.0793 175.446Z" fill="#0C0C0C"/>
<path d="M77.314 176.52C78.0924 176.437 79.0864 176.427 79.8889 176.398C78.5335 178.613 78.6283 180.574 78.9083 183.041L77.1807 182.738C74.9343 182.173 72.5831 180.836 74.1819 177.916C74.7178 176.937 76.2539 176.67 77.314 176.52Z" fill="#F2F2F2"/>
<path d="M64.9645 131.795C65.4812 131.756 65.4909 131.729 65.777 132.091C65.7964 132.271 65.8877 133.104 65.9566 133.17C67.3807 134.529 69.076 135.257 70.3007 136.906C72.8093 140.287 73.2423 146.774 69.4982 149.459C68.1794 150.392 66.5358 150.744 64.951 150.431C61.6886 149.713 58.2212 146.597 57.3628 143.311C56.5319 140.13 57.7695 136.079 60.2643 133.901C61.6348 132.705 63.2421 132.237 64.9645 131.795Z" fill="white"/>
<path d="M62.01 136.932C63.3005 136.3 66.7247 136.186 67.5996 137.415C67.6162 137.859 67.52 137.984 67.1162 138.249C65.363 140.257 64.4145 141.855 64.0684 144.577C63.971 145.344 63.9594 146.255 63.6014 146.909C61.5705 148.271 56.1774 140.036 62.01 136.932Z" fill="#0C0C0C"/>
<path d="M62.9548 137.563C63.9853 137.475 65.0212 137.362 66.0309 137.632L66.1261 137.835C63.6147 139.795 63.0268 142.976 62.8192 145.961C60.0241 143.251 59.0758 139.835 62.9548 137.563Z" fill="#F2F2F2"/>
<path d="M62.0117 136.932C63.3023 136.3 66.7264 136.186 67.6013 137.415C67.6179 137.859 67.5217 137.984 67.1179 138.249L66.6023 138.279L66.1258 137.836L66.0306 137.633C65.0209 137.363 63.985 137.477 62.9544 137.564C62.5753 137.149 62.9754 137.672 62.1892 137.4L62.0117 136.932Z" fill="#0C0C0C"/>
<path d="M84.2887 185.24C85.8669 193.25 87.9407 202.529 98.6032 201.525C102.023 201.203 105.802 200.147 109.175 199.38L124.83 195.848L141.062 192.185C144.195 191.461 148.783 190.48 151.672 189.284C151.918 189.347 152.164 189.407 152.412 189.464C152.435 189.579 152.493 189.91 152.531 190.007C150.513 192.358 144.855 193.286 141.897 193.943L132.548 196.06L97.6253 203.827C93.7014 204.7 91.0845 204.821 87.4657 202.637C82.7723 199.806 82.0074 193.101 80.8828 187.956C82.486 187.105 83.1329 186.602 84.2887 185.24Z" fill="#F2F2F2"/>
<path d="M140.207 99.4833C141.027 98.6388 143.52 96.8709 144.665 97.567C144.851 98.1753 144.26 100.105 144.415 100.951C144.766 102.861 145.512 104.637 146.434 106.343C147.718 108.72 148.707 111.071 151.872 110.536L153.181 112.315C151.177 114.427 146.468 118.123 143.872 119.52C143.5 119.797 143.688 119.769 143.317 119.752C142.975 118.958 142.159 115.415 141.898 114.372L138.895 102.321C139.266 101.253 139.599 100.433 140.207 99.4833Z" fill="white"/>
<path d="M140.207 99.4824C140.559 99.5951 140.448 99.5343 140.749 99.749C139.767 104.771 141.916 110.666 143.095 115.565C143.301 116.423 144.044 118.45 144.017 119.143L143.624 119.267C143.82 119.495 143.726 119.425 143.872 119.519C143.5 119.796 143.688 119.768 143.317 119.751C142.975 118.957 142.159 115.414 141.898 114.371L138.895 102.32C139.266 101.252 139.599 100.433 140.207 99.4824Z" fill="#D9DBD5"/>
<path d="M51.3164 111.21C53.1488 108.282 56.1516 108.289 59.1476 108.632C59.4365 108.699 60.0149 108.737 60.1072 109.061C61.3988 113.604 62.3712 118.246 63.5312 122.825C63.7433 123.662 63.9903 124.566 64.1451 125.41C59.5056 123.429 48.1962 119.262 50.9991 111.728C51.0863 111.493 51.1548 111.397 51.3164 111.21Z" fill="white"/>
<path d="M73.6415 141.832C74.6891 146.224 75.6956 150.776 76.8291 155.128C75.3216 154.499 73.8025 153.896 72.2736 153.321C71.9649 152.026 71.667 150.728 71.3789 149.428C72.8291 147.613 73.5708 145.828 73.5619 143.464L73.6415 141.832Z" fill="#F2F2F2"/>
<path d="M145.745 97.9004C146.887 98.8541 151.407 108.787 151.33 109.739C148.933 109.264 148.359 107.545 147.319 105.594C145.779 102.708 145.29 101.16 145.745 97.9004Z" fill="#F2F2F2"/>
<path d="M78.1101 171.163C78.9412 170.709 79.6999 170.217 80.3816 169.557C80.7028 170.843 81.1116 172.326 81.3711 173.611C80.2957 173.254 79.2973 173.009 78.1566 172.94C77.7719 172.921 77.431 172.966 77.1608 172.726L76.8164 171.508C77.0821 171.469 77.822 171.243 78.1101 171.163Z" fill="#F2F2F2"/>
<path d="M93.4153 58.3103C94.1472 58.1381 94.2456 58.0652 94.9228 58.2965C95.1733 58.5281 95.1196 58.3879 95.1447 58.6991C94.887 59.0614 95.0132 58.9609 94.6526 59.1835C93.9172 59.4844 88.5878 60.2927 87.4722 60.4723C87.1402 60.5257 86.9944 60.2991 86.7734 60.0876L86.7878 59.8226C87.3559 59.3543 92.5708 58.3968 93.4153 58.3103Z" fill="#D9DBD5"/>
<path d="M97.812 58.8152C97.4559 58.5211 97.3199 58.0363 97.4711 57.5996C97.6223 57.1627 98.0294 56.8661 98.491 56.8557C98.9536 56.8454 99.3732 57.1234 99.5441 57.5529C99.731 58.0222 99.5763 58.5583 99.1683 58.8557C98.7594 59.1532 98.2021 59.1366 97.812 58.8152Z" fill="#D9DBD5"/>
<path d="M151.672 189.285C153.543 188.187 153.819 187.824 155.345 186.283C154.574 187.716 153.791 188.939 152.531 190.008C152.493 189.911 152.435 189.58 152.412 189.465C152.164 189.407 151.918 189.347 151.672 189.285Z" fill="#F2F2F2"/>
<path d="M72.6918 138.008C72.8636 138.604 73.6473 141.392 73.6428 141.832L73.5632 143.463C73.3619 141.369 73.0935 140.263 72.5039 138.263L72.6918 138.008Z" fill="#F2F2F2"/>
<path d="M184.9 23.0918C188.973 23.1554 193.199 30.3262 187.402 32.5915C182.4 31.8106 179.466 24.4493 184.9 23.0918Z" fill="#A7A8A4"/>
<path d="M130.516 2.67383C131.111 3.03258 132.051 5.58279 132.548 6.4031C136.505 12.9361 140.816 16.1466 147.739 18.7178C147.021 20.1441 145.117 22.8951 144.172 24.3263C143.158 25.8637 141.454 28.5711 140.341 29.8833C139.535 29.6668 138.708 29.3508 137.917 29.0703C137.045 28.7512 136.195 28.3788 135.37 27.955C129.258 24.8745 122.118 17.5018 119.984 10.9849C121.416 9.46656 128.578 3.99675 130.516 2.67383Z" fill="#A7A8A4"/>
<path d="M130.393 3.34766C130.791 3.67474 131.187 4.86722 131.441 5.38022C134.787 12.1351 140.186 16.4128 147.049 19.0113C144.804 22.4954 142.521 25.9549 140.201 29.3891C139.463 29.1655 138.778 28.8636 138.066 28.5698C130.948 25.8569 123.251 18.321 120.547 11.1394C122.13 9.42064 128.339 4.79449 130.393 3.34766Z" fill="#D9DBD5"/>
<path d="M128.223 6.4043C128.893 6.5206 129.206 7.47609 130.274 7.13129C130.413 7.08656 131.145 7.00023 131.205 7.06053C131.955 7.8268 132.548 9.27399 133.195 10.1C136.307 14.069 139.059 16.3899 143.477 18.5944C143.411 19.126 143.372 19.6577 143.327 20.1914C143.575 20.545 143.904 20.9217 144.183 21.26C143.379 22.6271 142.262 24.1622 141.362 25.4843C140.612 26.5859 140.312 26.0518 138.815 26.2375L138.652 26.259C138.352 26.4487 137.894 26.8058 137.592 27.0251C131.932 24.9813 125.838 18.8679 123.082 13.536C123.156 13.4007 123.23 13.2646 123.301 13.1275C123.896 11.9703 123.895 11.3765 123.504 10.1527C125.059 8.99798 126.675 7.61762 128.223 6.4043Z" fill="#A7A8A4"/>
<path d="M128.299 6.96094C131.099 8.63197 130.217 6.11254 132.314 9.49558C134.795 13.4979 138.772 16.6782 142.981 18.7559C142.793 20.0957 142.79 20.3097 143.569 21.3601C142.626 22.883 141.641 24.3795 140.616 25.8479C139.78 25.6461 139.602 25.6259 138.751 25.7501C138.247 25.9569 137.961 26.1895 137.51 26.5035C131.587 24.0821 126.673 19.0917 123.609 13.5421C124.293 12.3095 124.315 11.6398 124.017 10.2582C125.505 9.17207 126.684 8.05662 128.299 6.96094Z" fill="#D9DBD5"/>
<path d="M132.987 14.3791C136.927 14.2581 136.266 19.2588 132.616 20.396C128.51 20.2311 129.518 15.341 132.987 14.3791Z" fill="#A7A8A4"/>
<path d="M132.449 14.9206C136.287 14.4702 135.821 18.3862 133.077 19.8419C129.627 20.4859 129.64 16.382 132.449 14.9206Z" fill="#D9DBD5"/>
<path d="M127.925 11.0703C128.481 10.8296 129.128 11.0894 129.364 11.6487C129.599 12.208 129.333 12.852 128.772 13.0824C128.218 13.3098 127.584 13.0482 127.352 12.4961C127.119 11.9441 127.375 11.3078 127.925 11.0703Z" fill="#A7A8A4"/>
<path d="M128.206 11.4577C128.56 11.3643 128.924 11.5746 129.021 11.9288C129.116 12.283 128.909 12.6484 128.555 12.7474C128.199 12.8475 127.828 12.6373 127.731 12.2791C127.633 11.9211 127.847 11.5523 128.206 11.4577Z" fill="#D9DBD5"/>
<path d="M138.068 20.5948C138.627 20.4326 139.213 20.7534 139.378 21.3122C139.542 21.871 139.224 22.4577 138.666 22.6244C138.104 22.7922 137.514 22.4717 137.348 21.9096C137.183 21.3475 137.505 20.758 138.068 20.5948Z" fill="#A7A8A4"/>
<path d="M137.966 21.1189C138.148 20.9694 138.396 20.9297 138.615 21.0149C138.834 21.1001 138.99 21.297 139.023 21.5297C139.055 21.7624 138.96 21.9946 138.773 22.1369C138.492 22.351 138.09 22.3004 137.871 22.0231C137.652 21.7458 137.694 21.3438 137.966 21.1189Z" fill="white"/>
<path d="M158.454 26.0684C160.732 27.0388 166.198 33.5678 167.934 35.6585C164.875 41.6699 161.885 41.9916 157.474 46.4948C155.229 48.7868 154.358 52.8161 153.801 55.9276L152.628 55.2872C149.309 53.3101 145.549 50.873 142.488 48.5003C143.136 43.3623 145.782 38.5655 149.764 35.3095C154.079 31.7835 155.898 31.1766 158.454 26.0684Z" fill="#A7A8A4"/>
<path d="M158.7 26.7871C161.102 28.4633 165.614 33.501 167.332 35.8522C162.686 44.7053 155.018 42.5175 153.49 55.2647L152.186 54.4794C149.315 52.6084 145.726 50.3595 143.047 48.2348C143.944 42.8182 146.54 38.283 150.949 35.0227C154.742 32.2179 156.388 30.966 158.7 26.7871Z" fill="#D9DBD5"/>
<path d="M160.488 30.1934C161.126 30.4348 164.007 33.7866 164.604 34.4874C163.852 35.9269 163.982 36.2107 164.564 37.6431C161.632 41.422 158.869 42.0659 155.941 45.5258C154.724 46.9637 154.024 49.3422 153.13 50.8858C151.434 50.8927 152.049 50.5782 150.789 51.7658C150.213 51.7738 150.273 51.6902 149.686 51.3747C148.439 50.4498 147.175 49.5459 145.898 48.6635C145.925 48.2605 145.943 47.857 145.954 47.4533C145.976 46.387 145.723 45.9883 145.016 45.2581C146.188 42.0315 147.841 38.8414 150.61 36.6983C153.714 34.296 155.547 33.5796 157.777 30.2461C158.927 31.1964 159.315 30.9797 160.488 30.1934Z" fill="#A7A8A4"/>
<path d="M160.468 30.7402C160.841 30.8827 163.849 34.0423 163.833 34.5379C163.789 35.8372 163.49 35.9958 163.992 37.3996L164.053 37.5679C161.811 40.6386 158.456 41.9526 156.021 44.8017C155.41 45.5174 154.734 46.3764 154.314 47.2178C153.813 48.2244 153.513 49.3799 152.882 50.3116C152.886 50.3058 151.689 50.4503 151.645 50.4864C151.315 50.7595 151.008 51.0537 150.702 51.3477C150.29 51.3611 150.205 51.1948 149.778 50.9208C148.625 50.0874 147.486 49.2347 146.362 48.3628C146.386 46.8956 146.457 46.3094 145.469 45.1887C147.51 39.573 150.12 37.3743 154.879 34.1207C155.784 33.5015 156.892 31.8373 157.896 31.0671C158.058 31.1151 158.222 31.1599 158.386 31.2017C159.262 31.4222 159.573 31.2751 160.322 30.8293L160.468 30.7402Z" fill="#D9DBD5"/>
<path d="M153.235 37.3249C157.118 37.2582 159.021 42.0944 155.445 43.0251C151.769 42.9522 149.321 38.8664 153.235 37.3249Z" fill="#A7A8A4"/>
<path d="M153.321 37.7288C156.084 37.5846 158.58 41.1841 155.514 42.6113C152.361 42.5612 149.858 39.0545 153.321 37.7288Z" fill="#D9DBD5"/>
<path d="M159.218 34.7318C159.79 34.5756 160.381 34.9091 160.543 35.4793C160.704 36.0496 160.377 36.6438 159.809 36.8114C159.232 36.9812 158.628 36.6479 158.463 36.0696C158.299 35.4914 158.638 34.8902 159.218 34.7318Z" fill="#A7A8A4"/>
<path d="M159.368 35.1189C159.715 35.0482 160.055 35.2641 160.139 35.6074C160.222 35.9508 160.019 36.2986 159.679 36.3945C159.447 36.4598 159.198 36.3934 159.03 36.2215C158.863 36.0496 158.802 35.7996 158.873 35.5698C158.943 35.3399 159.133 35.167 159.368 35.1189Z" fill="#D9DBD5"/>
<path d="M178.547 76.166C179.706 76.2439 188.558 80.0586 189.903 80.7216C188.376 82.4205 186.864 84.3217 186.008 86.4626C183.124 93.6708 184.277 98.3793 178.254 104.344C177.234 104.414 168.135 99.5755 167.234 98.7649C167.421 98.3212 168.409 97.1787 168.764 96.6947C169.476 95.7231 170.392 94.4697 170.886 93.3773C173.931 86.6379 172.675 81.6869 178.547 76.166Z" fill="#A7A8A4"/>
<path d="M178.714 76.7051C179.418 76.8527 181.628 77.7482 182.384 78.0506C184.66 78.9569 186.927 79.8829 189.186 80.8294C183.662 86.1777 184.53 92.8875 181.459 99.2628C180.663 100.914 179.36 102.4 178.178 103.799C178.081 103.818 177.984 103.836 177.888 103.855C175.536 102.717 169.614 99.6842 167.746 98.7368C169.885 96.442 171.654 93.5254 172.535 90.514C174.145 85.0101 174.282 80.9475 178.714 76.7051Z" fill="#D9DBD5"/>
<path d="M180.65 78.5859L185.54 80.539C185.299 81.8675 185.113 82.1744 186.067 83.171C183.158 87.8 183.402 90.6942 181.775 95.7221C181.207 97.4729 180.164 99.2721 179.175 100.815C177.62 100.428 177.194 100.537 175.972 101.578C175.219 101.327 172.042 99.689 171.213 99.2748L171.65 97.6367L170.719 96.6865C174.997 90.3166 173.374 85.8147 177.648 79.5477C179.28 79.8143 179.499 79.7293 180.65 78.5859Z" fill="#A7A8A4"/>
<path d="M180.629 79.1504C181.06 79.1406 184.333 80.5094 185.038 80.7724C184.812 82.0071 184.674 82.2594 185.56 83.2283C182.966 87.3517 182.974 90.1529 181.662 94.636C181.031 96.7894 180.164 98.4221 179.049 100.328C178.829 100.28 178.606 100.239 178.383 100.203C177.369 100.054 176.898 100.347 176.132 100.931L176.068 100.982C175.466 101.06 172.481 99.4242 171.753 99.0502C172.017 97.8469 172.09 97.617 171.262 96.682C172.206 95.1075 173.254 93.2001 173.765 91.426C175.113 86.7362 175.11 84.2464 177.798 79.9941C179.238 80.08 179.571 80.0693 180.629 79.1504Z" fill="#D9DBD5"/>
<path d="M177.548 87.2317C181.542 86.974 183.008 91.3372 179.419 92.6121C175.631 92.7454 173.887 88.7973 177.548 87.2317Z" fill="#A7A8A4"/>
<path d="M177.633 87.6308C180.804 87.4706 182.56 90.6842 179.501 92.1568C176.187 92.4046 174.419 89.0023 177.633 87.6308Z" fill="#D9DBD5"/>
<path d="M175.764 95.4847C176.277 95.253 176.881 95.4632 177.137 95.9642C177.394 96.4643 177.214 97.078 176.726 97.359C176.389 97.554 175.972 97.5468 175.642 97.3411C175.311 97.1353 175.121 96.764 175.147 96.3757C175.172 95.9875 175.41 95.6448 175.764 95.4847Z" fill="#A7A8A4"/>
<path d="M175.846 95.8736C176.165 95.6678 176.591 95.7591 176.798 96.0794C177.004 96.3988 176.912 96.8246 176.591 97.0304C176.272 97.2362 175.847 97.144 175.641 96.8246C175.435 96.5052 175.527 96.0803 175.846 95.8736Z" fill="#D9DBD5"/>
<path d="M180.258 82.5924C180.601 82.4224 181.008 82.451 181.323 82.6675C181.639 82.8831 181.812 83.2526 181.777 83.6338C181.742 84.014 181.504 84.3459 181.156 84.5016C180.631 84.7342 180.017 84.5052 179.772 83.9863C179.528 83.4674 179.744 82.8474 180.258 82.5924Z" fill="#A7A8A4"/>
<path d="M180.317 83.0041C180.607 82.7894 181.016 82.8485 181.233 83.1365C181.45 83.4246 181.395 83.8335 181.109 84.0536C180.82 84.2772 180.404 84.2209 180.183 83.9292C179.963 83.6376 180.023 83.2215 180.317 83.0041Z" fill="#D9DBD5"/>
<path d="M178.233 46.9492C181.114 47.949 187.567 50.9896 190.21 52.6334C187.869 61.7762 182.022 66.8956 174.354 71.5048C174.183 71.6032 174.008 71.699 173.834 71.7929C173.283 72.0855 172.856 72.3082 172.222 72.0846C171.267 71.7464 163.681 64.4084 163.164 63.3411C163.266 63.1506 163.346 62.9502 163.571 62.8875C167.049 61.9279 170.106 60.4582 172.765 57.9389C175.011 55.8125 176.451 52.7305 177.337 49.777C177.617 48.8432 177.706 47.8237 178.233 46.9492Z" fill="#A7A8A4"/>
<path d="M180.95 50.3535C182.005 50.5649 184.678 52.0579 186.029 52.5687C185.909 54.0967 185.991 54.3357 187.064 55.4198C184.12 62.2128 180.703 64.7045 174.92 68.6508L173.914 68.1587C172.904 67.8223 172.248 67.9959 171.353 68.4781C170.145 67.4439 169.009 66.3846 167.844 65.3048C168.44 64.4343 168.508 64.4253 168.335 63.3383L168.306 63.1683C169.082 62.5331 170.232 62.1887 170.974 61.6882C174.424 59.3639 177.631 55.3083 178.669 51.307C179.893 51.2956 180.166 51.3106 180.95 50.3535Z" fill="#D9DBD5"/>
<path d="M177.841 57.8457C181.205 58.0372 183.103 61.9071 179.418 62.9621C175.708 62.8673 173.819 58.8135 177.841 57.8457Z" fill="#A7A8A4"/>
<path d="M177.175 58.4077C180.058 57.8313 182.723 60.8683 179.73 62.4888C176.884 62.6964 174.401 60.052 177.175 58.4077Z" fill="#D9DBD5"/>
<path d="M173.107 63.7551C173.659 63.6486 174.196 64.0056 174.311 64.5567C174.425 65.1078 174.075 65.6491 173.526 65.7708C173.164 65.8513 172.786 65.7305 172.538 65.4549C172.29 65.1794 172.209 64.7911 172.326 64.4386C172.444 64.087 172.742 63.8258 173.107 63.7551Z" fill="#A7A8A4"/>
<path d="M172.899 64.3237C173.162 64.109 173.548 64.1412 173.77 64.3962C173.994 64.6512 173.976 65.0377 173.729 65.2694C173.561 65.4277 173.32 65.4814 173.102 65.4098C172.883 65.3383 172.721 65.1531 172.679 64.9267C172.636 64.7004 172.721 64.4687 172.899 64.3237Z" fill="#D9DBD5"/>
<path d="M181.526 54.001C182.018 53.7651 182.609 53.9574 182.867 54.4378C183.127 54.9182 182.962 55.5173 182.495 55.7986C182.172 55.9927 181.768 55.9936 181.445 55.8008C181.121 55.6081 180.93 55.2529 180.946 54.8766C180.963 54.5003 181.186 54.1639 181.526 54.001Z" fill="#A7A8A4"/>
<path d="M181.715 54.3758C182.001 54.2225 182.357 54.3176 182.528 54.5931C182.7 54.8686 182.627 55.2297 182.363 55.4183C182.177 55.5515 181.932 55.57 181.727 55.4663C181.523 55.3626 181.393 55.1539 181.391 54.9248C181.388 54.6956 181.513 54.484 181.715 54.3758Z" fill="#D9DBD5"/>
<path d="M181.628 48.916L189.701 52.8563C186.899 60.8349 182.836 66.1976 175.25 70.3068C175.304 69.6868 175.397 69.5347 174.871 69.1769C180.454 65.7754 185.143 61.5285 187.488 55.2768C186.286 54.1494 186.347 53.9124 186.525 52.3384C184.804 51.5838 182.655 50.6881 181.01 49.8285C181.522 49.4713 181.36 49.596 181.628 48.916Z" fill="#D9DBD5"/>
<path d="M172.537 71.891C171.278 70.5436 164.21 64.6792 164.7 63.5412C165.15 63.2173 165.891 63.237 166.476 63.1887C166.977 62.7772 167.038 62.6698 167.593 62.923C168.366 63.9527 167.905 64.2963 167.228 65.1847C167.456 65.8476 170.477 68.2283 171.227 68.9055C171.786 68.7212 172.38 68.5513 172.946 68.3795C173.814 68.6193 174.111 68.6855 174.871 69.1775C175.397 69.5354 175.304 69.6875 175.25 70.3075C174.428 70.8272 173.392 71.3936 172.537 71.891Z" fill="#E6FEB6"/>
<path d="M181.011 49.8287L180.766 49.9034C180.329 50.4949 180.094 51.0201 179.332 50.8703C179.235 50.8313 178.601 50.8526 178.558 50.9357C176.905 54.1327 176.177 57.0547 173.037 59.3257L172.854 59.2352L172.836 59.0281C173.175 58.4677 173.734 57.9718 174.118 57.4232C175.771 55.0683 177.111 52.542 177.842 49.7472C178.023 49.0575 178.011 48.0934 178.552 47.625C179.219 47.7105 180.851 48.58 181.629 48.9162C181.361 49.5963 181.523 49.4716 181.011 49.8287Z" fill="#E6FEB6"/>
<path d="M170.826 60.2324C171.846 61.1688 169.197 62.23 168.536 62.5798C168.45 62.5646 168.237 62.4698 168.144 62.4322L168.09 62.1468C168.361 61.4561 169.925 60.8341 170.706 60.3133L170.826 60.2324Z" fill="#D9DBD5"/>
<path d="M177.058 4.89258C179.527 5.39233 183.751 6.76616 186.284 7.52634C184.09 15.0169 177.694 20.8907 170.955 24.3984C170.529 24.6326 170.142 24.7538 169.687 24.9175C168.503 24.2433 163.386 20.2258 162.359 19.1923C170.36 15.6653 173.593 13.1183 177.058 4.89258Z" fill="#A7A8A4"/>
<path d="M177.356 5.44141C179.864 6.17797 183.254 7.28564 185.743 7.78029C183.06 15.2112 177.784 19.9896 171.086 23.7669C170.656 23.9592 170.14 24.2643 169.718 24.4957L163.266 19.3509C167.889 17.7266 172.528 14.2249 175.119 10.0237C176.01 8.57716 176.676 6.99694 177.356 5.44141Z" fill="#D9DBD5"/>
<path d="M178.929 7.0293C179.487 7.08969 182.519 7.9575 183.222 8.14905C183.159 8.7405 183.06 9.23802 183.174 9.81757C183.528 10.0278 183.682 10.0471 183.56 10.4778C183.273 11.5192 182.628 12.3982 182.052 13.2912C179.446 17.3325 175.887 19.9613 171.874 22.4485L170.375 22.0479C169.963 22.287 169.541 22.5031 169.121 22.7242C167.979 21.9812 166.989 21.2234 165.906 20.4045C166.269 19.9928 166.933 18.4766 166.591 18.7042C170.626 16.0203 174.056 13.4448 176.409 9.05336C177.339 7.31487 177.785 8.75651 178.929 7.0293Z" fill="#A7A8A4"/>
<path d="M179.245 7.47852C180.088 7.64582 181.679 8.18296 182.701 8.43213C182.633 9.465 182.472 9.70298 183.148 10.4905C181.793 14.0604 176.068 19.6987 172.55 21.5299C171.589 22.0298 171.507 21.9875 170.544 21.6667C170.064 21.7459 169.698 21.9362 169.256 22.1343C168.556 21.877 167.305 20.9583 166.727 20.4681C166.773 20.1192 166.906 19.9863 167.093 19.6642C167.064 19.3824 166.931 18.7985 167.162 18.6609C171.684 15.9749 174.688 13.3497 177.146 8.53224C178.366 8.38524 178.4 8.37299 179.245 7.47852Z" fill="#D9DBD5"/>
<path d="M175.393 13.6919C176.452 13.6656 177.47 13.8388 177.854 14.9896C178.011 15.4623 177.955 15.9796 177.702 16.4085C177.301 17.0993 176.748 17.2762 176.024 17.449C172.816 17.3743 172.383 14.6373 175.393 13.6919Z" fill="#A7A8A4"/>
<path d="M175.678 14.1133C175.944 14.1149 176.208 14.1554 176.462 14.2335C178.101 14.723 177.817 16.6312 175.876 17.1177C173.224 17.0032 172.996 14.7049 175.678 14.1133Z" fill="#D9DBD5"/>
<path d="M178.882 10.364C179.31 10.1714 179.813 10.363 180.003 10.7915C180.194 11.2198 179.999 11.7217 179.571 11.9106C179.144 12.0983 178.646 11.9058 178.456 11.4801C178.267 11.0543 178.457 10.5554 178.882 10.364Z" fill="#A7A8A4"/>
<path d="M170.745 18.539C171.178 18.4012 171.639 18.6401 171.776 19.0722C171.912 19.5042 171.672 19.9651 171.239 20.1005C170.809 20.2352 170.35 19.9962 170.214 19.5659C170.078 19.1357 170.316 18.6764 170.745 18.539Z" fill="#A7A8A4"/>
<path d="M147.801 60.8169C149.037 60.7091 149.855 60.6413 151.041 61.1767C152.317 61.7616 153.297 62.8444 153.752 64.172C154.813 67.1861 153.418 70.4069 150.33 71.4438C143.288 72.2767 141.734 63.0537 147.801 60.8169Z" fill="#A7A8A4"/>
<path d="M148.107 61.368C153.336 60.776 153.975 69.1019 148.907 70.5405C143.406 70.8787 143.197 62.63 148.107 61.368Z" fill="#D9DBD5"/>
<path d="M147.991 68.0919L147.043 66.4375V66.0476H147.359C147.486 66.0476 147.596 66.0301 147.691 65.995C147.789 65.9563 147.87 65.9019 147.933 65.8316C148 65.7614 148.046 65.6771 148.07 65.5787H147.043V65.1889H148.065C148.044 65.0975 148.007 65.0168 147.954 64.9465C147.905 64.8763 147.839 64.8218 147.754 64.7832C147.673 64.741 147.575 64.72 147.459 64.72H147.043V64.3301H149.419V64.72H148.592C148.652 64.7867 148.701 64.8587 148.739 64.936C148.782 65.0132 148.81 65.0975 148.824 65.1889H149.419V65.5787H148.834C148.799 65.8387 148.699 66.0424 148.534 66.1899C148.369 66.3339 148.156 66.4323 147.896 66.4849L148.929 68.0919H147.991Z" fill="#A7A8A4"/>
<path d="M191.759 65.2098C197.427 64.9083 200.359 72.5871 194.658 75.0742C189.505 75.7926 185.726 67.8535 191.759 65.2098Z" fill="#A7A8A4"/>
<path d="M192.081 65.7999C196.497 65.5477 199.269 72.2137 195.193 73.7579C192.797 73.5253 191.264 72.3828 190.349 70.1309C189.551 68.1672 190.034 66.5014 192.081 65.7999Z" fill="#D9FE91"/>
<path d="M189.316 69.8594C190.112 70.1984 190.533 71.7695 191.204 72.5129C191.691 73.0524 193.084 73.7377 193.449 74.2011L193.278 74.4668C191.37 74.2602 188.736 71.5628 189.316 69.8594Z" fill="#E6FEB6"/>
<path d="M160.428 0.0204687C166.47 -0.457902 166.76 7.58457 160.966 9.91416C155.017 10.5427 154.67 2.26739 160.428 0.0204687Z" fill="#A7A8A4"/>
<path d="M160.455 0.553987C165.801 0.0108438 164.138 6.86755 160.012 8.59843C155.205 9.36103 156.106 2.31636 160.455 0.553987Z" fill="#D9DBD5"/>
<path d="M159.292 6.21969L159.029 4.35844L159.172 4.00162L159.461 4.11735C159.577 4.16364 159.685 4.18807 159.784 4.19064C159.889 4.19129 159.982 4.17104 160.066 4.12989C160.153 4.09003 160.225 4.0296 160.284 3.94859L159.344 3.57247L159.486 3.21565L160.422 3.58984C160.436 3.49855 160.432 3.41111 160.409 3.32753C160.39 3.24524 160.349 3.17098 160.286 3.10476C160.227 3.03661 160.145 2.98132 160.039 2.93888L159.658 2.78651L159.801 2.42969L161.975 3.29958L161.833 3.6564L161.076 3.35358C161.106 3.43651 161.125 3.52042 161.132 3.60528C161.142 3.69143 161.137 3.77887 161.116 3.86759L161.661 4.08555L161.518 4.44237L160.983 4.22827C160.856 4.45329 160.69 4.60309 160.485 4.67766C160.281 4.74903 160.05 4.76124 159.793 4.7143L160.15 6.56302L159.292 6.21969Z" fill="#A7A8A4"/>
<path d="M164.087 2.36914C165.728 4.1121 164.058 7.13254 162.524 8.41064C161.407 9.34179 160.801 9.57431 159.381 9.43698L159.102 9.23345L159.143 9.10202C162.465 8.84624 164.755 5.52243 164.087 2.36914Z" fill="#D9DBD5"/>
<path d="M109.45 17.8716C115.472 17.2361 116.75 24.0811 110.235 25.4731C104.283 26.3873 102.519 19.1621 109.45 17.8716Z" fill="#A7A8A4"/>
<path d="M109.42 18.3936C114.748 17.8688 115.139 21.9841 109.693 23.3845C104.536 23.8851 104.074 19.7616 109.42 18.3936Z" fill="#D9DBD5"/>
<path d="M109.28 22.0913L108.547 20.8126V20.5112H108.791C108.889 20.5112 108.974 20.4976 109.048 20.4705C109.124 20.4406 109.186 20.3985 109.235 20.3442C109.287 20.2899 109.322 20.2248 109.341 20.1488H108.547V19.8474H109.337C109.321 19.7768 109.292 19.7144 109.251 19.6601C109.213 19.6058 109.162 19.5637 109.097 19.5338C109.034 19.5012 108.958 19.485 108.869 19.485H108.547V19.1836H110.384V19.485H109.744C109.79 19.5365 109.828 19.5922 109.858 19.6519C109.891 19.7117 109.913 19.7768 109.923 19.8474H110.384V20.1488H109.932C109.904 20.3497 109.827 20.5071 109.699 20.6212C109.572 20.7325 109.408 20.8085 109.207 20.8492L110.005 22.0913H109.28Z" fill="#A7A8A4"/>
<path d="M113.747 21.6406L113.946 21.7775C114.021 22.1456 113.968 22.564 113.74 22.8644C112.043 25.1036 108.629 25.6809 106.375 24.1571C106.187 23.8804 105.936 23.3927 105.766 23.0839C108.87 24.5419 111.438 24.2595 113.747 21.6406Z" fill="#D9DBD5"/>
<path d="M165.84 48.4544C170.139 48.2341 174.504 50.1487 171.958 55.1403C171.247 55.6617 171.101 55.7085 170.249 55.9944C163.288 57.0045 161 49.7188 165.84 48.4544Z" fill="#A7A8A4"/>
<path d="M165.871 49.0471C167.016 48.906 167.931 48.8576 169.014 49.2935C171.306 50.2158 174.191 52.2183 170.649 53.9118C166.684 54.6985 161.335 50.4765 165.871 49.0471Z" fill="#D9FE91"/>
<path d="M163.813 51.3613C163.85 51.3929 163.887 51.4245 163.923 51.4561C164.841 53.3696 166.827 54.3895 168.919 54.5064C169.634 54.5464 170.794 54.2675 171.674 54.0828L171.831 54.1996L171.702 54.6883C169.826 56.2875 166.397 55.4898 164.721 53.8865C163.893 53.0958 163.781 52.4682 163.813 51.3613Z" fill="#E6FEB6"/>
<path d="M184.985 23.6172C185.181 23.6372 185.376 23.6637 185.572 23.6967C188.009 24.13 191.695 29.0917 188.526 31.1545C186.146 30.5533 184.935 29.5103 183.975 27.196C183.381 25.7652 183.333 24.2298 184.985 23.6172Z" fill="#E6FEB6"/>
<path d="M192.328 38.0109C194.961 37.7303 196.215 39.3033 194.588 41.5964C193.381 43.2976 190.037 44.4175 187.97 44.6158C187.545 44.6278 186.322 44.6517 186.006 44.3465C182.209 40.6877 189.88 38.4334 192.328 38.0109Z" fill="#A7A8A4"/>
<path d="M192.438 38.5428C192.994 38.4671 193.632 38.49 194.188 38.5643L194.431 38.8876C193.588 40.7419 189.422 42.3362 187.475 42.6891C186.805 42.7064 185.858 42.7968 185.395 42.2586C185.522 40.435 190.837 38.7318 192.438 38.5428Z" fill="#D9DBD5"/>
<path d="M194.573 39.543C196.293 41.9098 188.594 44.7011 186.187 44.0303C185.916 43.6451 185.757 43.4735 185.629 43.0145C186.222 42.9756 187.053 43.2166 187.618 43.109C190.251 42.6069 192.825 41.6672 194.573 39.543Z" fill="#D9DBD5"/>
<path d="M158.89 72.043C163.057 72.374 160.643 76.6334 159.174 78.4675C158.04 79.8846 157.027 80.8991 155.385 81.6963C153.595 81.639 152.513 80.204 153.25 78.4737C154.302 76.0045 156.446 73.2239 158.89 72.043Z" fill="#A7A8A4"/>
<path d="M159.066 72.543C159.828 72.7953 159.717 73.265 159.411 73.9753C158.353 76.4284 156.475 79.0605 154.03 80.2522C153.843 80.2826 153.896 80.2558 153.668 80.1636C153.104 79.0283 154.655 76.6924 155.36 75.7628C156.46 74.3117 157.493 73.4063 159.066 72.543Z" fill="#D9DBD5"/>
<path d="M160.077 73.0469C162.629 74.1867 157.503 80.5271 155.092 81.2043C154.655 81.029 154.68 81.0415 154.332 80.7221C154.668 80.434 154.829 80.4 155.16 80.1737C157.533 78.5472 159.424 75.8248 160.077 73.0469Z" fill="#D9DBD5"/>
<path d="M135.145 36.5332C135.381 36.6629 135.318 36.6287 135.515 36.8216C136.072 39.2738 137.506 51.7901 136.972 53.7341C136.387 53.3176 136.433 50.3252 136.375 49.3891C136.246 47.2375 136.068 45.0892 135.842 42.9457C135.71 41.771 134.998 37.3642 135.145 36.5332Z" fill="#A7A8A4"/>
<path d="M174.12 28.7539L174.373 28.8555C174.798 29.3378 175.281 41.4292 175.28 42.928L174.932 42.8564C174.676 42.4026 174.069 29.8931 174.12 28.7539Z" fill="#A7A8A4"/>
<path d="M165.832 78.6797C166.072 78.7575 165.983 78.7226 166.182 78.9105C166.402 80.0243 166.441 82.7074 166.5 83.9912C166.6 86.1778 166.78 88.5235 166.829 90.6967L166.488 90.6251C166.075 89.8682 165.711 80.0315 165.832 78.6797Z" fill="#A7A8A4"/>
<path d="M151.709 10.6621C151.92 10.7859 151.868 10.763 152.037 10.9526C152.3 12.5054 153.083 20.8234 152.807 22.0958C152.575 21.9795 152.697 22.0585 152.458 21.8348C152.283 20.6358 151.537 11.3402 151.709 10.6621Z" fill="#A7A8A4"/>
<path d="M193.438 90.8067C194.172 90.7387 194.827 91.2656 194.919 91.9975C195.009 92.7293 194.502 93.4003 193.773 93.5139C193.281 93.5899 192.788 93.3922 192.483 92.9986C192.18 92.6049 192.114 92.0771 192.312 91.6208C192.511 91.1646 192.942 90.8523 193.438 90.8067Z" fill="#A7A8A4"/>
<path d="M193.311 91.2538C193.759 91.2484 193.748 91.2296 194.165 91.3755C194.773 92.1046 194.408 92.5448 193.848 93.1657C193.127 93.0198 192.89 92.9832 192.715 92.246C192.852 91.702 192.911 91.6778 193.311 91.2538Z" fill="white"/>
<path d="M148.61 4.2207L148.921 4.46432C149.27 5.95069 149.828 12.1921 149.602 13.653L149.295 13.4869C149.167 13.1673 148.48 4.7031 148.61 4.2207Z" fill="#A7A8A4"/>
<path d="M138.978 49.0605C139.044 49.1053 139.202 49.1964 139.218 49.2665C139.606 50.8854 140.165 57.3094 139.947 58.6111L139.609 58.4228C139.446 57.8456 138.823 49.5162 138.978 49.0605Z" fill="#A7A8A4"/>
<path d="M122.138 25.0215C123.57 25.2737 123.607 26.6012 122.968 27.6222L122.893 27.6049C121.304 27.2455 121.169 26.1736 122.138 25.0215Z" fill="#D9DBD5"/>
<path d="M122.409 25.2754C123.303 25.8452 123.221 26.6767 122.581 27.3895C121.663 26.7492 121.688 26.0179 122.409 25.2754Z" fill="white"/>
<path d="M177.004 33.168C177.18 33.275 177.399 33.3713 177.409 33.6111C177.468 34.8548 177.892 39.0912 177.473 40.0295L177.249 39.7691C177.096 38.5021 176.816 34.3418 177.004 33.168Z" fill="#A7A8A4"/>
<path d="M200.465 64.4464C200.861 64.3489 201.157 64.3042 201.5 64.518L201.464 64.7676C201.093 65.24 200.708 65.2677 200.115 65.4341C199.638 65.5951 199.187 65.8439 198.844 65.3777C199.128 64.6531 199.79 64.6057 200.465 64.4464Z" fill="#D9FE91"/>
<path d="M198.754 60.3223C198.832 60.3799 199.043 60.5892 199.121 60.6636C199.105 61.4723 198.229 62.2248 197.654 62.8466C196.401 62.4807 198.312 60.806 198.754 60.3223Z" fill="#D9FE91"/>
<path d="M195.044 58.9336C195.593 59.0989 195.434 58.9358 195.653 59.3173C195.656 60.0652 195.243 60.9902 194.983 61.736C194.545 61.676 194.713 61.7759 194.446 61.4511C194.426 60.5061 194.736 59.826 195.044 58.9336Z" fill="#D9FE91"/>
</svg>
