<svg width="368" height="368" viewBox="0 0 368 368" fill="none" xmlns="http://www.w3.org/2000/svg">
<path d="M277.57 119.84C277.792 119.6 277.938 119.459 278.123 119.171C279.405 117.172 280.439 97.0376 279.701 94.5565C278.338 89.9744 281.202 78.9131 281.545 73.6291C281.741 70.603 281.174 67.6769 281.278 64.6772C281.496 58.3395 282.337 52.0156 282.579 45.6759C282.877 37.8516 280.782 29.8579 275.345 24.0435C271.416 19.8523 266.321 16.9309 260.717 15.6548C254.044 14.0663 244.563 13.9112 237.711 13.6547L138.387 9.63759C127.854 9.24438 119.491 8.67531 111.171 16.378C102.662 24.2585 102.434 34.0785 101.794 44.6808L100.577 66.6596L98.1169 109.273C97.6095 117.939 96.9049 127.097 96.6436 135.716L83.0945 134.888C80.9858 134.759 78.8412 134.592 76.735 134.542C69.9682 134.374 70.2013 138.515 69.9118 143.656C69.0611 158.664 68.0004 173.666 67.283 188.68C67.2215 189.96 67.3444 193.383 68.2412 194.223C70.9854 196.795 76.9041 196.445 80.5527 196.634L93.1 197.361L88.3983 280.938L86.9968 304.311C86.3383 315.421 84.8394 327.983 92.2724 337.375C97.4302 343.89 104.735 346.975 112.87 347.741C121.246 348.526 129.673 349.243 138.077 349.973L183.857 354.02L213.291 356.688C225.727 357.763 241.604 360.31 251.915 351.97C263.51 342.59 262.89 326.508 263.838 312.966L266.266 279.984L275.077 155.602C275.264 153.158 276.461 150.86 276.609 148.053C276.521 142.903 277.92 136.617 277.732 131.598C277.553 126.797 277.032 124.826 277.57 119.84Z" fill="white"/>
<path d="M277.57 119.84C277.792 119.6 277.938 119.459 278.123 119.171C279.405 117.172 280.439 97.0376 279.701 94.5565C278.338 89.9744 281.202 78.9131 281.545 73.6291C281.741 70.603 281.174 67.6769 281.278 64.6772C281.496 58.3395 282.337 52.0156 282.579 45.6759C282.877 37.8516 280.782 29.8579 275.345 24.0435C271.416 19.8523 266.321 16.9309 260.717 15.6548C254.044 14.0663 244.563 13.9112 237.711 13.6547L138.387 9.63759C127.854 9.24438 119.491 8.67531 111.171 16.378C102.662 24.2585 102.434 34.0785 101.794 44.6808L100.577 66.6596L98.1169 109.273C97.6095 117.939 96.9049 127.097 96.6436 135.716L98.4115 135.987C100.41 136.041 102.101 136.158 104.095 136.335C104.72 136.517 105.281 136.404 105.937 136.345C106.144 133.906 106.313 131.464 106.449 129.021C106.421 128.128 106.516 127.184 106.582 126.287C106.813 123.659 106.78 120.835 107.156 118.269C107.036 116.321 107.52 110.058 107.636 107.862L110.687 54.816C111.013 48.7839 111.274 42.2688 111.899 36.2919C112.419 31.3194 114.981 26.0065 119.073 22.9791C124.695 18.8196 130.342 19.3288 136.968 19.6214C139.917 19.7517 142.874 19.7632 145.808 20.1969C146.617 33.3341 151.501 33.3267 163.031 33.738L177.162 34.2895L206.525 35.5587C214.475 35.8907 227.166 38.4335 229.436 27.8151C229.696 26.5999 229.951 24.9441 230.637 23.9347C232.021 23.1078 240.981 24.0435 243.245 24.0184C255.823 23.8287 263.924 32.0866 263.378 44.7587C262.36 68.3858 260.046 92.0482 258.747 115.653L258.642 116.968C258.499 119.01 258.043 123.765 258.095 125.661C257.993 126.929 257.865 129.353 257.651 130.513C257.635 131.403 257.695 133.194 257.393 133.939C256.402 148.883 254.859 164.692 254.261 179.539L254.114 180.875C253.776 185.268 252.924 193.682 252.972 197.735L252.802 199.255L249.97 240.012C249.277 248.683 248.654 257.359 248.101 266.04L247.945 267.744C246.481 285.155 245.54 302.675 244.203 320.103C243.604 327.919 243.605 336.617 237.474 342.418C233.615 346.069 228.77 347.423 223.514 347.221C215.247 346.75 207.006 345.879 198.77 345.155L125.007 338.709C121.133 338.379 113.201 337.895 109.698 337.055C106.29 336.216 103.205 334.398 100.82 331.825C94.2453 324.773 95.8493 313.987 96.3874 305.161L97.6454 284.325L100.889 227.292C101.425 217.823 102.321 207.265 102.583 197.868C101.573 197.696 101.614 197.517 100.92 197.911C100.792 198.426 100.728 198.702 100.636 199.23C100.541 198.267 100.746 198.605 100.261 197.942C98.9137 197.517 96.7 197.54 95.1139 197.402C94.458 197.384 93.7534 197.348 93.1 197.361L88.3983 280.938L86.9968 304.311C86.3383 315.421 84.8394 327.983 92.2724 337.375C97.4302 343.89 104.735 346.975 112.87 347.741C121.246 348.526 129.673 349.243 138.077 349.973L183.857 354.02L213.291 356.688C225.727 357.763 241.604 360.31 251.915 351.97C263.51 342.59 262.89 326.508 263.838 312.966L266.266 279.984L275.077 155.602C275.264 153.158 276.461 150.86 276.609 148.053C276.521 142.903 277.92 136.617 277.732 131.598C277.553 126.797 277.032 124.826 277.57 119.84Z" fill="#30302F"/>
<path d="M277.57 119.84C277.792 119.6 277.938 119.459 278.123 119.171C279.405 117.172 280.439 97.0376 279.701 94.5565C278.338 89.9744 281.202 78.9131 281.545 73.6291C281.741 70.603 281.174 67.6769 281.278 64.6772C281.496 58.3395 282.337 52.0156 282.579 45.6759C282.877 37.8516 280.782 29.8579 275.345 24.0435C271.416 19.8523 266.321 16.9309 260.717 15.6548C254.044 14.0663 244.563 13.9112 237.711 13.6547L138.387 9.63759C127.854 9.24438 119.491 8.67531 111.171 16.378C102.662 24.2585 102.434 34.0785 101.794 44.6808L100.577 66.6596L98.1169 109.273C97.6095 117.939 96.9049 127.097 96.6436 135.716L98.4115 135.987C99.6158 123.08 99.8899 108.994 100.733 95.9706C101.499 84.1531 102.158 72.2823 102.86 60.4586L103.769 44.6445C104.371 34.193 104.651 24.2022 113.477 16.9729C117.164 13.9329 121.664 12.0429 126.417 11.5378C130.729 11.0566 139.843 11.6643 144.483 11.8589L221.324 14.9974C230.223 15.3442 239.19 15.473 248.067 16.1422C254.843 16.7241 261.598 20.4048 265.812 25.6918C269.188 29.9281 271.22 35.9291 271.28 41.3163C271.387 50.8053 270.153 60.4655 269.57 69.9525L264.467 144.037L256.697 254.448L253.058 304.743C252.134 316.711 252.693 335.076 245.877 345.193C238.737 355.789 225.325 356.153 213.978 354.768C205.773 353.969 197.443 353.175 189.23 352.505L144.568 348.562C133.601 347.636 122.443 346.809 111.54 345.57C104.574 344.776 98.0246 341.689 93.7867 336.041C90.8632 332.145 88.9261 327.056 88.6007 322.19C87.9243 312.021 89.1977 300.906 89.7614 290.705L93.2435 229.486C93.7303 221.99 94.1736 214.495 94.5759 206.997C94.727 204.217 95.1472 199.995 95.1139 197.402C94.458 197.384 93.7534 197.348 93.1 197.361L88.3983 280.938L86.9968 304.311C86.3383 315.421 84.8394 327.983 92.2724 337.375C97.4302 343.89 104.735 346.975 112.87 347.741C121.246 348.526 129.673 349.243 138.077 349.973L183.857 354.02L213.291 356.688C225.727 357.763 241.604 360.31 251.915 351.97C263.51 342.59 262.89 326.508 263.838 312.966L266.266 279.984L275.077 155.602C275.264 153.158 276.461 150.86 276.609 148.053C276.521 142.903 277.92 136.617 277.732 131.598C277.553 126.797 277.032 124.826 277.57 119.84Z" fill="#0C0C0C"/>
<path d="M258.992 17.0587L258.815 17.0963C258.863 17.422 261.955 19.2764 262.507 19.6957C275.067 29.249 273.409 42.1058 272.464 55.8303L270.961 77.99L254.803 308.116C254.094 318.11 253.949 331.537 250.413 340.95C247.541 348.599 241.478 353.02 234.008 356.01C240.417 355.534 242.879 355.147 248.45 351.97C261.96 342.67 260.821 327.354 261.921 312.619L264.808 273.044L270.369 195.496C271.467 181.541 272.439 167.577 273.283 153.605C271.476 153.279 269.478 152.353 269.476 150.264C269.467 143.306 270.234 136.187 270.879 129.252C270.984 128.125 271.515 127.052 272.422 126.395C273.281 126.256 273.476 126.245 274.312 125.941C275.675 124.568 275.497 122.543 275.608 120.581C272.586 119.995 271.513 118.957 271.726 115.754C272.186 108.855 272.516 101.855 273.242 94.993C273.357 93.9032 276.252 92.7884 277.152 92.4323C277.847 91.0591 278.049 84.1518 278.161 82.0998C273.183 81.3295 274.744 77.7637 274.955 73.5759C275.229 68.1429 274.366 67.348 279.15 66.3202C279.787 63.6182 279.581 59.4913 279.948 56.6267C282.279 38.4464 279.764 22.1827 258.992 17.0587Z" fill="#B5FE28"/>
<path d="M277.382 94.4284C276.479 94.5405 276.478 94.5016 275.644 94.9639C274.349 96.5506 273.965 111.424 273.551 114.652C273.283 116.742 273.383 117.305 274.642 118.702C275.765 118.587 276.782 118.375 276.894 116.996C277.459 110.049 278.045 103.011 278.149 96.0435C278.157 95.4992 277.697 94.8531 277.382 94.4284Z" fill="#B5FE28"/>
<path d="M274.712 127.438C274.086 127.594 273.553 127.769 273.112 128.273C272.176 129.343 271.224 147.298 271.23 149.683C271.232 150.699 271.802 151.151 272.467 151.83C273.298 151.737 274.395 151.165 274.488 150.258C275.14 143.924 275.457 137.525 275.931 131.171C276.089 129.055 276.136 129.009 274.712 127.438Z" fill="#B5FE28"/>
<path d="M278.602 68.0808C278.338 68.1292 277.953 68.2542 277.683 68.3315C276.655 69.9168 276.529 77.6497 276.722 79.7553C276.945 80.022 277.168 80.2888 277.392 80.5558C277.796 80.35 278.147 80.1275 278.538 79.8932C279.29 78.7372 279.56 73.885 279.585 72.3683C279.623 70.0264 280.032 69.6291 278.602 68.0808Z" fill="#B5FE28"/>
<path d="M100.636 199.23C99.6311 210.491 99.1641 224.064 98.5748 235.427L96.1355 277.654L94.5623 303.248C94.0524 311.881 92.533 323.503 97.5627 331.057C100.171 334.971 105.757 338.494 110.41 339.185C116.572 340.099 123.016 340.416 129.275 340.977L167.637 344.348L202.063 347.428C210.018 348.178 218.836 349.09 226.785 349.072C230.237 348.823 233.987 347.415 236.775 345.467C246.154 338.919 245.547 327.299 246.289 317.236L248.434 286.78C251.129 251.911 253.626 217.029 255.925 182.132L262.732 85.0262L264.511 58.738C265.29 46.8217 267.943 33.0371 256.357 25.4442C249.728 21.1 241.771 22.6165 234.374 21.6644C226.89 20.4792 228.771 25.4289 226.297 30.1202C223.423 35.5691 215.329 33.8606 210.159 33.6676C202.688 33.4085 195.22 33.1021 187.753 32.7483L167.509 31.9516C163.622 31.8152 158.562 31.8098 155.075 31.283C146.45 29.98 149.386 23.3264 147.098 19.0753C146.191 17.3929 133.503 17.737 130.618 17.5342C125.637 17.1845 120.059 19.1716 116.236 22.8692C113.374 25.6291 111.371 29.1554 110.464 33.0253C109.662 36.5324 109.498 42.4925 109.272 46.269L107.935 70.0873L105.106 118.634C104.786 124.482 104.233 130.504 104.095 136.335C104.72 136.517 105.281 136.404 105.937 136.345C106.144 133.906 106.313 131.464 106.449 129.021C106.421 128.128 106.516 127.184 106.582 126.287C106.813 123.659 106.78 120.835 107.156 118.269C107.036 116.321 107.52 110.058 107.636 107.862L110.687 54.816C111.013 48.7839 111.274 42.2688 111.899 36.2919C112.419 31.3194 114.981 26.0065 119.073 22.9791C124.695 18.8196 130.342 19.3288 136.968 19.6214C139.917 19.7517 142.874 19.7632 145.808 20.1969C146.617 33.3341 151.501 33.3267 163.031 33.738L177.162 34.2895L206.525 35.5587C214.475 35.8907 227.166 38.4335 229.436 27.8151C229.696 26.5999 229.951 24.9441 230.637 23.9347C232.021 23.1078 240.981 24.0435 243.245 24.0184C255.823 23.8287 263.924 32.0866 263.378 44.7587C262.36 68.3858 260.046 92.0482 258.747 115.653L258.642 116.968C258.499 119.01 258.043 123.765 258.095 125.661C257.993 126.929 257.865 129.353 257.651 130.513C257.635 131.403 257.695 133.194 257.393 133.939C256.402 148.883 254.859 164.692 254.261 179.539L254.114 180.875C253.776 185.268 252.924 193.682 252.972 197.735L252.802 199.255L249.97 240.012C249.277 248.683 248.654 257.359 248.101 266.04L247.945 267.744C246.481 285.155 245.54 302.675 244.203 320.103C243.604 327.919 243.605 336.617 237.474 342.418C233.615 346.069 228.77 347.423 223.514 347.221C215.247 346.75 207.006 345.879 198.77 345.155L125.007 338.709C121.133 338.379 113.201 337.895 109.698 337.055C106.29 336.216 103.205 334.398 100.82 331.825C94.2453 324.773 95.8493 313.987 96.3874 305.161L97.6454 284.325L100.889 227.292C101.425 217.823 102.321 207.265 102.583 197.868C101.573 197.696 101.614 197.517 100.92 197.911C100.792 198.426 100.728 198.702 100.636 199.23Z" fill="#0C0C0C"/>
<path d="M183.708 23.2963C181.82 23.1434 179.376 22.5196 178.176 24.1705C178.202 26.8421 181.774 26.3086 183.844 26.4051C186.786 26.5423 189.75 26.6084 192.697 26.7235C194.697 26.8533 197.169 27.5276 198.229 25.6079C197.823 22.7497 186.511 23.3979 183.708 23.2963Z" fill="#0C0C0C"/>
<path d="M171.176 21.0124C169.998 20.6512 168.717 20.9543 167.825 21.8054C166.933 22.6564 166.572 23.922 166.882 25.1144C167.19 26.3071 168.117 27.2402 169.311 27.5541C171.102 28.0264 172.944 26.9786 173.452 25.1974C173.962 23.4159 172.949 21.5558 171.176 21.0124Z" fill="#0C0C0C"/>
<path d="M170.577 22.8026C169.8 22.5617 168.973 22.9808 168.709 23.7487C168.445 24.5167 168.84 25.3554 169.601 25.6423C170.113 25.8356 170.69 25.735 171.107 25.3799C171.522 25.0246 171.714 24.4712 171.604 23.9349C171.494 23.3985 171.1 22.9649 170.577 22.8026Z" fill="#30302F"/>
<path d="M209.889 105.997C208.688 98.3217 202.842 99.3656 197.224 99.1606C195.409 99.0943 192.365 96.2118 190.182 96.7793C187.802 97.173 188.571 99.735 187.482 100.761C181.368 99.5822 184.633 108.46 186.964 111.238C185.811 118.184 183.241 127.653 190.592 131.905C190.752 132.579 190.59 132.826 190.381 133.501C189.414 134.416 188.402 134.093 187.105 134.339C180.707 135.553 177.184 136.738 172.37 141.183C171.955 136.966 170.697 138.367 169.311 134.827C167.958 131.369 161.24 131.537 158.18 131.39C156.953 130.268 156.32 130.261 154.783 129.758C154.675 128.206 154.829 126.939 153.632 125.881C151.664 124.138 150.417 121.907 153.899 120.939C155.428 120.514 157.153 123.887 158.175 124.345C159.072 122.979 158.165 121.365 157.104 120.338C153.917 117.244 148.623 120.254 150.353 124.531C150.991 126.106 152.6 127.516 152.915 129.082C152.566 129.804 151.839 130.16 151.029 130.015C148.608 126.397 148.131 128.952 145.574 130.1C140.526 132.367 138.881 134.856 137.078 140.02C133.234 142.07 131.315 144.683 130.257 148.882C128.689 155.113 127.07 161.852 126.055 168.185C124.646 176.974 120.695 187.962 123.775 196.548C123.465 197.943 122.98 199.19 123.754 200.726C124.843 202.886 129.839 203.365 131.51 202.215C132.478 201.55 132.548 198.841 133.598 197.382L133.965 197.48C134.969 200.073 133.642 203.649 136.463 204.522C144.541 207.023 161.729 207.612 169.369 205.866C168.667 213.036 164.673 272.151 166.438 274.934C166.764 275.448 167.368 275.812 167.85 276.165C167.942 276.234 168.032 276.303 168.122 276.37L168.288 276.493C166.7 277.988 164.778 279.741 162.751 280.829C159.356 282.649 151.687 284.828 151.752 289.589C151.849 296.816 176.129 293.189 179.016 290.854C181.261 286.546 178.547 281.687 178.491 277.494C178.478 276.626 180.999 275.497 181.184 273.748C181.473 270.976 181.571 268.165 181.914 265.405L184.945 239.133C185.473 234.161 186.905 228.468 187.607 223.425L189.88 239.366C190.4 243.149 190.88 247.514 191.615 251.213C192.524 251.579 192.209 251.479 193.362 251.17C196.867 250.85 203.624 252.176 207.592 252.007C208.105 251.413 207.921 251.036 207.96 250.025L208.091 250.21C208.164 251.272 208.126 251.418 208.587 252.342L209.1 252.462C209.834 251.72 209.621 250.724 209.704 249.408C209.626 245.348 208.793 240.766 208.881 236.916C209.185 223.519 209.542 210.164 208.481 196.781C211.518 194.077 211.259 189.595 211.072 185.791C214.276 184.467 216.287 182.473 217.525 179.05C220.35 171.245 222.488 155.044 219.437 147.427C217.245 141.955 208.617 137.202 203.656 135.065C203.446 131.12 203.593 129.554 204.995 125.846C209.116 125.932 211.975 123.304 210.081 119.245C213.242 114.429 215.355 110.027 209.889 105.997Z" fill="#0C0C0C"/>
<path d="M185.02 197.517L184.853 197.919C183.764 200.571 184.533 202.683 183.677 204.885C183.341 205.75 178.773 206.566 177.894 206.467C174.222 206.444 174.786 202.117 173.308 199.516L172.475 198.014C170.93 201.377 170.497 213.658 170.212 217.902C169.405 229.916 168.806 241.945 168.416 253.982C168.257 258.582 167.507 270.053 167.807 274.011C170.054 275.022 171.096 275.219 173.415 275.391C179.706 275.857 179.375 273.799 179.747 268.517C179.818 267.519 179.928 265.904 180.054 264.846L183.223 238.407C183.967 231.902 185.824 225.336 186.575 218.829C186.98 215.329 186.047 212.523 183.334 210.324L183.18 209.713C183.767 208.881 183.403 209.18 184.294 208.75C188.281 209.277 189.05 220.93 189.514 224.202L191.87 240.458C192.317 243.696 192.775 248.039 193.362 251.17C196.867 250.85 203.624 252.176 207.592 252.007C208.105 251.413 207.921 251.036 207.96 250.025C207.839 245.873 206.923 240.647 207.067 236.782C207.56 223.582 207.286 210.685 206.764 197.502C199.322 199.232 192.529 198.997 185.02 197.517Z" fill="#1C1C1C"/>
<path d="M199.094 199.428C198.564 199.768 198.667 199.727 198.228 200.208C197.546 203.636 202.053 207.248 204.96 208.244C205.74 207.763 205.487 208.083 205.832 207.325C205.504 206.708 204.216 205.894 203.561 205.551C201.202 204.315 200.28 201.842 199.094 199.428Z" fill="#0C0C0C"/>
<path d="M161.14 133.319C160.184 133.21 160.481 133.077 159.746 133.378C159.887 134.175 161.288 135.479 161.916 136.16C162.992 135.46 163.868 134.519 165.078 135.016L165.283 135.523C164.773 137.139 160.169 138.908 158.741 140.233C156.768 142.064 155.047 144.021 153.017 145.771C150.637 143.644 148.849 141.191 146.507 139.027C145.277 138.53 143.788 139.456 142.576 139.702C141.764 139.867 140.567 138.698 139.781 138.118L139.617 138.443C141.387 141.476 147.96 142.118 148.062 145.29L147.757 145.579C146.548 145.505 140.737 141.689 139.422 140.817C136.568 142.358 133.96 143.672 132.83 146.861C130.48 153.499 129.378 160.835 127.964 167.77C126.813 174.529 124.864 181.295 124.418 188.15C123.928 195.694 124.951 195.851 131.551 196.862L133.224 195.333C132.384 191.496 132.709 188.841 132.973 184.912C133.662 174.675 135.669 164.14 134.987 153.885C134.872 152.124 133.796 150.351 134.059 148.52L134.451 148.257L135.02 148.405C135.712 149.231 135.861 150.339 136.135 151.422C138.174 160.201 135.743 171.155 135.264 180.191C134.99 183.716 133.437 194.44 136.009 197.061C138.282 199.376 153.922 200.008 157.606 200.021C160.871 200.031 167.981 200.167 170.22 198.242C172.483 196.296 170.753 186.33 170.792 183.425C170.558 178.596 170.592 174.339 170.666 169.69C169.336 168.412 166.572 163.012 167.502 161.156C169.931 159.515 168.252 160.441 168.46 158.725C170.956 155.942 176.095 157.499 179.226 158.348C178.832 156.423 178.427 154.5 178.007 152.58C176.657 146.562 175.627 145.31 170.612 142.132C167.463 142.671 164.945 143.322 162.006 144.605C161.211 144.953 158.808 146.022 158.062 145.851L157.932 145.442C158.721 143.243 165.165 141.554 167.32 140.955C168.36 140.667 169.434 140.748 170.441 140.216C169.131 137.718 168.088 137.604 167.463 134.744C165.075 133.791 163.658 133.575 161.14 133.319Z" fill="white"/>
<path d="M147.28 178.136C140.998 177.74 143.401 180.069 140.916 184.618C140.114 186.088 138.276 187.805 137.054 189.039C137.026 190.547 136.716 195.439 137.99 196.164C138.935 194.955 138.697 191.348 138.679 189.687C142.361 186.436 143.119 184.362 144.469 179.762L159.13 180.412C159.328 180.458 159.85 180.627 159.915 180.883C160.98 185.192 162.454 188.069 165.485 191.3C165.293 193.271 164.757 196.937 165.472 198.672L165.844 198.621C166.927 196.686 167.03 192.925 167.222 190.606C162.994 186.203 162.712 184.541 161.252 178.82C156.768 178.733 151.795 178.369 147.28 178.136Z" fill="#0C0C0C"/>
<path d="M150.056 144.14C149.602 144.34 149.008 144.529 148.97 145.138C148.747 148.692 146.656 160.986 148.124 163.578C149.21 163.404 149.159 163.355 149.651 162.477C149.354 156.518 149.92 151.394 150.461 145.491C150.51 144.958 150.348 144.58 150.056 144.14Z" fill="#0C0C0C"/>
<path d="M156.94 144.335C153.081 145.506 156.466 155.453 155.167 158.473C154.796 159.343 154.89 159.76 155.036 160.662C155.82 160.829 155.787 160.876 156.538 160.632C156.904 160.143 157.102 159.838 157.076 159.185C156.894 154.386 157.132 149.081 156.94 144.335Z" fill="#0C0C0C"/>
<path d="M175.237 147.416C174.502 147.491 174.156 147.397 173.633 148.104C172.457 149.696 171.36 153.028 171.488 154.999L172.068 154.89C172.931 154.178 174.904 148.758 175.237 147.416Z" fill="#0C0C0C"/>
<path d="M189.56 135.847C182.402 136.968 179.322 137.527 173.836 142.079C180.485 146.819 178.376 151.103 181.341 157.315C182.027 158.758 186.463 163.682 187.969 164.129C188.267 164.068 189.491 163.825 189.689 163.884C193.902 165.147 199.483 167.051 203.491 168.567C203.817 166.471 204.881 155.465 207.094 155.555C207.656 156.852 205.519 167.177 205.18 169.095C206.126 169.481 208.544 170.439 209.004 171.299C208.859 172.044 209.006 171.713 208.452 172.251C207.37 172.169 193.213 166.966 191.095 166.255L188.748 165.477C187.734 167.921 186.752 170.48 185.771 172.947C188.566 175.766 191.51 177.502 194.789 179.455C215.881 192.014 217.45 178.014 218.963 160.544C220.109 147.314 215.587 142.476 203.779 137.054C199.977 140.716 190.714 142.729 189.56 135.847Z" fill="#F2F2F2"/>
<path d="M190.019 108.407C189.566 108.928 188.682 110.861 188.838 111.609C189.927 112.51 191.616 111.665 192.464 112.73C191.653 114.465 190.239 112.825 188.551 113.463C187.303 116.167 186.914 123.221 187.967 126.153C190.175 132.288 193.824 130.88 198.543 129.369C199.251 129.836 199.013 129.534 199.337 130.257L199.103 130.701C197.286 131.992 194.548 132.273 192.377 132.223C191.73 136.092 190.211 137.036 194.706 138.659C197.889 138.751 199.541 138.01 202.043 136.214C201.419 130.855 201.872 128.928 203.936 123.989C204.858 124.162 205.753 124.436 206.731 124.17C208.915 123.575 209.95 120.188 207.279 119.447C206.272 119.168 205.055 120.099 204.181 120.653C203.905 119.743 203.16 116.757 203.33 115.951C205.439 105.904 196.759 111.802 190.309 108.557L190.019 108.407Z" fill="white"/>
<path d="M196.978 123.22C195.07 123.54 191.195 123.252 190.357 124.858C190.456 125.842 190.86 126.176 191.48 126.957C194.508 128.834 198.295 126.965 196.978 123.22Z" fill="#0C0C0C"/>
<path d="M195.951 125.093C194.547 125.113 193.644 125.08 192.254 125.354L192.14 125.769C193.953 126.587 194.523 126.314 195.951 125.093Z" fill="white"/>
<path d="M193.381 115.143C191.959 115.908 190.421 119.18 190.527 120.886C191.129 121.869 190.96 121.571 192.094 122.207C193.009 121.914 192.724 122.192 193.207 121.563C192.967 121.363 191.96 120.549 191.952 120.572C192.616 118.49 193.924 117.259 193.381 115.143Z" fill="#0C0C0C"/>
<path d="M197.648 112.788C197.172 112.861 196.954 113.031 196.493 113.254L196.483 113.739C197.418 114.407 198.781 114.767 199.96 115.287L200.283 115.463L200.783 114.997L200.763 114.376C199.861 113.07 199.223 113.111 197.648 112.788Z" fill="#0C0C0C"/>
<path d="M207.684 120.195C206.376 120.475 204.88 120.782 205.006 122.262C206.466 122.627 207.947 121.951 207.684 120.195Z" fill="#0C0C0C"/>
<path d="M191.196 115.66C189.929 115.217 188.487 114.701 187.879 115.97C188.967 117.016 190.576 117.225 191.196 115.66Z" fill="#0C0C0C"/>
<path d="M198.371 117.708C197.103 117.265 195.661 116.749 195.053 118.018C196.141 119.064 197.75 119.273 198.371 117.708Z" fill="#0C0C0C"/>
<path d="M183.684 172.294C183.433 172.519 183.28 172.752 183.321 173.131C184.092 180.619 185.932 188.176 185.411 195.738C192.457 196.967 199.889 197.622 206.842 195.538C209.826 193.723 209.226 189.192 209.244 186.072C202.246 186.056 185.839 178.656 183.684 172.294Z" fill="#F2F2F2"/>
<path d="M172.77 169.918L172.391 170.179C172.401 178.704 172.347 187.559 173.733 195.981C174.589 201.167 178.158 200.328 181.976 199.096C185.706 195.011 182.094 177.954 181.384 172.376C177.597 171.188 177.131 170.684 172.77 169.918Z" fill="white"/>
<path d="M191.454 98.3844C190.634 98.3379 190.646 98.2718 189.952 98.6748C189.155 99.6575 189.681 100.462 189.437 101.371C188.856 103.542 187.357 101.665 185.991 102.38C185.215 104.155 186.168 107.748 187.403 109.059L187.88 108.955C188.418 108.164 188.136 107.075 188.471 105.807C189.235 105.626 191.96 107.694 193.074 107.958C198.24 109.181 207.159 105.363 204.861 114.658C204.788 115.809 205.022 117.212 205.164 118.381C206.295 117.95 207.072 118.048 207.956 117.79C210.605 117.021 211.902 112.685 211.214 110.28C210.749 108.655 209.716 108.259 208.5 107.541C206.924 99.1079 203.275 101.61 196.726 100.733C194.893 100.488 193.051 99.3219 191.454 98.3844Z" fill="#1C1C1C"/>
<path d="M168.065 279.354C167.381 279.751 166.863 280.143 166.223 280.601C167.304 281.471 168.736 282.298 168.626 283.814C167.263 284.001 165.721 282.224 164.073 282.137L163.927 282.39C164.588 283.012 165.072 283.514 165.682 284.185C165.821 284.95 165.885 284.597 165.464 285.275C164.286 285.278 163.156 284.228 162.141 283.481C161.324 283.501 161.66 283.358 161.08 283.873C161.995 284.661 162.551 285.053 163.238 286.074C163.317 287.065 163.438 286.617 162.805 287.446C161.957 287.341 159.979 285.46 159.159 284.769C157.406 285.38 156.504 285.798 154.977 286.829L154.472 287.592L154.793 288.084C159.11 290.193 172.818 287.971 177.914 286.97L177.543 281.144C172.093 283.186 172.698 281.942 168.065 279.354Z" fill="white"/>
<path d="M136.44 199.335C136.004 200.092 136.368 201.598 136.475 202.665C143.57 204.826 162.477 206.277 169.223 203.904L169.71 200.579C161.301 202.76 144.664 201.859 136.44 199.335Z" fill="white"/>
<path d="M173.382 158.911C172.39 158.861 171.645 158.831 170.758 159.294C172.303 160.27 175.613 159.392 177.002 161.311C176.108 162.676 170.791 161.1 169.177 162.204C170.966 162.954 176.236 162.5 176.556 164.33C175.198 165.365 172.321 164.475 169.964 164.762C170.417 165.491 175.355 165.706 176.223 166.27C176.618 166.524 176.487 166.588 176.651 167.242C175.104 167.603 171.788 167.375 169.792 167.476C171.827 168.002 174.027 168.279 176.136 168.815C179.162 169.581 181.435 170.735 184.558 170.935L186.667 165.747C185.068 164.47 183.359 162.211 181.858 161.156C180.302 160.062 175.368 159.196 173.382 158.911Z" fill="white"/>
<path d="M159.034 137.725C157.691 137.004 156.538 136.617 155.119 136.102C154.422 136.619 153.838 137.16 153.038 137.427C151.611 137.871 150.238 138.276 148.846 138.827C150.281 140.355 151.632 141.801 152.997 143.39C154.358 142.039 156.19 140.111 157.622 138.922C158.309 138.69 158.555 138.278 159.034 137.725Z" fill="white"/>
<path d="M159.034 137.725C157.691 137.004 156.538 136.617 155.119 136.102C154.422 136.619 153.838 137.16 153.038 137.427C154.983 137.676 155.882 138.005 157.622 138.922C158.309 138.69 158.555 138.278 159.034 137.725Z" fill="#1C1C1C"/>
<path d="M177.983 288.895C172.136 289.189 164.573 291.57 158.124 290.62C156.922 290.444 154.342 289.742 153.65 289.917L153.632 290.667C155.554 291.596 159.266 292.2 161.36 291.998C164.48 291.693 176.689 291.714 177.983 288.895Z" fill="white"/>
<path d="M159.034 137.725C159.828 137.3 159.656 137.59 159.933 136.969C158.977 134.478 154.972 130.344 152.059 131.548C151.324 132.476 151.974 132.827 152.061 134.657C151.703 135.305 151.598 135.447 151.372 136.168C152.994 135.535 153.415 135.652 155.119 136.102C156.538 136.617 157.691 137.004 159.034 137.725Z" fill="#B5FE28"/>
<path d="M170.71 276.961C170.056 276.776 169.913 276.792 169.475 277.209C169.523 277.895 170.046 278.464 170.669 278.904C172.68 280.332 172.447 280.496 174.602 280.399C175.465 280.104 175.596 280.133 176.259 279.487C176.613 278.625 176.623 278.691 176.475 277.775C175.337 276.6 173.292 277.212 171.081 276.999L170.71 276.961Z" fill="white"/>
<path d="M182.299 200.841C179.865 201.555 178.709 201.611 176.232 201.69L176.724 204.681C178.917 204.583 180.257 204.35 182.386 203.915L182.299 200.841Z" fill="white"/>
<path d="M125.869 197.523H125.551C125.128 198.291 125.159 199.207 125.074 200.134C126.786 200.656 128.405 200.894 130.165 201.196C130.45 200.646 130.865 199.217 131.078 198.562C128.912 198.28 127.929 198.16 125.869 197.523Z" fill="white"/>
<path d="M148.882 129.994C148.323 130.199 148.577 130.05 148.187 130.545C148.198 132.342 148.92 133.924 149.573 135.59L150.25 134.885C150.757 133.382 149.568 131.426 148.882 129.994Z" fill="white"/>
<path d="M146.397 131.384C145.823 131.702 146.003 131.585 145.534 132.069C145.38 133.788 146.5 135.402 147.337 136.935L147.683 136.984L147.924 136.577C147.714 134.991 146.93 132.949 146.397 131.384Z" fill="white"/>
<path d="M143.558 132.83L143.265 133.056C142.722 134.349 143.663 136.898 144.813 137.671L145.282 137.04C144.992 135.649 144.178 134.143 143.558 132.83Z" fill="white"/>
<path d="M141.49 134.658C140.501 136.147 141.147 136.948 142.169 138.143L142.377 137.886C142.448 136.99 141.818 135.569 141.49 134.658Z" fill="white"/>
<path d="M96.6436 135.716L83.0945 134.888C80.9858 134.759 78.8412 134.592 76.735 134.542C69.9682 134.374 70.2013 138.515 69.9118 143.656C69.0611 158.664 68.0004 173.666 67.283 188.68C67.2215 189.96 67.3444 193.383 68.2412 194.223C70.9854 196.795 76.9041 196.445 80.5527 196.634L93.1 197.361C93.7534 197.348 94.458 197.384 95.1139 197.402C96.7 197.54 98.9137 197.517 100.261 197.942C100.746 198.605 100.541 198.267 100.636 199.23C100.728 198.702 100.792 198.426 100.92 197.911C101.614 197.517 101.573 197.696 102.583 197.868C103.413 197.965 104.246 198.052 105.078 198.129C114.136 198.918 112.801 192.387 113.177 185.378C113.431 180.212 113.741 175.049 114.1 169.888C115.878 168.543 119.914 166.141 120.477 164.426C120.354 162.82 116.283 159.286 114.828 157.809C114.984 153.282 115.384 148.608 115.742 144.096C116.347 136.466 111.725 136.506 105.937 136.345C105.281 136.404 104.72 136.517 104.095 136.335C102.101 136.158 100.41 136.041 98.4115 135.987L96.6436 135.716Z" fill="#1C1C1C"/>
<path d="M80.5702 136.448C75.9454 136.023 72.1712 135.024 71.7408 140.709C70.5698 155.984 70.0369 171.311 68.9146 186.589C68.8249 189.64 68.0332 194.082 72.307 194.363C84.206 195.152 96.4305 196.214 108.345 196.598C109.441 196.124 110.564 195.523 110.81 194.253C111.358 191.419 111.414 188.355 111.576 185.47L112.401 169.309C113.869 167.812 117.11 165.632 118.973 164.207C117.333 162.763 114.676 160.06 113.292 158.442C113.3 154.985 114.984 141.641 113.241 139.558C112.588 138.779 111.714 138.528 110.748 138.345C107.597 137.75 104.117 137.794 100.914 137.597L80.5702 136.448Z" fill="white"/>
<path d="M81.6803 141.019C80.3607 140.952 78.8029 140.908 77.6704 141.695C76.7121 142.361 76.5738 143.396 76.4021 144.479C75.7718 148.471 74.8519 161.603 75.1543 165.42C75.2388 166.451 75.4848 168.438 76.2894 169.199C77.7396 170.566 98.5577 171.18 101.894 171.337C103.085 171.362 106.508 171.377 106.929 170.238C108.369 166.329 110.157 145.708 107.715 143.003C104.812 141.938 86.0668 141.236 81.6803 141.019Z" fill="#1C1C1C"/>
<path d="M82.1696 142.551C81.1217 142.464 78.2059 142.302 78.1059 143.767C77.8267 147.813 75.7026 164.849 77.2963 167.822C79.3589 168.833 98.5372 169.555 101.804 169.652L102.824 169.665C103.587 169.678 105.783 169.77 105.916 168.669C106.444 164.252 108.489 147.759 106.952 144.5C104.851 143.397 85.4442 142.727 82.1696 142.551Z" fill="#B5FE28"/>
<path d="M97.0174 162.276C97.7681 164.019 98.6214 164.966 100.697 164.587C102.524 163.078 99.5284 152.961 98.2934 151.078C89.8022 138.14 84.0192 154.355 81.9284 161.711C81.7849 162.669 81.7132 162.205 82.2846 163.123C84.565 164.529 85.6693 162.641 86.6891 160.909C86.5815 161.767 86.2458 163.396 86.7352 164.117C87.965 165.924 91.4702 165.453 93.4995 165.465C96.1821 165.687 96.6587 165.163 96.7612 162.501L97.0174 162.276Z" fill="#B5FE28"/>
<path d="M97.0174 162.276C97.7681 164.019 98.6214 164.966 100.697 164.587C102.524 163.078 99.5284 152.961 98.2934 151.078C89.8022 138.14 84.0192 154.355 81.9284 161.711C82.5792 162.293 82.2052 162.052 83.2403 162.233C83.8219 159.744 86.5148 151.683 88.4672 150.265C89.4614 150.099 91.2063 151.419 92.1517 152.023C93.3509 151.389 94.181 150.94 95.4647 150.449C97.9501 150.844 99.8871 160.531 99.636 162.726L99.3004 162.974C98.4241 162.4 98.5727 162.254 98.0192 161.158C97.1148 161.543 97.4837 161.23 97.0174 162.276Z" fill="#0C0C0C"/>
<path d="M92.9079 148.124C92.6081 148.103 92.3109 148.087 92.0111 148.076C91.1092 148.051 90.8248 148.026 90.2688 148.542C90.4763 149.361 91.4397 149.954 92.1494 150.524C92.8335 150.503 94.2505 149.546 94.5477 148.811C93.984 148.177 93.9456 148.354 92.9079 148.124Z" fill="#B5FE28"/>
<path d="M87.9107 163.683C87.921 161.625 89.0688 154.865 87.9005 153.74C86.5476 154.424 86.6993 161.957 83.2403 162.233C82.2052 162.052 82.5792 162.293 81.9284 161.711C81.7849 162.669 81.7132 162.205 82.2846 163.123C84.565 164.529 85.6693 162.641 86.6891 160.909C86.5815 161.767 86.2458 163.396 86.7352 164.117C87.965 165.924 91.4702 165.453 93.4995 165.465C94.6986 165.217 95.0593 165.386 95.6333 164.661C95.6538 164.073 95.664 163.641 95.8408 163.073L95.4027 162.999L95.2771 163.767C94.1421 164.536 89.4378 163.85 87.9107 163.683Z" fill="#1C1C1C"/>
<path d="M98.0192 161.158C97.3326 159.465 97.0732 155.343 96.1688 154.682C95.3079 155.562 95.5462 161.185 95.4027 162.999L95.8408 163.073C95.664 163.641 95.6538 164.073 95.6333 164.661C95.0593 165.386 94.6986 165.217 93.4995 165.465C96.1821 165.687 96.6587 165.163 96.7612 162.501L97.0174 162.276C97.4837 161.23 97.1148 161.543 98.0192 161.158Z" fill="#1C1C1C"/>
<path d="M96.6 186.325C95.2882 186.236 93.0104 185.903 91.7036 186.453C86.9455 188.45 89.5104 191.525 93.551 191.699C94.8808 191.758 97.1151 191.955 98.6216 192.062C99.7823 192.098 109.322 193.688 105.65 187.518C105.048 186.507 98.4397 186.423 96.6 186.325Z" fill="#B5FE28"/>
<path d="M77.9821 174.811C76.8547 174.716 76.3909 174.54 75.8144 175.602L76.1526 176.083C78.1179 176.859 99.7354 177.755 103.53 177.993C104.711 178.103 106.254 178.405 106.835 177.082C105.7 176.068 80.9184 174.985 77.9821 174.811Z" fill="#1C1C1C"/>
<path d="M84.5344 180.445C83.5069 180.478 83.9451 180.317 83.1508 180.87L83.0662 181.443C83.963 182.326 89.2617 182.373 90.7632 182.46L105.068 183.271C105.847 183.312 106.044 183.125 106.508 182.629L106.372 182.227C104.914 181.3 87.4835 180.583 84.5344 180.445Z" fill="#1C1C1C"/>
<path d="M254.21 116.793C251.853 114.053 250.175 114.755 248.297 117.522C245.75 118.01 233.271 119.508 232.351 120.928C232.106 121.305 232.132 121.749 232.12 122.178C232.955 124.01 234.831 123.934 236.632 123.716C240.305 123.272 244.028 122.734 247.684 122.177L248.077 121.841C247.75 121.045 247.956 121.416 247.135 120.822C244.534 120.71 235.078 122.898 233.872 122.248L233.881 121.814C234.799 120.949 245.866 119.569 247.854 119.225C248.649 120.673 250.606 123.257 250.504 124.378L246.898 126.69C246.33 126.476 246.1 126.347 245.564 126.055C243.354 126.001 237.892 130.497 236.14 131.986C235.343 132.664 234.547 134.859 234.274 135.968C231.656 146.596 229.756 157.614 228.224 168.44C227.871 170.938 233.083 172.036 234.877 172.359C234.729 174.54 234.577 175.569 236.263 177.279C239.887 180.96 245.254 179.373 249.793 179.555C251.057 179.603 252.87 180.169 253.843 180.026L254.114 180.875L254.261 179.539C254.859 164.692 256.402 148.883 257.393 133.939C257.695 133.194 257.635 131.403 257.651 130.513C257.865 129.353 257.993 126.929 258.095 125.661C258.043 123.765 258.499 119.01 258.642 116.968L258.747 115.653C257.228 116.008 255.716 116.389 254.21 116.793Z" fill="white"/>
<path d="M254.21 116.793C251.853 114.053 250.175 114.755 248.297 117.522C245.75 118.01 233.271 119.508 232.351 120.928C232.106 121.305 232.132 121.749 232.12 122.178C232.955 124.01 234.831 123.934 236.632 123.716C240.305 123.272 244.028 122.734 247.684 122.177L248.077 121.841C247.75 121.045 247.956 121.416 247.135 120.822C244.534 120.71 235.078 122.898 233.872 122.248L233.881 121.814C234.799 120.949 245.866 119.569 247.854 119.225C248.649 120.673 250.606 123.257 250.504 124.378L246.898 126.69C246.33 126.476 246.1 126.347 245.564 126.055C243.354 126.001 237.892 130.497 236.14 131.986C235.343 132.664 234.547 134.859 234.274 135.968C231.656 146.596 229.756 157.614 228.224 168.44C227.871 170.938 233.083 172.036 234.877 172.359C234.729 174.54 234.577 175.569 236.263 177.279C239.887 180.96 245.254 179.373 249.793 179.555C251.057 179.603 252.87 180.169 253.843 180.026L254.114 180.875L254.261 179.539C248.188 175.299 242.381 181.656 236.236 174.957C236.562 169.504 239.852 143.708 238.99 140.562C237.293 142.617 235.729 166.046 235.019 170.718C232.382 170.357 231.899 170.198 229.639 168.844C230.715 159.192 233.111 147.957 235.073 138.427C236.132 133.285 237.224 132.497 241.449 129.969C243.148 131.897 247.666 137.601 249.357 138.95C248.883 145.226 248.496 151.51 248.195 157.797C248.092 159.734 247.159 171.447 248.131 172.528L248.731 172.553C249.316 171.923 249.874 147.607 250.342 144.616C250.233 143.119 250.793 141.614 250.871 140.162C250.984 138.076 255.161 132.659 257.239 132.194C257.311 132.808 257.352 133.326 257.393 133.939C257.695 133.194 257.635 131.403 257.651 130.513C257.865 129.353 257.993 126.929 258.095 125.661C258.043 123.765 258.499 119.01 258.642 116.968L258.747 115.653C257.228 116.008 255.716 116.389 254.21 116.793Z" fill="#747572"/>
<path d="M258.642 116.968C255.266 117.948 252.713 118.328 249.317 119.044C251.483 121.711 251.591 121.565 252.467 124.782C254.134 125.731 255.654 126.873 257.483 127.033C258.022 126.634 257.887 126.505 258.095 125.661C258.043 123.765 258.499 119.01 258.642 116.968Z" fill="white"/>
<path d="M257.9 119.393C256.609 119.413 253.615 119.384 252.8 120.422L252.922 121.393C254.253 121.236 256.378 121.085 257.506 120.428C257.884 120.209 257.784 119.998 257.9 119.393Z" fill="#747572"/>
<path d="M257.651 130.513L257.499 129.065L257.165 128.814C256.396 129.33 255.962 129.866 255.334 130.539C253.143 130.551 250.033 130.408 247.986 130.623L249.222 134.041L250.105 137.534C251.67 135.044 254.497 130.803 257.651 130.513Z" fill="white"/>
<path d="M251.545 126.062C250.188 126.329 248.393 127.07 247.452 128.122L247.54 128.614C248.519 129.203 249.723 128.931 250.93 128.848C252.266 128.889 253.82 129.063 255.043 128.652L255.16 128.27C254.249 127.34 252.739 126.684 251.545 126.062Z" fill="white"/>
<path d="M245.351 127.467C244.049 127.991 243.611 128.273 242.419 129.036C243.941 130.699 245.425 132.396 246.869 134.127L248.321 135.754L245.351 127.467Z" fill="white"/>
<path d="M209.704 249.408C209.621 250.724 209.834 251.72 209.1 252.462L208.587 252.342C208.126 251.418 208.164 251.272 208.091 250.21L207.96 250.025C207.921 251.036 208.105 251.413 207.592 252.007C203.624 252.176 196.867 250.85 193.362 251.17C192.209 251.479 192.524 251.579 191.615 251.213C185.283 254.897 182.517 258.529 185.868 266.247C187.413 269.805 193.562 270.812 193.933 271.382C194.07 273.428 194.127 275.092 194.828 277.048C195.902 277.204 196.224 277.322 197.254 277.094C199.358 277.078 201.386 277.48 203.756 277.462L204.152 277.46L204.39 277.457C205.983 277.13 206.728 276.738 208.072 275.87C208.383 274.475 207.885 273.835 208.318 272.268C209.011 271.792 208.608 271.956 209.763 272.166C217.099 272.391 224.83 273.796 232.152 273.338C236.475 273.069 239.847 268.991 240.282 264.747C240.555 262.067 239.744 259.389 238.03 257.313C234.595 253.227 227.871 253.565 222.74 253.202L220.716 253.104C217.43 252.677 213.312 252.516 209.903 252.213C209.866 251.243 209.791 250.376 209.704 249.408Z" fill="#1C1C1C"/>
<path d="M195.661 271.672C195.443 271.132 195.568 271.319 195.084 270.947C194.218 270.976 194.587 270.829 193.933 271.382C194.07 273.428 194.127 275.092 194.828 277.048C195.902 277.204 196.224 277.322 197.254 277.094C199.358 277.078 201.386 277.48 203.756 277.462L204.152 277.46L204.39 277.457C205.983 277.13 206.728 276.738 208.072 275.87C207.927 274.992 207.934 272.965 207.91 271.994C205.358 271.808 198.049 271.063 196.007 271.226L195.661 271.672Z" fill="#1C1C1C"/>
<path d="M195.661 271.672C195.443 271.132 195.568 271.319 195.084 270.947C194.218 270.976 194.587 270.829 193.933 271.382C194.07 273.428 194.127 275.092 194.828 277.048C195.902 277.204 196.224 277.322 197.254 277.094C195.882 275.468 195.945 273.827 195.661 271.672Z" fill="#0C0C0C"/>
<path d="M196.695 252.884C193.887 252.638 191.671 252.633 189.317 254.443C187.511 255.836 186.358 257.909 186.127 260.177C185.896 262.376 186.478 264.634 187.931 266.329C189.035 267.589 190.493 268.487 192.116 268.904C194.801 269.621 202.695 270.01 205.78 270.228L228.022 271.777C233.33 272.342 238.241 270.192 238.64 264.294C238.771 262.056 238.013 259.86 236.53 258.181C233.442 254.681 223.986 254.937 219.328 254.599L196.695 252.884Z" fill="white"/>
<path d="M231.692 257.438C228.223 256.591 224.719 258.693 223.835 262.149C222.95 265.604 225.016 269.13 228.466 270.049C230.73 270.653 233.144 269.995 234.788 268.326C236.431 266.657 237.051 264.235 236.41 261.982C235.77 259.729 233.968 257.996 231.692 257.438Z" fill="#B5FE28"/>
<path d="M195.83 257.748C195.052 257.677 194.779 257.694 194.017 257.728C193.176 258.281 193.391 257.917 193.078 258.695C193.981 259.402 214.108 260.628 216.651 260.818C218.08 260.984 218.964 261.324 219.985 260.142L219.905 259.768C218.639 259.018 198.96 257.956 195.83 257.748Z" fill="#1C1C1C"/>
<path d="M206.808 263.633C205.49 263.472 203.919 263.07 203.417 264.401L203.632 264.857C205.877 265.476 213.518 265.722 216.316 265.868C217.326 266.004 218.265 266.252 219.187 265.878C219.644 265.22 219.597 265.563 219.486 264.854C218.236 264.076 208.937 263.779 206.808 263.633Z" fill="#1C1C1C"/>
<path d="M197.254 277.094C196.224 277.322 195.902 277.204 194.828 277.048C191.343 277.042 187.959 277.181 185.327 279.879C180.3 285.034 182.393 294.97 189.875 296.352C199.35 297.714 209.256 297.926 218.82 298.845C222.534 299.009 226.637 299.749 230.33 299.368C235.693 298.812 239.162 293.403 238.362 288.083C236.708 277.088 222.11 280.119 214.291 278.788C212.512 278.484 209.635 278.724 207.993 278.153C207.096 278.302 205.466 277.951 204.547 277.772L204.39 277.457L204.152 277.46L203.756 277.462C201.386 277.48 199.358 277.078 197.254 277.094Z" fill="#1C1C1C"/>
<path d="M193.198 278.742C183.046 278.018 181.017 291.476 189.291 294.555C191.82 295.497 200.162 295.797 203.365 296.04L227.273 297.876C232.117 297.865 236.492 295.866 236.85 290.416C236.998 288.145 236.225 285.91 234.705 284.216C231.494 280.688 221.941 280.947 217.341 280.601L193.198 278.742Z" fill="white"/>
<path d="M229.766 283.388C226.247 282.605 222.759 284.827 221.981 288.344C221.203 291.862 223.432 295.343 226.954 296.114C230.467 296.882 233.941 294.662 234.716 291.153C235.492 287.646 233.277 284.172 229.766 283.388Z" fill="#747572"/>
<path d="M192.968 283.606L191.97 283.578C191.134 284.075 191.34 283.732 191.108 284.49C192.388 285.613 212.692 286.532 216.033 286.788C217.023 286.85 217.437 287.019 217.925 286.097L217.638 285.644C215.974 284.909 196.656 283.875 192.968 283.606Z" fill="#747572"/>
<path d="M206.318 289.748C205.601 289.881 205.926 289.751 205.383 290.255L205.418 290.775C206.683 291.735 214.659 291.909 216.653 291.978L217.304 291.875L217.67 291.374L217.546 290.928C216.213 290.089 208.477 289.871 206.318 289.748Z" fill="#747572"/>
<path d="M136.724 122.64C136.914 118.238 138.528 94.5734 136.939 91.8133C136.535 91.1111 135.996 90.957 135.246 90.7699C131.323 89.7958 125.791 89.7743 121.643 89.3865C118.481 89.0908 115.224 88.4802 112.063 88.4022C111.138 88.3794 110.118 88.3417 109.295 88.8179L109.439 89.1998C112.982 90.9078 130.777 91.1426 136.089 92.5309C136.488 101.155 135.387 113.429 135.348 122.497C133.48 122.277 131.607 122.084 129.734 121.917C129.914 114.429 130.313 111.707 126.585 105.141C134.959 96.3646 120.167 91.3192 117.671 98.9016C117 100.94 119.139 103.848 120.333 105.502C114.269 109.48 117.664 109.742 114.702 113.821C113.036 114.707 113.093 112.813 111.35 112.286L110.92 112.607C110.587 113.607 110.582 113.129 110.871 114.091C111.758 115.019 111.914 115.038 113.108 115.598L113.029 120.858C111.143 120.686 109.331 120.625 107.438 120.552C107.299 120.283 107.195 118.683 107.156 118.269C106.78 120.835 106.813 123.659 106.582 126.287C106.516 127.184 106.421 128.128 106.449 129.021L106.825 127.089C107.387 126.991 108.14 127.301 108.752 127.358C117.192 128.127 125.678 128.525 134.136 129.057C135.328 129.132 137.339 129.334 138.489 129.23C139.145 129.174 139.771 128.921 140.283 128.503C141.82 127.259 141.961 125.068 140.621 123.672C139.563 122.572 138.118 122.711 136.724 122.64Z" fill="#747572"/>
<path d="M107.156 118.269C106.78 120.835 106.813 123.659 106.582 126.287C111.856 124.643 134.951 129.044 139.297 127.478C139.776 126.564 139.73 125.483 139.791 124.431C135.868 124.057 108.629 122.429 107.543 121.614L107.438 120.552C107.299 120.283 107.195 118.683 107.156 118.269Z" fill="white"/>
<path d="M124.887 96.9213C113.949 96.2166 122.058 103.306 121.561 105.998C120.644 107.534 119.05 107.858 118.215 109.263C116.48 112.179 117.8 113.922 114.679 115.896C114.659 117.586 114.515 119.215 114.384 120.898L117.623 121.142C120.79 121.215 124.979 121.639 128.182 121.922C128.7 113.952 128.587 112.013 125.071 105.134C127.267 101.56 129.527 99.6067 124.887 96.9213Z" fill="white"/>
<path d="M238.134 187.05C233.17 188.555 228.493 191.502 226.579 196.493C225.539 196.419 224.795 196.263 223.836 196.611C223.294 197.208 223.215 197.361 223.158 198.334C222.882 202.986 222.679 207.744 222.439 212.393L220.73 245.215C218.853 244.191 213.012 241.231 211.32 243.361C211.506 245.007 214.638 244.152 215.94 244.621C217.58 245.212 219.124 246.146 220.658 246.963C220.513 248.827 220.215 251.323 220.716 253.104L222.74 253.202C221.399 251.727 222.566 237.297 222.693 234.675L224.724 198.293C228.206 199.576 248.872 206.283 251.618 205.712L251.648 205.361C249.688 203.69 233.432 199.468 229.617 198.319C233.321 198.221 237.733 198.751 241.495 199.036C245.255 199.348 249.032 199.422 252.802 199.255L252.972 197.735L252.547 198.091C250.968 197.907 249.793 197.761 248.199 197.75C248.157 195.493 248.309 189.684 247.063 188.317C245.672 188.048 243.636 189.016 241.992 188.629C240.594 188.302 239.528 187.521 238.134 187.05Z" fill="#747572"/>
<path d="M238.494 188.788C237.684 188.875 237.428 188.967 236.654 189.185C236.844 190.147 238.305 190.255 238.728 191.481C237.438 192.497 236.06 190.193 234.544 190.319C234.212 191.509 236.307 191.107 236.718 192.881C236.363 193.624 236.637 193.398 235.938 193.654C234.143 192.697 233.981 192.218 231.439 191.038C232.491 192.118 233.621 192.53 233.849 194.025L233.479 194.258C232.435 194.13 231.756 193.47 230.874 192.827C230.24 193.406 229.646 194.097 229.068 194.737C228.746 195.418 228.73 195.579 228.556 196.296C229.887 196.749 240.312 197.412 242.21 197.502C243.248 194.118 243.387 194.269 246.16 192.19C246.348 191.345 246.24 191.102 246.067 190.27C245.58 189.855 243.95 189.965 243.322 190.052C241.145 190.349 240.389 189.763 238.494 188.788Z" fill="white"/>
<path d="M246.557 193.732C244.824 194.448 244.301 196.064 243.778 197.702C244.92 197.753 245.525 197.92 246.412 197.344C246.869 196.391 246.626 194.853 246.557 193.732Z" fill="white"/>
<path d="M209.763 272.166C208.608 271.956 209.011 271.792 208.318 272.268C207.885 273.835 208.383 274.475 208.072 275.87C206.728 276.738 205.983 277.13 204.39 277.457L204.547 277.772C205.466 277.951 207.096 278.302 207.993 278.153C210.36 276.479 209.86 274.815 209.763 272.166Z" fill="#0C0C0C"/>
<path d="M248.101 266.04C247.227 264.781 243.145 262.029 241.614 262.968L241.609 263.444C242.798 264.627 244.09 265.16 245.624 265.73C247.85 266.562 247.657 265.38 247.945 267.745L248.101 266.04Z" fill="#747572"/>
<path d="M134.178 302.55C125.54 301.367 120.665 312.083 126.145 318.327C129.386 322.019 136.315 321.688 141.006 322.036L158.875 323.36L224.612 328.549C230.248 328.715 235.075 326.772 235.829 320.493C236.175 317.815 235.388 315.112 233.655 313.038C230.984 309.89 228.233 309.951 224.409 309.6C222.326 309.408 220.223 309.267 218.137 309.104L198.436 307.586L134.178 302.55Z" fill="#1C1C1C"/>
<path d="M136.786 304.383C131.313 303.922 126.243 304.649 125.502 311.049C124.362 320.866 135.797 319.976 141.711 320.413L158.77 321.732L223.817 326.836C228.77 327.358 233.266 326.017 234.089 320.449C234.424 318.26 233.821 316.033 232.429 314.313C229.459 310.652 222.578 311.075 218.1 310.734L200.255 309.37L136.786 304.383Z" fill="white"/>
<path d="M128.92 42.4942C122.893 42.1248 118.276 40.6746 118.571 48.8588C118.694 52.2218 117.487 55.3004 120.616 57.587C122.737 58.0286 126.867 58.1033 129.191 58.2019C134.003 58.4177 138.815 58.5997 143.63 58.7479C145.482 58.8564 149.83 59.5648 151.298 58.2764C152.492 57.2286 152.805 55.0882 152.943 53.6016C153.161 51.2488 153.973 46.0249 152.149 44.2683C150.512 42.6893 132.328 42.6489 128.92 42.4942Z" fill="#B5FE28"/>
<path d="M128.164 47.0101C126.716 46.9806 125.54 46.9038 124.1 47.1273C124.761 47.9014 125.907 47.8769 127.011 48.7367C126.368 49.6819 125.138 49.3232 124.228 50.1726C124.997 50.5794 126.178 50.5704 127.09 50.7189L126.819 52.0972C125.891 52.731 125.538 52.0867 123.98 52.4576L123.811 52.8388C124.487 53.3001 126.893 53.316 127.908 53.3915C127.944 51.3131 128.077 49.098 128.164 47.0101Z" fill="#0C0C0C"/>
<path d="M129.888 46.8762L129.427 47.2441C129.325 48.3226 130.114 52.3325 131.116 53.1322C131.428 53.38 131.623 53.219 132.013 53.1345C133.061 52.1802 133.33 50.9734 133.832 49.6069C134.29 48.5553 134.449 48.3812 134.388 47.2809L134.142 47.2203C132.666 48.5084 132.218 50.5759 131.713 52.4047C131.344 50.8106 130.844 48.1283 129.888 46.8762Z" fill="#0C0C0C"/>
<path d="M147.421 49.1718C146.778 48.8964 146.038 48.9911 145.484 49.4191C144.933 49.8474 144.657 50.5414 144.764 51.2313C144.874 51.9212 145.348 52.498 146.004 52.7373C146.98 53.0932 148.064 52.6078 148.449 51.6425C148.83 50.6768 148.377 49.5817 147.421 49.1718Z" fill="#0C0C0C"/>
<path d="M141.828 47.2822L141.077 47.5753C140.424 48.4905 140.534 51.5988 140.524 52.8263C139.578 52.7946 138.412 52.6212 137.633 53.0623L137.454 53.7609C138.697 53.8835 140.326 53.9335 141.602 54.007C141.725 51.7673 141.802 49.5252 141.828 47.2822Z" fill="#0C0C0C"/>
<path d="M136.781 47.0152C136.386 47.1539 136.035 47.1785 135.897 47.4788C135.272 48.8458 135.377 52.5549 135.659 53.9501L136.194 53.7722C136.924 52.7587 136.924 48.3459 136.781 47.0152Z" fill="#0C0C0C"/>
<path d="M166.953 54.3041C166.525 54.5253 166.507 54.59 166.136 54.909C165.59 56.8 164.97 68.1959 164.793 70.8109C162.085 72.0558 162.203 73.033 161.793 75.7706C159.018 77.5173 149.297 84.7473 148.18 88.105C147.37 90.5331 156.617 91.3459 158.536 91.6042C159.876 93.2799 160.353 93.7676 162.29 94.669C165.157 95.0655 166.497 94.381 168.488 92.4098C171.14 92.2757 178.514 92.8854 179.685 90.54C179.534 87.1189 171.44 79.3118 168.724 76.6783C168.657 75.093 168.478 73.9162 168.25 72.3487C167.596 71.7182 167.027 71.3629 166.287 70.854C166.52 68.133 167.947 55.8659 166.953 54.3041Z" fill="#747572"/>
<path d="M165.349 77.4776C165.096 77.4622 164.844 77.4497 164.591 77.4405C160.01 77.2866 154.347 83.5411 150.844 86.7497C155.508 86.1238 158.675 85.9464 163.315 86.3005C167.855 86.5083 172.493 87.6739 176.995 88.3059C174.14 84.6101 169.874 78.4122 165.349 77.4776Z" fill="white"/>
<path d="M164.642 88.0205C162.912 87.8173 161.127 87.8383 159.382 87.8155L159.418 88.0292L159.482 88.3848C159.971 91.1785 160.191 91.8177 162.692 93.1755C166.236 93.6174 167.448 91.4934 168.201 88.4831C167.104 88.2709 165.769 88.1516 164.642 88.0205Z" fill="white"/>
<path d="M165.662 72.4398C164.102 72.7162 162.859 74.3761 163.71 75.7685L164.53 75.7992C165.824 76.0096 165.824 76.2364 166.779 75.7802C167.589 74.2653 166.961 73.347 165.662 72.4398Z" fill="white"/>
<path d="M170.479 88.7675L169.882 88.8003C169.51 89.43 169.208 90.0572 169.733 90.6593C171.371 90.9563 174.404 90.7276 176.17 90.6575C176.592 90.6626 176.359 90.6972 176.856 90.4791C175.939 89.6904 171.778 89.0163 170.479 88.7675Z" fill="white"/>
<path d="M157.967 87.7905C156.737 87.8455 151.854 87.949 150.975 88.4958L151.575 88.7728C153.23 89.0444 156.914 90.4554 158.057 89.2522L157.967 87.7905Z" fill="white"/>
<path d="M246.912 46.8648C243.739 46.2596 240.486 47.4126 238.404 49.8807C236.323 52.349 235.737 55.7473 236.871 58.7691C238.007 61.7909 240.686 63.965 243.879 64.4555C248.693 65.1948 253.214 61.9444 254.041 57.1481C254.868 52.3518 251.697 47.7776 246.912 46.8648Z" fill="#1C1C1C"/>
<path d="M245.939 48.4028C241.971 48.0001 238.422 50.8752 237.997 54.8378C237.571 58.8001 240.429 62.3617 244.392 62.8092C248.387 63.2603 251.987 60.3772 252.416 56.3829C252.845 52.3886 249.939 48.8086 245.939 48.4028Z" fill="#B5FE28"/>
<path d="M259.774 70.9158C258.157 70.9527 253.511 73.41 251.729 74.0843C242.536 77.5607 233.48 82.1929 224.207 85.337C223.48 85.5838 215.349 84.6883 213.927 84.557L191.112 82.4382C188.835 82.2206 179.36 80.7286 177.966 81.9369C179.191 83.3784 189.717 83.7939 192.166 84.0328L223.513 86.9562C223.453 89.8044 223.255 92.6854 223.089 95.5321C222.851 100.817 219.955 140.789 220.757 142.377L221.319 142.41C221.44 142.259 221.561 142.107 221.682 141.956C222.865 126.133 223.853 101.79 225.097 86.9063C234.353 82.741 250.141 76.774 259.683 72.097C259.96 71.9615 259.804 71.4058 259.774 70.9158Z" fill="#747572"/>
<path d="M112.765 278.934L112.458 278.973C106.119 279.843 107.195 285.406 110.216 289.346C111.886 291.524 113.388 292.922 115.579 294.56C117.37 293.593 118.23 293.088 119.873 291.898C122.64 289.538 126.478 285.273 124.016 280.895C123.591 280.145 122.34 279.856 121.561 279.633C119.586 279.067 118.136 280.268 116.555 281.312L115.23 280.237C114.164 279.369 114.141 279.316 112.765 278.934Z" fill="#1C1C1C"/>
<path d="M113.267 280.631C111.537 280.452 109.295 281.223 109.454 283.309C109.743 287.113 113.044 290.351 115.708 292.745C117 291.885 118.214 290.984 119.465 290.065C121.076 288.567 123.572 285.984 123.029 283.76C121.745 278.483 118.158 281.791 116.495 284.108C115.378 282.725 114.663 281.74 113.267 280.631Z" fill="#B5FE28"/>
<path d="M119.97 260.221C116.68 259.924 116.926 261.148 114.656 261.79C114.623 261.801 112.071 260.167 111.205 260.198C108.847 260.285 106.854 261.575 106.813 264.048C106.867 267.389 108.704 269.399 110.849 271.582C111.914 272.545 113.964 274.634 115.445 274.183C117.772 273.42 120.15 270.947 121.415 268.848C123.557 265.298 123.667 262.364 119.97 260.221Z" fill="#1C1C1C"/>
<path d="M119.483 261.709C116.736 261.739 116.449 262.738 114.881 264.75C114.146 263.897 112.603 262.023 111.512 262.057C106.052 262.231 109.078 267.269 110.638 269.138C112.191 270.668 113.257 271.549 114.991 272.847C118.274 270.602 124.249 265.369 119.483 261.709Z" fill="#B5FE28"/>
<path d="M126.104 245.626C123.462 245.283 120.818 246.254 120.854 249.331C120.903 253.37 123.68 256.655 126.329 259.417C127.664 258.989 128.733 258.49 130.004 257.919C132.894 256.143 137.926 252.556 134.662 247.818C133.496 246.126 130.216 247.889 128.764 247.841C127.711 246.758 127.426 246.415 126.104 245.626Z" fill="#1C1C1C"/>
<path d="M125.551 247.112C118.75 247.176 124.987 255.473 126.681 257.631C128.254 256.891 129.281 256.32 130.78 255.432C132.392 254.282 136.35 250.381 132.102 248.817C130.98 248.402 129.215 249.925 128.259 250.67C127.395 248.965 127.034 248.31 125.551 247.112Z" fill="#B5FE28"/>
<path d="M143.668 333.527C143.391 333.497 142.714 333.525 142.402 333.53C141.513 334.183 141.802 333.778 141.413 334.718L141.702 335.222C143.35 336.075 154.652 336.648 157.26 336.876C168.488 337.941 179.723 338.926 190.965 339.838C192.136 340.007 193.697 340.148 194.097 338.678C192.655 337.219 178.929 336.61 176.064 336.359L143.668 333.527Z" fill="#0C0C0C"/>
<path d="M116.965 235.361C113.316 235.148 114.036 236.794 112.176 236.861C109.903 235.788 106.849 235.837 106.69 239.229C106.588 241.413 108.125 242.918 109.649 244.326C111.256 245.575 112.353 246.164 114.22 246.86C117.662 244.321 121.441 238.837 116.965 235.361Z" fill="#1C1C1C"/>
<path d="M116.483 236.813C114.128 236.885 113.941 237.75 112.75 239.527C111.405 238.17 110.411 237.123 108.576 238.538C107.759 240.307 108.691 241.219 109.908 242.417C111.418 243.735 112.322 244.285 114.026 245.322C116.017 242.913 119.145 239.79 116.483 236.813Z" fill="#B5FE28"/>
<path d="M106.664 303.764L106.044 304.01C105.783 304.429 105.573 304.87 105.803 305.392C106.879 307.803 109.303 316.326 111.128 317.559L111.532 317.419C112.388 316.221 112.842 314.557 113.336 313.131C114.628 310.064 119.253 309.99 118.914 307.724C117.877 306.618 108.683 304.25 106.664 303.764Z" fill="#1C1C1C"/>
<path d="M108.399 307.294C108.276 308.272 110.413 313.363 110.982 314.41L111.292 314.277C111.625 313.256 112.066 312.194 112.46 311.19C111.128 310.069 109.657 308.54 108.399 307.294Z" fill="white"/>
<path d="M110.102 306.285L109.756 306.305L109.797 306.664C111.247 308.279 112.475 310.227 114.714 309.387L117.002 308.284C114.699 307.695 112.383 306.968 110.102 306.285Z" fill="white"/>
<path d="M123.293 219.989C116.421 220.122 120.323 227.188 122.988 230.078C123.875 229.781 124.753 229.397 125.62 229.036C131.549 225.869 131.81 219.902 125.286 221.72L123.293 219.989Z" fill="#1C1C1C"/>
<path d="M122.581 221.169C119.096 222.741 121.907 226.345 123.329 228.506C124.446 228.066 125.379 227.485 126.419 226.888C127.644 226.11 128.561 225.316 128.351 223.793C127.111 222.257 126.145 222.997 124.7 223.832C123.888 222.598 123.606 222.237 122.581 221.169Z" fill="#B5FE28"/>
<path d="M128.786 240.345C126.944 240.261 122.898 239.966 121.256 240.814L121.44 241.244C123.659 241.817 130.29 241.886 132.796 241.971L156.184 242.626C157.719 242.7 163.871 243.435 164.394 241.943L164.083 241.572C162.754 241.2 156.75 241.244 154.795 241.182L128.786 240.345Z" fill="#747572"/>
<path d="M116.058 75.476C114.423 75.3088 113.724 75.0684 112.309 75.7599L112.204 76.1272C113.877 77.0757 143.061 79.4475 147.253 79.8274C148.875 80.0434 150.53 80.6079 151.809 79.4472L151.732 79.0993C149.874 78.1892 119.901 75.7616 116.058 75.476Z" fill="#747572"/>
<path d="M201.557 49.888C200.71 49.8545 200.433 49.9438 200.097 50.7123L200.379 51.1785C202.377 52.1188 226.014 52.7403 229.977 52.8688C230.818 52.9175 231.262 52.7931 231.568 51.9895C231.528 51.9324 231.496 51.8689 231.449 51.8187C230.287 50.5992 205.676 50.1059 201.557 49.888Z" fill="#1C1C1C"/>
<path d="M114.938 206.395C111.789 207.819 104.407 206.646 110.736 212.916C111.463 213.474 112.373 213.919 113.19 214.36C116.185 212.519 118.827 208.943 114.938 206.395Z" fill="#1C1C1C"/>
<path d="M114.976 207.818C114.102 208.013 113.185 209.109 112.596 209.024C111.719 208.894 111.273 208.699 110.192 208.73L109.933 209.119C110.015 209.887 110.477 210.432 110.907 211.103C111.555 211.679 112.324 212.229 113.021 212.759C114.558 211.315 115.968 209.979 114.976 207.818Z" fill="#B5FE28"/>
<path d="M215.834 56.5743C214.538 56.4821 210.967 55.9891 210.298 57.0604L210.702 57.6822C212.216 58.3563 223.711 58.5022 226.262 58.6612C228.783 58.7976 228.933 58.9097 231.286 58.2526L231.187 57.5484L231.23 58.248L231.033 57.5025C228.36 56.7883 219.203 56.742 215.834 56.5743Z" fill="#30302F"/>
<path d="M105.437 239.737C104.151 239.703 101.947 239.319 100.92 239.982C100.592 240.195 100.602 240.768 100.515 241.249C102.26 241.211 104.123 241.795 105.36 240.748L105.437 239.737Z" fill="#747572"/>
<path d="M26.3867 90.0043C25.3874 85.6803 22.2026 78.0764 16.5733 79.3723C15.4178 79.6357 14.4313 80.3765 13.8574 81.4102C11.8025 85.0697 15.1026 90.8493 17.7981 93.4804C16.1788 96.2508 14.4928 98.9915 13.4807 102.05C15.1667 108.572 18.3259 119.763 20.5345 126.115C20.6626 126.34 20.8523 126.697 21.0188 126.885C21.4826 127.415 21.9463 127.603 22.6356 127.587C25.1517 127.528 42.3315 122.57 43.4742 121.102C43.9534 120.485 43.838 119.828 43.7509 119.113C41.6627 112.355 39.1389 102.276 36.1308 95.8256C35.6927 94.8874 33.1766 93.4275 32.1235 92.8701C30.2352 91.8672 28.3212 90.9118 26.3867 90.0043Z" fill="white"/>
<path d="M26.3867 90.0043C25.3874 85.6803 22.2026 78.0764 16.5733 79.3723C15.4178 79.6357 14.4313 80.3765 13.8574 81.4102C11.8025 85.0697 15.1026 90.8493 17.7981 93.4804C16.1788 96.2508 14.4928 98.9915 13.4807 102.05C15.1667 108.572 18.3259 119.763 20.5345 126.115C21.1982 126.165 21.7188 126.263 22.3542 126.076C19.8509 118.628 17.3066 109.654 15.2491 102.06C16.8018 98.3083 19.0669 94.4204 21.3063 91.0464C22.2158 89.6766 23.8659 90.6719 24.65 91.6329C25.0702 94.072 21.9494 93.0847 20.8322 95.9958C20.8169 97.3915 22.5643 99.2859 23.9966 99.2091C28.6368 98.961 25.6646 93.516 26.792 92.3379C27.8605 92.4244 33.6152 95.6485 34.7067 96.3962C36.5797 99.802 38.8268 109.54 40.3027 113.614C40.8458 115.118 41.2071 117.241 41.9758 118.677L42.8777 120.343L43.1852 120.296L43.7509 119.113C41.6627 112.355 39.1389 102.276 36.1308 95.8256C35.6927 94.8874 33.1766 93.4275 32.1235 92.8701C30.2352 91.8672 28.3212 90.9118 26.3867 90.0043Z" fill="#1C1C1C"/>
<path d="M17.6372 80.7576C11.9849 82.1339 16.6225 89.3504 18.475 92.1704L19.8586 90.0037C20.1225 89.7625 20.3967 89.5329 20.6811 89.3156C21.9084 88.3927 22.7258 89.144 24.1965 88.876C24.3579 88.0438 23.497 86.3481 23.0461 85.5522C21.6701 83.1164 20.325 81.5755 17.6372 80.7576Z" fill="white"/>
<path d="M43.7509 119.113L43.1852 120.296L42.8777 120.343L41.9758 118.677C42.0475 119.578 42.2059 119.581 41.8216 120.201C39.4541 121.445 25.2982 125.514 22.3542 126.076C21.7188 126.263 21.1982 126.165 20.5345 126.115C20.6626 126.34 20.8523 126.697 21.0188 126.885C21.4826 127.415 21.9463 127.603 22.6356 127.587C25.1517 127.528 42.3315 122.57 43.4742 121.102C43.9534 120.485 43.838 119.828 43.7509 119.113Z" fill="#1C1C1C"/>
<path d="M37.1887 114.739C36.6712 112.374 34.068 103.227 32.8253 101.609C31.2418 101.082 20.6547 103.989 19.8604 105.821C19.9859 107.467 23.3245 118.51 24.0957 120.434C24.2853 120.937 24.27 120.798 24.726 121.214C26.7348 121.434 36.5866 118.66 37.7396 117.237C37.8703 116.312 37.5116 115.638 37.1887 114.739Z" fill="#B5FE28"/>
<path d="M37.1887 114.739C36.6712 112.374 34.068 103.227 32.8253 101.609C31.2418 101.082 20.6547 103.989 19.8604 105.821C19.9859 107.467 23.3245 118.51 24.0957 120.434C25.1155 120.172 24.7465 120.448 25.3127 119.681C23.983 115.192 22.6557 110.459 21.1466 106.046C24.5825 104.816 28.5027 103.82 32.0335 102.863C32.9226 105.339 35.1005 113.706 36.069 115.344C36.2074 115.558 36.5533 115.951 36.7275 116.163L37.0119 116.066L37.1887 114.739Z" fill="#1C1C1C"/>
<path d="M24.0957 120.434C24.2853 120.937 24.27 120.798 24.726 121.214C26.7348 121.434 36.5866 118.66 37.7396 117.237C37.8703 116.312 37.5116 115.638 37.1887 114.739L37.0119 116.066L36.7275 116.163C36.5533 115.951 36.2074 115.558 36.069 115.344C36.1254 115.917 36.3048 116.277 36.0024 116.544C35.0211 117.411 26.3684 119.689 25.5357 119.786L25.3127 119.681C24.7465 120.448 25.1155 120.172 24.0957 120.434Z" fill="#1C1C1C"/>
<path d="M355.003 203.554C347.645 195.866 340.111 189.917 329.744 197.087L329.212 196.98L327.613 196.829L327.368 198.16L327.708 198.636C329.559 198.892 329.561 198.124 331.334 198.871C331.643 199.04 332.257 199.319 332.434 199.565C334.527 206.003 333.448 207.632 328.049 211.172C330.396 215.642 338.149 221.97 341.973 225.787C343.105 226.918 345.998 228.966 347.585 228.687C351.122 228.063 358.112 220.416 360.333 217.828C363.898 213.504 361.805 212.186 361.193 208.092C360.693 204.752 362.496 202.21 358.206 199.266C357.624 198.866 357.223 199.117 356.639 199.345C355.403 200.704 355.354 201.762 355.003 203.554Z" fill="#B5FE28"/>
<path d="M355.003 203.554C347.645 195.866 340.111 189.917 329.744 197.087L329.212 196.98L327.613 196.829L327.368 198.16L327.708 198.636C329.559 198.892 329.561 198.124 331.334 198.871C331.605 197.801 332.111 197.103 333.125 196.634C340.973 193.009 347.919 198.395 353.064 203.843C353.514 204.319 355.016 205.909 355.466 206.242C355.838 205.73 356.202 205.21 356.558 204.685C356.173 203.397 357.023 201.777 357.541 200.546C360.195 203.7 359.486 209.18 360.594 212.785C361.561 215.934 349.635 227.1 347.186 226.959C344.101 226.778 331.886 213.758 330.153 211.679C333.179 209.895 334.904 207.601 335.173 204.02C335.327 201.974 335.055 199.36 332.434 199.565C334.527 206.003 333.448 207.632 328.049 211.172C330.396 215.642 338.149 221.97 341.973 225.787C343.105 226.918 345.998 228.966 347.585 228.687C351.122 228.063 358.112 220.416 360.333 217.828C363.898 213.504 361.805 212.186 361.193 208.092C360.693 204.752 362.496 202.21 358.206 199.266C357.624 198.866 357.223 199.117 356.639 199.345C355.403 200.704 355.354 201.762 355.003 203.554Z" fill="#1C1C1C"/>
<path d="M356.558 204.685C356.202 205.21 355.838 205.73 355.466 206.242C356.202 207.227 356.999 208.587 358.156 208.858L358.463 208.525C358.224 206.616 357.732 206.198 356.558 204.685Z" fill="#0C0C0C"/>
<path d="M350.193 209.692C350.001 209.672 348.526 209.521 348.526 209.521C346.04 207.765 345.546 204.739 342.093 207.701C340.237 209.295 338.241 211.453 340.388 213.862C342.477 216.205 347.245 217.288 349.759 214.932C350.154 214.561 350.535 213.77 350.434 213.225C350.335 212.547 349.258 211.871 349.08 211.044C348.584 210.573 348.705 210.693 348.329 210.109C348.836 209.649 349.329 209.774 350.193 209.692Z" fill="#1C1C1C"/>
<path d="M344.857 207.823C343.368 208.799 341.899 210.189 340.591 211.395C341.974 212.982 342.798 213.763 344.638 214.769C345.941 214.973 347.264 214.932 348.126 213.888C348.26 212.211 345.925 209.467 344.857 207.823Z" fill="white"/>
<path d="M336.895 211.377L336.257 211.715C335.296 214.608 343.755 222.219 346.187 223.171C348.298 223.112 351.989 218.899 353.581 217.296C354.11 216.723 354.718 216.111 354.276 215.32C352.487 215.875 348.03 220.427 346.445 221.945C342.459 218.492 339.271 216.049 336.895 211.377Z" fill="#1C1C1C"/>
<path d="M341.769 201.316C341.001 199.926 338.348 196.347 336.661 198.403C336.98 199.243 338.898 199.849 340.023 201.398L340.216 201.672C339.198 202.509 338.383 202.957 338.072 204.155L338.513 204.403C339.755 204.263 340.604 203.559 341.689 202.875C345.311 204.035 348.955 205.804 350.193 209.692C349.329 209.774 348.836 209.649 348.329 210.109C348.705 210.693 348.584 210.573 349.08 211.044L350.345 211.292C351.647 210.865 352.289 209.562 351.622 208.361C349.587 204.698 345.432 202.624 341.769 201.316Z" fill="#1C1C1C"/>
<path d="M54.0231 44.7979C51.1995 44.6607 44.056 43.9646 42.0472 45.5452C39.0827 47.8793 38.7393 61.2333 41.0684 63.7313C43.3129 66.1398 53.362 66.0246 56.8953 66.1997C58.981 68.059 61.0513 70.1612 63.0524 72.1283C63.862 72.8932 63.9901 73.1005 64.9945 73.4996C67.1929 73.2628 66.6292 68.434 66.6702 66.6218C68.7841 66.6361 71.8126 66.7314 73.2603 65.2415C75.761 62.3285 76.2607 49.4204 73.6036 47.0238C71.1746 44.8304 57.5231 44.9507 54.0231 44.7979Z" fill="#1C1C1C"/>
<path d="M50.262 46.3299L48.7912 46.2649C46.9669 46.1927 44.2612 45.8507 42.9058 47.2384C40.979 49.2052 41.4377 56.6473 41.2814 59.1525C40.815 66.56 53.4596 62.9571 57.6566 64.8448C58.9454 65.4251 63.1987 69.859 64.8257 71.3366C64.8206 69.53 64.4619 66.0713 65.9608 64.833C66.8781 64.5104 67.8594 64.9229 68.7895 65.0724C69.8349 65.2408 70.7368 64.9894 71.5516 64.3264C72.9428 63.1939 73.1555 61.4982 73.299 59.8022C73.5194 57.2153 74.5443 50.3562 72.5329 48.4411C70.5574 46.5603 53.9849 46.4976 50.262 46.3299Z" fill="white"/>
<path d="M53.1543 56.7951C51.7322 56.7114 48.4987 56.2983 47.3995 57.0913L47.4533 57.6154C48.8958 58.879 58.9757 58.6939 61.6199 58.7924L61.976 58.8206C63.6261 58.9465 66.4215 59.3978 67.5822 58.4025L67.4874 57.8916C66.3933 57.0158 55.2784 56.8973 53.1543 56.7951Z" fill="#1C1C1C"/>
<path d="M53.2361 51.6744C51.5041 51.5804 48.8214 51.2991 47.2584 51.914L47.1432 52.3115C47.3302 52.4912 47.5147 52.6712 47.7017 52.8509C51.5066 53.4627 58.1966 53.5075 61.8939 53.6338C63.3723 53.7305 66.6392 54.2294 67.6512 53.2254L67.5129 52.8548C65.3734 51.8187 56.0725 51.7957 53.2361 51.6744Z" fill="#1C1C1C"/>
<path d="M71.5282 255.831C66.8188 255.78 64.1951 260.006 62.3247 263.716C59.9802 263.424 57.2719 263.314 54.9198 263.572C54.7123 263.698 54.0922 264.087 53.9564 264.23C51.056 267.243 39.2748 276.523 38.8367 279.971C39.5387 282.214 44.202 286.799 46.1006 288.87C46.9897 289.848 50.7767 294.371 51.9784 293.483C56.1625 290.396 66.3166 281.648 68.6508 277.481C68.7149 274.608 68.6662 272.187 68.5637 269.325C72.612 266.168 78.1003 259.535 71.5282 255.831Z" fill="#1C1C1C"/>
<path d="M60.869 265.212C59.1984 265.023 57.3792 265.067 55.6881 265.061C52.4546 267.317 43.1767 276.42 40.2276 279.548C41.7752 282.054 49.2902 290.031 51.5168 292.089C52.6724 291.216 54.138 289.839 55.25 288.849C59.0651 285.293 63.5132 281.205 66.9825 277.334C67.0106 275.888 67.2874 271.344 66.4521 270.402C65.0736 270.514 64.2768 272.421 62.3243 272.557C59.5648 272.749 59.0754 268.896 60.6179 267.481C63.1366 266.51 65.253 269.567 66.6391 268.072C66.8749 267.15 66.5469 266.539 66.242 265.612C64.4228 265.41 62.6958 265.315 60.869 265.212Z" fill="white"/>
<path d="M58.2024 276.042C57.877 273.733 56.6676 273.328 54.7203 272.245C52.5809 273.287 48.1969 276.144 46.8338 278.049C46.7313 278.658 46.7031 278.653 46.803 279.255L46.6493 279.439C46.0113 279.946 46.1906 279.628 46.0651 280.406C46.821 282.088 50.1134 286.279 52.0889 286.292C54.6281 285.478 59.4758 279.068 59.0505 276.464L58.2024 276.042Z" fill="#B5FE28"/>
<path d="M46.6493 279.439C46.0113 279.946 46.1906 279.628 46.0651 280.406C46.821 282.088 50.1134 286.279 52.0889 286.292C54.6281 285.478 59.4758 279.068 59.0505 276.464C56.8777 279.436 54.5922 282.598 52.1684 285.368C49.9853 283.778 48.3429 281.546 46.6493 279.439Z" fill="#1C1C1C"/>
<path d="M58.2024 276.042C57.877 273.733 56.6676 273.328 54.7203 272.245C52.5809 273.287 48.1969 276.144 46.8338 278.049C46.7313 278.658 46.7031 278.653 46.803 279.255C49.5241 277.455 52.0706 275.476 54.8173 273.715C56.1394 274.785 56.6984 275.729 58.2024 276.042Z" fill="#1C1C1C"/>
<path d="M71.5133 257.605C67.8545 257.403 65.6996 260.895 64.0649 263.698C65.8047 263.887 66.2351 263.867 67.7622 264.711C68.0441 265.541 68.2439 266.46 68.4566 267.315C71.0649 264.773 74.9109 261.061 71.5133 257.605Z" fill="white"/>
<path d="M295.043 233.428C289.2 232.614 288.368 238.336 288.028 242.716C287.598 248.266 288.398 250.004 293.777 251.053C293.573 252.899 292.887 255.556 294.394 256.882C295.922 257.005 300.591 253.385 302.442 252.203C304.59 252.466 306.478 252.671 308.635 252.815C315.658 253.613 319.627 254.855 320.818 246.43C322.424 235.074 318.273 235.855 309.11 234.882L295.043 233.428Z" fill="#1C1C1C"/>
<path d="M295.364 235.22C293.529 235.082 292.097 234.972 291.107 236.825C289.829 239.216 289.32 243.612 289.818 246.248C290.455 249.628 293.628 248.76 295.199 249.738C295.822 250.795 295.342 253.67 295.218 255.032C297.24 253.573 300.146 251.361 302.393 250.431L309.264 251.207C311.325 251.325 315.419 252.331 317.151 250.992C318.692 249.799 319.034 247.18 319.232 245.373C319.464 243.266 319.797 240.153 318.271 238.453C316.769 236.782 298.717 235.525 295.364 235.22Z" fill="white"/>
<path d="M305.681 241.902C304.867 241.423 303.82 241.676 303.318 242.475C302.815 243.274 303.04 244.328 303.825 244.853C304.353 245.207 305.031 245.245 305.596 244.953C306.161 244.661 306.522 244.085 306.54 243.453C306.557 242.818 306.228 242.224 305.681 241.902Z" fill="#1C1C1C"/>
<path d="M298.811 241.144C297.97 240.683 296.914 240.99 296.453 241.83C295.991 242.67 296.299 243.725 297.139 244.185C297.98 244.649 299.036 244.341 299.498 243.499C299.959 242.66 299.652 241.605 298.811 241.144Z" fill="#1C1C1C"/>
<path d="M311.938 242.447C311.03 242.222 310.107 242.759 309.856 243.661C309.604 244.562 310.114 245.499 311.007 245.778C311.609 245.964 312.265 245.808 312.72 245.373C313.175 244.938 313.356 244.288 313.194 243.681C313.031 243.072 312.55 242.601 311.938 242.447Z" fill="#1C1C1C"/>
<path d="M38.7446 217.49C38.6344 217.482 38.5242 217.472 38.4141 217.467C35.4316 217.321 20.7705 221.565 18.7669 223.488C17.8906 224.328 17.742 225.679 17.7573 226.831C17.8009 229.578 20.7628 240.699 22.8613 242.329C24.3858 243.515 26.3331 243.107 28.0908 242.859L30.8709 242.171C32.5927 243.363 35.5802 246.653 37.484 245.647C38.5627 244.065 38.9726 241.377 39.4159 239.424C46.6465 237.376 46.6363 234.985 44.4353 228.047C43.2259 224.236 42.5598 219.326 38.7446 217.49Z" fill="#1C1C1C"/>
<path d="M38.5396 219.226C35.4445 219.032 21.7493 223.023 19.7277 225.239C18.7541 227.723 22.2848 239.355 24.4627 241.308C25.0674 241.854 27.3042 241.311 28.0755 241.152C29.0491 240.827 30.1996 240.525 31.2014 240.236C32.9002 241.416 34.8142 243.064 36.4437 244.396C36.7435 243.118 37.0177 241.139 37.4866 239.972C39.1469 235.856 41.4913 238.162 43.3541 235.792C44.092 234.993 44.0946 233.032 43.7384 232.034C42.5752 228.759 41.4606 221.149 38.5396 219.226Z" fill="white"/>
<path d="M35.1756 224.369C34.7887 224.356 34.4018 224.353 34.0149 224.363C32.4314 224.42 32.2341 225.137 31.24 226.163C30.3201 227.323 28.77 225.874 27.7067 226.202C22.5976 227.778 25.3366 232.038 28.0423 234.038C29.1005 234.678 31.9292 236.142 33.0925 235.824C36.1415 234.99 37.7711 229.809 37.2689 226.998C37.0204 225.605 36.2389 225.062 35.1756 224.369Z" fill="#1C1C1C"/>
<path d="M34.6702 225.772C32.5461 225.995 32.1592 227.505 31.2906 229.202C30.8294 228.911 30.363 228.632 29.889 228.36C28.5259 227.585 27.1397 227.579 26.5197 229.231C26.6555 230.866 27.2141 231.227 28.4183 232.369C30.1248 233.385 31.1497 233.762 33.0175 234.491C34.9136 231.865 37.2734 228.711 34.6702 225.772Z" fill="#B5FE28"/>
<path d="M314.851 62.1254C310.122 61.8103 305.054 63.1292 302.505 67.3644C298.596 73.8567 300.664 79.551 305.612 84.3046C305.516 86.0085 304.751 89.6811 306.632 90.2783C307.84 90.0533 308.679 89.3268 309.718 88.6199L311.935 87.1802C312.883 87.2017 314.69 87.3325 315.537 87.1981C331.09 84.7298 330.727 65.042 314.851 62.1254Z" fill="#1C1C1C"/>
<path d="M313.855 63.6707C313.658 63.6551 313.461 63.6438 313.264 63.6366C306.973 63.427 301.966 68.1422 302.19 74.4929C302.337 78.6508 304.401 80.8646 307.172 83.5539C307.204 85.0253 307.072 86.995 307.013 88.5046C308.306 87.5999 309.665 86.7077 310.977 85.8228C313.213 84.7647 317.425 86.4374 320.374 83.998C329.658 76.3161 324.988 65.3357 313.855 63.6707Z" fill="white"/>
<path d="M314.405 71.3414C310.86 64.0194 302.517 72.2755 311.654 81.0861C315.649 80.1267 323.046 77.1374 319.964 71.7996C317.681 69.9979 317.02 70.5921 314.405 71.3414Z" fill="#B5FE28"/>
<path d="M314.405 71.3414C310.86 64.0194 302.517 72.2755 311.654 81.0861C315.649 80.1267 323.046 77.1374 319.964 71.7996C319.361 72.2927 319.317 72.2136 318.982 72.848C319.43 77.0358 315.423 78.3242 312.191 79.6067C310.231 77.1492 308.017 73.61 309.852 70.4997C311.769 69.2251 312.942 71.5575 313.688 73.0294C314.456 72.3326 314.216 72.615 314.405 71.3414Z" fill="#1C1C1C"/>
<path d="M319.964 71.7996C317.681 69.9979 317.02 70.5921 314.405 71.3414C314.216 72.615 314.456 72.3326 313.688 73.0294L313.95 73.3167C316.359 72.7302 315.653 71.1133 318.982 72.848C319.317 72.2136 319.361 72.2927 319.964 71.7996Z" fill="#1C1C1C"/>
<path d="M316.101 116.909C312.504 116.674 308.618 116.872 305.056 116.715C299.518 116.24 298.397 119.135 298.538 124.108C298.724 130.657 297.656 133.234 304.895 133.356C306.03 135.036 306.914 136.511 308.37 137.937C309.493 136.824 310.838 134.729 312.021 133.327C318.762 133.027 318.489 131.734 318.726 125.11C318.836 122.027 319.092 118.501 316.101 116.909Z" fill="#1C1C1C"/>
<path d="M315.438 118.485C312.347 118.293 304.012 117.955 301.466 118.959C299.877 119.587 299.653 129.942 301.277 131.225C302.136 131.905 304.512 131.725 305.587 131.72C306.557 132.731 307.589 134.486 308.38 135.721C310.17 132.702 310.874 131.507 314.679 131.576C317.286 131.659 317.222 127.376 317.125 125.578C316.999 123.256 317.702 119.734 315.438 118.485Z" fill="white"/>
<path d="M307.19 120.949C303.101 120.822 302.996 123.926 304.689 126.646C305.982 128.722 307.969 130.351 310.242 128.779C311.653 127.588 314.494 124.601 313.563 122.325C313.093 121.177 310.857 120.846 309.852 121.601C308.626 122.523 308.207 121.752 307.19 120.949Z" fill="#1C1C1C"/>
<path d="M311.428 122.315C310.267 122.632 309.708 123.23 308.673 123.92L307.916 123.383C306.976 122.709 306.234 121.836 305.182 122.536C304.777 124.07 305.197 124.549 305.96 125.927C306.951 126.951 307.446 127.358 308.562 128.241C310.631 126.679 313.251 124.931 311.428 122.315Z" fill="#B5FE28"/>
<path d="M335.714 97.9023C326.903 97.7824 331.273 109.393 334.922 113.425C337.058 113.154 338.711 112.612 340.723 111.912C342.64 111.02 345.023 109.85 345.907 107.902C348.52 102.145 344.927 100.257 339.674 101.621C339.194 101.746 338.136 99.2455 337.655 98.9068C336.997 98.4439 336.449 98.2151 335.714 97.9023Z" fill="#1C1C1C"/>
<path d="M335.916 99.689C328.58 98.5961 333.733 109.06 335.6 111.883C337.553 111.3 339.003 110.819 340.9 110.082C343.034 108.957 347.887 104.999 343.12 102.776C341.867 102.192 339.57 103.609 338.349 104.281C337.658 101.928 337.749 101.242 335.916 99.689Z" fill="#B5FE28"/>
<path d="M298.229 293.787C289.813 286.998 288.576 300.863 293.292 307.378C297.159 307.291 301.593 306.93 304.507 304.083C306.278 302.353 307.034 298.961 304.949 297.205C303.262 295.784 301.3 296.022 299.444 296.803C299.093 295.315 299.047 295.065 298.229 293.787Z" fill="#B5FE28"/>
<path d="M298.229 293.787C289.813 286.998 288.576 300.863 293.292 307.378C297.159 307.291 301.593 306.93 304.507 304.083C306.278 302.353 307.034 298.961 304.949 297.205C303.262 295.784 301.3 296.022 299.444 296.803C299.941 297.353 299.819 297.028 299.925 297.745L300.845 297.717C303.679 297.814 305.795 299.212 303.947 302.307C302.481 304.762 297.01 305.542 294.216 305.891C292.578 302.655 291.026 297.673 293.009 294.322C293.969 292.699 296.342 294.381 297.22 295.216C297.543 294.706 297.873 294.271 298.229 293.787Z" fill="#1C1C1C"/>
<path d="M298.229 293.787C297.873 294.271 297.543 294.706 297.22 295.216C297.752 296.524 297.903 297.676 298.15 299.055C299.011 298.633 300.017 298.172 300.845 297.717L299.925 297.745C299.819 297.028 299.941 297.353 299.444 296.803C299.093 295.315 299.047 295.065 298.229 293.787Z" fill="#1C1C1C"/>
<path d="M350.898 230.572L349.964 230.741C349.217 231.386 348.483 236.399 347.929 237.75C338.869 259.881 309.675 264.963 288.334 265.219C286.308 265.242 280.285 264.763 279.263 265.28L279.003 266.271C281.13 266.69 286.901 266.811 289.322 266.772C307.595 266.478 329.089 262.746 342.416 249.313C347.172 244.521 350.99 237.412 350.898 230.572Z" fill="#1C1C1C"/>
<path d="M10.4621 142.234C9.8446 142.502 10.0419 142.364 9.60119 142.86C9.54738 143.184 9.48333 143.67 9.60375 143.978C17.7235 164.496 39.833 179.869 57.8967 190.464C58.0428 190.382 58.422 190.055 58.5706 189.932C58.5885 189.563 58.6321 189.274 58.2221 189.023C41.9519 179.124 25.3845 167.837 14.9639 151.497C13.1294 148.62 11.8047 145.376 10.4621 142.234Z" fill="#1C1C1C"/>
<path d="M359.822 225.746C358.082 226.785 359.246 229.709 359.341 231.601C359.983 244.38 351.933 254.95 341.136 260.966C335.917 263.874 331.099 265.474 325.499 267.432C325.017 268.17 325.193 267.75 325.304 268.897C339.298 265.507 354.328 257.052 359.2 242.852C360.678 238.543 361.85 229.929 359.822 225.746Z" fill="#30302F"/>
<path d="M17.5831 124.34C17.1552 124.441 16.5761 124.441 16.4403 124.816C9.56587 143.76 35.2138 164.202 46.7926 172.333C46.8951 172.32 47.4152 172.074 47.5279 172.026L47.6048 171.527C47.1103 170.764 37.6761 163.549 36.1132 162.204C33.0026 159.51 30.0689 156.616 27.335 153.54C22.1387 147.621 17.1142 139.661 16.7299 131.562C16.6248 129.32 17.4653 126.707 17.5831 124.34Z" fill="#1C1C1C"/>
<path d="M298.28 150.37C297.607 150.974 297.768 150.62 297.635 151.388C298.186 152.152 301.072 153.541 302.161 154.153C305.913 156.272 309.561 158.569 313.094 161.035C324.021 168.536 331.839 175.842 340.374 185.793L340.99 185.429C341.131 185.184 341.382 184.943 341.202 184.707C330.784 171.152 313.1 157.853 298.28 150.37Z" fill="#1C1C1C"/>
<path d="M80.8391 92.6298C73.8622 92.0034 50.2281 93.6648 45.4086 97.7014L45.8698 98.0964C47.5506 98.1724 52.1883 96.7629 54.1586 96.2514C63.1213 94.3832 71.1898 93.5729 80.3446 94.0455C83.0632 94.1858 88.3977 95.094 90.5602 94.9133L90.7934 94.5943C89.4431 92.6767 83.2092 92.8111 80.8391 92.6298Z" fill="#1C1C1C"/>
<path d="M270.782 342.193C270.564 342.229 269.734 342.403 269.651 342.631C267.999 347.116 266.582 351.207 263.614 355.054C260.174 359.596 255.489 363.044 250.128 364.979C248.735 365.489 246.831 365.978 245.524 366.605C245.255 366.735 245.281 367.306 245.212 367.767C253.865 367.767 264.04 358.812 267.839 351.557C269.071 349.205 271.152 344.881 270.782 342.193Z" fill="#30302F"/>
<path d="M119.955 0.234996C107.751 2.55304 98.8804 11.2973 95.242 22.961C94.8807 24.1243 94.604 24.9452 95.1677 26.0481C95.7263 25.7217 96.1106 25.5816 96.2976 24.9235C98.8676 15.957 104.561 7.7861 113.385 4.09029C114.554 3.60057 119.811 1.9517 120.193 1.40105L119.955 0.234996Z" fill="#1C1C1C"/>
<path d="M306.548 164.656C306.185 164.77 306.159 164.865 305.834 165.13C305.849 166.408 307.204 166.897 308.243 167.582C318.558 174.381 326.753 182.398 334.553 191.955C335.352 191.407 335.135 191.763 335.339 190.926C334.938 189.83 333.003 187.733 332.164 186.766C325.245 178.789 315.589 170.147 306.548 164.656Z" fill="#1C1C1C"/>
<path d="M74.4209 101.594C65.7964 101.035 53.0723 102.348 44.7297 105.308C44.1788 105.503 43.6971 105.799 43.4947 106.341C44.6503 107.144 47.0434 106.102 48.3091 105.701C57.4794 103.598 65.9732 102.65 75.3228 103.111C76.7064 103.18 80.1449 103.65 81.1313 103.095C81.2108 102.385 81.2979 102.695 80.8725 102.13C79.1994 101.655 76.2503 101.662 74.4209 101.594Z" fill="#1C1C1C"/>
<path d="M39.4389 187.928C39.3134 187.966 38.8676 188.204 38.7292 188.273L38.6472 188.729C39.2314 189.643 42.0575 191.435 43.1157 192.162C52.1553 198.467 61.7201 203.984 71.7052 208.653C72.2842 208.589 72.0177 208.692 72.4584 208.218C72.1356 206.966 68.2794 205.471 66.8856 204.793C57.0569 199.998 48.3709 194.166 39.4389 187.928Z" fill="#1C1C1C"/>
<path d="M367.739 241.685C366.599 242.245 366.374 245.028 365.963 246.48C363.805 254.09 360.178 260.076 353.812 264.868C352.842 265.597 349.957 267.546 349.48 268.39L349.728 269.184C355.384 267.745 363.666 257.359 365.666 251.989C366.578 249.539 368.746 244.237 367.739 241.685Z" fill="#30302F"/>
<path d="M1.24904 134.304L0.59566 134.48C0.11396 135 -0.0141687 135.242 0.00120469 136.007C0.216432 146.377 5.79188 156.621 12.7099 163.879C13.3351 163.639 13.1557 163.773 13.5631 163.272C13.4862 162.38 11.8131 160.836 11.1751 160.017C9.66085 158.093 8.27466 156.072 7.02429 153.967C2.65056 146.564 2.11508 142.453 1.24904 134.304Z" fill="#1C1C1C"/>
<path d="M285.453 160.28C284.837 160.419 285.072 160.327 284.56 160.774L284.571 161.304C285.224 161.971 287.439 163.119 288.366 163.578C295.709 167.222 301.736 171.726 308.185 176.723C308.301 176.728 308.76 176.628 308.894 176.603L309.061 176.127C307.296 172.289 289.922 162.592 285.453 160.28Z" fill="#1C1C1C"/>
<path d="M325.01 204.053C322.28 204.012 320.013 206.685 320.858 209.393C321.493 210.222 321.766 210.225 322.803 210.604C323.864 210.888 325.19 211.431 326.175 211.213C326.694 209.892 325.798 205.264 325.01 204.053Z" fill="#1C1C1C"/>
<path d="M324.095 205.773C323.124 206.288 322.036 207.617 322.459 208.761C323.101 208.996 323.486 209.222 324.145 209.078C324.597 208.264 324.219 206.895 324.095 205.773Z" fill="white"/>
<path d="M104.848 0C101.104 0.642549 93 9.00055 94.4015 12.5911C95.7134 11.733 97.9067 7.01659 99.4696 5.36951C100.928 3.83277 104.11 2.00367 104.994 0.769776L104.848 0Z" fill="#30302F"/>
<path d="M271.222 356.319C269.926 356.762 269.423 358.392 268.662 359.547C266.62 362.642 263.968 364.641 261.081 366.835C260.752 367.086 260.972 367.537 261.043 368C264.632 367.153 272.091 360.146 271.222 356.319Z" fill="#1C1C1C"/>
<path d="M329.212 196.98C327.933 193.772 326.479 191.786 322.521 193.547C320.867 194.282 317.09 196.888 318.336 199.092C319.05 199.235 318.75 199.317 319.294 199.025C321.157 195.628 321.978 195.725 325.861 194.238C326.318 194.934 327.115 196.235 327.613 196.829L329.212 196.98Z" fill="#1C1C1C"/>
<path d="M324.773 159.785L324.122 160.021L323.904 160.514C324.088 160.911 333.234 168.549 334.65 169.931L335.22 169.665L335.25 169.112C333.794 166.299 327.465 161.613 324.773 159.785Z" fill="#1C1C1C"/>
</svg>
