<svg width="202" height="56" viewBox="0 0 202 56" fill="none" xmlns="http://www.w3.org/2000/svg">
<path d="M173.76 18.2007C173.707 19.602 174.363 21.6278 175.089 22.8078L175.529 22.9799C176.209 22.1753 175.602 9.26746 175.875 7.02502C176.214 4.25876 176.287 2.76442 177.444 0C179.981 6.17732 179.543 11.4751 179.453 18.1232L179.986 19.275C180.925 12.3218 181.191 10.3037 184.607 4.16506C185.933 9.62232 185.217 12.5614 184.234 17.9519C186.272 13.1244 186.589 11.8207 190.007 7.87078C190.644 7.14024 191.287 6.38138 191.958 5.68473C191.745 12.0083 190.409 14.9723 187.797 20.6566C187.473 21.3601 186.746 22.5316 187.114 22.9618L187.427 23.0121C188.233 23.1489 188.632 23.1177 189.189 23.6935C189.508 25.0849 188.768 25.3419 188.68 26.2794C188.605 27.0736 189.859 28.7325 189.888 29.853C190.017 34.9437 190.61 40.5612 189.491 45.5421C189.295 46.4159 188.588 46.6987 189.051 47.589C191.96 48.7552 200.374 45.9882 201.723 49.5182C202.069 50.424 202.117 53.1217 201.718 54.2204C200.975 55.0321 200.522 55.1565 199.423 55.1882C193.171 55.3688 186.865 55.4143 180.613 55.4358L148.83 55.4504L67.9965 55.6602L23.6801 55.7251C18.914 55.7285 2.90173 55.8735 -0.956707 55.0091C-2.11133 54.0428 -2 50.1376 -0.944622 49.1972C-0.65657 49.706 -0.559734 53.5693 -0.448387 54.6624L200.759 54.4184L200.723 49.0379L139.939 48.9578L121.078 48.9435C119.105 48.9377 113.651 49.0481 111.87 48.8135C109.006 49.1103 100.37 48.9917 97.1502 48.9355C91.67 48.8399 83.5634 49.2698 78.3978 48.8097C76.6768 48.9912 71.6299 48.8787 69.7248 48.8845L49.6702 48.8917L17.3721 48.9239C12.6688 48.9181 2.49748 49.0665 -2 48.4519C0.522266 47.862 2.99612 47.8589 5.62005 47.5933C7.04094 46.4946 5.20615 45.8076 8.18591 44.3572C8.11571 37.4336 7.98257 30.0595 8.27305 23.1685C6.63188 22.3714 4.73895 20.4204 6.67785 19.2493C10.2676 17.0814 25.3625 16.8347 27.8872 19.8833C28.3446 21.7452 27.2481 22.3365 25.7522 23.2094C25.866 30.2074 25.9265 37.2063 25.941 44.2054C27.7807 45.0369 28.122 45.4971 28.2309 47.4718C29.843 48.7034 32.6606 45.6397 32.709 45.0151C32.9728 41.605 33.503 32.7785 32.8397 29.7356C31.4745 28.8463 30.3005 27.6292 31.8473 26.3112C33.5248 24.8799 55.3755 24.1595 47.4989 29.6375C46.9809 29.9972 47.2738 36.1388 47.2786 36.7321C51.6768 39.0815 50.7086 41.2247 55.3029 42.9402C55.2496 40.2647 55.3876 37.4781 55.2303 34.8089C55.1577 33.5884 54.9495 33.7654 53.807 32.8717C53.485 32.0995 53.4899 32.1593 53.6303 31.3349C55.0173 29.3074 64.5907 29.8593 66.9653 30.3107C68.3741 30.5789 69.2819 30.8355 69.4392 32.3479C69.0035 33.5691 67.6455 33.3263 67.6479 34.5712C67.6528 38.5013 66.7281 43.9319 69.2165 47.1755C70.4946 48.0363 83.5949 47.5696 85.6282 47.3508C84.5922 46.7614 79.5258 47.0034 79.0248 45.491C77.6329 41.2693 78.5503 30.5576 85.5144 33.6882C87.2209 34.4545 89.6851 33.6979 91.624 34.0048C94.6498 34.4836 95.0976 35.2492 96.792 37.6069C100.8 41.9594 107.665 39.8842 112.77 40.3577C114.779 40.5438 117.396 41.0577 118.684 42.7308C119.672 44.0137 119.584 46.2194 118.103 47.0448C117.829 47.1971 117.687 47.2893 117.532 47.5514C118.667 47.7124 127.58 47.7509 128.349 47.4486C127.381 45.4112 127.209 45.3088 127.246 42.9726C127.338 37.0785 125.742 33.9034 130.39 29.4633C128.315 27.1155 128.686 25.8953 131.68 24.968C130.288 21.8176 129.097 18.5827 128.112 15.2827C125.495 13.1988 125.767 11.3153 125.839 8.22201C125.689 7.3535 125.527 7.25619 125.784 6.53533C126.534 6.69001 127.052 7.36802 127.698 7.96252C129.039 9.06825 131.075 10.8387 130.683 12.7916C130.622 13.0908 130.598 13.6304 130.702 13.9232C132.384 17.4181 134.44 22.5113 136.168 25.8362C135.984 21.3339 135.277 16.8616 135.096 12.3317C132.455 9.74481 134.067 6.35354 135.248 3.37507C136.25 4.99781 138.368 8.2041 138.104 10.2381C138.049 10.677 137.504 11.3489 137.611 12.0211C138.291 16.3405 139.012 20.6152 139.586 24.9542C140.186 18.9886 139.709 14.8709 141.733 9.03388C142.382 8.52942 142.018 8.66159 142.868 8.65602C144.316 9.50154 144.231 10.0825 144.02 11.6554C145.095 13.1864 144.533 19.7581 144.41 21.8955L144.771 21.7694C145.32 19.7346 145.889 17.7415 146.48 15.6692C147.293 12.8071 145.344 5.53296 149.944 5.54095C152.79 5.54603 155.104 7.0105 156.997 8.99127C156.155 11.8338 154.068 14.4132 152.705 17.0432C151.442 19.4843 150.493 22.2491 149.597 24.8503L149.798 25.1594C150.958 25.5508 151.369 25.5257 151.754 26.7316C151.594 27.8683 151.171 28.4026 150.59 29.3836C151.638 30.5121 152.676 31.5079 152.957 33.0438C153.63 36.7258 154.102 44.5211 152.289 47.6705L169.352 47.6584C166.462 43.7852 167.587 34.2045 167.665 29.3749C167.677 28.7712 168.902 27.1325 168.996 26.0425C168.614 25.1902 168.255 24.6516 168.343 23.7349C169.284 22.6844 169.192 23.6221 170.189 22.8514C169.807 21.0054 168.466 17.8812 167.757 15.9689C166.5 12.5752 165.944 10.4691 165.208 6.93038C165.118 5.92897 164.939 5.18933 165.326 4.28546L165.757 4.07576C167.42 4.91225 168.965 8.5834 170.206 10.0885C170.313 10.2185 171.397 10.1924 171.613 10.1866C172.881 11.0597 173.665 16.5668 173.76 18.2007Z" fill="#020202"/>
<path d="M78.3984 48.809C80.226 48.61 81.993 48.6635 83.8279 48.6473C91.5302 48.5803 99.2495 48.8286 106.945 48.5031C108.23 48.4486 110.084 48.7257 111.205 48.275C111.483 47.8495 111.469 47.9064 111.66 47.4375C112.381 47.5174 112.79 47.4857 113.371 47.9204L113.391 48.3121C112.618 48.7775 112.468 48.4147 111.871 48.8129C109.007 49.1097 100.37 48.991 97.1508 48.9349C91.6706 48.8393 83.564 49.2692 78.3984 48.809Z" fill="#222120"/>
<path d="M144.41 21.8937L144.771 21.7676C144.672 22.6751 144.761 23.5825 144.137 24.1168C144.161 23.5215 144.326 22.5197 144.41 21.8937Z" fill="#373230"/>
<path d="M179.455 18.123L179.987 19.2748L179.914 20.4485L179.653 20.7901C179.338 20.0641 179.455 18.9841 179.455 18.123Z" fill="#C2C2C2"/>
<path d="M135.142 25.891C137.824 25.7801 148.501 25.226 150.244 26.4499C150.553 26.6675 150.452 27.0161 150.474 27.3617C150.224 27.848 149.837 28.4815 149.764 29.0196C149.563 30.547 151.139 31.9589 152.059 32.9916C152.134 34.39 152.197 35.7891 152.248 37.1884C152.335 39.7167 152.894 45.2086 151.042 47.0359C150.067 47.9991 147.027 47.6108 145.657 47.5929L130.346 47.5902C130.264 47.5096 130.179 47.4312 130.099 47.3479C129.589 46.8127 129.172 46.2531 128.947 45.54C128.16 43.061 127.986 35.2454 128.967 32.8957C129.506 31.6084 131.041 31.0379 131.259 29.5425C131.409 28.5256 130.167 27.8536 130.172 26.7973C131.37 25.6881 133.595 25.9445 135.142 25.891Z" fill="white"/>
<path d="M139.836 27.5908C142.856 27.5228 146.11 27.2505 149.014 28.1933C146.211 28.3819 143.394 28.3623 140.584 28.3838C138.085 28.4458 135.508 28.6131 133.031 28.1938L133.133 28.0164C135.35 27.6455 137.594 27.6436 139.836 27.5908Z" fill="#020202"/>
<path d="M175.835 24.1144C176.716 24.0653 178.137 23.8867 178.907 24.1733L179.11 25.0468L179.406 25.0827L179.556 24.2149C180.347 23.8363 186.597 24.0655 188.514 23.7881C188.149 24.7063 187.691 25.7679 187.418 26.7025C189.427 30.4806 188.909 34.3364 188.967 38.4872C189.015 41.8606 189.204 44.8665 186.975 47.6269L170.764 47.5047C167.499 43.2365 168.978 34.9222 168.854 29.693C168.832 28.8119 170.05 27.3283 170.106 26.4254C170.06 25.0957 168.953 25.2918 169.672 23.9777L170.045 23.7656C170.754 24.0338 171.086 24.3584 171.413 25.126C171.623 25.6125 171.769 26.1252 171.841 26.6505C172.821 29.6789 174.293 33.6669 175.622 36.5563C174.726 38.4606 172.178 43.1871 172.403 45.3111C172.437 45.6297 172.751 45.7602 173.068 46.0047L173.536 46.0489C173.388 45.7839 173.059 45.2393 173.119 44.9553C174.041 40.6222 179.696 31.0637 180.558 27.3927L180.207 27.093C178.687 27.1145 177.384 27.2356 175.927 26.8369C178.355 26.7936 182.029 26.6328 184.387 26.8395C185.026 26.8589 184.997 26.8158 185.568 26.4944L185.457 26.2129C183.245 25.7246 178.188 26.3995 176.22 25.8757L175.835 24.1144Z" fill="white"/>
<path d="M175.921 26.8368C178.349 26.7934 182.023 26.6327 184.381 26.8394L184.306 26.9566C182.26 28.208 177.032 42.7469 174.882 46.1319C173.473 46.2861 174.422 45.7772 173.529 46.0488C173.381 45.7838 173.052 45.2391 173.113 44.9552C174.035 40.6221 179.69 31.0636 180.551 27.3925L180.2 27.0929C178.68 27.1144 177.378 27.2355 175.921 26.8368Z" fill="#EEEDED"/>
<path d="M184.31 26.957L183.87 28.5142C182.543 33.0649 182.892 41.7471 181.277 47.7439C180.849 44.1692 181.95 35.4444 182.42 31.5433L179.002 39.3875C179.362 41.9364 179.515 43.2131 179.355 45.7675L179.2 45.882C178.687 43.7047 178.581 42.7059 178.404 40.4555C177.862 41.6653 176.145 46.0154 175.163 46.4506L174.887 46.1323C177.036 42.7473 182.265 28.2085 184.31 26.957Z" fill="#020202"/>
<path d="M9.10547 22.8311C14.2081 21.5848 18.8048 22.195 23.9147 22.3911L24.5513 22.7525C24.7861 24.6323 24.6966 28.2654 24.7014 30.2687L24.6941 44.3607C18.5022 44.8743 15.537 45.075 9.31606 44.1813L9.30397 40.3878C14.0701 41.799 19.9304 42.4441 24.59 40.3481C17.9407 41.2756 16.0623 41.2415 9.29913 40.083L9.31606 36.0055C14.5905 36.4296 20.2911 34.4653 24.7789 31.7878C18.1609 33.6696 16.999 34.839 9.34026 35.6075L9.32333 28.0069C11.8117 29.498 21.5474 32.3305 23.6678 30.9261L23.6751 30.6134C19.6714 30.2641 13.206 29.755 9.64284 27.7827C9.29427 27.0527 9.34996 27.0696 9.38627 26.2444L9.66949 25.9736C12.8526 26.9454 20.8454 30.3592 23.8953 28.6955C22.8351 28.3203 21.6805 28.4147 20.538 28.2533C18.3037 27.9379 10.6305 26.4376 9.41531 24.9649C9.33785 24.3643 9.2386 23.3842 9.10547 22.8311Z" fill="#CDF44F"/>
<path d="M23.2574 35.2511L23.6181 35.2051L23.5745 35.4597C20.0089 37.5439 15.8721 37.8428 11.8854 38.5019C13.8146 38.9084 23.0177 39.0507 23.2937 39.1976L22.3133 39.5273C17.5859 39.9754 13.8025 39.7086 9.34375 38.0357C14.1559 37.663 18.6703 36.7439 23.2574 35.2511Z" fill="#020202"/>
<path d="M23.6215 42.332L23.7522 42.3473L23.7837 42.5535C20.0124 44.4864 14.5781 43.7645 10.5938 43.0512C10.284 42.9217 10.4462 43.0221 10.1484 42.692C11.4459 42.2875 15.4181 43.0822 17.0665 43.0575C19.308 43.0238 21.4212 42.7443 23.6215 42.332Z" fill="#222120"/>
<path d="M19.796 26.6257C17.7821 26.4229 11.5031 25.3706 10.3242 24.0371C11.7136 24.0969 13.7591 24.8773 15.2356 25.2104C17.1527 25.6429 18.7503 25.8472 20.7062 26.0876L20.7691 26.3861L19.796 26.6257Z" fill="#020202"/>
<path d="M16.3687 23.2214C18.5279 23.0989 20.8807 23.1841 22.9891 23.7004C21.6723 23.9175 20.3168 23.8473 18.9854 23.8427C16.2405 23.8159 13.5076 24.0105 10.7578 23.9134C12.6314 23.5043 14.4565 23.3434 16.3687 23.2214Z" fill="#020202"/>
<path d="M9.83594 31.1528C10.2305 31.1276 18.5404 32.13 19.3368 32.2994C19.6466 32.3655 19.8596 32.5074 20.1235 32.6698C16.9622 33.0438 12.6535 32.7632 9.83594 31.1528Z" fill="#222120"/>
<path d="M20.707 26.0868C21.6269 26.0922 22.5273 26.0067 23.3503 26.3829C22.5563 26.9607 20.7821 26.7866 19.7969 26.6249L20.77 26.3853L20.707 26.0868Z" fill="#53504D"/>
<path d="M10.2305 33.3546C11.5691 33.2106 13.2223 33.4921 14.498 33.8973C12.8956 34.0323 11.7095 34.12 10.2305 33.3546Z" fill="#53504D"/>
<path d="M86.6706 46.2516C84.5792 45.8801 81.263 46.3782 80.0745 45.3674C79.5686 44.4103 80.1834 44.2014 80.0212 43.9509C78.2856 41.2688 79.951 39.9503 80.0309 38.018C80.256 32.5576 85.1626 34.2786 88.3771 35.6867L88.6603 34.9968L88.6337 34.9387L88.7959 34.7189L90.1514 34.8644L90.6113 34.7797C92.4244 35.1016 94.0486 35.2476 95.0531 36.9754C97.0356 40.3831 95.1984 45.0726 92.6737 47.5496L92.5018 47.8132C91.5868 48.0252 88.6894 47.5116 87.7163 47.0613L87.0022 46.6389L86.6391 46.5416L86.6706 46.2516Z" fill="#DEB88D"/>
<path d="M88.6581 34.9947L88.6315 34.9366L88.7936 34.7168L90.1492 34.8623L90.6091 34.7776C92.4221 35.0995 94.0464 35.2455 95.0509 36.9733C97.0334 40.381 95.1961 45.0704 92.6715 47.5474L92.4996 47.811C91.5846 48.0231 88.6871 47.5094 87.7141 47.0592L87 46.6368C89.3916 44.1893 90.1032 38.0376 88.6581 34.9947Z" fill="#EEEDED"/>
<path d="M88.6581 34.9947L88.6315 34.9366L88.7936 34.7168L90.1492 34.8623C90.9456 38.2376 90.8947 44.9642 87.7141 47.0592L87 46.6368C89.3916 44.1893 90.1032 38.0376 88.6581 34.9947Z" fill="white"/>
<path d="M90.1539 34.864L90.6138 34.7793C91.9015 38.8541 91.0834 43.5716 88.8734 47.188C89.7375 47.2587 92.0637 47.3158 92.6761 47.5492L92.5043 47.8128C91.5893 48.0248 88.6918 47.5112 87.7188 47.0609C90.8994 44.9659 90.9503 38.2393 90.1539 34.864Z" fill="#222120"/>
<path d="M88.659 34.9961C90.1041 38.039 89.3925 44.1907 87.0009 46.6382L86.6378 46.5409L86.6693 46.2509C86.8968 45.6634 86.8944 45.9612 86.7879 45.3587C85.7616 45.0803 84.7377 44.8545 83.6992 44.6173C84.97 44.6449 86.6669 44.8656 87.6206 44.2467L87.6787 43.6875L87.1195 43.5123L86.754 43.0342C87.7634 42.9146 87.4366 43.1375 88.0878 42.6169L88.0297 42.1376C87.4366 41.6348 85.488 41.5838 84.0284 40.9658L84.101 40.6869C85.1613 40.7741 87.6666 41.7111 88.3516 41.0287C87.7658 39.3219 85.1661 40.4475 83.8832 39.1774L83.9848 38.9371C85.1443 39.2181 87.5456 40.1362 88.4218 39.4442L88.4509 38.9482C87.4705 38.0245 85.9165 38.4024 84.7256 37.5191C85.9552 37.3051 87.335 38.2675 88.3928 37.9025L88.3613 37.5452C87.715 36.9418 85.7156 36.3127 84.7134 35.8455L84.6239 35.5378C85.8511 35.335 87.1365 36.7474 88.3177 36.4029L88.3758 35.686L88.659 34.9961Z" fill="#222120"/>
<path d="M87.1208 43.5133C85.9976 43.4221 84.7462 43.4376 83.7804 42.9384L84.2839 43.1878L83.7344 42.7748C84.6857 42.5083 85.8161 42.7956 86.7553 43.0353L87.1208 43.5133Z" fill="#373230"/>
<path d="M81.4446 43.039C81.8731 42.9252 81.648 42.9204 82.1127 43.1058C82.3427 43.8489 82.333 44.1389 82.1321 44.8903L81.3623 45.2897L81.0234 44.9559C81.2001 44.4567 81.1154 44.6281 81.3502 44.1965C81.401 44.1014 81.4543 44.0077 81.5076 43.9131C81.4906 43.8099 81.435 43.5142 81.4325 43.4217C81.4277 43.2941 81.4398 43.1666 81.4446 43.039Z" fill="#222120"/>
<path d="M82.457 36.8848C83.1542 36.9806 83.7569 37.3125 84.3959 37.5962C83.6867 37.6453 83.1203 37.7458 82.4788 37.3672L82.457 36.8848Z" fill="#222120"/>
<path d="M81.5273 41.334C81.9413 41.3621 82.3528 41.4315 82.7643 41.4896L83.0015 41.8157L82.6771 42.0055C81.9727 41.9253 82.0018 41.8747 81.5273 41.334Z" fill="#222120"/>
<path d="M34.1956 34.0059C37.8047 32.843 40.7022 31.9796 44.4977 31.5119C44.7857 31.4764 45.4223 31.4124 45.5312 31.2086C40.0316 30.7301 38.1073 32.7941 34.2827 33.0982L34.3287 33.0461L34.0939 32.6731C37.4585 29.9139 40.3681 30.8509 43.8828 29.8487C40.8377 29.2136 37.0398 30.2677 34.2537 31.5148C33.9148 30.916 34.014 30.3621 34.0286 29.6548C35.159 28.5118 44.1152 29.2375 46.2211 29.5377C45.9403 34.4878 46.1291 40.0806 46.088 45.0956C40.8474 45.4081 39.2982 45.5458 34.1084 44.8569C34.2246 42.386 34.2682 39.9121 34.2391 37.4385L34.1738 37.15C34.1932 36.1263 34.2416 35.0218 34.1956 34.0059Z" fill="#FBF352"/>
<path d="M34.1719 37.1504C35.9728 37.5597 37.5268 37.9071 39.352 38.2046C40.7148 38.4268 43.7115 38.6296 44.8443 39.0029L44.3965 38.8794L44.2004 39.1614C40.8745 39.1041 37.2751 38.9634 34.2372 37.4389L34.1719 37.1504Z" fill="#222120"/>
<path d="M34.3125 39.1172C38.1007 39.3997 42.0826 40.4289 45.8806 40.9532C42.9274 41.6944 40.3471 42.3688 37.2753 42.3794C36.4935 42.3397 35.8447 42.2642 35.0943 42.0313C36.1255 41.3279 40.6835 41.8123 42.4288 41.1827C40.4003 40.0065 36.888 40.9317 34.6659 39.3808C34.5449 39.2968 34.4311 39.2051 34.3125 39.1172Z" fill="#020202"/>
<path d="M43.7481 32.846C44.07 32.7841 44.0846 32.7775 44.4162 32.9005L44.3024 33.1472L43.9684 33.0646L43.995 33.2902C41.2549 34.2379 38.3139 34.8476 35.5229 35.6748C35.368 35.7345 35.1138 35.6706 34.9492 35.6539L35.0339 35.3238C37.6482 34.0488 40.9063 33.4722 43.7481 32.846Z" fill="#020202"/>
<path d="M34.6641 43.002C38.2175 43.746 41.1464 43.8017 44.758 43.4936L44.9178 43.7504C43.7534 44.0796 42.6472 44.3127 41.4394 44.4013C39.2535 44.5615 36.3778 44.4967 34.6641 43.002Z" fill="#222120"/>
<path d="M36.3203 36.0137C38.3802 36.11 42.0813 36.2056 43.8048 37.2934C41.6263 37.3046 38.1527 37.2905 36.3203 36.0137Z" fill="#222120"/>
<path d="M42.8615 35.0587C43.469 34.9374 44.4131 34.7871 44.9577 35.0681C44.2824 35.5578 43.4835 35.5423 42.6799 35.6229C41.944 35.7253 41.3195 35.9088 40.6055 35.6605C41.2663 35.1623 42.0675 35.1584 42.8615 35.0587Z" fill="#222120"/>
<path d="M99.0368 40.209C104.357 43.4427 113.805 38.716 118.157 43.8263C119.002 44.8195 117.564 46.892 116.029 47.0404C109.641 47.6586 104.977 43.4966 98.3711 43.981C98.8915 42.3469 98.6616 41.6715 99.0368 40.209Z" fill="#EEEDED"/>
<path d="M147.704 15.1243C147.728 13.0079 147.285 7.93846 148.953 6.68169C151.035 6.07121 153.3 7.27255 155.155 8.19989L155.661 8.61744C156.249 9.93062 153.322 14.1623 152.448 15.2755C152.08 15.9126 152.119 15.9935 151.497 16.3425C150.171 16.382 148.963 15.6805 147.704 15.1243Z" fill="#DEB88D"/>
<path d="M155.15 8.19727L155.656 8.61482C156.244 9.92799 153.318 14.1597 152.444 15.2729L151.57 14.8454C151.582 12.602 152.456 11.1601 153.497 9.23159C153.325 10.3279 152.086 13.6523 151.665 14.9413C152.904 13.0724 154.015 10.2853 155.15 8.19727Z" fill="#222120"/>
<path d="M155.656 8.61719C156.244 9.93036 153.318 14.1621 152.444 15.2753L151.57 14.8478C153.616 13.8263 154.122 10.7035 155.656 8.61719Z" fill="#EEEDED"/>
<path d="M149.306 6.84766C149.909 7.83066 148.895 12.1379 148.699 13.5159C148.534 13.3697 148.609 13.4593 148.476 13.187C147.876 11.973 148.875 8.14437 149.306 6.84766Z" fill="#222120"/>
<path d="M150.71 7.56641L150.962 7.82251C150.565 9.86138 150.27 12.0024 149.614 13.9737L149.359 13.6503C149.551 11.574 150.042 9.53799 150.71 7.56641Z" fill="#373230"/>
<path d="M151.982 8.5332L152.161 8.70773C152.42 9.89624 151.041 13.2836 150.59 14.4697L150.324 14.0727C150.668 12.1706 151.353 10.3557 151.982 8.5332Z" fill="#222120"/>
<path d="M47.5699 38.4165L47.1875 37.9682L47.4223 37.7383C49.8235 38.2943 50.5909 40.825 52.5612 42.3176C53.6989 43.1781 54.6115 42.9307 55.2529 43.8266L55.2699 44.1841L55.2481 44.6544C55.4369 44.9253 55.3546 44.75 55.3933 45.216C54.0112 46.3515 53.7546 47.5192 51.9173 47.61C50.9757 47.6565 50.0075 47.9167 49.1821 47.3052C49.1966 47.3328 48.7149 46.3084 48.7173 46.3188C48.468 45.507 48.1001 45.4317 47.4538 44.9914C47.3763 44.9449 47.3012 44.8984 47.2238 44.8517L47.2649 38.7978L47.5699 38.4165Z" fill="white"/>
<path d="M47.5699 38.4165L47.1875 37.9682L47.4223 37.7383C49.8235 38.2943 50.5909 40.825 52.5612 42.3176C53.6989 43.1781 54.6115 42.9307 55.2529 43.8266L55.2699 44.1841C50.2641 43.0401 51.3437 40.7362 47.5699 38.4165Z" fill="#FBF352"/>
<path d="M47.5706 38.4199C51.3443 40.7396 50.2647 43.0435 55.2705 44.1875L55.2488 44.6578C49.8315 43.6753 51.4339 41.5953 47.2656 38.8012L47.5706 38.4199Z" fill="#222120"/>
<path d="M56.2148 35.6936C56.4133 34.6696 56.2197 34.1262 56.7401 33.6043C58.2119 33.4995 65.6165 33.2858 66.5 33.9473L66.5508 35.1138L66.3862 35.5205C66.4032 36.4696 66.5484 36.8615 66.1587 37.632C63.5904 38.4438 58.2966 37.2771 56.8563 37.6981C59.427 38.7871 62.2204 37.9382 63.7865 38.7551C61.9275 39.0471 55.082 41.0959 56.5174 36.992C57.1565 35.1676 63.4428 37.9866 65.844 36.7027L65.7036 36.4761C63.5541 36.3953 58.7202 36.1987 56.6796 35.7911L56.2148 35.6936Z" fill="#EEEDED"/>
<path d="M56.9492 34.89L57.2324 34.4531C59.0987 34.2011 64.6758 34.5439 66.5518 35.1118L66.3871 35.5184C63.9835 35.0258 59.5102 34.9784 56.9492 34.89Z" fill="#222120"/>
<path d="M8.54328 22.1821C7.79047 21.7154 7.64037 21.6743 7.15625 20.906C7.3741 17.7781 25.6254 18.7388 26.8914 20.1437C26.9495 21.2158 26.0321 21.9725 25.0493 22.1659C21.479 20.324 12.2444 20.7397 8.54328 22.1821Z" fill="white"/>
<path d="M8.93181 45.1953C12.4054 45.7298 15.9419 46.1306 19.4614 45.8874C20.863 45.7908 24.6028 45.0653 25.7114 45.3737C25.8615 45.4161 26.2585 45.7378 26.3408 45.8169C26.7547 46.2183 26.8854 46.8854 26.8975 47.4273L26.5005 47.6314C23.2303 47.597 9.61683 48.2027 7.50123 47.246C7.13572 47.081 7.15266 46.8234 7.01953 46.4741C7.57869 45.8334 8.17416 45.5308 8.93181 45.1953Z" fill="white"/>
<path d="M140.488 24.5631C141.096 21.3941 140.609 15.5945 141.824 13.0701C142.568 12.5073 142.142 12.6559 143.192 12.7547C143.316 12.8835 143.439 13.0122 143.562 13.141C143.608 16.4064 143.388 21.2926 143.504 24.3925C142.64 24.7425 141.457 24.5953 140.488 24.5631Z" fill="white"/>
<path d="M167.406 12.2831L169.788 11.1953C170.725 13.3102 171.773 16.7881 172.465 19.0811C172.906 20.3808 173.821 21.7392 173.417 22.8582C172.642 23.2121 172.434 23.116 171.599 23.0006C170.161 20.2285 168.926 15.5972 167.518 12.5228L167.406 12.2831Z" fill="#EEEDED"/>
<path d="M187.73 12.209C188.638 12.8214 188.94 12.9681 189.952 13.3975C188.994 15.4117 186.421 20.9077 185.692 22.9335C184.963 23.0818 183.586 23.0075 182.797 22.9947L183.867 20.797C184.138 19.6359 187.11 13.5253 187.73 12.209Z" fill="#EEEDED"/>
<path d="M183.867 20.7969C184.77 21.6782 185.038 21.8874 185.692 22.9333C184.963 23.0817 183.586 23.0074 182.797 22.9945L183.867 20.7969Z" fill="white"/>
<path d="M172.59 26.7305L175.923 26.8379C177.38 27.2366 178.682 27.1156 180.203 27.094C179.263 28.08 178.077 31.1389 177.475 32.5372C177.293 31.249 177 28.5028 176.146 27.575C175.778 29.0245 176.758 31.4652 177.242 32.8972L175.93 35.8031C175.117 32.8483 173.766 29.5585 172.59 26.7305Z" fill="#EEEDED"/>
<path d="M180.332 20.6546C180.949 18.1614 181.643 13.4235 182.302 11.4733C183.004 11.2268 183.229 11.45 184.103 11.6647C184.868 13.4022 182.517 21.0567 182.169 23.096C181.423 23.0394 180.939 23.0527 180.24 22.7688C179.886 22.0455 180.155 21.65 180.332 20.6546Z" fill="#EEEDED"/>
<path d="M63.7892 38.7555C64.5759 38.5808 65.5901 38.2433 66.2993 38.4888C66.3647 38.8865 66.4155 38.8272 66.3163 39.1685L66.6043 39.8528C66.4906 40.3965 66.476 41.1728 66.0451 41.2643C63.7456 41.7532 58.8656 42.9098 56.7234 42.2901C56.2538 41.63 56.4233 41.5259 56.3918 40.5335C57.1131 39.7756 62.4482 40.1108 63.581 38.8693C63.6512 38.8313 63.719 38.7933 63.7892 38.7555Z" fill="#EEEDED"/>
<path d="M66.6019 39.8503C64.4379 40.0164 60.0251 42.2489 57.2656 41.8333C58.3162 41.2429 64.6097 39.7039 66.3138 39.166L66.6019 39.8503Z" fill="#222120"/>
<path d="M177.819 7.48013L178.322 7.71638C178.656 9.21715 178.644 19.9714 178.753 22.4922L178.501 22.8265C177.664 22.8333 177.528 22.9778 176.921 22.6115C176.889 19.822 177.068 9.49649 176.664 7.46875L177.819 7.48013Z" fill="white"/>
<path d="M93.9062 47.6438C97.5686 43.0291 103.39 45.4797 108.057 46.9091L107.578 47.6021L93.9062 47.6438Z" fill="white"/>
<path d="M39.2051 26.3754C41.7056 26.264 45.8036 26.0856 47.8708 27.6886L47.8733 28.0478C46.0457 28.8773 43.7365 28.2751 41.8266 27.988C39.0647 27.8917 36.0656 28.6689 33.369 28.3247C32.7784 28.2489 32.4758 28.2046 32.1055 27.7118L32.3887 27.2749C34.6302 26.4957 36.8644 26.48 39.2051 26.3754Z" fill="#EEEDED"/>
<path d="M147.071 17.5664C147.981 17.9317 149.958 18.6992 150.731 19.1534C149.842 20.6808 149.072 23.1938 148.521 24.8839L144.895 24.5772C145.42 22.5136 146.187 19.4574 147.071 17.5664Z" fill="#EEEDED"/>
<path d="M66.0247 41.8203L66.1748 41.8651C66.6347 42.7418 66.4265 44.4866 66.441 45.4928C63.9381 45.6332 58.8258 46.1181 56.6328 45.191L56.5287 44.7371C57.6301 43.9262 61.7935 44.8373 63.3548 44.8398C64.5457 44.6967 65.6035 44.4847 66.7582 44.1543C63.1031 44.1417 58.6346 44.4917 55.207 43.1475C58.9081 43.0079 62.4204 42.7215 66.0247 41.8203Z" fill="#EEEDED"/>
<path d="M33.6471 45.8145C35.816 46.1683 37.9461 46.4203 40.1489 46.3908C42.4 46.3608 45.3193 45.6607 47.4542 46.278C47.8076 46.6936 47.8802 46.7638 47.9843 47.3237L47.5535 47.6016C42.6566 47.5653 37.4136 48.0499 32.5675 47.506L32.3594 47.2145C32.6039 46.5324 33.0928 46.2342 33.6471 45.8145Z" fill="white"/>
<path d="M57.0534 31.1789C58.8543 30.9717 60.7521 30.9817 62.5627 31.008C64.0272 31.0296 67.3143 30.9299 68.377 32.0225L68.2657 32.2827C67.5516 32.7066 67.2103 32.8676 66.3751 32.7807C63.1267 32.3183 57.3245 33.372 54.6909 32.2331L54.6328 31.9075C55.4026 31.3135 56.1094 31.2862 57.0534 31.1789Z" fill="white"/>
<path d="M135.773 12.656L136.115 12.3477L136.509 12.4931C137.238 14.1302 138.308 22.0913 138.969 24.6283C136.86 24.6983 137.189 24.5 136.93 22.5151C136.526 19.4202 136.659 15.6295 135.773 12.656Z" fill="white"/>
<path d="M55.632 46.3297C56.4575 46.2948 67.5874 46.5318 67.7617 46.5896C68.1344 46.7157 68.132 46.8869 68.3063 47.2062L68.0618 47.5797C63.7289 47.5927 59.0354 47.981 54.7461 47.4799C54.8381 46.8866 55.2012 46.7232 55.632 46.3297Z" fill="white"/>
<path d="M129.266 14.959L129.919 15.1626C131.558 16.8122 133.361 22.473 134.504 24.8285C133.991 24.8396 133.487 24.8065 132.974 24.7733C131.347 22.9777 129.941 17.3914 129.266 14.959Z" fill="white"/>
<path d="M126.465 8.23633C128.091 9.24427 129.982 11.2735 129.682 13.3438L129.311 13.618C128.81 13.1037 128.774 13.0279 128.389 12.4121L128.191 12.9526C128.411 13.3898 128.626 13.8294 128.835 14.2711L128.622 14.4028C126.353 13.1673 127.072 10.3478 126.465 8.23633Z" fill="#EEEDED"/>
<path d="M135.282 5.56641C135.878 5.96823 136.217 6.86361 136.51 7.51354C137.122 8.86932 137.396 10.0583 136.851 11.4618C136.609 11.4795 136.132 11.5523 135.876 11.4952C135.384 11.386 135.053 11.067 134.837 10.616C134.191 9.25347 134.958 6.96818 135.282 5.56641Z" fill="#DEB88D"/>
<path d="M172.254 26.106C172.012 25.3844 171.867 25.1293 171.935 24.3615C172.625 23.865 174.024 24.0381 175.079 24.0071C175.377 25.1521 175.599 25.145 175.205 25.932C174.183 26.2479 173.358 26.0242 172.254 26.106Z" fill="white"/>
<path d="M97.5184 43.9014C96.8165 44.4913 96.923 44.6145 96.1992 44.6358C96.3275 43.744 96.7681 39.5472 97.1578 39.1035L97.7508 39.4412C98.1357 41.3936 98.0921 41.9896 97.5184 43.9014Z" fill="#EEEDED"/>
<path d="M167.427 7.69531C168.105 8.66041 168.727 9.55095 169.354 10.5553L167.328 11.5659C166.844 10.1621 166.374 8.92207 167.427 7.69531Z" fill="#FA4444"/>
<path d="M190.534 8.81836C190.534 10.659 190.168 11.4033 190.057 12.9138C189.452 12.4451 188.694 11.9782 188.043 11.5517C188.808 10.5302 189.643 9.72826 190.534 8.81836Z" fill="#FFA0E4"/>
<path d="M173.012 18.0263C172.48 16.5568 170.824 12.3899 170.914 11.0879C172.017 11.3401 172.983 16.6594 173.17 17.9019L173.012 18.0263Z" fill="#EEEDED"/>
<path d="M147.07 16.9958L147.395 16.2818C148.731 16.0871 149.871 16.8237 150.955 17.4877C151.185 17.9788 151.151 17.7825 151.137 18.3216L147.07 16.9958Z" fill="#EEEDED"/>
<path d="M183.892 7.79102C183.955 7.85226 184.035 7.90115 184.084 7.97474C184.597 8.74038 184.514 9.86838 184.265 10.694L183.57 10.9881C183.156 10.7763 182.973 10.6582 182.73 10.2571C182.757 9.31963 183.394 8.55326 183.892 7.79102Z" fill="white"/>
<path d="M177.552 2.67578C177.93 4.1279 178.351 5.49665 178.433 6.99428L176.727 6.86671L177.552 2.67578Z" fill="#FFA0E4"/>
<path d="M142.407 9.39648L143.046 9.74626C143.375 10.4766 143.136 11.1868 142.99 11.9396L142.354 11.6065C142.02 10.8547 142.255 10.1672 142.407 9.39648Z" fill="#EEEDED"/>
<path d="M108.061 46.9082C109.158 47.166 110.247 47.4453 111.332 47.7465L107.582 47.6012L108.061 46.9082Z" fill="#EEEDED"/>
<path d="M167.075 7.14228L166.659 7.29042L166.376 7.06386C166.008 6.2302 166.042 6.05955 166.008 5.17383C166.552 6.00533 166.683 6.23407 167.075 7.14228Z" fill="#DDDCDC"/>
</svg>
