<svg width="91" height="108" viewBox="0 0 91 108" fill="none" xmlns="http://www.w3.org/2000/svg">
<path d="M44.0519 0.0295494C45.2604 -0.107411 46.2674 0.257793 47.4104 0.58926C49.1239 1.08596 50.8373 1.58388 52.5429 2.10733C57.6149 3.69086 62.6624 5.35043 67.6847 7.08559L74.9672 9.57332C76.0592 9.94903 77.923 10.5446 78.9466 11.0097C79.1919 11.1202 79.4163 11.2735 79.6083 11.4625C79.9241 11.7712 80.1227 12.0906 80.2075 12.5249C80.4888 13.9726 80.5521 15.7292 80.5989 17.2016C80.6816 20.4733 80.7096 23.7462 80.6837 27.0189C81.7138 27.4215 82.7461 27.6995 83.7927 28.0407C85.0565 28.4527 86.3305 28.6161 87.062 29.8362L87.2447 35.3386C87.3152 37.3068 87.6116 40.6268 87.1555 42.5548C86.9779 43.3063 85.8874 43.733 85.209 44.0473C85.0911 45.7054 85.0486 47.3679 85.081 49.0297C85.1155 50.6814 85.3932 52.6561 85.2263 54.2674C85.1788 54.7213 84.4307 55.1162 84.0538 55.3313C85.4054 55.719 87.4879 56.0477 88.674 56.5333L88.6589 56.5959C88.1547 58.715 88.6316 62.175 88.856 64.3797C89.0747 66.524 90.0882 68.0497 88.2727 69.6963C88.5129 69.7804 88.7517 69.8689 88.9891 69.9603C89.7128 70.243 90.3558 70.6271 90.663 71.3795C91.1047 72.4614 91.0334 80.2359 90.8903 81.8191C90.8306 82.473 90.7436 83.1441 90.4724 83.7484C90.2048 84.3433 89.7883 84.6842 89.2797 85.0719C88.2626 85.8459 87.1606 86.5365 86.1039 87.258C84.453 88.4039 82.7957 89.5404 81.1312 90.6669C75.2471 94.6548 69.3162 98.5723 63.3386 102.418L58.9485 105.245C57.4969 106.178 56.0295 107.475 54.28 106.876C53.2169 106.512 52.1674 105.997 51.1488 105.526C49.5044 104.755 47.8521 104 46.1919 103.263L15.1332 88.4283L6.54255 84.1649C5.00779 83.3995 3.46426 82.6507 1.9505 81.84C1.16132 81.4178 0.511914 80.7114 0.398763 79.782C0.249718 78.1959 0.314458 76.6141 0.283095 75.0121C0.293381 73.5663 -0.159508 71.6435 0.0602474 70.2588C0.249575 69.0654 3.21429 67.3398 4.20919 66.6622C4.20099 65.535 4.1697 64.4078 4.11554 63.2813C4.05454 62.1397 3.83111 60.727 4.08964 59.6307C4.29494 58.7589 4.93341 58.4107 5.65397 58.0086C4.12403 57.4993 3.30974 57.0541 3.15545 55.2759C3.05611 53.7358 3.13452 52.2003 3.09366 50.6522C3.06532 49.5792 2.5187 46.8912 2.84211 46.0222C3.31341 44.7558 6.2377 43.6526 7.47229 43.0866C6.64326 42.6966 3.01173 41.2524 2.49331 40.8295C2.28075 40.2403 2.40087 37.0011 2.41483 36.0284C2.44173 34.1471 1.62493 29.5707 2.01186 28.012C2.26902 26.9759 6.4999 25.5388 7.70132 25.0431C7.59896 23.257 7.48221 21.4717 7.35115 19.6874C7.25296 18.4371 6.86683 16.0856 7.51171 15.0163C8.0015 14.2044 9.8501 13.6308 10.7823 13.241C12.4876 12.5227 14.1977 11.8162 15.9128 11.1213C21.1693 8.98714 26.4389 6.88512 31.7212 4.81532L39.704 1.63337C40.9615 1.13358 42.801 0.305124 44.0519 0.0295494Z" fill="#1C1C1C"/>
<path d="M8.89692 31.2113C8.74428 30.7865 8.674 30.4667 8.64213 30.0132C8.32994 25.5708 8.07149 21.123 7.76491 16.6801C7.70715 15.8436 7.9974 15.1223 8.80096 14.7662C10.1916 14.15 11.6141 13.5738 13.0232 12.99C16.198 11.679 19.3812 10.3886 22.5727 9.11892L36.2232 3.7036C38.5749 2.77034 40.9165 1.75342 43.2937 0.893609C43.6778 0.754491 44.0994 0.618392 44.5101 0.600336C46.0322 0.533367 54.0729 3.21438 56.028 3.85379C54.6994 4.40408 53.0723 5.21973 51.7494 5.84633C48.7175 7.29226 45.6984 8.76515 42.6931 10.2648C35.7357 13.699 28.8317 17.2408 21.9837 20.8889C18.5597 19.4301 15.0545 18.121 11.6711 16.5538C11.0848 16.2822 9.72652 15.683 9.13703 15.7521L9.06906 15.8456C9.43649 16.4825 12.9756 17.8177 13.816 18.1728C16.4454 19.2952 19.0875 20.3876 21.7418 21.4499C21.6747 23.6064 21.7089 26.0844 22.0301 28.2193C22.0891 28.6117 25.3066 29.8249 25.8554 30.123C26.349 30.3911 27.7376 31.1665 28.2209 30.9435C28.4121 30.6808 28.3 28.2375 28.2978 27.7809C28.2968 26.5452 28.3238 25.3097 28.3787 24.0753C29.5181 24.5722 30.9139 25.0547 32.093 25.4942C34.4532 26.3635 36.8047 27.2561 39.1473 28.1719C40.3705 28.6705 41.577 29.2088 42.765 29.7862C43.2304 30.0123 43.9857 30.604 44.4677 30.4318C44.5705 30.2163 44.559 30.325 44.5044 30.0949C43.0074 28.8482 36.0431 26.3111 33.9782 25.5475L28.8105 23.5968C31.7679 22.1901 34.8555 20.5564 37.7918 19.0777L54.2542 10.8705C57.2624 9.37507 60.4145 7.74184 63.4357 6.31303L73.1768 9.59425C74.9787 10.207 76.9324 10.8578 78.6926 11.5905C78.943 11.6946 79.1228 11.8663 79.3077 12.0618C79.4918 12.4053 79.5896 12.7029 79.6486 13.0861C79.9378 14.9666 80.3435 25.8584 79.8903 27.3728C79.4587 28.8152 56.7545 40.5899 53.5427 42.295C51.3279 43.4706 49.1376 44.7853 46.8825 45.87C46.5214 46.0436 46.1516 46.1838 45.7725 46.3138C44.9072 46.3848 42.6751 45.372 41.7622 45.0111L36.6863 43.0046C29.157 40.0606 21.6825 36.9784 14.2664 33.7598C13.193 33.2888 9.60028 31.7995 8.89692 31.2113Z" fill="white"/>
<path d="M79.3077 12.0618C79.4918 12.4053 79.5896 12.7029 79.6486 13.0861C79.9378 14.9666 80.3435 25.8584 79.8903 27.3728C79.4587 28.8152 56.7545 40.5899 53.5427 42.295C51.3279 43.4706 49.1376 44.7853 46.8825 45.87C46.5214 46.0436 46.1516 46.1838 45.7725 46.3138C45.7402 46.1342 45.7488 45.7434 45.7387 45.531L45.5891 45.4973C45.2589 45.1498 45.1654 42.9313 45.1136 42.3034C44.9165 39.7388 44.7971 37.1688 44.7554 34.5969C44.7432 33.923 44.5943 31.7487 44.923 31.2924C45.1374 31.262 45.7416 30.2263 45.9207 29.9798C46.4804 29.3982 52.7162 26.5042 53.8974 25.9147C56.4553 24.6342 59.0017 23.3304 61.5359 22.0035C67.1625 19.0721 73.3631 15.8128 78.7998 12.6142C78.9077 12.5478 79.2055 12.1804 79.3077 12.0618Z" fill="#D9DBD5"/>
<path d="M78.7998 12.6142C78.9646 12.7868 78.9538 12.7736 79.0019 13.0087C78.82 13.5545 77.0396 14.2892 76.4929 14.6214C74.7795 15.6621 72.9898 16.6164 71.226 17.57C65.3735 20.7411 59.4729 23.8236 53.5269 26.8163C52.6759 27.2416 46.5782 30.3476 46.1833 30.2865C46.0329 30.1497 46.0229 30.1523 45.9207 29.9798C46.4804 29.3982 52.7162 26.5042 53.8974 25.9147C56.4553 24.6342 59.0017 23.3304 61.5359 22.0035C67.1625 19.0721 73.3631 15.8128 78.7998 12.6142Z" fill="#1C1C1C"/>
<path d="M44.923 31.2924C45.041 31.3512 45.323 31.448 45.3258 31.5953C45.3963 35.0939 45.4625 38.5921 45.7013 42.086C45.7423 42.6774 46.0459 45.0057 45.8545 45.3666L45.5891 45.4973C45.2589 45.1498 45.1654 42.9313 45.1136 42.3034C44.9165 39.7388 44.7971 37.1688 44.7554 34.5969C44.7432 33.923 44.5943 31.7487 44.923 31.2924Z" fill="#1C1C1C"/>
<path d="M55.6957 12.7523C57.1387 13.4686 58.5672 13.8376 60.0145 14.4429C60.2663 13.9543 60.5555 13.5839 61.1655 13.485C63.714 13.072 67.1395 11.401 66.641 15.6647C66.2446 19.048 65.1815 18.469 62.3344 19.0191C61.4956 19.6016 59.0916 20.8136 58.1349 21.3145C54.8303 23.0249 51.507 24.6992 48.1657 26.3371C46.5149 25.5403 44.8727 24.705 43.2052 23.9407C42.3818 23.563 39.0556 22.0861 38.5044 21.6481L38.4891 21.4258C38.6964 21.0487 40.0479 20.4635 40.5088 20.2268C41.6852 19.6182 42.8664 19.019 44.0526 18.4293L55.6957 12.7523Z" fill="white"/>
<path d="M60.0145 14.4429C60.2663 13.9543 60.5555 13.5839 61.1655 13.485C63.714 13.072 67.1395 11.401 66.641 15.6647C66.2446 19.048 65.1815 18.469 62.3344 19.0191C61.9179 19.0088 61.7265 19.0177 61.3165 18.9022C59.1017 17.8451 60.2095 15.6048 59.8196 15.0396C59.98 14.8439 59.962 14.7178 60.0145 14.4429Z" fill="#BFFC32"/>
<path d="M65.0757 14.0904C65.3584 14.1642 65.4109 14.2149 65.4153 14.4858C65.0441 15.2747 63.4522 16.6432 62.7804 17.2879C62.1862 17.8586 61.8445 17.0009 61.5244 16.4936C61.3395 16.2071 61.1324 16.0284 61.3388 15.7305C61.8524 15.5076 62.2214 16.3818 62.4667 16.7737C63.3191 15.9136 64.1924 14.8959 65.0757 14.0904Z" fill="#1C1C1C"/>
<path d="M55.6957 12.7523C57.1387 13.4686 58.5672 13.8376 60.0145 14.4429C59.962 14.7178 59.98 14.8439 59.8196 15.0396C58.5133 14.4872 56.9804 14.0301 55.7647 13.421C50.4575 15.9973 44.5648 18.7069 39.4116 21.4953C42.3807 22.8757 45.2489 24.198 48.1593 25.6902C50.8237 24.2583 53.6355 22.9339 56.3373 21.5389C57.3955 20.9966 58.4486 20.4435 59.4959 19.8799C59.9908 19.6132 60.8288 19.1219 61.3165 18.9022C61.7265 19.0177 61.9179 19.0088 62.3344 19.0191C61.4956 19.6016 59.0916 20.8136 58.1349 21.3145C54.8303 23.0249 51.507 24.6992 48.1657 26.3371C46.5149 25.5403 44.8727 24.705 43.2052 23.9407C42.3818 23.563 39.0556 22.0861 38.5044 21.6481L38.4891 21.4258C38.6964 21.0487 40.0479 20.4635 40.5088 20.2268C41.6852 19.6182 42.8664 19.019 44.0526 18.4293L55.6957 12.7523Z" fill="#1C1C1C"/>
<path d="M48.0413 20.606C48.5225 20.7632 50.1612 21.6131 50.5683 21.8952C49.8756 22.3851 48.1341 23.2451 47.3061 23.6884C46.4911 23.3182 45.4906 22.8901 44.7202 22.469C45.3604 21.9704 47.2285 21.0394 48.0413 20.606Z" fill="#1C1C1C"/>
<path d="M52.3479 15.9438C52.8212 15.949 58.0479 18.3873 58.5306 18.7365C58.6104 18.9677 58.5838 18.8983 58.4989 19.1831C57.9501 19.128 52.8989 16.7706 52.3371 16.4139C52.23 16.2043 52.2746 16.2453 52.3479 15.9438Z" fill="#1C1C1C"/>
<path d="M51.0646 16.7301C51.4991 16.756 54.5519 18.23 54.9951 18.5548C55.0605 18.7902 55.0253 18.7417 54.9123 19.0272C54.4858 18.987 51.4574 17.5113 51.02 17.2012C50.938 16.9913 50.9869 17.001 51.0646 16.7301Z" fill="#1C1C1C"/>
<path d="M45.8732 19.5129C46.1229 19.6022 46.1754 19.6662 46.1487 19.9064C45.8107 20.3267 43.4009 21.4363 42.7801 21.7467L42.5895 21.6747C42.4658 21.4656 42.4845 21.5736 42.5197 21.3415C42.9557 20.8132 45.1597 19.8515 45.8732 19.5129Z" fill="#1C1C1C"/>
<path d="M46.8451 20.1513C47.0393 20.1194 46.9681 20.1179 47.1572 20.1669C47.3033 20.3222 47.2687 20.2331 47.2723 20.4394C46.9515 20.864 44.7813 21.9239 44.1742 22.2434C43.9713 22.2265 44.0433 22.2367 43.8483 22.1404C43.7987 22.0392 43.7332 21.971 43.7879 21.9023C44.2418 21.3323 46.1797 20.4807 46.8451 20.1513Z" fill="#1C1C1C"/>
<path d="M51.2351 22.0147L51.4207 22.0858C51.5423 22.2983 51.5257 22.1892 51.4811 22.4228C51.0826 22.8997 48.939 23.9028 48.2571 24.2489C48.0521 24.1084 48.019 24.0762 47.9643 23.881C48.1442 23.5398 50.7561 22.2653 51.2351 22.0147Z" fill="#1C1C1C"/>
<path d="M55.1504 14.3606C55.6712 14.4342 57.781 15.4025 58.2018 15.7039C58.2917 15.9446 58.2543 15.8872 58.1572 16.1978C57.5875 16.1192 55.6166 15.1849 55.1475 14.8579C55.044 14.6153 55.0821 14.6764 55.1504 14.3606Z" fill="#1C1C1C"/>
<path d="M21.409 11.152C21.4858 11.1558 21.5859 11.1819 21.6645 11.1981C21.88 11.4296 21.8353 11.3024 21.8694 11.5646C21.8081 11.6963 21.7551 11.7504 21.624 11.8138C19.3296 12.924 16.6614 13.715 14.4468 14.9533C14.1838 14.8285 14.0628 14.7722 14.0312 14.4872C14.3555 14.0122 20.3268 11.6356 21.409 11.152Z" fill="#BFFC32"/>
<path d="M25.1325 9.65266C25.304 9.61835 25.2948 9.62706 25.4634 9.68345C25.6272 9.92126 25.6051 9.8002 25.5892 10.0441C25.3201 10.4194 24.031 10.8117 23.5033 11.01C23.2828 11.0525 23.3841 11.0703 23.1902 10.9509C23.0673 10.7168 23.0778 10.8317 23.1187 10.6007C23.4399 10.1991 24.6045 9.84731 25.1325 9.65266Z" fill="#BFFC32"/>
<path d="M0.602478 70.5228C1.15068 69.292 3.04532 68.2332 4.21883 67.4175C4.30896 68.6698 4.25149 69.8229 5.32574 70.6314C6.33697 70.9753 7.472 71.2608 8.51071 71.5601L13.9313 73.1469C20.0735 74.9165 26.1869 76.7846 32.2694 78.7498C37.8137 80.5488 43.3218 82.4572 48.7916 84.4735C50.4734 85.0863 52.1472 85.7201 53.8132 86.3746C55.0584 86.866 57.1559 87.8198 58.4464 87.968C59.3067 88.0672 61.5244 86.3617 62.2653 85.7999C64.0277 84.4634 65.9656 83.3031 67.7617 82.0184L68.9313 82.6198L69.8773 83.0715C66.7108 84.9899 63.5579 86.9285 60.4174 88.888C59.693 89.3318 56.4834 91.2028 56.0007 91.6409C55.9676 91.748 55.8647 91.9423 55.7949 91.9955C55.3526 92.3328 55.5101 93.3147 55.3303 93.4629C55.4439 94.1197 55.3569 95.4778 55.4346 96.1309C55.5907 97.4559 56.1819 104.297 55.7762 105.107C55.6029 105.217 55.6022 105.219 55.4065 105.282L55.5547 106.376C54.7267 106.477 54.0937 106.186 53.3651 105.855C52.212 105.33 51.061 104.802 49.9094 104.276C46.8479 102.878 43.7958 101.459 40.7533 100.021C31.1753 95.5396 21.6461 90.9546 12.1675 86.2675L5.5957 82.9988C4.62655 82.5176 2.23442 81.3832 1.51523 80.7919C0.635423 80.0683 0.936677 75.9178 0.885101 74.6855C0.827986 73.5684 0.721382 72.4542 0.565504 71.3464C1.03566 71.668 1.51833 71.9708 2.01236 72.2542C8.16752 75.8027 16.4323 78.0017 23.1416 80.4179C29.926 82.8615 36.6232 85.4021 43.3319 88.0449C45.6423 88.9642 47.9435 89.9044 50.2367 90.8647C50.7733 91.092 53.6945 92.4537 53.9959 92.3731C54.1182 92.207 54.1462 92.2098 54.1448 92.012C53.6535 91.5114 48.7513 89.5577 47.7802 89.1599C40.2732 86.1157 32.7135 83.2046 25.1041 80.428C19.3482 78.3167 4.7238 74.0935 0.602478 70.5228Z" fill="white"/>
<path d="M5.32574 70.6314C6.33697 70.9753 7.472 71.2608 8.51071 71.5601L13.9313 73.1469C20.0735 74.9165 26.1869 76.7846 32.2694 78.7498C37.8137 80.5488 43.3218 82.4572 48.7916 84.4735C50.4734 85.0863 52.1472 85.7201 53.8132 86.3746C55.0584 86.866 57.1559 87.8198 58.4464 87.968C59.3067 88.0672 61.5244 86.3617 62.2653 85.7999C64.0277 84.4634 65.9656 83.3031 67.7617 82.0184L68.9313 82.6198C67.9459 83.3082 66.9237 83.8491 65.9188 84.4929C64.0183 85.71 62.1114 86.917 60.1167 87.9723C59.1183 88.5003 58.1371 88.7376 57.0185 88.5146C56.0776 88.3276 54.6447 87.8162 53.701 87.5054L19.7567 76.1213C16.3001 74.9718 12.8595 73.7742 9.43584 72.529C8.2578 72.0974 6.94408 71.637 5.78028 71.1515C5.5688 71.0637 5.42673 70.8314 5.32574 70.6314Z" fill="#D9DBD5"/>
<path d="M55.4065 105.282C55.1993 104.989 55.2332 103.112 55.277 102.685C55.5123 100.425 54.3246 95.6137 54.8095 93.642C55.0267 93.4514 54.9871 93.5104 55.3303 93.4629C55.4439 94.1197 55.3569 95.4778 55.4346 96.1309C55.5907 97.4559 56.1819 104.297 55.7762 105.107C55.6029 105.217 55.6022 105.219 55.4065 105.282Z" fill="#1C1C1C"/>
<path d="M2.49028 28.3735L8.01193 30.5005C8.42842 32.024 8.95144 32.0837 10.2823 32.68L19.8759 36.845C25.4447 39.1591 31.0338 41.424 36.6426 43.6393L41.9825 45.7595C45.1654 47.0229 45.3345 47.5595 48.4341 45.738C49.0886 45.9579 49.736 46.1998 50.3748 46.4632C51.7566 46.9799 53.15 47.4672 54.5527 47.9248C54.6519 49.5997 54.7397 51.2754 54.8152 52.9517C54.8411 53.5984 54.9533 58.8668 55.0842 59.0826C55.3238 59.1646 55.313 59.1603 55.5684 59.1632C54.798 60.4054 53.76 59.7041 52.6385 59.297L49.7145 58.2539L39.4688 54.5774C33.1999 52.2894 26.9483 49.9542 20.7144 47.5722C14.7423 45.3438 8.82383 42.9741 2.96403 40.4651C3.05115 38.1903 3.09481 36.4188 2.93138 34.1444C2.81118 32.4715 2.45504 29.9656 2.49028 28.3735Z" fill="white"/>
<path d="M10.2823 32.68L19.8759 36.845C25.4447 39.1591 31.0338 41.424 36.6426 43.6393L41.9825 45.7595C45.1654 47.0229 45.3345 47.5595 48.4341 45.738C49.0886 45.9579 49.736 46.1998 50.3748 46.4632C49.508 47.6743 48.9419 49.2857 47.9392 50.227C46.1567 51.8995 42.6226 50.5393 40.7614 49.6856C33.1871 46.2114 25.9949 41.8891 18.7342 37.816C17.3649 37.0479 10.9584 33.69 10.2424 32.8655L10.2823 32.68Z" fill="#D9DBD5"/>
<path d="M4.773 59.4631C6.87942 60.0321 9.06906 60.7349 11.16 61.3765L27.7967 66.4708C29.5704 67.0089 31.4614 67.5477 33.2048 68.1627C34.1813 68.3893 35.1469 68.8058 36.1014 69.0618C39.5673 69.9876 42.819 71.3349 46.0977 72.7678C46.9429 73.1376 47.8255 73.4943 48.6714 73.8547C50.4669 74.6201 51.2517 75.5854 53.0752 74.2496C53.6621 74.4439 54.3146 74.6755 54.9037 74.8424C55.7662 75.0725 56.902 75.4236 57.7249 75.7365C57.7163 77.014 57.8357 78.5325 57.9047 79.8259L58.3349 87.4148C56.5769 86.8954 54.1225 85.8193 52.3422 85.136C49.0858 83.9002 45.8135 82.7061 42.5262 81.553C33.282 78.3318 23.9485 75.3732 14.5369 72.6801C13.5407 72.3844 5.61656 70.1782 5.33509 69.8617C4.70877 69.1575 4.79948 64.7495 4.74833 63.5633C4.70359 62.5239 4.57231 61.4744 4.60864 60.4335C4.62029 60.0997 4.69294 59.7854 4.773 59.4631Z" fill="white"/>
<path d="M54.9037 74.8424C54.8052 74.9186 54.1837 76.3458 54.0635 76.6177C53.6916 77.4557 52.6234 78.4699 51.6171 78.0189C50.2489 77.4061 48.9455 76.4702 47.6047 75.7279C43.411 73.4152 39.1351 71.2544 34.7861 69.2481C34.2333 68.9964 32.8046 68.3619 32.3232 68.0167L32.3313 68.0037C32.5674 68.1339 32.9342 68.185 33.2048 68.1627C34.1813 68.3893 35.1469 68.8058 36.1014 69.0618C39.5673 69.9876 42.819 71.3349 46.0977 72.7678C46.9429 73.1376 47.8255 73.4943 48.6714 73.8547C50.4669 74.6201 51.2517 75.5854 53.0752 74.2496C53.6621 74.4439 54.3146 74.6755 54.9037 74.8424Z" fill="#D9DBD5"/>
<path d="M51.9847 74.1748C51.761 74.246 51.2833 74.3331 51.0682 74.241C48.6002 73.1836 46.0854 72.073 43.6081 71.0472C38.1438 68.7971 32.6352 66.6571 27.0855 64.6272C23.9856 63.4986 20.8716 62.4095 17.7443 61.3586C15.4737 60.5989 5.54873 57.6001 4.4178 56.7189C3.95088 56.3549 3.8378 55.6564 3.77299 55.0982C3.6192 53.7732 3.7735 52.4101 3.71444 51.0754C3.65452 49.721 3.38909 48.367 3.36204 47.0203C3.35686 46.7618 3.33463 46.4135 3.50209 46.2003C4.51707 46.4612 5.89631 46.9623 6.91258 47.2988L13.0895 49.3542C16.171 50.3896 20.201 51.593 23.1135 52.7403C23.0378 53.5905 22.996 56.9562 23.3277 57.6044C23.8779 57.8777 29.6789 59.8767 29.9817 59.8386C30.1052 59.7127 30.1321 59.6595 30.135 59.466C30.1563 58.0086 30.1419 56.547 30.1871 55.0896C31.971 55.6363 33.8891 56.3268 35.6666 56.9347C38.7051 57.964 41.7308 59.0301 44.7425 60.135C46.5609 60.8097 49.9763 62.4347 51.6682 62.6569C51.6739 62.9109 51.707 63.5784 51.6595 63.7928C50.8999 64.5783 51.8811 71.1724 51.7178 72.6304C51.7005 72.7822 51.8703 72.9174 51.9731 73.0239C51.8588 73.3929 51.9055 73.8015 51.9847 74.1748Z" fill="white"/>
<path d="M76.2498 79.918L85.5939 74.2698C87.003 73.4195 88.6992 72.319 90.1084 71.5435C90.4177 73.0656 90.6436 82.2644 89.8084 83.7203C89.4898 84.2764 84.8897 87.317 83.856 88.0262C77.7417 92.2293 71.5677 96.346 65.3361 100.374L60.0699 103.756C58.9816 104.457 56.7308 106.085 55.5547 106.376L55.4065 105.282C55.6022 105.219 55.6029 105.217 55.7762 105.107C56.1819 104.297 55.5907 97.4559 55.4346 96.1309C55.3569 95.4778 55.4439 94.1197 55.3303 93.4629C55.5101 93.3147 55.3526 92.3328 55.7949 91.9955C55.8647 91.9423 55.9676 91.748 56.0007 91.6409C56.192 91.9063 56.1345 91.9207 56.3819 91.9969C56.9919 91.7998 59.3851 90.2583 60.0793 89.8231C63.4198 87.7284 67.0863 85.6546 70.3664 83.4995C70.406 84.0987 70.5023 88.4808 70.6872 88.6528C71.5238 88.6384 75.3046 86.1027 76.4088 85.5143C76.5879 83.6491 76.5347 81.7695 76.2498 79.918Z" fill="#D9DBD5"/>
<path d="M84.5674 44.3199C84.4566 46.2759 84.435 48.2358 84.5012 50.1937C84.5307 50.8964 84.9364 53.9329 84.4624 54.2588C76.4656 59.7501 67.838 64.2395 59.5204 69.2143C57.9213 70.1711 56.479 71.163 54.9231 72.1679C54.1578 72.6614 52.7026 73.8281 51.9847 74.1748C51.9055 73.8015 51.8588 73.3929 51.9731 73.0239C51.8703 72.9174 51.7005 72.7822 51.7178 72.6304C51.8811 71.1724 50.8999 64.5783 51.6595 63.7928C51.707 63.5784 51.6739 62.9109 51.6682 62.6569C53.5089 62.4627 56.1194 60.8234 57.8083 59.9113C63.5263 56.8203 69.0349 53.292 74.4939 49.7691C75.3305 49.2292 76.1412 48.622 76.9907 48.0997C79.453 46.7348 82.0483 45.5781 84.5674 44.3199Z" fill="#D9DBD5"/>
<path d="M51.6595 63.7928C51.9149 64.0287 51.9624 63.9805 51.9645 64.3488C51.9696 65.0537 51.9681 65.9105 51.9926 66.5931C52.0293 67.6225 52.476 72.0823 52.2149 72.811L51.9731 73.0239C51.8703 72.9174 51.7005 72.7822 51.7178 72.6304C51.8811 71.1724 50.8999 64.5783 51.6595 63.7928Z" fill="#1C1C1C"/>
<path d="M86.1104 30.2853C86.6786 30.8096 81.998 40.0221 82.067 40.9361L82.1569 41.0095C82.7137 40.8567 83.0518 39.8439 83.2748 39.3418C84.3897 40.3795 85.4925 41.4303 86.5822 42.4941C85.8097 43.1499 82.5972 44.5852 81.5088 45.1121C78.9235 46.3536 76.3541 47.6266 73.7998 48.9308C67.8149 51.9707 61.9984 55.332 56.3762 58.9991C57.0826 57.7511 57.7594 56.4865 58.4061 55.2068C58.8543 54.3552 59.2909 53.4862 59.7297 52.628C60.157 52.9424 60.7195 53.756 61.2057 53.3567L61.2 53.2064C60.8849 52.7295 59.283 51.3415 58.7413 50.8193C57.6983 49.8129 56.6071 48.6891 55.5367 47.7265C59.7621 45.3391 64.1413 42.9354 68.3062 40.4583C68.4436 41.9463 68.4695 43.4511 68.594 44.9401C68.622 45.2769 68.6537 45.5612 68.9896 45.6667C69.6909 45.3658 74.0738 42.7451 74.5234 42.2726C74.5486 40.4827 74.4054 38.9015 74.2594 37.1193C78.1049 34.809 82.3324 32.6272 86.1104 30.2853Z" fill="#D9DBD5"/>
<path d="M87.3519 57.7835L87.3793 57.8115C87.4469 58.3877 84.138 65.2566 83.7761 66.4449C83.6172 66.9672 82.6295 68.067 83.1748 68.5576L83.3417 68.5173C83.7668 68.1231 84.2768 66.7672 84.5307 66.1788C85.8903 66.9413 87.2268 67.7426 88.5395 68.582C87.4756 69.6841 83.9466 71.6061 82.5777 72.3916C80.2126 73.7483 77.7395 75.0603 75.4046 76.4803C69.9909 79.741 64.7096 83.2175 59.5736 86.9012C60.2505 85.8704 60.8964 84.6044 61.4805 83.5045L63.4724 79.4569C63.9665 79.7511 64.6686 80.4121 65.2376 80.0935L65.2714 79.959C65.0815 79.5533 59.2851 76.03 58.5298 75.6164C60.0469 74.8834 62.2279 73.5361 63.6961 72.6556C66.1497 71.1939 68.5889 69.7078 71.0138 68.1979C71.0728 68.813 71.203 73.3347 71.3929 73.5641C72.1698 73.5792 76.831 70.3811 77.4129 69.702C77.4288 69.1323 77.3489 68.1972 77.3187 67.5966C77.2705 66.5111 77.2295 65.4256 77.1964 64.3402C80.6686 62.2584 83.9481 59.8307 87.3519 57.7835Z" fill="#D9DBD5"/>
<path d="M56.7545 4.11491C57.1466 4.18591 58.6931 4.70677 59.1441 4.84819C53.6442 7.35182 48.1902 10.459 42.7377 13.0921C41.9622 13.4665 37.4292 15.6514 37.2157 16.0261C37.2475 16.2821 37.1944 16.1805 37.3504 16.3547C37.7743 16.4337 39.5475 15.3923 40.0742 15.1264L54.8275 7.68904C56.5517 6.82455 58.2882 5.99768 59.993 5.09629C60.8518 5.42337 61.7179 5.73225 62.5897 6.02264L50.3561 12.1005L35.8046 19.3825C33.2943 20.6424 30.5411 21.9661 28.0919 23.3059C26.7384 22.8837 24.153 21.7554 22.7598 21.1834C23.4933 20.7189 24.7914 20.0856 25.5889 19.6667C27.5819 18.621 29.5819 17.5887 31.5887 16.5697C37.4676 13.5597 43.3757 10.6068 49.3116 7.71112C50.7222 7.02596 52.1372 6.3508 53.5571 5.68578C54.5642 5.21404 55.7985 4.66433 56.7545 4.11491Z" fill="white"/>
<path d="M63.071 37.977L64.4247 38.572C65.1103 38.8343 67.2409 39.677 67.8631 40.0181C63.7622 42.34 59.0089 45.2064 54.8555 47.3479C53.5111 46.922 52.335 46.5336 51.0222 46.0224C50.3921 45.8028 49.8706 45.5927 49.2555 45.3317C50.6 44.5267 52.3458 43.6392 53.7413 42.8951L63.071 37.977Z" fill="white"/>
<path d="M63.071 37.977L64.4247 38.572C62.9861 39.4999 61.0389 40.5122 59.5146 41.328C57.8084 42.2473 56.1071 43.176 54.4117 44.1139C53.5168 44.6052 51.7984 45.4853 51.0222 46.0224C50.3921 45.8028 49.8706 45.5927 49.2555 45.3317C50.6 44.5267 52.3458 43.6392 53.7413 42.8951L63.071 37.977Z" fill="#D9DBD5"/>
<path d="M8.2875 43.3939C9.99145 44.0313 11.7258 44.7261 13.4131 45.4112C17.6265 47.1221 21.9771 48.5992 26.1795 50.3216C25.7379 50.5442 25.4813 50.6983 25.0649 50.9679C24.5178 51.3548 23.9746 51.747 23.4351 52.1445C17.007 49.8973 10.3549 47.8682 3.88046 45.6329C5.07498 44.8932 6.20375 44.3778 7.47265 43.7779L8.2875 43.3939Z" fill="white"/>
<path d="M8.2875 43.3939C9.99145 44.0313 11.7258 44.7261 13.4131 45.4112C17.6265 47.1221 21.9771 48.5992 26.1795 50.3216C25.7379 50.5442 25.4813 50.6983 25.0649 50.9679C24.5544 50.6677 22.612 50.0372 21.942 49.7788L13.0244 46.2909C12.1481 45.9448 7.90784 44.35 7.47265 43.7779L8.2875 43.3939Z" fill="#D9DBD5"/>
<path d="M80.5219 27.6464C81.0305 27.8334 81.6743 28.0125 82.2008 28.1741C83.1769 28.4856 85.3133 29.0957 86.1319 29.5533C82.1368 31.8363 77.8733 34.2026 73.9429 36.5469C72.797 36.0997 71.6576 35.6364 70.5247 35.1572C70.0923 34.9907 69.6593 34.8278 69.2241 34.6688C71.8223 33.248 74.3903 31.7745 76.9281 30.2491C78.0373 29.5758 79.7939 28.6852 80.5219 27.6464Z" fill="white"/>
<path d="M80.5219 27.6464C81.0305 27.8334 81.6743 28.0125 82.2008 28.1741C81.5354 28.8271 79.6062 29.8954 78.7214 30.423C76.639 31.6872 74.5407 32.9242 72.4266 34.1339C72.0079 34.3774 70.7779 34.9592 70.5247 35.1572C70.0923 34.9907 69.6593 34.8278 69.2241 34.6688C71.8223 33.248 74.3903 31.7745 76.9281 30.2491C78.0373 29.5758 79.7939 28.6852 80.5219 27.6464Z" fill="#D9DBD5"/>
<path d="M66.3576 65.9666L67.6445 66.4881L70.5729 67.7275L58.1105 75.1733L55.3497 74.2842C54.9821 74.2108 54.0707 73.895 53.6751 73.7706C58.0026 70.8436 61.8244 68.5497 66.3576 65.9666Z" fill="white"/>
<path d="M66.3576 65.9666L67.6445 66.4881L58.4838 72.3046C58.15 72.5153 55.4677 74.131 55.3497 74.2842C54.9821 74.2108 54.0707 73.895 53.6751 73.7706C58.0026 70.8436 61.8244 68.5497 66.3576 65.9666Z" fill="#D9DBD5"/>
<path d="M33.0822 52.905L47.3011 58.0547C48.8836 58.6186 53.5571 60.5025 54.9174 60.4975L54.967 60.714C53.883 61.2643 52.5587 62.062 51.3337 62.0016C50.4669 61.8412 49.1066 61.2183 48.242 60.855C47.1141 60.3752 45.9754 59.9199 44.8273 59.4897C41.9925 58.4604 39.1495 57.4533 36.2985 56.4693C34.4239 55.8298 32.4725 55.2155 30.6241 54.5307C31.0737 54.1444 31.5693 53.8006 32.0508 53.4531C32.395 53.2611 32.7238 53.0719 33.0822 52.905Z" fill="#D9DBD5"/>
<path d="M30.6241 54.5307C31.0737 54.1444 31.5693 53.8006 32.0508 53.4531C32.6051 54.0581 37.6735 55.8859 38.7747 56.3268C42.5449 57.7935 46.2674 59.3833 49.9346 61.0924C50.2338 61.2298 51.4869 61.7304 51.5265 61.888L51.3337 62.0016C50.4669 61.8412 49.1066 61.2183 48.242 60.855C47.1141 60.3752 45.9754 59.9199 44.8273 59.4897C41.9925 58.4604 39.1495 57.4533 36.2985 56.4693C34.4239 55.8298 32.4725 55.2155 30.6241 54.5307Z" fill="white"/>
<path d="M83.3352 55.7686C83.697 55.9046 84.1164 56.0075 84.4926 56.111L87.6368 56.8347C86.2449 57.608 84.6933 58.6941 83.3453 59.5897C81.216 61.0197 79.066 62.4188 76.8958 63.7856C75.8657 63.4158 74.8385 63.0382 73.8149 62.6512L72.8107 62.2908C76.4268 60.0724 79.7608 58.1496 83.3352 55.7686Z" fill="white"/>
<path d="M83.3352 55.7686C83.697 55.9046 84.1164 56.0075 84.4926 56.111C82.1181 57.4979 79.7637 58.92 77.4324 60.3774C76.3771 61.0248 74.7939 61.9376 73.8149 62.6512L72.8107 62.2908C76.4268 60.0724 79.7608 58.1496 83.3352 55.7686Z" fill="#D9DBD5"/>
<path d="M22.3323 21.6829C24.0836 22.4746 26.0439 23.0955 27.8 23.8937C27.6033 25.4791 27.693 28.5301 27.7215 30.2094L27.6206 30.2913C25.9698 29.5774 24.1799 28.6913 22.5181 27.9364C22.3771 25.685 22.321 23.9171 22.3323 21.6829Z" fill="white"/>
<path d="M87.5411 70.1286L88.3583 70.3775C88.9265 70.6005 89.215 70.7285 89.748 71.0206C86.3074 73.0124 82.9266 75.1905 79.4918 77.1931C78.4524 77.8003 76.913 78.8785 75.8973 79.3626C75.5377 79.2087 75.1794 79.0519 74.8219 78.8936L73.5286 78.4023C76.7965 76.476 79.981 74.482 83.3431 72.7052C84.7264 71.9744 86.2823 71.0486 87.5411 70.1286Z" fill="white"/>
<path d="M87.5411 70.1286L88.3583 70.3775C87.8763 70.7386 87.3857 70.9853 86.8844 71.3069C83.8862 73.2296 80.8405 75.1078 77.8417 77.027C77.4137 77.301 74.9521 78.7095 74.8219 78.8936L73.5286 78.4023C76.7965 76.476 79.981 74.482 83.3431 72.7052C84.7264 71.9744 86.2823 71.0486 87.5411 70.1286Z" fill="#D9DBD5"/>
<path d="M76.5016 64.7415C76.7001 64.9912 76.7584 68.9093 76.7907 69.4999L71.9036 72.8088C71.8705 72.7254 71.6238 68.1425 71.5972 67.8023C73.0193 67.0182 75.1428 65.6501 76.5016 64.7415Z" fill="#D9DBD5"/>
<path d="M23.7053 52.9165C24.0582 52.982 25.0772 53.3409 25.4665 53.4689C26.8467 53.9228 28.2194 54.3983 29.5841 54.8961C29.4998 56.2758 29.5222 57.7504 29.5493 59.1315C29.2524 59.1315 26.6505 58.0949 26.0836 57.9007C25.3406 57.6389 24.5853 57.4137 23.8205 57.2246C23.677 55.765 23.6921 54.3803 23.7053 52.9165Z" fill="white"/>
<path d="M58.3522 76.2515C59.529 76.8435 61.8718 78.3923 62.976 79.1245C62.1179 80.6984 61.2949 82.4119 60.4922 84.0203C60.0174 84.9101 59.4549 85.8553 58.9499 86.7329C58.5895 83.5477 58.5169 79.4935 58.3522 76.2515Z" fill="#D9DBD5"/>
<path d="M75.6046 80.2819C75.9175 80.815 75.8657 84.2087 75.8671 85.0914C74.5133 85.8006 72.4971 87.1062 71.1296 87.9298C71.0303 86.0984 71.1519 85.1209 70.8829 83.1607C72.3963 82.2997 74.1378 81.2221 75.6046 80.2819Z" fill="#D9DBD5"/>
<path d="M73.5645 37.4778L73.6091 37.4898C73.8264 37.7988 73.9213 41.4018 73.9278 42.0001C72.3827 42.9994 70.7987 43.8472 69.2622 44.8747C69.1349 44.4167 69.1076 43.2069 69.0795 42.6769C69.0335 41.7854 68.9803 41.0598 68.8529 40.1621C70.4326 39.2836 72.0029 38.3888 73.5645 37.4778Z" fill="#D9DBD5"/>
<path d="M68.4854 35.0604L69.8693 35.5776C71.0008 36.0258 72.1302 36.4804 73.2567 36.9414C71.7195 37.7545 70.0441 38.7612 68.5264 39.6432C67.4272 39.1497 66.3223 38.6702 65.2117 38.2048C64.724 38.0047 64.2356 37.8077 63.7457 37.6139C65.2333 36.8932 67.0028 35.8662 68.4854 35.0604Z" fill="white"/>
<path d="M68.4854 35.0604L69.8693 35.5776C68.3321 36.4805 66.7791 37.3563 65.2117 38.2048C64.724 38.0047 64.2356 37.8077 63.7457 37.6139C65.2333 36.8932 67.0028 35.8662 68.4854 35.0604Z" fill="#D9DBD5"/>
<path d="M55.1907 48.2432C55.8273 48.844 56.4826 49.4451 57.0861 50.0786C57.8026 50.7727 58.5342 51.4988 59.2643 52.174C58.1644 54.2099 57.1509 56.2916 56.0366 58.3201C55.8913 58.5848 55.7345 58.9164 55.5684 59.1632C55.6058 57.09 55.5187 55.0601 55.4231 52.9927C55.3504 51.4092 55.3159 49.825 55.1907 48.2432Z" fill="#D9DBD5"/>
<path d="M72.0762 62.6771L72.992 63.0195C74.0371 63.382 75.1837 63.7949 76.2059 64.2215C74.5069 65.2221 72.8517 66.3298 71.162 67.357C70.2189 66.901 69.2594 66.478 68.2861 66.0903L67.0258 65.5796C68.694 64.5912 70.4225 63.7021 72.0762 62.6771Z" fill="white"/>
<path d="M72.0762 62.6771L72.992 63.0195C71.9331 63.9122 69.5579 65.2422 68.2861 66.0903L67.0258 65.5796C68.694 64.5912 70.4225 63.7021 72.0762 62.6771Z" fill="#D9DBD5"/>
<path d="M87.8245 58.6186C87.8626 58.8136 87.8598 59.6652 87.8691 59.9436C87.895 60.8924 87.9475 61.8405 88.0267 62.7864C88.1885 64.5401 88.6223 66.2155 88.687 67.9584C88.0921 67.5728 87.4893 67.1995 86.88 66.8377L84.8199 65.5983C85.45 63.9827 86.2715 62.3599 86.9023 60.732C87.1591 60.0702 87.5051 59.2444 87.8245 58.6186Z" fill="#D9DBD5"/>
<path d="M86.452 31.6434C86.5204 31.9534 86.5714 33.8555 86.5916 34.2707C86.7124 36.7925 86.8275 39.289 86.7765 41.8158L85.3644 40.4853C84.7681 39.8974 84.1646 39.317 83.5539 38.7441C84.6329 36.4248 85.5996 34.0553 86.452 31.6434Z" fill="#D9DBD5"/>
<path d="M6.31611 58.2705C6.62571 58.3244 7.74232 58.7395 8.09076 58.8618C9.061 59.2027 10.0377 59.525 11.0202 59.8285C17.0649 61.7326 23.0607 63.7892 29.002 65.9946C29.1762 66.0579 29.4138 66.1148 29.4782 66.2507C29.2267 66.2709 29.104 66.2011 28.85 66.1255L5.32308 58.9409C5.66857 58.728 5.985 58.5028 6.31611 58.2705Z" fill="white"/>
<path d="M26.9416 50.6204L32.2305 52.595C32.0675 52.6985 31.3904 53.1481 31.2535 53.215C30.7984 53.5732 30.3298 53.9272 29.87 54.2803C28.0412 53.6229 25.9703 52.9633 24.1118 52.3777C24.7219 51.9624 25.2608 51.5998 25.8992 51.2216L26.9416 50.6204Z" fill="white"/>
<path d="M26.9416 50.6204L32.2305 52.595C32.0675 52.6985 31.3904 53.1481 31.2535 53.215C30.0559 52.9748 26.9973 51.7997 25.8992 51.2216L26.9416 50.6204Z" fill="#D9DBD5"/>
<path d="M72.8481 78.8044L74.1796 79.2972C74.5364 79.4605 74.9377 79.6353 75.2859 79.8079C73.6782 80.6812 72.0583 81.7242 70.4995 82.6967C70.1887 82.5248 69.7622 82.2745 69.4507 82.1277C69.2737 82.0687 68.5803 81.7407 68.3767 81.6501C69.8542 80.6768 71.3576 79.7575 72.8481 78.8044Z" fill="#D9DBD5"/>
<path d="M74.1796 79.2972C74.5364 79.4605 74.9377 79.6353 75.2859 79.8079C73.6782 80.6812 72.0583 81.7242 70.4995 82.6967C70.1887 82.5248 69.7622 82.2745 69.4507 82.1277C71.0721 81.2617 72.6503 80.3165 74.1796 79.2972Z" fill="white"/>
<path d="M7.65737 25.6954C7.84102 25.8719 7.95057 29.39 7.97179 29.8644C6.87719 29.4562 5.76158 29.0007 4.67223 28.5713C4.06317 28.3398 3.45958 28.0942 2.86189 27.8349C3.90621 27.18 6.37725 26.2683 7.65737 25.6954Z" fill="white"/>
<path d="M70.8239 51.2947C69.5895 52.1925 67.9847 53.1416 66.6705 53.9581C63.3601 56.0204 59.993 57.9907 56.5733 59.8652L56.5495 59.6839C59.8829 57.5439 63.0774 55.4406 66.5813 53.5639C67.9171 52.8482 69.4464 51.8876 70.8239 51.2947Z" fill="white"/>
<path d="M54.9174 60.4975C55.4892 60.3522 56.0374 59.9868 56.5495 59.6839L56.5733 59.8652C56.1093 60.1544 55.4712 60.5054 54.967 60.714L54.9174 60.4975Z" fill="#B5FE28"/>
</svg>
