<svg width="167" height="67" viewBox="0 0 167 67" fill="none" xmlns="http://www.w3.org/2000/svg">
<g clip-path="url(#clip0_923_71431)">
<path d="M24.7877 33.7188C22.8435 28.3725 26.2458 14.2775 27.7039 9.90319C29.162 5.52889 31.1061 6.50091 31.1061 6.50091C35.4804 13.7914 40.3408 16.7076 44.229 17.1937C47.2424 17.5703 52.9777 14.4395 55.4078 11.8473C55.4078 11.8473 54.0113 8.62303 54.4358 6.50091C55.4078 1.64057 59.9067 -1.42515 62.6983 0.668559C66.5866 3.58472 68.4826 5.40245 73.8771 9.90319C78.3193 13.6094 85.0559 22.216 85.0559 19.6238C85.0559 17.0316 85.9307 12.4305 89.4302 14.7635C92.9296 17.0964 95.7486 13.7914 96.7207 11.8473C96.7207 11.8473 93.8077 8.74297 94.2905 6.50091C94.8022 4.12466 97.0749 3.87705 99.1508 2.61264C101.11 1.41965 102.553 0.668512 104.497 0.182525C108.385 3.58478 104.011 2.02945 117.62 13.3054C134.631 27.4004 146.296 29.8306 154.073 31.7747C160.294 33.33 161.849 38.2551 161.849 40.5233C161.849 40.5233 161.107 43.7301 159.905 45.3836C157.559 48.6114 150.67 49.7579 150.67 49.7579H174V66.7691H0V49.7579H3.40223L22.3575 49.2719C22.3575 49.2719 21.4713 46.3453 21.3855 44.4116C21.1912 40.0338 24.7877 33.7188 24.7877 33.7188Z" fill="#1C1C1C"/>
<path d="M102.597 2.23841C106.001 3.06467 111.684 9.70875 114.372 12.5083C112.263 11.6577 110.6 10.5496 108.658 9.37827C103.458 7.4876 101.81 11.3953 98.6463 9.5921C97.718 5.96143 99.91 3.96383 102.597 2.23841Z" fill="white"/>
<path d="M59.872 2.12663C62.7143 2.59323 68.882 8.30412 69.4813 10.8169C68.0164 10.7926 67.98 10.3892 66.5238 9.38314C61.1838 7.6723 59.5881 11.3516 56.4498 9.61643C55.2785 5.85939 57.2522 4.36239 59.872 2.12663Z" fill="white"/>
<path d="M105.295 11.5654C106.918 11.7744 107.443 11.7501 108.347 12.9651C108.107 14.0587 108.003 14.5934 107.892 15.7064L108.758 16.1632C112.077 16.1632 112.449 13.1547 116.046 14.3357C115.328 16.7027 112.967 16.4451 112.841 18.9676L113.884 19.7793C117.561 19.6578 117.324 15.823 121.055 17.8012C122.217 20.0369 118.792 19.162 118.415 22.0977L119.267 22.6518C121.478 22.783 122.262 21.9665 124.369 20.8049C126.266 21.0041 125.397 20.6639 126.946 22.122C125.138 23.9981 124.579 24.2654 125.146 26.7005C127.769 25.6215 130.775 23.2302 133.684 25.7818L133.512 26.8852C132.62 27.7309 131.751 28.3967 130.485 28.455C124.033 28.7564 105.328 17.3249 100.294 13.6213L105.295 11.5654Z" fill="white"/>
<path d="M27.2864 22.6129C33.4469 24.873 41.62 29.1598 43.9457 35.6969L43.5107 36.5183C37.6195 35.8573 32.0884 35.4442 26.2361 34.3797C26.466 30.0929 26.7109 26.856 27.2864 22.6129Z" fill="white"/>
<path d="M153.736 34.0785C155.563 33.5535 158.65 35.799 157.945 37.9425C152.219 41.1551 136.825 41.2815 129.822 41.2912L123.486 40.985C131.658 33.0287 141.4 36.878 153.736 34.0785Z" fill="white"/>
<path d="M111.445 34.0785C113.631 33.7723 115.341 34.9825 116.049 36.9996L115.383 38.0591C109.371 41.4176 94.9952 41.3301 87.7892 41.2718C85.8427 41.2281 84.4152 41.335 82.5926 40.6983L82.5168 40.0324C88.6004 33.5925 102.518 36.5281 111.445 34.0785Z" fill="white"/>
<path d="M73.7147 13.2276C76.4064 15.5265 74.8452 15.5946 78.5853 17.0089C75.5305 17.5484 74.2542 19.3808 71.163 19.721L70.8914 19.0406C71.8377 16.6882 72.2804 16.6153 74.0297 14.7343L73.7147 13.2276Z" fill="#1C1C1C"/>
<path d="M57.7893 13.7963C59.9857 12.693 63.2845 10.744 65.4031 12.3674C65.5421 13.6311 65.6262 14.2191 65.911 15.4537L66.8723 15.9251C69.0546 15.7987 71.6476 14.2434 73.7147 13.2276C76.4064 15.5265 74.8452 15.5946 78.5853 17.0089L79.0421 18.0491C78.7126 19.619 77.8008 19.8085 76.244 21.2666C76.4112 22.6421 76.1561 22.0297 77.2598 23.0261C79.8708 22.8608 80.3641 21.3104 82.7151 20.4744C84.1785 21.4367 83.7314 20.8 84.2485 22.3262C83.7085 23.3566 83.502 23.7016 82.806 24.6008L82.2135 25.3542L82.6801 25.9908C86.4823 26.3408 86.3657 23.8474 89.7397 24.3481C91.1769 25.2424 91.139 25.4854 91.9123 26.9726C90.8168 27.9739 88.3856 28.3336 86.8362 28.7078C79.7026 27.1865 63.6553 18.0588 57.7893 13.7963Z" fill="white"/>
<path d="M156.458 41.8551C157.323 41.6655 157.119 41.7336 158.042 41.8308C158.023 42.8418 158.202 42.7932 157.517 43.3424C147.636 51.289 123.536 49.6657 111.735 49.8358L110.981 49.5879C114.77 47.6486 116.757 46.7738 119.56 43.4444C132.647 44.4165 143.432 44.8199 156.458 41.8551Z" fill="#F2F2F2"/>
<path d="M36.4525 44.4116C42.9196 43.4455 44.6324 38.9631 52.6408 40.1344C78.4662 43.9012 91.2999 45.8939 117.454 41.4418C115.924 42.9826 114.934 43.7699 113.219 45.1357C108.077 47.7165 101.946 48.7178 96.2623 49.2864C85.9579 50.3168 35.1572 50.6473 27.8657 48.1199C26.3153 47.5853 24.8499 46.9048 24.253 45.2426C23.3597 42.759 31.7297 45.1171 36.4525 44.4116Z" fill="#F2F2F2"/>
<path d="M30.4466 9.81085C38.4297 11.9688 35.7001 26.7782 55.036 15.6675C60.5772 19.2107 66.6415 22.5984 72.3815 25.8548C80.0069 30.1757 87.3572 34.3069 95.2941 28.319C98.4942 29.5827 103.731 30.6131 106 31.9837L105.618 32.4843L102.565 32.8294C92.5383 33.4175 84.771 30.7443 78.6451 40.6205C69.1261 39.7748 57.2168 37.8598 47.6249 36.5572C42.63 26.1804 37.966 23.8572 27.7359 19.6482C28.4062 16.6299 29.1489 12.4986 30.4466 9.81085Z" fill="#FA4444"/>
<path d="M3.9076 53.1407C35.9343 52.3582 69.9586 53.097 102.117 53.0678L145.216 53.0581C153.206 53.0581 163.102 52.7811 170.946 53.3157C170.956 55.809 171.199 60.5381 170.562 62.7058L169.59 63.1238C147.485 63.2939 125.381 63.3377 103.277 63.2502L2.54671 63.2162C2.48693 60.5333 2.15981 55.8674 2.96128 53.549L3.9076 53.1407Z" fill="white"/>
<path d="M87.3212 17.2181C90.1567 20.9994 94.4251 17.4319 97.8949 15.5412C104.893 20.523 123.428 32.6788 131.956 30.9971C134.001 30.5937 136.511 29.4856 138.437 28.5329C142.343 29.9278 145.794 31.0894 149.77 32.2705C137.834 33.4759 127.685 29.8841 120.493 40.9705C119.513 36.985 118.624 33.539 114.526 31.5998C106.273 27.6921 93.7826 26.5936 87.2299 19.3857C87.3368 18.6275 87.3105 17.9909 87.3212 17.2181Z" fill="#FA4444"/>
</g>
<defs>
<clipPath id="clip0_923_71431">
<rect width="167" height="67" fill="white"/>
</clipPath>
</defs>
</svg>
