<svg width="63" height="113" viewBox="0 0 63 113" fill="none" xmlns="http://www.w3.org/2000/svg">
<path d="M53.6407 90.8777C53.1702 89.1093 52.6819 87.274 52.3236 85.296L45.5498 46.6744C44.026 38.1587 42.5537 29.6333 41.1352 21.0981C40.9366 19.8827 40.8013 18.5337 40.6642 17.1651C40.4427 14.9558 40.2162 12.6956 39.7094 10.8651C36.8505 0.531713 25.6473 -2.75597 16.823 2.40828C13.9959 4.06192 12.5383 6.25943 10.9924 8.9665C7.12168 12.0484 7.13148 19.7188 7.47936 24.1873C4.16963 26.865 5.26471 31.4339 7.88604 34.1802C8.6139 46.4981 9.70278 59.3436 10.7571 71.7815C10.9094 73.5773 11.0609 75.3646 11.2105 77.1405L12.3251 90.3476C12.4261 91.554 12.4955 92.6545 12.5608 93.6914C12.8093 97.6344 12.9998 100.658 14.6525 105.088C13.9777 105.423 13.381 105.462 12.6787 105.508C12.5371 105.517 12.3911 105.527 12.2394 105.539C11.638 105.544 10.8178 105.52 9.88097 105.492C6.51341 105.392 1.63873 105.247 0 106.276L0.0441132 106.58C1.99131 107.01 6.06247 106.948 10.0159 106.887C13.0907 106.84 16.0942 106.794 17.972 106.982C20.6693 109.128 30.5078 111.818 33.8837 111.269C36.6471 112.305 39.6114 112.702 42.5512 112.43C47.3358 112.031 50.1972 110.51 53.2301 106.884L63 106.883V105.527L54.0361 105.554C56.0975 100.112 54.9365 95.7481 53.6407 90.8777Z" fill="#1C1C1C"/>
<path d="M12.2228 34.2027C10.3437 34.6192 9.7215 34.7221 7.88657 34.1807C8.71952 48.277 10.0253 63.0642 11.211 77.141L12.3257 90.3481C12.8107 96.1419 12.5658 99.4933 14.653 105.089C13.8421 105.491 13.1439 105.466 12.2399 105.54C16.4586 105.762 22.5758 105.544 26.9414 105.527C24.1094 101.674 23.5851 98.4693 22.6615 93.9199C16.8995 96.1419 14.408 89.4612 16.9706 85.2402C17.7986 83.8781 19.3493 83.7041 20.829 83.464C20.491 81.8667 20.2705 80.2156 19.9667 78.606C17.1935 63.8531 15.0523 48.9385 12.2228 34.2027Z" fill="#D9DBD5"/>
<path d="M28.0497 106.854C24.7498 106.872 21.2465 106.837 17.9711 106.982C20.6684 109.128 30.5069 111.818 33.8828 111.269C31.2664 109.77 30.2203 108.944 28.0497 106.854Z" fill="#D9DBD5"/>
<path d="M10.9922 8.9668C7.12145 12.0487 7.13125 19.7191 7.47913 24.1876C8.26308 23.9892 9.45616 23.852 10.2818 23.7295C9.40717 17.1248 9.05437 15.3707 10.9922 8.9668Z" fill="#D9DBD5"/>
<path d="M27.4298 1.49418C18.1645 0.916014 12.7283 9.59577 13.7817 17.9497C14.2913 21.9968 15.0091 25.9558 15.7024 29.9735L19.3159 50.7947L24.2842 79.546C25.1931 84.7935 26.0309 90.0606 27.0794 95.2812C28.6008 102.849 32.3735 108.055 39.8112 110.394C45.8452 111.695 52.0384 108.946 53.4985 102.594C53.8978 100.828 53.9517 99.0001 53.6553 97.2117C53.1775 94.2597 51.9894 91.1508 51.4553 88.1718C49.7747 78.7767 48.0892 69.3595 46.4846 59.9522L40.213 24.2556C38.5643 14.5812 40.0072 4.03466 27.4298 1.49418Z" fill="white"/>
<path d="M14.9296 6.04102C12.4552 7.91759 10.7305 13.5498 10.9412 16.59C11.2132 20.5563 12.0461 24.7357 12.7369 28.6604L15.8041 46.3261L22.0365 82.0301C23.8592 92.0499 23.7612 103.385 33.2715 109.213L33.8398 109.375C33.7712 108.973 31.1034 106.749 30.5105 106.051C25.5227 100.191 24.8808 91.1777 23.5897 83.7229L18.7048 55.2509L14.4396 30.8285C12.6929 20.7376 10.5566 15.6689 14.9296 6.04102Z" fill="white"/>
<path d="M19.4951 85.1787C15.7248 86.4673 17.5597 91.3082 20.0218 93.2264C23.5055 92.712 22.0503 86.8985 19.4951 85.1787Z" fill="white"/>
<path d="M19.6216 87.1016C18.1027 88.1109 18.9234 90.2692 19.8813 91.401C21.4002 90.0022 20.8906 88.3902 19.6216 87.1016Z" fill="#1C1C1C"/>
<path d="M9.60147 25.3926C5.32651 25.6253 6.90664 30.9806 9.0135 33.041C10.1576 33.2026 9.62597 33.2713 10.672 32.8695C12.4702 31.0566 11.015 27.0977 9.60147 25.3926Z" fill="white"/>
<path d="M9.65655 27.4873L8.67662 27.6563C7.50805 28.7931 8.31894 30.0327 8.9804 31.2502C9.88439 30.944 9.90643 30.8828 10.2886 30.0939C10.3302 28.9768 10.0706 28.5628 9.65655 27.4873Z" fill="#1C1C1C"/>
<circle cx="0.979935" cy="0.979935" r="0.979935" transform="matrix(-1 0 0 1 36.5039 29.3984)" fill="#1C1C1C"/>
<circle cx="0.979935" cy="0.979935" r="0.979935" transform="matrix(-1 0 0 1 23.7617 30.8682)" fill="#1C1C1C"/>
<circle cx="0.979935" cy="0.979935" r="0.979935" transform="matrix(-1 0 0 1 26.2148 40.667)" fill="#1C1C1C"/>
<circle cx="0.979935" cy="0.979935" r="0.979935" transform="matrix(-1 0 0 1 38.4609 38.2178)" fill="#1C1C1C"/>
</svg>
