<svg width="32" height="32" viewBox="0 0 32 32" fill="none" xmlns="http://www.w3.org/2000/svg">
<path d="M11.8338 19.9878C13.4298 19.9051 13.7021 21.325 13.806 22.6026C14.5321 22.5833 15.3715 22.4185 15.449 23.4056C15.6002 25.3355 15.9232 27.2555 16.0862 29.1808C16.2077 30.6198 14.6895 30.351 13.7737 30.324C13.2349 30.3073 12.6957 30.3001 12.1565 30.3028C11.3735 30.2944 10.5278 30.3012 9.75002 30.3388C8.51339 30.3988 7.75615 30.2982 7.94739 28.7723C8.16469 26.9886 8.42714 25.2079 8.54753 23.4136C8.61471 22.4094 9.44132 22.5863 10.1762 22.5981C10.1787 21.4192 10.566 20.2236 11.8338 19.9878Z" fill="#1C1C1C"/>
<path d="M10.647 23.0788C11.4248 23.0507 12.5381 23.1008 13.3438 23.108L13.3379 23.698C12.9378 24.0439 12.7311 24.5979 13.3728 24.7847C13.557 24.8386 13.7549 24.8093 13.9171 24.7038C14.3389 24.4289 14.0753 23.9961 13.8209 23.7174L13.8187 23.0944C14.1006 23.089 14.7485 23.0215 14.9284 23.2295C15.041 23.6696 15.0539 24.1373 15.0994 24.5906C15.2462 26.0497 15.4555 27.5016 15.6111 28.9595C15.6328 29.1619 15.6052 29.4596 15.5535 29.6513C15.1328 29.9995 14.0269 29.8518 13.4469 29.8267C12 29.8153 10.5593 29.8161 9.11304 29.8677C8.18695 29.922 8.38259 29.0343 8.46921 28.3832C8.67734 26.8243 8.90602 25.2653 8.99778 23.6916C9.00549 23.5614 9.01944 23.3024 9.09762 23.2052C9.37292 23.0496 9.85266 23.0913 10.1812 23.0917L10.1753 23.7406C9.38026 24.4137 10.2561 25.1324 10.8911 24.6457C11.2398 24.3784 10.919 23.9395 10.6668 23.703L10.647 23.0788Z" fill="white"/>
<path d="M11.8643 20.4864C13.0829 20.3824 13.255 21.6653 13.3376 22.6042L12.1869 22.6031L10.6563 22.5989C10.6541 21.6725 10.8993 20.7499 11.8643 20.4864Z" fill="white"/>
<path d="M15.3782 5.76149C17.5563 5.72584 19.7634 5.79164 21.9371 5.9331C22.7153 5.98379 23.554 5.9841 24.3146 6.16098C24.8358 6.28221 25.288 6.51655 25.5725 7.00894C26.3947 8.43393 26.3048 17.0906 25.8379 18.9397C25.6731 19.5935 25.2627 19.9493 24.725 20.2735C24.6945 23.6363 23.1345 25.8775 20.1954 27.223C20.2534 27.6308 20.4913 28.3617 20.3386 28.6806C20.2824 28.7216 20.2171 28.7744 20.1426 28.7345C19.4342 28.3552 17.0868 27.242 16.7018 26.6824C16.679 26.5366 16.7667 26.3767 16.8332 26.2526C17.0391 25.8684 18.8315 23.3352 19.099 23.2839C19.1339 23.2775 19.1405 23.2862 19.1724 23.3098C19.4488 23.5125 19.5333 24.3295 19.6111 24.6568C21.4941 23.787 22.4301 22.6172 22.9073 20.5473C20.198 20.6118 17.4847 20.8237 14.771 20.7162C14.5963 20.7094 14.3607 20.6657 14.3328 20.4637C14.5442 20.1023 15.1447 20.2439 15.5129 20.2526C16.0521 20.2636 16.5913 20.2659 17.1305 20.2602C19.0858 20.2355 21.0404 20.1535 22.9913 20.0142C23.064 17.9522 22.4631 16.2192 21.0841 14.7841C20.9325 14.6263 20.6697 14.3871 20.9483 14.2252C21.2071 14.211 21.362 14.3606 21.5727 14.5138C23.4729 15.9434 24.2338 17.3929 24.6772 19.7055L24.7202 19.6763C25.1045 19.4109 25.386 18.975 25.4396 18.4758C25.8133 14.9806 25.8203 11.385 25.3934 7.89582C25.2924 7.07326 24.7275 6.69575 23.9813 6.59643C22.9642 6.46115 21.9037 6.41654 20.8653 6.36274C17.4935 6.19964 14.1158 6.20704 10.7444 6.38488C9.8216 6.43196 7.98226 6.38617 7.2085 6.92629C6.39326 7.49534 6.42446 9.26226 6.36206 10.2341C6.22405 12.4598 6.24204 14.6929 6.41639 16.916C6.59441 19.4716 6.61644 19.9671 9.23394 20.0715C9.40058 20.078 9.67404 20.1805 9.62118 20.4117C9.52979 20.5161 9.40903 20.5662 9.27138 20.5617C7.67614 20.5097 6.25672 20.3574 6.06401 18.3539C5.96894 17.3671 5.8959 16.3633 5.84341 15.3584C5.7388 13.4228 5.76633 11.4821 5.92526 9.55051C5.99427 8.64116 5.99794 7.49455 6.62929 6.79435C6.90862 6.48864 7.26466 6.26896 7.65742 6.15966C8.18928 6.00836 9.30038 5.97225 9.88657 5.93994C11.7164 5.85288 13.5469 5.79339 15.3782 5.76149Z" fill="#1C1C1C"/>
<path d="M22.7886 16.3652C22.822 16.3851 22.8671 16.4097 22.8913 16.4419C25.4435 19.8717 24.2821 24.7615 20.4519 26.5346C20.2202 26.6417 19.8793 26.7749 19.7067 26.9621C19.6451 27.2256 19.8227 27.8111 19.8939 28.0977L18.1695 27.1174C17.8417 26.9367 17.5172 26.7503 17.1953 26.5585C17.2966 26.3846 17.4141 26.2229 17.5319 26.0615C18.0205 25.3922 18.4848 24.7023 19.0012 24.0553C19.0725 24.4039 19.0948 24.8618 19.3004 25.1306C19.4377 25.2001 19.5217 25.1792 19.6631 25.1283C22.8968 23.9695 24.234 20.2446 23.0158 17.0395C22.9504 16.8677 22.8535 16.6025 22.8051 16.4267L22.7886 16.3652Z" fill="#B5FE28"/>
<path d="M3.70101 13.9438C5.39022 13.9049 4.71226 16.3822 3.98328 17.225C3.59053 17.1268 3.33285 17.0536 2.9456 16.9177C2.49962 16.7338 2.03493 16.4621 1.78239 16.0174C1.55335 15.6148 1.57684 14.9796 2.0386 14.7562C2.38217 14.59 2.64535 14.6415 2.99038 14.7505L3.01057 14.6942C3.18089 14.2281 3.27926 14.1362 3.70101 13.9438Z" fill="#1C1C1C"/>
<path d="M3.77008 14.459C4.83565 14.4553 4.04611 16.2067 3.82073 16.6821C3.4111 16.5863 3.17764 16.4976 2.7992 16.3155C2.48096 16.1369 1.80191 15.6717 2.23283 15.2187C2.50556 14.9317 2.87702 15.3332 3.15268 15.3758C3.40412 15.4147 3.43679 14.8351 3.54727 14.6838C3.61665 14.5833 3.67134 14.5415 3.77008 14.459Z" fill="white"/>
<path d="M28.0755 10.4648C28.6012 10.5308 28.7392 10.7418 28.9877 11.1867C30.4398 10.5728 31.0153 12.2455 29.3492 13.2612C28.9352 13.4833 28.6041 13.604 28.1566 13.7212C27.3954 13.0855 26.5706 10.8217 28.0755 10.4648Z" fill="#1C1C1C"/>
<path d="M27.987 10.9805C28.5717 10.9874 28.4366 11.3644 28.6649 11.7305C28.8217 11.9811 29.4009 11.4601 29.6586 11.5289C29.7122 11.5432 29.8175 11.5441 29.8516 11.6138C30.0678 12.0257 29.7059 12.381 29.4629 12.5845C29.0265 12.8954 28.7798 12.9952 28.2832 13.1848C27.9062 12.6573 27.3729 11.4974 27.987 10.9805Z" fill="white"/>
<path d="M22.4154 1.64802C22.9626 1.59866 23.1183 1.74009 23.4171 2.18404C23.6513 2.05169 23.8528 1.97879 24.1259 2.02515C24.2973 2.05385 24.45 2.15344 24.5487 2.30102C25.0035 2.9749 24.4569 3.65656 23.921 4.03312C23.5378 4.25504 23.224 4.40782 22.7971 4.50676C22.0788 3.91884 21.29 2.27482 22.4154 1.64802Z" fill="#1C1C1C"/>
<path d="M22.6191 2.08789C23.0581 2.2256 22.9355 2.46961 23.1723 2.77791C23.1745 2.78075 23.2644 2.84667 23.2765 2.84086C23.5636 2.70213 23.8271 2.50188 24.156 2.53651C24.4959 2.75964 23.9926 3.29213 23.8098 3.46766C23.5199 3.70298 23.2699 3.82049 22.9355 3.9719C22.5354 3.53463 21.9536 2.53602 22.6191 2.08789Z" fill="white"/>
<path d="M15.5986 10.9937C17.2723 10.6732 19.1585 11.9291 19.8626 13.4716C19.3868 14.7982 17.9094 15.7151 16.6086 15.9425C14.9945 16.1145 12.8953 15.1923 12.3516 13.5259L12.3706 13.4743C12.8162 12.2395 14.347 11.1723 15.5986 10.9937Z" fill="#0C0C0C"/>
<path d="M15.6139 11.4469C17.2689 11.2548 18.4793 12.1034 19.353 13.4955C18.5745 14.5848 17.9785 15.1562 16.665 15.4626C15.1621 15.723 13.5963 14.9056 12.8242 13.5661C12.8755 13.4605 12.9333 13.3584 12.9974 13.2605C13.6009 12.3193 14.5428 11.6664 15.6139 11.4469Z" fill="white"/>
<path d="M15.9804 15.0509C13.6878 14.972 14.2621 11.0653 16.7081 11.9947C17.1106 12.2076 17.4898 12.5413 17.568 13.0254C17.6268 13.3895 17.7089 14.2696 17.2369 14.3485C16.9591 14.2294 17.0216 13.8841 16.6627 13.8901C15.9897 14.2521 16.7934 14.5646 16.5758 14.9234C16.3628 15.0455 16.226 15.0338 15.9804 15.0509Z" fill="#0C0C0C"/>
<path d="M15.9608 14.6086C15.345 14.482 14.9029 14.0801 14.9544 13.3898C14.9766 13.0632 15.1283 12.7604 15.3737 12.5532C15.681 12.2962 15.9645 12.2859 16.3321 12.3257C17.0003 12.5311 17.1494 12.9781 17.1908 13.6339C16.3589 13.1837 15.7902 13.6821 15.9608 14.6086Z" fill="white"/>
</svg>
