<svg width="32" height="32" viewBox="0 0 32 32" fill="none" xmlns="http://www.w3.org/2000/svg">
<path d="M21.4056 4.75417C23.1004 -0.391359 29.9283 2.44736 28.2469 6.94591C27.9136 7.82098 27.2457 8.52742 26.3907 8.90941C26.1331 9.0256 25.8245 9.12358 25.5495 9.19052C25.5619 10.6178 25.6459 12.0437 25.6552 13.4723C25.665 14.9913 25.589 16.514 25.5342 18.0318C25.5066 18.7933 25.5359 19.6 25.4548 20.3543C25.44 20.4916 25.4171 20.6848 25.3295 20.7966C25.1968 20.9659 18.058 21.0677 17.4016 21.0681C15.9505 21.0685 14.5032 21.0037 13.0535 20.9913C13.033 22.6765 12.8816 24.9172 11.6223 26.1836C10.596 27.2163 9.8678 27.9258 9.34915 29.3441C9.26081 29.5859 9.10571 29.9476 8.83849 30C8.68586 29.9321 8.63658 29.8843 8.621 29.7104C8.26647 29.4208 8.44169 28.739 8.52174 28.3419C8.67919 27.5618 8.95451 26.6479 9.44953 26.0132C10.0401 25.2558 10.7468 24.6685 11.0466 23.7222C11.5562 22.3772 11.3926 21.2354 11.7536 19.9047C12.0142 18.9441 12.7255 17.9361 13.1305 17.0068C13.3878 16.416 13.8366 15.2665 13.5993 14.6341C13.5082 14.554 13.3833 14.582 13.2308 14.5384L13.1612 14.5179C12.2456 14.863 11.3484 17.1267 10.7699 17.9095C10.4049 18.4039 9.32848 19.7342 8.71135 19.7655L8.64653 19.72C8.59312 19.3691 9.01806 19.0652 9.24419 18.8481C9.16653 18.6545 8.75936 18.5246 8.64969 18.3086C8.24071 17.5039 8.26759 16.111 8.57326 15.2874C8.73213 14.8591 9.37445 13.4197 9.67141 13.1954L9.6669 10.2965C8.61583 11.5112 6.35063 14.6203 5.88763 16.0632C5.60868 16.9328 5.59337 17.869 5.54559 18.7729C5.49677 19.8877 5.41144 21.0002 5.28958 22.1092C5.12666 23.6648 4.91858 24.827 4.08412 26.1932C3.86116 26.5584 3.61121 27.1796 3.23654 27.3994C3.10551 27.4075 3.16312 27.4253 3.05912 27.3404C2.99315 27.1877 2.97807 27.0466 3.03599 26.8862C3.13143 26.6224 3.37772 26.334 3.52949 26.0884C3.95621 25.3977 4.33689 24.6327 4.53104 23.8402C4.82785 22.6298 4.88353 21.0978 4.96289 19.8372C5.03851 18.6364 5.01557 17.313 5.32382 16.145C5.78031 14.415 8.3643 10.9021 9.68324 9.52535C9.71267 8.80422 9.75559 5.44735 9.95699 5.00706C10.239 4.77257 11.1817 4.78232 11.5855 4.76408C12.3698 4.72822 13.1546 4.70296 13.9396 4.68831C15.5956 4.65171 17.2382 4.6383 18.8938 4.68715C19.6718 4.71014 20.6476 4.68792 21.4056 4.75417Z" fill="#1C1C1C"/>
<path d="M13.1603 14.5177C13.6435 14.3906 13.909 14.6607 13.9791 15.1298C14.229 16.8007 13.0411 18.2205 12.6898 19.7811C12.4896 20.6556 12.5313 21.2483 12.499 22.1098C12.4403 23.2951 12.2131 24.5168 11.5024 25.4958C11.1207 26.0214 10.6392 26.3939 10.2097 26.8586C9.55091 27.5712 8.94072 28.7994 8.62004 29.7102C8.26551 29.4206 8.44073 28.7388 8.52079 28.3416C8.67823 27.5615 8.95356 26.6476 9.44857 26.0129C10.0392 25.2556 10.7459 24.6683 11.0457 23.722C11.5552 22.377 11.3917 21.2352 11.7527 19.9045C12.0133 18.9439 12.7245 17.9359 13.1295 17.0066C13.3869 16.4158 13.8357 15.2663 13.5983 14.6338C13.5073 14.5538 13.3823 14.5818 13.2298 14.5382L13.1603 14.5177Z" fill="#D9DBD5"/>
<path d="M9.24478 18.848C9.16712 18.6545 8.75995 18.5245 8.65028 18.3086C8.2413 17.5038 8.26818 16.111 8.57385 15.2873C8.73273 14.859 9.37504 13.4196 9.672 13.1953L9.84811 18.26C9.64871 18.4578 9.44761 18.6537 9.24478 18.848Z" fill="#D9DBD5"/>
<path d="M15.8734 5.17578L15.8623 5.59313C15.8243 6.30011 15.7105 10.9671 16.0283 11.2412C16.1148 11.3156 16.234 11.3223 16.3429 11.3326C16.7835 11.3743 18.7345 11.3301 19.1547 11.254C19.205 11.2449 19.2474 11.2275 19.2942 11.2077C19.5735 10.7492 19.3844 6.02081 19.3704 5.1941C20.0238 5.21184 20.6774 5.22198 21.3311 5.22452C21.2352 6.74592 21.8522 7.98111 23.161 8.77721C23.8378 9.12746 24.2904 9.21707 25.0533 9.23531L25.0812 9.98371C25.1189 12.9551 25.1732 15.8841 24.9857 18.8553C24.9554 19.3361 24.9388 19.8713 24.9392 20.353C21.5235 20.4764 18.1251 20.6325 14.7065 20.5307C14.1714 20.5149 13.6197 20.4937 13.0849 20.4926C13.3423 18.8179 14.3131 17.6398 14.5122 15.8698C14.658 14.5744 13.8768 13.3508 12.4972 14.3035C11.9749 14.6642 11.4267 15.8039 11.0842 16.3873L10.3302 17.6448C10.1954 14.6352 10.1616 11.6217 10.2289 8.60973C10.2496 7.55516 10.2495 6.38811 10.3093 5.34244C12.0125 5.16672 14.1571 5.18091 15.8734 5.17578Z" fill="#D9DBD5"/>
<path d="M15.8734 5.17578L15.8623 5.59313C15.8482 5.60859 15.8349 5.62479 15.82 5.63956C15.6024 5.856 12.3198 5.88824 11.6437 6.12138C11.4858 6.17583 11.345 6.26753 11.2389 6.39782C11.0318 6.65213 11.0383 7.07986 11.0142 7.39309C10.9386 8.37655 10.8822 9.36137 10.8451 10.347C10.82 11.1605 10.7945 15.8779 11.0842 16.3873L10.3302 17.6448C10.1954 14.6352 10.1616 11.6217 10.2289 8.60973C10.2496 7.55516 10.2495 6.38811 10.3093 5.34244C12.0125 5.16672 14.1571 5.18091 15.8734 5.17578Z" fill="white"/>
<path d="M22.6038 7.6574C21.8477 6.80631 21.6211 5.60826 22.0142 4.53984C22.4072 3.47139 23.3562 2.70583 24.4836 2.54761C25.611 2.3894 26.734 2.86424 27.4059 3.78319C28.3791 5.11413 28.1353 6.97471 26.8521 8.00996C25.5689 9.04522 23.6988 8.89001 22.6038 7.6574Z" fill="#B5FE28"/>
<path d="M22.6038 7.6574C21.8477 6.80631 21.6211 5.60826 22.0142 4.53984C22.4072 3.47139 23.3562 2.70583 24.4836 2.54761C25.611 2.3894 26.734 2.86424 27.4059 3.78319C27.3218 3.77683 26.9361 3.50008 26.8072 3.42939C25.8897 2.92629 24.779 2.90542 23.857 3.40988C23.1509 3.79164 22.625 4.43781 22.3945 5.20672C22.1847 5.92816 22.2359 6.48625 22.4902 7.18171C22.5353 7.30514 22.6151 7.53454 22.6038 7.6574Z" fill="white"/>
<path d="M26.4281 4.16797C26.6206 4.1854 26.6719 4.18185 26.7386 4.37223C26.7035 4.64632 26.1329 5.2746 25.9203 5.50986C25.6155 5.84723 24.8146 7.03796 24.4187 7.10749C24.1659 7.02724 23.6527 6.42982 23.448 6.21823C23.2893 6.06383 22.9115 5.72372 23.2497 5.5308C23.6135 5.55447 24.1679 6.21063 24.436 6.48538C24.8005 6.03846 26.0545 4.4539 26.4281 4.16797Z" fill="#1C1C1C"/>
<path d="M16.3166 5.16016L18.9111 5.18025C18.8666 5.87273 18.9156 6.90555 18.9277 7.62001C18.9467 8.67069 18.9435 9.72168 18.9182 10.7722L16.38 10.8487C16.3527 9.99963 16.2995 9.15329 16.2971 8.30124C16.2941 7.25191 16.3246 6.20987 16.3166 5.16016Z" fill="white"/>
</svg>
