<svg width="32" height="32" viewBox="0 0 32 32" fill="none" xmlns="http://www.w3.org/2000/svg">
<g clip-path="url(#clip0_1787_4692)">
<path d="M9.93669 2.53617C11.7262 2.46875 13.6814 2.52858 15.4759 2.573C16.286 2.62482 17.1166 2.57973 17.9127 2.75851C20.1199 3.25405 19.9741 5.34108 20.0391 7.04633C20.7327 7.04747 22.0991 6.96059 22.6548 7.32258C22.8686 7.4619 23.033 8.06842 23.0364 8.34864C23.047 9.21018 23.3223 11.2418 22.8212 11.944C22.4611 12.4485 20.7646 12.3877 20.1497 12.4075C20.2777 16.9096 20.2855 21.4143 20.1732 25.9167C20.1594 27.0762 20.1351 28.2356 20.1001 29.3945C19.961 34.0531 19.0574 33.8356 14.7933 33.9234C14.8104 35.0174 14.8491 35.4907 13.7851 36.0103C14.5543 37.3114 18.7469 41.7024 18.79 42.8313C18.7956 42.9778 18.7625 43.097 18.6513 43.1996C18.4143 43.4181 17.9891 43.4487 17.6844 43.4243C17.1656 43.3824 16.6701 43.1929 16.2576 42.8785C15.7735 42.5149 15.1038 41.6008 14.7138 41.1136C13.8921 40.0873 13.111 38.9971 12.2652 37.9899C12.3153 39.3635 12.4016 41.3145 12.3237 42.6533C12.3189 43.2726 12.2523 44.3877 11.8262 44.8557C11.6291 45.0719 11.3662 45.1888 11.0724 45.1945C10.7466 45.2012 10.4 45.12 10.1676 44.8801C9.34585 44.0327 9.66358 39.2953 9.67491 37.9861C8.94802 38.9656 8.20614 39.9342 7.44946 40.8918C6.87539 41.6218 6.04744 42.8408 5.17977 43.2034C4.2952 43.5699 2.45717 43.6104 3.43414 42.1285C4.85014 39.9809 6.663 38.0753 8.20565 36.028C7.18315 35.537 7.1643 35.047 7.17804 34.0035C4.7605 33.8084 2.05467 34.5107 1.85592 31.0449C1.77684 29.666 1.79385 28.2766 1.75838 26.8968C1.63727 22.5971 1.60657 18.2955 1.66633 13.9945C1.68137 11.2434 1.73356 8.48376 1.83125 5.73423C1.94146 2.63321 3.9512 2.72998 6.3472 2.65049L9.93669 2.53617Z" fill="#30302F"/>
<path d="M14.7631 4.72647C15.4355 4.68896 16.9349 4.67971 17.4405 5.18121C17.8811 5.6184 17.8304 6.42364 17.8348 7.01098C17.0834 7.02959 14.1439 6.96132 13.6591 7.35203C13.3578 7.5947 13.2538 8.04277 13.2196 8.40667C13.1436 9.21525 13.0767 11.5155 13.6147 12.101C14.0683 12.5946 17.1485 12.4457 17.9425 12.4501C17.9077 14.4211 17.9777 16.6155 17.9973 18.6006C18.0154 20.9839 18.0052 23.3673 17.9669 25.7505L17.9208 28.5598C17.8997 29.6043 18.1045 31.3858 16.7479 31.6277C15.8559 31.7871 14.9211 31.8062 14.0152 31.8238C12.8513 31.8458 11.6873 31.8591 10.5233 31.8644C9.12341 31.8706 7.70515 31.8787 6.30602 31.8253C5.71021 31.8024 4.89479 31.7866 4.4386 31.3725C3.93436 30.914 3.98978 30.1253 3.9864 29.5079C3.98737 27.9863 3.93633 26.4662 3.90761 24.9461C3.85035 20.7493 3.84409 16.5522 3.88872 12.3555C3.90284 11.0542 3.92462 9.75302 3.95407 8.452C4.00741 5.29463 3.5745 4.76802 7.17354 4.75781C7.27951 4.95133 7.38443 5.15082 7.51301 5.33055C7.75214 5.66478 8.05551 5.79269 8.45339 5.84976C9.26269 5.96575 13.3025 5.9928 13.8767 5.71693C14.346 5.49149 14.3792 4.98039 14.7093 4.75991C14.7269 4.74817 14.7452 4.73763 14.7631 4.72647Z" fill="white"/>
<path d="M9.72787 14.4583C10.4038 14.4463 11.2274 14.4134 11.8933 14.4271C12.5031 14.4397 12.871 15.1316 13.1823 15.5457C13.4795 15.5966 13.8278 15.618 14.1372 15.653C15.7448 15.835 15.4292 17.7752 15.4597 18.9421C15.5439 22.1655 14.9364 22.0625 12.0834 22.0849C11.1092 22.092 7.62204 22.2547 6.9592 21.7528C6.6004 21.4812 6.45404 20.9341 6.40768 20.5116C6.30638 19.5884 6.16011 16.7366 6.78151 16.0258C7.17443 15.5763 8.09375 15.6033 8.64469 15.5594C8.69616 15.4575 8.74913 15.3563 8.80354 15.256C9.0644 14.777 9.21211 14.6092 9.72787 14.4583Z" fill="#1C1C1C"/>
<path d="M9.66592 15.0963C10.2412 15.0796 11.4897 15.013 12.0518 15.131C12.379 15.1997 12.41 15.9208 12.9483 16.101C13.3082 16.2557 14.2197 16.1465 14.4848 16.4306C14.9868 16.9685 14.7705 18.6221 14.8164 19.2912C14.8527 19.8199 14.7936 20.952 14.4853 21.2475C14.0989 21.6178 12.5112 21.5276 11.9883 21.5276L9.4786 21.5297C8.42886 21.5295 6.99199 21.8004 6.96226 20.4528C6.94081 19.4798 6.91291 18.4965 6.93233 17.533C6.96698 15.8095 7.77643 16.4627 8.90766 16.0498C9.14154 15.9629 9.42052 15.322 9.66592 15.0963Z" fill="white"/>
<path d="M10.6535 17.0575C11.6502 16.8815 12.6006 17.5475 12.7755 18.5443C12.9503 19.5412 12.2832 20.4909 11.2861 20.6645C10.2907 20.8379 9.34299 20.1721 9.16846 19.1769C8.9939 18.1817 9.65852 17.2332 10.6535 17.0575Z" fill="#1C1C1C"/>
<path d="M10.8601 17.5166C11.6019 17.4536 12.2546 18.0033 12.3187 18.745C12.3828 19.4868 11.834 20.1402 11.0923 20.2053C10.3492 20.2704 9.6943 19.7204 9.63008 18.9772C9.56591 18.2341 10.1169 17.5799 10.8601 17.5166Z" fill="white"/>
<path d="M10.1636 3.15974L10.3629 3.15477C12.0337 3.12056 13.7053 3.13497 15.3753 3.19795C18.912 3.31614 19.3688 3.36333 19.4058 7.02974C19.1004 7.016 18.7545 7.02149 18.4455 7.01996C18.4399 6.33872 18.4749 5.44984 17.9794 4.87939C17.2697 4.0625 15.622 4.10368 14.6209 4.14466C14.1649 4.16332 14.0082 4.84551 13.705 5.09137C13.6183 5.16089 13.5159 5.2087 13.4065 5.2307C13.0465 5.30441 12.5204 5.2943 12.1428 5.30069C10.9651 5.32731 9.80594 5.3578 8.6297 5.27731C7.60348 5.20708 8.03303 4.14066 6.94936 4.15282C5.21688 4.17224 3.48059 4.17711 3.40614 6.33867C3.34724 8.04726 3.32859 9.75565 3.29847 11.4671C3.19274 15.6178 3.1898 19.7704 3.28956 23.9212L3.38454 28.41C3.40618 29.4172 3.2231 30.8738 3.9123 31.6635C4.49611 32.3324 5.55192 32.4088 6.39288 32.4154C9.83842 32.4441 13.3495 32.5471 16.7803 32.2465C17.5552 32.1788 18.2633 31.4516 18.3904 30.7011C18.557 29.7178 18.5217 28.6376 18.5371 27.6218L18.6201 22.7726C18.6376 19.327 18.6086 15.8814 18.533 12.4366L19.5325 12.4301C19.5389 14.5436 19.6077 16.6963 19.6258 18.8197C19.6399 21.5488 19.6094 24.2781 19.5343 27.0058C19.491 28.4763 19.5318 29.9702 19.3558 31.4311C19.2206 32.5538 18.4738 33.1669 17.358 33.2218C15.7661 33.3 14.1749 33.3291 12.5822 33.3644C10.881 33.4112 9.17905 33.4207 7.47746 33.3931C6.35139 33.3821 4.09259 33.4909 3.17038 32.8582C2.27794 32.2456 2.45081 29.9306 2.42826 28.9501C2.38792 27.5116 2.35708 26.0725 2.33582 24.6335C2.27462 20.4392 2.25139 16.5556 2.31582 12.361C2.33004 10.7742 2.35524 9.18734 2.39134 7.60076C2.41438 6.60157 2.29953 4.73091 3.00941 3.96612C3.69881 3.22343 5.30045 3.30884 6.29307 3.27091C7.58262 3.21561 8.87293 3.17853 10.1636 3.15974Z" fill="#0C0C0C"/>
<path d="M16.3397 7.64215C17.2595 7.61109 21.6397 7.49582 22.2317 7.77202C22.3409 7.82298 22.3593 7.93878 22.3855 8.04594C22.5131 8.56758 22.5987 11.1282 22.347 11.5287C21.9114 11.8127 20.5605 11.7692 19.9715 11.7841C19.1099 11.8289 14.6715 11.8871 14.046 11.691C13.7208 11.3556 13.7015 8.24128 13.9535 7.90538C14.3939 7.63013 15.7848 7.66009 16.3397 7.64215Z" fill="#B5FE28"/>
<path d="M20.1365 8.58837C20.4037 8.5793 21.0911 8.52582 21.3113 8.61642C21.4075 8.75116 21.3882 8.67912 21.3788 8.83786C21.1487 9.15443 20.89 8.89821 20.4599 9.01916C20.3649 9.15457 20.3384 9.16478 20.3331 9.32958C20.5379 9.58832 20.8344 9.48732 21.2184 9.5889C21.2691 9.72283 21.255 9.66739 21.2307 9.82498C20.9769 9.9853 20.8439 9.75437 20.4867 9.95037C20.3763 10.1296 20.4182 10.1303 20.4229 10.3828C20.5348 10.62 21.2034 10.3205 21.4515 10.6113C21.4035 10.9903 21.0827 10.8965 20.785 10.8992C20.5683 10.9011 20.2385 10.8948 20.0553 10.7862C20.0199 10.69 19.9958 10.6144 19.9941 10.4828C19.9868 9.91416 19.956 9.28111 20.0211 8.71834C20.0596 8.67501 20.0981 8.63169 20.1365 8.58837Z" fill="#1C1C1C"/>
<path d="M17.7524 8.53835L17.9177 8.60109C18.129 8.81518 18.4418 9.91147 18.5706 10.2637C18.7367 9.84872 19.0281 8.72367 19.368 8.53711L19.4502 8.58606C19.5659 8.85402 19.4803 8.97644 19.3827 9.24774C19.2293 9.68216 19.027 10.4938 18.7216 10.7841C18.0919 10.9849 17.8869 9.30676 17.669 8.88312C17.6023 8.75344 17.6861 8.64308 17.7524 8.53835Z" fill="#1C1C1C"/>
<path d="M14.994 8.54688C15.1271 8.56501 15.1195 8.55918 15.2257 8.63929C15.3833 8.94613 15.3225 10.0629 15.323 10.4823L15.5147 10.4757C15.7424 10.4687 16.0742 10.4232 16.2374 10.5749C16.262 10.7571 16.2578 10.6956 16.1669 10.8874C15.7157 10.8955 15.3586 10.8765 14.9118 10.8485C14.8665 10.481 14.8349 8.82523 14.994 8.54688Z" fill="#1C1C1C"/>
<path d="M16.8332 8.54492C16.9453 8.57298 17.1388 8.62312 17.1398 8.75939C17.143 9.20536 17.2507 10.5944 17.0351 10.9197C16.9226 10.8801 16.7998 10.8654 16.778 10.739C16.7008 10.2911 16.6372 8.90086 16.8332 8.54492Z" fill="#1C1C1C"/>
<path d="M29.8597 7.2029C30.1328 7.16903 30.1805 7.14546 30.3516 7.38006C30.3905 7.8892 29.0038 8.02547 28.5689 8.12003L25.5758 8.77126L25.2835 8.79774C25.1291 8.72603 25.1343 8.73714 25.047 8.59401C25.0427 8.36923 25.1277 8.2699 25.3523 8.20453C25.9111 8.04183 26.4981 7.94059 27.0692 7.81882L29.8597 7.2029Z" fill="#1C1C1C"/>
<path d="M26.6379 1.63867C26.7754 1.67221 26.8051 1.71792 26.9127 1.81182C26.9356 1.8717 26.9862 1.96431 26.959 2.00377C26.5169 2.64555 24.075 5.29459 23.5805 5.64461C23.3462 5.59403 23.2468 5.50744 23.2383 5.27617C23.4404 4.89467 26.2353 1.91283 26.6379 1.63867Z" fill="#1C1C1C"/>
<path d="M24.7824 11.8086C25.2444 11.9576 26.2431 12.4684 26.7319 12.6876C27.4766 13.0216 28.3557 13.4203 29.0716 13.8158C29.2148 13.8949 29.2348 13.973 29.2592 14.1091C29.2025 14.2824 29.1844 14.28 29.0493 14.3982C28.5389 14.2515 27.4836 13.6907 26.9429 13.4505C26.2881 13.1596 25.5433 12.8056 24.8907 12.4916C24.6761 12.3883 24.6317 12.3306 24.5742 12.1277C24.6121 11.9641 24.6659 11.9298 24.7824 11.8086Z" fill="#1C1C1C"/>
</g>
<defs>
<clipPath id="clip0_1787_4692">
<rect width="28.7229" height="28.7229" fill="white" transform="translate(1.63672 1.63867)"/>
</clipPath>
</defs>
</svg>
