<svg width="32" height="32" viewBox="0 0 32 32" fill="none" xmlns="http://www.w3.org/2000/svg">
<path d="M12.0315 18.1684C11.5922 18.018 11.1056 17.7252 10.9805 17.262C10.6959 16.2089 10.7554 14.8699 10.7235 13.7764C10.6424 11.3289 10.6391 8.87947 10.7141 6.43177C10.7423 5.52332 10.7533 4.56195 10.8523 3.6607C10.8906 3.37937 10.989 3.0826 11.1545 2.85139C11.786 1.97103 13.1942 2.10453 14.1489 2.04375C15.4459 1.96116 16.7417 2.01353 18.0351 2.05417C18.7085 2.09794 19.4034 2.07823 20.0699 2.19028C21.0908 2.3619 21.383 2.9991 21.513 3.90172C21.9148 4.22853 22.0558 4.78017 22.1013 5.27689C22.2253 6.62745 22.2389 7.97588 22.2566 9.3292L22.3234 13.0519C22.3285 13.4106 22.3173 15.3399 22.3714 15.5394C22.2681 15.5546 22.2666 15.5492 22.1776 15.612C22.1417 15.8025 22.3796 15.8875 22.5229 15.9516L22.3583 15.9708C22.3009 16.1412 22.296 16.3559 22.2736 16.5458C22.1882 17.2565 22.1755 17.9855 21.6685 18.5453C21.4319 18.8066 20.8514 19.0086 20.7071 19.1616C20.579 18.9773 20.53 18.8518 20.3132 18.8072C20.1349 18.8828 20.2539 19.0544 20.3238 19.1711L20.3712 19.2528C19.8682 19.2655 19.3664 19.3087 18.8637 19.3302C17.9184 19.3715 16.9722 19.3831 16.0261 19.3652C15.7417 19.3585 15.0434 19.346 14.7828 19.2847C14.8597 19.1106 14.9511 18.984 14.8688 18.7975C14.6306 18.7112 14.493 19.1489 14.4308 19.3108C13.6741 19.0708 12.378 19.138 12.0315 18.1684Z" fill="#1C1C1C"/>
<path d="M21.5128 3.90234C21.9146 4.22915 22.0556 4.78079 22.1011 5.27751C22.2251 6.62807 22.2387 7.9765 22.2564 9.32982L22.3232 13.0525C22.3283 13.4113 22.3171 15.3405 22.3712 15.5401C22.2679 15.5552 22.2664 15.5498 22.1774 15.6127C22.1415 15.8031 22.3794 15.8882 22.5227 15.9522L22.3581 15.9714C22.3007 16.1418 22.2958 16.3565 22.2734 16.5464C22.188 17.2572 22.1753 17.9862 21.6683 18.546C21.4317 18.8072 20.8512 19.0092 20.7069 19.1623C20.5787 18.9779 20.5298 18.8524 20.313 18.8078C20.1347 18.8834 20.2537 19.055 20.3236 19.1717L20.371 19.2534C19.868 19.2661 19.3662 19.3093 18.8635 19.3308C17.9182 19.3722 16.972 19.3837 16.0259 19.3658C15.7415 19.3591 15.0432 19.3466 14.7826 19.2853C14.8595 19.1112 14.9509 18.9846 14.8686 18.7981C14.6304 18.7118 14.4928 19.1495 14.4306 19.3114C13.6739 19.0714 12.3778 19.1386 12.0312 18.169C12.7293 18.327 13.523 18.3461 14.2422 18.3677C15.6604 18.4023 17.0793 18.3865 18.4962 18.3203C19.2781 18.289 20.491 18.3534 21.0599 17.7334C21.2567 17.5187 21.432 17.122 21.4745 16.8277C21.7093 15.1952 21.654 13.5226 21.6558 11.8771C21.6902 9.20039 21.6859 6.57254 21.5128 3.90234Z" fill="#D9DBD5"/>
<path d="M15.3149 2.40857C16.7769 2.35295 18.4964 2.45036 19.9602 2.57854C20.9528 2.66545 21.0813 3.45917 21.143 4.30493C21.3112 6.6229 21.3091 8.96371 21.2769 11.2882C21.2642 12.9823 21.3292 14.679 21.1442 16.3697C21.084 16.9727 20.8717 17.6631 20.1758 17.7782C19.195 17.9407 18.1119 17.9368 17.1128 17.9741C15.8936 17.9978 14.7308 17.9996 13.5498 17.9359C11.221 17.8101 11.255 17.4271 11.1709 15.2926C11.0394 11.9593 11.0014 8.6209 11.1527 5.28319C11.2246 4.3552 11.0047 2.84672 12.244 2.60242C13.1896 2.41607 14.3405 2.42664 15.3149 2.40857Z" fill="white"/>
<path d="M13.7295 2.95489C13.9746 2.94174 14.258 2.89241 14.4497 3.08447C14.563 3.19792 14.6128 3.45255 14.8014 3.45492C15.702 3.46619 16.6102 3.49171 17.5102 3.45814C17.92 3.41872 17.7204 2.96552 18.1946 2.96154C18.6578 2.95495 19.1128 2.96006 19.5712 3.03226C20.4344 3.16308 20.5854 3.64592 20.6319 4.4268C20.8275 7.71254 20.7643 11.0141 20.7175 14.3037C20.6951 15.0048 20.6932 15.7014 20.5982 16.397C20.4785 17.2733 19.8576 17.3787 19.1219 17.4073C17.0507 17.4902 14.8424 17.571 12.7705 17.366C12.0476 17.2943 11.7636 16.8517 11.7178 16.1534C11.6685 15.4023 11.6524 14.6406 11.6321 13.8781C11.5877 12.2587 11.5729 10.6386 11.5874 9.01869C11.5835 7.9584 11.6011 6.89816 11.6397 5.83856C11.6588 5.23936 11.6801 4.66582 11.743 4.06922C11.8642 2.92184 12.8313 2.98958 13.7295 2.95489Z" fill="#1C1C1C"/>
<path d="M13.4495 3.31906C13.6221 3.29692 14.0194 3.29801 14.2089 3.29297C14.3343 3.51492 14.4783 3.75294 14.7596 3.77544C15.3814 3.80153 16.0247 3.82653 16.6483 3.80761C17.4405 3.78358 17.706 3.98977 18.1713 3.30226C18.6467 3.30153 19.6372 3.28416 20.0056 3.5664C20.1727 3.69431 20.2444 4.06628 20.2647 4.27374C20.3546 5.20376 20.3774 6.2003 20.3875 7.13366C20.4002 8.41472 20.4042 9.69585 20.3993 10.977C20.4005 12.1343 20.3865 13.2916 20.3577 14.4485C20.341 15.072 20.3313 15.6936 20.2535 16.313C20.1815 16.8895 19.7803 16.9958 19.2791 17.0511C18.9823 17.117 18.0222 17.104 17.6656 17.1131C16.6301 17.144 15.594 17.1474 14.5582 17.1237C14.0276 17.1125 13.4787 17.1091 12.9523 17.0396C12.3326 16.9575 12.1197 16.7534 12.0751 16.1174C12.0192 15.324 12.0016 14.5358 11.9791 13.7441C11.9347 11.8801 11.9229 10.0155 11.9432 8.15113C11.9502 7.28028 11.9706 6.40958 12.004 5.53934C12.0216 5.05608 12.035 4.5863 12.0939 4.10562C12.1874 3.34154 12.8432 3.36237 13.4495 3.31906Z" fill="#D9DBD5"/>
<path d="M13.7056 7.12768C13.6312 7.11313 13.5531 7.09925 13.4836 7.06823C13.3848 7.02431 13.3356 6.93264 13.3022 6.83575C13.1838 6.49348 13.1841 4.83808 13.3505 4.52984C13.3982 4.44175 13.4517 4.41891 13.5458 4.39518C14.0905 4.25825 18.5689 4.19571 18.9097 4.41805C19.0233 4.49217 19.0519 4.61009 19.0829 4.73426C19.2159 4.77493 19.304 4.82909 19.3727 4.9542C19.5464 5.2715 19.537 6.66331 19.4255 7.03206C19.373 7.20577 19.2712 7.303 19.1087 7.38037C18.418 7.70939 14.7754 7.62461 13.9762 7.43498C13.8323 7.31306 13.8159 7.29599 13.7135 7.13977L13.7056 7.12768Z" fill="#1C1C1C"/>
<path d="M19.0804 4.73438C19.2134 4.77505 19.3015 4.8292 19.3702 4.95432C19.5439 5.27161 19.5345 6.66342 19.423 7.03218C19.3705 7.20589 19.2687 7.30312 19.1062 7.38048C18.4155 7.70951 14.7729 7.62473 13.9738 7.4351C13.8298 7.31317 13.8134 7.2961 13.711 7.13988L13.7031 7.1278C13.7447 7.13329 13.7867 7.13815 13.8286 7.14241C14.8786 7.24884 16.0538 7.17199 17.127 7.17779C17.5052 7.14399 18.7229 7.22475 18.9741 6.97103C19.2186 6.7239 19.1044 5.06971 19.0804 4.73438Z" fill="white"/>
<path d="M13.8988 4.60928C15.4798 4.59786 17.185 4.52997 18.7603 4.65141C18.8402 5.32178 18.8462 6.13064 18.7597 6.79858C16.8552 6.89271 15.4929 6.9099 13.589 6.81981C13.544 6.48803 13.5024 5.98459 13.5352 5.65156C13.534 5.33099 13.4921 4.96378 13.6373 4.68816C13.7481 4.60454 13.739 4.63015 13.8988 4.60928Z" fill="#B5FE28"/>
<path d="M13.5378 5.65166C13.5366 5.33108 13.4946 4.96388 13.6398 4.68826C13.7507 4.60464 13.7416 4.63024 13.9014 4.60938C13.5496 5.01439 13.7252 5.3531 13.5378 5.65166Z" fill="#B5FE28"/>
<path d="M17.3651 5.0158C17.6047 5.00781 18.0895 4.91356 18.1442 5.19274C17.9987 5.38923 17.7952 5.21439 17.5646 5.31053C17.5063 5.42726 17.5033 5.39236 17.5118 5.50621C17.6163 5.63199 17.8611 5.54357 18.0391 5.65201C18.0813 5.74565 18.0734 5.69729 18.0591 5.80306C17.9364 5.8786 17.817 5.80564 17.5986 5.8745C17.5112 5.95405 17.5397 5.93814 17.5245 6.09596C17.6761 6.27284 18.1454 6.01556 18.1496 6.31393C18.0327 6.50132 17.4744 6.46326 17.3146 6.3862C17.2016 6.19951 17.2472 5.58211 17.2481 5.34455C17.2487 5.17937 17.253 5.11768 17.3651 5.0158Z" fill="#1C1C1C"/>
<path d="M16.4269 5.99207C16.5654 5.69808 16.6632 5.15437 16.8907 5L16.9421 5.01479C17.0414 5.18067 17.0055 5.24212 16.9363 5.40985C16.8497 5.64726 16.6629 6.39226 16.4299 6.4391C16.1754 6.32383 15.8361 5.27037 15.848 5.02372C15.9184 5.02236 15.9367 5.02679 16.0068 5.03864C16.1705 5.18219 16.3397 5.74777 16.4269 5.99207Z" fill="#1C1C1C"/>
<path d="M14.3131 4.98828C14.3477 5.00766 14.396 5.04062 14.4288 5.06167C14.5239 5.24231 14.4829 5.90032 14.4814 6.1507C14.6712 6.15234 14.9762 6.11097 15.1038 6.25355C15.0949 6.37183 15.1104 6.31351 15.0263 6.42532C14.8146 6.43097 14.4443 6.46499 14.2639 6.38334C14.1472 6.1976 14.1527 5.1743 14.3131 4.98828Z" fill="#1C1C1C"/>
<path d="M15.4017 4.99414L15.5336 5.04712C15.6536 5.22132 15.6438 6.26415 15.5126 6.45393L15.4139 6.42428C15.2602 6.25072 15.2912 5.20039 15.4017 4.99414Z" fill="#1C1C1C"/>
<path d="M8.2227 19.9938C8.59054 19.9586 9.10267 20.0282 9.36146 20.0962C10.1406 20.3009 10.4692 20.6837 10.4689 21.4455C10.7368 21.7027 11.1521 21.7984 11.3319 22.1617C11.9561 23.4238 12.3898 24.8046 12.6262 26.1918C12.6723 26.4619 12.6198 26.7006 12.6277 26.9576C12.6374 27.2765 12.8281 27.5113 12.3983 27.6823C12.1812 27.7583 11.8543 27.8734 11.6311 27.7856C11.4992 27.6656 11.0057 26.6116 10.9255 26.3941C10.9282 26.9072 10.8705 27.1815 10.6806 27.6556C10.6381 27.7616 10.663 28.0912 10.5601 28.1623C10.1427 28.4511 9.12666 28.4286 8.64218 28.439C8.04532 28.4478 6.80724 28.4943 6.25836 28.185C6.12623 28.0903 6.16541 27.7759 6.11955 27.6717C5.90814 27.1924 5.86926 26.9725 5.86288 26.4494C5.75414 26.7191 5.34894 27.5128 5.16608 27.7911C5.1354 27.8376 4.90425 27.8275 4.83196 27.8051C4.65791 27.7507 4.2524 27.6893 4.16128 27.508C4.08048 27.3467 4.17616 27.1158 4.17799 26.9263C4.17981 26.7781 4.12118 26.4336 4.13637 26.317C4.24694 25.471 4.50816 24.5495 4.78548 23.7436C4.98201 23.1729 5.28485 22.2929 5.69157 21.8658C5.84769 21.7018 6.16663 21.553 6.36862 21.4527C6.27507 21.1447 6.35708 20.8009 6.57031 20.5606C6.96883 20.1114 7.66138 20.0388 8.2227 19.9938Z" fill="#1C1C1C"/>
<path d="M10.1941 21.7168C10.3876 21.8091 10.8542 22.0218 10.962 22.2043C11.4939 23.1195 11.8134 24.1753 12.095 25.1947C12.2001 25.5756 12.4146 26.3481 12.3031 26.729C12.2785 26.814 11.6555 26.9565 11.5395 26.9868C10.9496 25.9195 10.8469 25.1832 10.7859 23.998C10.7761 23.8054 10.7755 23.3823 10.664 23.2559C10.5659 23.2343 10.61 23.227 10.5264 23.2686C10.2303 23.7416 11.1039 27.4446 10.199 27.4127C10.1726 27.3434 10.1981 26.7408 10.1996 26.6275C9.74035 26.2275 9.70147 26.1081 9.52347 25.5465C9.00072 25.5197 7.78512 25.5261 7.26813 25.5553C7.0631 26.1537 7.07404 26.1931 6.59229 26.6305C6.58865 26.8492 6.71045 27.3404 6.48629 27.4033C6.44194 27.3908 6.36752 27.372 6.34048 27.3355C6.10417 27.0187 6.17676 26.0073 6.19377 25.6339C6.22476 24.9478 6.30798 24.2534 6.30373 23.5669C6.30282 23.4366 6.30616 23.3087 6.20015 23.227L6.12998 23.2459C5.97902 23.3956 6.00575 23.7273 6.00089 23.9445C5.97447 25.1325 5.80649 25.9079 5.25762 26.9893C4.9563 26.9124 4.74489 26.8574 4.45056 26.7484C4.42079 25.8782 4.89373 24.4533 5.1829 23.6183C5.32961 23.1954 5.63184 22.3656 5.95989 22.0798C6.12057 21.9397 6.39303 21.8179 6.59108 21.7232C6.98838 21.9574 7.29972 22.0934 7.72892 22.2508C7.71495 22.6733 7.68214 23.0976 7.67637 23.5202C7.67425 23.6799 7.65481 23.8922 7.83189 23.9326L7.89325 23.8831C8.019 23.6155 7.99896 22.6809 8.00473 22.3361C8.3595 22.471 8.43605 22.4601 8.79022 22.3629C8.82151 22.9157 8.81148 23.4886 8.85826 24.0365C8.86737 24.1434 8.90261 24.1644 8.97459 24.2133L9.04294 24.2006C9.22519 23.9694 9.0967 22.6168 9.07575 22.2526C9.53775 22.0804 9.79259 21.9981 10.1941 21.7168Z" fill="white"/>
<path d="M7.46345 25.8225C8.1232 25.8204 8.63896 25.8553 9.3148 25.8164C9.44481 26.2556 9.525 26.4901 9.91987 26.762C9.92048 26.9901 9.90165 27.2209 9.88646 27.4488C9.69844 27.4718 9.49735 27.4858 9.30751 27.5016C8.67207 27.5666 7.55154 27.5156 6.91579 27.446L6.89453 26.7568C7.23412 26.4825 7.37324 26.242 7.46345 25.8225Z" fill="white"/>
<path d="M8.0802 20.3268C8.69742 20.2715 10.2153 20.3329 10.1463 21.3173C10.132 21.5184 9.06161 21.9136 8.8584 21.9932C9.08105 21.7538 9.74626 21.1724 9.65575 20.8383C9.47258 20.6919 9.506 20.9097 9.35777 20.865C9.11052 20.7903 8.96927 20.7463 8.71109 20.7202C8.26154 20.6685 7.81442 20.7402 7.38249 20.8596C7.33237 20.8316 7.28286 20.8028 7.23335 20.7733L7.1562 20.8058C6.96089 21.115 7.74122 21.8003 7.95505 22.0196C7.60392 21.8659 7.22757 21.7301 6.89467 21.5424C6.8327 21.5075 6.6304 21.3638 6.63283 21.2827C6.65713 20.5239 7.48546 20.3866 8.0802 20.3268Z" fill="white"/>
<path d="M6.43803 27.709C7.76724 27.8721 8.98649 27.9113 10.3181 27.7175C10.357 27.8147 10.3385 27.8539 10.3303 27.9669C10.2805 27.9784 10.2306 27.989 10.1805 27.9988C9.60431 28.1115 6.8812 28.2275 6.47023 27.9505C6.43469 27.8323 6.43681 27.8341 6.43803 27.709Z" fill="white"/>
<path d="M8.02181 21.0269C8.42154 20.9764 8.88658 21.0345 9.28084 21.1037C9.06032 21.337 8.84132 21.5499 8.61958 21.7899L8.38205 22.0626C8.14665 21.7319 7.80918 21.4096 7.53125 21.097C7.69254 21.0703 7.8596 21.0493 8.02181 21.0269Z" fill="white"/>
<path d="M4.45911 27.0918C4.66718 27.1683 4.89408 27.179 5.03623 27.2762C5.07177 27.3773 5.04595 27.3679 4.98429 27.5034C4.85945 27.5046 4.56937 27.449 4.4828 27.3451C4.41021 27.2576 4.44271 27.2182 4.45911 27.0918Z" fill="white"/>
<path d="M12.3155 27.0957C12.3611 27.1549 12.3556 27.1905 12.3644 27.2664C12.2751 27.4262 12.0124 27.4663 11.8241 27.521L11.6992 27.2725C11.945 27.2199 12.0768 27.1789 12.3155 27.0957Z" fill="white"/>
<path d="M20.1637 24.9004C20.5328 24.9438 22.7802 25.678 23.0366 25.9058C23.2161 26.0653 23.1167 28.2213 23.0964 28.5961C22.8309 28.9135 20.948 29.8187 20.4939 30C19.948 29.8351 19.3269 29.5766 18.7911 29.3698C18.4493 29.2382 17.8421 29.0147 17.543 28.8388C17.4667 28.4886 17.4142 26.2992 17.543 26.0197C17.8589 25.7372 19.6753 25.0732 20.1637 24.9004Z" fill="#1C1C1C"/>
<path d="M17.7773 26.3027L18.4784 26.5901C18.4577 26.9245 18.4662 27.1839 18.4912 27.5162C18.6922 27.6237 19.1788 27.9026 19.3793 27.8008C19.5254 27.6301 19.4956 27.2152 19.5066 26.9652L20.3647 27.3018L20.3638 28.709L20.3416 29.6376C19.56 29.3132 18.609 28.9618 17.812 28.6695C17.7895 27.8807 17.778 27.0919 17.7773 26.3027Z" fill="#D9DBD5"/>
<path d="M22.7578 26.2656C22.8064 26.2684 22.7839 26.2596 22.8228 26.2963C22.8294 26.9776 22.8364 27.7901 22.7997 28.4642C22.29 28.8074 21.2788 29.232 20.6789 29.5823L20.6637 29.5683C20.6604 29.5598 20.6467 27.4527 20.6406 27.2753C21.2676 27.021 22.1697 26.5761 22.7578 26.2656Z" fill="#D9DBD5"/>
<path d="M21.7697 25.7227C22.0491 25.8117 22.3267 25.9049 22.6031 26.0027C21.9416 26.2913 21.1661 26.6904 20.5112 27.013C20.4444 27.003 19.8083 26.7557 19.6914 26.7147C20.3788 26.3785 21.0923 26.0768 21.7697 25.7227Z" fill="#D9DBD5"/>
<path d="M20.2171 25.2129C20.3277 25.2654 20.5637 25.325 20.6904 25.3611L19.2588 26.0096C19.1011 26.0813 18.7263 26.2657 18.5875 26.3046C18.4068 26.2195 18.2115 26.1539 18.0234 26.0856C18.7014 25.7852 19.5206 25.4805 20.2171 25.2129Z" fill="#D9DBD5"/>
<path d="M21.0354 25.4844C21.1499 25.5169 21.2923 25.5685 21.4081 25.6065C20.7626 25.9102 19.9659 26.2316 19.3681 26.5885L18.9766 26.4412C19.5564 26.1979 20.5011 25.7912 21.0354 25.4844Z" fill="white"/>
<path d="M18.7513 26.6836L19.2433 26.8762C19.2224 27.066 19.22 27.3087 19.213 27.5031C19.0933 27.5007 18.8685 27.3868 18.7479 27.3339C18.7431 27.1219 18.7491 26.8965 18.7513 26.6836Z" fill="#D9DBD5"/>
<path d="M24.9638 19.9948C25.4304 19.9404 27.2626 19.9322 27.6471 20.1625C27.7644 20.3195 27.789 20.5297 27.8011 20.721C27.8431 21.3677 27.9952 24.9012 27.6672 25.2427C27.4676 25.4498 27.0791 25.4112 26.8124 25.4188C26.3061 25.4319 24.4435 25.5103 24.0626 25.3031C23.9854 25.2612 23.9523 25.1634 23.9277 25.0829C23.7968 24.6485 23.7415 20.4832 23.932 20.2186C24.1009 19.9838 24.692 20.0118 24.9638 19.9948Z" fill="#1C1C1C"/>
<path d="M24.9618 20.3305C25.808 20.2983 26.6555 20.305 27.5015 20.3506C27.5236 21.3183 27.5343 22.2864 27.5333 23.2541C27.5343 23.8525 27.5586 24.5022 27.4799 25.0897L26.7822 25.0857C26.3797 25.0915 24.4576 25.1465 24.203 25.0283C24.0776 24.7115 24.1317 20.8998 24.1715 20.3725C24.4059 20.3442 24.72 20.3403 24.9618 20.3305Z" fill="white"/>
<path d="M25.3381 20.5416C25.7212 20.5291 26.8623 20.4535 27.1448 20.657C27.2189 20.7102 27.2426 20.8508 27.2581 20.9352C27.3441 21.4015 27.3787 24.4967 27.171 24.7196C26.9902 24.9134 26.5598 24.8776 26.3135 24.8852C25.9292 24.8961 24.8737 24.9566 24.5517 24.7804C24.4688 24.7348 24.4442 24.6501 24.4193 24.5641C24.3087 24.1838 24.2781 20.9425 24.4454 20.7129C24.5991 20.5021 25.1049 20.5486 25.3381 20.5416Z" fill="#1C1C1C"/>
<path d="M26.7757 20.8201C26.8747 20.8201 26.9497 20.8061 27.0263 20.862C27.074 21.1315 27.0512 22.7529 27.0424 23.1083C26.485 23.1228 25.9401 23.1411 25.3821 23.1192L24.6127 23.1116C24.6242 22.3449 24.5856 21.6123 24.6203 20.8335C25.2654 20.8001 26.1153 20.821 26.7757 20.8201Z" fill="white"/>
<path d="M26.7764 20.8199C26.8754 20.8199 26.9505 20.8059 27.027 20.8618C27.0747 21.1313 27.0519 22.7527 27.0431 23.1081C26.4857 23.1226 25.9408 23.1409 25.3828 23.119C25.4472 22.8648 26.5483 21.1829 26.7764 20.8199Z" fill="#D9DBD5"/>
<path d="M24.6094 23.3496C25.4222 23.3973 26.2369 23.3979 27.0497 23.3511C27.0494 23.7654 27.046 24.1798 27.0397 24.5938C26.1907 24.6296 25.4678 24.6175 24.6173 24.5998L24.6094 23.3496Z" fill="white"/>
<path d="M24.9354 23.6248C25.2267 23.6254 26.6099 23.5683 26.7448 23.6849C26.7706 23.7806 26.7594 23.7557 26.7135 23.8708C26.3678 23.8739 25.1036 23.9714 24.8874 23.8085C24.8704 23.7059 24.8755 23.7384 24.9354 23.6248Z" fill="#1C1C1C"/>
<path d="M24.9537 24.056C25.1967 24.0663 25.9792 23.9907 26.1144 24.1496C26.1232 24.2653 26.1341 24.2082 26.0539 24.32C25.8191 24.3206 25.0184 24.3859 24.8845 24.2212C24.883 24.1073 24.8696 24.1632 24.9537 24.056Z" fill="#1C1C1C"/>
<path d="M15.7146 20.9238C16.0515 21.0213 16.6265 21.4937 16.9339 21.7035C17.5411 22.1185 18.0672 22.4119 18.7965 22.5601C19.0322 22.6081 19.5242 22.7442 19.6928 22.9128C20.245 23.465 19.8535 24.1038 19.1737 24.2541C18.3405 24.4807 17.4697 24.4579 16.5937 24.4452C16.2106 24.4343 15.8273 24.4294 15.444 24.4309C14.8313 24.4379 14.1834 24.4889 13.5826 24.3723C13.0234 24.2638 13.202 23.8468 13.1893 23.4386C13.1765 22.8821 13.1373 22.2208 13.3982 21.7093C13.7548 21.0104 14.1439 21.7449 14.4905 21.9414C14.7864 22.1091 15.0734 22.0137 15.368 21.9162C15.2918 21.4833 15.2587 21.1401 15.7146 20.9238Z" fill="#1C1C1C"/>
<path d="M13.7796 21.7266C13.9752 21.8244 14.0511 22.1831 14.5168 22.3095C15.2318 22.5029 15.7734 22.0564 16.3678 21.7551L16.6695 21.9258C16.5385 22.0598 16.3776 22.1743 16.4213 22.3726L16.4805 22.4057C16.6977 22.3921 16.7703 22.2615 16.9237 22.0959C16.9948 22.1357 17.0324 22.1627 17.0984 22.2092C17.0385 22.3748 16.842 22.3635 16.8535 22.6184C16.9207 22.7052 16.8791 22.6764 16.9805 22.7104C17.1758 22.6506 17.1555 22.5342 17.3711 22.4121C17.4662 22.4054 17.4844 22.4297 17.568 22.4793V22.5236C17.5358 22.5567 17.5039 22.5901 17.4726 22.6238C17.3976 22.7031 17.3808 22.7068 17.366 22.8185C17.4067 22.9473 17.3681 22.9085 17.4571 22.9659C17.6305 22.9443 17.7596 22.7432 17.8693 22.6065L18.1682 22.7165C18.7037 22.923 19.2289 22.8814 19.638 23.2881C17.5503 23.735 16.7582 23.3869 14.7789 23.358C14.501 22.7384 14.1821 22.4777 13.5703 22.235C13.6195 22.0449 13.6642 21.8863 13.7796 21.7266Z" fill="white"/>
<path d="M13.5012 23.5977C14.157 23.6666 14.8125 23.6523 15.4646 23.7028C16.6827 23.7969 17.9077 23.9369 19.1233 23.7216C19.2818 23.6936 19.4222 23.6311 19.5844 23.6204C19.5765 23.6958 19.5434 23.6982 19.4674 23.7662C18.2953 24.3856 16.0973 24.0196 14.7703 24.1195C14.5324 24.1377 13.6531 24.1247 13.4869 23.9971C13.455 23.8662 13.4842 23.7343 13.5012 23.5977Z" fill="white"/>
<path d="M13.5066 22.5391C13.9176 22.6177 14.2274 23.0077 14.4303 23.3489C14.1463 23.3476 13.8195 23.3243 13.5327 23.3103C13.5006 23.005 13.5015 22.8541 13.5066 22.5391Z" fill="white"/>
<path d="M15.7211 21.2676C15.8116 21.3037 16.0012 21.4349 16.0914 21.4936L15.8879 21.6175C15.7791 21.6953 15.7345 21.76 15.6291 21.6637C15.5932 21.5021 15.6427 21.4052 15.7211 21.2676Z" fill="white"/>
<path d="M20.3742 19.2522L20.3268 19.1705C20.2569 19.0539 20.1378 18.8823 20.3161 18.8066C20.533 18.8513 20.5819 18.9767 20.7101 19.1611C21.5609 20.4445 21.9221 22.1758 21.6426 23.6882C21.7921 23.536 21.9895 23.2827 22.1891 23.2793C22.2893 23.3358 22.2504 23.2982 22.3099 23.3975C22.2948 23.6293 21.6004 24.251 21.3695 24.3315C21.0943 24.258 20.7377 23.379 20.7982 23.1029L20.8422 23.0646C21.0719 23.1077 21.2143 23.4713 21.3085 23.6612C21.5053 21.9921 21.3121 20.6799 20.3742 19.2522Z" fill="#1C1C1C"/>
<path d="M10.0335 15.5114C10.1465 15.492 10.192 15.5084 10.2698 15.581C10.2795 15.8787 9.71273 16.1624 9.48796 16.385C8.75136 17.114 8.52295 17.7656 8.25048 18.7042C8.41177 18.5757 8.68424 18.3078 8.89413 18.3582C8.97432 18.4575 8.95366 18.4025 8.96186 18.5271C8.86163 18.7819 8.32217 19.178 8.07826 19.3852C7.99867 19.3976 8.02874 19.3955 7.94552 19.3751C7.69432 19.1689 7.31372 18.316 7.44464 17.9955L7.52452 17.9919C7.71831 18.1358 7.80762 18.3764 7.91423 18.5939L7.92973 18.5246C8.23621 17.1875 8.86679 16.2435 10.0335 15.5114Z" fill="#1C1C1C"/>
<path d="M22.5248 15.9513C22.3814 15.8872 22.1436 15.8021 22.1794 15.6117C22.2684 15.5488 22.2699 15.5542 22.3732 15.5391C23.5192 15.9935 24.2589 16.686 24.7488 17.8205C24.822 17.9915 24.8895 18.165 24.9511 18.3405C25.0104 18.1407 25.069 17.7692 25.2956 17.7103C25.5295 17.891 25.2011 18.9608 24.9356 19.0513C24.8254 19.0352 24.0663 18.5392 23.9667 18.4259C23.9123 18.3639 23.939 18.3257 23.956 18.2515C24.1462 18.0842 24.4697 18.3831 24.6465 18.5073C24.3284 17.4351 23.7121 16.5943 22.7252 16.0506C22.6596 16.0147 22.5928 15.9816 22.5248 15.9513Z" fill="#1C1C1C"/>
<path d="M14.4318 19.3116C14.4941 19.1497 14.6317 18.712 14.8698 18.7983C14.9521 18.9848 14.8607 19.1114 14.7839 19.2855C14.649 19.7478 14.6335 19.9516 14.6368 20.4376C14.728 20.3052 14.8962 20.0394 15.0657 20.0072C15.2732 20.1776 14.8294 20.7511 14.7091 20.9117C14.4002 21.3239 13.8137 20.4349 13.8204 20.1566L13.8599 20.1089C13.9768 20.1114 14.0564 20.183 14.1344 20.2632C14.1867 20.3176 14.2377 20.3729 14.2881 20.4294C14.2976 20.0618 14.317 19.6645 14.4318 19.3116Z" fill="#1C1C1C"/>
</svg>
