<svg width="408" height="408" viewBox="0 0 408 408" fill="none" xmlns="http://www.w3.org/2000/svg">
<path d="M253.357 61.8316C263.629 60.9572 280.604 67.7153 283.383 79.0994C284.242 81.2646 281.335 85.3525 281.624 86.9467C282.772 93.2741 284.584 98.0503 282.724 104.691C285.18 109.745 283.421 112.567 282.612 117.679C282.214 120.197 281.694 121.73 279.71 123.398C283.768 132.012 292.211 135.027 295.432 143.694C296.918 147.692 296.826 150.941 295.245 154.642C294.772 155.751 295.081 156.914 294.326 158.511L294.523 158.614C320.743 172.459 322.946 187.142 324.906 214.489C325.906 228.456 326.092 242.181 326.602 256.14L327.311 272.972C327.703 282.359 328.189 294.238 323.673 302.745L370.904 307.865L381.243 308.977C382.795 309.138 386.708 309.028 387.383 310.427C387.288 310.646 387.268 310.851 387.035 310.955C385.911 311.459 332.923 305.347 326.4 304.654L88.8068 278.899L38.7708 273.358C35.0026 272.936 29.3151 272.267 25.3475 271.776C24.9405 271.727 24.7883 271.304 24.6992 270.96L24.9522 270.703C26.0342 270.46 38.564 272.006 40.7967 272.239L102.588 278.853C111.332 279.548 121.124 280.863 129.965 281.815L195.104 288.834C192.179 278.181 195.092 271.284 196.919 260.706C197.734 255.988 198.214 252.347 198.633 247.571C195.144 251.259 191.866 254.026 187.461 256.58C180.593 260.564 173.255 262.742 165.291 261.899C159.69 261.306 154.457 259.507 149.656 256.6C143.905 253.118 139.713 248.004 134.47 243.92C130.824 241.081 127.094 238.138 124.805 234.04C122.813 230.462 120.99 224.374 122.109 220.316C119.841 218.003 117.677 215.78 117.005 212.471C116.379 209.383 117.437 205.572 119.141 202.968C114.994 195.336 111.934 179.401 112.365 170.509C112.462 168.52 118.79 156.044 120.148 153.901C120.052 153.373 119.965 152.842 119.889 152.31C119.117 146.621 118.392 140.927 117.716 135.226C116.726 126.884 114.44 119.643 126.378 119.981C132.005 120.141 137.946 119.829 143.554 120.351C148.702 120.831 148.137 127.669 148.724 131.324C148.955 132.881 149.089 134.452 149.272 135.976L152.716 166.552C154.974 169.718 153.348 168.572 153.376 170.642L153.232 170.37L153.22 170.657C153.515 173.366 154.218 176.311 153.617 179.001C153.316 180.343 152.358 180.851 151.489 181.849C151.602 182.561 151.811 183.985 151.391 184.538C149.295 187.301 140.258 188.318 136.468 189.327C136.715 190.929 136.703 192.025 136.603 193.618C139.88 194.761 140.562 195.948 142.809 198.52C149.791 198.087 153.222 199.528 158.153 204.53C159.979 206.381 161.208 207.572 163.411 208.929C165.649 204.656 168.221 205.992 171.204 203.255C172.781 201.717 173.882 199.235 175.38 197.693C180.224 192.707 185.537 186.459 190.941 182.165C189.848 178.214 181.829 149.62 182.369 148.097C183.648 146.825 187.612 145.875 189.368 145.678C192.994 145.271 208.074 141.09 210.73 142.339C211.987 144.238 215.591 159.232 216.332 162.115C217.418 161.382 218.163 161.04 219.342 160.474C215.366 155.699 220.697 148.105 222.813 143.52C217.051 133.88 217.711 125.646 216.535 115.177C216.137 111.636 214.095 111.667 214.256 106.381C210.085 102.427 213.288 95.9051 214.539 91.4761C215.848 86.8395 216.521 85.5643 220.721 83.2326C226.433 72.9063 232.694 69.7061 243.133 65.3049C246.934 63.7028 249.058 62.3702 253.357 61.8316Z" fill="#0C0C0C"/>
<path d="M191.252 183.861C191.478 184.118 191.407 183.986 191.517 184.35C191.776 185.204 191.932 186.347 192.788 186.829C194.619 187.861 206.669 185.074 209.635 184.522C208.458 187.462 207.221 190.869 209.577 193.539C209.675 196.297 209.661 197.49 211.629 199.529C212.143 206.051 214.725 207.247 220.658 207.097C221.272 207.081 222.021 210.958 222.25 211.673C223.108 214.347 225.035 215.948 227.404 217.243C220.6 227.079 227.501 228.864 231.882 236.082C231.667 242.214 232.976 247.941 236.984 252.667C239.47 255.599 242.873 257.832 245.228 260.659C254.619 271.939 265.472 283.555 281.059 284.785C299.22 286.394 309.284 273.13 314.912 257.653C319.231 245.78 322.632 233.771 323.634 221.056L323.8 220.947C324.08 222.614 324.224 228.061 324.325 229.993C324.77 238.458 324.734 247.027 324.969 255.509C325.284 266.855 326.509 278.425 325.553 289.761C325.16 294.407 323.869 298.413 321.965 302.639C318.445 302.057 312.956 301.662 309.3 301.27L285.595 298.636L244.162 294.168C232.336 292.877 220.417 291.452 208.587 290.291C204.91 289.777 200.581 289.424 196.847 289.03C193.49 276.242 198.049 268.323 199.409 255.948C200.929 242.112 201.37 228.025 203.31 214.173C203.432 213.307 203.527 211.627 202.961 210.96L202.609 211.195C200.949 214.391 199.084 240.032 198.798 245.323C196.95 246.686 194.899 249.128 192.984 250.68C186.514 255.98 178.585 259.976 170.128 260.416C162.586 260.852 153.909 258.141 147.937 253.432C142.113 248.84 136.645 243.327 130.691 238.735C125.714 234.896 123.498 228.005 123.227 221.794C123.793 222.429 124.74 223.762 125.625 223.367C125.784 220.75 119.981 216.723 118.903 213.379C117.877 210.197 118.37 208.52 119.439 205.336C119.609 204.83 119.672 204.723 120.027 204.579C120.655 205.836 118.709 209.751 119.685 211.996C119.905 212.908 120.646 214.201 121.618 214.602C127.482 217.018 134.302 211.434 136.755 206.527C138.44 203.157 138.979 200.123 137.915 196.8C137.354 196.297 137.055 196.041 136.58 195.466L136.759 195.325C139.598 195.872 142.342 201.344 144.858 202.583L145.124 202.435C145.176 201.113 144.892 200.836 144.018 199.806C149.558 200.099 152.856 201.25 156.668 205.386C159.163 208.346 161.177 209.299 164.4 211.074C169.209 213.719 172.2 221.931 173.776 226.86C174.3 228.501 174.59 232.645 175.746 233.448L176.009 233.34C176.908 230.388 174.549 223.543 173.317 220.656C171.287 215.899 169.193 212.287 164.907 209.362C167.311 206.274 171.015 206.294 172.288 204.483C177.759 196.704 184.474 190.502 191.252 183.861Z" fill="#F2F2F2"/>
<path d="M216.621 249.679C216.705 249.703 217.033 249.782 217.073 249.848C222.667 259.084 228.552 268.013 235.756 276.147C236.953 277.498 240.203 281.125 240.717 282.695C240.585 282.641 240.424 282.582 240.326 282.504C233.547 277.125 218.514 257.197 216.621 249.679Z" fill="#0C0C0C"/>
<path d="M145.593 205.269C149.024 207.613 142.601 227.306 128.935 225.37C128.754 225.252 128.503 225.021 128.33 224.874L128.316 224.501C128.903 224.133 131.12 224.292 132.27 224.087C133.291 223.897 134.282 223.573 135.218 223.123C139.898 220.901 143.296 216.118 144.418 211.116C144.831 209.271 144.9 206.976 145.593 205.269Z" fill="#0C0C0C"/>
<path d="M169.918 211.693C174.278 212.484 182.032 221.481 181.763 225.802C180.727 225.459 179.791 223.465 179.216 222.505C176.996 218.801 174.556 215.488 170.783 213.283C170.065 212.863 169.997 212.423 169.918 211.693Z" fill="#0C0C0C"/>
<path d="M240.373 155.831C240.891 155.749 240.64 155.728 241.126 155.882C241.738 157.51 241.218 158.494 241.03 160.154C240.379 165.892 246.146 168.89 251.057 169.125C258.532 169.481 263.96 166.578 269.399 161.818C280.559 165.879 282.133 156.176 289.239 158.194C294.57 159.707 305.446 166.941 309.51 170.958C312.267 173.691 314.618 176.805 316.488 180.206C325.846 197.229 323.029 226.982 317.447 244.808C313.442 257.594 308.701 273.677 295.997 280.355C289.104 283.976 281.785 284.058 274.459 281.879C264.972 279.054 257.824 272.579 251.416 265.373C249.517 263.463 247.244 260.126 245.304 258.397C239.233 252.988 234.231 248.721 233.502 240.029C233.362 238.369 233.902 236.688 233.135 235.184C231.362 231.705 227.657 229.219 226.143 225.665C226.031 225.404 226.115 225.384 226.25 225.197C226.607 225.408 227.218 225.793 227.613 225.803C229.344 225.85 232.187 224.332 233.562 223.424C238.843 219.868 242.491 214.355 243.702 208.104C243.69 207.188 243.409 207.237 243.224 206.445C245.668 206.709 250.236 215.451 252.326 214.577L252.481 214.176L252.039 213.343C253.266 212.547 256.597 213.471 257.896 213.78C264.829 215.427 268.04 221.169 272.732 225.757C273.503 226.512 276.451 228.102 277.595 228.779C285.315 233.353 289.63 241.527 293.863 249.113C294.377 250.036 294.646 250.629 295.515 251.295L295.71 251.095C295.471 245.979 287.201 234.417 283.324 230.921C289.108 232.379 293.636 234.674 297.844 238.877C298.571 239.602 300.782 242.105 301.491 242.33L301.643 241.979C301.31 240.76 300.368 239.612 299.535 238.662C294.961 233.435 287.922 229.594 280.982 229.05C280.063 228.378 279.071 227.731 278.127 227.092C279.83 222.679 281.306 218.242 283.157 213.859C283.94 212.007 288.223 204.819 287.394 203.428L287.034 203.456C283.97 206.317 278.252 221.874 276.77 226.416C270.913 222.954 270.897 220.402 266 216.26C261.267 212.258 256.767 211.345 250.776 211.849C248.872 209.608 245.005 203.62 241.881 204.986C240.054 204.612 236.45 182.977 233.783 180.447C230.812 177.632 222.541 171.625 218.77 171.249C218.029 168.934 217.248 165.815 216.773 163.452C222.541 160.087 233.874 157.234 240.373 155.831Z" fill="#F2F2F2"/>
<path d="M236.669 160.44C237.566 160.956 237.909 165.546 238.839 167.045C240.606 169.897 242.963 171.927 246.11 173.003C254.812 175.98 263.434 172.553 270.471 167.367C270.768 167.147 270.782 167.227 271.079 167.334L271.043 167.89C264.919 173.884 255.657 176.493 247.266 174.556C243.809 173.759 240.096 171.438 238.327 168.299C237.106 166.136 236.024 162.898 236.669 160.44Z" fill="#0C0C0C"/>
<path d="M251.892 217.27C252.284 217.592 252.551 217.811 252.519 218.389C252.053 226.848 243.815 235.91 235.508 236.568C235.143 236.231 235.125 236.265 235.012 235.793C235.444 235.414 237.452 235.01 238.494 234.574C243.911 232.305 247.662 228.115 249.927 222.754C250.672 220.991 251.089 219.22 251.808 217.473L251.892 217.27Z" fill="#0C0C0C"/>
<path d="M311.417 186.933C312.485 186.77 316.898 186.478 316.998 187.966C315.727 188.373 312.796 188.04 311.386 188.299C306.062 189.274 300.982 192.533 296.683 195.675C295.699 196.475 294.538 197.562 293.362 197.93L293.215 197.7C294.996 192.978 306.403 187.656 311.417 186.933Z" fill="#0C0C0C"/>
<path d="M227.35 97.9448C229.884 97.748 231.884 97.7506 234.414 97.9845C239.305 103.293 243.413 104.973 250.513 106.41C252.304 106.772 254.896 107.019 256.526 107.592C258.355 111.478 260.128 117.301 264.49 119.368C266.1 120.131 267.668 117.601 268.511 116.538C269.234 115.628 269.78 115.136 270.818 114.488C272.852 116.154 274.625 117.791 276.101 119.998C275.386 125.339 272.401 131.47 266.007 128.874C265.347 130.189 264.965 131.571 264.548 132.979C262.56 139.698 259.685 146.638 262.054 153.667C263.213 157.107 264.913 159.233 267.967 161.142C262.319 165.261 257.179 168.384 249.806 167.355C247.511 167.035 243.232 165.035 242.802 162.638C243.124 161.954 243.318 161.659 243.395 160.897C243.22 160.096 243.232 158.041 243.214 157.11C248.569 154.873 253.667 149.377 256.153 144.224L255.922 143.513L255.556 143.33C254.536 143.767 251.956 145.904 250.944 146.632C237.953 155.968 227.364 152.254 221.641 137.507C218.264 128.805 218.73 120.321 217.891 111.154L218.106 111.019C221.531 108.922 224.983 110.839 225.788 109.961C224.587 106.105 218.491 109.549 217.762 108.225C217.831 108.012 217.903 107.799 217.973 107.586C219.69 106.179 221.784 105.097 223.304 103.512C225.015 101.728 226.195 100.054 227.35 97.9448Z" fill="white"/>
<path d="M256.15 144.225C256.644 145.162 256.804 145.731 256.387 146.755C254.222 152.069 249.154 157.659 243.516 159.148C243.502 159.639 243.522 160.467 243.392 160.897C243.217 160.096 243.229 158.041 243.211 157.11C248.566 154.873 253.664 149.377 256.15 144.225Z" fill="#F2F2F2"/>
<path d="M240.474 131.733C241.997 131.555 243.78 131.482 244.3 133.119C245.859 138.022 240.955 144.819 235.578 144.043C234.331 143.862 233.85 143.7 232.813 143.261C230.663 141.98 226.416 137.268 227.872 134.763C228.864 134.04 238.45 132.195 240.474 131.733Z" fill="#0C0C0C"/>
<path d="M241.017 132.934C241.79 132.829 242.081 132.723 242.816 132.999L242.904 133.358C241.057 135.984 234.684 136.772 231.707 136.7C231.034 136.468 229.773 136.161 229.695 135.374C230.323 135.123 233.407 134.636 234.269 134.451C236.527 133.967 238.766 133.456 241.017 132.934Z" fill="white"/>
<path d="M239.764 138.316C240.748 138.193 241.639 138.193 242.627 138.171C241.013 140.832 240.101 141.742 237.244 142.741C236.441 142.853 235.395 142.905 234.726 142.42C234.202 140.455 238.27 138.761 239.764 138.316Z" fill="white"/>
<path d="M229.206 115.579C231.792 116.346 228.345 123.373 227.867 125.172C227.082 128.116 231.329 127.519 232.24 129.186L232.025 129.775C231.618 129.735 231.214 129.681 230.813 129.614C224.066 128.421 226.554 124.468 228.082 120.095C228.522 118.835 228.857 116.944 229.206 115.579Z" fill="#0C0C0C"/>
<path d="M241.199 106.642C243.094 106.527 248.784 107.098 249.021 109.342C247.891 110.042 246.236 109.165 245.078 108.734C240.761 107.711 241.189 109.072 237.366 109.383C237.094 109.405 237.08 109.248 236.906 108.986C237.113 107.043 239.588 106.881 241.199 106.642Z" fill="#0C0C0C"/>
<path d="M241.092 114.534C244.115 114.417 244.76 118.192 242.786 120.073C239.704 120.333 239.6 116.53 241.092 114.534Z" fill="#0C0C0C"/>
<path d="M221.883 115.259C224.905 115.39 225.662 118.885 223.59 120.859C220.57 121.068 220.489 117.298 221.883 115.259Z" fill="#0C0C0C"/>
<path d="M272.287 117.266C272.793 117.362 272.63 117.276 273.01 117.619C272.789 118.396 271.182 119.751 270.676 120.649C269.743 122.298 269.853 123.798 269.11 125.451C267.707 124.755 267.974 123.191 268.466 121.891C269.247 119.826 270.251 118.25 272.287 117.266Z" fill="#0C0C0C"/>
<path d="M239.887 145.678L240.383 146.012L240.401 146.347C239.513 147.317 237.349 147.373 236.13 147.33C235.763 147.035 235.789 147.038 235.48 146.678L235.582 146.421C236.644 146.058 238.064 146.155 239.598 145.754L239.887 145.678Z" fill="#0C0C0C"/>
<path d="M123.691 207.424C122.363 205.406 118.919 199.726 118.201 197.233C116.152 190.109 113.528 178.643 113.884 171.188C114.457 167.981 116.787 164.596 117.897 161.705C120.746 154.286 126.723 148.642 133.333 144.572C133.716 144.336 134.179 144.549 134.517 144.742C136.046 147.93 128.623 154.127 127.036 156.918C125.432 159.74 124.438 162.425 123.791 165.594C122.779 166.42 120.56 167.882 120.361 169.066C120.672 169.526 120.469 169.364 121.031 169.497C123.708 167.542 126.419 165.599 129.155 163.728C131.459 162.154 146.763 154.759 148.104 158.012C147.489 162.248 137.037 165.345 133.891 167.897C132.774 168.803 126.184 174.04 126.174 174.975C127.861 175.796 136.296 170.92 138.734 170.587C141.342 170.23 150.285 166.456 152.342 168.508C152.31 169.622 151.321 170.64 150.426 171.249C146.873 173.669 131.937 178.603 130.517 181.767C130.377 182.079 130.44 182.012 130.568 182.383C131.874 183.184 142.892 182.281 145.014 182.675C146.103 182.877 148.874 182.274 150.165 182.883L150.139 183.253C148.268 186.588 137.06 186.67 133.454 188.449C132.379 188.98 132.331 188.662 131.796 189.834C132.949 190.235 133.836 189.895 135.027 189.563C135.159 192.497 135.338 194.456 133.666 197.122C133.008 198.171 131.465 199.36 131.709 200.35C133.135 200.728 134.24 199.117 134.981 198.091C135.587 198.932 136.269 199.928 136.9 200.73C135.949 205.32 134.227 208.873 130.205 211.556C129.407 212.092 128.551 212.534 127.652 212.873C126.545 211.478 124.503 208.934 123.691 207.424Z" fill="white"/>
<path d="M131.796 189.835C132.949 190.235 133.836 189.895 135.027 189.563C135.159 192.497 135.338 194.456 133.666 197.122C133.008 198.172 131.465 199.36 131.709 200.35C133.135 200.729 134.24 199.118 134.981 198.091C135.587 198.933 136.269 199.928 136.9 200.731C135.949 205.321 134.227 208.873 130.205 211.556C129.407 212.092 128.551 212.534 127.652 212.873C126.545 211.479 124.503 208.935 123.691 207.424C125.918 207.008 128.23 208.255 130.143 205.785C131.352 204.719 129.701 202.129 129.846 201.167C130.474 196.989 132.073 194.376 131.796 189.835Z" fill="#F2F2F2"/>
<path d="M253.541 63.4083C254.599 63.3087 256.376 63.3012 257.454 63.4183C265.474 64.2889 273.983 67.825 279.199 74.1616C280.348 75.5571 281.523 77.4479 281.848 79.2329C282.338 81.9327 279.984 84.0203 280.031 86.6478C280.071 88.7354 281.039 90.8605 281.456 92.9312C282.177 96.5263 281.948 99.7773 281.613 103.362C278.111 98.2742 271.246 92.3992 265.827 89.5295L265.237 89.2372C255.141 84.2333 246.435 80.4571 234.783 80.6342C230.268 80.7029 227.398 80.9276 223.051 82.3949C223.557 81.4743 224.121 80.5868 224.74 79.7381C230.169 72.1977 237.106 69.8463 245.166 66.1982C248.17 64.8383 250.262 63.9343 253.541 63.4083Z" fill="#F2F2F2"/>
<path d="M233.613 82.166C244.313 81.8222 255.727 85.4599 264.889 90.9272C264.769 93.3173 264.114 95.1485 263.432 97.4106C264.297 98.3007 270.565 102.524 271.728 102.906C273.449 101.981 273.816 99.2699 274.264 97.4786C274.637 97.8256 275.007 98.1748 275.374 98.526C277.936 100.974 282.589 105.864 282.583 109.639C282.607 111.333 281.697 113.055 281.41 114.663C280.824 117.956 281.308 119.616 278.734 122.13C276.961 117.753 274.951 115.902 271.339 112.802C258.858 102.071 237.177 91.9405 220.561 98.0651C217.27 99.2779 215.722 101.439 214.482 104.601C212.859 100.317 214.231 97.8963 215.608 93.9251C216.301 91.9375 216.845 88.2474 218.369 86.7777C222.097 83.1836 228.754 82.3764 233.613 82.166Z" fill="#F2F2F2"/>
<path d="M208.337 143.503C210.801 143.16 210.801 146.503 211.377 148.651C213.305 155.85 214.931 163.145 216.985 170.308C217.15 170.878 216.965 171.181 216.505 171.427C214.682 170.496 211.036 146.924 208.544 145.058C206.34 144.597 198.642 146.544 196.467 147.312C199.019 147.044 206.589 145.315 208.201 145.526C209.59 146.988 214.251 167.491 215.297 171.412C212.869 171.549 210.486 172.123 208.263 173.106C207.424 173.473 206.625 173.891 205.862 174.333C200.963 177.171 201.557 181.453 207.711 180.758C210.273 180.469 212.606 178.959 215.242 179.759C214.913 180.075 196.967 183.446 194.8 183.844C193.839 181.625 192.91 177.717 192.271 175.262C191.305 171.542 190.313 167.828 189.295 164.122C188.286 160.419 186.276 153.599 185.76 150.058C187.657 149.315 192.821 148.499 193.767 147.94C192.761 147.724 186.177 148.783 185.359 149.824C185.129 150.116 185.334 151.613 185.46 152.102C188.009 162.009 190.666 171.907 193.408 181.763C193.601 182.454 194.08 183.926 194.697 184.242C196.709 184.557 214.895 180.832 217.134 179.808C217.724 180.307 218.327 180.933 218.881 181.482C212.901 181.447 213.618 182.06 208.271 183.197C204.023 184.099 197.847 185.311 193.605 185.864C192.572 183.378 190.533 175.176 189.79 172.304C187.816 164.677 185.291 156.285 183.66 148.619C186.188 147.734 190.817 146.932 193.576 146.385C198.491 145.395 203.412 144.435 208.337 143.503Z" fill="white"/>
<path d="M206.111 148.072C207.183 147.889 207.426 147.765 208.294 148.455C209.175 150.317 213.105 165.107 212.697 166.984C210.85 168.225 197.794 170.339 194.58 171.003C193.783 171.171 192.514 171.363 192.224 170.375C191.39 167.531 187.166 154.544 187.877 152.143C189.398 151.185 203.326 148.591 206.111 148.072Z" fill="#0C0C0C"/>
<path d="M207.12 148.667L207.481 148.704C208.034 149.321 211.802 164.59 212.312 166.617C206.873 168.065 199.073 169.256 193.34 170.399L193.192 170.413C192.458 169.754 188.774 154.955 188.168 152.636C190.208 151.976 193.272 151.449 195.43 151.017L207.12 148.667Z" fill="#F2F2F2"/>
<path d="M202.34 150.97L202.571 151.109C203.109 152.402 201.765 153.363 201.846 154.658C202.763 154.848 203.022 154.761 203.468 155.371C203.376 155.973 203.211 155.945 202.679 156.484C202.663 156.412 205.568 160.494 205.689 160.628C207.389 159.149 204.237 157.034 204.707 155.451C205.012 154.424 205.817 151.764 207.211 152.244C208.337 153.889 206.982 154.858 207.227 156.04C208.172 160.626 211.1 160.183 206.715 164.479C206.879 165.296 207.012 165.576 206.769 166.334C206.315 166.916 205.964 166.966 205.271 167.225C203.996 166.965 203.942 165.909 202.962 165.654C200.416 164.989 199.864 169.23 197.188 168.292C197.15 167.217 197.211 164.73 196.869 163.922C195.705 162.666 194.805 163.621 193.096 163.184C192.548 162.59 192.573 162.62 192.281 161.861C192.421 160.641 192.914 161.026 193.071 160.613C193.943 158.318 193.533 153.132 196.239 151.793C197.495 151.987 196.487 153.461 197.325 154.33C198.63 154.304 199.902 151.914 202.34 150.97Z" fill="#0C0C0C"/>
<path d="M201.536 152.166C201.781 153.055 200.801 153.896 200.871 155.278C201.747 156.258 201.126 155.093 202.174 155.68C201.915 156.182 201.781 156.34 201.725 156.9C203.546 158.521 206.957 163.653 206.072 166.036C205.483 166.429 205.805 166.333 205.056 166.282C204.67 165.878 202.554 164.07 202.253 164.032C202.134 164.403 202.102 164.629 202.054 165.013C199.558 166.327 197.955 164.286 196.976 162.366C197.771 162.086 198.183 161.835 198.929 161.423L199.141 161.237C199.968 161.41 200.148 161.609 200.729 160.998C200.317 159.905 200.446 161.293 199.701 160.46C200.177 160.079 200.45 159.919 200.962 159.613L200.95 159.346C199.689 158.992 198.125 161.424 196.644 161.679C195.369 161.898 194.249 160.894 194.047 159.688C194.24 158.332 195.02 158.408 195.073 157.519C194.89 157.359 194.548 157.091 194.54 156.869C194.496 155.633 195.687 153.314 196.181 152.363C196.202 153.685 195.9 154.624 197.186 155.211C198.512 155.086 200.255 153.161 201.536 152.166Z" fill="#F2F2F2"/>
<path d="M198.518 156.921C198.932 156.871 199.31 157.162 199.366 157.576C199.42 157.989 199.134 158.37 198.722 158.431C198.45 158.471 198.177 158.362 198.009 158.146C197.84 157.929 197.801 157.638 197.906 157.384C198.012 157.131 198.245 156.954 198.518 156.921Z" fill="#0C0C0C"/>
<path d="M206.656 153.105L206.8 153.231C207.041 153.896 206.686 154.163 206.519 154.867C205.555 158.947 210.358 159.241 206.798 163.443C205.226 162.227 207.352 160.426 206.756 158.824C205.73 156.058 204.592 155.907 206.656 153.105Z" fill="#F2F2F2"/>
<path d="M197.367 165.066C198.053 165.231 199.222 165.538 199.688 166.045C199.665 166.658 199.527 166.575 198.931 167.158C198.316 167.493 198.546 167.515 198.004 167.474C198.01 165.764 198.214 166.375 197.367 165.066Z" fill="#F2F2F2"/>
<path d="M206.583 171.196L206.618 171.603C205.953 172.406 196.051 174.006 194.533 174.155L194.516 173.886C195.069 173.316 205.082 171.498 206.583 171.196Z" fill="#0C0C0C"/>
<path d="M203.048 174.393L203.303 174.472L203.309 174.753C202.076 175.522 197.075 176.165 195.417 176.435L195.227 176.346L195.164 176.101C195.949 175.414 201.749 174.576 203.048 174.393Z" fill="#0C0C0C"/>
<path d="M200.67 177.192L200.929 177.427L200.73 177.747C199.395 178.184 197.505 178.456 196.078 178.706L195.785 178.584L195.804 178.26C196.914 177.633 199.371 177.365 200.67 177.192Z" fill="#0C0C0C"/>
<path d="M189.213 149.863C189.717 149.811 189.563 149.825 190.081 149.934L190.034 150.165C189.165 150.707 188.848 150.725 187.826 150.975C187.352 150.977 187.448 150.971 186.977 150.86L186.983 150.594C187.839 150.074 188.228 150.06 189.213 149.863Z" fill="#0C0C0C"/>
<path d="M221.799 181.502C217.377 177.888 214.558 176.979 208.99 178.791C204.782 180.22 201.728 178.509 206.999 175.556C210.291 173.713 216.185 172.004 219.849 173.186C222.409 174.011 232.314 180.07 233.153 182.308C236.577 191.438 237.448 200.53 241.801 209.433C240.297 213.428 239.231 215.639 236.384 218.9C235.524 219.813 234.318 220.797 233.348 221.632C230.481 216.542 228.091 216.717 224.545 212.89C223.278 211.523 222.666 205.889 221.849 204.045C221.258 202.704 218.363 201.903 217.209 202.445L217.233 202.831C218.265 203.879 220.485 203.953 220.746 205.156C220.395 205.565 220.353 205.598 219.763 205.614C214.95 205.73 213.175 203.955 213.337 199.173C215.47 195.973 221.453 197.53 224.206 195.997L224.256 195.709C222.849 194.609 217.255 195.557 215.448 195.95C214.175 196.348 212.741 197.608 211.862 197.456C210.834 196.239 211.241 193.368 211.924 192.004C214.845 189.12 224.945 190.674 225.065 188.473C224.24 187.742 218.982 188.499 217.66 188.631C214.667 188.931 212.129 189.117 210.267 191.738C209.097 190.304 210.55 184.972 212.153 184.075C216.162 181.832 222.186 183.77 226.597 182.801C226.78 182.758 226.812 182.485 226.887 182.254C226.252 181.56 225.214 181.579 224.27 181.54C223.447 181.514 222.622 181.501 221.799 181.502Z" fill="white"/>
<path d="M213.334 199.173C216.464 201.625 219.803 199.826 222.534 202.231C224.72 204.158 224.845 209.092 226.869 211.377C228.64 213.517 231.158 214.224 233.382 215.746C234.493 216.505 235.491 218.177 236.382 218.9C235.521 219.812 234.316 220.796 233.346 221.631C230.479 216.541 228.088 216.716 224.542 212.889C223.275 211.523 222.664 205.889 221.847 204.044C221.255 202.703 218.361 201.902 217.207 202.444L217.231 202.831C218.263 203.879 220.482 203.952 220.743 205.156C220.393 205.564 220.351 205.598 219.761 205.614C214.948 205.729 213.173 203.954 213.334 199.173Z" fill="#F2F2F2"/>
<path d="M215.447 195.949C214.174 196.347 212.739 197.607 211.861 197.456C210.833 196.238 211.239 193.367 211.923 192.003C213.114 194.571 213.204 194.16 215.447 195.949Z" fill="#F2F2F2"/>
<path d="M120.145 123.401C123.235 123.234 141.068 122.841 142.57 124.325C143.328 125.073 143.684 126.659 143.883 127.693C144.442 130.597 144.558 133.667 144.88 136.612L146.965 155.381C141.855 155.905 135.276 158.702 130.571 160.963C129.135 161.653 126.918 163.48 126.014 163.858L125.937 163.488C126.555 161.768 127.491 159.129 128.548 157.59C130.939 154.052 136.046 150.198 136.479 145.726C136.778 142.637 132.713 142.355 130.818 144.101C129.986 144.868 128.564 145.802 127.618 146.631C125.411 148.564 123.351 150.341 121.36 152.504C120.09 144.078 119.205 135.184 118.292 126.685C118.129 125.166 118.437 123.704 120.145 123.401Z" fill="#F2F2F2"/>
<path d="M122.076 125.525C125.848 125.105 126.433 128.284 126.662 131.335C126.873 134.159 127.745 136.843 124.914 138.402C121.274 138.577 120.718 135.706 120.39 132.682C120.091 129.921 119.329 127.116 122.076 125.525Z" fill="#0C0C0C"/>
<path d="M122.701 128.058C123.038 127.912 123.429 127.963 123.717 128.191C124.005 128.42 124.145 128.789 124.079 129.151C124.013 129.513 123.752 129.809 123.402 129.921C122.897 130.083 122.353 129.82 122.166 129.323C121.979 128.827 122.214 128.27 122.701 128.058Z" fill="white"/>
<path d="M123.529 133.828C124.034 134.045 124.059 134.141 124.451 134.544C124.651 135.398 124.613 135.088 124.344 136.007C123.633 135.778 123.465 135.685 123.121 135.072C123.133 134.222 123.041 134.634 123.529 133.828Z" fill="white"/>
<path d="M123.201 121.391C129.246 121.042 135.989 121.587 142.08 121.58C145.54 121.576 146.398 123.688 146.869 126.782C147.289 129.54 147.537 132.536 147.844 135.371L149.4 149.501L150.492 159.669C150.7 161.498 150.935 163.37 151.112 165.201C151.165 165.752 151.119 165.647 150.803 166.083C150.166 166.293 150.005 166.216 149.354 166.098L149.265 165.768C148.985 163.794 148.538 161.376 149.153 159.478C149.807 157.46 149.56 156.931 147.902 155.555C147.624 150.327 146.683 144.305 146.186 139C145.795 134.818 145.31 129.996 144.478 125.934C144.134 124.415 143.261 123.664 142 122.998C139.14 121.489 122.968 123.003 121.324 122.053C121.823 121.62 122.535 121.542 123.201 121.391Z" fill="white"/>
<path d="M146.458 131.24C147.136 132.001 147.114 135.23 146.97 136.267C146.261 135.205 145.967 132.413 146.458 131.24Z" fill="#0C0C0C"/>
<path d="M148.914 173.914L149.139 173.999C149.6 175.546 150.029 180.946 147.569 181.128C143.409 181.436 139.243 180.884 135.022 181.084L134.531 181.054L134.531 180.896C137.053 178.734 145.56 175.386 148.914 173.914Z" fill="#F2F2F2"/>
<path d="M266.187 91.3145C268.785 92.9463 270.743 94.2462 273.082 96.2891C272.679 98.2766 272.357 99.4065 271.737 101.366C270.841 101.289 266.225 97.8464 264.926 97.0577C265.707 94.8793 265.914 93.6031 266.187 91.3145Z" fill="#FFA0E4"/>
<path d="M147.595 161.962C148.006 162.532 148.25 165.525 148.367 166.446C142.384 168.12 138.309 168.599 132.476 171.342L132.15 171.452L131.973 171.358C135.224 168.116 143.194 165.166 147.595 161.962Z" fill="white"/>
<path d="M223.266 146.231C223.521 146.472 222.988 147.811 222.846 148.198C221.495 151.899 221.163 155.225 222.669 158.973L220.503 159.955C217.599 156.09 221.219 149.77 223.266 146.231Z" fill="white"/>
<path d="M285.746 134.013C286.82 134.458 289.203 136.86 290.015 137.779C293.651 141.891 295.325 145.791 295.002 151.262C294.687 150.892 293.761 147.527 293.546 146.777C292.127 141.841 288.878 137.992 285.746 134.013Z" fill="white"/>
<path d="M151.94 172.163C152.702 175.179 153.217 178.652 150.332 180.529C150.225 180.172 150.218 180.289 150.266 179.939C150.57 177.715 150.406 175.533 150.105 173.315L151.94 172.163Z" fill="white"/>
<path d="M263.468 141.758C263.715 142.256 263.617 143.849 263.605 144.485C263.522 149.069 263.821 151.774 265.261 156.059L265.123 156.227L264.968 155.99C262.081 151.533 262.396 146.765 263.468 141.758Z" fill="white"/>
<path d="M304.535 318.133C306.705 316.334 309.894 314.497 312.661 313.876C313.281 313.738 313.868 313.7 314.5 313.786C318.996 314.395 356.962 324.149 359.002 325.98C359.26 326.211 359.38 326.404 359.41 326.745C359.484 327.659 358.729 328.393 358.203 329.072C359.508 330.887 364.9 329.942 358.768 336.001C358.053 336.704 357.332 337.399 356.605 338.091C359.986 340.621 363.321 343.214 366.606 345.866C367.693 346.731 370.592 348.673 370.897 349.9C370.749 351.034 370.53 351.06 369.518 351.536C369.588 351.629 369.654 351.723 369.723 351.817C369.964 352.139 370.235 352.402 370.522 352.683C371.066 353.215 371.62 353.821 371.564 354.644C371.493 355.699 370.58 356.468 369.779 357.032C364.711 360.61 329.507 372.057 322.564 373.285C320.618 373.627 318.618 373.46 316.666 373.257C300.963 385.443 302.495 385.945 283.37 378.359L270.24 373.179C262.339 370.127 254.194 367.143 246.377 363.836C245.009 363.258 240.751 361.311 241.116 359.329C241.349 358.377 243.359 357.512 244.088 356.66C242.813 355.968 241.929 355.578 242.136 354.016C244.108 351.201 255.151 343.089 258.29 340.734C267.702 333.678 277.334 326.546 287.147 320.055C289.39 318.571 292.082 316.089 294.486 315.298C297.851 316.186 301.202 317.133 304.535 318.133Z" fill="#0C0C0C"/>
<path d="M316.739 365.596C321.148 370.887 321.146 368.558 327.111 367.05C341.827 363.327 355.316 356.524 369.518 351.535C369.588 351.629 369.654 351.722 369.723 351.816C369.964 352.139 370.235 352.402 370.522 352.683C371.066 353.215 371.62 353.82 371.564 354.643C371.493 355.699 370.58 356.468 369.779 357.032C364.711 360.61 329.507 372.057 322.564 373.284C320.618 373.627 318.618 373.459 316.666 373.256C300.963 385.442 302.495 385.944 283.37 378.358L270.24 373.178C262.339 370.126 254.194 367.142 246.377 363.835C245.009 363.257 240.751 361.311 241.116 359.329C241.349 358.376 243.359 357.512 244.088 356.659C247.919 358.468 251.676 359.853 255.577 361.61C269.885 368.054 284.599 373.427 299.437 378.468C301.168 379.055 302.469 377.609 303.764 376.708C308.153 373.662 312.502 368.576 316.739 365.596Z" fill="#D9DBD5"/>
<path d="M352.203 335.195C354.092 333.245 356.247 330.908 358.202 329.071C359.506 330.886 364.899 329.942 358.767 336C358.052 336.703 357.331 337.399 356.604 338.09C355.167 337.08 353.699 336.116 352.203 335.195Z" fill="#F2F2F2"/>
<path d="M294.398 316.694C295.727 316.909 300.49 318.607 302.253 319.077C312.527 321.824 322.788 325.099 332.771 328.785C336.186 330.046 341.836 332.06 345.051 333.638C344.471 334.789 343.416 336.038 342.533 337.003C330.731 349.902 318.673 362.513 305.142 373.629C303.56 374.928 302.135 376.287 300.462 377.452C298.785 377.024 297.28 376.33 295.691 375.653C290.015 373.414 284.116 371.617 278.377 369.428C271.36 366.752 264.499 363.879 257.614 360.883C253.46 359.074 247.187 356.919 243.434 354.536C245.077 352.878 248.119 350.516 249.972 349.053C254.869 345.264 259.815 341.537 264.81 337.875C272.193 332.353 279.693 326.99 287.31 321.794C289.545 320.248 292.246 318.013 294.398 316.694Z" fill="white"/>
<path d="M291.875 342.602C294.13 342.769 312.171 350.459 313.273 352.315C312.787 353.732 304.322 361.784 302.669 363.29C299.025 361.848 294.357 359.316 290.54 357.714C288.231 356.746 282.356 354.3 280.516 353.266C282.486 350.425 288.963 344.95 291.875 342.602Z" fill="#0C0C0C"/>
<path d="M292.055 343.584C292.666 343.688 295.154 344.702 295.884 344.979C301.539 347.13 306.815 349.69 312.218 352.403C308.966 355.461 305.546 358.994 302.352 362.155C297.109 359.284 287.578 355.063 281.898 352.923C284.913 349.762 288.771 346.552 292.055 343.584Z" fill="white"/>
<path d="M256.704 351.104C257.72 350.978 259.083 351.15 260.079 351.464C270.767 354.851 281.232 359.276 291.671 363.374C294.076 364.318 298.138 365.972 298.843 368.613C299.277 370.237 300.68 374.578 300.023 376.03C298.672 375.028 298.506 369.424 296.68 367.253C293.432 364.936 261.952 352.688 258.163 352.345C255.156 352.072 247.357 354.624 245.966 354.098L245.883 353.748C247.036 352.506 254.704 351.321 256.704 351.104Z" fill="#0C0C0C"/>
<path d="M294.454 317.664C295.191 318.29 295.073 320.226 295.099 321.172C300.317 322.421 331.644 332.331 333.638 335.201L333.439 335.588C330.07 334.353 326.829 332.87 323.329 331.548C313.991 328.017 304.381 325.001 294.888 321.987C293.705 321.611 293.649 318.841 294.454 317.664Z" fill="#0C0C0C"/>
<path d="M291.553 322.516L291.951 322.573L292.007 322.888C291.246 323.834 288.21 325.95 287.146 326.687C277.112 333.622 267.71 341.354 258.003 348.703L257.754 348.593L257.672 348.285C259.584 345.386 287.852 324.512 291.553 322.516Z" fill="#0C0C0C"/>
<path d="M334.09 338.834L334.288 339.089C333.742 341.794 306.395 368.035 302.329 371.026C302.166 370.785 302.235 370.934 302.188 370.55C303.445 368.894 305.979 366.88 307.606 365.388C310.525 362.678 313.411 359.933 316.262 357.152C322.028 351.464 328.371 344.069 334.09 338.834Z" fill="#0C0C0C"/>
<path d="M298.355 341.051C299.033 341.087 299.923 341.286 300.529 341.573C303.113 342.8 314.466 346.834 315.429 348.94C314.546 348.91 308.625 346.236 307.691 345.726C305.946 344.774 299.218 342.457 298.355 341.051Z" fill="#0C0C0C"/>
<path d="M304.348 340.084C306.288 340.096 315.275 344.232 317.249 345.704C317.544 345.923 317.448 345.979 317.452 346.397C317.197 346.333 316.946 346.262 316.697 346.18C316.207 346.023 313.902 344.957 313.546 344.726C311.824 343.606 304.975 341.379 304.348 340.084Z" fill="#0C0C0C"/>
<path d="M342.518 334.123L342.84 334.151L342.982 334.422C341.904 335.645 337.856 336.133 336.244 336.209C335.902 336.016 336.047 336.155 335.84 335.761C336.196 335.516 341.603 334.346 342.518 334.123Z" fill="#0C0C0C"/>
<path d="M348.235 339.451C349.459 340.429 350.68 341.158 351.877 342.236C354.041 343.94 356.103 345.768 358.055 347.711C358.483 348.163 358.696 348.496 359.294 348.639L359.541 348.456C359.543 348.067 359.567 347.978 359.493 347.601C361.298 347.129 364.151 347.798 365.131 346.772C366.647 347.83 368.151 348.906 369.643 349.998C361.328 352.596 352.925 356.58 344.715 359.666C336.657 362.696 328.67 365.011 320.496 367.633C319.576 366.712 318.604 365.631 317.703 364.67C320.387 362.14 323.054 359.594 325.71 357.036C326.78 357.461 328.266 358.132 329.312 357.397C331.079 356.154 332.748 354.504 334.34 353.038C339.107 348.649 343.739 344.119 348.235 339.451Z" fill="#F2F2F2"/>
<path d="M342.879 351.468C345.871 348.522 348.895 345.133 351.88 342.236C354.043 343.94 356.105 345.768 358.057 347.711C355.605 349.416 346.08 351.217 342.879 351.468Z" fill="white"/>
<path d="M356.212 351.027L356.549 351.264L356.529 351.535C355.619 352.241 352.142 353.522 350.931 354.03C341.783 357.87 332.627 360.817 323.154 363.718C322.921 363.578 323.028 363.68 322.879 363.371C323.552 362.779 331.364 360.203 332.86 359.745C340.832 357.303 348.421 353.743 356.212 351.027Z" fill="#0C0C0C"/>
<path d="M360.99 349.1C362.275 349.153 365.586 349.058 366.419 349.705L366.459 350.078C365.307 350.092 361.652 350.215 360.891 349.582L360.99 349.1Z" fill="#0C0C0C"/>
<path d="M313.493 315.142C316.559 315.604 322.037 317.082 325.167 317.849C334.935 320.2 344.625 322.853 354.227 325.806C353.566 327.151 347.424 332.547 346.157 333.031C342.487 329.708 316.643 321.614 310.873 319.893C312.067 318.899 315.019 317.325 315.537 316.369C313.772 316.066 311.047 318.329 309.853 319.588L306.383 318.582C308.919 317.136 310.768 316.18 313.493 315.142Z" fill="white"/>
<path d="M354.229 325.806C355.44 326.124 356.832 326.457 358.016 326.826C354.778 330.784 330.902 355.412 327.914 356.332L327.093 356.123L327.031 355.836C331.225 350.612 336.847 345.835 341.208 340.703C342.965 338.635 346.441 335.834 346.158 333.031C347.425 332.547 353.567 327.15 354.229 325.806Z" fill="#F2F2F2"/>
<path d="M355.282 339.031C358.173 341.181 362.426 344.38 365.133 346.771C364.153 347.797 361.3 347.127 359.495 347.6C357.021 345.197 355.702 343.791 352.855 341.667L355.282 339.031Z" fill="white"/>
<path d="M351.338 336.094L355.282 339.032L352.856 341.668C351.441 340.64 350.234 339.811 348.758 338.877C349.64 337.976 350.487 337.026 351.338 336.094Z" fill="#F2F2F2"/>
<path d="M107.944 288.218C110.723 288.845 130.74 292.786 131.211 294.643C130.772 295.858 128.962 296.557 127.784 297.169C128.839 297.392 130.386 297.569 131.052 298.334L130.909 298.79C130.432 299.241 129.776 299.46 129.14 299.575C128.087 299.747 127.281 300.229 126.414 300.828C124.01 302.49 121.491 303.721 118.861 304.976C114.664 307.018 110.403 308.927 106.085 310.698C103.818 311.628 101.034 312.403 98.9343 313.552L101.35 314.327C109.189 310.921 116.896 306.857 124.687 303.334C125.852 302.807 127.047 300.771 127.78 300.751C129.294 300.709 131.777 301.298 132.964 302.237C133.902 302.376 135.076 302.773 135.7 303.526C136.012 303.9 136.2 304.376 136.128 304.868C135.87 306.618 133.262 307.891 131.891 308.709C126.668 311.835 104.896 323.169 99.615 323.864C97.4591 324.147 94.8441 323.509 92.7667 322.985C89.2176 322.093 72.188 317.752 70.9227 315.433C70.7227 315.066 70.6588 314.704 70.7948 314.294C70.9564 313.807 71.4214 313.357 71.7604 312.989C71.9222 312.813 71.8708 312.897 71.9463 312.704C72.8081 311.871 74.1821 311.204 75.2603 310.618C75.595 310.044 75.5223 310.347 75.4799 309.678C74.5607 308.375 72.3736 309.002 72.4278 307.438C72.9575 306.642 73.2679 306.556 74.1327 306.06C73.0781 305.819 71.1528 305.614 70.9749 304.418C71.6284 303.173 73.8734 303.056 75.0475 302.422C76.0169 301.978 77.1483 300.639 78.0283 300.207C84.6359 297.035 91.6787 294.425 98.5313 291.784C102.394 290.296 104.229 290.439 107.944 288.218Z" fill="#0C0C0C"/>
<path d="M132.964 302.236C133.902 302.376 135.076 302.772 135.7 303.525C136.012 303.9 136.2 304.376 136.128 304.868C135.87 306.617 133.262 307.89 131.891 308.709C126.668 311.835 104.896 323.168 99.615 323.864C97.4591 324.146 94.8441 323.509 92.7667 322.985C89.2176 322.092 72.188 317.751 70.9227 315.433C70.7227 315.066 70.6588 314.703 70.7948 314.293C70.9564 313.807 71.4214 313.357 71.7604 312.988C71.9222 312.813 71.8708 312.897 71.9463 312.703C72.0314 312.895 72.0792 313.03 72.2168 313.201C73.3865 314.66 93.6735 319.724 96.7933 320.435C100.403 318.379 100.842 319.507 104.157 318.154C108.887 316.192 113.565 313.777 118.148 311.496C122.13 309.512 130.419 305.794 132.964 302.236Z" fill="#D9DBD5"/>
<path d="M104.501 291.317C108.927 292.29 113.334 293.343 117.721 294.477C120.486 295.184 123.604 296.087 126.365 296.543C123.692 298.194 118.017 300.577 115.018 301.868C109.495 304.247 104.496 306.554 99.1046 309.201C98.7253 309.167 98.9357 309.215 98.5974 309.078C94.1618 307.269 89.4433 306.093 84.8772 304.649C82.3135 303.836 79.7408 303.095 77.1133 302.531C81.9059 299.196 98.514 293.268 104.501 291.317Z" fill="white"/>
<path d="M101.668 295.322C110.423 295.806 109.947 302.399 101.266 302.781C99.6174 302.638 98.0358 302.544 96.5472 301.689C95.0465 300.827 94.3038 299.024 95.5017 297.548C96.9271 295.792 99.5438 295.51 101.668 295.322Z" fill="#0C0C0C"/>
<path d="M96.6793 297.562C97.4616 297.813 98.5143 298.072 98.753 298.924C99.5214 301.665 104.009 299.251 104.948 301.08L104.552 301.392C104.136 301.484 103.716 301.558 103.294 301.62C100.91 301.94 92.9786 301.602 96.6793 297.562Z" fill="#FFA0E4"/>
<path d="M100.857 296.3C100.999 296.283 101.142 296.271 101.285 296.259C103.456 296.095 106.772 296.613 106.987 299.319C106.693 300.046 106.923 299.755 106.249 300.201C105.481 300.325 104.994 299.972 104.267 299.627L103.904 299.444C102.973 295.922 100.964 298.323 97.8394 297.123L97.5234 297C98.7468 296.643 99.6015 296.51 100.857 296.3Z" fill="white"/>
<path d="M100.827 298.28C101.629 298.203 102.336 298.037 102.726 298.868C102.303 299.458 102.403 299.282 101.627 299.613C100.787 299.577 100.289 299.591 99.7227 298.918C100.07 298.376 100.03 298.535 100.827 298.28Z" fill="white"/>
<path d="M85.9928 300.013C87.6472 300.144 98.1894 303.533 99.6186 304.519C100.045 305.766 98.4908 306.282 97.5607 306.726C96.5863 306.613 94.2076 306.003 93.287 305.623C91.4885 304.88 84.0831 303.425 83.5586 301.81C84.0056 300.73 84.9354 300.475 85.9928 300.013Z" fill="#0C0C0C"/>
<path d="M86.1643 300.831C88.0593 301.367 97.3833 304.17 98.6356 304.883C98.4617 305.487 98.2095 305.487 97.5692 305.963C93.9241 305.082 88.1127 303.04 84.2773 301.915L86.1643 300.831Z" fill="#FFA0E4"/>
<path d="M112.368 294.618C113.722 294.563 117.414 295.579 118.403 296.515L118.409 296.858C117.795 297.603 117.083 297.965 116.261 298.487C114.975 298.74 110.52 298.133 110.52 296.16C110.931 295.381 111.595 295.099 112.368 294.618Z" fill="#0C0C0C"/>
<path d="M112.821 295.406C113.775 295.444 116.345 296.347 117.391 296.687L115.765 297.877L111.141 296.526L112.821 295.406Z" fill="#FFA0E4"/>
<path d="M126.802 303.602C127.501 303.703 128.14 303.799 128.844 303.865C125.574 306.813 120.226 308.743 116.26 310.831C111.776 313.192 107.108 315.519 102.416 317.419C101.525 317.76 99.9704 317.505 99.043 317.764C97.8312 318.101 97.2708 319.3 95.8573 318.798C95.7655 318.34 95.7862 318.354 95.8663 317.888C95.2278 317.694 94.9501 318.089 94.4369 318.511C93.6826 318.549 94.0615 318.599 93.291 318.184L93.2083 317.872L93.741 317.278L93.487 317.027C92.1684 317.194 92.611 318.218 91.1282 317.545C91.1697 317.242 91.2004 317.067 91.2609 316.756L90.9531 316.636C90.5204 316.945 90.062 317.447 89.5504 317.256C88.2322 316.764 79.7915 314.752 79.3965 314.078C79.5863 313.853 79.7471 313.648 79.9555 313.441C79.6614 313.272 79.721 313.327 79.3576 313.276C78.8235 313.616 78.7076 313.694 78.1029 313.955C77.3497 313.786 77.5776 313.989 77.2005 313.521C77.3206 313.198 77.4654 312.903 77.6346 312.606C76.304 312.431 75.8408 313.913 74.4375 312.76C74.7224 312.339 75.7541 311.907 76.2815 311.634C77.6664 312.064 78.96 312.467 80.3653 312.823C83.7689 313.867 95.6718 317.308 98.9832 317.26L99.2301 317.115C97.8772 316.188 95.3881 315.822 93.9079 315.387C90.5862 314.413 79.2793 312.098 76.7385 310.421L76.701 310.018C78.4543 309.738 93.9133 314.479 97.0432 315.138C98.8374 313.965 99.7482 313.746 100.228 316.065C101.375 316.097 124.272 305.086 126.802 303.602Z" fill="white"/>
<path d="M125.713 298.493L125.822 298.653C125.705 299.017 125.573 299.34 125.346 299.651C123.622 302.009 106.553 309.267 102.925 310.592C102.062 310.907 101.043 311.058 100.136 311.213C98.9704 311.413 97.6606 312.984 96.6647 313.721C89.533 311.56 82.1514 309.918 74.9532 307.709C74.597 307.54 74.5627 307.472 74.2812 307.195L74.5109 307.514L74.5729 307.091C76.3792 306.269 82.3994 308.902 84.6123 309.564C88.3529 310.679 92.0324 311.636 95.8136 312.598C97.8703 311.514 99.4984 310.446 101.738 309.365C109.587 305.573 117.929 302.336 125.713 298.493Z" fill="white"/>
<path d="M76.9889 303.061C79.0429 303.871 83.6271 305.132 85.8546 305.804C89.6379 306.941 94.7463 308.792 98.4918 309.503C98.0701 309.764 97.6465 310.021 97.2208 310.276C96.548 310.675 95.7147 311.238 94.9471 311.045C94.9515 310.216 95.6673 309.732 96.3156 309.083C95.1292 309.565 93.3689 310.726 92.1656 310.334C92.3095 309.691 92.4537 309.77 93.1143 309.23L92.9257 308.977L92.4479 308.924C91.1733 309.569 91.1855 309.593 89.7481 309.619L89.6334 309.44C90.24 308.836 90.838 308.222 91.4271 307.601C89.9143 308.182 89.4718 308.36 88.1615 309.268C85.2286 308.443 82.1722 307.376 79.2658 306.413C80.0416 305.736 80.3257 305.415 80.9881 304.622C79.3726 305.332 78.4909 306.481 76.8652 305.585L76.7708 305.19C77.0463 304.873 77.219 304.672 77.4738 304.338C75.8295 304.242 75.1159 305.403 73.668 304.622C73.9527 304.272 76.3909 303.318 76.9889 303.061Z" fill="white"/>
<path d="M108.359 289.625L108.611 289.784C108.624 290.195 108.616 290.245 108.505 290.619C109.504 290.918 110.017 289.621 110.913 290.3L110.463 290.938L110.622 291.179L111.193 291.225C111.694 290.908 111.784 290.828 112.353 290.619C113.257 290.772 112.917 290.565 113.49 291.113L113.503 291.741C114.064 291.822 114.131 291.629 114.761 291.277C115.466 291.259 119.873 292.225 120.395 292.532C119.992 292.954 120.096 292.785 119.844 293.301C121.124 293.649 121.333 292.599 123.647 293.193C124.396 294.066 123.324 293.229 123.612 294.335C124.449 294.44 124.558 294.137 125.386 293.524C125.999 293.575 125.753 293.45 126.154 293.904C125.92 294.299 125.763 294.494 125.48 294.856C126.387 294.892 128.182 293.94 128.964 294.709C128.537 295.251 127.46 295.821 126.826 296.205C123.638 294.633 110.655 291.739 106.422 290.727C107.04 290.342 107.72 289.982 108.359 289.625Z" fill="white"/>
<path d="M128.052 302.232C128.878 302.338 129.68 302.242 130.157 302.681L129.804 303.288C128.914 303.444 128.429 303.462 127.895 302.713L128.052 302.232Z" fill="white"/>
<path d="M191.505 333.992C194.041 334.09 197.747 334.648 200.337 334.974C205.001 335.56 209.659 336.182 214.313 336.835C215.582 337.026 216.671 337.072 217.401 338.072C217.474 338.771 217.253 338.993 216.889 339.606C217.369 340.168 217.62 340.349 217.717 341.08C217.279 343.634 202.381 360.65 199.535 362.797C197.611 364.25 189.992 362.52 187.515 362.086C185.223 361.682 169.543 359.434 168.58 357.809C168.203 357.171 168.389 356.253 168.463 355.552C168.491 355.167 168.509 354.836 168.636 354.468C169.037 353.302 187.34 336.921 189.775 334.996C190.312 334.572 190.876 334.263 191.505 333.992Z" fill="#0C0C0C"/>
<path d="M168.463 355.551C171.297 357.619 192.262 360.237 196.912 360.936C198.7 361.203 203.999 354.557 205.42 352.927C209.266 348.507 213.089 344.066 216.889 339.605C217.369 340.167 217.62 340.349 217.717 341.08C217.279 343.634 202.381 360.649 199.535 362.797C197.611 364.249 189.992 362.52 187.515 362.085C185.223 361.681 169.543 359.434 168.58 357.808C168.203 357.171 168.389 356.252 168.463 355.551Z" fill="#D9DBD5"/>
<path d="M191.577 335.309C199.561 336.161 207.919 337.41 215.925 338.434C210.367 344.895 203.213 353.744 197.384 359.645L194.481 359.328C186.129 357.914 178.232 356.41 169.93 354.896C172.611 352.168 177.198 348.28 180.142 345.606C183.287 342.749 188.334 337.755 191.577 335.309Z" fill="white"/>
<path d="M186.068 342.439C187.943 342.297 204.949 345.11 206.945 345.736C205.491 348.28 199.777 354.292 197.539 356.731C197.105 357.205 196.709 357.067 196.199 357.006C192.845 356.376 176.733 354.183 175.305 352.814C175.689 351.493 184.424 343.849 186.068 342.439Z" fill="#0C0C0C"/>
<path d="M186.56 343.025C188.234 343.254 189.627 343.507 191.286 343.844C190.001 344.029 187.753 344.163 187.006 345.163C187.052 345.735 187.113 345.775 186.879 346.281C185.251 346.681 181.174 349.564 180.742 351.195L180.958 351.488C182.503 351.747 186.491 350.377 188.008 349.827C190.05 351.134 191.488 351.239 193.816 351.43C193.837 352.235 193.951 354.797 194.508 355.106C196.325 356.112 198.421 350.532 198.891 349.703C199.435 349.45 199.612 349.365 200.134 349.03C200.682 347.53 199.417 346.05 198.571 344.916L202.455 345.522C203.632 345.689 204.704 345.93 205.863 346.181C202.907 349.594 199.921 352.98 196.901 356.337C190.225 355.287 182.652 354.088 176.074 352.703C179.262 349.542 183.12 345.872 186.56 343.025Z" fill="#F2F2F2"/>
<path d="M191.9 343.891C192.571 343.917 197.103 344.773 198.005 344.933C198.385 345.933 198.998 347.078 199.466 348.076L199.322 348.443C197.095 349.507 197.859 350.451 196.539 352.571C196.2 353.114 195.384 353.919 194.916 354.383C194.725 353.045 194.667 351.78 194.587 350.433C193.736 350.529 193.18 350.547 192.321 350.56C190.528 350.349 189.486 349.997 188.111 348.847C185.694 349.949 184.097 350.266 181.527 350.849C182.758 349.861 184.082 348.748 185.385 347.849C186.109 347.351 187.602 347.186 188.147 346.546C187.835 344.249 190.003 345.359 191.9 343.891Z" fill="#F2F2F2"/>
<path d="M194.091 345C194.81 345.263 196.076 346.076 195.987 346.956C195.3 346.899 195.171 346.741 194.613 346.341L194.431 346.207L194.155 346.291C193.957 346.833 193.812 347.132 193.257 347.283C193.146 346.755 193.103 346.58 192.92 346.072L191.915 345.867L191.875 345.729C192.884 345.181 193.183 345.568 194.091 345Z" fill="#0C0C0C"/>
<path d="M192.003 336.482C194.693 336.52 199.699 337.568 202.564 337.877C205.278 338.17 208.577 338.807 211.318 339.19C211.868 339.267 211.898 339.397 212.248 339.74C212.503 341.262 210.069 343.491 208.87 344.244L208.818 344.075C209.896 342.754 210.945 341.409 211.965 340.044C211.204 339.562 194.868 337.337 192.217 336.903C190.778 338.194 189.462 339.447 187.849 340.515L187.793 340.381C189.369 338.58 190.086 337.917 192.003 336.482Z" fill="#0C0C0C"/>
<path d="M191.09 340.925C191.265 340.906 191.593 340.858 191.738 340.89C194.115 341.402 205.221 342.547 206.452 343.816C204.207 343.936 195.221 341.916 192.349 341.611C191.62 341.533 191.391 341.42 191.09 340.925Z" fill="#0C0C0C"/>
<path d="M198 340.318C198.07 340.314 198.364 340.288 198.466 340.308C200.26 340.689 206.583 341.089 207.655 342.209C206.157 342.318 198.898 341.262 198 340.318Z" fill="#0C0C0C"/>
<path d="M192.34 357.475C193.629 357.574 194.96 357.602 196.027 358.343C194.985 358.522 193.031 358.341 192.34 357.475Z" fill="#0C0C0C"/>
<path d="M173.688 354.061C174.767 354.108 175.646 354.061 176.388 354.794C175.261 354.806 174.417 354.961 173.688 354.061Z" fill="#0C0C0C"/>
<path d="M88.1281 339.433C88.1439 338.798 88.1612 338.82 88.3851 338.216C89.8542 336.706 113.151 324.396 117.583 322.717C118.546 322.35 139.332 326.787 141.43 327.813C141.855 328.022 141.857 328.616 141.916 329.128C141.967 329.596 142.295 330.968 141.943 331.223C133.238 337.545 123.867 345.388 114.083 349.824C112.095 350.725 92.8 343.864 90.0504 342.949C88.1353 342.312 86.5953 341.581 88.1281 339.433Z" fill="#0C0C0C"/>
<path d="M113.867 347.353C117.654 346.2 125.868 339.865 129.724 337.564C132.068 336.165 140.34 330.844 141.916 329.127C141.967 329.595 142.295 330.968 141.943 331.223C133.238 337.544 123.867 345.387 114.083 349.824C112.095 350.724 92.8 343.863 90.0504 342.949C88.1353 342.311 86.5953 341.58 88.1281 339.433C90.1938 341.002 109.964 346.355 113.867 347.353Z" fill="#D9DBD5"/>
<path d="M117.467 324.117C119.508 323.942 137.065 328.014 140.349 328.719L122.638 340.485C120.096 342.164 117.24 344.138 114.573 345.65C114.2 345.862 113.57 345.816 113.14 345.774C110.265 345.107 107.201 344.075 104.339 343.254C99.4677 341.857 94.5516 340.445 89.75 338.833C98.378 334.185 108.717 328.34 117.467 324.117Z" fill="white"/>
<path d="M110.156 329.297C111.097 329.341 114.653 330.16 115.553 330.476C117.724 331.243 127.763 332.943 128.345 334.403C127.409 335.7 115.982 343.19 114.592 343.214C112.29 342.788 96.3241 338.738 95.832 337.156C96.7488 335.961 108.111 330.209 110.156 329.297Z" fill="#0C0C0C"/>
<path d="M110.125 330.074C111.186 330.044 114.364 330.845 115.407 331.259C112.356 331.311 111.136 331.132 109.046 333.544C107.438 333.519 105.319 333.447 104.684 335.323C105.526 337.567 110.269 335.236 111.711 336.011C112.095 336.867 111.31 338.537 111.738 339.459C112.727 341.593 116.255 341.665 117.275 339.459C117.202 338.629 117.081 338.74 116.468 337.945C119.276 335.535 120.445 334.604 117.36 331.841C119.868 332.339 122.7 333.11 125.211 333.74L127.511 334.335C123.065 337.116 119.43 339.726 114.737 342.523C108.604 340.931 102.511 339.19 96.4609 337.306C101.03 334.923 105.585 332.512 110.125 330.074Z" fill="#F2F2F2"/>
<path d="M113.91 331.968C115.875 331.809 117.318 332.208 118.306 334.038C118.407 335.955 116.564 335.961 116.037 337.246C115.728 337.999 116.636 340.059 114.891 340.595C112.868 340.274 112.27 339.172 112.538 337.296C112.864 336.927 112.963 336.772 113.233 336.355L113.114 335.847C112.542 335.319 112.21 334.951 111.694 334.363L109.721 335.513C108.68 335.467 106.866 335.533 106.09 334.919L106.325 334.648C107.383 334.178 108.152 334.212 109.294 334.154C111.205 332.435 111.444 332.339 113.91 331.968Z" fill="#F2F2F2"/>
<path d="M117.637 324.901C119.808 324.774 132.2 328.009 135.115 328.706C135.781 328.868 136.099 329.005 136.365 329.557C136.106 330.669 132.422 332.969 131.454 333.045L131.437 332.84C132.794 331.766 134.495 330.643 135.932 329.581C131.689 328.099 123.554 326.8 118.921 325.672C118.667 325.61 116.994 325.734 116.515 325.746L116.469 325.569L117.637 324.901Z" fill="#0C0C0C"/>
<path d="M115.387 328.165C116.964 328.017 128.429 330.918 129.205 332.065C127.436 331.87 116.305 329.063 115.387 328.165Z" fill="#0C0C0C"/>
<path d="M123.285 328.542C124.45 328.57 130.367 329.996 130.971 330.935C129.623 330.961 124.03 329.67 123.285 328.542Z" fill="#0C0C0C"/>
<path d="M110.129 343.277C111.301 343.311 112.671 343.658 113.584 344.423C112.476 344.473 110.997 344.002 110.129 343.277Z" fill="#0C0C0C"/>
<path d="M93.8828 338.285C94.8703 338.484 95.8314 338.656 96.4641 339.476C95.5427 339.395 94.7016 339.345 93.9497 338.785L93.8828 338.285Z" fill="#0C0C0C"/>
<path d="M238.344 305.409C238.927 305.377 239.513 305.373 240.097 305.395C246.193 305.679 252.61 306.791 258.722 307.241C259.714 307.313 261.31 307.379 261.985 308.104C262.23 308.765 262.128 308.855 261.945 309.54C262.72 310.59 263.073 311.435 262.083 312.557C258.387 316.746 250.353 330.106 246.35 332.644C242.808 332.815 221.739 330.604 219.641 328.631C219.187 328.207 219.043 327.713 218.774 327.177C218.756 327.139 218.725 327.113 218.699 327.082C218.195 326.751 218.276 326.781 217.846 326.329C217.77 326 217.671 325.795 217.754 325.46C218.185 323.729 236.128 306.807 238.344 305.409Z" fill="#0C0C0C"/>
<path d="M261.946 309.54C262.721 310.59 263.073 311.435 262.083 312.556C258.388 316.746 250.353 330.105 246.351 332.643C242.809 332.815 221.739 330.603 219.642 328.631C219.187 328.207 219.044 327.713 218.775 327.177C218.757 327.139 218.725 327.113 218.699 327.081C220.709 327.187 225.118 327.964 227.355 328.279C233.21 329.129 239.083 329.856 244.968 330.458C246.61 329.464 248.542 326.886 249.775 325.342C252.451 321.993 255.071 318.601 257.635 315.164C258.688 313.761 260.828 310.729 261.946 309.54Z" fill="#F2F2F2"/>
<path d="M238.827 306.759C240.216 306.685 244.815 307.233 246.32 307.39C251.047 307.9 255.774 308.38 260.506 308.831C258.834 311.412 255.43 315.65 253.517 318.146C251.312 321.021 247.234 326.631 244.69 328.962C243.694 328.904 242.608 328.78 241.608 328.685C234.159 327.561 226.689 327.023 219.164 325.643C221.567 322.969 225.963 318.995 228.673 316.321C231.225 313.803 236.209 308.735 238.827 306.759Z" fill="white"/>
<path d="M234.233 313.168C240.508 313.885 246.78 314.66 253.041 315.491C251.959 317.824 246.567 324.561 244.441 326.587C244.106 326.906 243.116 326.713 242.602 326.645C240.026 326.352 225.427 324.749 223.834 323.978L223.75 323.649C225.121 321.342 231.984 314.895 234.233 313.168Z" fill="#0C0C0C"/>
<path d="M234.309 313.935C235.871 314.186 237.441 314.363 239.011 314.55C237.234 314.783 235.212 314.865 233.953 316.246C233.694 317.638 235.148 317.853 236.212 318.072C234.869 320.186 232.576 324.332 237.806 323.742C240.021 323.491 241.812 321.561 242.981 319.71C246.776 321.746 247.968 318.29 245.416 315.371C247.599 315.66 249.838 315.827 252.036 316.02L250.392 318.218C248.31 320.861 246.201 323.485 244.063 326.087C237.539 325.294 231.02 324.443 224.512 323.533C227.398 320.622 231.291 316.556 234.309 313.935Z" fill="#F2F2F2"/>
<path d="M238.982 315.201C241.343 314.83 247.381 315.533 245.333 319.109C244.134 319.765 243.785 319.153 243.168 318.123L243.04 317.908C242.175 319.292 241.558 320.366 240.466 321.576C239.251 322.406 236.739 323.671 235.346 322.639C234.788 320.56 238.175 318.629 236.575 317.219C235.884 317.125 235.288 317.199 235.023 316.525C235.541 315.728 238.02 315.404 238.982 315.201Z" fill="#F2F2F2"/>
<path d="M238.284 319.283L238.581 319.447C238.854 319.885 238.794 319.837 239.146 320.2L239.628 319.604L239.931 319.608L240.168 320.249L239.529 320.911C238.762 320.943 239.099 321.038 238.471 320.652C238.087 319.801 238.158 320.239 238.284 319.283Z" fill="#0C0C0C"/>
<path d="M238.68 311.437C242.226 311.498 248.609 312.453 252.254 313.106C252.685 313.182 252.685 313.407 252.81 313.724C251.215 313.68 239.855 312.371 238.811 311.889L238.68 311.437Z" fill="#0C0C0C"/>
<path d="M243.113 310.255C244.538 310.046 253.293 311.044 254.182 311.9C254.084 311.91 253.987 311.918 253.889 311.928C251.831 311.823 244.334 311.317 243.113 310.255Z" fill="#0C0C0C"/>
<path d="M161.255 326.531C164.114 326.473 169.758 327.748 172.724 328.159C175.019 328.474 185.373 329.888 186.717 331.177C186.636 331.89 185.69 333.143 185.182 333.651C179.493 339.305 173.585 344.754 167.673 350.174C165.577 352.095 164.712 353.635 161.76 352.973C158.732 352.406 137.971 348.166 136.259 346.891C136.071 346.433 135.915 346.071 136.121 345.575C136.773 344.005 156.377 329.43 159.421 327.46C159.998 327.087 160.625 326.8 161.255 326.531Z" fill="#0C0C0C"/>
<path d="M161.026 327.909C162.869 327.851 166.874 328.664 168.84 328.955C174.243 329.75 179.879 330.959 185.286 331.575L171.485 344.707C169.112 346.935 166.576 349.427 164.017 351.423C163.269 352.007 162.781 351.768 161.776 351.584C153.663 349.807 145.471 348.144 137.422 346.092C140.753 343.225 145.226 339.948 148.765 337.27L161.026 327.909Z" fill="white"/>
<path d="M155.06 334.451C156.827 334.323 173.018 337.636 175.111 338.35C172.903 341.69 167.248 345.794 164.277 348.697C163.909 349.056 163.572 349.028 163.108 349.06C159.241 348.281 155.38 347.474 151.525 346.639C148.673 346.029 145.224 345.384 142.523 344.37C144.031 342.436 152.718 336.019 155.06 334.451Z" fill="#0C0C0C"/>
<path d="M155.488 335.064C161.678 336.3 167.953 337.423 174.121 338.716C171.471 341.198 166.615 345.954 163.511 348.289C163.313 348.283 163.115 348.279 162.916 348.273C156.502 346.848 150.036 345.633 143.648 344.095C146.958 341.408 152.02 337.527 155.488 335.064Z" fill="#F2F2F2"/>
<path d="M158.258 336.502C160.199 336.544 160.527 336.727 161.652 338.317C163.385 338.221 168.363 338.169 168.356 340.66C167.39 341.982 165.212 341.777 163.743 341.757C164.286 343.532 164.123 343.752 162.712 344.927C159.829 345.732 157.193 345.622 154.324 344.528C151.488 343.447 151.993 340.554 154.557 339.793C155.433 339.534 155.729 339.58 156.292 338.829C156.335 338.159 156.316 337.976 156.568 337.337C157.184 336.765 157.422 336.759 158.258 336.502Z" fill="#0C0C0C"/>
<path d="M158.36 337.289C160.275 337.323 160.249 337.697 161.375 339.166C162.662 339.058 167.248 338.554 167.331 340.375C166.281 341.937 163.304 340.006 162.606 341.471C163.13 342.943 163.36 342.901 162.513 344.092C160.13 345.071 157.121 344.82 154.732 343.913C152.5 343.066 153.369 340.347 155.475 340.381C155.937 340.389 156.445 340.239 156.868 340.056C157.449 339.295 157.287 339.227 157.136 338.225C157.564 337.546 157.53 337.721 158.36 337.289Z" fill="#F2F2F2"/>
<path d="M161.35 328.903C163.483 328.65 179.252 331.887 182.122 332.554C180.702 334.2 178.929 336.138 177.097 337.282C178.146 335.941 179.337 334.822 180.546 333.63C180.884 333.294 180.788 333.429 180.983 333.007C180.321 332.477 163.992 329.69 161.808 329.295C159.838 330.708 157.949 332.361 155.852 333.558C157.601 331.632 159.223 330.383 161.35 328.903Z" fill="#0C0C0C"/>
<path d="M160.445 332.94C161.197 333.02 163.61 333.427 164.288 333.634C166.271 334.239 174.168 335.096 175.023 336.487C171.57 336.1 164.445 334.379 160.825 333.492C160.503 333.413 160.553 333.293 160.445 332.94Z" fill="#0C0C0C"/>
<path d="M167.277 332.75C168.716 332.79 175.122 334.021 176.332 334.623L176.379 335.017C174.322 334.886 170.219 333.818 168.074 333.38C167.429 333.248 167.495 333.168 167.277 332.75Z" fill="#0C0C0C"/>
<path d="M158.57 349.276C159.595 349.143 161.928 349.521 162.582 350.39C161.366 350.388 159.491 350.103 158.57 349.276Z" fill="#0C0C0C"/>
<path d="M141.059 345.481C142.179 345.433 143.134 345.459 143.9 346.322C142.643 346.286 142.081 346.184 141.059 345.481Z" fill="#0C0C0C"/>
<path d="M140.054 311.235L139.738 310.544C139.773 310.148 139.837 309.542 140.293 309.281C148.545 304.574 157.04 300.342 165.561 296.053C169.958 294.35 176.141 296.814 180.767 297.183C182.527 297.324 189.784 298.483 190.678 299.414C190.928 300.077 190.875 300.081 190.697 300.747C190.827 301.671 191.074 302.516 190.441 303.308C189.058 305.04 171.422 316.351 168.484 317.887C167.439 318.433 166.461 318.901 165.264 318.933C162.348 319.011 142.327 314.873 140.706 313.345C140.045 312.722 140.068 312.084 140.054 311.235Z" fill="#0C0C0C"/>
<path d="M140.055 311.236L140.212 311.29L140.475 311.377C147.415 313.696 156.191 314.898 163.38 316.609C166.01 317.234 167.905 315.657 170.003 314.378C171.667 313.362 173.405 312.168 175.067 311.128C180.211 307.664 185.738 304.468 190.698 300.747C190.828 301.671 191.075 302.516 190.442 303.309C189.059 305.04 171.423 316.352 168.485 317.888C167.44 318.434 166.462 318.902 165.265 318.934C162.349 319.011 142.328 314.874 140.707 313.346C140.046 312.722 140.069 312.085 140.055 311.236Z" fill="#D9DBD5"/>
<path d="M167.712 296.639C168.692 296.615 172.878 297.327 174.103 297.522C179.17 298.325 184.23 299.171 189.283 300.062L172.888 310.67C170.578 312.162 168.184 313.933 165.74 315.155C165.154 315.447 164.492 315.366 163.848 315.3C157.375 314.069 147.783 311.945 141.426 310.226L158.438 301.341C161.293 299.853 164.818 297.866 167.712 296.639Z" fill="white"/>
<path d="M160.163 301.418C161.69 301.37 176.762 304.266 177.682 304.974C176.883 306.557 167.198 312.235 165.201 313.05C160.498 312.305 152.551 310.554 147.722 309.131C147.43 309.046 147.479 308.998 147.387 308.611C148.644 306.846 157.747 302.603 160.163 301.418Z" fill="#0C0C0C"/>
<path d="M160.338 302.187C161.801 302.121 174.766 304.777 176.973 305.233C174.661 306.864 167.769 311.17 165.242 312.429C159.388 311.269 153.784 309.821 147.988 308.606C152.146 306.428 156.12 304.281 160.338 302.187Z" fill="#F2F2F2"/>
<path d="M163.731 303.877C165.234 303.694 167.178 303.714 168.586 304.313C169.877 304.865 170.231 306.232 169.365 307.357C167.874 309.292 165.173 309.766 162.907 310.123C161.335 310.298 159.421 310.326 157.941 309.674C156.676 309.117 156.369 307.75 157.194 306.642C158.693 304.626 161.414 304.226 163.731 303.877Z" fill="#0C0C0C"/>
<path d="M164.106 304.671C165.304 304.528 168.063 304.51 168.749 305.639C168.859 308.114 164.809 308.962 162.927 309.357C161.331 309.54 158.507 309.859 157.773 308.098C158.008 305.572 162.105 304.966 164.106 304.671Z" fill="#F2F2F2"/>
<path d="M167.457 297.422C169.456 297.259 182.095 299.681 184.945 300.293C185.403 300.392 185.585 300.765 185.749 301.137C185.137 302.307 175.837 308 174.111 309.204C171.937 310.72 167.056 313.652 164.618 314.547C165.807 313.431 167.985 312.234 169.44 311.355C174.828 308.068 180.105 304.604 185.263 300.964C180.103 299.807 173.21 298.842 167.86 297.95C165.848 298.868 162.827 300.58 160.855 301.084C163.176 299.4 164.887 298.611 167.457 297.422Z" fill="#0C0C0C"/>
<path d="M166.605 300.47C168.095 300.384 177.467 302.308 178.805 303.161C178.42 303.201 178.032 303.199 177.647 303.157C175.732 302.948 169.312 301.577 166.989 300.922C166.861 300.77 166.733 300.621 166.605 300.47Z" fill="#0C0C0C"/>
<path d="M173.469 300.457C174.597 300.318 179.624 301.242 180.308 302.167C179.012 302.268 174.591 301.236 173.469 300.457Z" fill="#0C0C0C"/>
<path d="M160.961 313.616C162.225 313.494 163.359 313.682 164.461 314.323C163.077 314.421 162.172 314.311 160.961 313.616Z" fill="#0C0C0C"/>
<path d="M144.906 309.625C145.912 309.701 146.662 309.629 147.214 310.535C146.304 310.46 145.181 310.585 144.906 309.625Z" fill="#0C0C0C"/>
<path d="M201.529 300.884C207.519 301.234 213.95 302.631 219.948 303.276C221.514 303.444 224.594 303.876 225.65 305.004L225.636 305.388C224.002 308.245 209.278 321.246 206.039 324.246C204.423 325.742 203.716 325.489 201.762 325.298C198.246 324.7 178.323 321.403 177.212 320.166C177.079 319.638 177.067 319.32 177.3 318.81C177.942 317.407 197.108 303.26 199.901 301.565C200.429 301.244 200.929 301.031 201.529 300.884Z" fill="#0C0C0C"/>
<path d="M201.23 302.386C202.686 302.256 206.804 302.918 208.455 303.129C213.675 303.796 218.894 304.655 224.12 305.308C223.343 306.109 222.434 306.942 221.61 307.701C215.707 313.14 209.973 318.803 203.987 324.146L202.27 323.864C201.09 323.712 199.835 323.491 198.665 323.268C191.977 321.989 185.094 320.957 178.473 319.403C179.491 318.54 180.657 317.664 181.741 316.877C188.248 312.157 194.6 306.912 201.23 302.386Z" fill="white"/>
<path d="M195.927 308.147C198.414 308.566 213.266 310.64 214.071 311.729C213.962 312.447 213.543 312.737 213.027 313.271L213.424 313.624C214.888 312.353 216.508 310.871 218.086 309.781L218.233 309.803C216.014 312.399 206.15 321.579 203.467 323.001C203.447 323.011 203.425 323.023 203.405 323.035C200.704 323.081 183.21 320.314 181.85 318.907C181.629 318.678 181.709 318.491 181.71 318.196C182.143 317.407 182.924 316.551 183.759 316.216C183.75 316.63 183.809 316.431 183.549 316.804L183.701 317.451C185.533 315.393 193.387 309.586 195.927 308.147Z" fill="#0C0C0C"/>
<path d="M213.424 313.624C214.888 312.353 216.508 310.871 218.086 309.781L218.233 309.803C216.014 312.399 206.15 321.579 203.467 323.001C203.447 323.011 203.425 323.023 203.405 323.035C200.704 323.081 183.21 320.314 181.85 318.907C181.629 318.678 181.709 318.491 181.71 318.196C182.143 317.407 182.924 316.551 183.759 316.216C183.75 316.63 183.809 316.431 183.549 316.804L183.701 317.451L183.994 317.905C185.484 318.732 201.092 321.396 203.517 321.575C205.009 320.659 207.794 318.005 209.168 316.746C210.463 315.517 211.677 314.439 213.027 313.272L213.424 313.624Z" fill="#0C0C0C"/>
<path d="M209.167 316.746L209.234 317.441C207.569 318.977 205.137 321.332 203.308 322.456C200.937 322.436 183.022 319.547 182.484 318.37C182.691 317.651 183.047 317.36 183.548 316.804L183.7 317.451L183.993 317.906C185.483 318.732 201.09 321.396 203.515 321.575C205.007 320.659 207.792 318.005 209.167 316.746Z" fill="white"/>
<path d="M213.027 313.271L213.423 313.624L209.236 317.441L209.168 316.746C210.463 315.517 211.676 314.439 213.027 313.271Z" fill="#F2F2F2"/>
<path d="M195.861 308.998C201.247 309.701 208.172 310.861 213.491 311.95C210.855 314.568 206.718 318.039 203.849 320.603C203.57 320.852 203.098 320.877 202.731 320.883C196.953 319.59 190.71 318.72 184.684 317.397C188.381 314.56 192.107 311.759 195.861 308.998Z" fill="#F2F2F2"/>
<path d="M199.714 309.974C200.79 310.504 200.208 312.605 202.705 312.241C204.131 312.032 205.181 311.625 206.526 311.165C206.378 312.569 206.219 313.97 206.077 315.376C205.968 316.452 205.924 317.363 204.693 317.416C203.842 317.084 203.268 316.347 202.611 315.669C201.836 316.46 200.075 318.417 199.21 318.877L198.667 318.689C198.585 317.771 198.654 316.458 198.676 315.506C197.472 315.92 194.86 317.008 193.774 316.616L193.691 316.235C194.074 315.357 194.68 314.93 195.396 314.275C194.307 314.251 192.933 314.358 192.052 313.779L192.043 313.41C192.96 312.428 198.117 310.651 199.714 309.974Z" fill="#0C0C0C"/>
<path d="M199.045 311.184L199.414 311.209C200.89 313.783 203.113 313.046 205.528 312.399C205.239 313.779 205.077 315.276 204.898 316.684L202.555 314.528C201.671 315.337 200.585 316.523 199.728 317.407C199.276 316.975 199.414 315.323 199.41 314.664C197.502 315.019 196.484 315.339 194.633 315.959C195.63 315.09 196.292 314.417 197.207 313.461C196.036 313.357 194.585 313.383 193.387 313.375C195.19 312.606 197.201 311.885 199.045 311.184Z" fill="#F2F2F2"/>
<path d="M200.574 306.845C203.819 306.734 210.483 308.746 213.926 309.202C214.163 309.234 214.464 309.553 214.621 309.734C214.583 309.738 214.189 309.796 214.01 309.766C209.744 309.063 205.218 308.411 201.048 307.333C200.891 307.17 200.732 307.007 200.574 306.845Z" fill="#0C0C0C"/>
<path d="M205.551 305.86C205.782 305.842 206.485 305.8 206.684 305.856C208.513 306.37 214.976 306.894 216.038 308.179C214.097 308.221 208.692 306.912 206.555 306.488C205.79 306.336 205.82 306.328 205.551 305.86Z" fill="#0C0C0C"/>
<path d="M140.914 88.7286C145.989 88.7069 144.134 95.8568 144.892 99.0999C145.329 100.971 145.218 104.129 142.758 104.536C139.939 105.003 136.984 105.08 134.116 105.269C128.535 105.669 122.953 106.034 117.368 106.364C114.689 106.268 113.903 104.995 113.59 102.323C113.44 100.225 113.376 98.0996 113.253 96.0036C113.103 93.4761 112.675 90.9279 115.932 90.5102C118.793 90.143 121.606 90.0193 124.455 89.8251L140.914 88.7286Z" fill="#0C0C0C"/>
<path d="M140.379 89.7328C142.24 89.535 143.217 90.3998 143.281 92.2224C143.383 95.1414 144.651 100.551 143.301 103.034C142.909 103.399 142.456 103.599 141.928 103.661C134.146 104.583 126.094 104.551 118.313 105.376C116.122 105.523 114.895 105.114 114.656 102.514C114.387 99.5738 114.385 96.5419 114.178 93.5942C114.127 92.8653 114.938 91.6425 115.7 91.5265C118.549 91.0779 121.519 90.9934 124.404 90.8126L140.379 89.7328Z" fill="#B5FE28"/>
<path d="M137.401 93.3167C138.122 93.2442 139.001 93.0176 139.406 93.7071L139.19 94.1323C138.32 94.6072 137.456 94.3658 136.249 94.6437C135.835 95.0594 135.883 95.0981 135.729 95.6822C136.266 96.8373 137.738 95.9332 138.943 96.6042L139.041 97.0929C138.092 97.8794 136.94 96.8612 136.161 98.239C136.252 98.985 136.132 99.0293 136.53 99.5355C137.463 99.4444 139.183 99.1197 139.826 99.8598C138.87 100.89 136.534 100.727 135.198 100.725C134.892 98.375 134.745 96.0071 134.759 93.6372C135.538 93.4892 136.592 93.4051 137.401 93.3167Z" fill="#0C0C0C"/>
<path d="M132.271 93.499C132.523 93.5666 133.467 93.8166 133.327 94.2234C132.818 95.7046 132.177 101 130.218 100.809C129.287 100.06 128.358 97.5043 127.825 96.2775C127.451 95.4625 127.15 94.9709 127.281 94.1676L127.635 94.0471C128.632 94.6555 129.928 98.2185 130.534 99.5204C131.095 97.5081 131.675 95.501 132.271 93.499Z" fill="#0C0C0C"/>
<path d="M118.44 94.5049C118.828 94.5792 118.888 94.6067 119.261 94.733C119.885 95.7663 119.88 99.2258 119.982 100.673C120.971 100.517 121.969 100.253 122.907 100.498C123.384 100.979 123.228 100.686 123.274 101.464C121.684 101.668 120.502 101.754 118.897 101.825C118.568 99.3991 118.416 96.9527 118.44 94.5049Z" fill="#0C0C0C"/>
<path d="M124.598 94.0742L125.286 94.3085C125.919 95.3331 126.123 100.207 125.981 101.514C125.488 101.456 125.511 101.478 125.09 101.225C124.42 99.8787 124.39 95.621 124.598 94.0742Z" fill="#0C0C0C"/>
<path d="M97.7309 147.502C99.1545 147.526 100.961 148.143 101.246 149.405C101.532 150.674 102.934 162.893 102.764 163.213C101.606 163.399 99.124 161.861 97.9807 161.243C94.1862 161.358 90.1546 161.804 86.3077 161.994C84.7371 162.147 81.7892 162.699 80.4549 161.745C79.388 160.982 79.0147 159.223 78.8384 158.01C78.5177 155.805 77.8509 151.614 79.3753 149.759C80.7507 148.086 94.9576 147.692 97.7309 147.502Z" fill="#0C0C0C"/>
<path d="M97.7703 148.302C100.97 148.354 100.877 151.612 101.095 154.077C101.353 156.991 101.432 159.558 102.188 162.406C100.974 161.931 99.0957 160.948 97.8729 160.355C93.9616 160.844 89.738 160.921 85.7428 161.324C84.4649 161.425 82.3249 161.861 81.1999 161.248C80.2372 160.723 79.8673 159.082 79.7017 158.108C79.4013 156.34 78.7479 151.686 80.1239 150.266C81.3192 149.033 95.2464 148.446 97.7703 148.302Z" fill="#F2F2F2"/>
<path d="M181.106 111.853C183.381 111.835 183.518 111.64 185.429 112.92C187.458 114.04 187.14 122.979 185.508 123.696C182.801 124.884 174.929 124.777 171.911 124.753C170.976 125.433 169.788 126.46 168.869 127.212C168.131 127.748 167.653 128.166 166.761 128.093L166.496 127.713C166.372 126.655 166.735 125.706 167.02 124.656C166.66 124.449 166.292 124.241 165.958 123.993C165.092 123.349 164.747 122.214 164.656 121.184C164.479 119.191 163.963 114.965 165.464 113.497C167.253 111.747 178.289 111.957 181.106 111.853Z" fill="#0C0C0C"/>
<path d="M178.423 112.649C180.139 112.567 184.95 112.012 185.489 114.195C189.132 128.962 177.696 121.887 171.004 124.466L167.398 127.116L167.824 124.253C166.308 123.355 165.562 122.741 165.41 120.93C165.134 117.571 164.466 113.296 169.156 113.05C172.239 112.888 175.343 112.785 178.423 112.649Z" fill="#F2F2F2"/>
<path d="M174.266 116.432C175.648 116.375 181.107 116.104 182.189 116.409L182.146 116.66C181.506 117.06 178.113 117.041 177.148 117.087C175.607 117.123 170.423 117.542 169.356 117.209L169.25 116.916C169.988 116.45 173.183 116.468 174.266 116.432Z" fill="#0C0C0C"/>
<path d="M175.54 119.617C176.273 119.556 177.032 119.437 177.615 119.855L177.604 120.041C176.677 120.494 173.3 120.481 172.085 120.512C171.536 120.536 169.984 120.636 169.574 120.289C170.408 119.718 174.327 119.663 175.54 119.617Z" fill="#0C0C0C"/>
<path d="M170.336 165.186C176.93 165.227 171.735 174.574 168.234 175.468C167.543 175.645 166.165 174.313 165.648 173.879C160.319 169.002 161.973 162.352 167.929 166.911C168.774 165.903 169.123 165.685 170.336 165.186Z" fill="#0C0C0C"/>
<path d="M170.581 166.085C175.785 167.289 169.833 173.108 168.102 174.754C167.221 174.032 166.452 173.257 165.636 172.464C164.322 170.969 162.658 168.768 164 166.769C165.768 165.752 166.954 167.464 167.916 168.73C168.862 167.455 169.213 166.892 170.581 166.085Z" fill="#FFA0E4"/>
<path d="M99.289 114.953C103.857 114.907 103.188 118.897 101.405 121.76C100.447 123.298 99.3083 124.518 97.9463 125.705C96.9277 125.26 96.4179 124.889 95.4997 124.283C93.5973 122.838 92.4445 121.485 91.6735 119.373C90.4975 116.151 94.0659 114.733 96.2057 116.634C96.5346 116.926 96.9665 116.75 97.3357 116.626C98.1017 115.657 98.2077 115.538 99.289 114.953Z" fill="#0C0C0C"/>
<path d="M99.6358 115.882C104.863 116.447 99.2938 123.068 97.7373 124.713C96.5772 123.952 95.9696 123.415 94.9261 122.505C90.5614 118.326 93.1566 114.212 97.1163 118.748C97.9512 117.385 98.2728 116.738 99.6358 115.882Z" fill="#FFA0E4"/>
<path d="M155.7 73.9238C158.102 73.6825 158.359 74.0792 159.913 75.7944C162.837 72.4492 168.081 76.0216 162.368 81.8009C161.31 82.7147 160.337 83.7303 158.98 84.0274C156.469 83.5072 154.504 78.7558 154.473 76.4068C154.458 75.2813 154.911 74.6537 155.7 73.9238Z" fill="#0C0C0C"/>
<path d="M156.54 74.459C158.581 74.9174 158.713 75.5672 159.544 77.3447C163.81 73.2075 165.781 76.9309 162.26 80.6882C161.029 81.7667 160.301 82.4036 158.95 83.2989C156.994 81.2091 153.235 76.9008 156.54 74.459Z" fill="#FFA0E4"/>
<path d="M101.809 182.432C106.728 182.23 103.911 189.233 101.618 189.981C100.767 189.941 100.472 189.692 99.6955 189.273C98.3503 188.45 95.8479 186.155 96.6221 184.408C97.3528 182.759 99.2125 183.642 100.278 184.047C100.778 183.499 101.289 182.961 101.809 182.432Z" fill="#0C0C0C"/>
<path d="M102.266 183.18C105.59 183.735 102.459 188.026 101.44 189.354L99.2332 188.006C98.1945 187.083 97.3048 186.302 97.709 184.809C98.7846 183.734 99.7251 184.731 100.658 185.461C101.208 184.413 101.368 184 102.266 183.18Z" fill="#FFA0E4"/>
<path d="M167.702 93.1759C169.475 93.1446 168.981 93.3447 170.305 94.1591C171.379 94.8193 172.375 92.8175 174.123 93.8929C175.389 95.8297 174.305 97.1501 173.013 98.6006C171.779 99.6005 171.327 99.8661 169.924 100.633C167.935 98.7218 165.242 95.7885 167.702 93.1759Z" fill="#0C0C0C"/>
<path d="M168.101 93.9463C169.735 94.1073 169.402 94.483 170.19 95.4753C170.943 96.4246 172.542 93.1958 173.75 94.7637C173.933 96.1174 173.655 96.4021 172.909 97.5673C171.911 98.5219 171.283 98.9132 170.135 99.6774C168.549 98.2355 166.739 96.0849 168.101 93.9463Z" fill="#FFA0E4"/>
<path d="M103.733 98.6592L104.033 98.6881L104.246 98.9759C103.64 99.7059 100.166 100.628 98.9342 101.426C94.2731 104.446 92.1518 107.46 90.7641 112.676C90.4583 112.714 90.6378 112.723 90.2383 112.556C89.7152 110.933 91.707 107.021 92.7585 105.66C95.5603 102.035 99.1404 99.3706 103.733 98.6592Z" fill="#0C0C0C"/>
<path d="M86.5652 122.629L86.9202 123.046C86.4883 125.167 84.8537 126.714 84.4596 130.521C84.1411 133.599 85.4912 137.334 85.2589 138.574C81.8829 135.587 83.6618 125.855 86.5652 122.629Z" fill="#0C0C0C"/>
<path d="M172.395 144.807C173.567 144.797 175.893 145.742 176.965 146.333C177.775 146.779 177.657 146.824 177.835 147.553C176.649 147.742 173.896 146.764 172.89 146.089C172.351 145.728 172.447 145.406 172.395 144.807Z" fill="#0C0C0C"/>
<path d="M176.777 153.236C177.463 153.086 177.652 153.042 178.109 153.512L178.098 153.881C177.418 154.698 175.439 154.984 174.362 155.223C173.423 155.309 173.792 155.448 173.161 154.96L173.113 154.584C173.704 153.772 175.754 153.469 176.777 153.236Z" fill="#0C0C0C"/>
<path d="M177.958 138.135C179.485 138.267 181.225 141.807 181.187 143.126C179.7 142.903 177.846 139.569 177.958 138.135Z" fill="#0C0C0C"/>
<path d="M155.807 115.887C156.195 116.048 156.021 115.967 156.33 116.357L156.216 116.848C155.129 117.954 153.626 118.715 152.266 119.466C151.869 119.314 152.013 119.387 151.691 119.074C152.094 117.805 154.612 116.54 155.807 115.887Z" fill="#0C0C0C"/>
<path d="M156.136 123.799C157.106 123.732 157.824 123.484 158.49 124.26L158.347 124.651C157.759 125.093 157.216 125.027 156.462 125.073C155.393 125.147 154.353 125.424 153.582 124.582L153.76 124.238C154.529 123.763 155.21 123.84 156.136 123.799Z" fill="#0C0C0C"/>
<path d="M149.231 112.059C149.604 112.152 149.503 112.128 149.844 112.33C150.055 113.41 148.758 115.355 148.206 116.333C147.962 116.364 148.132 116.355 147.7 116.262L147.582 115.863C147.835 114.48 148.514 113.252 149.231 112.059Z" fill="#0C0C0C"/>
<path d="M84.6678 158.511C84.1019 158.571 83.6235 158.473 83.2325 158.218C82.8466 157.962 82.5868 157.594 82.453 157.114L83.3021 156.806C83.3945 157.139 83.5554 157.383 83.7847 157.535C84.0192 157.687 84.2933 157.747 84.6071 157.714C84.782 157.695 84.9357 157.648 85.0681 157.572C85.1999 157.49 85.2982 157.386 85.3628 157.26C85.4327 157.133 85.4597 156.994 85.444 156.845C85.4272 156.686 85.3696 156.559 85.2713 156.466C85.1725 156.367 85.0364 156.285 84.8631 156.22C84.6893 156.15 84.4792 156.081 84.2328 156.013C83.8957 155.924 83.6064 155.819 83.3649 155.699C83.1233 155.579 82.9331 155.427 82.7942 155.244C82.6547 155.056 82.5706 154.826 82.5418 154.553C82.512 154.27 82.5552 154.014 82.6713 153.783C82.7868 153.547 82.9641 153.354 83.2032 153.204C83.4422 153.054 83.7264 152.962 84.0556 152.927C84.4105 152.889 84.7327 152.936 85.0222 153.067C85.3116 153.198 85.5557 153.416 85.7545 153.723L85.0902 154.23C84.9616 154.046 84.8147 153.911 84.6495 153.824C84.4838 153.732 84.3032 153.697 84.1077 153.717C83.9688 153.732 83.8458 153.773 83.7386 153.842C83.6308 153.905 83.5487 153.989 83.4921 154.094C83.4407 154.198 83.4217 154.315 83.4353 154.443C83.4494 154.577 83.5005 154.691 83.5885 154.786C83.6759 154.876 83.8037 154.953 83.9719 155.019C84.1452 155.084 84.363 155.152 84.6254 155.223C84.9625 155.312 85.2518 155.417 85.4933 155.537C85.7348 155.657 85.9253 155.812 86.0648 156C86.2089 156.182 86.2958 156.415 86.3257 156.698C86.3587 157.012 86.3109 157.297 86.182 157.555C86.0532 157.814 85.8575 158.029 85.5949 158.203C85.3369 158.37 85.0279 158.473 84.6678 158.511Z" fill="#0C0C0C"/>
<path d="M88.8565 158.038C88.4964 158.076 88.1633 158.025 87.8574 157.886C87.5514 157.747 87.3004 157.536 87.1043 157.255C86.9134 156.974 86.7979 156.643 86.7577 156.262C86.7176 155.881 86.7615 155.533 86.8895 155.218C87.0227 154.903 87.222 154.648 87.4876 154.453C87.7578 154.253 88.0755 154.134 88.4407 154.095C88.8111 154.056 89.1441 154.107 89.4398 154.247C89.7401 154.382 89.9883 154.59 90.1843 154.871C90.3804 155.152 90.4985 155.483 90.5386 155.863C90.5788 156.244 90.5323 156.592 90.3991 156.908C90.2711 157.223 90.072 157.481 89.8019 157.681C89.5368 157.881 89.2217 158 88.8565 158.038ZM88.7844 157.281C88.9954 157.259 89.1728 157.191 89.3168 157.077C89.4609 156.963 89.5643 156.809 89.627 156.615C89.6898 156.421 89.7082 156.201 89.6821 155.954C89.6556 155.702 89.5916 155.49 89.4903 155.319C89.3885 155.142 89.2553 155.013 89.0906 154.932C88.926 154.85 88.7383 154.821 88.5273 154.843C88.3061 154.866 88.1238 154.937 87.9803 155.056C87.8363 155.17 87.7326 155.322 87.6693 155.511C87.606 155.699 87.5876 155.92 87.6142 156.172C87.6402 156.419 87.7042 156.63 87.806 156.807C87.9078 156.983 88.0411 157.112 88.2057 157.194C88.3703 157.275 88.5632 157.304 88.7844 157.281Z" fill="#0C0C0C"/>
<path d="M92.261 157.679C92.0141 157.705 91.8004 157.652 91.6201 157.52C91.4392 157.383 91.3311 157.148 91.2959 156.813L90.8224 152.323L91.6789 152.232L92.1345 156.553C92.147 156.672 92.1819 156.756 92.2393 156.808C92.3013 156.853 92.376 156.871 92.4635 156.862C92.5098 156.857 92.5555 156.847 92.6008 156.832C92.6511 156.816 92.7012 156.798 92.751 156.777L92.8275 157.502C92.7341 157.554 92.6368 157.593 92.5355 157.619C92.4348 157.65 92.3433 157.67 92.261 157.679Z" fill="#0C0C0C"/>
<path d="M94.857 157.405C94.5175 157.441 94.2127 157.387 93.9428 157.244C93.6774 157.095 93.4621 156.879 93.2969 156.595C93.1317 156.31 93.0293 155.98 92.9897 155.605C92.9463 155.193 92.9812 154.833 93.0943 154.525C93.2126 154.216 93.3896 153.971 93.6254 153.79C93.8606 153.604 94.1326 153.495 94.4412 153.462C94.6573 153.44 94.8599 153.462 95.0492 153.531C95.2436 153.599 95.4115 153.711 95.5529 153.868C95.6988 154.019 95.8103 154.213 95.8872 154.449L95.6874 154.478L95.4091 151.839L96.2656 151.749L96.8327 157.127L95.9762 157.217L95.8648 156.16L96.0906 156.082C96.053 156.366 95.974 156.604 95.8535 156.793C95.7377 156.977 95.5941 157.12 95.4227 157.221C95.2513 157.322 95.0628 157.384 94.857 157.405ZM94.9823 156.596C95.183 156.575 95.3527 156.508 95.4916 156.394C95.6305 156.281 95.7316 156.13 95.7949 155.941C95.8582 155.752 95.8774 155.54 95.8524 155.303C95.8275 155.066 95.7646 154.865 95.6639 154.699C95.5626 154.527 95.4322 154.401 95.2727 154.319C95.1127 154.232 94.9324 154.199 94.7317 154.22C94.5311 154.241 94.3588 154.309 94.2148 154.423C94.0759 154.536 93.9722 154.687 93.9038 154.877C93.8405 155.065 93.8213 155.278 93.8462 155.515C93.8712 155.751 93.9343 155.955 94.0356 156.127C94.142 156.297 94.275 156.424 94.4345 156.506C94.5991 156.587 94.7817 156.617 94.9823 156.596Z" fill="#0C0C0C"/>
</svg>
