<svg width="153" height="150" viewBox="0 0 153 150" fill="none" xmlns="http://www.w3.org/2000/svg">
<path d="M7.0522 5.66302C7.54241 4.11687 8.08917 2.8114 9.58809 2.01006C10.523 1.5106 11.597 1.29736 12.6436 1.20241C20.4277 0.496845 79.6426 -0.804787 83.6242 0.684282C86.5227 1.76829 106.683 21.1989 107.717 23.8963C108.757 26.6102 108.444 30.2793 108.479 33.1716C110.819 34.9106 119.251 40.5609 119.907 42.4674C119.804 43.6178 119.295 44.1999 118.381 44.9044C115.23 47.3334 111.891 49.6268 108.68 51.9888C108.335 60.3974 108.6 69.0198 108.769 77.4306L109.406 109.394C109.561 116.858 109.678 124.507 109.465 131.982C109.328 136.834 109.606 141.447 103.792 142.638C103.281 146.464 101.424 147.96 97.7007 148.248C68.2046 150.517 38.5795 150.268 9.03392 149.255C1.69358 149.005 1.48443 144.107 1.32935 138.141C1.28653 136.497 1.24481 134.79 1.20172 133.14L0.686794 117.385C-0.247801 87.977 -0.228588 58.5472 0.744708 29.1404C0.919001 23.3419 0.916257 16.7646 1.59367 11.0032C1.9332 8.11507 5.80991 7.82226 7.0522 5.66302Z" fill="#0C0C0C"/>
<path d="M103.792 142.639C103.281 146.465 101.424 147.961 97.7007 148.249C68.2046 150.518 38.5795 150.269 9.03392 149.256C1.69358 149.006 1.48443 144.108 1.32935 138.142C1.28653 136.498 1.24481 134.791 1.20172 133.141L0.686794 117.386C-0.247801 87.9781 -0.228588 58.5482 0.744708 29.1415C0.919001 23.343 0.916257 16.7657 1.59367 11.0042C1.93319 8.11611 5.80991 7.82329 7.0522 5.66406C6.58613 10.87 6.52877 16.6005 6.38083 21.8528C6.12035 29.5388 5.9455 37.2273 5.85575 44.9172C5.57386 66.2746 5.71631 87.635 6.28338 108.986L6.83508 127.702C6.90782 129.824 6.91496 132.03 7.02969 134.113C7.16638 136.591 7.23363 139.278 8.74764 141.328C10.0577 143.103 12.2373 143.186 14.272 143.424C18.2742 143.611 22.3905 143.551 26.4347 143.71C44.3657 144.429 62.3182 144.432 80.2495 143.718C86.2973 143.501 98.0073 143.389 103.792 142.639Z" fill="#F2F2F2"/>
<path d="M36.7251 3.12149C52.0643 2.72741 66.838 3.0496 82.1149 3.05399C82.1739 27.5794 81.7012 25.4636 105.646 25.5904L105.619 31.2066C104.194 30.1086 102.246 28.1346 100.422 28.7414C99.4629 30.0721 99.9081 34.0184 99.9784 35.8846C89.2664 36.007 77.8102 41.3609 73.4617 51.7026C72.6341 53.6703 70.5635 58.4163 72.1596 60.1825C73.6813 60.1935 74.116 59.2673 75.0613 58.1062C81.2555 50.4987 90.3939 48.5403 100.018 49.2848C99.9627 51.3708 99.411 55.2447 100.985 56.6081C102.886 56.8032 104.447 55.1077 105.998 53.8651C105.997 75.2851 106.149 96.7045 106.453 118.121C106.502 121.461 106.903 135.12 105.978 137.296C105.547 138.311 104.727 139.011 103.703 139.403C98.0134 141.571 14.1384 141.829 11.2737 140.054C10.7574 139.733 10.5252 139.192 10.3438 138.641C9.17476 135.103 9.23185 114.158 9.13469 109.09C8.64282 83.4467 8.1537 57.9086 8.75398 32.2602L9.10065 17.3593C9.15637 13.9479 8.81903 7.57553 10.2274 4.60343C12.2689 2.91293 32.3535 3.23565 36.7251 3.12149Z" fill="#F2F2F2"/>
<path d="M37.4858 16.2606C48.9778 14.4595 59.75 22.3278 61.5278 33.8218C63.3056 45.3159 55.4141 56.07 43.9146 57.8242C32.448 59.5734 21.73 51.7107 19.9571 40.2498C18.1843 28.7887 26.0263 18.0562 37.4858 16.2606Z" fill="#0C0C0C"/>
<path d="M38.7075 18.6982C52.4347 17.3735 61.763 28.8437 58.2942 42.1945C57.5388 45.1016 56.0484 47.153 54.2028 49.4788C51.5585 43.6196 49.2664 41.4911 42.6992 40.6618C34.9417 40.436 29.947 41.9761 27.3107 49.9165C24.9718 47.0316 23.4232 44.2289 22.734 40.5235C21.8101 35.6452 22.9064 30.6006 25.7719 26.5456C29.0031 21.8912 33.2531 19.7152 38.7075 18.6982Z" fill="#B5FE28"/>
<path d="M38.432 24.8181C42.592 23.5584 46.9809 25.9342 48.2004 30.1056C49.4199 34.2769 47.0015 38.6418 42.8179 39.8205C38.6912 40.9835 34.3978 38.6055 33.1948 34.4907C31.992 30.3761 34.3286 26.0607 38.432 24.8181Z" fill="#0C0C0C"/>
<path d="M39.745 26.9212C42.6714 26.3921 45.4758 28.3257 46.0209 31.2487C46.566 34.1717 44.6474 36.986 41.727 37.5469C38.784 38.1122 35.9426 36.1758 35.3934 33.2304C34.8439 30.2846 36.796 27.4547 39.745 26.9212Z" fill="#F2F2F2"/>
<path d="M39.2096 43.1561C45.8912 42.2911 50.1313 44.9734 52.2027 51.2996C48.6439 53.5505 47.0091 54.3041 42.9079 55.0393C38.7849 55.4144 25.8384 54.4413 30.793 47.4948C32.8041 44.6753 35.9375 43.5359 39.2096 43.1561Z" fill="#F2F2F2"/>
<path d="M86.2209 96.4293C87.8255 96.3579 92.8525 95.9161 93.0844 98.1774C91.5968 99.717 76.5854 99.4234 73.3937 99.4782C59.1481 99.6758 44.9008 99.728 30.6541 99.6402C28.8008 99.6759 24.4624 100.071 23.1523 98.5507L23.3637 98.0759C25.6355 97.0138 40.9761 97.2114 44.264 97.1566L86.2209 96.4293Z" fill="#0C0C0C"/>
<path d="M77.0064 84.0881C79.9468 83.9728 91.3692 82.779 92.5994 85.3779L92.2772 85.9762C90.346 87.0849 87.509 86.676 85.2753 86.7116L74.2888 86.9037L38.8969 87.1425C36.1304 87.1288 23.9829 87.7023 22.9648 85.8554L23.3 85.3449C25.792 84.1731 70.8501 84.2527 77.0064 84.0881Z" fill="#0C0C0C"/>
<path d="M84.8788 71.4553C86.6099 71.3894 92.8573 70.8351 93.1751 73.0827C91.2058 74.8335 77.7487 74.356 74.4204 74.4219C60.1528 74.6689 45.883 74.754 31.6138 74.6771C29.7709 74.7046 24.1241 75.2013 23.1758 73.5931L23.3665 73.2912C24.1288 72.811 25.1512 72.3499 26.0518 72.3637C31.7773 72.4377 37.5869 72.2923 43.304 72.1935L84.8788 71.4553Z" fill="#0C0C0C"/>
<path d="M65.9476 109.08C68.3866 108.923 71.1945 108.482 73.0069 110.534C72.8211 110.74 72.644 110.957 72.4494 111.155C70.8956 112.741 34.0523 112.206 29.5094 112.159C27.9756 112.115 24.0813 112.359 23.3477 110.905L23.601 110.372C24.7003 109.415 36.5459 109.695 38.6174 109.675C47.7303 109.651 56.8421 109.453 65.9476 109.08Z" fill="#0C0C0C"/>
<path d="M102.145 31.5039C104.489 32.8061 114.721 40.7169 117.202 42.6782C112.046 46.4025 107.307 49.8516 102.372 53.8613L102.198 47.253C97.9742 46.3027 94.2355 46.3894 89.9745 47.0472C83.0031 48.7481 80.2932 49.909 74.875 54.5249C79.3473 41.7981 90.0338 38.8381 102.214 37.9972C102.263 35.8811 102.185 33.6321 102.145 31.5039Z" fill="#B5FE28"/>
<path d="M84.7344 5.06641C86.3296 5.89848 102.005 20.9176 103.702 22.938C83.1498 23.5428 85.3226 23.7679 84.7344 5.06641Z" fill="#F2F2F2"/>
<path d="M147.693 31.2723C154.966 30.1765 152.692 37.3903 149.217 40.6544C144.871 44.7371 140.843 51.7664 135.376 54.2898C133.994 54.9281 130.495 50.945 129.697 50.0948C127.781 48.0753 125.238 45.8378 125.23 42.8394C125.225 40.9417 126.336 39.7476 128.287 39.8171C131.3 39.9244 133.133 42.254 135.072 44.2527C137.519 41.3728 144.783 33.158 147.693 31.2723Z" fill="#0C0C0C"/>
<path d="M148.606 32.8363C149.977 32.8168 150.663 33.6916 150.975 34.8857C150.568 36.8333 137.631 50.729 135.353 52.5103C133.357 51.4085 131.116 48.7972 129.482 47.0818C127.915 45.425 126.609 44.2784 127.255 41.7424C129.395 39.9904 133.602 45.2573 135.131 46.7272C139.453 42.9189 143.544 36.9829 148.606 32.8363Z" fill="#B5FE28"/>
</svg>
