<svg width="150" height="150" viewBox="0 0 150 150" fill="none" xmlns="http://www.w3.org/2000/svg">
<path d="M100.791 150C94.1183 148.1 94.5955 142.552 85.6283 145.315C79.627 146.266 79.602 138.418 77.1466 136.307C71.8805 131.774 61.2541 133.5 54.9033 133.555C44.5454 133.7 34.187 133.594 23.8359 133.236C19.4666 133.106 15.1133 133.045 10.7451 132.734C4.17564 132.268 1.6156 128.532 1.26157 122.154C0.909209 115.807 0.831797 109.44 0.616494 103.085C-0.0818519 81.7997 -0.187009 60.5021 0.301584 39.2131L0.611228 18.9116C0.698625 14.3686 0.0421731 7.18705 3.11773 3.67703C5.14118 1.3679 9.70637 1.04416 12.6474 0.921828C31.7349 0.128446 50.8414 0.0934979 69.9439 0.0330233C77.2992 -0.0402119 84.6572 0.00833445 92.0124 0.178939C105.516 0.520981 109.761 -0.258251 110.124 14.8626C113.784 16.0854 115.232 16.9235 118.293 19.1732C121.544 18.6043 125.942 18.1404 129.224 18.0791C132.912 20.6302 148.066 32.357 149.201 35.692C148.948 38.6205 143.81 43.8033 141.97 46.2986C140.58 48.1869 137.942 51.7468 135.65 52.1641C132.753 51.4664 119.871 40.1324 116.797 37.6468C113.776 35.2029 114.17 32.1855 114.003 28.4788L110.666 28.3127C111.237 45.9255 111.362 63.5502 111.046 81.17C123.412 77.744 119.3 83.9829 124.602 89.7723C126.844 92.219 134.834 91.1427 133.011 98.9046C132.659 100.4 132.493 102.835 132.393 104.239C133.73 106.666 136.932 109.782 137.734 112.317C138.38 114.367 133.503 119.402 132.42 121.832C132.909 127.455 135.251 131.383 129.005 134.091C127.851 137.267 126.059 139.375 122.496 139.467C119.68 147.631 116.869 145.184 109.733 144.441C109.536 144.524 109.342 144.607 109.145 144.69L108.87 144.815C105.538 146.335 105.294 148.538 100.791 150Z" fill="#0C0C0C"/>
<path d="M122.496 139.466C123.975 135.413 125.035 135.394 129.005 134.09C127.851 137.266 126.059 139.374 122.496 139.466Z" fill="#F2F2F2"/>
<path d="M48.3414 13.5229L49.7652 13.483C54.9633 13.3593 93.4403 13.2453 94.9885 15.0523C98.3512 18.9751 97.3246 68.8813 97.0777 77.1009C95.9706 78.1051 94.9524 79.1148 93.7011 79.9554C89.1232 83.0235 86.3875 78.4574 82.2729 80.9069C79.0406 82.8654 79.6926 88.2415 76.4381 90.1778C72.637 92.4387 69.438 91.4095 68.0785 96.4805L62.3435 96.572C55.152 96.6081 21.3145 97.5152 16.9335 95.6177C16.1051 95.2599 15.4972 94.5248 15.1656 93.7009C13.4673 89.4871 13.5126 27.7225 14.2556 19.4161C14.3671 18.1673 14.5519 17.0005 15.0727 15.8495C17.3314 13.9274 24.963 14.1477 28.1432 14.03C34.873 13.7643 41.6065 13.5953 48.3414 13.5229Z" fill="#F2F2F2"/>
<path fill-rule="evenodd" clip-rule="evenodd" d="M48.4026 84.7403C48.4026 84.7403 48.3439 86.3138 48.2294 86.7143C48.0691 87.2749 43.6642 89.117 43.6642 89.117C43.6642 89.117 43.5537 89.3675 43.3438 89.4374C43.1036 89.5175 42.7832 89.4374 42.7832 89.4374C42.7832 89.4374 37.735 91.8728 36.7764 91.76C35.4148 91.5998 32.4998 90.5475 29.8084 89.5976C27.0853 88.6365 23.6407 86.9948 23.6407 86.9948L23.5606 85.0726V83.0704L23 82.8301L23.1602 79.0658L23.881 78.7454C24.5217 78.7187 25.8032 78.6013 25.8032 78.345C25.8032 78.0887 25.1091 75.5685 24.762 74.3404C24.6285 73.94 24.3295 73.059 24.2014 72.7386C24.0732 72.4182 24.149 71.5035 24.2029 71.0861L24.2261 70.986C24.2351 70.9471 24.2428 70.911 24.2501 70.877C24.288 70.6993 24.3136 70.579 24.4487 70.4238C24.5994 70.3518 24.791 70.2815 24.9776 70.213C25.1729 70.1414 25.3629 70.0717 25.4947 70.0041C25.8754 69.8093 26.4962 69.6208 27.1601 69.4193C28.2703 69.0824 29.501 68.7088 29.931 68.2076C30.8616 68.2036 31.1468 68.1348 32.0446 67.8801C32.6102 67.0566 32.8008 67.0985 33.1358 67.1721C33.3004 67.2083 33.4997 67.2521 33.7954 67.2049C35.5774 66.919 35.8705 66.8837 37.5933 67.4155C38.6648 66.8695 38.9578 67.2435 39.2684 67.6398C39.4412 67.8603 39.6193 68.0877 39.94 68.1676C41.1181 68.4615 42.2666 68.9133 43.4335 69.3946C43.9793 69.62 44.5729 69.812 45.1704 70.0053C45.9278 70.2503 46.6915 70.4974 47.3724 70.817L47.6832 71.9727C47.6849 72.0741 47.6906 72.2043 47.697 72.3526C47.7266 73.033 47.7728 74.0936 47.5302 74.4908C47.4765 74.5781 47.2138 74.7255 47.1089 74.7831L47.0096 77.8514C47.0371 77.8619 47.0648 77.8724 47.0928 77.8829L47.189 77.9192C47.7703 78.1385 48.3932 78.4217 48.9406 78.7156C48.9453 78.7808 48.9487 78.8269 48.9535 78.8921C49.0221 79.8151 49.0303 82.1491 48.8701 82.3894C48.7467 82.5745 48.4638 82.6715 48.3912 82.8155C48.3213 82.954 48.3888 83.0663 48.3866 83.2128C48.3809 83.5839 48.3743 84.0177 48.3944 84.2867C48.3977 84.3241 48.4006 84.3741 48.4038 84.4312C48.4073 84.4909 48.4056 84.5504 48.404 84.6092C48.4028 84.6534 48.4016 84.6973 48.4026 84.7403Z" fill="#0C0C0C"/>
<path d="M36.089 71.0566C37.9031 71.763 39.6507 72.4198 41.3774 73.3352C40.2009 73.7517 37.7862 74.6351 36.7538 75.2598L36.7418 75.3207C37.5315 75.1933 40.2185 74.1337 41.1316 73.791L41.4367 73.654C41.9485 73.8654 41.7178 76.0151 41.6498 76.5277C41.5304 76.7287 41.2781 76.7791 41.0419 76.8688C39.436 77.4279 37.8855 78.1791 36.2388 78.727C34.6722 78.2224 32.3848 77.2236 30.7886 76.5973C30.6116 76.5253 30.1671 76.3827 30.1719 76.1777C30.1871 75.4841 30.1311 73.8766 30.4771 73.3056L30.646 73.2976C31.5054 73.6372 35.3033 75.2318 35.9497 75.1989C34.8556 74.5598 31.9724 73.5002 30.7245 73.0253C32.328 72.1883 33.5349 71.7855 35.1536 71.0895C34.8781 71.727 34.3142 72.8042 34.4728 73.4754L34.5745 73.5627C35.3434 73.3152 35.8135 71.767 36.089 71.0566Z" fill="#F2E11F"/>
<path d="M41.1251 73.7913L41.4303 73.6543C41.942 73.8657 41.7114 76.0154 41.6433 76.528C41.524 76.729 41.2717 76.7795 41.0354 76.8692C41.0266 76.2541 41.2525 74.1381 41.1251 73.7913Z" fill="#F2F2F2"/>
<path d="M30.7886 76.5966C30.6116 76.5245 30.1671 76.382 30.1719 76.1769C30.1871 75.4834 30.1311 73.8759 30.4771 73.3049L30.646 73.2969C30.7117 74.3901 30.7333 75.4994 30.7886 76.5966Z" fill="#D9DBD5"/>
<path d="M36.2443 75.5625L36.3725 75.6386C36.6808 76.1792 36.5262 77.7826 36.4445 78.4209L36.2795 78.2728C35.9752 77.6144 36.1938 76.2857 36.2443 75.5625Z" fill="#0C0C0C"/>
<path fill-rule="evenodd" clip-rule="evenodd" d="M32.3784 82.4658L32.3972 82.4724C32.3909 82.4702 32.3847 82.468 32.3784 82.4658ZM41.4902 80.9285C41.4843 80.9256 41.4784 80.9227 41.4725 80.9197C41.4688 80.9179 41.4651 80.916 41.4614 80.9141L41.4725 80.9197L41.4902 80.9285Z" fill="#F2F2F2"/>
<path d="M40.9348 80.6602C41.115 80.7298 41.3393 80.8524 41.5163 80.9405C35.7529 83.5042 36.867 83.4113 30.9883 81.2096L31.6458 80.8299C32.9377 81.3786 34.9824 82.2396 36.2719 82.5503C37.6374 82.1723 39.5821 81.2552 40.9348 80.6602Z" fill="#D9DBD5"/>
<path d="M42.1406 81.8701C42.3328 81.766 42.5291 81.6563 42.7237 81.5586C42.7333 82.289 42.8382 84.043 42.5891 84.6189C42.4257 84.7799 42.3825 84.771 42.1606 84.8519C42.1679 83.9045 42.2031 82.804 42.1406 81.8701Z" fill="#D9DBD5"/>
<path d="M30.178 76.8535C32.1923 77.6761 34.2283 78.493 36.2986 79.1641C38.2064 78.5843 39.9027 77.7161 41.6775 77.1218C41.6519 77.8539 41.6383 79.169 41.5566 79.8481C39.9275 80.4832 38.0606 81.3522 36.4484 82.0779C35.6947 82.2148 31.3642 80.2334 30.3238 79.8185C30.2189 79.1489 30.2109 78.3728 30.1845 77.6889C30.1805 77.4149 30.1716 77.1266 30.178 76.8535Z" fill="white"/>
<path d="M30.1875 77.6914C31.0469 77.7811 33.42 78.8984 34.3346 79.1979C34.8985 79.3821 35.3189 79.4694 35.9036 79.6C36.0766 79.9652 35.8555 80.1214 36.0462 80.3953C36.0542 80.7997 36.0029 81.6327 36.2824 81.9018L36.4514 82.0804C35.6978 82.2174 31.3672 80.2359 30.3269 79.821C30.2219 79.1515 30.2139 78.3754 30.1875 77.6914Z" fill="#F2F2F2"/>
<path d="M30.178 76.8535C32.1923 77.6761 34.2283 78.493 36.2986 79.1641C38.2064 78.5843 39.9027 77.7161 41.6775 77.1218C41.6519 77.8539 41.6383 79.169 41.5566 79.8481L41.4725 79.4877L41.4429 79.4885L41.3548 79.7512L41.245 79.756C41.1377 79.4148 41.1313 78.2751 41.1273 77.8723C40.0685 78.2391 37.2421 79.4757 36.3675 79.599L36.2089 79.4925L36.0904 79.5766C36.0391 79.9218 36.0391 80.0403 36.0431 80.3927C35.8525 80.1188 36.0736 79.9627 35.9006 79.5974C35.3159 79.4669 34.8954 79.3796 34.3316 79.1954C33.4169 78.8958 31.0438 77.7786 30.1845 77.6889C30.1805 77.4149 30.1716 77.1266 30.178 76.8535Z" fill="#D9DBD5"/>
<path d="M36.0445 80.3924C36.0405 80.04 36.0405 79.9215 36.0918 79.5763L36.2103 79.4922L36.3689 79.5987C36.3721 80.1786 36.4081 81.3871 36.2808 81.8989C36.0013 81.6298 36.0525 80.7969 36.0445 80.3924Z" fill="#0C0C0C"/>
<path d="M41.1239 69.2044C41.6797 69.1499 46.2457 70.9223 47.1275 71.2355C47.2116 72.2582 47.1812 73.2922 47.178 74.3182C45.7852 74.8436 44.4245 75.4555 43.0589 76.0481L42.8715 76.1202L42.7474 76.0626C42.5095 75.1583 42.7225 74.0979 42.5856 73.1504L42.5687 73.0399C41.5988 72.038 38.4368 71.0416 37.0312 70.4594C38.4336 70.2023 39.78 69.6721 41.1239 69.2044Z" fill="#F2E11F"/>
<path d="M46.5053 71.3574C46.6575 71.3614 46.5814 71.3422 46.7295 71.4303C46.4084 71.8996 43.6901 72.7919 43.0365 73.0578C42.9324 73.069 42.8868 73.0522 42.7891 73.0217L42.8067 72.908C43.779 72.244 45.3896 71.7923 46.5053 71.3574Z" fill="#0C0C0C"/>
<path d="M46.4532 78.2656L47.2517 78.5451C47.6442 78.6733 48.0382 78.7958 48.4331 78.9144C48.502 80.022 48.4763 81.1097 48.4683 82.2181C46.8697 82.8661 45.2799 83.5348 43.6989 84.2252C43.7029 83.2369 43.7518 82.1757 43.5363 81.2154C44.2763 80.9703 47.7267 79.7169 48.1215 79.1282C47.6762 79.0137 44.1682 80.6171 43.5067 80.9343C43.2336 80.742 43.0381 80.5859 42.7274 80.4537C42.5111 80.3728 42.4887 80.3888 42.3438 80.2182C42.8051 79.8378 45.7316 78.5852 46.4532 78.2656Z" fill="#F2E11F"/>
<path d="M46.4532 78.2656L47.2517 78.5451C46.5597 78.8158 43.1375 80.1037 42.7274 80.4537C42.5111 80.3728 42.4887 80.3888 42.3438 80.2182C42.8051 79.8378 45.7316 78.5852 46.4532 78.2656Z" fill="#F2F2F2"/>
<path d="M30.1653 68.9766C31.5093 69.373 32.8059 69.8768 34.1435 70.2708C33.409 70.1779 32.1956 69.9545 31.5237 70.1611C31.3387 70.3421 31.3955 70.238 31.3339 70.4791C31.3851 70.6897 31.3659 70.7346 31.4868 70.8843C32.1524 70.7866 32.9805 70.7882 33.6653 70.7698C33.4699 70.8347 33.1247 70.9604 32.9373 71.0061C32.0803 71.3609 30.203 72.0553 29.6359 72.7232C28.7317 72.3244 25.7603 71.0165 24.9122 70.9292L24.7031 70.8435C26.3778 70.1867 28.4258 69.5869 30.1653 68.9766Z" fill="white"/>
<path d="M33.6628 70.7695C33.4674 70.8344 33.1222 70.9602 32.9348 71.0058C32.7234 70.8697 31.8272 70.9057 31.4844 70.8841C32.1499 70.7864 32.9781 70.788 33.6628 70.7695Z" fill="#F2F2F2"/>
<path d="M24.7039 70.8438L24.9129 70.9295C25.2181 71.2506 28.9103 72.6554 29.5638 72.9293C29.3219 73.9961 29.3131 74.9468 29.2715 76.0337C28.1574 75.6484 26.2849 74.8643 25.2285 74.3814C24.6358 72.7603 24.4692 72.5465 24.7039 70.8438Z" fill="#F2F2F2"/>
<path d="M43.6321 85.568C43.619 85.2853 43.5993 85.2092 43.6935 84.9377C44.4529 84.4734 47.0522 83.3849 47.9812 82.9707C47.9722 83.5906 47.9492 84.0938 47.9017 84.712C47.9206 85.3726 47.9107 85.7107 47.7879 86.3773C46.392 87.0361 44.8642 87.72 43.4961 88.4169C43.5477 87.5203 43.6337 86.4542 43.6321 85.568Z" fill="#F2E11F"/>
<path d="M43.6828 85.3766C43.67 85.1147 43.6508 85.0443 43.7429 84.7928C44.4853 84.3627 47.0266 83.3543 47.9348 82.9707C47.926 83.545 47.9036 84.0111 47.8572 84.5837L47.7787 83.8141C47.1716 83.5514 44.5318 85.158 43.8037 85.319C43.7357 85.3342 43.7477 85.331 43.6828 85.3766Z" fill="#F2F2F2"/>
<path d="M42.6446 77.3255C42.6374 76.7793 42.5933 76.7441 43.1139 76.5206C44.2681 76.0256 45.4366 75.5443 46.5955 75.0605C46.5795 75.6292 46.5747 76.1009 46.4922 76.6648C46.4818 77.0404 46.4681 77.4152 46.4521 77.7908C45.1378 78.2946 43.8452 78.8545 42.5781 79.4688C42.6046 78.764 42.6438 78.0279 42.6446 77.3255Z" fill="white"/>
<path d="M42.6407 77.3255C42.6335 76.7793 42.5894 76.7441 43.11 76.5206C44.2641 76.0256 45.4327 75.5443 46.5916 75.0605C46.5756 75.6292 46.5708 76.1009 46.4883 76.6648C46.4762 76.37 46.465 76.1001 46.4378 75.807C46.3177 75.7926 42.9819 77.1669 42.6407 77.3255Z" fill="#F2F2F2"/>
<path d="M25.3516 74.9062C26.6338 75.4901 27.9393 76.0227 29.264 76.5025L29.2504 77.7359C29.2656 78.3205 29.3121 78.8932 29.3561 79.4771C28.4142 79.059 27.4107 78.6561 26.4568 78.2565L25.6655 75.7696L25.3516 74.9062Z" fill="#F2F2F2"/>
<path d="M25.3516 74.9062C26.6338 75.4901 27.9393 76.0227 29.264 76.5025L29.2504 77.7359L29.1271 77.1072C28.7098 76.9894 28.3085 76.8813 27.9041 76.7195C27.2241 76.4496 26.3591 75.9138 25.6655 75.7696L25.3516 74.9062Z" fill="#D9DBD5"/>
<path d="M25.885 78.707C27.1029 79.1213 31.4113 80.6292 31.4113 80.6292L30.9307 80.9496L30.3701 81.35C30.3701 81.35 25.0512 79.2249 24.5234 79.1075L25.3243 78.8672L25.885 78.707Z" fill="#FBF5B3"/>
<path d="M36.2305 70.5703C36.9144 70.6456 40.4689 72.1329 41.2458 72.531C41.6438 72.7352 42.1084 72.9739 42.2357 73.432C42.4888 74.3442 42.4295 79.305 42.0211 80.0451C41.9986 80.0379 41.9738 80.0363 41.9538 80.0235C41.9177 80.0002 41.8721 79.9786 41.8561 79.9386C41.8312 79.8729 42.1572 74.5581 41.9273 73.311C40.5185 72.1385 37.1932 71.5314 36.2305 70.5703Z" fill="#F2E11F"/>
<path d="M35.1474 70.5625C35.2587 70.5641 35.1979 70.5513 35.3228 70.6266C34.4883 71.3522 31.3215 71.8343 30.394 72.938C29.5418 73.9528 29.8342 78.5027 29.9591 79.9003L29.8718 79.9227L29.7637 79.8154C29.5835 78.4339 29.3144 74.0889 29.9279 72.9572C30.422 72.0466 34.107 70.9149 35.1474 70.5625Z" fill="#F2E11F"/>
<path d="M35.4749 67.3687C35.9274 67.3279 36.6106 67.6547 37.0383 67.7996C36.5858 68.3154 36.1645 68.832 35.7849 69.4039L35.6815 69.4127C35.2122 68.8176 34.7917 68.2145 34.2695 67.6611C34.6772 67.597 35.0769 67.4737 35.4749 67.3687Z" fill="#F2F2F2"/>
<path d="M41.25 80.4155C41.6817 80.3723 42.135 80.4852 42.5339 80.6502C42.8374 80.7751 43.1193 80.9642 43.2339 81.2853C43.5823 82.2648 43.3692 87.8055 42.9535 88.725C42.803 88.773 42.8774 88.7762 42.7293 88.7122C43.0448 87.8312 43.2427 82.2104 42.9383 81.4351C42.7189 80.8761 41.7658 80.6214 41.25 80.4155Z" fill="#F2E11F"/>
<path d="M38.1865 67.4375C38.3643 67.4447 38.5693 67.4615 38.7247 67.5616C38.8296 67.6289 38.9073 67.729 38.9369 67.8492C39.0114 68.1535 38.9377 68.4827 38.7855 68.7534C38.2834 69.6432 37.078 70.0036 36.1538 70.2359C37.0548 69.5823 37.9262 69.2852 38.6662 68.3834C38.675 68.1191 38.643 68.023 38.4772 67.8251C38.3346 67.7891 38.2946 67.7659 38.144 67.7987C37.3799 67.9661 36.507 69.1058 36.0857 69.7313L35.9768 69.7465L35.9375 69.5759C36.2763 68.6933 37.3535 67.8211 38.1865 67.4375Z" fill="#F2E11F"/>
<path d="M32.8405 67.4244C33.0079 67.4204 33.1841 67.4108 33.3491 67.4429C34.3086 67.6303 35.3113 69.3562 35.8103 70.1099C35.1583 69.6109 33.977 67.8137 33.2658 67.7152C33.0015 67.6791 32.8894 67.8049 32.6923 67.945C32.6971 67.9595 32.7011 67.9739 32.7059 67.9875C33.108 69.3346 34.3654 69.5332 35.4114 70.194C35.4379 70.21 35.4643 70.2276 35.4907 70.2444C34.6474 70.0226 33.8697 69.7479 33.1873 69.1864C32.8485 68.9069 32.5169 68.5417 32.4969 68.0788C32.4833 67.7664 32.6427 67.6319 32.8405 67.4244Z" fill="#F2E11F"/>
<path d="M38.0056 68.1152C38.0929 68.1481 38.1554 68.1961 38.2315 68.249L38.2395 68.4372C37.9167 69.0082 37.151 69.3582 36.6 69.6914L36.4887 69.7082L36.4727 69.5945C36.8939 69.0203 37.4338 68.5341 38.0056 68.1152Z" fill="white"/>
<path d="M41.007 68.7383L41.2041 68.7655C41.0126 69.0595 38.7437 69.6962 38.2535 69.8588C38.1294 69.9052 38.1974 69.8948 38.0469 69.8764C38.996 69.2997 39.913 68.9377 41.007 68.7383Z" fill="#F2F2F2"/>
<path d="M33.2031 67.9531C33.7942 68.163 34.471 69.0368 34.7545 69.5838C34.3717 69.3996 33.9472 69.1857 33.63 68.8974C33.3209 68.6171 33.2111 68.364 33.2031 67.9531Z" fill="#F2F2F2"/>
<path d="M29.9922 68.5812C31.0406 68.4611 32.672 69.3605 33.5803 69.8403C32.9043 69.8187 30.6241 68.9232 29.9922 68.5812Z" fill="#F2F2F2"/>
<path d="M34.3206 70.2705C34.335 70.2713 34.3502 70.2673 34.3639 70.2713C34.3895 70.2785 34.4135 70.2938 34.4383 70.305C34.5657 70.2649 34.5048 70.2585 34.6201 70.3178C34.5881 70.329 34.5545 70.3362 34.524 70.3498C33.824 70.6702 32.6747 70.5629 31.897 70.5621C31.8129 70.5501 31.7689 70.5076 31.6992 70.4604L31.7553 70.3306C32.5858 70.1432 33.454 70.4908 34.3206 70.2705Z" fill="#F2E11F"/>
<path d="M35.6696 70.7773C35.6808 70.8094 35.7009 70.8638 35.7041 70.8879C35.7625 71.3156 34.98 72.9574 34.7045 73.3018C34.562 72.7091 35.3525 71.3027 35.6696 70.7773Z" fill="#F2E11F"/>
<path d="M32.0314 68.3047L32.1675 68.3503C32.3357 68.573 32.4791 68.766 32.5808 69.0271L32.4447 69.0279C32.1812 68.9102 31.8864 68.8085 31.6758 68.6082L31.6926 68.4849L32.0314 68.3047Z" fill="#F2F2F2"/>
<path d="M39.2903 68.5195L39.7668 68.6629L39.8004 68.7438L39.5658 68.8271C39.4248 68.8815 39.2823 68.9304 39.1405 68.9817L39.082 68.9088L39.2903 68.5195Z" fill="#F2F2F2"/>
<path fill-rule="evenodd" clip-rule="evenodd" d="M33.6094 86.3787L33.6145 86.3806C34.136 86.5586 34.6575 86.7366 35.1765 86.9218C34.6558 86.736 34.1325 86.5573 33.6094 86.3787ZM41.2628 85.8215L41.2551 85.8252L41.2628 85.8215ZM42.6696 85.1992C42.6696 85.2677 42.6701 85.3372 42.671 85.407L42.6711 85.4095C42.6701 85.3388 42.6696 85.2687 42.6696 85.1992Z" fill="white"/>
<path d="M24.2215 86.5878C25.1858 86.9477 26.1158 87.2949 27.0497 87.7557C26.5701 87.5189 26.0916 87.3121 25.609 87.1185C25.3506 87.0146 25.0911 86.9145 24.8294 86.8156C24.6392 86.7437 24.4478 86.6723 24.2552 86.6004L24.2215 86.5878Z" fill="#F2F2F2"/>
<path fill-rule="evenodd" clip-rule="evenodd" d="M27.0497 87.7557L31.4693 89.3579L32.4528 89.6848C32.829 89.8256 33.2047 89.9695 33.5806 90.1131C34.5979 90.5026 35.6165 90.8924 36.6504 91.2241C37.1937 91.0429 37.7254 90.7864 38.2505 90.533C38.3566 90.4817 38.4624 90.4307 38.5681 90.3806C38.6431 90.3449 38.718 90.3096 38.7928 90.2749C39.925 89.7449 41.0629 89.2296 42.2072 88.7297L42.2757 88.6827C42.4391 88.5717 42.5345 88.5069 42.5828 88.2688C42.7252 87.5593 42.7033 86.7577 42.6825 85.9906C42.6786 85.8467 42.6747 85.704 42.672 85.5633C42.6696 85.4416 42.6681 85.3217 42.6681 85.2038C42.2539 85.379 41.7828 85.5914 41.2834 85.8157L41.2712 85.8214L41.2669 85.8232L41.2613 85.8261C39.772 86.4962 38.0341 87.2786 36.7992 87.5418C36.2626 87.3234 35.7202 87.121 35.1749 86.9264C34.656 86.7412 34.1345 86.5631 33.613 86.3851L33.6078 86.3833L33.5973 86.3795C32.4569 85.99 31.3168 85.6005 30.2035 85.1371L25.4212 83.6555C25.0323 83.4787 24.5996 83.3298 24.187 83.1877L23.9712 83.1133L23.9821 84.7664L23.9609 86.4902L24.2175 86.5863C24.688 86.7618 25.1503 86.9342 25.609 87.1185C26.0916 87.3121 26.5702 87.5189 27.0497 87.7557Z" fill="#F2E11F"/>
<path d="M36.5922 87.8555L36.7556 87.8987C36.9053 88.2888 36.8196 88.8638 36.818 89.2851C36.8164 89.6303 36.8605 90.2246 36.6883 90.5145C36.3703 89.8906 36.5513 88.5523 36.5922 87.8555Z" fill="#0C0C0C"/>
<path d="M23.7992 79.2808L24.0862 79.3606L30.4074 81.7899C30.536 81.8262 30.7345 81.891 30.9828 81.9757C31.3582 82.1037 31.8472 82.277 32.3795 82.4657L32.3983 82.4722C34.076 83.067 36.1737 83.811 36.5016 83.7697C36.2812 83.3852 35.6906 83.2218 35.1916 83.0839C35.0141 83.0348 34.8482 82.9891 34.7147 82.9375C34.2179 82.7463 33.6892 82.5724 33.1564 82.3972C32.3332 82.1262 31.5002 81.8522 30.7606 81.5061L30.7446 81.3757L30.988 81.2099L31.6456 80.8304C32.9374 81.3788 34.9822 82.2398 36.2717 82.5508C37.4052 82.2367 38.9377 81.5515 40.1995 80.9874C40.4578 80.872 40.7047 80.7615 40.9346 80.6605C41.0701 80.7131 41.2305 80.795 41.377 80.8701L41.4012 80.8823L41.4625 80.9139L41.4736 80.9195L41.4913 80.9283L41.516 80.9408L42.3241 81.3147C42.1689 81.3826 41.9031 81.4958 41.5712 81.6372C40.1449 82.2442 37.4971 83.3714 37.1495 83.6736C37.445 83.9689 41.5048 82.1534 42.1407 81.8722L42.2724 81.8002C42.4221 81.7186 42.5735 81.6363 42.7238 81.5606C42.7254 81.6854 42.7299 81.84 42.7348 82.0136C42.7589 82.8561 42.7958 84.1435 42.5893 84.6209C42.4556 84.7526 42.4023 84.7708 42.2659 84.8174L42.2548 84.8212C42.2272 84.8305 42.1963 84.8412 42.1607 84.854C41.0435 85.3186 37.7542 86.7865 36.7482 86.962C35.8655 86.6342 34.9548 86.3263 34.0432 86.0185L34.0287 86.0138C32.7385 85.5776 31.4466 85.1409 30.2296 84.645C29.7085 84.452 28.1028 83.9424 26.5588 83.4524L26.5532 83.4505L26.5341 83.4449L26.4706 83.4249L26.4383 83.4146C25.1059 82.9916 23.8421 82.5899 23.3889 82.4266C23.469 81.5646 23.7992 79.2808 23.7992 79.2808Z" fill="#F2F2F2"/>
<path d="M36.8854 84.0801C36.9095 84.1025 36.9367 84.1217 36.9559 84.1482C37.2394 84.5334 37.0592 86.2393 36.9615 86.6991L36.8582 86.6037C36.6227 86.0359 36.698 84.6495 36.8854 84.0801Z" fill="#0C0C0C"/>
<path d="M33.6397 26.6211C36.5782 26.6358 38.393 29.3089 40.0813 31.7037C44.5066 37.9817 58.1267 35.042 58.4292 43.7307C58.6789 50.8672 47.3175 50.6192 42.5062 50.6154C36.1118 50.4323 28.3268 51.3519 22.2891 49.5634C19.6866 48.3184 20.7432 43.3409 20.7215 41.1935C20.6835 37.4596 20.7654 25.6782 27.038 32.1787C28.5468 33.7424 30.1702 33.2475 32.0943 32.8769C31.2395 29.8299 31.2647 28.7632 33.6397 26.6211Z" fill="#0C0C0C"/>
<path d="M23.6329 32.3027C24.8213 32.5302 25.8711 33.9652 27.1713 34.7705C30.8567 37.0539 34.1167 33.51 37.728 32.5929C38.8498 33.0539 38.4863 32.6842 39.0443 33.5322C38.4699 35.2577 36.1663 35.4957 37.4475 37.6858C38.9449 37.5285 39.052 35.4618 41.2331 35.2377L41.5175 35.5617C41.1146 36.6497 40.6723 37.3457 40.0961 38.3463C40.1679 39.1416 39.987 38.8337 40.5267 39.3511C42.1525 39.1375 42.6206 36.8575 44.6771 37.2222C44.8352 37.9565 43.9244 38.6129 43.3348 39.8596L43.5947 40.3983L44.3683 40.6321C45.5641 40.3087 46.114 39.3144 47.0893 38.2459C48.9343 38.6306 57.2029 39.8113 55.7102 42.7019C51.051 45.8166 36.5633 43.8709 30.7784 43.5188C29.2277 39.1783 27.2098 37.5296 22.9609 36.0469C23.1421 34.6132 23.3061 33.7108 23.6329 32.3027Z" fill="#F2F2F2"/>
<path d="M55.9928 45.0547C56.1176 49.3839 37.9016 48.5883 35.2014 48.398C31.8154 48.1594 25.5785 49.2671 22.7901 47.5824C22.6903 47.0254 22.6461 46.5422 22.5859 45.9823C22.7036 45.8134 22.8212 45.6442 22.9389 45.4753C30.258 45.0983 38.5619 46.4151 45.7315 46.6473C49.1531 46.758 53.3223 45.8381 55.9928 45.0547Z" fill="#F2F2F2"/>
<path d="M22.9258 38.1016C23.4005 38.2669 23.9496 38.4627 24.396 38.6861C26.3848 39.6639 27.8858 41.4141 28.5481 43.5287C26.3721 43.5654 24.9052 43.5221 22.7344 43.3609C22.7471 41.6055 22.8437 39.8553 22.9258 38.1016Z" fill="#F2F2F2"/>
<path d="M34.4916 28.5078C35.2113 28.9639 36.1708 29.5811 36.3838 30.387C35.946 31.2688 35.9191 31.038 34.7469 31.5626L34.1173 31.8658L33.6845 31.6092C33.1981 30.063 33.6046 29.6394 34.4916 28.5078Z" fill="#F2F2F2"/>
<path d="M82.1436 50.666C83.8638 50.706 84.8599 51.3884 85.2927 53.0384C86.2416 56.668 86.2666 60.9037 86.4497 64.642C84.7905 67.4877 73.0737 81.7907 70.5517 83.3137C68.407 82.2401 67.0918 80.9613 65.2801 79.4217C63.4905 77.9597 61.7148 76.4812 59.9558 74.9832C59.0291 74.1898 56.3267 71.904 56.5348 70.8415C57.2978 66.9328 68.8287 53.9144 71.3341 51.7928C74.8661 51.1884 78.5645 50.9637 82.1436 50.666Z" fill="#0C0C0C"/>
<path d="M80.3442 52.8792C80.8436 52.7827 82.5888 52.7255 83.1881 52.6914C83.6958 56.2369 83.9705 60.3625 84.2674 63.9616C80.2582 69.1777 74.7563 75.8049 70.4003 80.74L66.0055 77.1032C63.378 74.9671 60.9864 73.0087 58.4727 70.7367C61.7494 65.9476 68.3611 58.1405 72.2371 53.6432C74.9422 53.4091 77.6446 53.1544 80.3442 52.8792Z" fill="#F2F2F2"/>
<path d="M77.444 55.4119C79.0781 54.7606 80.9287 55.5631 81.5724 57.2006C82.2133 58.8382 81.4004 60.6854 79.7579 61.3173C78.1292 61.9443 76.3008 61.139 75.6655 59.515C75.0273 57.8911 75.8236 56.058 77.444 55.4119Z" fill="#0C0C0C"/>
<path d="M69.0468 2.6921C74.729 2.65215 101.642 1.90342 104.941 4.62644C107.493 6.73168 107.208 11.6476 107.36 14.6985C103.601 14.7204 101.922 14.8455 98.3485 15.9255C97.9545 15.1862 97.5661 14.4228 96.9696 13.8239C96.1206 12.9728 95.0468 12.5142 93.8843 12.2668C87.9496 11.0021 79.9146 11.4567 73.7746 11.401C56.0593 11.2401 38.476 11.7092 20.7746 12.2524C18.3888 12.3253 15.1823 12.3259 13.5084 14.3151C10.219 18.2244 12.0343 80.3564 12.3745 89.0032C12.4746 91.5581 12.43 95.0396 14.5655 96.8427C15.7167 97.8164 17.6125 98.1548 19.0713 98.3573C26.0778 99.3338 36.4692 99.1091 43.8714 99.1174C51.9866 99.1257 60.1988 99.331 68.3004 98.8872L68.8914 101.595C69.463 107.587 64.3967 107.237 63.7613 112.694C63.3396 116.322 68.3587 118.614 68.7804 121.648C69.155 124.345 68.2033 127.049 68.1756 130.192C49.2279 131.48 29.5626 130.42 10.6035 129.918C9.37135 129.776 5.84243 128.88 5.3605 127.682C3.27184 122.481 3.6822 115.132 3.51711 109.656C2.70501 83.7852 2.5377 57.8996 3.0152 32.0214C3.13839 27.2048 3.23161 22.3874 3.29487 17.5694C3.35341 13.828 2.73331 8.11233 5.35772 5.3538C6.25167 4.42477 8.55869 3.74707 9.78003 3.66801C29.4294 2.39278 49.3855 2.84578 69.0468 2.6921Z" fill="#F2F2F2"/>
<path d="M48.4192 106.991C50.5806 106.936 55.2251 106.409 56.4792 108.206C56.2434 109.177 56.4653 108.744 55.7162 109.505C52.6459 109.976 46.9762 109.907 43.6884 109.932C36.6358 109.976 29.583 109.957 22.5305 109.879C20.239 109.807 14.8697 110.445 13.8398 108.453L14.1123 107.943C15.8772 107.008 44.0255 107.119 48.4192 106.991Z" fill="#0C0C0C"/>
<path d="M25.838 115.87C29.7823 115.8 39.5019 114.915 41.9369 117.187L41.9471 117.509C40.2011 119.077 32.1858 118.602 29.6047 118.583C26.7597 118.577 15.0906 119.168 13.8945 117.187L14.2499 116.566C15.5365 115.845 23.7097 115.911 25.838 115.87Z" fill="#0C0C0C"/>
<path d="M100.515 78.5195C104 79.6403 105.77 83.5766 109.64 83.8929C111.252 84.0233 114.521 83.155 116.31 83.1356C119.534 83.1051 119.423 88.6893 121.515 91.0306C123.715 93.4967 127.736 93.5716 129.8 95.5162C131.301 96.9282 129.087 101.708 129.619 104.169C130.296 107.295 133.742 110.047 134.536 112.491C135.088 114.188 130.438 118.128 129.78 120.644C128.954 123.814 130.724 126.439 130.299 129.476C128.909 131.915 124.148 131.868 121.776 134.359C120.02 136.201 119.221 141.305 117.542 142.215C115.802 143.161 110.467 140.966 107.978 142.093C105.118 143.388 103.722 145.172 101.125 146.945C98.5477 146.778 95.565 142.245 92.4853 141.904C89.6553 141.593 86.6366 142.295 83.7234 142.573C81.7951 139.724 81.5454 136.367 79.2093 134.004C77.428 132.195 72.7474 131.776 71.2936 129.809C70.525 128.769 71.5516 124.677 71.7624 123.226C72.2591 119.986 69.5151 117.381 67.634 114.987C64.4655 110.957 71.0605 108.762 71.6903 104.721C72.1037 102.057 70.8052 99.006 71.0799 96.6481C71.3574 94.2957 77.6972 93.5189 79.1676 91.8545C81.5732 89.6408 81.6952 84.8388 83.9176 83.4435C85.4519 82.4781 90.8816 84.6752 93.3732 83.5628C96.4889 82.173 97.6043 80.245 100.515 78.5195Z" fill="#B5FE28"/>
<path d="M114.394 96.3152C118.944 96.1487 122.584 100.523 119.907 104.354C114.23 112.474 106.989 120.261 100.513 127.767C95.7493 133.288 90.8939 126.86 87.6006 123.296C84.4432 120.092 78.1006 115.104 83.0448 110.427C87.8531 105.877 92.7667 112.383 95.913 115.77C99.506 111.381 110.196 98.2404 114.394 96.3152Z" fill="#0C0C0C"/>
<path d="M114.929 98.7656C115.126 98.8017 115.323 98.8433 115.52 98.8877C117.146 99.276 118.988 101.157 118 102.43C114.535 106.891 100.526 125.399 96.359 127.164C93.8148 126.828 89.6502 121.721 87.7857 119.713C86.945 118.864 84.2898 116.425 84.079 115.194C83.5324 111.729 86.0572 110.511 88.8456 112.533C91.462 114.431 93.2931 116.891 95.8041 118.891L96.1038 119.127C100.44 115.144 111.008 100.988 114.929 98.7656Z" fill="white"/>
<path d="M103.414 16.8183C104.494 16.7223 106.214 16.7378 107.346 16.7109C108.642 37.2892 108.375 59.9209 108.248 80.5871L105.309 78.1237C103.351 76.5231 102.313 75.7241 99.752 75.7824C99.2637 74.3621 99.6022 63.5049 99.5855 60.9864C99.5023 46.6783 99.7409 31.9994 98.4258 17.7476C100.515 17.1601 101.25 17.043 103.414 16.8183Z" fill="#F2F2F2"/>
<path d="M126.706 20.424C127.097 20.389 127.486 20.356 127.88 20.3555C129.828 20.3521 144.976 33.7023 147.246 35.9072C143.467 40.6727 139.63 45.3892 135.729 50.0552C133.482 48.518 129.783 45.3997 127.514 43.6041C123.982 40.797 119.676 37.5255 116.571 34.3135C116.402 32.2005 115.689 22.9634 116.194 21.6665L116.621 21.5433C120.541 23.1817 117.717 26.8362 119.295 29.5032C120.175 30.9896 123.252 30.7435 124.509 29.6919C125.208 29.114 125.641 28.2779 125.71 27.375C126.007 23.5784 122.125 23.9201 119.934 21.2634C122.186 20.9563 124.445 20.6764 126.706 20.424Z" fill="#F2F2F2"/>
<path d="M110.383 17.5098C111.621 17.8909 113.188 18.3683 114.198 19.137C114.978 20.8925 113.546 21.3654 113.846 24.8244L113.89 25.311C113.91 25.8544 113.971 25.5754 113.61 26.121C109.54 26.425 110.666 24.0973 110.38 20.8689C110.289 19.8494 110.38 18.5523 110.383 17.5098Z" fill="#F2F2F2"/>
<path d="M122.663 25.4961C123.124 25.6783 123.093 25.7466 123.487 26.1169C123.862 27.8674 123.08 28.238 121.523 28.4141C120.977 27.8016 121.112 28.0707 120.871 27.3012C122.519 26.9025 122.35 26.9145 122.663 25.4961Z" fill="#F2F2F2"/>
</svg>
