<svg width="150" height="150" viewBox="0 0 150 150" fill="none" xmlns="http://www.w3.org/2000/svg">
<path d="M38.9199 11.8577C43.2851 4.69771 51.0258 5.79941 58.5111 5.601C65.8943 5.41159 73.2798 5.31433 80.6654 5.30898C85.1936 5.29172 89.7193 5.30168 94.2474 5.33912C96.7012 5.35931 100.505 5.31798 102.859 5.65352C104.556 5.89035 106.185 6.48533 107.637 7.39932C110.918 9.45026 112.533 13.043 112.866 16.7656C113.398 22.7249 113.111 28.8269 113.328 34.8035C117.513 34.7706 124.66 34.4098 127.975 35.6958C132.671 37.5172 132.421 47.6232 129.293 50.6258C126.966 52.8603 116.285 52.2945 113.333 52.3069L113.413 75.244C115.835 75.6889 119.969 76.1193 121.708 77.5709C122.63 79.7762 120.285 95.2817 118.43 96.675C116.881 97.0713 115.033 96.6142 113.406 96.354L113.396 118.257C113.386 122.777 113.518 127.44 113.128 131.929C112.698 136.906 112.071 141.497 107.173 144.008C105.13 150.396 93.2358 149.314 87.7008 149.574C73.6227 150.231 59.3598 150.073 45.2817 149.487C32.4244 148.952 33.3631 136.218 33.2707 126.983L33.1588 112.905C33.098 104.854 32.794 96.8306 32.9254 88.7775C32.9643 86.3752 33.1734 82.7596 32.5752 80.5324L32.3344 80.3963C32.0669 80.6637 31.8699 80.8291 31.566 81.0357C32.5338 79.3483 32.5144 78.9665 32.4268 76.9946C33.3266 75.6062 33.098 54.184 33.1126 51.1396C28.6356 51.1255 24.392 51.2259 19.9343 50.7566C13.879 50.1188 13.969 37.4107 17.9013 35.4186C19.5136 29.5522 24.5597 30.404 29.567 30.3135C30.0752 29.8445 32.6384 30.0247 33.4653 30.0327C33.2002 24.8986 32.9327 13.8588 38.9199 11.8577Z" fill="#0C0C0C"/>
<path d="M33.1126 51.1389C28.6356 51.1248 24.392 51.2252 19.9343 50.7559C13.879 50.1182 13.969 37.4101 17.9013 35.418C17.3128 43.0589 17.4028 47.3487 26.1988 47.6269L37.0012 47.871C36.8407 68.7734 36.437 89.6206 37.0352 110.524C37.1666 115.081 37.0085 119.657 37.0717 124.25C37.152 130.029 36.454 137.389 40.7365 141.973C45.0531 146.478 54.2358 145.705 60.065 145.79C66.0134 145.895 71.9618 145.941 77.9101 145.931C84.0482 145.892 102.258 145.844 107.173 144.008C105.13 150.395 93.2358 149.313 87.7008 149.573C73.6227 150.23 59.3598 150.072 45.2817 149.486C32.4244 148.951 33.3631 136.217 33.2707 126.983L33.1588 112.904C33.0981 104.854 32.794 96.8299 32.9254 88.7769C32.9643 86.3746 33.1734 82.759 32.5752 80.5317L32.3344 80.3956C32.0669 80.6631 31.8699 80.8284 31.566 81.0351C32.5338 79.3476 32.5144 78.9659 32.4269 76.994C33.3266 75.6056 33.098 54.1833 33.1126 51.1389Z" fill="#F2F2F2"/>
<path d="M33.4647 30.0324C33.1996 24.8984 32.9321 13.8585 38.9194 11.8574C36.6285 17.8598 37.5332 24.0695 37.1295 30.3619L29.5664 30.3133C30.0747 29.8442 32.6379 30.0244 33.4647 30.0324Z" fill="#F2F2F2"/>
<path d="M39.4727 30.3614C39.4945 27.4113 39.5699 24.0488 39.5699 21.1534C39.5164 8.60894 44.9322 8.08642 55.4379 7.99621C70.6079 7.86588 85.7755 7.58116 100.916 8.04168C110.527 8.33394 110.658 16.4232 110.639 23.6996C110.629 27.3707 110.717 31.3121 110.812 34.9746L107.74 34.9814C107.716 34.0159 107.726 32.4566 107.606 31.5448C107.497 32.5713 107.458 32.9969 107.499 34.0193L107.181 34.5406C106.621 34.6055 106.558 34.6026 105.996 34.5542C105.089 35.7403 98.9635 34.1185 97.6795 38.0504C96.5535 41.49 96.3225 45.2549 97.5773 48.7419C98.2874 50.7126 99.6371 51.2528 101.393 51.9485C101.225 53.4473 100.87 54.8886 101.381 56.2398C102.842 57.5676 104.574 55.6981 105.875 54.7087L105.86 60.0037C94.2092 60.0421 94.9144 60.8192 94.7077 72.1234L90.9651 71.4063C90.9189 68.5129 91.291 64.2508 90.0799 61.6206C89.6446 60.6738 89.0853 60.0803 88.0833 59.736C83.8178 58.2715 54.881 58.3313 51.3232 60.3422C50.4793 60.8183 50.2313 61.5849 50.0027 62.4811C48.777 67.258 48.4827 103.221 50.9073 106.154C52.6485 108.259 58.6893 107.958 61.2525 108.038C65.9144 108.184 86.8795 109.052 89.7248 106.083C91.5901 104.133 91.0235 95.4894 91.0308 92.6081C92.1737 92.8731 93.6183 93.053 94.8001 93.2354C95.0385 105.271 93.2073 106.253 105.928 106.679C105.941 110.129 106.755 122.474 104.214 124.429C101.388 126.6 70.6663 126.398 65.1921 126.347C60.5278 126.303 52.1354 126.753 47.9064 125.518C47.1452 125.297 46.3694 124.847 45.8393 124.251C45.1219 123.454 45.0027 122.284 44.8884 121.261C44.6015 118.666 44.706 115.982 44.6355 113.37C44.4701 107.812 44.3656 102.249 44.3218 96.6881C44.1443 81.4427 44.1321 66.1964 44.2853 50.9516C45.421 51.7194 46.2235 52.5948 47.5975 52.1172C48.4511 50.9275 47.8432 48.8532 47.5975 47.363C53.8937 45.81 53.5751 36.6856 50.5377 32.2978C49.222 30.3976 45.1608 31.1147 44.2367 29.8984C43.5193 30.3855 43.3953 30.3125 42.5295 30.3558C41.5203 30.3633 40.4795 30.3857 39.4727 30.3614Z" fill="#F2F2F2"/>
<path d="M39.4727 30.3614C39.4945 27.4113 39.5699 24.0488 39.5699 21.1534C39.5164 8.60894 44.9322 8.08642 55.4379 7.99621C70.6079 7.86588 85.7755 7.58116 100.916 8.04168C110.527 8.33394 110.658 16.4232 110.639 23.6996C110.629 27.3707 110.717 31.3121 110.812 34.9746L107.74 34.9814C107.716 34.0159 107.726 32.4566 107.606 31.5448C107.497 32.5713 107.458 32.9969 107.499 34.0193L107.181 34.5406C106.621 34.6055 106.558 34.6026 105.996 34.5542C105.199 28.4855 106.736 20.2326 104.365 14.8077C103.538 12.9173 91.6971 13.1738 89.4257 13.1198C80.6613 12.8859 71.8944 12.8791 63.1299 13.0991C60.4694 13.1444 47.7143 12.9817 46.2089 14.5023C43.9838 16.7524 44.5091 26.1955 44.2367 29.8984C43.5193 30.3855 43.3953 30.3125 42.5295 30.3558C41.5203 30.3633 40.4795 30.3857 39.4727 30.3614Z" fill="#F2F2F2"/>
<path d="M42.5269 30.358C42.578 25.9994 42.0381 14.8409 45.112 12.9667C48.4145 10.9556 64.8223 11.2012 68.7474 11.1416C75.4837 11.0215 82.2199 11.0205 88.9586 11.1385C92.981 11.1832 103.029 10.6403 105.707 13.6013C107.886 16.0097 107.932 28.0659 107.604 31.547C107.494 32.5736 107.455 32.9991 107.497 34.0215L107.178 34.5429C106.619 34.6078 106.556 34.6049 105.994 34.5565C105.196 28.4878 106.733 20.2349 104.362 14.81C103.535 12.9195 91.6945 13.1761 89.4231 13.1221C80.6587 12.8882 71.8918 12.8814 63.1273 13.1014C60.4669 13.1466 47.7117 12.984 46.2063 14.5046C43.9812 16.7547 44.5065 26.1978 44.2341 29.9007C43.5167 30.3877 43.3927 30.3148 42.5269 30.358Z" fill="#0C0C0C"/>
<path d="M59.5518 19.9895C66.3489 19.5548 73.771 20.0058 80.6313 19.8305C83.7125 19.7515 89.0966 19.5769 91.7936 20.5504C94.0406 21.3621 93.3743 30.5115 92.759 32.383C92.4599 33.3293 91.7255 33.6177 90.9108 33.934C86.6234 34.7534 63.1631 34.7643 59.2794 33.667C58.4599 33.4358 57.9371 33.0903 57.582 32.3003C56.9035 30.787 56.8208 23.1091 57.4823 21.7241C57.9541 20.7377 58.6034 20.4114 59.5518 19.9895Z" fill="#B5FE28"/>
<path d="M81.2936 23.0625C81.5319 23.1671 82.3004 23.38 82.2639 23.6404C81.9939 25.4876 81.1647 30.4773 79.0416 30.8303C77.7114 30.1342 77.2956 27.8279 76.8213 26.3163C76.4274 25.2416 75.7732 24.0835 76.4128 23.0744C77.9765 23.7841 78.8544 27.2281 79.297 28.7375C79.7761 26.8091 80.3451 24.8153 81.2936 23.0625Z" fill="#0C0C0C"/>
<path d="M83.6267 31.0068C83.4516 28.5877 83.634 26.0395 83.4492 23.5156L83.9015 24.4824C84.4974 24.6047 84.3976 24.5962 85.0226 24.6156C85.3607 27.4437 86.1583 25.4975 87.8047 26.8008L87.7707 27.4515C86.5912 27.9173 85.0567 27.4427 84.9229 28.745C85.7936 30.5795 87.0192 28.8746 88.4394 29.9038C88.471 30.7079 88.5975 30.3738 88.0868 30.9533C87.0362 31.2851 84.8451 31.0651 83.6267 31.0068Z" fill="#0C0C0C"/>
<path d="M67.3893 23.1445C67.7273 23.206 68.4569 23.2423 68.5809 23.5093C69.2326 24.9188 68.9481 27.937 68.9603 29.4649C69.916 29.4177 70.524 29.3455 71.4627 29.4941C72.1436 30.0827 71.9272 29.8987 72.1168 31.0371C70.8839 31.1203 68.7754 30.9987 67.4647 30.9561C67.3698 28.3535 67.3431 25.7486 67.3893 23.1445Z" fill="#0C0C0C"/>
<path d="M62.3516 25.183C63.4192 24.8954 64.5208 25.5237 64.8151 26.5899C65.1094 27.6558 64.4868 28.7592 63.4216 29.0598C62.3492 29.3627 61.233 28.7342 60.9363 27.6592C60.6396 26.5843 61.2743 25.4733 62.3516 25.183Z" fill="#0C0C0C"/>
<path d="M73.7044 22.9414C74.1372 23.1374 74.4315 23.1513 74.5409 23.5045C75.0419 25.1091 75.0249 29.7709 74.5896 31.2733L73.6898 30.9913C72.9383 29.6943 72.9724 24.1674 73.7044 22.9414Z" fill="#0C0C0C"/>
<path d="M83.4492 23.5153C84.7357 22.9257 87.0192 22.6421 88.1306 23.7215C87.6734 24.911 86.1486 24.5594 85.0226 24.6153C84.3976 24.5958 84.4974 24.6043 83.9015 24.482L83.4492 23.5153Z" fill="#0C0C0C"/>
<path d="M59.9263 113.184C68.6713 113.089 77.4187 113.07 86.1662 113.123C88.5859 113.133 99.7652 112.644 100.908 113.969L100.723 114.412C99.5755 115.314 93.1213 115.008 91.1515 115.012C80.0427 115.042 62.2633 115.214 50.4007 114.925C50.2645 114.803 50.1307 114.679 49.997 114.558L49.9727 113.896C51.2348 112.861 57.8787 113.186 59.9263 113.184Z" fill="#0C0C0C"/>
<path d="M50.1175 119.226C53.2303 119.095 71.1969 118.708 73.1424 119.54C73.5631 120.289 73.444 119.861 73.2008 120.94C70.8759 121.164 51.5572 121.184 50.188 120.629C49.7576 119.849 49.8597 120.286 50.1175 119.226Z" fill="#0C0C0C"/>
<path d="M39.466 47.6855C40.8692 48.0053 41.3337 48.5473 42.3599 49.5152L42.3769 98.7195L42.6177 111.387C42.6687 114.862 42.6444 118.266 43.0019 121.711C43.2281 124.892 44.7674 127.221 48.1915 127.581C59.9837 128.821 72.143 128.383 83.9886 128.269C89.8762 128.213 95.7079 128.184 101.549 127.569C105.484 127.156 107.094 125.782 107.578 121.838C108.045 118.025 108.035 114.191 108.045 110.366L108.047 95.4637L110.953 95.9476L110.961 110.507C110.914 117.323 110.907 124.155 110.732 130.966C110.666 133.465 110.073 137.212 108.677 139.284C106.503 142.51 101.148 142.749 97.6023 142.877C85.2265 143.366 72.8385 143.5 60.4555 143.281C56.7833 143.208 50.1711 143.274 46.8054 142.539C45.1517 142.182 43.6318 141.363 42.4207 140.179C39.0161 136.845 39.6484 126.499 39.6313 121.811L39.5195 105.265C39.2374 86.0734 39.2179 66.8781 39.466 47.6855Z" fill="#F2F2F2"/>
<path d="M73.9009 130.67C76.6611 129.892 79.5331 131.487 80.3308 134.242C81.1309 136.996 79.5575 139.878 76.807 140.697C74.0298 141.526 71.1067 139.931 70.3018 137.147C69.4944 134.363 71.1091 131.455 73.9009 130.67Z" fill="#0C0C0C"/>
<path d="M74.8413 132.672C76.4245 132.436 77.9176 133.477 78.2435 135.043C78.5694 136.611 77.6137 138.157 76.067 138.573C74.9873 138.86 73.8346 138.529 73.0734 137.708C72.3122 136.886 72.069 135.711 72.4411 134.656C72.8107 133.601 73.7348 132.837 74.8413 132.672Z" fill="#F2F2F2"/>
<path d="M62.8348 60.8903C66.4778 60.652 85.8695 60.2445 87.9634 61.9925C89.2498 63.0652 88.9142 69.4347 88.958 71.1625C87.4357 70.8576 85.8963 70.6599 84.3618 70.4426C83.5617 70.8418 82.6278 71.4151 81.8375 71.8686C78.5836 68.5659 78.0194 68.0855 73.5594 67.3181C71.3196 71.0563 69.2428 71.2909 66.9739 67.4117C61.293 68.2946 60.0382 70.3441 56.1351 74.5172C57.0811 75.891 59.4813 79.1419 61.1107 79.3923C61.5897 79.0884 61.9253 78.8866 62.4263 78.6215C62.7619 79.6306 61.8937 86.8229 62.8762 88.9091C64.829 90.1856 73.9607 89.6215 76.66 89.4173C79.6293 88.8532 77.4601 87.7055 80.0209 90.1589C81.2076 91.2968 87.0806 91.9411 88.9726 92.2645C88.9799 94.4699 89.617 104.799 87.3359 105.086C80.4027 105.951 58.3019 107.442 52.6015 104.988C51.8355 104.298 51.7577 102.591 51.6701 101.589C51.2421 96.7214 50.3983 63.8951 52.1176 62.2127C53.8856 60.484 60.2546 61.0089 62.8348 60.8903Z" fill="#F2F2F2"/>
<path d="M56.2705 95.1869C61.178 95.0385 66.0855 94.968 70.993 94.9729C72.4011 94.985 74.1618 94.9437 75.137 95.9309L75.1053 96.4683L74.4366 97.0007C69.6239 97.0737 64.7918 97.0226 59.9767 97.0591C58.5929 97.0688 55.8352 97.3168 55.1445 96.0281C55.6066 95.3279 55.3756 95.6391 56.2705 95.1869Z" fill="#0C0C0C"/>
<path d="M55.9607 99.8065C59.0175 99.6606 62.2324 99.5585 65.299 99.5415C66.4761 99.5366 68.2221 99.5415 68.4945 100.881L67.9863 101.579C65.6541 101.698 56.7364 102.267 55.3867 100.769C55.4816 100.016 55.3235 100.339 55.9607 99.8065Z" fill="#0C0C0C"/>
<path d="M84.7453 72.4824C87.7121 73.1428 92.7267 73.8212 95.8419 74.3537C104.011 75.7007 112.169 77.1207 120.311 78.6112C119.857 83.6273 118.534 90.1048 117.539 95.0115L111.34 93.9173L81.6762 89.0811C80.1587 87.4642 75.8251 81.118 74.9375 79.1461C77.9287 76.6976 81.4622 74.536 84.7453 72.4824Z" fill="#B5FE28"/>
<path d="M96.5251 78.3054C102.566 78.1425 102.024 85.5585 97.8092 87.9802C91.9021 88.3279 92.2377 80.8098 96.5251 78.3054Z" fill="#0C0C0C"/>
<path d="M97.1988 79.834C100.117 80.6485 98.9546 84.7869 97.1282 86.3357C94.1151 85.261 95.5354 81.5166 97.1988 79.834Z" fill="#B5FE28"/>
<path d="M109.739 80.4785C115.303 81.011 118 85.6794 113.605 89.5795C106.096 92.935 108.355 84.3567 109.739 80.4785Z" fill="#0C0C0C"/>
<path d="M111.197 82.4648C114.256 83.0119 114.302 86.0318 112.486 88.0985C111.489 88.3295 111.116 88.5897 110.474 87.7533C110.27 86.2117 110.883 84.1207 111.197 82.4648Z" fill="#B5FE28"/>
<path d="M89.1403 76.8262C90.4073 76.8238 92.2385 77.1982 92.8221 78.4577C92.2725 80.223 90.3027 78.2827 88.9652 78.9999C89.1038 81.4411 96.6864 84.4318 89.381 86.9022C87.8343 86.6445 86.6354 86.2968 85.9253 84.8549C85.9205 83.8604 85.7308 84.2154 86.239 83.6076C87.027 83.627 88.1918 84.4659 89.0819 84.9011C90.0157 84.7601 90.0084 84.9351 90.4219 84.3856C89.5853 82.0368 83.6369 79.7804 89.1403 76.8262Z" fill="#0C0C0C"/>
<path d="M80.1688 77.6561C81.5939 77.3837 82.9801 78.281 83.3157 79.6912C83.6513 81.1039 82.8172 82.5287 81.4237 82.9275C80.4631 83.2022 79.4295 82.9275 78.734 82.2102C78.0385 81.4954 77.7905 80.4571 78.0896 79.504C78.3912 78.5533 79.1888 77.8433 80.1688 77.6561Z" fill="#0C0C0C"/>
<path d="M102.086 84.1914L102.441 84.561L103.39 84.5488L103.801 85.074C103.701 85.7354 103.711 86.1585 103.706 86.815C104.596 87.7778 105.822 86.9657 107.098 88.1134C107.125 88.8769 107.22 88.517 106.682 89.1929C105.357 89.6768 103.105 88.9133 101.668 88.5291C101.738 86.8684 101.756 85.8229 102.086 84.1914Z" fill="#0C0C0C"/>
<path d="M102.086 84.1908C102.317 82.5472 102.378 80.7503 103.467 79.5078L103.844 79.6294C104.62 81.5721 104.146 82.9824 103.8 85.0735L103.389 84.5483L102.441 84.5604L102.086 84.1908Z" fill="#0C0C0C"/>
<path d="M26.8837 31.9515C30.0694 31.7339 33.8485 31.8496 36.9638 31.9274C47.5424 32.1915 52.8098 30.6482 49.9962 43.9503C49.7433 45.1442 46.9904 45.7015 46.0103 45.9543C45.9739 47.1638 46.3556 48.8412 45.9617 49.7436L45.5093 49.8068L44.4855 49.0294C43.4569 48.3022 41.8372 46.9077 40.8061 46.0769C35.5095 45.6721 25.7796 46.9469 21.0277 44.7663C20.1741 44.2655 19.6391 42.7171 19.6027 41.8364C19.2792 34.1641 18.7101 32.4701 26.8837 31.9515Z" fill="#F2F2F2"/>
<path d="M34.3329 37.5805C35.1452 37.3497 35.9939 37.8163 36.2322 38.6262C36.4705 39.4362 36.0109 40.2869 35.2035 40.533C34.384 40.782 33.5207 40.3159 33.2775 39.4952C33.0368 38.6744 33.511 37.8144 34.3329 37.5805Z" fill="#0C0C0C"/>
<path d="M41.1601 37.623C41.9383 37.3962 42.7579 37.826 43.0132 38.5958C43.2686 39.3659 42.8697 40.1999 42.111 40.4841C41.593 40.6774 41.0118 40.5726 40.5935 40.2108C40.1777 39.849 39.9904 39.2881 40.1096 38.7486C40.2263 38.2093 40.63 37.7774 41.1601 37.623Z" fill="#0C0C0C"/>
<path d="M27.3574 37.6091C28.1356 37.3115 29.0062 37.7054 29.2981 38.4859C29.5875 39.2664 29.1862 40.134 28.4031 40.4172C27.6298 40.6968 26.7762 40.3012 26.4893 39.5309C26.2023 38.7604 26.5889 37.9028 27.3574 37.6091Z" fill="#0C0C0C"/>
<path d="M107.117 36.5721C110.962 36.3708 124.503 35.7647 128.158 37.5644C129.515 38.5801 129.559 40.8759 129.666 42.1769C130.439 51.6096 125.568 50.4226 117.813 50.5711C114.688 50.6346 111.434 50.5925 108.299 50.5942C106.585 51.5938 104.63 53.4123 103.095 54.7598L103.151 50.5507C100.853 49.9669 99.2188 49.7665 98.8637 47.055C98.5427 44.6291 98.2922 40.0241 99.8121 38.031C100.863 36.6543 105.384 36.6643 107.117 36.5721Z" fill="#F2F2F2"/>
<path d="M113.494 42.2325C114.158 41.7236 115.104 41.8323 115.634 42.4781C116.166 43.1239 116.089 44.0741 115.461 44.6258C115.036 44.9995 114.44 45.1118 113.907 44.9185C113.377 44.7255 112.99 44.2577 112.905 43.6982C112.818 43.1389 113.044 42.577 113.494 42.2325Z" fill="#0C0C0C"/>
<path d="M107.127 41.9523C107.925 41.7094 108.771 42.1415 109.043 42.93C109.316 43.7185 108.914 44.5807 108.136 44.8805C107.606 45.0845 107.008 44.9834 106.575 44.6167C106.142 44.2501 105.945 43.6762 106.059 43.1211C106.176 42.5658 106.585 42.1177 107.127 41.9523Z" fill="#0C0C0C"/>
<path d="M120.861 41.9415C121.661 41.7314 122.483 42.19 122.723 42.9802C122.964 43.7705 122.536 44.6093 121.756 44.8802C121.223 45.0647 120.634 44.9437 120.216 44.5643C119.8 44.185 119.625 43.6083 119.759 43.0615C119.893 42.5146 120.316 42.0847 120.861 41.9415Z" fill="#0C0C0C"/>
<path d="M74.554 69.1367C74.6294 69.1588 74.7023 69.181 74.7777 69.2031L75.1498 69.3205C77.8857 70.1638 78.3453 70.8171 80.4586 72.7458C79.1697 73.5627 77.6157 74.759 76.3536 75.4909C70.5366 78.8609 74.4446 81.6838 76.6868 86.345C76.6576 86.8459 76.6114 87.038 76.5068 87.5291C75.2763 88.1078 66.2516 87.799 64.2404 87.7747C64.2186 85.4745 65.1548 76.6604 63.0439 76.0671C62.1879 76.303 61.7915 76.8866 61.1641 77.5479L58.3164 74.669C60.9769 71.9811 62.0809 70.3658 65.736 69.3113C67.5891 69.5634 69.5346 75.7243 74.554 69.1367Z" fill="#F2F2F2"/>
<path d="M102.177 61.8703L105.934 61.8008C105.966 65.8791 105.949 69.9576 105.883 74.0355L101.418 73.3571C99.7548 73.0653 98.0257 72.678 96.3672 72.3305C96.5253 70.9536 96.6347 69.5499 96.6298 68.1647C96.6201 62.9796 97.0262 62.0174 102.177 61.8703Z" fill="#F2F2F2"/>
<path d="M96.6562 93.5059L106.038 95.1763C105.965 98.381 105.912 101.586 105.878 104.79C94.7083 104.613 97.0721 103.964 96.6562 93.5059Z" fill="#F2F2F2"/>
<path d="M108.682 52.3474C109.521 52.3073 110.263 52.1307 110.817 52.7739C111.08 55.1181 111.165 73.0132 110.793 74.6593L110.392 74.7882C109.353 74.6228 109.12 74.6083 108.169 74.2144C107.687 71.4862 107.481 53.5712 108.682 52.3474Z" fill="#F2F2F2"/>
<path d="M24.4042 90.4614C32.2859 89.693 29.6692 102.315 26.4737 104.518C24.7495 104.875 22.5559 103.92 20.8536 103.355C17.3882 101.916 14.3338 100.746 15.1266 96.2167C15.6494 93.2357 20.6347 94.6921 21.1916 94.0891C22.4854 92.6813 22.0671 91.8449 24.4042 90.4614Z" fill="#0C0C0C"/>
<path d="M25.2188 92.0625C29.961 92.4394 26.7801 100.4 25.8122 102.797C23.8472 102.265 22.0768 101.623 20.163 100.947C18.5166 100.193 16.7413 99.2207 17.0915 97.1516C18.4825 94.9438 20.9606 96.2471 22.7164 97.0884C23.3828 94.6545 23.3438 93.6892 25.2188 92.0625Z" fill="#B5FE28"/>
<path d="M122.194 14.8537C123.651 14.7825 125.348 14.808 126.124 16.2066C127.51 19.1995 129.801 16.9037 131.379 17.5949C137.605 20.3214 132.877 24.7423 129.631 26.5634C127.479 27.6739 125.993 28.2635 123.709 29.0282C120.574 26.0326 117.131 17.8264 122.194 14.8537Z" fill="#0C0C0C"/>
<path d="M122.459 16.5204C125.441 16.4047 125.696 18.4043 126.533 20.7911C127.778 20.0492 131.654 17.7585 132.418 21.1373C132.656 22.2001 130.927 23.5192 130.076 24.181C128.016 25.3977 126.411 26.0729 124.232 27.0219C122.301 24.2051 119.918 19.5101 122.459 16.5204Z" fill="#B5FE28"/>
<path d="M26.7274 84.9394C24.6774 83.641 20.6988 79.1695 22.1774 76.2347C22.7635 75.0749 24.7576 74.6786 25.9395 75.5126C29.2833 77.8711 28.8334 73.227 32.4277 76.9933C32.5153 78.9652 32.5347 79.347 31.5669 81.0344C29.9326 82.8969 28.8456 83.7188 26.7274 84.9394Z" fill="#1C1C1C"/>
<path d="M24.0547 76.6758C25.3971 76.9457 26.2774 78.0933 27.2477 79.0781C28.0916 78.3389 29.4875 76.863 30.5599 77.8672C30.701 78.7985 30.3873 79.1753 29.9568 80.0264C28.8041 81.3345 28.2837 81.6895 26.8975 82.6207C25.0396 80.8458 23.5172 79.3771 24.0547 76.6758Z" fill="#B5FE28"/>
<path d="M122.37 0C128.234 0.815516 124.082 7.57258 121.794 10.0532C120.403 9.60967 119.81 9.28118 118.545 8.61763C113.864 5.64491 113.107 -0.175067 119.513 1.71662C119.868 1.82166 121.758 0.339677 122.37 0Z" fill="#0C0C0C"/>
<path d="M122.755 1.57227C123.326 1.99121 123.134 1.8266 123.545 2.44201C123.81 4.63277 122.485 6.38075 121.25 8.09348C120.211 7.54226 119.297 6.93731 118.31 6.30586C117.434 5.47187 116.357 4.6172 117.118 3.38299C118.57 2.86995 119.348 3.71634 120.489 4.52845C121.31 3.19017 121.554 2.64552 122.755 1.57227Z" fill="#B5FE28"/>
</svg>
