<svg width="24" height="24" viewBox="0 0 24 24" fill="none" xmlns="http://www.w3.org/2000/svg">
<path fill-rule="evenodd" clip-rule="evenodd" d="M19.5137 13.1767C19.7019 12.8645 19.9003 12.4488 19.9004 12.001C19.9004 11.5529 19.7019 11.1366 19.5137 10.8242C19.3106 10.4873 19.0371 10.1391 18.7373 9.79979C18.1363 9.11954 17.3518 8.38926 16.5908 7.7285C15.8253 7.06381 15.0612 6.45164 14.4912 6.00682C14.2059 5.78418 13.9679 5.60182 13.8008 5.47557L13.7212 5.41536C13.6745 5.37998 13.6354 5.35044 13.6055 5.32811C13.5923 5.31829 13.5779 5.30806 13.5671 5.30035L13.5527 5.29002L13.542 5.28221L13.5332 5.27635C13.133 4.98169 12.5701 5.06758 12.2754 5.46775C11.9835 5.86479 12.0661 6.42032 12.458 6.71678C12.4606 6.71927 12.4676 6.72599 12.4697 6.72752L12.4824 6.73631C12.4892 6.74134 12.4933 6.7446 12.4981 6.74846C12.5045 6.75357 12.5123 6.75976 12.5293 6.77244L12.5617 6.79657C12.6017 6.82628 12.6532 6.86459 12.7148 6.91111C12.8756 7.03256 13.1077 7.20956 13.3848 7.42576C13.9396 7.85879 14.6763 8.45067 15.4102 9.08787C16.1488 9.72918 16.865 10.3986 17.3887 10.9912C17.4074 11.0124 17.425 11.0341 17.4424 11.0555C17.4547 11.0707 17.4671 11.0859 17.4795 11.1006H5C4.50294 11.1006 4.09961 11.5039 4.09961 12.001C4.09982 12.4978 4.50308 12.9004 5 12.9004H17.4795C17.467 12.9151 17.4548 12.9302 17.4424 12.9454C17.425 12.9669 17.4074 12.9886 17.3887 13.0097C16.865 13.6024 16.1488 14.2727 15.4102 14.914C14.6762 15.5513 13.9396 16.1432 13.3848 16.5762C13.1077 16.7924 12.8756 16.9684 12.7148 17.0898C12.6534 17.1362 12.6018 17.1746 12.5619 17.2043L12.5293 17.2285C12.5124 17.2411 12.5025 17.2488 12.4941 17.2553C12.4878 17.2603 12.4824 17.2645 12.4756 17.2695L12.4668 17.2754C12.0666 17.5701 11.9807 18.1339 12.2754 18.5342C12.5701 18.9343 13.131 19.0173 13.5312 18.7226L13.542 18.7187L13.5527 18.7109L13.5669 18.7007C13.5778 18.693 13.5923 18.6827 13.6055 18.6728C13.6355 18.6505 13.6745 18.6209 13.7213 18.5855L13.8008 18.5254C13.9679 18.3992 14.2071 18.2176 14.4922 17.9951C15.0622 17.5503 15.8253 16.938 16.5908 16.2734C17.3519 15.6126 18.1362 14.8815 18.7373 14.2012C19.0371 13.8619 19.3106 13.5136 19.5137 13.1767Z" fill="#1C1C1C"/>
</svg>
