<svg width="18" height="18" viewBox="0 0 18 18" fill="none" xmlns="http://www.w3.org/2000/svg">
<path d="M12.8965 6.30576C13.1421 5.97228 13.6108 5.90105 13.9443 6.14659C14.2778 6.39219 14.349 6.86092 14.1035 7.19444V7.19541L14.1025 7.19639C14.102 7.19703 14.1013 7.19832 14.1006 7.19932C14.0988 7.20172 14.0959 7.2048 14.0928 7.20908C14.086 7.21817 14.0762 7.23204 14.0635 7.24912C14.038 7.28325 14.0014 7.333 13.9541 7.39561C13.8591 7.52134 13.722 7.70067 13.5547 7.91514C13.2206 8.34325 12.7603 8.91686 12.2607 9.49229C11.7643 10.064 11.214 10.6555 10.7002 11.1095C10.4441 11.3357 10.179 11.5437 9.92088 11.6993C9.68336 11.8425 9.35697 12.0001 8.99998 12.0001C8.64299 12.0001 8.31661 11.8425 8.07908 11.6993C7.82099 11.5437 7.55587 11.3357 7.29978 11.1095C6.78594 10.6555 6.23566 10.064 5.73924 9.49229C5.23948 8.91669 4.77942 8.34232 4.44529 7.91416C4.27799 7.69977 4.14081 7.52131 4.04588 7.39561C3.99859 7.333 3.96194 7.28326 3.9365 7.24912C3.92377 7.23204 3.91393 7.21817 3.90721 7.20908C3.90404 7.20481 3.90117 7.20173 3.89939 7.19932C3.89866 7.19833 3.89791 7.19702 3.89744 7.19639L3.89646 7.19541V7.19444C3.65091 6.86092 3.72215 6.39219 4.05564 6.14659C4.38916 5.90103 4.85886 5.97227 5.10447 6.30576L5.10545 6.30772C5.10684 6.3096 5.10935 6.31254 5.11228 6.31651C5.11817 6.32445 5.12682 6.33676 5.13865 6.35264C5.1623 6.38438 5.19774 6.4312 5.24314 6.49131C5.33405 6.61167 5.46606 6.78489 5.62791 6.99229C5.95219 7.40782 6.39523 7.95873 6.87205 8.50791C7.35216 9.06089 7.85207 9.59488 8.29295 9.98448C8.51428 10.18 8.7034 10.3237 8.85349 10.4142C8.92433 10.4569 8.9727 10.4772 8.99998 10.4884C9.02726 10.4772 9.07564 10.4569 9.14646 10.4142C9.29655 10.3237 9.48569 10.18 9.70701 9.98448C10.1477 9.595 10.6479 9.06168 11.1279 8.50889C11.6048 7.95968 12.0477 7.40783 12.372 6.99229C12.5339 6.78489 12.6659 6.61167 12.7568 6.49131C12.8022 6.4312 12.8377 6.38438 12.8613 6.35264C12.8731 6.33677 12.8818 6.32445 12.8877 6.31651C12.8906 6.31255 12.8931 6.3096 12.8945 6.30772L12.8955 6.30576H12.8965Z" fill="#0C0C0C"/>
</svg>
