<svg width="158" height="413" viewBox="0 0 158 413" fill="none" xmlns="http://www.w3.org/2000/svg">
<path fill-rule="evenodd" clip-rule="evenodd" d="M53.0896 353.05C53.0341 352.284 52.9786 351.52 52.9376 350.759C51.902 340.077 54.574 329.776 57.2348 319.519" fill="#10100F"/>
<path fill-rule="evenodd" clip-rule="evenodd" d="M70.0644 381.783L70.065 381.776L70.1376 380.917C68.5002 379.888 68.052 378.885 67.5894 377.013C66.6554 373.226 67.3511 369.63 68.0282 366.13C68.4469 363.966 68.8584 361.839 68.8732 359.726C68.887 357.879 68.3415 355.821 67.7684 353.658C67.1365 351.273 66.4709 348.762 66.4849 346.268C66.5138 341.558 67.1365 337.049 67.7606 332.53C68.2353 329.092 68.7109 325.649 68.9265 322.107C69.2133 317.38 68.5766 312.765 67.9374 308.133C67.6376 305.96 67.3373 303.784 67.1316 301.591C66.9651 299.816 67.0741 297.73 67.1793 295.715C67.2654 294.067 67.3489 292.468 67.277 291.127C67.2027 289.745 67.1414 288.065 67.0751 286.248M61.3433 299.277C61.2953 299.657 61.2469 300.04 61.1983 300.42C61.247 300.039 61.2952 299.658 61.3433 299.277ZM16.0818 375.054C16.0556 374.965 16.0293 374.876 16.0031 374.787C16.0295 374.877 16.0554 374.965 16.0818 375.054ZM23.5834 220.806C23.5915 220.729 23.5998 220.651 23.608 220.573L23.6086 220.568C23.6001 220.648 23.5917 220.727 23.5834 220.806Z" fill="#10100F"/>
<path d="M109.743 267.486L108.473 256.899L112.591 256.172C111.235 245.708 108.15 240.993 106.778 239.943L106.051 207.97C110.12 206.808 109.523 199.735 108.716 196.344C112.379 192.864 112.856 187.03 113.081 184.287C113.154 183.402 113.2 182.839 113.318 182.78C113.705 182.586 110.896 171.88 109.442 166.551C125.332 168.101 131.403 154.44 132.453 147.416C132.797 146.843 132.599 145.892 132.269 144.306C131.902 142.537 131.37 139.978 131.242 136.274C131.048 130.654 127.124 125.858 125.187 124.163L127.851 116.412C127.076 114.28 127.366 112.455 127.609 111.809C128.578 106.771 126.398 104.058 125.187 103.332L132.453 87.8297C130.903 83.7604 125.832 82.7431 123.491 82.7431H115.498C113.172 82.3556 111.784 82.9046 111.38 83.2276C110.217 83.4213 108.473 86.6994 107.747 88.3142L107.262 88.0719L104.567 84.181C101.031 78.3804 98.5214 76.8372 93.8146 73.9433C93.0262 73.4585 92.1762 72.9359 91.2494 72.3491C90.9037 71.5698 90.9879 70.6565 91.0849 69.6043C91.2828 67.4573 91.534 64.7323 88.2943 61.3889C90.1715 58.4503 92.7536 54.2759 93.674 50.8831C94.2692 48.6875 94.987 46.4795 95.705 44.2709C96.6294 41.4277 97.5541 38.5833 98.218 35.7623C98.951 35.2624 99.6394 34.749 100.341 34.222L100.519 34.0883L100.528 34.0812L100.757 33.9096C102.215 30.6062 102.35 25.7635 101.636 22.2198C101.188 20.0023 100.444 19.3052 98.6419 18.2412C97.3993 14.8411 95.7498 11.1964 93.41 8.38889C85.0462 -1.62082 68.0932 -3.49948 57.8691 4.69673C55.3012 6.55831 54.6904 8.95742 54.0378 11.5207C53.8385 12.3037 53.6352 13.102 53.3711 13.9049C53.1338 14.6276 52.9074 15.2922 52.6933 15.9206C51.7075 18.8138 50.9822 20.9422 50.6559 24.4594C49.4109 25.609 48.7884 26.7956 48.8005 28.5311C48.8052 29.1981 48.7955 29.8522 48.7861 30.493C48.7272 34.4973 48.676 37.9806 52.1625 40.8099C52.789 42.5237 53.5374 44.3564 54.2718 46.1443L54.412 46.4856C54.7197 47.2344 55.0243 47.9759 55.3138 48.6927L54.3449 48.6215C48.8586 48.2349 36.8082 47.4048 32.3998 51.0466C30.4271 52.6743 30.2382 56.7655 30.1124 59.4905C30.1029 59.6964 30.0937 59.8946 30.0842 60.0833C25.3149 65.0735 24.4332 66.3762 24.564 73.5064C17.668 77.8671 13.7998 82.6259 10.8423 90.2784C5.73147 103.503 2.7134 117.49 0.710241 131.497C-1.33407 145.801 0.288782 162.555 15.4638 168.826C15.6039 173.023 15.3622 176.771 15.1016 180.573L15.0718 181.008C14.8956 183.571 14.7171 186.171 14.6475 188.953C14.4965 194.878 17.174 197.533 20.8335 201.161C21.046 201.372 21.2618 201.586 21.4806 201.804C21.3183 204.039 21.1923 206.755 21.5363 208.971C21.8334 210.891 22.3416 211.227 23.6111 212.065C23.8006 212.19 24.007 212.326 24.2322 212.481C24.2674 214.342 23.9132 217.689 23.6086 220.568L23.608 220.573C23.4731 221.849 23.3479 223.032 23.2706 223.955C22.8055 229.877 22.4325 235.806 22.1515 241.738C21.81 242.213 21.483 242.697 21.1681 243.192C19.5792 245.728 16.6507 253.983 17.3217 256.935C17.8455 257.621 18.2984 257.834 18.9934 258.16C19.1308 258.225 19.2776 258.294 19.4362 258.372C19.2395 260.441 19.0152 262.535 18.7894 264.644C18.0698 271.362 17.3354 278.218 17.4331 284.846C17.4743 287.666 17.9974 289.066 19.9885 290.841C19.9442 291.376 19.8952 291.937 19.8448 292.515C19.5949 295.379 19.3092 298.654 19.3757 301.254C19.4069 302.493 19.561 303.793 19.7172 305.112C19.9726 307.268 20.234 309.473 19.974 311.541C19.5422 314.998 18.8436 318.422 18.1447 321.848C17.0793 327.071 16.013 332.298 15.8901 337.65C15.8192 340.735 16.344 343.946 16.8671 347.147C17.3802 350.286 17.8916 353.415 17.8376 356.405C17.8015 358.328 17.077 360.328 16.3385 362.367C15.3434 365.114 14.3227 367.931 14.9261 370.727C15.2119 372.099 15.6078 373.445 16.0031 374.787C16.214 375.503 16.4246 376.218 16.6192 376.94C16.8364 377.744 16.9762 378.58 17.1155 379.412C17.5105 381.774 17.901 384.108 20.0394 385.6C19.8278 387.979 19.4639 390.475 19.0977 392.987C18.5372 396.831 17.9715 400.711 17.9393 404.263C17.8618 413.019 32.9569 413.108 38.8356 412.481C51.3605 411.143 49.2609 404.321 46.8045 396.34C46.4809 395.288 46.1511 394.217 45.8478 393.135C45.1696 390.725 44.6513 388.276 44.2904 385.801C48.3645 383.684 49.2486 378.786 48.878 374.615L48.8763 374.596C48.7601 373.259 48.587 371.269 49.0378 370.073C49.4935 368.869 50.1344 367.745 50.775 366.622C51.7758 364.868 52.776 363.114 53.0684 361.056C53.4787 358.414 53.2835 355.722 53.0896 353.05C53.0341 352.284 52.9786 351.52 52.9376 350.759C51.902 340.077 54.574 329.776 57.2348 319.519C58.2085 315.766 59.1808 312.017 59.9692 308.259C60.5676 305.409 60.9582 302.321 61.3433 299.277C61.5505 297.64 61.7562 296.014 61.9917 294.445C63.227 286.655 64.5544 278.88 65.9738 271.12C66.6567 274.78 66.886 281.064 67.0749 286.242L67.0751 286.248C67.1414 288.066 67.2027 289.744 67.277 291.127C67.3489 292.468 67.2654 294.067 67.1793 295.715C67.0741 297.73 66.9651 299.816 67.1316 301.591C67.3373 303.784 67.6376 305.96 67.9374 308.133C68.5766 312.765 69.2133 317.38 68.9265 322.107C68.7109 325.649 68.2353 329.092 67.7606 332.53C67.1365 337.049 66.5138 341.558 66.4849 346.268C66.4709 348.762 67.1365 351.273 67.7684 353.658C68.3415 355.821 68.887 357.879 68.8732 359.726C68.8584 361.839 68.4469 363.966 68.0282 366.13C67.3511 369.63 66.6554 373.226 67.5894 377.013C68.052 378.885 68.5002 379.888 70.1376 380.917L70.065 381.776L70.0644 381.783C69.8267 384.595 69.5878 387.421 69.377 390.221L69.3725 390.28C69.2337 392.099 69.0037 395.114 70.3168 396.458C71.1936 397.352 72.538 397.803 73.7418 398.067C76.6299 398.7 79.6451 398.911 82.6442 399.121C84.6151 399.259 86.579 399.397 88.4954 399.653C90.5958 399.935 92.6824 400.297 94.7685 400.658C99.5843 401.492 104.398 402.327 109.377 402.18C113.701 402.054 123.124 401.45 126.502 398.132C127.404 397.248 127.804 395.627 127.671 394.395C127.441 392.258 126.524 389.603 124.807 388.186C123.081 386.836 120.948 386.139 118.828 385.445C117.514 385.015 116.204 384.587 114.999 384.006C112.335 382.717 109.862 381.034 107.514 379.249C106.957 378.825 106.386 378.404 105.812 377.982C104.425 376.962 103.021 375.93 101.764 374.806L101.553 374.615C101.735 374.334 101.905 374.048 102.067 373.755C103.474 371.193 102.229 367.333 101.233 364.244C101.061 363.711 100.896 363.201 100.754 362.724C101.073 361.639 101.699 360.274 102.332 358.895C103.222 356.954 104.125 354.984 104.206 353.721C104.472 350.165 103.902 346.504 103.333 342.845C102.779 339.283 102.225 335.723 102.442 332.263C102.749 327.39 103.477 322.497 104.204 317.603C104.834 313.368 105.464 309.133 105.821 304.909C106.184 300.598 106.02 296.277 105.856 291.964C105.814 290.861 105.772 289.758 105.739 288.656C109.594 285.57 109.646 283.154 109.737 278.968C109.748 278.456 109.76 277.918 109.779 277.349C109.863 274.816 109.82 272.264 109.777 269.723C109.765 268.976 109.752 268.23 109.743 267.486Z" fill="#10100F"/>
<path d="M150.551 69.7987C149.122 68.4887 147.917 69.2108 146.432 70.1891C144.119 71.7139 134.952 77.7357 134.671 80.1535C136.61 81.3382 146.158 73.4668 148.127 72.1843C148.537 71.9169 148.715 71.9915 149.104 72.1198C149.773 71.2534 150.019 70.7707 150.551 69.7987Z" fill="#B5F936"/>
<path d="M132.981 56.207C131.239 56.3407 130.38 57.968 129.946 59.4937C128.929 63.071 124.516 72.0021 125.826 75.1406C128.325 74.1121 132.736 60.653 133.332 57.5833C133.39 57.2815 133.112 56.5236 132.981 56.207Z" fill="#B5F936"/>
<path d="M86.897 63.0572C86.0856 63.8871 83.7796 65.7614 83.317 66.4284C81.9993 68.3289 81.2775 70.4423 79.6304 72.2914C77.528 74.6486 75.067 76.1308 72.812 78.2814C72.8434 78.693 72.8507 78.9863 72.8507 79.3995L72.3856 79.7742L71.8842 79.6672C66.4827 74.029 61.9896 69.8064 55.394 65.4891C51.9108 63.074 48.0281 61.4353 44.2761 59.5252C42.1179 58.4262 38.2715 57.0972 37.3026 54.8097C37.6587 51.0192 49.6073 52.3269 52.5552 52.0145C53.868 51.8754 54.8126 52.8821 55.687 51.4823L55.4303 51.0146C52.0562 49.7267 37.3317 50.1424 33.9479 52.6219C32.1821 53.9173 32.1433 58.6823 32.0029 60.8305C28.8903 65.6386 26.9768 64.6939 26.5505 72.2061C28.7159 71.221 29.5903 70.6503 31.3876 69.3409C32.0295 68.8729 36.3168 69.594 37.5569 69.6778C40.948 70.1543 55.1009 75.0921 57.8888 77.0197L58.1238 77.151C59.5892 77.952 62.6799 78.8645 63.1353 80.0085C62.1712 80.7395 59.3397 79.3877 58.1044 78.9846C57.4577 78.9812 55.2729 78.0276 54.4978 77.7524C48.6942 75.6965 42.6193 72.551 36.4766 71.7989C35.3649 71.6628 35.4593 71.7897 34.7811 72.3783L34.4759 71.3368C32.606 70.5784 27.8657 73.8234 26.2332 74.9623C21.0545 78.5195 17.9808 81.0241 15.0887 86.6959C18.2206 86.8592 18.9593 87.0316 21.6988 88.7349C27.5509 91.7915 31.0945 95.924 34.6818 101.435C35.6361 102.899 37.0774 105.439 38.3611 106.497C38.039 107.253 37.821 107.813 37.1403 108.166C34.6915 106.442 32.9669 100.835 30.4405 98.9929C29.428 98.2549 28.4398 97.5611 28.3889 96.1853C26.0079 96.312 24.4965 97.0309 22.9802 98.8236C14.3669 109.014 24.7387 114.792 31.9956 120.359C32.8773 121.035 35.3673 123.915 35.8711 124.183C36.2175 124.426 36.5469 124.677 36.8666 124.955C37.0677 122.819 37.0095 116.482 38.2376 115.304C38.9642 115.387 38.6542 115.239 39.175 115.799C39.7975 117.828 39.4293 124.702 39.313 127.096C43.6245 125.242 44.5474 125.257 49.2174 125.536C51.3925 124.501 55.0452 121.368 56.1424 121.252C61.0159 119.316 62.5515 119.081 67.2772 121.483C69.45 120.804 74.0788 118.282 76.5106 117.615C76.4888 117.621 77.8719 118.31 77.8913 118.294C81.1491 115.643 85.7174 109.859 89.1181 107.786C91.9085 106.086 95.6871 105.121 98.0972 104.639C98.0682 102.477 97.6612 95.1147 98.2135 93.5902L98.5792 93.4652C99.2381 94.259 99.4222 103.423 99.6402 105.508C101.125 101.542 104.322 95.4255 106.289 91.5485C104.812 88.7112 103.983 86.9049 102.324 84.118C98.5744 80.1945 94.4445 76.4314 89.513 74.0983C88.1953 74.9873 87.3766 76.4711 86.1849 76.4878C84.8478 77.331 80.9384 80.3951 79.6135 79.3538C80.89 75.6606 94.7522 73.1866 86.897 63.0572Z" fill="#FDFDFD"/>
<path d="M28.3911 96.1875C26.01 96.3142 24.4986 97.0331 22.9823 98.8257C14.369 109.017 24.7408 114.794 31.9977 120.361C32.8794 121.037 35.3694 123.917 35.8732 124.185C36.2196 124.428 36.549 124.68 36.8687 124.957C37.0698 122.821 37.0117 116.484 38.2397 115.307C38.9664 115.389 38.6563 115.242 39.1771 115.801C39.7996 117.83 39.4314 124.704 39.3151 127.098C43.6266 125.244 44.5495 125.259 49.2195 125.539C51.3946 124.503 55.0473 121.37 56.1445 121.255C54.8414 115.481 53.2185 110.894 47.4828 108.514C45.5983 107.733 43.3239 106.619 41.6647 105.453L41.3062 105.2C41.1076 105.269 40.4802 105.493 40.393 105.766C39.8771 107.409 41.3934 114.87 39.6736 115.339C38.5861 113.617 39.1141 105.788 38.5521 104.851L38.3632 106.499C38.0411 107.255 37.8231 107.815 37.1424 108.169C34.6936 106.444 32.969 100.837 30.4426 98.9951C29.4302 98.257 28.4419 97.5633 28.3911 96.1875Z" fill="#1B1C1A"/>
<path d="M58.1046 78.9855C57.4579 78.9821 55.2731 78.0285 54.498 77.7533C48.6944 75.6974 42.6195 72.5519 36.4768 71.7998C35.3651 71.6637 35.4595 71.7906 34.7813 72.3792C37.08 77.7344 40.8441 77.9045 43.4673 82.0973C47.5002 88.5396 46.0639 100.601 54.2315 104.236C57.9883 105.907 62.5106 104.351 63.7919 100.243C66.3522 92.037 58.3565 86.8479 58.1046 78.9855Z" fill="#1B1C1A"/>
<path d="M102.324 84.1193C98.5747 80.1958 94.4448 76.4327 89.5132 74.0996C88.1956 74.9886 87.3769 76.4724 86.1851 76.4891C86.1101 77.2771 85.9381 79.2925 85.6692 79.8724C83.3512 84.8861 79.8947 89.6629 84.2474 94.8704C86.3426 97.38 90.2956 99.333 92.9552 96.6049C95.9611 93.5241 94.9995 88.829 98.2792 86.1372C99.0567 85.558 101.355 84.5843 102.324 84.1193Z" fill="#1B1C1A"/>
<path d="M57.8904 77.0199C57.8953 76.0045 57.8177 74.9903 57.6579 73.9876C56.5606 67.4159 52.0336 62.9562 44.8736 64.2036C41.3614 64.8154 39.4842 66.8653 37.5585 69.678C40.9496 70.1544 55.1025 75.0923 57.8904 77.0199Z" fill="#1B1C1A"/>
<path d="M26.2339 74.9629C21.0553 78.5201 17.9815 81.0247 15.0894 86.6965C18.2213 86.8597 18.9601 87.0322 21.6996 88.7355C25.2747 83.9187 30.8869 81.1233 26.2339 74.9629Z" fill="#1B1C1A"/>
<path d="M41.3086 105.199C38.2542 102.433 39.6494 91.6327 36.222 89.0371L35.8369 89.179C35.568 90.1753 36.7186 93.3246 37.0237 94.6944C37.8061 98.2179 38.2058 101.294 38.5546 104.851C39.1165 105.788 38.5885 113.616 39.676 115.338C41.3958 114.869 39.8795 107.408 40.3955 105.766C40.4827 105.492 41.11 105.268 41.3086 105.199Z" fill="black"/>
<path d="M66.6003 76.957C66.1401 77.0818 65.9803 77.1624 65.537 77.347C65.4522 77.486 65.2899 77.7186 65.3045 77.8821C66.3678 89.8993 67.9035 101.877 68.354 113.954C68.3807 114.675 68.7876 115.313 69.1873 115.892C69.7177 115.791 69.5312 115.824 70.0108 115.444C71.3212 111.872 67.9011 82.033 66.6003 76.957Z" fill="black"/>
<path d="M77.9506 76.9629C77.0205 77.4088 77.1028 77.1867 76.7298 77.9223C76.8993 83.1363 78.1468 89.3151 78.4738 94.6459C78.7911 99.879 79.1205 105.208 79.542 110.438C79.5783 110.89 79.9077 111.341 80.1596 111.707L80.7434 111.54C82.3493 109.705 79.1326 80.3842 77.9506 76.9629Z" fill="black"/>
<path d="M28.3922 96.186C26.8032 92.1172 18.2432 88.8909 14.3362 87.9355C13.3334 89.9203 9.4918 98.4508 9.92537 100.139L10.2354 100.344C7.12774 104.19 2.66122 131.848 2.72905 137.421C1.0432 138.778 2.76536 150.237 3.79964 152.517C7.61701 162.202 13.2341 167.496 24.0831 168.274C25.9554 168.408 27.7479 168.854 29.269 167.399L29.8188 167.853C34.0771 168.703 49.2448 160.396 53.3916 157.893C58.018 155.911 67.467 151.592 70.3615 147.256C70.9452 146.38 72.9871 142.049 72.6747 140.855C71.9311 140.452 70.9913 140.653 70.1072 140.729C69.0123 139.563 64.7081 132.843 64.352 131.421L65.0133 131.274C65.6164 129.558 64.1994 125.988 65.7642 124.629C67.0455 124.877 66.469 129.291 67.0237 131.092C68.2808 135.175 70.0127 137.258 72.9048 140.131C75.3415 138.392 78.5218 136.622 81.1523 135.074C76.2668 131.326 75.4529 125.685 75.5087 119.946C72.7934 121.297 70.0297 122.545 67.2199 123.687C59.7232 119.628 56.647 123.423 50.8386 127.82L50.8919 128.154C51.8584 134.144 46.3624 136.412 43.7755 140.622C41.8886 143.471 43.216 148.811 41.6319 151.459C38.5315 156.635 28.7967 155.824 27.5589 149.212C26.3575 142.806 28.6925 137.557 31.8898 132.349C28.3195 133.613 25.8319 134.866 23.0318 137.46C22.0024 138.414 18.7906 141.81 17.4729 141.809C17.4124 139.117 25.3571 132.488 28.2008 131.789C28.925 131.612 31.6863 130.259 32.1708 129.873C30.5939 128.791 22.5183 129.934 20.4449 130.646C18.8269 131.2 17.267 132.374 16.0729 132.256L15.9203 131.813C17.393 128.699 28.3655 127.26 31.5701 127.985C33.0161 128.313 34.9951 129.176 36.1093 129.273C38.1657 128.102 36.7197 125.755 35.8743 124.184C35.3705 123.916 32.8805 121.036 31.9988 120.359C24.7419 114.793 14.3701 109.015 22.9834 98.8243C24.4997 97.0316 26.0111 96.3127 28.3922 96.186Z" fill="#FDFDFD"/>
<path d="M64.3482 131.422C57.6823 131.066 58.1498 136.137 55.713 140.085C53.7511 143.263 47.342 144.707 47.4388 149.746C47.3831 153.784 50.2607 156.104 53.3877 157.894C58.0141 155.912 67.4631 151.593 70.3576 147.258C70.9414 146.381 72.9833 142.05 72.6708 140.856C71.9272 140.453 70.9874 140.654 70.1033 140.73C69.0085 139.564 64.7042 132.844 64.3482 131.422Z" fill="#1B1C1A"/>
<path d="M29.2695 167.4C27.4795 164.823 22.5988 164.948 21.1431 161.15C19.4112 156.63 21.9787 147.759 16.9091 145.115C11.5609 142.328 6.14001 148.379 3.80017 152.518C7.61755 162.203 13.2346 167.497 24.0836 168.275C25.956 168.409 27.7484 168.855 29.2695 167.4Z" fill="#1B1C1A"/>
<path d="M10.2343 100.344C7.12659 104.189 2.66007 131.847 2.72789 137.421C7.61587 135.114 6.17222 131.817 9.63596 128.452C11.6803 126.483 14.9236 125.358 16.607 123.031C20.4244 117.749 15.6382 113.27 13.3032 109.012C11.7384 106.16 13.8433 102.911 10.2343 100.344Z" fill="#1B1C1A"/>
<path d="M81.2153 137.488C78.5533 138.924 76.9619 139.72 74.7819 141.759C72.7255 149.976 69.6953 151.971 62.8672 156.801C67.0358 156.161 93.3117 154.88 96.5647 156.003L96.6761 156.168L96.5235 156.849C93.4377 157.176 87.5929 156.815 85.4129 157.269L85.0617 157.642C80.3723 157.121 74.2272 157.335 69.4991 157.823C69.068 157.868 68.9057 157.878 68.46 157.861C67.169 157.516 61.6464 158.311 60.2464 158.729C59.6602 159.317 58.9626 159.982 58.437 160.605C57.7079 164.852 57.1024 166.83 55.6975 170.815C59.3211 173.649 62.1914 178.769 64.3229 180.012C69.3223 182.924 74.6366 178.639 78.9142 186.615C80.1326 188.88 80.927 191.35 81.2565 193.901C81.4042 195.134 81.4526 196.589 81.5083 197.842C84.6838 197.318 87.8642 197.054 91.0663 196.744L91.2989 196.735C93.5854 196.66 96.0367 195.865 98.3378 195.494C100.617 195.126 102.807 194.908 105.103 194.693L105.704 195.553C105.556 197.236 103.095 197.139 101.668 197.372C83.8337 200.29 65.6842 200.152 47.6728 199.753C45.9457 199.806 43.9862 199.646 42.2785 199.811C35.9614 200.414 30.1506 201.497 23.756 201.669C23.7366 203.214 23.4024 208.775 24.1944 209.812C25.6599 210.066 37.4535 209.393 39.6795 209.335C55.5255 208.894 70.9379 208.221 86.7887 206.939C89.1092 206.753 104.187 206.232 106.534 204.728C107.319 204.226 106.237 198.081 106.595 196.485C107.37 193.038 110.175 190.2 110.623 186.601C111.023 179.1 107.702 170.412 106.295 162.912C105.265 157.432 104.49 152.775 103.591 147.527C102.451 147.19 99.4859 145.796 98.5751 145.796C92.665 145.798 92.1006 155.468 84.4102 150.213C80.9028 147.818 81.9153 141.769 81.2734 137.841L81.2153 137.488Z" fill="#1B1C1A"/>
<path d="M81.2153 137.488C78.5533 138.924 76.9619 139.72 74.7819 141.759C72.7255 149.976 69.6953 151.971 62.8672 156.801C67.0358 156.161 93.3117 154.88 96.5647 156.003L96.6761 156.168C97.0346 156.392 97.771 156.827 97.9042 157.231C99.4738 162.051 100.622 166.938 102.749 171.572C104.107 174.536 105.803 176.876 107.818 179.422C107.772 184.788 107.285 189.71 105.103 194.693L105.704 195.553C105.556 197.236 103.095 197.139 101.668 197.372C83.8337 200.29 65.6842 200.152 47.6728 199.753C45.9457 199.806 43.9862 199.646 42.2785 199.811C35.9614 200.414 30.1506 201.497 23.756 201.669C23.7366 203.214 23.4024 208.775 24.1944 209.812C25.6599 210.066 37.4535 209.393 39.6795 209.335C55.5255 208.894 70.9379 208.221 86.7887 206.939C89.1092 206.753 104.187 206.232 106.534 204.728C107.319 204.226 106.237 198.081 106.595 196.485C107.37 193.038 110.175 190.2 110.623 186.601C111.023 179.1 107.702 170.412 106.295 162.912C105.265 157.432 104.49 152.775 103.591 147.527C102.451 147.19 99.4859 145.796 98.5751 145.796C92.665 145.798 92.1006 155.468 84.4102 150.213C80.9028 147.818 81.9153 141.769 81.2734 137.841L81.2153 137.488Z" fill="#FDFDFD"/>
<path d="M68.4651 157.858C67.1741 157.513 61.6515 158.308 60.2515 158.726C59.6653 159.314 58.9677 159.979 58.4421 160.602C57.713 164.849 57.1075 166.827 55.7026 170.812C59.3262 173.646 62.1965 178.766 64.328 180.009C69.3275 182.921 74.6417 178.636 78.9193 186.612C80.1377 188.877 80.9322 191.347 81.2616 193.898C81.4094 195.131 81.4578 196.586 81.5135 197.839C84.689 197.315 87.8693 197.051 91.0715 196.741C91.8539 193.6 92.7864 190.153 92.5199 186.896C91.4227 173.476 81.3512 177.105 74.1161 170.597C70.6161 167.449 68.688 162.362 68.4651 157.858Z" fill="#FDFDFD"/>
<path d="M96.527 156.848C93.4412 157.175 87.5964 156.814 85.4164 157.268C87.6981 166.216 90.5466 166.703 98.9492 167.118C97.944 163.927 96.7038 160.151 96.527 156.848Z" fill="#FDFDFD"/>
<path d="M148.989 88.5484C147.899 88.5489 144.838 88.6467 143.92 88.5491L143.588 88.7821C142.036 88.9209 139.747 88.9703 138.55 89.9646L138.559 90.4331C139.62 91.2586 141.92 91.1549 143.447 91.2598C145.14 91.509 146.695 91.3712 148.395 91.2799C150.545 91.1392 155.84 91.7193 157.28 90.2439C157.634 87.5918 150.801 88.5956 148.989 88.5484Z" fill="#B5F936"/>
<path d="M86.437 29.071C81.6023 28.4875 72.7419 29.2839 68.2948 31.3336C67.2314 33.4903 64.5864 39.8173 62.4161 40.2562C60.1368 39.2973 61.0161 35.8735 58.8167 35.0524C57.8721 35.3678 58.216 35.0977 57.6347 35.7393C58.3153 37.2321 59.7275 40.5985 58.5382 42.0152L57.9254 42.0186C57.2665 41.0667 57.8309 38.7482 56.8039 36.7346C55.3336 35.8047 54.5028 37.7178 53.8343 38.83C54.917 44.3059 55.1374 44.4096 60.0763 46.2599L60.2071 46.6191C59.8098 47.3169 59.5143 47.1939 58.497 47.5369C58.2039 47.7902 58.0465 47.9193 57.9617 48.3306C56.9516 53.2341 55.5758 57.6134 53.8803 62.3197C58.1191 64.7647 61.876 67.2806 65.4899 70.6264C67.4131 72.4074 69.191 74.5135 71.182 76.1403L71.5211 76.0872L72.1267 75.043C72.9381 73.4558 72.9987 72.9599 73.3596 71.2557C66.6356 66.9689 64.2303 61.0808 61.3334 53.8566C65.5286 57.3358 69.065 63.9266 75.0115 65.4703C88.1567 68.8817 92.9261 48.0358 95.5856 39.2796C93.3475 39.1415 92.553 39.6696 90.2931 38.7334L90.4506 38.2628C92.8558 37.4879 93.6019 37.6156 96.0991 37.733C96.7652 35.8716 96.8015 34.1727 96.8984 32.2269C93.551 29.8866 90.3997 29.4261 86.437 29.071Z" fill="#FDFDFD"/>
<path d="M87.2105 42.1738L86.6655 42.6626C86.0406 44.2545 86.4669 50.0566 86.4984 52.0944C85.3212 52.16 83.4658 51.9546 82.6132 52.3664L82.5308 52.7862L83.0879 53.4918C88.3756 54.308 88.097 50.6367 87.7894 46.6614C87.6731 45.1432 87.6756 43.6373 87.2105 42.1738Z" fill="black"/>
<path d="M77.6658 35.1131C76.3699 35.0889 74.7421 34.953 73.8532 35.9684C74.6767 36.7898 77.6754 36.7602 79.3443 37.0548C80.6087 37.4658 81.3935 37.9088 82.5925 37.4096L82.6797 37.046C81.5001 35.3885 79.4921 35.3154 77.6658 35.1131Z" fill="black"/>
<path d="M77.4534 56.1C77.187 56.0915 76.7873 56.2175 76.5015 56.2853L76.7244 56.9524C78.2503 58.2984 80.7694 58.5835 82.7314 58.6891C82.9276 58.6135 83.2933 58.4118 83.4944 58.3088L83.5234 57.9135C82.4746 57.2162 79.9386 57.2477 77.7489 56.2388L77.4534 56.1Z" fill="black"/>
<path d="M91.8904 42.584C90.8464 42.7812 90.2845 42.9149 89.691 43.8871C89.4997 44.9192 89.599 45.028 89.9454 46.0652C92.3724 46.2432 92.1665 44.2798 91.8904 42.584Z" fill="black"/>
<path d="M78.7879 40.9141C76.6491 41.1585 76.2349 42.4977 76.8235 44.3681L77.4799 44.4248C79.1294 43.7996 78.9986 42.3734 78.7879 40.9141Z" fill="black"/>
<path d="M44.2018 251.52C43.3758 252.716 42.826 257.352 41.5907 258.428C38.0155 261.54 25.1174 258.895 21.8474 259.229C21.6875 259.505 21.455 259.985 21.4405 260.293C21.1571 265.813 17.9792 284.209 20.8204 288.502C26.7281 291.36 34.7964 291.302 41.053 289.56C41.8717 281.468 42.6346 273.368 43.3395 265.263C43.6592 261.39 44.2696 255.223 44.2018 251.52Z" fill="#1B1C1A"/>
<path d="M41.2326 261.316C40.7239 261.365 40.0966 261.525 39.973 262.091C38.8104 267.408 35.991 283.843 37.7858 288.67L38.6796 288.772C39.1059 288.164 38.9799 284.901 39.0114 283.86C39.1204 280.415 39.3917 276.978 39.8253 273.561C40.1256 271.126 41.4942 262.997 41.2326 261.316Z" fill="black"/>
<path d="M107.896 124.462L105.248 122.719C104.139 124.013 103.751 124.506 102.397 125.554C101.707 127.752 101.537 127.993 99.912 129.574C96.9472 129.734 95.6247 128.936 93.0208 129.139C90.3564 131.049 88.4696 132.201 85.3837 133.349C82.5933 134.387 85.265 135.926 81.2175 137.486L81.2756 137.839C81.9175 141.767 80.9051 147.816 84.4124 150.211C92.1029 155.466 92.6672 145.796 98.5774 145.794C99.4881 145.794 102.453 147.188 103.594 147.524C103.095 145.371 101.268 130.386 103.213 129.951C103.797 130.378 103.897 131.138 103.989 131.914C104.756 138.291 105.042 144.141 106.29 150.484C110.122 147.883 119.471 150.467 121.954 144.245C122.439 143.029 122.151 140.605 121.551 139.409C120.744 140.125 120.695 140.306 120.333 141.328C119.079 142.078 119.955 140.929 119.241 141.038C115.341 141.636 110.858 141.854 108.082 138.414C104.606 134.106 107.479 129.059 107.896 124.462Z" fill="#1B1C1A"/>
<path d="M56.3765 162.145C55.2914 162.718 52.3387 165.306 51.0041 166.182C45.9029 169.533 40.4239 173.215 34.6398 175.195C28.6642 177.241 23.3814 178.598 17.4979 175.8C17.4107 179.362 16.6622 179.423 19.7239 181.358C21.7803 182.658 22.6354 186.619 24.6312 187.999C26.5375 189.319 29.6573 187.226 31.6726 187.014C38.1713 185.988 38.9585 193.502 39.4381 198.249C39.9056 198.315 39.6585 198.305 40.126 198.273C46.46 197.845 52.9297 198.058 59.2734 198.121C57.2921 190.089 51.784 190.142 44.9219 188.596C45.0213 190.229 46.0023 195.611 45.0188 196.675L44.5731 196.51C43.1004 193.979 42.788 186.367 42.8074 183.326C50.3331 177.934 54.4751 171.062 56.3765 162.145Z" fill="#FDFDFD"/>
<path d="M123.863 125.615C123.172 126.706 123.047 127.239 122.681 128.447C121.114 133.622 114.471 136.99 110.314 132.346C109.471 131.406 109.06 130.492 108.524 129.448C108.272 132.852 108.35 137.234 111.714 138.875C117.047 141.474 123.083 137.946 123.512 132.03C123.569 131.239 123.782 129.24 124.578 128.964C126.859 132.435 123.695 136.776 121.55 139.408C122.15 140.604 122.438 143.028 121.953 144.244C119.47 150.465 110.12 147.882 106.289 150.483C106.715 154.662 107.718 159.938 108.706 164.07C111.036 164.447 113.412 164.399 115.724 163.928C122.91 162.194 129.524 154.682 129.635 146.595C129.642 146.04 129.325 145.91 128.929 145.672L129.801 142.618C127.565 134.688 129.95 131.833 123.863 125.615Z" fill="#FDFDFD"/>
<path d="M128.931 145.674C124.691 154.287 119.116 149.305 114.178 154.161C114.776 154.605 115.305 154.889 115.445 155.619C115.731 157.108 115.561 161.891 114.911 163.088L115.726 163.929C122.912 162.195 129.526 154.684 129.637 146.596C129.644 146.042 129.327 145.912 128.931 145.674Z" fill="#1B1C1A"/>
<path d="M114.91 163.087C115.561 161.89 115.73 157.107 115.444 155.617C115.305 154.888 114.776 154.604 114.178 154.16C111.549 157.338 111.767 160.346 114.91 163.087Z" fill="#10100F"/>
<path d="M76.5618 1.70919C70.2762 1.43548 65.02 1.80026 59.8268 5.69442C55.37 9.03753 56.5714 10.3353 55.4184 14.6466C54.5925 17.7395 53.5219 19.1684 53.0302 22.744C56.4454 20.9286 57.4943 20.0084 60.2943 17.4956C61.4085 16.4947 66.3086 15.4379 67.9823 15.1245C68.3941 15.1664 68.3723 15.2141 68.7696 15.4031C68.8325 15.5336 69.3412 16.4877 69.4696 16.4574C78.6569 14.2879 86.844 14.5713 95.8594 17.0797C92.0154 7.76346 86.2311 3.59123 76.5618 1.70919Z" fill="#1B1C1A"/>
<path d="M102.274 106.354C99.7381 106.382 97.9626 106.913 95.6324 107.291C90.6354 107.988 88.3198 110.107 84.9893 113.628C82.9523 115.779 79.8543 119.108 77.4587 120.696C77.4006 124.99 78.1926 128.575 80.6778 132.104C88.7098 130.813 87.3219 130.413 94.1234 126.614C96.1193 126.856 97.1608 127.138 99.0283 127.78C99.9851 126.816 100.397 126.548 100.416 125.259C99.5951 123.793 96.7806 123.196 95.0439 122.619C94.3705 122.175 94.2833 122.031 94.3293 121.324C96.5916 120.433 100.353 124.1 102.509 123.283C105.321 119.491 97.7761 118.928 95.7027 117.083C95.4992 116.357 95.4532 116.684 95.7778 116.061C96.7733 115.843 102.969 118.691 104.512 119.292C107.143 112.943 95.0172 114.377 95.4532 111.331L95.7511 111.153C98.4422 111.374 99.3868 110.285 101.983 109.798C103.79 109.459 110.127 110.463 111.035 108.863C109.807 107.047 104.379 106.502 102.274 106.354Z" fill="#FDFDFD"/>
<path d="M99.2387 382.836C97.7903 383.354 98.156 382.407 96.8795 382.712C97.8726 383.534 99.4785 384.209 99.8201 385.505C98.7398 388.136 93.9075 392.331 94.0141 394.697L94.2393 394.865L94.1521 395.058C92.8078 394.806 91.1317 394.351 89.7728 394.019C84.2066 392.668 76.8892 392.823 71.6306 390.696C71.4877 392.188 71.2285 393.365 71.7832 394.722C73.9244 396.962 89.8746 397.396 94.157 398.401C102.976 400.474 114.635 401.218 123.125 397.8C124.122 397.398 125.119 396.909 125.52 395.836C125.396 394.928 125.605 395.274 124.915 394.734C124.61 393.431 125.411 391.549 123.194 390.444C121.74 390.485 120.834 391.268 119.521 392.045C116.261 392.038 113.05 391.563 109.635 391.873C107.213 392.115 102.608 394.925 102.855 390.279C102.988 387.748 105.558 388.107 105.515 386.329C103.86 384.837 101.329 384.251 99.2387 382.836Z" fill="#1B1C1A"/>
<path d="M94.1521 395.058C92.8078 394.806 91.1317 394.35 89.7728 394.019C84.2066 392.667 76.8892 392.822 71.6306 390.695C71.4877 392.187 71.2285 393.365 71.7832 394.721C73.9244 396.962 89.8746 397.395 94.157 398.4C102.976 400.474 114.635 401.217 123.125 397.8C124.122 397.398 125.119 396.908 125.52 395.835C125.396 394.927 125.605 395.273 124.915 394.733C116.856 398.202 102.727 397.582 94.2078 395.082C94.1885 395.075 94.1691 395.067 94.1521 395.058Z" fill="#FDFDFD"/>
<path d="M122.115 87.4505C120.104 87.241 116.293 86.814 114.425 87.4963C112.154 88.3254 106.469 101.876 105.047 104.91C108.61 105.342 111.004 105.562 112.893 108.121C113.295 108.665 118.924 110.005 119.872 109.948L120.302 109.441C118.886 107.861 112.84 104.91 113.698 102.563C114.953 99.1296 121.062 101.637 123.448 102.475C124.601 100.508 130.183 89.2977 130.101 87.7584C127.25 87.7601 124.957 87.6423 122.115 87.4505Z" fill="#454541"/>
<path d="M127.187 89.2402C126.164 89.4963 125.441 89.6583 125.008 90.7311C125.091 91.8368 125.007 91.4379 125.664 92.4315C126.77 92.3162 127.158 92.1241 127.643 91.1089C127.741 90.1648 127.626 90.0633 127.187 89.2402Z" fill="black"/>
<path d="M117.592 102.631C116.662 102.575 116.4 102.529 115.706 102.964C115.612 105.335 121.252 106.176 122.196 108.256C122.566 109.071 122.016 109.944 121.648 110.745C122.178 111.867 122.888 111.34 123.739 112.603L123.643 112.973C122.236 113.298 115.313 110.729 113.152 110.15C111.835 110.832 110.277 111.403 108.887 111.959L109.323 112.09C111.345 112.705 120.486 116.166 121.234 117.56L121.031 118.007C119.042 118.073 110.192 115.477 106.317 115.298L105.937 115.284L106.995 117.874C109.195 118.468 117.988 120.846 118.883 122.354L118.644 122.738C117.675 123.076 117.617 122.842 116.407 122.545C114.084 121.867 111.779 121.09 109.451 120.442C108.272 120.115 106.581 119.415 105.959 120.704C106.833 122.415 115.465 124.654 115.876 126.642C114.52 127.125 111.806 125.803 110.427 125.256L110.452 129.22C112.091 132.032 115.314 134.119 118.336 131.446C118.738 131.091 118.928 130.946 118.936 130.443C118.49 130.312 118.044 130.183 117.597 130.057C117.656 129.518 119.737 127.302 120.247 126.891C123.61 124.182 124.066 120.14 126.073 117.128L126.273 116.832C124.133 106.937 129.954 105.931 117.592 102.631Z" fill="#FDFDFD"/>
<path d="M87.0593 378.439C86.1655 378.459 78.4121 381.082 76.2879 381.501C80.0374 384.41 81.3551 386.781 83.0215 391.253L87.0981 391.875C88.6725 392.142 90.4092 392.602 91.9788 392.982C94.2775 390.439 95.709 388.649 97.5547 385.764C93.9117 383.475 90.5449 380.244 87.0593 378.439Z" fill="#FDFDFD"/>
<path d="M36.6091 392.406C35.352 392.256 31.3675 392.489 30.2847 392.794C29.0155 393.155 24.7936 396.391 24.1978 397.444C24.5296 397.636 24.5563 397.706 24.8929 397.73C27.5065 397.912 28.3688 399.339 31.0889 400.191C32.6537 400.55 35.1122 400.78 36.7399 400.634C40.5912 400.293 41.7732 399.082 44.0234 396.393C42.34 395.294 40.5912 394.388 38.9683 393.002C38.1666 392.319 37.6725 392.406 36.6091 392.406Z" fill="#FDFDFD"/>
<path d="M20.3777 403.416C20.121 403.69 20.1428 403.564 20.1307 403.937C19.8981 410.184 30.5267 410.52 34.8261 410.561C38.2801 410.595 43.6356 410.079 46.1426 407.49C46.3969 406.674 46.6101 405.112 46.7578 404.215C40.1355 409.227 26.9491 408.44 20.3777 403.416Z" fill="#FDFDFD"/>
<path d="M26.7193 340.281C26.0363 340.569 26.2906 340.347 25.9031 340.938C25.748 342.146 26.482 343.713 26.9107 344.879C28.8315 350.246 33.0945 353.739 37.4981 357.062C38.714 357.978 41.5747 359.804 41.2355 361.393C37.8299 364.864 26.0048 364.544 24.0888 368.19C24.0913 369.178 23.9387 368.737 24.6726 369.524C25.9878 367.633 28.2356 367.291 30.5173 366.78C37.5587 365.206 50.4253 363.207 37.8881 355.493C37.5368 355.311 36.786 354.296 36.4638 354.119C30.3817 350.772 29.9239 345.116 26.7193 340.281Z" fill="black"/>
<path d="M72.8338 258.16C72.3154 258.339 72.3542 258.332 71.9715 258.732C71.7244 261.929 72.267 266.134 72.531 269.399C73.311 279.032 74.8442 288.564 76.0311 298.148C76.2975 300.301 76.2103 302.77 76.0795 304.971C76.2297 305.182 76.3775 305.395 76.5276 305.606C77.7751 304.589 77.8962 301.74 77.7218 300.27C76.3072 288.418 74.3549 276.712 73.6525 264.768C73.5483 263.024 73.4151 259.58 72.8338 258.16Z" fill="black"/>
<path d="M76.5218 312.99C75.8944 313.174 75.9259 313.194 75.4052 313.608C74.8844 315.454 74.7415 320.765 74.5671 322.897C73.8356 331.883 72.2079 340.797 74.0899 349.735C74.5429 351.876 74.7512 354.071 75.4657 356.2C76.047 356.214 75.8847 356.219 76.4564 356.081C77.0716 354.739 75.9792 352.755 75.6886 351.321C73.6927 341.512 75.4003 331.823 76.1367 322.001C76.2989 319.821 76.9093 315.076 76.5218 312.99Z" fill="black"/>
<path d="M110.833 384.307C110.012 384.709 109.234 384.985 108.384 385.307L108.592 385.295C107.657 386.872 105.114 389.459 104.903 390.958C105.761 391.321 108.771 390.13 110.082 390.103C111.569 390.074 112.979 390.164 114.45 390.251C116.597 390.273 119.95 390.224 121.883 389.321C121.284 388.432 113.105 385.578 110.833 384.307Z" fill="#FDFDFD"/>
<path d="M97.2431 355.449C93.479 356.631 81.1694 365.53 81.5788 369.714C83.2089 371.787 90.0468 368.234 91.9942 367.333C92.7475 366.967 92.8468 366.935 93.5323 366.402L93.3264 365.857L93.7358 365.838L93.634 365.719C91.8755 365.516 85.2072 368.175 82.9982 368.953C86.5467 363.743 92.0208 360.609 96.9282 356.888C97.4659 356.479 97.2722 356.081 97.2431 355.449Z" fill="black"/>
<path d="M114.282 58.1064C113.408 57.2807 113.694 57.3129 112.679 57.0879C110.625 58.2149 112.686 63.6622 112.267 66.0539C113.435 67.7298 113.801 72.9513 114.59 74.5272C115.235 74.4773 115.31 74.7457 116.048 74.477C117.3 72.7338 115.885 69.8904 116.306 67.4648C115.576 66.6267 114.274 59.5321 114.282 58.1064Z" fill="#B5F936"/>
<path d="M117.514 84.543C115.042 84.3897 114.098 84.3599 111.69 85.0551C109.694 88.4278 102.503 102.634 101.558 106.238C103.951 103.791 105.049 101.114 106.575 98.0986C108.108 94.6574 110.653 87.9121 113.512 85.9598C117.998 85.3036 125.817 86.4113 128.926 85.7471C127.657 84.825 119.448 84.6557 117.514 84.543Z" fill="#575752"/>
<path d="M52.8258 309.086C51.6486 309.791 49.3451 314.059 48.2793 315.415C45.191 319.349 41.8702 323.142 39.3899 327.504C38.903 328.362 38.966 328.391 39.2033 329.277C39.695 329.156 40.0923 329.033 40.4144 328.599C43.9775 323.781 47.6011 319.007 51.1908 314.209C51.8908 313.274 52.5181 312.312 53.0486 311.285C53.4628 310.481 53.1624 309.786 52.8258 309.086Z" fill="black"/>
<path d="M67.5252 16.5C64.994 16.9968 62.2642 18.0119 59.9873 19.2167C60.1884 20.6146 60.3386 22.133 60.4984 23.544C61.2663 23.5307 65.8176 21.6493 67.6875 21.2913C67.484 19.6971 67.5276 18.1081 67.5252 16.5Z" fill="#B5F936"/>
<path d="M72.8363 387.305C72.4148 387.184 72.6619 387.215 72.0903 387.295C71.6615 388.204 71.6906 388.884 72.2065 389.747C74.5754 391.038 77.8478 391.336 80.5631 391.764C80.9724 391.803 80.9627 391.759 81.3842 391.672L81.5586 391.234C81.4835 390.73 81.3406 389.609 81.0572 389.265C79.897 387.855 74.7886 387.572 72.8363 387.305Z" fill="#B5F936"/>
<path d="M29.8363 370.37C28.7633 370.277 27.4674 370.36 26.7407 371.193C27.0411 371.811 30.391 372.111 31.2969 372.29C33.7554 372.777 35.7949 373.368 38.0887 374.366C39.0043 374.727 39.6462 375.212 40.649 375.042L40.7773 374.722C38.8953 371.99 32.9851 370.648 29.8363 370.37Z" fill="black"/>
<path d="M35.4508 381.948C33.3313 381.757 28.9472 381.36 27.9662 383.743L28.2496 384.244C29.2257 384.559 29.1167 384.395 30.2891 384.14C33.5905 383.433 34.7168 384.281 37.7882 383.893C38.338 383.825 38.3622 383.571 38.5391 383.208L38.3647 382.762C37.5363 382.135 36.519 382.113 35.4508 381.948Z" fill="#FDFDFD"/>
<path d="M35.4046 385.37C33.3264 385.086 29.2958 385.234 28.2882 387.375L28.5232 387.838C29.4606 388.146 29.4 387.974 30.5336 387.724C33.9028 386.952 34.5375 387.627 37.696 387.293C38.2337 387.237 38.304 386.956 38.5195 386.598L38.3451 386.038C37.5095 385.392 36.5115 385.464 35.4046 385.37Z" fill="#FDFDFD"/>
<path d="M92.2818 377.137C91.044 377.289 90.7388 377.306 89.5858 377.711L89.4938 378.006C91.1409 379.556 94.7088 382.054 96.8791 382.71C98.1556 382.405 97.7898 383.352 99.2383 382.834L97.6251 381.676C96.0652 380.569 93.752 378.464 92.2818 377.137Z" fill="#1B1C1A"/>
<path d="M37.7852 389.01C35.3218 388.8 31.2138 388.637 29.058 389.89C28.5833 390.672 28.6753 390.246 28.8861 391.231L29.5618 391.336C32.5654 390.577 37.2354 391.093 38.6015 390.391L38.7734 389.827C38.4464 389.068 38.7153 389.381 37.7852 389.01Z" fill="#FDFDFD"/>
<path d="M66.8438 31.543C65.2281 32.0373 62.0745 33.3986 60.3135 34.0587C61.343 35.2201 61.59 35.5357 61.9437 37.0251C62.0866 37.6178 62.1641 37.8407 62.3821 38.4113L62.8132 38.5913C64.0703 37.8646 64.7316 34.1616 66.6112 31.829L66.8438 31.543Z" fill="#D0D1CC"/>
<path d="M103.604 208.158C102.429 208.282 100.579 208.296 99.3459 208.337C100.15 209.931 100.925 211.348 101.804 212.901L103.863 215.379C103.825 213.085 103.849 210.411 103.604 208.158Z" fill="#1B1C1A"/>
<path d="M40.5157 383.301C40.0337 383.926 40.6732 390.89 40.7604 392.176C41.642 393.157 41.986 393.445 43.0348 394.256C43.495 392.646 41.2594 386.648 41.785 384.403C41.894 383.935 40.9008 383.521 40.5157 383.301Z" fill="#1B1C1A"/>
<path d="M23.5363 384.195C23.0325 384.394 22.984 384.438 22.5141 384.714C21.5428 386.433 21.5162 390.554 21.4096 392.654C24.3574 390.304 23.8342 387.635 23.5363 384.195Z" fill="#B5F936"/>
<path d="M101.602 377.15C100.442 377.33 97.545 378.143 97.4457 379.512L98.3686 380.399C99.26 380.529 102.314 379.18 102.426 377.928L101.602 377.15Z" fill="#FDFDFD"/>
<path d="M99.2873 375.137C97.7686 375.248 95.063 375.209 94.1595 376.411C94.3606 377.246 94.3969 377.041 95.2471 377.726L95.5305 377.915C96.4339 377.864 99.1831 376.515 99.6797 375.72L99.2873 375.137Z" fill="#FDFDFD"/>
<path d="M26.122 383.066C25.8871 383.207 25.6521 383.347 25.4147 383.488C25.0296 385.566 25.5358 389.214 24.9254 391.176L25.095 391.239C25.6351 390.391 25.5261 390.837 25.4753 389.868L25.6037 389.742L26.3206 390.226L26.3909 391.028C26.3618 392.406 26.5919 392.622 25.8507 393.831L26.277 393.562C26.9625 392.147 26.6404 384.992 26.122 383.066Z" fill="#1B1C1A"/>
<path d="M104.452 379.598C103.44 379.857 101.63 380.69 101.172 381.635C101.468 382.449 101.516 382.262 102.417 382.86C103.682 381.887 104.946 381.969 105.617 380.998C105.409 380.169 105.268 380.29 104.452 379.598Z" fill="#FDFDFD"/>
<path d="M104.745 111.648C102.812 111.591 102.158 111.716 100.237 112.04C101.8 112.751 102.359 112.865 104.018 113.255C105.835 113.242 106.77 113.255 108.562 113.48C107.213 112.563 106.344 111.77 104.745 111.648Z" fill="#575752"/>
<path d="M108.609 382.221C107.369 382.289 104.971 382.671 104.532 383.979L105.237 384.737C106.204 384.895 108.536 383.907 109.035 383.013L108.609 382.221Z" fill="#FDFDFD"/>
<path d="M107.14 74.022C105.139 73.3719 101.491 63.437 98.8392 66.4148C98.4225 69.67 104.984 74.4405 106.474 77.1149C107.293 77.3813 107.605 77.5404 108.172 76.8862C108.092 75.8112 107.477 75.095 107.14 74.022Z" fill="#B5F936"/>
</svg>
