<svg width="250" height="260" viewBox="0 0 250 260" fill="none" xmlns="http://www.w3.org/2000/svg">
<g clip-path="url(#clip0_923_64389)">
<path d="M55.289 239.347C52.4352 237.757 48.6045 235.04 47.7484 231.635C47.6033 231.049 47.5984 230.073 47.9515 229.56C48.6141 228.596 49.2188 228.269 50.2829 227.83C51.6227 227.78 54.0314 229.099 54.9068 228.375C54.9987 228.299 55.2019 227.986 55.2648 227.897C55.9564 226.896 56.5611 225.758 57.8864 225.581C59.2987 225.392 59.7727 225.576 60.9432 226.256C62.3701 228.528 61.8864 231.455 61.3108 233.944C60.8416 235.993 59.9952 237.811 58.9408 239.615C57.4075 240.087 56.8126 239.759 55.289 239.347Z" fill="#1C1C1C"/>
<path d="M57.2424 227.144C57.9679 227.271 58.9981 227.455 59.4528 228.044C60.3186 229.164 60.188 231.918 59.98 233.273C59.6898 235.146 58.7998 236.235 57.31 237.334C55.4962 237.552 54.7272 236.886 53.1165 236.085C51.946 235.02 50.3595 233.691 50.0113 232.068C49.7694 230.944 49.7694 230.472 50.3789 229.478C52.3716 229.28 53.7308 231.208 55.4189 230.985L57.2424 227.144Z" fill="#FFA0E4"/>
<path d="M21.1262 51.8875C20.9908 39.74 21.31 21.7059 20.9037 9.02338C20.4103 8.34064 19.9992 7.76822 19.6654 7.3071C19.1576 1.04929 19.5591 -8.70638 19.6316 -15.2589C19.6365 -15.7539 20.865 -17.4619 20.865 -17.4619C21.6195 -21.3502 19.2398 -24.3483 19.5639 -29.9974C20.004 -32.2948 18.7948 -43.6883 19.4381 -45.3668C22.4902 -53.3133 20.1685 -59.2276 19.68 -67.3904C19.4478 -71.2226 20.6715 -75.9185 20.7973 -79.8746C21.1552 -94.0015 19.3511 -110.468 33.4117 -119.172C43.632 -125.496 61.001 -123.693 72.9818 -123.705L163.295 -123.712C171.208 -123.71 184.142 -124.212 191.31 -122.677C214.508 -117.71 212.984 -96.6961 212.844 -78.1428C212.781 -69.6375 212.757 -61.1123 212.815 -52.6001C212.834 -49.4768 212.075 -42.9577 213.661 -40.64C213.937 -40.2509 214.454 -39.513 214.445 -39.0171C214.275 -28.0058 214.706 -16.8609 214.251 -5.86609C214.058 -1.25535 212.892 3.21362 212.815 8.04453C212.713 22.319 212.708 36.594 212.786 50.8689C221.095 50.9778 226.285 51.3552 229.787 59.6946C231.441 60.2675 232.505 60.7964 233.352 62.4507C236.713 69.0274 236.094 131.918 235.243 142.756C235.025 145.576 234.609 148.676 233.56 151.315C232.501 153.986 229.212 156.218 226.648 157.262C222.324 159.018 217.434 158.905 212.844 158.812L212.602 180.81C212.578 183.033 212.355 189.828 212.558 191.691C226.875 191.389 242.682 187.488 240.273 207.341C239.383 214.653 244.288 234.542 232.36 235.466C200.326 236.057 168.301 235.605 136.262 235.438C129.036 235.4 126.995 233.548 124.339 227.105C122.153 227.141 119.232 227.46 117.408 226.435L116.929 225.533C117.616 223.477 121.776 220.588 123.609 218.19C122.932 217.868 122.685 217.828 121.79 217.837C104.363 218.011 86.9023 217.739 69.4993 217.941C68.7932 218.605 68.1982 219.162 67.7194 219.614C66.0071 219.482 65.9491 219.014 64.3239 217.792L62.9793 217.803C51.8207 217.884 36.9426 218.751 28.7732 209.967C17.6581 198.017 21.0488 169.403 21.1068 153.734C17.6678 152.277 14.3981 150.735 12.6956 147.174C9.56129 140.618 9.126 67.944 11.8733 60.4572C13.6194 55.695 16.7488 53.8452 21.1262 51.8875Z" fill="#0C0C0C"/>
<path d="M21.8669 151.882C18.157 150.366 15.6515 149.113 14.0844 145.131C11.5789 138.757 13.0203 126.376 12.6382 119.361C12.0432 108.436 10.5777 68.4328 14.2586 59.7726C15.3565 57.2531 17.4315 55.2901 20.0047 54.3359C24.0483 52.8364 59.391 52.8108 66.0707 52.7488C109.781 52.2055 153.492 52.2161 197.197 52.7822C203.108 52.8596 218.673 52.071 223.045 54.1937C225.406 55.3327 227.205 57.3867 228.022 59.881C228.462 61.2262 228.806 64.1008 228.811 65.5862C228.888 89.2825 229.43 113.021 228.946 136.712C228.714 148.271 223.79 151.257 212.907 152.093L212.636 153.218L213.309 153.586L212.835 154.398L212.844 158.815L212.602 180.812C212.578 183.036 212.356 189.83 212.559 191.694C226.876 191.392 242.683 187.491 240.274 207.343C239.384 214.656 244.289 234.544 232.361 235.468C200.327 236.059 168.302 235.608 136.263 235.44C129.037 235.402 126.995 233.551 124.34 227.107C122.154 227.143 119.232 227.463 117.409 226.438L116.93 225.535C117.617 223.48 121.776 220.591 123.61 218.193L125.273 218.948C126.816 216.246 126.255 207.987 126.207 204.447L125.743 206.652C125.177 206.415 125.201 206.457 124.698 206.11C123.039 207.204 80.8472 206.66 75.3332 206.643C73.9692 201.424 70.4964 199.005 66.4189 203.776C63.275 203.929 60.5228 199.231 57.2144 205.02L57.0113 205.817C55.744 207.011 54.946 206.83 53.1854 206.926C27.8694 208.302 32.9384 182.369 33.1028 164.211C32.9964 161.723 32.6143 156.924 33.3544 154.556C33.5527 153.927 34.0412 153.966 34.8344 153.709C34.0605 153.379 33.0496 153.229 32.2032 153.052L32.0194 152.422L30.3652 152.384C27.5356 152.195 24.7013 152.027 21.8669 151.882Z" fill="white"/>
<path d="M32.0192 152.42C41.2575 151.953 53.7365 152.371 63.1587 152.409L124.122 152.588L174.154 152.398C180.21 152.37 192.626 151.915 197.831 152.329C200.293 152.414 204.757 152.206 206.721 152.71C206.813 153.293 206.88 153.527 206.875 154.106C208.201 154.123 211.591 154.128 212.834 154.396L212.844 158.812L212.602 180.81C212.578 183.033 212.355 189.828 212.558 191.691C226.875 191.389 242.682 187.488 240.273 207.341C239.383 214.653 244.288 234.542 232.36 235.466C200.326 236.057 168.301 235.605 136.262 235.438C129.036 235.4 126.995 233.548 124.339 227.105C122.153 227.141 119.232 227.46 117.408 226.435L116.929 225.533C117.616 223.477 121.776 220.588 123.609 218.19L125.273 218.945C126.816 216.243 126.255 207.985 126.207 204.444L125.742 206.65C125.177 206.413 125.201 206.455 124.698 206.108C123.039 207.202 80.8469 206.658 75.333 206.641C73.969 201.422 70.4962 199.003 66.4187 203.774C63.2748 203.927 60.5226 199.228 57.2142 205.018L57.011 205.815C55.7438 207.008 54.9458 206.828 53.1852 206.924C27.8692 208.3 32.9382 182.367 33.1026 164.209C32.9962 161.721 32.6141 156.922 33.3541 154.554C33.5525 153.925 34.0409 153.964 34.8342 153.706C34.0603 153.377 33.0494 153.226 32.203 153.05L32.0192 152.42Z" fill="#F2F2F2"/>
<path d="M212.558 191.691C226.875 191.389 242.682 187.488 240.273 207.341C239.383 214.653 244.288 234.542 232.36 235.466C200.326 236.057 168.301 235.605 136.262 235.438C129.036 235.4 126.995 233.548 124.339 227.105C122.153 227.141 119.232 227.46 117.408 226.435L116.929 225.533C117.616 223.477 121.776 220.588 123.609 218.19L125.273 218.944C126.816 216.242 126.255 207.984 126.207 204.443C126.226 202.384 126.395 199.989 126.492 197.903C127.842 196.017 129.322 193.723 131.822 193.551C153.312 192.073 175.9 193.963 197.337 192.706C200.704 193.146 208.341 192.862 212.041 192.82L212.558 191.691Z" fill="#D9DBD5"/>
<path fill-rule="evenodd" clip-rule="evenodd" d="M214.724 192.803C215.587 192.796 216.419 192.788 217.222 192.781C216.985 192.783 216.746 192.785 216.503 192.787C215.925 192.792 215.332 192.798 214.724 192.803Z" fill="#0C0C0C"/>
<path d="M220.932 219.813L222.242 218.727C225.106 218.89 228.564 218.748 229.246 222.44C228.743 223.977 228.197 224.354 227.05 225.438C225.996 225.617 225.691 225.624 224.612 225.615C223.563 227.375 224.854 228.243 222.508 228.643C221.943 226.955 222.305 225.371 221.759 223.219L220.932 219.813Z" fill="#0C0C0C"/>
<path d="M220.932 219.813L222.242 218.727C222.76 221.444 222.649 225.801 222.508 228.643C221.943 226.955 222.305 225.371 221.759 223.219L220.932 219.813Z" fill="#D9DBD5"/>
<path d="M224.485 219.895C225.1 220.085 225.7 220.397 226.29 220.657C227.025 222.159 226.769 222.834 226.58 224.468C225.772 224.319 225.245 224.021 224.548 223.59C223.881 222.358 224.258 221.209 224.485 219.895Z" fill="#D9DBD5"/>
<path d="M146.385 201.465C149.176 202.201 149.171 205.404 151.396 206.298C151.561 204.929 151.716 203.559 151.861 202.189L152.49 201.757L153.167 202.216C153.718 205.027 153.404 208.081 153.326 210.935C150.971 210.24 150.119 208.106 148.814 206.156L148.209 206.077C148.175 207.664 148.228 209.183 147.604 210.672L146.937 210.685C145.481 208.747 146.284 203.896 146.385 201.465Z" fill="#0C0C0C"/>
<path d="M202.265 221.433C201.114 220.624 200.679 220.388 200.243 219.025C201.003 216.122 204.63 215.782 206.444 217.834L206.396 218.766C204.65 218.739 203.063 217.902 202.246 218.359C203.203 221.514 204.746 219.799 206.817 222.621C206.938 224.127 207.097 223.532 206.139 224.843C203.402 226.378 200.548 225.776 200.059 222.396L199.939 222.323C200.563 221.919 201.525 221.673 202.265 221.433Z" fill="#0C0C0C"/>
<path d="M202.265 221.433C203.789 222.131 204.326 222.031 204.959 223.258L204.224 224.211C202.067 224.139 202.415 222.644 200.059 222.396L199.939 222.323C200.563 221.919 201.525 221.673 202.265 221.433Z" fill="#D9DBD5"/>
<path d="M192.113 220.149L191.368 225.434L190.827 225.228C190.188 223.63 189.516 221.847 188.81 220.298L188.026 220.816C187.63 222.829 188.137 224.366 187.315 225.403L186.507 225.355C185.584 223.684 185.874 221.123 186.382 219.345C188.669 218.74 192.786 218.635 195.059 219.283C195.901 220.797 195.533 223.73 195.306 225.531L194.836 225.404C193.864 223.35 193.908 222.635 193.792 220.331L192.113 220.149Z" fill="#0C0C0C"/>
<path d="M189.476 203.851C192.456 204.101 195.958 203.164 198.275 204.668C199.358 205.807 199.194 207.615 199.266 209.247C198.637 210.714 199.044 210.21 197.694 211.135C197.24 208.672 197.709 208.207 196.824 205.409L196.287 205.301C194.662 207.464 195.464 209.001 194.41 210.585C193.636 210.079 192.819 206.521 192.374 205.18L191.759 205.019C190.231 207.262 191.9 208.282 190.71 210.46L189.907 210.327C189.201 208.756 189.457 205.717 189.476 203.851Z" fill="#0C0C0C"/>
<path d="M161.979 204.187L162.898 204.133C163.474 205.396 163.556 205.63 163.764 207L164.354 206.97C164.712 206 165.061 205.025 165.399 204.046L166.183 203.953C166.879 205.047 167.344 205.853 167.938 207.006C168.882 205.055 168.306 204.767 169.66 203.887L170.207 204.342C169.941 205.644 168.993 209.932 168.258 210.689C167.073 210.286 166.753 208.993 165.98 207.587C164.886 208.35 165.143 210.134 164.03 210.842C162.86 209.95 162.671 208.635 162.047 207.05L160.64 207.631L160.799 205.148L161.979 204.187Z" fill="#0C0C0C"/>
<path d="M160.799 205.148L161.979 204.187C161.946 205.042 161.82 206.263 162.047 207.05L160.64 207.631L160.799 205.148Z" fill="#D9DBD5"/>
<path d="M199.848 205.317C201.347 204.123 201.565 203.921 203.524 203.756C205.077 204.397 204.554 203.986 205.551 205.273L205.217 205.647L202.339 205.634L202.324 205.99C204.225 207.128 204.912 207.096 205.763 208.766C205.304 210.126 204.781 210.372 203.63 211.209C201.589 210.929 199.742 211.059 197.696 211.134C199.045 210.209 198.639 210.714 199.268 209.246L199.848 205.317Z" fill="#0C0C0C"/>
<path d="M199.268 209.243L199.848 205.314C202.15 208.913 202.387 206.457 204.066 208.874C202.465 210.035 200.941 208.037 200.399 209.55C201.768 210.98 201.517 210.589 203.63 211.206C201.589 210.925 199.742 211.055 197.696 211.131C199.045 210.206 198.639 210.71 199.268 209.243Z" fill="#D9DBD5"/>
<path d="M221.759 223.222C220.288 225.061 220.491 224.94 218.46 225.683C214.702 225.011 213.826 220.889 217.309 218.909C219.055 218.721 219.432 219.018 220.932 219.815L221.759 223.222Z" fill="#0C0C0C"/>
<path d="M217.676 220.698C218.498 220.418 219.398 220.828 219.726 221.633C220.055 222.438 219.697 223.36 218.914 223.736C218.362 224 217.714 223.936 217.221 223.572C216.732 223.207 216.486 222.601 216.582 221.999C216.674 221.395 217.095 220.895 217.676 220.698Z" fill="#D9DBD5"/>
<path d="M160.882 209.266C160.094 210.419 159.731 210.406 158.323 210.897C154.328 210.327 153.772 205.119 157.341 203.69C159.165 203.876 159.387 204.076 160.8 205.15L160.64 207.633L160.311 207.637L160.882 209.266Z" fill="#0C0C0C"/>
<path d="M160.882 209.266C159.31 209.211 157.951 209.322 156.829 208.322C158.169 207.414 158.468 207.707 160.311 207.637L160.882 209.266Z" fill="#D9DBD5"/>
<path d="M155.276 223.654C155.145 225.129 155.406 224.67 154.453 225.509C152.959 225.582 152.035 225.784 150.777 224.935C149.249 222.463 150.12 220.66 152.18 218.823C153.844 218.42 153.215 218.34 154.613 218.972C155.706 220.435 155.837 220.631 156.122 222.469L155.276 223.654Z" fill="#0C0C0C"/>
<path d="M155.276 223.654C154.071 224.193 154.027 224.234 152.74 224.157L152.242 223.538C153.582 222.233 153.733 222.65 156.122 222.469L155.276 223.654Z" fill="#D9DBD5"/>
<path d="M152.18 220.637L153.577 220.4L153.253 221.254L152.228 221.279L152.18 220.637Z" fill="#D9DBD5"/>
<path d="M179.591 218.884C180.694 218.793 182.208 218.534 183.185 219.057C184.152 219.565 184.858 220.46 185.134 221.52C185.381 222.495 185.013 223.743 184.471 224.565C183.605 225.874 181.787 225.758 180.374 225.984C179.576 225.048 179.223 224.465 179.078 223.236C179.963 221.87 181.052 221.739 182.541 221.145L182.725 220.439C181.748 220.445 180.907 220.381 179.959 220.153L179.591 218.884Z" fill="#0C0C0C"/>
<path d="M181.317 223.196C181.936 222.905 182.062 222.882 182.749 222.935L182.647 224.737C181.926 224.548 181.51 224.279 180.906 223.865L181.317 223.196Z" fill="#D9DBD5"/>
<path d="M162.831 222.877C161.897 226.322 158.115 226.729 156.983 224.108C158.415 223.105 158.028 224.534 160.006 224.036C158.932 222.809 157.501 221.44 157.109 219.905L157.636 219.13C160.529 218.419 160.562 218.456 162.613 220.395L163.199 220.441L163.885 220.76C163.508 221.852 163.576 222.29 162.831 222.877Z" fill="#0C0C0C"/>
<path d="M163.199 220.439L163.886 220.758C163.509 221.85 163.577 222.288 162.832 222.875C161.531 222.218 160.051 221.746 159.33 220.699C160.66 220.225 161.226 220.324 162.614 220.393L163.199 220.439Z" fill="#D9DBD5"/>
<path d="M182.489 205.194C184.646 203.676 186.29 203.027 188.09 205.488C187.717 207.114 188.056 206.582 186.905 207.595L184.099 208.075C184.825 208.159 187.04 208.331 187.548 208.607L187.49 209.905C185.797 211.376 183.896 210.79 182.436 209.219L182.489 205.194Z" fill="#0C0C0C"/>
<path d="M184.099 208.077C184.824 208.161 187.04 208.334 187.547 208.609C185.506 209.525 185.322 209.786 184.099 208.077Z" fill="#D9DBD5"/>
<path d="M172.476 220.721C173.855 218.975 173.197 219.363 175.199 218.587C177.013 218.988 177.695 219.565 178.3 221.473L177.961 222.268C176.82 222.517 175.678 222.75 174.532 222.965L174.222 223.789L174.73 224.384C175.533 224.231 176.883 223.905 177.647 223.977C177.608 225.111 177.608 224.77 176.8 225.862C174.14 226.838 172.394 224.346 172.06 221.916L172.476 220.721Z" fill="#0C0C0C"/>
<path d="M208.303 216.062L209.434 216.695C209.517 217.583 209.58 218.134 210.078 218.884C211.258 218.702 211.993 218.529 213.072 219.101C213.938 220.461 214.15 222.015 213.86 223.593C213.696 224.502 213.701 224.91 212.917 225.438C212.027 224.521 212.032 223.32 211.863 222.106C212.124 221.32 212.022 221.259 211.722 220.471L210.794 220.148C208.941 221.571 210.639 223.814 209.304 225.434L208.516 225.201C207.592 223.029 208.23 218.525 208.303 216.062Z" fill="#0C0C0C"/>
<path d="M163.199 220.436C163.789 219.251 163.509 219.09 164.51 217.53C165.898 217.852 165.637 218.029 166.614 219.484L167.915 219.765L167.731 222.682L166.875 225.204C165.41 225.696 165.922 225.749 164.607 225.373C163.838 224.099 163.959 222.326 163.886 220.755L163.199 220.436Z" fill="#0C0C0C"/>
<path d="M166.614 219.487L167.915 219.769L167.731 222.686L166.875 225.208C165.298 223.008 165.066 221.749 166.614 219.487Z" fill="#D9DBD5"/>
<path d="M180.969 209.746L181.709 210.282C180.422 210.764 180.809 210.61 179.271 210.346C178.434 208.324 177.539 203.683 179.31 202.061C179.972 203.049 180.437 203.631 181.346 204.401L182.487 205.195L182.434 209.22L180.969 209.746Z" fill="#0C0C0C"/>
<path d="M181.346 204.401L182.487 205.195L182.434 209.22L180.969 209.746C179.808 206.965 179.764 206.857 181.346 204.401Z" fill="#D9DBD5"/>
<path d="M213.482 203.928C215.117 203.857 216.892 203.523 218.241 204.628C219.006 205.588 219.688 206.644 219.538 207.938C219.417 209.023 219.064 209.471 218.212 210.054C217.245 208.979 217.564 208.128 217.588 206.731C217.414 205.843 217.443 205.746 216.781 205.148C214.919 206.066 215.581 209.454 213.845 210.618C213.424 208.423 213.501 206.155 213.482 203.928Z" fill="#0C0C0C"/>
<path d="M167.914 219.77L168.33 218.975C169.752 218.689 170.159 218.513 171.469 219.075L171.619 219.905L172.475 220.725L172.06 221.921C171.145 223.8 171.706 223.159 169.854 224.294L169.656 225.257L168.882 225.645C167.721 224.39 168.055 224.627 167.731 222.687L167.914 219.77Z" fill="#0C0C0C"/>
<path d="M169.854 224.292C169.719 221.707 169.249 221.137 171.619 219.903L172.476 220.723L172.06 221.919C171.145 223.798 171.706 223.157 169.854 224.292Z" fill="#D9DBD5"/>
<path d="M143.455 218.616L144.877 219.072L146.203 222.178L146.686 222.234C146.947 221.132 147.257 220.064 147.61 218.988L148.684 218.736L149.018 219.256L148.64 220.808C148.398 222.017 148.244 223.648 147.436 224.611C146.962 225.173 146.73 225.04 146.009 225.077C144.273 223.611 143.881 220.739 143.455 218.616Z" fill="#0C0C0C"/>
<path d="M134.164 216.116C136.974 217.982 134.773 220.312 135.47 222.918C135.944 224.706 138.425 223.833 139.683 225.436C138.623 225.542 137.506 225.7 136.447 225.669C135.504 225.642 134.822 225.364 134.241 224.632C132.829 222.852 133.941 218.284 134.164 216.116Z" fill="#0C0C0C"/>
<path d="M174.981 201.461L175.818 201.863C177.448 204.202 176.65 208.165 176.413 210.914C175.827 210.653 175.513 210.327 175.068 209.88C174.483 207.146 174.836 204.236 174.981 201.461Z" fill="#0C0C0C"/>
<path d="M140.818 218.394C141.398 218.609 141.674 218.91 142.104 219.335C142.719 221.471 142.337 223.738 142.138 225.917L140.852 225.079C140.141 222.983 140.615 220.56 140.818 218.394Z" fill="#0C0C0C"/>
<path d="M210.489 203.464C210.977 203.697 211.35 204.017 211.775 204.348C212.399 206.498 211.988 208.81 211.78 211.006L210.668 210.15C209.928 208.004 210.237 205.672 210.489 203.464Z" fill="#0C0C0C"/>
<path d="M230.425 216.165L231.475 216.959C232.099 218.865 231.678 221.047 231.489 223.013L230.304 222.229C229.52 220.236 229.878 218.168 230.425 216.165Z" fill="#0C0C0C"/>
<path d="M192.113 220.145L193.791 220.327C193.646 221.943 193.685 223.104 192.896 224.51C192.132 223.344 192.209 221.623 192.113 220.145Z" fill="#D9DBD5"/>
<path d="M32.0192 152.42C41.2575 151.953 53.7365 152.371 63.1587 152.409L124.122 152.588L174.154 152.398C180.21 152.37 192.626 151.915 197.831 152.329C200.293 152.414 204.757 152.206 206.721 152.71C206.813 153.293 206.88 153.527 206.875 154.106C206.75 155.313 206.643 156.944 206.343 158.083C206.329 156.302 206.411 155.694 205.715 154.044L205.11 154.064L204.413 155.279L203.717 153.987C202.285 153.238 202.904 153.318 201.395 153.626C195.818 154.46 178.241 153.969 171.581 154.028C173.4 156.066 173.859 156.792 175.209 159.178C175.272 164.039 173.811 165.854 169.835 168.336C168.872 168.444 167.91 168.524 166.943 168.577C142.899 169.643 114.323 168.967 90.0805 168.873L63.0958 168.751C57.3738 168.72 51.5068 168.81 45.8187 168.251C40.1741 167.697 38.9116 164.401 38.752 159.369C36.7109 159.192 35.4001 158.725 33.8088 159.564C33.1993 161.086 33.209 162.571 33.1026 164.209C32.9962 161.721 32.6141 156.922 33.3541 154.554C33.5525 153.925 34.0409 153.964 34.8342 153.706C34.0603 153.377 33.0494 153.226 32.203 153.05L32.0192 152.42Z" fill="#0C0C0C"/>
<path d="M44.2707 154.192C53.2478 153.696 62.4039 154.222 71.4004 154.305L117.404 154.453L154.333 154.363C159.15 154.351 165.516 153.546 170.115 154.589C171.339 154.866 172.292 156.047 172.839 157.107C173.791 158.951 174.251 161.483 173.491 163.462C172.655 165.639 170.894 166.585 168.877 167.451C137.834 167.944 106.792 168.043 75.7488 167.745C69.0933 167.7 48.6383 168.561 43.7338 166.762C42.1957 166.198 41.0203 165.127 40.3964 163.605C39.7192 161.948 39.5354 159.441 40.2658 157.782C41.0735 155.964 42.4423 154.854 44.2707 154.192Z" fill="white"/>
<path d="M201.394 153.625C202.903 153.317 202.284 153.237 203.716 153.986L204.412 155.279C204.683 158.836 204.582 181.076 204.19 184.617C203.711 186.758 203.784 189.571 202.889 190.806L201.389 191.235L201.264 186.91C201.578 175.97 201.191 164.675 201.394 153.625Z" fill="#0C0C0C"/>
<path d="M204.413 155.279L205.11 154.064L205.715 154.044C206.411 155.694 206.329 156.302 206.343 158.083C206.082 162.281 206.474 188.985 204.887 190.985C203.954 188.725 204.22 187.068 204.191 184.617C204.583 181.076 204.684 158.837 204.413 155.279Z" fill="white"/>
<path d="M124.431 203.322C119.439 203.325 90.1134 203.619 86.8679 202.858L86.6841 202.073C92.2996 199.568 116.658 200.872 124.494 200.9L124.431 203.322Z" fill="#0C0C0C"/>
<path d="M185.956 155.499C186.948 156.586 189.095 158.647 189.337 159.909L188.776 160.212L186.401 157.489C186.416 159.534 186.672 163.714 185.98 165.408C184.916 163.157 185.608 160.627 184.689 158.757C183.876 159.377 183.581 159.474 182.638 159.892C182.986 158.261 184.732 156.773 185.956 155.499Z" fill="#0C0C0C"/>
<path d="M197.831 152.329C202.624 151.991 208.099 152.046 212.907 152.092L212.636 153.217L213.308 153.585L212.834 154.396C211.591 154.128 208.201 154.123 206.875 154.106C206.88 153.527 206.813 153.293 206.721 152.71C204.757 152.206 200.293 152.414 197.831 152.329Z" fill="#0C0C0C"/>
<path d="M45.4646 61.2437C51.5107 60.8518 87.2355 60.4153 90.8293 63.3814C92.793 65.0029 93.4944 69.7147 93.7362 72.0721C94.5488 80.0941 95.4146 123.264 91.7096 127.32C87.8305 131.562 77.2184 130.497 71.8496 130.585C63.7527 130.792 30.2528 132.653 25.0435 128.846C23.1523 127.465 22.3542 123.579 22.0108 121.421C20.7678 113.662 20.0133 69.0126 23.9263 64.3075C27.0654 60.5344 40.5601 61.3889 45.4646 61.2437Z" fill="#0C0C0C"/>
<path d="M35.4919 63.2178C42.8148 62.9532 86.1529 61.5756 90.1432 64.5243C91.4298 66.4936 91.9184 68.8723 92.1796 71.1818C92.9003 77.5393 93.442 123.436 90.5447 126.575C88.1118 129.213 82.9751 128.77 79.7199 128.824C68.3437 128.722 34.2198 131.402 25.47 127.45C23.8496 125.542 23.5062 122.356 23.3321 119.946C22.8242 112.878 21.7698 68.5762 24.8605 65.3338C27.2838 62.7882 32.2657 63.3088 35.4919 63.2178Z" fill="#D9DBD5"/>
<path d="M54.5443 74.289C58.912 73.9484 68.0149 74.0075 70.1141 78.7372C70.6365 79.914 71.125 82.5012 72.0005 83.3015C73.4225 84.5978 76.6825 84.3737 78.4431 85.3468C80.6729 86.5768 82.4045 89.5632 83.0768 91.953C84.0925 95.5583 83.4105 99.7921 81.5048 102.995C78.9703 107.261 75.9957 108.456 71.4491 109.6C71.3136 110.184 71.1685 110.766 71.0089 111.344C70.0319 114.915 68.4695 116.494 65.2917 118.286C63.565 118.89 61.698 119.316 59.889 119.608C53.9494 120.57 45.4753 120.164 40.6191 116.376C38.5973 114.797 37.9201 111.424 37.5622 109.026C36.9141 104.661 35.9225 81.0816 38.1765 78.4382C41.4123 74.6428 49.9542 74.6394 54.5443 74.289Z" fill="#0C0C0C"/>
<path d="M67.8791 83.0748L68.6288 82.5208C69.572 83.2553 69.2866 83.2524 69.5962 84.8071C68.7255 87.883 67.9565 87.7156 65.0399 88.7815C64.2999 91.1471 61.7605 97.6517 62.7231 99.2644C66.2588 100.378 66.2733 98.8188 68.9481 97.9019C69.2528 100.058 69.5091 104.408 68.6675 106.441L68.4063 106.439C67.5647 106.441 67.3761 106.389 66.607 106.773L66.7328 107.552L68.4837 108.645L68.5418 109.474C67.4873 110.121 67.2794 109.774 65.7558 109.448L65.6252 110.152C66.4377 110.669 67.2455 111.196 68.0484 111.733C68.1983 113.196 67.4003 113.916 66.3072 114.864C65.2092 115.683 60.9382 117.654 59.6226 117.43C58.457 116.394 58.8439 115.163 58.5489 113.107L56.053 112.075C55.7967 111.053 56.2997 110.715 56.9769 109.552C56.9914 107.931 57.1269 108.574 56.0386 106.979C53.4847 106.197 54.2102 107.204 51.4194 107.208C51.1147 106.285 51.9708 102.956 52.1497 101.324C50.8245 100.595 49.6926 100.243 48.2803 99.743C46.3117 100.974 44.938 102.763 43.4192 104.514C43.6949 101.887 44.5753 99.7217 44.0432 97.1117C43.0323 95.709 43.5644 96.1783 41.828 95.4269C40.7058 95.4235 40.3188 95.5474 39.4869 94.9029C38.4276 92.2029 39.0419 85.5522 39.2064 82.5014C42.3455 84.0116 43.4047 84.3585 46.7373 85.2629C55.018 85.9209 60.0822 86.1604 67.8791 83.0748Z" fill="#F2F2F2"/>
<path d="M39.2064 82.5014C42.3455 84.0116 43.4047 84.3585 46.7373 85.2629C44.5607 85.3422 43.9658 85.409 41.8812 84.8051L40.7687 85.3374L40.5655 86.5732C43.753 86.1667 44.73 85.9673 47.3081 87.9188L47.7531 88.9257C46.8244 91.1307 42.5341 92.4115 40.7397 94.1858L41.828 95.4269C40.7058 95.4235 40.3188 95.5474 39.4869 94.9029C38.4276 92.2029 39.0419 85.5522 39.2064 82.5014Z" fill="#B5FE28"/>
<path d="M42.4179 88.9448C42.8242 88.3516 43.6175 88.1662 44.2463 88.5175C44.875 88.8683 45.1314 89.6401 44.8412 90.2996C44.6284 90.7849 44.1592 91.1072 43.632 91.1314C43.0999 91.156 42.6017 90.8783 42.3454 90.4148C42.089 89.9512 42.118 89.3817 42.4179 88.9448Z" fill="#30302F"/>
<path d="M50.8247 93.6025C51.9662 91.0221 52.9045 88.9647 56.2178 90.0906C57.6253 92.6909 54.3604 96.0915 56.2951 96.8308C59.7728 95.8941 58.1331 92.132 59.8744 90.4071L60.5467 90.8227C60.8998 92.9043 59.9372 95.8684 59.0231 97.742C56.9819 98.6874 56.7063 98.8036 54.4668 98.7615C53.5236 98.431 52.6336 97.9065 51.7485 97.4304C50.6021 95.5747 50.9456 96.0083 50.8247 93.6025Z" fill="#0C0C0C"/>
<path d="M54.0309 90.8074C54.5194 91.1819 54.7564 91.582 55.0901 92.0853C55.2836 93.7052 54.2485 95.1897 53.5133 96.5712C52.6814 96.036 52.6814 95.8076 52.3234 94.9188C52.4976 93.2499 53.1602 92.1965 54.0309 90.8074Z" fill="#F2F2F2"/>
<path d="M68.9474 97.9044C69.2522 100.061 69.5085 104.41 68.6669 106.444L68.4057 106.442C67.5641 106.443 67.3755 106.392 66.6064 106.775L66.7322 107.554L68.4831 108.648L68.5412 109.477C67.4867 110.123 67.2787 109.777 65.7551 109.45L65.6245 110.154C66.4371 110.671 67.2449 111.199 68.0478 111.736C68.1977 113.198 67.3997 113.918 66.3065 114.866L66.263 114.086C64.9522 111.678 63.3851 113.513 61.7889 107.702C62.4612 104.667 65.4601 103.629 68.3138 103.603C68.9764 102.164 68.8894 99.5994 68.9474 97.9044Z" fill="#B5FE28"/>
<path d="M47.2751 92.8263C48.7987 92.9332 49.4082 93.1601 50.8254 93.6C50.9463 96.0058 50.6029 95.5722 51.7492 97.4278C52.6343 97.9039 53.5244 98.4285 54.4676 98.7589L54.0129 101.488L52.1507 101.321C50.8254 100.592 49.6936 100.24 48.2812 99.7402L46.9946 98.8088C46.4336 97.2561 47.0285 94.5929 47.2751 92.8263Z" fill="#B5FE28"/>
<path d="M47.2751 92.8263C49.5726 94.275 50.9077 95.9787 49.0842 98.4662C48.3441 98.607 47.7492 98.7372 46.9946 98.8088C46.4336 97.2561 47.0285 94.5929 47.2751 92.8263Z" fill="#B5FE28"/>
<path d="M59.0223 97.744L59.2738 97.9158C60.3379 98.6378 60.6185 98.7703 61.8132 99.2198L62.026 100.271C60.0864 102.364 56.5846 102.167 54.0114 101.493L54.466 98.7635C56.7055 98.8056 56.9812 98.6895 59.0223 97.744Z" fill="#B5FE28"/>
<path d="M66.2636 114.082C65.4123 114.134 64.0774 113.905 63.3277 113.52C62.1668 112.923 61.3011 111.875 60.9335 110.62C59.8016 106.721 63.2744 100.244 68.3144 103.599C65.4607 103.625 62.4619 104.664 61.7895 107.698C63.3857 113.509 64.9528 111.674 66.2636 114.082Z" fill="#0C0C0C"/>
<path d="M67.8796 83.0719L68.6292 82.5179C69.5724 83.2524 69.287 83.2495 69.5966 84.8041C68.726 87.8801 67.957 87.7126 65.0403 88.7786C65.3934 85.903 67.541 85.6969 67.8796 83.0719Z" fill="#B5FE28"/>
<path d="M39.4244 107.045C39.2696 102.785 38.7617 100.103 40.9334 96.4036L41.4655 96.5207C42.8682 100.139 41.63 103.954 43.1197 105.629C46.4378 104.877 47.2214 100.103 49.6785 101.039C51.2263 104.776 48.3483 106.961 51.1682 108.462C52.4887 108.175 53.1997 108.017 54.5637 107.918L55.4343 108.531C55.681 111.205 53.8285 110.632 54.6314 113.107C56.7161 113.987 57.3787 113.748 57.2433 116.342C54.4669 118.626 50.3072 117.345 46.9746 116.736C40.3095 115.24 39.8742 113.348 39.4244 107.045Z" fill="#F2F2F2"/>
<path d="M39.4244 107.045C40.9334 108.421 43.264 108.116 45.784 108.709C46.3161 109.672 46.4902 110.202 46.6691 111.289L47.8929 112.704L49.4116 112.68L49.8953 113.206L49.3827 113.989C48.4104 114.909 47.5744 115.546 46.9746 116.736C40.3095 115.24 39.8742 113.348 39.4244 107.045Z" fill="#B5FE28"/>
<path d="M45.7844 108.71C46.3164 109.674 46.4905 110.204 46.6695 111.29L47.8932 112.706L49.412 112.681L49.8957 113.207L49.383 113.991C47.516 113.955 46.597 113.803 45.3975 112.32C44.938 110.608 45.1411 110.283 45.7844 108.71Z" fill="#0C0C0C"/>
<path d="M49.8954 113.205C51.0127 116.332 54.2244 116.333 57.2426 116.341C54.4662 118.625 50.3065 117.344 46.9739 116.735C47.5737 115.546 48.4105 114.908 49.3827 113.988L49.8954 113.205Z" fill="#D9DBD5"/>
<path d="M71.1978 85.6652C72.4409 85.6502 73.8097 85.5738 75.0141 85.9048C77.1568 86.4931 79.0673 88.0091 80.1653 89.9349C81.626 92.4916 81.7179 95.8859 80.9585 98.6725C79.7735 103.003 77.5631 104.927 73.7662 107.054C72.852 107.074 72.4554 106.994 71.6428 106.582C71.4058 104.447 77.0987 101.717 78.3708 99.3484C79.1592 97.8886 79.0722 94.6782 78.5305 93.1018C77.5728 90.32 75.3091 89.6208 72.9536 88.3478C71.5703 87.6002 71.609 87.0554 71.1978 85.6652Z" fill="#B5FE28"/>
<path d="M51.2211 76.6904C55.5695 75.9578 62.0895 76.5108 66.2347 78.0762C67.3181 78.4865 67.7873 78.6539 68.2855 79.7363L67.352 80.7234C65.4221 81.2223 61.4172 79.4015 59.1294 78.9263C56.6577 78.8518 54.1087 78.7134 51.6419 78.952C48.5367 79.2529 42.5681 81.5755 39.8159 80.4123L39.6466 79.9521C41.7071 77.5318 48.1449 77.0547 51.2211 76.6904Z" fill="#F2F2F2"/>
<path d="M71.5938 90.3016C72.3435 90.4729 73.2335 90.6306 73.9252 90.9659C75.0667 91.5166 75.8357 92.6967 76.2275 93.8687C77.0062 96.2004 76.1259 98.7281 74.9941 100.766C74.1186 101.224 73.3399 101.508 72.3774 101.726L71.6277 101.011C70.641 97.7623 71.4148 93.6746 71.5938 90.3016Z" fill="#F2F2F2"/>
<path d="M67.8457 88.7926L68.8856 89.3712C69.6885 91.2985 69.3645 93.8136 69.3258 95.8768C67.9134 96.5663 66.564 97.506 65.229 98.3406C64.3535 97.9797 64.4212 97.9671 64.0391 97.0913C65.4224 94.1992 65.3596 90.9501 67.8457 88.7926Z" fill="#B5FE28"/>
<path d="M108.736 101.305C122.99 100.201 139.725 100.99 154.188 100.998C162.265 101.002 179.711 100.049 187.015 101.629C188.524 101.955 189.25 102.598 190.057 103.86C192.345 107.441 192.239 118.277 191.083 122.353C190.512 124.35 189.037 125.452 187.31 126.393C171.392 126.679 155.445 126.538 139.522 126.628C130.168 126.68 119.711 127.624 110.487 126.194C108.697 125.917 106.67 125.554 105.65 123.914C103.764 120.89 103.812 108.167 104.924 104.925C105.582 103.009 107.024 102.137 108.736 101.305Z" fill="#B5FE28"/>
<path d="M173.163 108.941L174.522 108.75L175.368 109.464L176.713 108.993L177.531 109.424L177.763 110.315L180.06 108.803L181.54 109.096L181.956 109.84C181.468 112.181 180.732 117.267 179.083 118.615C177.874 117.588 177.511 114.701 176.466 112.609C175.281 113.764 175.91 117.025 174.29 118.445L173.351 118.131C172.307 116.123 170.749 111.178 171.649 109.092L173.163 108.941Z" fill="#0C0C0C"/>
<path d="M173.163 108.941L174.522 108.75L175.368 109.464C175.257 110.851 175.121 112.696 174.207 113.614C173.298 112.361 173.313 110.526 173.163 108.941Z" fill="#B5FE28"/>
<path d="M177.763 110.315L180.06 108.803C179.992 110.64 180.113 112.531 179.271 114.127L178.749 113.972C178.125 112.362 178.048 111.991 177.763 110.315Z" fill="#B5FE28"/>
<path d="M139.275 116.147C131.512 126.479 126.869 102.889 138.99 110.249C139.609 112.815 139.508 113.484 139.275 116.147Z" fill="#0C0C0C"/>
<path d="M134.328 110.14L136.035 110.431C136.8 111.044 137.259 111.319 137.573 112.291C138.13 114.018 137.216 115.797 136.437 117.29C135.972 117.211 135.402 117.138 134.981 116.919C134.309 116.568 133.854 115.97 133.602 115.279C132.954 113.501 133.569 111.77 134.328 110.14Z" fill="#B5FE28"/>
<path d="M162.714 110.158C172.185 103.805 171.725 119.667 165.007 118.67C162.903 117.107 162.574 116.083 161.902 113.625L162.714 110.158Z" fill="#0C0C0C"/>
<path d="M164.853 110.083C165.327 110.125 165.873 110.152 166.323 110.31C167.242 110.631 167.774 111.193 168.166 112.064C168.906 113.716 168.069 115.679 167.465 117.239C166.947 117.204 166.309 117.192 165.825 117.003C165.124 116.731 164.596 116.162 164.296 115.498C163.508 113.728 164.209 111.784 164.853 110.083Z" fill="#B5FE28"/>
<path d="M140.866 109.137C143.633 108.857 147.072 108.6 148.789 111.379C148.272 113.743 145.234 114.463 143.096 115.27C142.753 116.462 142.758 116.577 142.753 117.83C141.669 118.407 142.129 118.271 140.833 118.175C140.31 118.338 140.504 118.25 139.802 118.033L139.275 116.148C139.507 113.485 139.609 112.816 138.99 110.25C139.797 109.435 139.759 109.483 140.866 109.137Z" fill="#0C0C0C"/>
<path d="M138.99 110.25C139.797 109.435 139.759 109.483 140.866 109.137C141.152 112.705 141.05 114.606 140.833 118.175C140.31 118.338 140.504 118.25 139.802 118.033L139.275 116.148C139.507 113.485 139.609 112.816 138.99 110.25Z" fill="#B5FE28"/>
<path d="M143.387 110.7C144.021 110.091 145.027 110.11 145.641 110.741C146.251 111.373 146.241 112.38 145.612 112.997C144.979 113.618 143.963 113.605 143.344 112.968C142.725 112.332 142.744 111.314 143.387 110.7Z" fill="#B5FE28"/>
<path d="M155.111 111.88C154.947 113.869 154.985 116.565 154.187 118.299L153.713 117.779C153.191 115.686 152.035 110.163 154.052 108.767C155.421 109.447 155.793 110.408 156.586 111.746L158.898 108.878L160.678 109.077L160.702 111.307C160.62 113.345 160.78 116.111 159.696 117.721L158.84 117.819C157.283 116.576 156.074 113.744 155.111 111.88Z" fill="#0C0C0C"/>
<path d="M156.587 111.746L158.899 108.878C158.866 110.529 159.088 112.955 158.362 114.203C157.342 113.284 157.226 112.974 156.587 111.746Z" fill="#B5FE28"/>
<path d="M122.023 109.447L123.222 109.066C124.359 110.062 124.393 112.719 126.308 113.521C129.138 112.236 126.937 110.464 128.761 108.804L129.636 109.387C129.771 110.912 130.163 117.158 129.307 118.264L128.32 118.218C127.706 117.056 127.88 116.288 127.938 114.96C127.048 113.987 127.251 114.281 125.752 113.879C122.748 114.8 125.143 117.264 122.821 118.087L121.897 117.695L120.741 115.229L120.722 114.819C122.226 112.834 120.267 111.819 122.023 109.447Z" fill="#0C0C0C"/>
<path d="M122.023 109.445C122.023 111.762 122.129 115.498 121.897 117.693L120.741 115.227L120.722 114.818C122.226 112.832 120.267 111.817 122.023 109.445Z" fill="#B5FE28"/>
<path d="M120.741 115.229C120.567 116.442 120.504 116.481 119.774 117.504C117.215 119.061 115.745 118.892 113.955 116.355L114.11 115.577C115.648 115.228 115.43 115.918 117.515 117.041L118.424 116.569C117.776 114.293 113.66 113.079 113.911 109.912C115.774 108.594 118.632 108.468 120.257 110.232L120.199 111.47L119 113.174C119.682 113.736 120.195 114.097 120.722 114.819L120.741 115.229Z" fill="#0C0C0C"/>
<path d="M119 113.172C117.201 112.882 116.611 112.925 115.919 111.321L116.65 110.627C118.696 110.47 118.168 110.554 120.2 111.468L119 113.172Z" fill="#B5FE28"/>
<path d="M200.51 100.911C205.405 100.786 210.595 100.354 215.461 100.9C217.091 101.083 220.225 101.61 221.245 103.059C223.91 106.834 223.132 117.336 222.126 121.818C221.613 124.114 220.742 125.099 218.798 126.336C214.087 127.23 207.17 127.334 202.435 126.449C200.868 126.156 198.981 125.635 198.082 124.21C195.629 120.343 196.355 109.456 197.308 104.94C197.758 102.805 198.788 102.046 200.51 100.911Z" fill="#B5FE28"/>
<path d="M206.014 118.329C205.671 116.561 202.686 105.993 202.856 105.573C206.299 108.137 205.168 108.428 210.072 108.364C212.534 108.332 215.422 108.449 217.918 108.514C217.231 111.604 217.332 114.76 214.014 115.435L215.107 116.189L214.551 116.972L215.127 117.624C213.961 118.428 207.92 118.294 206.014 118.329Z" fill="#0C0C0C"/>
<path d="M214.552 116.971C212.395 117.099 209.971 117.456 208.022 116.636L207.935 116.072C209.676 115.154 211.998 115.402 214.015 115.434L215.108 116.187L214.552 116.971Z" fill="#B5FE28"/>
<path d="M205.395 109.339C208.471 109.469 212.79 108.433 215.494 109.972C216.133 111.4 215.577 112.153 215.132 113.619L214.421 114.269C211.475 114.595 209.468 114.918 206.744 113.552C205.54 112.488 205.564 110.836 205.395 109.339Z" fill="#B5FE28"/>
<path d="M213.492 119.287C213.879 118.943 214.431 118.846 214.914 119.037C215.398 119.227 215.732 119.673 215.785 120.19C215.833 120.708 215.591 121.21 215.156 121.491C214.547 121.881 213.739 121.737 213.304 121.159C212.868 120.582 212.951 119.766 213.492 119.287Z" fill="#0C0C0C"/>
<path d="M206.774 118.929C207.471 118.792 208.153 119.23 208.312 119.921C208.477 120.611 208.066 121.307 207.384 121.497C206.914 121.626 206.416 121.49 206.082 121.142C205.744 120.794 205.628 120.29 205.773 119.829C205.913 119.367 206.3 119.022 206.774 118.929Z" fill="#0C0C0C"/>
<path d="M162.415 70.234C163.469 70.2113 164.62 70.1498 165.66 70.3496C167.397 70.6845 168.77 71.9304 169.675 73.396C171.518 76.3834 171.672 80.1523 170.874 83.4933C170.168 86.4585 169.109 87.7736 166.55 89.3689C165.515 89.4318 164.345 89.5349 163.324 89.3292C161.8 89.0229 160.548 88.0194 159.711 86.7429C157.713 83.6815 157.592 79.5252 158.405 76.0626C159.063 73.2528 159.977 71.7703 162.415 70.234Z" fill="#0C0C0C"/>
<path d="M163.751 72.7769C164.413 72.9526 165.037 73.2443 165.671 73.5076C166.609 74.5353 166.977 75.4077 167.238 76.7572C167.799 79.6788 167.441 84.0839 165.772 86.5961C165.042 86.48 164.321 86.3464 163.693 85.9289C162.464 85.114 162.154 83.6934 161.927 82.3265C161.41 79.1969 161.922 75.3888 163.751 72.7769Z" fill="#F2F2F2"/>
<path d="M177.477 70.2153C178.585 70.2211 179.794 70.1785 180.882 70.3953C182.28 70.6745 183.513 71.7965 184.278 72.9651C186.188 75.892 186.454 79.6704 185.724 83.0188C185.027 86.1881 184.094 87.6804 181.351 89.4102C180.379 89.4721 179.276 89.5471 178.314 89.3618C176.805 89.071 175.591 88.1903 174.735 86.9289C172.747 83.9996 172.611 79.9501 173.322 76.5902C173.961 73.5476 174.865 71.9407 177.477 70.2153Z" fill="#0C0C0C"/>
<path d="M178.493 72.8427C179.295 73.0048 180.089 73.1669 180.703 73.7403C182.023 74.964 182.478 77.4133 182.483 79.1499C182.488 82.0913 182.154 84.6195 180.045 86.7437C179.416 86.4954 178.802 86.1611 178.188 85.8693C177.399 84.7521 177.129 83.737 176.921 82.4025C176.437 79.3696 176.674 75.3782 178.493 72.8427Z" fill="#F2F2F2"/>
<path d="M124.891 69.8805C124.968 69.8756 125.045 69.8698 125.123 69.8659C127.357 69.7547 130.259 69.8911 131.923 71.6025C132.688 72.3854 133.021 73.4127 132.997 74.4931C132.91 78.9631 128.663 82.7725 125.795 85.7333C127.638 85.7135 129.877 85.5098 131.653 86.0091C132.605 86.2762 133.123 86.4335 133.621 87.3088C131.145 89.4494 126.888 88.8358 123.846 88.7531C122.622 88.6955 122.279 88.7124 121.263 88.0583C120.755 83.2216 129.495 79.7856 129.578 74.8652C129.592 74.1089 129.229 73.9125 128.75 73.3764C124.281 72.054 125.868 75.2402 122.583 76.2273C121.577 75.8136 121.311 75.6965 120.629 74.8613C120.658 74.6934 120.678 74.5236 120.716 74.3572C121.123 72.4856 123.362 70.8346 124.891 69.8805Z" fill="#0C0C0C"/>
<path d="M137.133 70.2605C139.542 70.3413 145.37 70.4115 147.455 70.8407L147.779 71.9908C145.975 74.8238 142.212 73.0432 139.885 74.4895C138.826 78.5351 150.599 77.3515 148.853 83.2363C148.306 85.0813 147.808 86.7128 146.454 88.0938C145.767 87.0627 145.424 84.3613 145.177 82.9973C143.958 80.83 144.49 81.0361 142.57 80.036C140.403 80.1526 138.72 80.7037 137.23 79.7713C135.972 77.307 136.814 73.1153 137.133 70.2605Z" fill="#0C0C0C"/>
<path d="M145.176 82.999C145.423 84.363 145.766 87.0644 146.453 88.0955C143.522 89.8897 138.917 89.64 136.552 87.0601C135.962 85.2949 136.005 86.0425 136.378 84.2227C138.172 83.5854 140.46 86.2549 143.198 85.9723C144.779 84.7182 144.334 85.0302 145.176 82.999Z" fill="#0C0C0C"/>
<path d="M100.005 138.377C101.708 137.905 103.488 138.829 104.083 140.495C104.673 142.16 103.885 144.001 102.264 144.715C101.108 145.225 99.7636 145.046 98.7817 144.251C97.7999 143.456 97.3452 142.178 97.6015 140.941C97.8627 139.703 98.7865 138.714 100.005 138.377Z" fill="#B5FE28"/>
<path d="M125.09 138.791C126.609 138.155 128.355 138.842 129.037 140.34C129.714 141.839 129.08 143.606 127.605 144.33C126.609 144.818 125.428 144.725 124.519 144.089C123.61 143.453 123.121 142.373 123.242 141.271C123.358 140.169 124.069 139.219 125.09 138.791Z" fill="#D9DBD5"/>
<path d="M137.791 138.873C139.29 138.325 140.954 139.045 141.578 140.511C142.207 141.977 141.578 143.677 140.146 144.381C139.15 144.87 137.965 144.77 137.065 144.12C136.17 143.47 135.701 142.377 135.851 141.278C136.006 140.18 136.751 139.254 137.791 138.873Z" fill="#D9DBD5"/>
<path d="M112.141 138.905C113.65 138.215 115.43 138.879 116.117 140.388C116.808 141.898 116.141 143.679 114.632 144.367C113.123 145.053 111.347 144.389 110.656 142.881C109.969 141.374 110.632 139.594 112.141 138.905Z" fill="#D9DBD5"/>
<path d="M152.214 85.5435C152.867 85.243 153.627 85.3224 154.202 85.7511C154.778 86.1793 155.073 86.8877 154.976 87.5985C154.874 88.3088 154.391 88.9073 153.723 89.1589C152.732 89.5286 151.634 89.0505 151.227 88.0775C150.821 87.1049 151.256 85.9848 152.214 85.5435Z" fill="#0C0C0C"/>
<path d="M229.787 59.6972C231.442 60.2701 232.506 60.7989 233.352 62.4532C236.714 69.0299 236.095 131.921 235.243 142.758C235.026 145.578 234.61 148.679 233.56 151.318C232.501 153.989 229.212 156.221 226.648 157.264C222.324 159.021 217.434 158.908 212.844 158.815L212.835 154.398L213.309 153.586C225.062 153.625 230.189 148.913 230.697 137.428C231.596 117.164 230.6 96.9823 230.803 76.7142C230.861 71.2543 231.079 64.9592 229.787 59.6972Z" fill="#434343"/>
<path d="M57.2142 205.018C60.5226 199.228 63.2748 203.927 66.4187 203.774L67.8013 204.879C68.8557 203.843 69.1556 203.497 70.4712 202.763C76.0239 204.617 69.5716 214.861 67.0709 217.435C62.8919 213.885 59.2981 211.352 58.7322 205.617L57.2142 205.018Z" fill="#FFA0E4"/>
<path d="M57.2142 205.018C60.5226 199.228 63.2748 203.927 66.4187 203.774L67.8013 204.879L66.7372 206.815L65.8472 207.016C64.5364 205.847 63.2982 204.431 61.6585 204.19C60.1398 204.544 59.9705 204.664 58.7322 205.617L57.2142 205.018Z" fill="#0C0C0C"/>
<path d="M28.1733 153.994L29.9629 153.727C30.4563 161.247 30.137 169.601 30.2338 177.184C30.4079 190.802 29.0633 196.252 37.5278 207.759C32.6571 204.235 29.7695 200.473 29.1165 194.198C27.7815 181.352 28.1346 166.935 28.1733 153.994Z" fill="white"/>
<path d="M196.007 -107.528C190.344 -113.07 176.426 -112.573 167.13 -112.241C166.024 -112.202 164.984 -112.165 164.031 -112.14C162.851 -105.755 161.405 -98.7004 152.998 -98.7584C144.978 -98.8137 136.927 -98.7531 128.866 -98.6925C111.648 -98.5631 94.3888 -98.4334 77.3066 -99.431C73.5243 -99.6522 72.019 -103.764 70.7044 -107.355C70.1614 -108.838 69.6509 -110.232 69.0259 -111.227C67.9909 -112.231 66.1383 -112.278 64.6341 -112.257C63.2388 -112.238 61.7422 -112.264 60.1871 -112.292C52.5884 -112.425 43.5965 -112.584 38.2443 -107.547C32.7095 -102.341 32.968 -92.2902 33.1723 -84.3494C33.2071 -82.9984 33.2402 -81.7084 33.2431 -80.5138L33.0883 51.3353C45.1938 51.2122 57.3842 51.1578 69.5888 51.1033L69.5974 51.1033C88.8915 51.0173 108.221 50.9311 127.305 50.5728L128.906 50.4702C136.82 50.8271 145.243 50.7596 153.586 50.6928C158.928 50.65 164.239 50.6075 169.361 50.6768C170.057 50.6861 171.083 50.7048 172.33 50.7275C178.895 50.8471 191.592 51.0783 194.571 50.6478C194.891 50.6078 195.083 50.5657 195.217 50.5365C195.328 50.5122 195.399 50.4967 195.469 50.4985C195.593 50.5016 195.716 50.5582 196.055 50.7148C196.32 50.7273 196.581 50.7436 196.84 50.7594C198.286 50.848 199.651 50.9316 201.013 50.3821C201.445 48.4889 201.364 42.151 201.316 38.3331C201.305 37.4902 201.296 36.7691 201.294 36.247L201.178 7.86592C201.149 -6.37743 201.184 -20.6276 201.219 -34.8824V-34.8881C201.265 -53.563 201.31 -72.2409 201.212 -90.9039C201.178 -97.0896 200.757 -102.88 196.007 -107.528Z" fill="white"/>
<path d="M35.6174 -112.223L35.7142 -111.49C33.9003 -108.207 31.7093 -104.842 31.0514 -101.104C29.0393 -89.7277 30.2099 -68.7759 30.2147 -56.5666L30.1808 26.9731C30.2001 31.1411 30.9934 48.3033 29.9777 50.801C29.8374 51.145 29.1603 51.7378 28.8894 52.045C28.4928 51.2128 28.217 50.4749 28.1783 49.5454C27.8204 40.0094 28.1058 30.3592 28.1203 20.8145L28.1445 -72.852C28.1445 -80.4917 27.8204 -88.3265 28.3089 -95.9478C28.7056 -102.074 30.9305 -108.132 35.6174 -112.223Z" fill="white"/>
<path d="M198.638 -112.869C198.986 -112.702 199.267 -112.553 199.581 -112.328C203.441 -109.566 205.371 -104.55 206.024 -100.016C207.045 -92.9223 206.59 -85.2337 206.585 -78.0623L206.604 15.4788C206.614 26.1983 206.982 37.0814 206.455 47.7801C206.382 49.2017 206.343 50.2774 205.468 51.4638C205.245 51.1144 204.752 50.5319 204.641 50.1593C203.644 46.7582 204.462 23.8676 204.476 18.7178L204.578 -68.3265C204.563 -78.3764 205.618 -93.1061 203.654 -102.673C202.885 -106.421 200.612 -109.659 198.638 -112.869Z" fill="white"/>
<path d="M38.8961 220.704C36.0424 219.114 32.2116 216.397 31.3555 212.992C31.2104 212.406 31.2055 211.43 31.5586 210.917C32.2212 209.953 32.8259 209.626 33.89 209.187C35.2298 209.137 37.6385 210.456 38.514 209.731C38.6059 209.655 38.809 209.343 38.8719 209.254C39.5636 208.253 40.1682 207.115 41.4935 206.938C42.9058 206.749 43.3798 206.933 44.5503 207.613C45.9772 209.885 45.4935 212.812 44.9179 215.301C44.4487 217.35 43.6024 219.168 42.5479 220.972C41.0146 221.444 40.4197 221.116 38.8961 220.704Z" fill="#1C1C1C"/>
<path d="M34.075 199.166C31.2212 197.576 27.3905 194.859 26.5343 191.454C26.3892 190.868 26.3844 189.892 26.7375 189.38C27.4001 188.415 28.0047 188.088 29.0688 187.649C30.4086 187.599 32.8174 188.918 33.6928 188.194C33.7847 188.118 33.9879 187.805 34.0507 187.716C34.7424 186.715 35.347 185.577 36.6723 185.4C38.0847 185.212 38.5587 185.395 39.7292 186.075C41.156 188.347 40.6724 191.274 40.0968 193.763C39.6276 195.812 38.7812 197.63 37.7268 199.434C36.1935 199.906 35.5986 199.578 34.075 199.166Z" fill="#1C1C1C"/>
<path d="M56.576 184.701C53.7223 183.111 49.8915 180.394 49.0354 176.988C48.8903 176.403 48.8854 175.427 49.2385 174.914C49.9011 173.949 50.5058 173.623 51.5699 173.184C52.9097 173.134 55.3184 174.452 56.1939 173.728C56.2858 173.652 56.4889 173.34 56.5518 173.251C57.2434 172.25 57.8481 171.112 59.1734 170.935C60.5857 170.746 61.0597 170.929 62.2302 171.61C63.6571 173.882 63.1734 176.809 62.5978 179.297C62.1286 181.347 61.2822 183.164 60.2278 184.969C58.6945 185.441 58.0996 185.113 56.576 184.701Z" fill="#1C1C1C"/>
<path d="M27.9678 168.948C25.1141 167.358 21.2834 164.641 20.4272 161.236C20.2821 160.65 20.2773 159.674 20.6303 159.162C21.293 158.197 21.8976 157.87 22.9617 157.431C24.3015 157.381 26.7102 158.7 27.5857 157.976C27.6776 157.9 27.8808 157.587 27.9436 157.498C28.6353 156.497 29.2399 155.359 30.5652 155.182C31.9776 154.994 32.4516 155.177 33.6221 155.857C35.0489 158.13 34.5653 161.056 33.9897 163.545C33.5205 165.594 32.6741 167.412 31.6197 169.216C30.0864 169.688 29.4914 169.361 27.9678 168.948Z" fill="#1C1C1C"/>
<path d="M47.2544 153.521C44.4007 151.931 40.57 149.214 39.7138 145.808C39.5687 145.223 39.5639 144.246 39.9169 143.734C40.5796 142.769 41.1842 142.443 42.2483 142.004C43.5881 141.954 45.9968 143.272 46.8723 142.548C46.9642 142.472 47.1674 142.159 47.2302 142.07C47.9219 141.07 48.5265 139.932 49.8518 139.755C51.2642 139.566 51.7382 139.749 52.9087 140.43C54.3355 142.702 53.8519 145.629 53.2763 148.117C52.8071 150.166 51.9607 151.984 50.9063 153.789C49.373 154.26 48.778 153.933 47.2544 153.521Z" fill="#1C1C1C"/>
<path d="M22.825 144.199C19.9712 142.609 16.1405 139.892 15.2844 136.487C15.1392 135.901 15.1344 134.925 15.4875 134.412C16.1501 133.448 16.7547 133.121 17.8188 132.682C19.1586 132.632 21.5674 133.951 22.4428 133.226C22.5347 133.151 22.7379 132.838 22.8007 132.749C23.4924 131.748 24.097 130.61 25.4223 130.433C26.8347 130.244 27.3087 130.428 28.4792 131.108C29.906 133.38 29.4224 136.307 28.8468 138.796C28.3776 140.845 27.5312 142.663 26.4768 144.467C24.9435 144.939 24.3486 144.611 22.825 144.199Z" fill="#1C1C1C"/>
<path d="M39.2178 126.197C36.3641 124.607 32.5334 121.891 31.6772 118.485C31.5321 117.9 31.5273 116.923 31.8803 116.411C32.543 115.446 33.1476 115.119 34.2117 114.68C35.5515 114.631 37.9602 115.949 38.8357 115.225C38.9276 115.149 39.1308 114.836 39.1936 114.747C39.8853 113.747 40.4899 112.609 41.8152 112.432C43.2276 112.243 43.7016 112.426 44.8721 113.106C46.2989 115.379 45.8153 118.306 45.2397 120.794C44.7705 122.843 43.9241 124.661 42.8697 126.465C41.3364 126.937 40.7414 126.61 39.2178 126.197Z" fill="#1C1C1C"/>
<path d="M18.968 116.234C16.1143 114.644 12.2836 111.928 11.4274 108.522C11.2823 107.937 11.2775 106.96 11.6306 106.448C12.2932 105.483 12.8978 105.156 13.9619 104.717C15.3017 104.668 17.7105 105.986 18.5859 105.262C18.6778 105.186 18.881 104.873 18.9438 104.784C19.6355 103.784 20.2401 102.646 21.5654 102.469C22.9778 102.28 23.4518 102.463 24.6223 103.143C26.0491 105.416 25.5655 108.343 24.9899 110.831C24.5207 112.88 23.6743 114.698 22.6199 116.502C21.0866 116.974 20.4916 116.647 18.968 116.234Z" fill="#1C1C1C"/>
<path d="M40.8495 208.501C41.575 208.628 42.6052 208.812 43.0599 209.401C43.9257 210.521 43.7951 213.275 43.5871 214.63C43.2969 216.503 42.4069 217.591 40.9171 218.691C39.1033 218.909 38.3343 218.243 36.7236 217.441C35.5531 216.376 33.9666 215.048 33.6184 213.425C33.3765 212.3 33.3765 211.829 33.986 210.835C35.9788 210.637 37.3379 212.565 39.026 212.342L40.8495 208.501Z" fill="#FFA0E4"/>
<path d="M36.0283 186.963C36.7539 187.09 37.7841 187.274 38.2387 187.863C39.1045 188.983 38.9739 191.738 38.7659 193.092C38.4757 194.965 37.5858 196.054 36.096 197.153C34.2822 197.371 33.5132 196.705 31.9025 195.904C30.732 194.839 29.1455 193.51 28.7972 191.888C28.5554 190.763 28.5554 190.291 29.1648 189.297C31.1576 189.1 32.5168 191.027 34.2048 190.804L36.0283 186.963Z" fill="#FFA0E4"/>
<path d="M58.5294 172.497C59.2549 172.625 60.2851 172.809 60.7398 173.397C61.6056 174.517 61.475 177.272 61.267 178.627C60.9768 180.499 60.0868 181.588 58.597 182.688C56.7832 182.906 56.0142 182.239 54.4035 181.438C53.233 180.373 51.6465 179.044 51.2983 177.422C51.0564 176.297 51.0564 175.826 51.6659 174.832C53.6586 174.634 55.0178 176.562 56.7059 176.338L58.5294 172.497Z" fill="#FFA0E4"/>
<path d="M29.9212 156.745C30.6468 156.872 31.677 157.056 32.1316 157.645C32.9974 158.765 32.8668 161.52 32.6588 162.874C32.3686 164.747 31.4786 165.836 29.9889 166.936C28.1751 167.153 27.4061 166.487 25.7954 165.686C24.6249 164.621 23.0384 163.292 22.6901 161.67C22.4483 160.545 22.4483 160.073 23.0577 159.08C25.0505 158.882 26.4097 160.809 28.0977 160.586L29.9212 156.745Z" fill="#FFA0E4"/>
<path d="M49.2078 141.317C49.9333 141.444 50.9636 141.629 51.4182 142.217C52.284 143.337 52.1534 146.092 51.9454 147.447C51.6552 149.319 50.7652 150.408 49.2755 151.508C47.4617 151.726 46.6927 151.059 45.082 150.258C43.9115 149.193 42.325 147.864 41.9767 146.242C41.7349 145.117 41.7349 144.646 42.3443 143.652C44.3371 143.454 45.6963 145.382 47.3843 145.158L49.2078 141.317Z" fill="#FFA0E4"/>
<path d="M24.7783 131.996C25.5039 132.123 26.5341 132.307 26.9887 132.896C27.8545 134.016 27.7239 136.77 27.5159 138.125C27.2257 139.998 26.3357 141.087 24.846 142.186C23.0322 142.404 22.2632 141.738 20.6525 140.937C19.482 139.872 17.8955 138.543 17.5472 136.92C17.3054 135.795 17.3054 135.324 17.9148 134.33C19.9076 134.132 21.2668 136.06 22.9548 135.837L24.7783 131.996Z" fill="#FFA0E4"/>
<path d="M41.1712 113.994C41.8968 114.121 42.927 114.306 43.3816 114.894C44.2474 116.014 44.1168 118.769 43.9088 120.124C43.6186 121.996 42.7286 123.085 41.2389 124.185C39.4251 124.402 38.6561 123.736 37.0454 122.935C35.8749 121.87 34.2884 120.541 33.9401 118.919C33.6983 117.794 33.6983 117.323 34.3077 116.329C36.3005 116.131 37.6597 118.058 39.3477 117.835L41.1712 113.994Z" fill="#FFA0E4"/>
<path d="M20.9214 104.031C21.647 104.158 22.6772 104.343 23.1318 104.931C23.9976 106.051 23.867 108.806 23.659 110.161C23.3688 112.033 22.4788 113.122 20.9891 114.222C19.1753 114.439 18.4063 113.773 16.7956 112.972C15.6251 111.907 14.0386 110.578 13.6903 108.956C13.4485 107.831 13.4485 107.36 14.0579 106.366C16.0507 106.168 17.4099 108.095 19.0979 107.872L20.9214 104.031Z" fill="#FFA0E4"/>
<path fill-rule="evenodd" clip-rule="evenodd" d="M206.857 154.277C206.858 154.27 206.859 154.264 206.859 154.257C206.86 154.252 206.861 154.246 206.861 154.241C206.86 154.253 206.859 154.265 206.857 154.277ZM206.839 154.468C206.841 154.447 206.843 154.426 206.845 154.405C206.846 154.388 206.848 154.371 206.85 154.354C206.846 154.392 206.842 154.43 206.839 154.468ZM206.341 157.702L206.341 157.707C206.341 157.723 206.341 157.738 206.341 157.754C206.341 157.736 206.341 157.719 206.341 157.702ZM206.342 157.935L206.342 157.941C206.342 157.974 206.342 158.006 206.342 158.04C206.342 158.004 206.342 157.969 206.342 157.935Z" fill="#0C0C0C"/>
<path fill-rule="evenodd" clip-rule="evenodd" d="M212.559 191.69L212.041 192.82L211.926 192.821C211.259 192.829 210.474 192.845 209.613 192.863L209.374 192.868C205.42 192.948 200.021 193.057 197.337 192.706C186.984 193.313 176.363 193.187 165.726 193.059C154.339 192.923 142.933 192.786 131.822 193.551C129.47 193.713 128.021 195.752 126.735 197.563C126.654 197.677 126.572 197.792 126.492 197.903C126.463 198.524 126.428 199.172 126.393 199.831C126.308 201.385 126.22 202.997 126.207 204.443L125.742 206.65C125.638 206.606 125.554 206.571 125.483 206.542C125.168 206.414 125.108 206.391 124.698 206.108L124.432 203.322L124.495 200.901C125.278 196.509 126.995 192.621 132.055 192.214C137.533 191.774 143.127 191.788 148.681 191.801C150.612 191.806 152.542 191.81 154.459 191.796L200.399 191.524L201.39 191.236L201.265 186.91C201.435 180.97 201.399 174.926 201.363 168.873C201.333 163.777 201.302 158.677 201.395 153.626C201.655 153.573 201.851 153.526 202.006 153.489L202.039 153.482C202.063 153.476 202.085 153.471 202.107 153.466C202.33 153.414 202.455 153.39 202.574 153.407C202.693 153.425 202.807 153.483 203.006 153.595C203.032 153.61 203.06 153.625 203.09 153.642L203.096 153.646L203.156 153.68C203.299 153.761 203.48 153.863 203.717 153.987L204.413 155.279L205.11 154.064L205.715 154.044C206.336 155.516 206.338 156.158 206.341 157.544L206.341 157.705C206.342 157.76 206.342 157.817 206.342 157.874L206.342 157.939C206.343 157.986 206.343 158.035 206.343 158.083C206.584 157.17 206.7 155.94 206.801 154.866L206.817 154.695C206.827 154.596 206.836 154.498 206.845 154.403C206.85 154.353 206.855 154.304 206.86 154.255C206.865 154.204 206.87 154.155 206.875 154.106C207.017 154.108 207.182 154.108 207.365 154.11C208.9 154.126 211.724 154.156 212.834 154.396L212.844 158.812L212.602 180.81C212.596 181.339 212.579 182.127 212.56 183.046C212.496 185.988 212.404 190.27 212.559 191.69Z" fill="#0C0C0C"/>
<path d="M212.041 192.82L212.559 191.69C214.475 191.65 216.418 191.545 218.34 191.442C230.781 190.77 242.36 190.146 240.273 207.341C240.055 209.134 240.186 211.681 240.331 214.521C240.777 223.265 241.364 234.768 232.36 235.466C207.185 235.93 182.016 235.75 156.841 235.571C149.982 235.522 143.122 235.474 136.262 235.438C129.036 235.4 126.995 233.548 124.339 227.105C123.979 227.111 123.6 227.124 123.208 227.138C121.221 227.209 118.931 227.291 117.408 226.435L116.929 225.533C117.334 224.322 118.943 222.822 120.572 221.304C121.709 220.244 122.855 219.176 123.609 218.19L125.273 218.944C122.734 221.194 120.886 223.048 118.54 225.5L126.018 225.704C126.981 230.302 128.649 233.542 133.878 233.817C139.387 234.107 144.92 234.128 150.443 234.149C151.549 234.153 152.653 234.157 153.757 234.164L189.337 234.26L216.849 234.305C218.859 234.308 220.81 234.403 222.666 234.494C232.135 234.956 239.147 235.297 238.973 222.651C238.747 206.231 239.776 198.77 236.544 195.417C233.539 192.3 226.849 192.734 212.041 192.82Z" fill="#0C0C0C"/>
<path d="M111.362 88.6034L106.705 80.4788V78.564H108.257C108.878 78.564 109.421 78.4778 109.887 78.3053C110.37 78.1156 110.767 77.8482 111.077 77.5032C111.405 77.1582 111.629 76.7442 111.75 76.2612H106.705V74.3465H111.724C111.621 73.898 111.44 73.5012 111.181 73.1562C110.939 72.8112 110.612 72.5439 110.198 72.3541C109.801 72.1471 109.318 72.0436 108.749 72.0436H106.705V70.1289H118.374V72.0436H114.312C114.605 72.3714 114.847 72.725 115.036 73.1045C115.243 73.484 115.381 73.898 115.45 74.3465H118.374V76.2612H115.502C115.329 77.5377 114.838 78.5382 114.027 79.2627C113.216 79.9699 112.173 80.4529 110.896 80.7116L115.968 88.6034H111.362Z" fill="#0C0C0C"/>
</g>
<defs>
<clipPath id="clip0_923_64389">
<rect width="230.151" height="240" fill="white" transform="translate(10.2324)"/>
</clipPath>
</defs>
</svg>
