<svg width="240" height="250" viewBox="0 0 240 250" fill="none" xmlns="http://www.w3.org/2000/svg">
<path d="M81.3655 104.494C82.8686 96.1559 83.0866 87.2076 83.7384 78.7481C84.7374 64.6321 85.9181 50.5293 87.2817 36.4433C87.9438 29.3265 88.2691 21.9026 89.8726 14.9283C90.6167 11.6924 91.7305 8.1963 94.0175 5.70361C97.0705 2.37598 101.549 0.190835 106.077 0.0494669C119.966 -0.384446 135.386 2.14576 149.356 3.36094C160.75 4.35167 173.165 4.39493 184.35 6.57719C187.769 7.24422 192.595 8.4225 195.156 10.9458C206.191 21.8161 198.005 46.9922 197.905 60.8538C197.879 64.5819 202.185 62.2144 205.231 65.2853C206.892 66.9609 207.918 68.8414 207.886 71.2654C207.788 78.4994 200.255 84.7709 195.474 89.4291L194.951 95.6458C199.181 96.3515 203.48 97.486 206.982 100.081C209.131 101.673 210.747 103.734 211.093 106.448C211.408 108.919 210.388 111.437 208.899 113.37C204.417 119.19 197.133 120.214 190.372 121.143C192.022 122.095 193.643 123.079 195.141 124.261C200.209 128.261 204.823 135.288 205.472 141.815C205.687 143.977 205.266 146.071 203.838 147.771C201.179 150.936 198.178 150.611 194.462 150.983C197.667 155.415 201.415 160.885 200.515 166.677C200.289 168.13 199.559 169.649 198.284 170.459C195.114 172.474 191.337 172.677 187.765 172.1C187.255 182.538 187.15 209.804 179.22 216.976C170.705 224.674 146.25 219.308 135.519 218.8L132.341 218.35C130.594 220.196 128.779 222.591 126.821 224.16C115.903 236.283 98.8626 240.241 91.663 249.999H4C4.52269 249.289 5.0654 248.597 5.62754 247.922C10.5669 242.036 27.0768 221.108 32.861 218.355C34.288 217.68 36.4764 218.944 38.0568 218.754C39.3644 218.598 41.1213 215.418 41.8452 214.276C44.3335 210.358 47.1177 206.03 48.7586 201.68C50.6921 196.556 51.0791 191.026 51.8791 185.655C53.5362 174.527 54.6218 162.939 57.1389 151.994C59.0643 143.624 63.7738 136.317 67.4797 128.661C70.1059 123.235 72.42 117.401 75.5652 112.26C77.2374 109.526 79.3628 106.991 81.3655 104.494Z" fill="#0C0C0C"/>
<path d="M88.2213 100.036C90.7367 101.335 93.1258 102.666 96.019 101.802C98.6117 101.028 100.981 99.284 102.258 96.8756C104.192 93.2283 103.397 89.4771 102.241 85.7369L102.566 85.2124C104.124 86.1079 105.443 86.936 106.44 88.4818C110.581 94.9022 107.865 106.718 104.755 113.124C102.137 118.517 98.2754 123.429 96.1482 129.036C93.4171 136.233 92.2266 144.196 90.679 151.717C96.0554 164.503 98.272 178.852 97.5602 192.676C97.243 198.831 92.2727 214.231 92.4567 216.805C92.4838 217.18 92.9707 217.982 93.1356 218.362C101.474 222.927 124.24 222.211 126.82 224.161C115.902 236.284 98.862 240.243 91.6625 250H76.5118C69.2067 239.36 52.0857 226.868 40.8618 220.18C59.5436 197.711 53.11 176.937 60.5403 151.528C62.671 144.242 66.5748 137.706 69.8654 130.913C72.5071 125.46 74.8299 119.577 78.0057 114.42C81.0569 109.465 84.8753 104.814 88.2213 100.036Z" fill="white"/>
<path d="M34.0224 220.888C46.1513 225.193 64.4351 239.064 71.8977 249.15L71.6364 249.998H7.96724C16.2902 240.334 24.4962 229.353 34.0224 220.888Z" fill="#DADBD7"/>
<path d="M93.1362 218.361C94.2165 217.247 95.2617 216.099 96.2717 214.922C108.165 214.893 120.413 217.582 132.341 218.35C130.594 220.196 128.779 222.591 126.821 224.16C124.241 222.21 101.474 222.925 93.1362 218.361Z" fill="#D9DBD5"/>
<path d="M104.723 8.32726C109.71 8.22167 112.987 8.48248 117.979 8.94639C118.68 11.1356 120.03 16.0806 121.939 16.5664C130.667 18.7867 158.802 21.4872 166.815 21.4693C170.27 18.7348 171.151 17.8566 172.581 13.7085C191.561 15.0529 192.972 17.1654 191.313 35.8784L181.319 144.609C179.732 162.894 178.665 181.215 176.66 199.459C174.791 216.476 158.239 211.484 146.185 210.723C132.83 209.88 119.059 207.295 105.711 206.701C103.335 206.107 100.686 206.055 98.2434 205.824C99.341 202.033 98.6846 196.378 100.44 193.088L102.264 192.887C103.901 189.797 100.282 185.383 99.9899 181.892C99.9732 181.69 99.9605 181.488 99.9455 181.286L99.8763 180.293C99.8313 179.933 99.7996 179.792 99.8267 179.396C99.938 177.775 100.976 177.154 102.065 176.115L101.352 175.721L100.308 175.875C98.6829 173.552 95.9293 158.403 95.6738 155.235L95.2792 154.139L94.455 153.526C93.9884 152.046 94.2047 151.625 94.6101 150.097L94.8691 149.006C94.7376 148.429 94.6753 147.901 94.7065 147.306C94.9182 143.285 97.1498 131.064 100.136 128.428C100.161 128.406 100.197 128.391 100.211 128.361C100.85 126.902 101.629 126.109 102.714 124.939C102.708 124.891 102.697 124.842 102.696 124.794C102.651 122.489 104.455 119.988 106.012 118.39L106.56 117.028C106.635 115.746 107.239 115.501 108.13 114.618L108.103 113.534C108.735 107.28 111.447 103.098 111.283 95.9638L110.997 95.37C111.063 93.8271 110.684 91.6529 110.473 90.0708L110.065 89.2012C109.576 87.1499 108.08 85.6053 106.646 84.1674C103.473 83.344 98.7187 82.014 95.9979 84.4801C92.4968 86.5747 92.9184 89.353 90.9123 88.9029L95.6403 39.8009C96.1733 33.7885 96.5228 27.6479 97.0875 21.6366C97.7998 14.0605 98.3778 12.3225 104.723 8.32726Z" fill="#F2F2F1"/>
<path d="M95.9979 84.4801C99.3237 77.6194 96.3811 36.3402 103.054 33.7892C106.593 32.4361 137.92 34.8341 141.235 38.0816C142.21 43.3826 138.221 85.9972 135.531 91.2157C132.021 93.4897 115.764 90.2981 110.473 90.0708L110.065 89.2012C109.576 87.1499 108.08 85.6053 106.646 84.1674C103.473 83.344 98.7187 82.014 95.9979 84.4801Z" fill="#DADBD7"/>
<path d="M95.9979 84.4801C99.3237 77.6194 96.3811 36.3402 103.054 33.7892C106.593 32.4361 137.92 34.8341 141.235 38.0816C142.21 43.3826 138.221 85.9972 135.531 91.2157C132.021 93.4897 115.764 90.2981 110.473 90.0708L110.065 89.2012C116.239 88.7915 130.872 91.7719 134.521 90.0611C137.035 84.4277 140.929 43.4749 139.568 38.3862C135.965 36.0793 113.995 35.0869 108.2 34.7153C106.072 34.8319 104.075 34.6201 101.954 34.4533C101.021 42.9054 97.7867 74.6577 98.3797 81.3217C100.513 82.6557 101.777 80.0123 106.646 84.1674C103.473 83.344 98.7187 82.014 95.9979 84.4801Z" fill="#0C0C0C"/>
<path d="M101.954 34.4538C104.495 33.8058 105.618 33.9582 108.201 34.7158C106.073 34.8324 104.076 34.6206 101.954 34.4538Z" fill="#747572"/>
<path d="M114.973 43.8618C118.539 44.1769 121.698 44.65 125.335 44.6252C133.08 52.7997 133.46 56.2936 134.8 67.4131C135.142 70.2445 135.732 74.5744 133.844 76.9598C132.384 77.5847 132.087 77.7919 130.55 77.5155C129.018 76.2362 128.604 73.9755 128.028 72.136L127.294 72.432C127.076 73.3679 126.92 74.3182 126.749 75.2634C125.421 76.2016 123.988 75.9743 122.433 75.9442C118.03 75.886 113.663 75.302 109.294 74.7995C108.823 72.8855 108.516 70.9075 108.153 68.9688C107.341 70.724 106.441 73.3189 104.536 74.1359C103.407 74.62 103.159 74.4527 102.075 74.0545C100.608 72.1077 100.6 69.6375 100.902 67.3092C101.693 61.2154 105.212 52.5608 109.47 48.1519C111.017 46.5495 113.193 45.2103 114.973 43.8618Z" fill="#0C0C0C"/>
<path d="M121.257 53.0598C124.223 52.3628 125.184 49.5781 127.821 49.4275C131.857 52.0281 134.334 68.7661 133.184 73.4301L132.166 74.6597L130.778 74.6251C128.479 72.1549 128.018 64.3231 127.896 60.8201C126.604 62.7288 126.618 64.7911 126.382 67.1026L126.228 74.6689L118.726 74.561C118.646 68.0189 120.747 56.8439 119.847 51.3986L121.257 53.0598Z" fill="#B5FE28"/>
<path d="M126.382 67.1026C126.228 63.7992 126.177 61.539 127.021 58.3424L127.662 58.6459L127.896 60.8201C126.604 62.7288 126.618 64.7911 126.382 67.1026Z" fill="#415A0E"/>
<path d="M122.786 55.2685C124.631 57.1236 123.218 59.8183 124.564 62.3289L123.055 61.652C122.135 59.7756 122.623 57.2985 122.786 55.2685Z" fill="#668D1B"/>
<path d="M114.415 49.4879C116.005 52.2258 116.648 52.8594 115.637 56.1391L116.312 56.0127L118.863 57.3958C117.656 62.0817 117.838 69.1674 116.912 74.3017L109.428 73.4368C109.828 70.2742 111.533 59.9272 111.311 57.4155L110.603 57.1783C110.149 57.91 109.721 58.5799 109.309 59.3392C108.126 55.1392 110.61 51.2732 114.415 49.4879Z" fill="#B5FE28"/>
<path d="M109.31 59.3409C109.822 61.8573 107.271 72.4656 103.539 71.6324C100.54 67.5858 107.164 51.3695 111.084 48.4227C113.171 48.1111 112.294 47.934 114.415 49.4896C110.61 51.2749 108.126 55.1409 109.31 59.3409Z" fill="#B5FE28"/>
<path d="M119.847 51.3986C121.092 49.6584 122.436 47.4147 124.266 46.4165L125.434 46.6894L126.026 47.911C124.307 50.6293 122.455 50.2302 121.257 53.0598L119.847 51.3986Z" fill="#E6FEB6"/>
<path d="M114.748 45.0305C115.882 46.012 117.075 47.4534 117.939 48.6783C119.051 50.2547 118.723 51.1422 118.384 52.8548C116.936 51.0285 114.375 48.7228 113.837 46.4673L114.748 45.0305Z" fill="#E6FEB6"/>
<path d="M116.223 45.8663C118.178 45.658 120.457 45.1393 122.306 45.9656L122.573 47.2067L121.088 47.8674C119.217 48.0376 117.727 46.8242 116.223 45.8663Z" fill="#D9FE91"/>
<path d="M116.312 56.0127L117.227 54.1971L118.137 53.9236C119 55.3563 118.879 55.6417 118.863 57.3958L116.312 56.0127Z" fill="#B5FE28"/>
<path d="M111.283 95.9628C114.5 95.9299 132.989 97.9437 134.401 99.4139C135.565 100.626 134.626 109.064 134.501 110.879C134.123 116.369 132.759 148.736 129.991 151.33C123.545 153.604 103.18 148.933 94.869 149.005C94.7375 148.428 94.6752 147.9 94.7064 147.305C94.9181 143.284 97.1497 131.063 100.136 128.427C100.161 128.405 100.197 128.39 100.211 128.36C100.85 126.901 101.628 126.108 102.714 124.938C102.708 124.89 102.697 124.841 102.696 124.793C102.651 122.488 104.455 119.987 106.012 118.389L106.56 117.027C106.634 115.745 107.239 115.5 108.13 114.617L108.102 113.533C108.735 107.279 111.447 103.097 111.283 95.9628Z" fill="#DADBD7"/>
<path d="M108.102 113.533C115.402 114.638 123.533 116.982 128.042 123.31C129.134 124.843 130.175 126.857 129.903 128.789C129.718 130.112 128.911 131.182 127.837 131.935C124.521 134.259 120.735 134.547 116.832 134.745C115.259 137.216 112.893 140.456 109.913 141.33C108.838 141.645 107.742 141.45 106.825 140.857C104.883 139.599 102.762 136.335 102.329 134.04C101.873 131.63 101.896 130.276 100.136 128.427C100.161 128.405 100.197 128.39 100.211 128.36C100.85 126.901 101.628 126.108 102.714 124.938C102.708 124.89 102.697 124.841 102.696 124.793C102.651 122.488 104.455 119.987 106.012 118.389L106.56 117.027C106.634 115.745 107.239 115.5 108.13 114.617L108.102 113.533Z" fill="#30302F"/>
<path d="M106.012 118.389C112.409 119.268 120.683 121.006 124.776 126.535C125.148 127.038 125.346 127.337 125.542 127.929C124.532 129.113 124.416 129.623 122.831 129.758C116.263 130.323 109.008 126.607 102.714 124.938C102.708 124.89 102.697 124.841 102.696 124.793C102.651 122.488 104.455 119.987 106.012 118.389Z" fill="#D9DBD5"/>
<path d="M108.13 114.617C113.93 115.837 124.037 118.329 127.379 123.558C127.799 124.216 127.919 124.973 127.999 125.735L127.365 127.39L126.82 127.386C123.522 122.087 118.539 119.491 112.521 118.087C110.562 117.63 108.548 117.335 106.56 117.027C106.634 115.745 107.239 115.5 108.13 114.617Z" fill="#B5FE28"/>
<path d="M104.215 127.601C106.735 127.664 111.205 128.023 113.353 129.387C114.27 129.969 115.057 130.843 115.261 131.917C115.714 134.309 114.099 136.366 112.793 138.196C111.138 139.039 109.668 139.742 107.744 139.447C106.48 139.253 105.392 138.573 104.688 137.503C102.656 134.421 103.387 130.924 104.215 127.601Z" fill="#D9FE91"/>
<path d="M106.548 129.31C107.991 128.447 109.789 128.438 111.239 129.287C112.69 130.136 113.564 131.707 113.52 133.388C113.476 135.069 112.521 136.592 111.028 137.363C108.816 138.506 106.096 137.685 104.886 135.508C103.676 133.332 104.412 130.588 106.548 129.31Z" fill="#0C0C0C"/>
<path d="M107.755 130.328C109.482 129.8 111.314 130.754 111.873 132.473C112.431 134.192 111.51 136.041 109.802 136.63C108.67 137.02 107.415 136.769 106.52 135.973C105.626 135.177 105.231 133.959 105.486 132.789C105.742 131.619 106.61 130.678 107.755 130.328Z" fill="#B5FE28"/>
<path d="M126.979 129.043L127.429 129.879C127.356 130.034 127.292 130.194 127.21 130.345C126.187 132.22 122.567 133.01 120.697 133.578C120.035 132.975 120.106 132.904 119.997 132.001C121.315 130.581 124.656 130.267 126.539 129.278L126.979 129.043Z" fill="#B5FE28"/>
<path d="M121.913 100.446C122.687 100.472 123.457 100.528 124.228 100.585C127.29 100.813 129.945 100.892 132.118 103.406C132.492 104.822 132.418 105.738 132.121 107.136C131.987 107.766 131.897 107.666 131.39 107.992C128.168 108.031 124.883 109.34 121.916 107.406C120.56 104.921 121.164 103.05 121.913 100.446Z" fill="#B5FE28"/>
<path d="M122.533 101.637C124.437 101.769 126.455 101.684 128.062 102.842C128.826 104.555 128.541 105.444 128.344 107.285C126.531 107.224 124.652 107.388 123.079 106.382C122.076 104.895 122.404 103.341 122.533 101.637Z" fill="#1C1C1C"/>
<path d="M129.917 102.178C131.024 104.032 130.826 104.607 130.719 106.711L130.066 106.348C129.33 104.796 129.697 103.858 129.917 102.178Z" fill="#DADBD7"/>
<path d="M95.6738 155.235C106.874 157.264 118.379 157.34 129.629 158.917L130.35 158.125L131.419 159.333L131.655 160.051C131.455 162.199 131.221 164.247 131.552 166.394C131.374 169.556 129.275 181.507 130.77 183.36C132.311 183.476 132.426 183.453 133.724 182.616C136.126 178.382 133.577 169.575 137.004 166.692C143.348 165.266 168.34 167.392 174.122 170.211C175.389 171.72 175.081 174.177 174.923 176.03C174.553 180.39 174.176 184.987 173.262 189.264C164.855 186.108 150.403 186.336 141.026 185.555C127.465 184.425 113.392 183.257 99.9455 181.286L99.8763 180.293C99.8313 179.933 99.7996 179.792 99.8267 179.396C99.938 177.775 100.976 177.154 102.065 176.115L101.352 175.721L100.308 175.875C98.6829 173.552 95.9293 158.403 95.6738 155.235Z" fill="#30302F"/>
<path d="M95.6738 155.235C106.874 157.264 118.379 157.34 129.629 158.917L130.35 158.125L131.419 159.333C131.304 160.607 131.342 162.862 130.575 163.875C130.208 168.908 130.552 179.844 127.126 183.422C126.282 183.653 126.169 183.799 125.399 183.357C120.776 180.708 120.314 171.635 115.042 170.824L114.809 171.085C114.13 171.836 113.547 172.365 112.688 172.897C110.615 172.589 108.73 172.276 107.346 170.512C107.191 170.315 107.051 170.107 106.911 169.9C104.773 171.181 103.166 173.927 101.352 175.721L100.308 175.875C98.6829 173.552 95.9293 158.403 95.6738 155.235Z" fill="#DADBD7"/>
<path d="M130.35 158.125L131.419 159.333C131.304 160.607 131.342 162.862 130.575 163.875C130.624 162.028 130.8 160.48 129.629 158.917L130.35 158.125Z" fill="#747572"/>
<path d="M119.634 159.815C122.575 160.098 125.733 160.042 127.892 162.33C128.882 164.165 128.458 165.893 128.178 167.865C126.41 168.025 124.479 168.32 122.711 168.231C121.066 168.149 120.471 167.607 119.391 166.503C118.591 164.369 119.256 161.993 119.634 159.815Z" fill="#415A0E"/>
<path d="M120.736 161.022C122.389 161.237 123.952 161.393 125.489 162.092C126.463 163.743 126.212 164.839 126.197 166.732C124.405 166.865 122.396 167.32 120.832 166.289C119.891 164.698 120.464 162.751 120.736 161.022Z" fill="#B5FE28"/>
<path d="M102.066 176.114L106.379 173.01L105.902 171.387C106.368 171.175 106.479 171.31 106.959 171.504C110.164 172.804 110.046 175.659 114.159 173.946C114.76 173.696 115.34 173.375 115.914 173.068C117.708 175.031 119 177.413 120.372 179.679L120.281 180.777C117.052 183.243 104.542 180.853 100.17 180.331C100.072 180.319 99.9746 180.305 99.8771 180.291C99.8321 179.931 99.8004 179.791 99.8275 179.394C99.9388 177.774 100.977 177.152 102.066 176.114Z" fill="#B5FE28"/>
<path d="M137.431 166.938C142.993 167.021 169.016 168.643 172.747 171.14C173.877 174.524 173.709 178.318 173.335 181.825C173.106 183.974 173.087 185.921 171.337 187.334L169.41 186.865C169.003 185.683 168.582 184.422 167.726 183.479C166.741 182.396 165.111 181.882 163.681 181.849C161.505 181.798 160.859 183.134 159.428 184.378C159.089 184.674 158.373 185.331 157.949 185.484C155.231 186.471 139.539 184.13 135.279 183.782C136.327 178.303 135.788 172.229 137.431 166.938Z" fill="#DADBD7"/>
<path d="M139.698 177.425C139.257 175.716 138.493 173.465 139.382 171.804C140.13 170.407 141.477 169.806 142.964 169.46C146.817 168.561 152.314 169.057 155.741 171.148C156.757 171.768 157.863 172.815 158.169 174.006C158.555 175.511 158.189 177.407 157.32 178.662C154.772 180.182 144.509 178.852 141.55 178.183C141.104 178.083 140.662 177.904 140.243 177.723L139.698 177.425Z" fill="#1C1C1C"/>
<path d="M140.482 170.853C144.323 169.879 151.899 170.995 155.755 171.888C156.818 172.784 156.783 172.873 156.889 174.255C156.988 175.555 156.619 176.975 156.367 178.247L154.172 178.048L149.301 177.553L142.51 176.979L140.535 176.342L140.482 170.853Z" fill="#B5FE28"/>
<path d="M147.521 174.999C148.968 173.998 150.315 173.405 152.151 173.651C152.733 173.729 153.229 173.959 153.728 174.251L153.587 174.977C152.147 175.855 150.726 175.69 149.112 175.644L147.521 174.999Z" fill="#668D1B"/>
<path d="M145.373 175.501C144.585 175.356 143.858 174.987 143.126 174.671L142.873 173.77L143.876 173.146C144.548 173.184 145.231 173.203 145.872 173.425C146.928 173.791 146.905 174.066 147.367 174.987L145.373 175.501Z" fill="#668D1B"/>
<path d="M139.698 177.425C140.133 175.257 140.285 173.053 140.482 170.853L140.535 176.342L142.51 176.979L140.243 177.723L139.698 177.425Z" fill="#668D1B"/>
<path d="M154.173 178.048L156.368 178.247C155.329 178.449 155.171 178.415 154.173 178.048Z" fill="#668D1B"/>
<path d="M162.108 182.829C162.914 182.956 163.768 183.069 164.545 183.32C165.894 183.756 166.615 184.096 167.222 185.405L166.573 186.532C164.888 186.325 163.258 186.128 161.621 185.652L161.149 184.623L162.108 182.829Z" fill="#DADBD7"/>
<path d="M110.998 95.3696C115.505 94.7528 131.699 95.8451 135.213 98.4987C136.239 99.2742 136.218 100.005 136.331 101.213C136.878 107.076 133.38 147.376 131.572 151.683C126.827 155.427 101.993 150.043 94.6115 150.097L94.8705 149.005C103.182 148.934 123.546 153.605 129.993 151.331C132.761 148.737 134.125 116.369 134.503 110.88C134.628 109.065 135.567 100.627 134.403 99.4144C132.991 97.9442 114.501 95.9304 111.284 95.9633L110.998 95.3696Z" fill="#30302F"/>
<path d="M95.2804 154.138C105.304 155.626 121.499 155.403 130.351 158.125L129.63 158.916C118.38 157.339 106.875 157.263 95.6749 155.234L95.2804 154.138Z" fill="#30302F"/>
<path d="M131.655 160.051C132.293 162.21 132.092 164.23 131.552 166.394C131.221 164.247 131.455 162.199 131.655 160.051Z" fill="#747572"/>
<path d="M142.912 98.8532C148.266 98.5924 175.347 100.664 179.205 102.812C179.502 103.354 179.745 103.921 179.877 104.528C180.926 109.349 176.837 154.176 175.395 161.037C175.176 162.078 174.632 162.986 174.045 163.861C169.207 164.323 141.073 161.844 138.051 159.244C137.145 158.465 137.071 156.734 136.976 155.599C136.402 148.828 139.521 108.932 141.16 101.852C141.433 100.671 142.141 99.7574 142.912 98.8532Z" fill="#30302F"/>
<path d="M143.022 100.031C154.983 101.09 167.095 101.588 178.985 103.248C178.938 115.672 177.189 128.034 176.112 140.389C175.503 147.377 175.985 156.23 173.759 162.731C161.769 161.86 149.81 160.591 137.905 158.925C137.588 151.549 141 105.335 143.022 100.031Z" fill="#DADBD7"/>
<path d="M143.336 154.292C144.266 148.622 150.021 120.46 149.547 117.619L147.905 115.97C148.222 114.839 148.382 114.759 149.406 114.146C153.34 111.792 159.652 112.295 162.077 107.456L161.807 106.326L160.798 105.893L158.848 107.134L158.588 106.093C159.557 105.007 159.803 104.924 161.211 104.515L162.954 104.933C163.605 106.047 163.632 106.057 163.288 107.361C162.988 108.505 162.418 109.618 161.931 110.694C163.81 113.936 171.983 114.339 172.394 118.641L172.02 119.113C171.462 119.832 170.707 120.735 170.448 121.615C168.894 126.887 172.612 150.926 170.402 155.706C169.871 156.855 168.445 157.253 167.269 157.425C164.341 157.852 160.971 157.206 158.039 156.86C158.11 154.209 158.033 151.463 158.301 148.829C158.089 147.258 157.712 146.01 157.125 144.553C156.501 148.618 155.95 152.715 155.21 156.76C151.273 156.08 147.114 155.607 143.336 154.292Z" fill="#0C0C0C"/>
<path d="M157.124 144.554C157.371 143.265 157.393 141.355 158.344 140.464C158.776 143.289 158.52 146.002 158.299 148.83C158.087 147.259 157.711 146.011 157.124 144.554Z" fill="#D9DBD5"/>
<path d="M154.42 121.012C157.306 121.502 161.711 121.223 164.301 122.151C164.924 122.375 165.305 123.309 165.541 123.847C166.423 125.856 167.141 127.486 168.647 129.114C168.771 129.247 168.897 129.378 169.022 129.511C169.473 138.41 169.581 147.323 169.344 156.23C166.133 156.297 162.911 156.089 159.703 155.95C159.851 147.59 160.151 139.198 159.861 130.84C159.218 130.813 158.962 131.066 158.404 131.361C155.878 138.541 155.611 147.889 154.222 155.495L144.71 153.518L149.261 127.868C152.31 125.875 153.42 124.558 154.42 121.012Z" fill="#D9DBD5"/>
<path d="M158.967 112.081C162.577 111.787 169.043 116.674 172.318 118.599C169.258 117.956 166.191 117.438 163.104 116.941C158.121 116.455 153.156 116.159 148.154 115.947C151.606 114.365 155.368 113.293 158.967 112.081Z" fill="#DADBD7"/>
<path d="M151.037 117.383C153.373 117.274 158.637 117.528 160.304 119.004L160.042 120.652C157.297 119.552 152.963 120.229 150.986 118.779L151.037 117.383Z" fill="#D9DBD5"/>
<path d="M160.968 118.57C163.388 118.54 166.342 118.307 168.52 119.505C169.033 119.787 169.2 120.974 169.378 121.547C167.673 121.144 166.014 120.936 164.296 120.648C162.268 120.308 162.121 120.234 160.968 118.57Z" fill="#D9DBD5"/>
<path d="M150.569 120.258L152.223 120.951C152.728 122.565 151.999 123.498 151.393 125.029L150.161 124.936C149.614 123.195 150.161 122.017 150.569 120.258Z" fill="#DADBD7"/>
<path d="M166.534 122.057L168.289 122.74C169.268 124.31 169.006 125.441 169.005 127.269L168.86 127.156C167.287 125.95 167.013 123.882 166.534 122.057Z" fill="#DADBD7"/>
<path d="M154.703 38.3312L155.493 37.9712L155.847 38.2043C162.062 38.9469 180.874 39.6191 184.712 42.3732C185.039 43.0979 185.246 43.8215 185.332 44.6114C186.046 51.2488 182.345 92.7076 179.07 96.5557C178.704 96.9856 177.705 96.9446 177.135 96.9764C171.68 97.2781 165.91 95.7814 160.477 95.2973C155.877 94.887 151.021 95.2546 146.493 94.28C144.97 93.9528 143.873 93.4768 142.684 92.4439C140.232 81.2338 145.759 55.4206 145.721 42.6571C145.703 37.033 150.607 37.494 154.703 38.3312Z" fill="#DADBD7"/>
<path d="M155.847 38.2043C162.062 38.9469 180.874 39.6191 184.712 42.3732C185.039 43.0979 185.246 43.8215 185.332 44.6114C186.046 51.2488 182.345 92.7076 179.07 96.5557C178.704 96.9856 177.705 96.9446 177.135 96.9764C171.68 97.2781 165.91 95.7814 160.477 95.2973C155.877 94.887 151.021 95.2546 146.493 94.28C144.97 93.9528 143.873 93.4768 142.684 92.4439C140.232 81.2338 145.759 55.4206 145.721 42.6571C145.703 37.033 150.607 37.494 154.703 38.3312L150.81 39.0629C148.503 38.9128 149.275 38.6642 147.59 39.6982C146.574 42.1493 143.014 87.8977 143.089 92.5212C147.74 93.2292 176.142 96.6221 178.767 95.2396C181.203 89.9455 184.806 48.7249 183.703 42.9496C181.236 41.1274 161.023 39.5874 156.364 39.0611L155.861 38.7761L155.847 38.2043Z" fill="#30302F"/>
<path d="M154.702 38.3326L155.493 37.9725L155.847 38.2056L155.861 38.7774L156.364 39.0625C153.929 39.6124 153.295 39.4289 150.81 39.0642L154.702 38.3326Z" fill="#D9DBD5"/>
<path d="M150.682 53.0256C149.61 51.2248 149.237 50.3679 150.078 48.5186C151.799 47.8585 151.036 47.8596 152.968 48.6946C154.366 50.2704 154.223 51.1925 154.312 53.2559C156.596 54.5432 158.433 59.9261 159.347 62.5099L159.171 61.9589C160.226 62.4667 163.875 64.1527 164.919 65.1192C169.317 69.1929 180.96 82.9171 170.951 86.8166C167.325 88.2291 161.375 84.9332 157.935 82.8537C156.379 81.92 154.949 80.7897 153.681 79.4908C152.924 78.4753 152.858 77.3271 152.619 76.0472C153.18 71.8431 153.876 68.961 155.958 65.275C154.402 60.9342 151.945 57.3117 150.682 53.0256Z" fill="#1C1C1C"/>
<path d="M154.012 76.1986C157.006 78.2279 159.858 81.0836 163.01 82.5192C165.352 83.5861 171.826 82.6126 173.308 83.9328C168.944 88.4376 157.518 81.9347 154.126 78.4772L154.012 76.1986Z" fill="#D9DBD5"/>
<path d="M150.682 53.0256C149.61 51.2248 149.237 50.3679 150.078 48.5186C151.799 47.8585 151.036 47.8596 152.968 48.6946C154.366 50.2704 154.223 51.1925 154.312 53.2559L152.717 53.0539C152.272 51.3944 152.121 50.5825 151.309 49.0327L150.743 49.9646L151.126 50.0292L151.173 50.316L150.48 51.0465C150.566 51.6062 150.767 52.5184 150.682 53.0256Z" fill="#424240"/>
<path d="M152.618 76.0465L154.01 76.1965L154.124 78.4751L153.681 79.49C152.923 78.4745 152.857 77.3263 152.618 76.0465Z" fill="#747572"/>
<path d="M156.392 66.5011C161.837 63.0408 168.427 66.2628 166.938 72.1062L167.072 72.5107C169.704 73.1638 169.962 74.2913 171.061 76.6611L171.643 77.2537L172.926 78.3558C173.52 80.4994 173.978 80.6385 173.246 82.3089C167.977 84.7093 157.861 77.6247 153.804 74.7402L156.392 66.5011Z" fill="#B5FE28"/>
<path d="M156.392 66.5011C161.837 63.0408 168.427 66.2628 166.938 72.1062L167.072 72.5107L164.908 73.352L162.72 73.3676L161.862 73.18C159.812 71.6071 159.832 70.5217 159.123 67.8952C157.97 67.8952 157.352 67.2195 156.392 66.5011Z" fill="#E6FEB6"/>
<path d="M156.392 66.5011C161.837 63.0408 168.427 66.2628 166.938 72.1062C166.39 71.3607 165.919 70.4386 165.46 69.6181C163.003 67.1589 162.317 66.6102 159.123 67.8952C157.97 67.8952 157.352 67.2195 156.392 66.5011Z" fill="#E6FEB6"/>
<path d="M159.123 67.8952C162.317 66.6102 163.003 67.1589 165.46 69.6181L165.048 70.2993L162.703 69.046L161.696 69.3859C161.654 70.9865 161.875 71.2929 162.584 72.7487L161.862 73.18C159.812 71.6071 159.832 70.5217 159.123 67.8952Z" fill="#1C1C1C"/>
<path d="M165.46 69.6181C165.919 70.4386 166.39 71.3607 166.938 72.1062L167.072 72.5107L164.908 73.352L162.72 73.3676L161.862 73.18L162.584 72.7487C164.011 73.0372 163.353 73.1241 164.63 72.5557L165.048 70.2993L165.46 69.6181Z" fill="#1C1C1C"/>
<path d="M167.073 72.5114C169.705 73.1646 169.963 74.2921 171.062 76.6619C168.874 76.7877 168.464 76.4063 166.682 75.2713L164.908 73.352L167.073 72.5114Z" fill="#E6FEB6"/>
<path d="M166.681 75.2714C168.463 76.4063 168.873 76.7869 171.061 76.6611L171.643 77.2537C169.415 77.8654 168.439 77.9793 166.478 76.6868L166.681 75.2714Z" fill="#1C1C1C"/>
<path d="M162.72 73.3676L164.908 73.352L166.682 75.2703L166.48 76.6857L162.72 73.3676Z" fill="#1C1C1C"/>
<path d="M168.311 43.2437C171.74 43.2454 178.523 43.3273 180.907 46.0918C182.187 47.577 181.612 50.0997 181.553 51.9173C179.527 52.664 174.719 52.8117 172.547 52.5947C170.944 52.4349 169.268 51.5907 168.336 50.2647C167.005 48.3704 167.947 45.3451 168.311 43.2437Z" fill="#415A0E"/>
<path d="M175.606 51.0492C173.45 51.1092 171.441 51.4842 169.866 50.1467C168.863 48.647 168.539 48.4364 168.654 46.7504C170.301 44.2473 172.799 43.627 175.486 45.0286C176.014 45.8041 176.556 46.5692 177.112 47.3245L179.654 46.8762C180.581 48.6742 180.183 49.0296 180.053 51.3752C178.501 51.7681 177.209 51.3556 175.606 51.0492Z" fill="#B5FE28"/>
<path d="M175.608 51.0478C177.195 51.0795 178.497 51.0339 180.055 51.3738C178.502 51.7667 177.21 51.3542 175.608 51.0478Z" fill="#668D1B"/>
<path d="M130.439 189.389C132.383 188.9 134.463 188.222 136.314 189.335C137.222 189.881 137.895 190.896 138.075 191.952C138.265 193.073 138.019 194.45 137.357 195.391C136.625 196.423 135.507 197.081 134.218 197.075C132.659 197.064 131.159 196.227 129.96 195.321C129.647 193.181 129.972 191.482 130.439 189.389Z" fill="#F2F2F1"/>
<path d="M130.441 189.389C132.385 188.9 134.465 188.222 136.316 189.335C137.224 189.881 137.897 190.896 138.077 191.952C138.267 193.073 138.021 194.45 137.359 195.391C136.627 196.423 135.509 197.081 134.22 197.075C132.661 197.064 131.161 196.227 129.962 195.321L131.042 195.362C131.911 195.523 132.989 195.812 133.871 195.766C135.516 195.685 135.921 195.079 136.972 193.954C137.16 192.53 137.049 192.362 136.382 191.072C134.427 189.784 133.415 189.949 131.111 189.839L130.441 189.389Z" fill="#424240"/>
<path d="M130.439 189.389L131.109 189.839C131.037 191.662 130.85 193.547 131.04 195.362L129.96 195.321C129.647 193.181 129.972 191.482 130.439 189.389Z" fill="#424240"/>
<path d="M115.018 201.137C120.065 201.183 145.482 202.908 148.395 205.505C143.489 206.116 120.127 203.745 115.42 202.244L115.018 201.137Z" fill="#0C0C0C"/>
<path d="M149.915 190.901C152.024 191.084 155.45 190.899 157.038 192.391C157.339 194.086 157.181 194.259 156.4 195.823C155.612 196.423 154.827 196.85 153.94 197.288C152.779 197.046 152.082 197.046 151.239 196.146C149.874 194.686 149.813 192.766 149.915 190.901Z" fill="#747572"/>
<path d="M150.448 192.385C152.235 192.296 153.957 192.054 155.643 192.763C156.244 194.208 155.958 194.519 155.499 196.042C154.299 196.389 153.726 196.244 152.56 195.84C151.332 194.785 150.934 193.916 150.448 192.385Z" fill="#F2F2F1"/>
<path d="M103.514 24.6572C107.212 24.0519 131.976 25.8527 134.826 27.5895C130.827 28.4579 106.69 26.5827 103.514 24.6572Z" fill="#424240"/>
<path d="M114.25 186.767C118.688 188.641 116.293 190.472 118.064 193.447C118.168 193.623 118.287 193.79 118.398 193.962L118.001 194.322C117.434 194.08 116.868 193.962 116.277 193.808C114.277 193.285 113.122 192.656 112.069 190.855C112.127 189 113.096 188.081 114.25 186.767Z" fill="#747572"/>
<path d="M114.184 188.619C115.165 188.227 116.278 188.703 116.673 189.683C117.068 190.664 116.595 191.779 115.616 192.176C114.633 192.576 113.513 192.101 113.117 191.116C112.72 190.132 113.198 189.012 114.184 188.619Z" fill="#F2F2F1"/>
<path d="M181.717 20.5052C182.914 20.3252 184.664 19.8872 185.833 20.2219C187.12 20.59 187.19 21.0389 187.839 22.1399C187.066 22.2893 186.214 22.482 185.424 22.4728C183.744 22.4526 182.837 21.624 181.717 20.5052Z" fill="#0C0C0C"/>
<path d="M104.062 12.5006C105.737 12.8237 106.928 14.5749 108.093 15.7636C106.592 16.0221 105.848 16.4641 104.527 15.5385L104.062 12.5006Z" fill="#424240"/>
<path d="M167.023 192.49L168.925 193.297L169.276 194.19L167.962 196.36C166.922 195.662 166.69 195.563 166.164 194.375L167.023 192.49Z" fill="#D9DBD5"/>
<path d="M84.6198 100.301L89.8179 42.5972C90.9974 29.8394 89.0899 1.62241 108.148 2.93972C132.442 4.61941 156.82 7.01518 181.121 8.95394C203.569 10.7883 197.532 31.8745 196.256 47.5785C194.972 63.1134 193.609 78.6425 192.168 94.1636L186.188 160.185C184.982 173.853 183.984 187.529 182.276 201.173C181.146 211.738 176.932 218.212 165.491 218.044C155.841 217.9 143.584 216.844 134.048 215.685C127.791 214.923 101.237 213.538 97.4212 211.426C97.1184 210.324 97.0324 210.364 97.5908 209.384C97.904 208.83 98.1058 208.391 98.6399 208.028C111.624 210.082 125.968 211.022 139.102 212.326C177.738 216.158 177.723 217.502 180.668 180.228C181.517 168.771 182.491 157.324 183.59 145.889C185.936 121.352 188.134 96.8022 190.185 72.24C191.382 58.7939 192.603 45.0564 193.776 31.6218C195.443 12.5349 187.49 12.2579 170.907 11.5753C170.089 13.5758 169.389 16.8215 167.525 18.0182C163.242 20.7688 156.322 18.2582 151.42 17.874C142.902 17.2058 134.529 16.9305 126.072 15.8111C118.499 14.8089 122.942 7.79702 116.718 7.00536C106.39 5.60842 97.5452 4.47862 95.5893 17.2715C94.3953 25.0837 93.9569 32.8468 93.2342 40.7282L88.6608 93.249C87.4305 96.1825 86.3525 97.6908 84.6198 100.301Z" fill="#D9DBD5"/>
<path d="M137.565 10.7572C141.682 10.898 148.725 10.3048 151.753 13.2482C148.063 14.1246 141.803 13.4299 138.225 12.3769L137.565 10.7572Z" fill="#0C0C0C"/>
<path d="M155.061 12.0455C155.523 11.6416 156.17 11.5244 156.744 11.7402C157.318 11.956 157.727 12.4702 157.809 13.0783C157.89 13.6865 157.631 14.2907 157.134 14.6501C156.413 15.1723 155.409 15.0344 154.855 14.338C154.3 13.6415 154.391 12.6317 155.061 12.0455Z" fill="#30302F"/>
<path d="M194.535 98.0269C198.932 99.3679 204.729 100.507 207.476 104.615C208.324 105.884 208.687 107.218 208.376 108.732C207.791 111.588 205.554 113.149 203.341 114.728C199.874 116.342 196.495 117.265 192.793 118.134C193.441 111.437 194.022 104.735 194.535 98.0269Z" fill="white"/>
<path d="M192.207 125.525C193.222 125.977 194.099 126.671 194.932 127.4C197.55 129.695 200.777 133.35 201.034 136.918C200.138 137.333 198.752 134.059 197.41 133.909C197.985 136.999 200.677 140.267 202.402 142.899C202.461 143.286 202.447 143.604 202.381 143.992C202.137 145.436 201.598 146.582 200.299 147.354C197.507 149.016 193.59 147.935 190.617 147.324C190.752 140.034 191.283 132.757 192.207 125.525Z" fill="white"/>
<path d="M189.733 151.9L192.144 152.684C193.595 154.034 194.915 155.388 195.912 157.119C197.296 159.519 197.97 162.287 197.143 164.994C196.576 166.848 195.158 168.615 193.387 169.45C192.043 170.084 191.031 170.202 189.641 169.687C187.358 166.494 189.514 156.016 189.733 151.9Z" fill="white"/>
<path d="M199.196 65.212C200.194 65.5282 201.328 65.8461 202.207 66.4249C203.622 67.3544 204.567 68.8506 204.798 70.528C205.371 74.9693 201.444 79.3459 198.817 82.5027C198.046 83.2702 197.57 83.6458 196.519 83.9505C195.814 82.6955 195.999 80.9477 196.083 79.5502C196.298 75.986 196.59 67.5333 199.196 65.212Z" fill="white"/>
<path d="M98.5344 85.2245L99.53 85.6174C100.436 86.4472 100.776 87.2602 100.967 88.4523C101.497 91.7615 100.337 95.6424 98.3152 98.2817C97.1542 99.7969 96.2451 100.144 94.4086 100.381C92.8836 99.7692 90.9323 99.1316 90.1421 97.6902C91.9543 93.2755 95.4843 88.8885 98.5344 85.2245Z" fill="#F2F2F1"/>
<path d="M189.732 151.899C189.46 150.39 189.207 149.759 189.819 148.307C190.897 148.754 191.252 149.002 191.682 150.137C191.966 150.888 192.031 151.886 192.143 152.683L189.732 151.899Z" fill="#30302F"/>
<path d="M132.339 218.35L135.517 218.801C129.14 227.167 122.213 233.647 113.044 238.892C107.21 242.233 99.8219 244.87 95.3783 250H91.6609C98.8604 240.242 115.901 236.284 126.819 224.161C128.777 222.591 130.592 220.197 132.339 218.35Z" fill="#30302F"/>
<path d="M218.662 25.2341C216.302 25.4239 213.493 25.9075 211.402 24.9594C209.457 21.9122 220.445 7.23072 223.525 5.41602C227.552 6.36578 236.233 20.4097 236.616 24.4136C235.082 26.2213 230.917 25.2537 228.591 24.9819C228.769 32.7624 229.117 60.276 223.2 65.247C220.577 65.1437 218.546 64.3035 215.911 64.2343C215.533 59.8963 217.785 49.9694 218.227 45.0423C218.842 38.1857 218.883 32.1259 218.662 25.2341Z" fill="#0C0C0C"/>
<path d="M221.034 37.9791C222.237 33.4132 219.881 26.7793 222.976 23.7344C224.987 23.7021 224.46 23.7639 226.401 24.9894C227.712 37.4985 225.619 52.941 223.2 65.2458C220.577 65.1425 218.546 64.3024 215.911 64.2332C219.617 61.31 220.595 42.9743 221.034 37.9791Z" fill="#B5FE28"/>
<path d="M223.606 7.25356C227.416 11.4507 231.566 18.5145 234.401 23.377C231.09 23.0914 227.535 21.6598 226.401 24.9909C224.46 23.7653 224.987 23.7036 222.977 23.7359C219.881 26.7808 222.237 33.4147 221.034 37.9806C220.989 32.7281 220.918 27.9279 220.586 22.6898L213.269 23.358C216.171 18.3922 220.319 11.8466 223.606 7.25356Z" fill="#B5FE28"/>
<path d="M66.9363 48.53C68.0645 48.5011 69.2452 48.4654 70.3359 48.8023C71.8535 49.2714 72.7711 50.3909 73.4241 51.7913C75.3258 55.8702 74.0701 62.1152 72.5595 66.1173C71.7439 68.2765 70.6243 70.5978 68.4215 71.6024C66.104 71.6284 63.9283 70.1645 61.9309 69.0999C60.2806 68.037 58.7521 66.707 57.3269 65.3632C54.988 63.1584 53.0072 59.5786 53.1445 56.2521C53.2022 54.8667 53.5246 54.5101 54.4325 53.5835C56.5661 52.722 59.5637 53.4773 61.8172 53.7618C63.5061 53.119 65.4574 49.8992 66.9363 48.53Z" fill="#0C0C0C"/>
<path d="M67.8659 50.0519C68.272 50.0519 68.396 50.0306 68.8384 50.1535C70.2025 50.532 71.1825 51.3923 71.7783 52.6704C73.9027 57.2236 70.1443 65.8321 68.4791 70.237C65.8973 69.1585 63.6299 67.9249 61.2899 66.3918C59.8692 65.2141 58.2894 64.0289 57.2373 62.4952C55.8132 60.4203 55.35 58.4123 55.8172 55.9409C56.6201 55.0927 56.7638 54.7713 58.0004 54.7263C60.228 54.6449 62.2843 56.9172 63.8387 58.2772C64.7311 54.8457 65.313 52.6318 67.8659 50.0519Z" fill="#B5FE28"/>
<path d="M209.986 179.95C210.752 179.934 211.538 179.907 212.303 179.976C214.94 180.215 214.815 182.196 216.378 183.728C217.849 185.171 219.898 183.728 221.698 183.715C222.777 183.706 224.03 184.412 224.768 185.163C225.806 186.217 226.397 187.399 226.231 188.906C225.875 192.144 222.625 194.502 220.251 196.262C216.888 197.889 213.656 199.338 210.072 200.422C208.304 196.481 206.37 191.614 206.466 187.237C206.539 183.863 207.598 182.23 209.986 179.95Z" fill="#0C0C0C"/>
<path d="M210.444 181.554L213.086 182.113C214.666 183.549 214.569 184.284 214.996 186.331C217.245 188.625 219.721 184.928 223.54 186.374C223.844 186.875 224.215 187.213 224.17 187.813C223.941 190.833 222.43 192.096 220.267 193.926C217.251 195.576 214.224 196.978 211.061 198.317C209.958 195.61 208.926 192.802 208.441 189.907C207.882 186.565 208.446 184.246 210.444 181.554Z" fill="#B5FE28"/>
</svg>
