<svg width="250" height="260" viewBox="0 0 250 260" fill="none" xmlns="http://www.w3.org/2000/svg">
<path d="M20.4533 43.371C24.5849 43.0091 31.1599 43.2014 35.441 43.1993L61.7129 43.1949L82.0438 43.1646C106.781 43.1004 100.678 45.0491 101.692 67.8036C101.943 73.4126 101.749 75.7688 96.8134 78.791C93.0938 79.1391 86.9791 78.9751 83.11 78.978L35.7964 78.9969C14.1408 78.9905 15.4816 79.5708 15.9138 57.1362C16.0309 50.9799 14.2458 47.2825 20.4533 43.371Z" fill="#1C1C1C"/>
<path d="M22.7026 44.6746C34.2292 44.5842 45.7557 44.5749 57.2781 44.6468C66.1714 44.6233 89.3536 43.4865 96.1347 45.4739C97.6128 45.9073 98.5377 46.4812 99.1799 47.927C100.383 50.6402 100.501 71.4191 99.1677 74.142C98.3277 75.854 96.8738 76.5805 95.1533 77.1859C86.1631 77.1973 24.2051 78.0668 20.6389 76.5745C19.6211 76.148 19.0355 75.1359 18.6155 74.1549C17.0807 70.5584 16.7051 51.5845 18.2843 48.0559C19.0839 46.2659 21.0266 45.4097 22.7026 44.6746Z" fill="#B5FE28"/>
<path d="M79.1602 52.7237C81.1472 52.7326 88.5341 52.5116 90.0324 52.8836C90.6059 54.2293 90.505 53.5488 90.3353 55.0035C87.7788 56.7907 85.0689 53.9361 82.7304 56.7963C82.5083 58.449 82.3346 57.7632 82.8637 59.0608C84.2449 59.8177 86.9993 59.4849 88.9016 59.5564C89.681 60.579 89.4549 59.9857 89.3499 61.4764C88.3806 62.5337 84.6326 62.2579 82.6456 62.3956C82.6133 63.963 82.6416 64.5337 82.8354 66.089C84.9235 67.572 89.6003 65.2223 90.7069 67.839L90.1819 68.7723C88.6512 69.8999 81.6117 69.446 79.0794 69.4452L79.1602 52.7237Z" fill="#1C1C1C"/>
<path d="M62.5609 52.7331C63.4494 52.6842 64.2531 52.6878 65.1416 52.6842C67.5003 54.1487 68.5503 61.0129 69.8831 64.3743L70.0608 64.8169L72.06 58.0101C72.7991 55.5242 73.0131 53.4625 75.1819 52.2848C76.442 52.4064 75.8968 52.1705 76.8539 53.0529C77.2255 55.0574 76.9832 54.6923 76.2158 56.918C74.8427 60.5056 73.7239 65.9971 71.5632 68.8819C70.9534 69.7014 69.2571 69.3864 68.106 69.3512C66.3573 64.1094 64.0148 57.9705 62.5609 52.7331Z" fill="#1C1C1C"/>
<path d="M30.0207 55.6821C31.9835 55.0121 34.1563 55.4515 35.7031 56.8315C37.25 58.2119 37.9366 60.3193 37.4923 62.3456C37.0521 64.3718 35.5537 66.003 33.5707 66.6133C30.5699 67.5373 27.3834 65.8819 26.4141 62.8952C25.4448 59.9086 27.0522 56.697 30.0207 55.6821Z" fill="#415A0E"/>
<path d="M44.2573 52.6559C45.7718 52.6276 45.9576 52.6337 47.4479 52.891C47.8881 54.3263 47.7588 64.0128 47.7831 66.4518C50.3194 66.5628 51.7814 66.0047 54.1764 66.6428C55.3355 67.6707 54.9639 67.3379 55.1497 69.4174L44.2573 69.4489V52.6559Z" fill="#1C1C1C"/>
<path d="M57.0354 52.6402C58.4086 52.6119 59.1234 52.4907 60.4118 52.9875C60.8278 55.128 60.541 66.4946 60.5209 69.3702C59.5556 69.398 58.7599 69.3144 57.8028 69.234C56.5265 67.9457 57.0274 55.5125 57.0354 52.6402Z" fill="#1C1C1C"/>
<path d="M130.637 141.944C133.339 141.782 135.931 141.765 138.637 141.77C167.595 141.806 196.573 141.682 225.526 141.869C234.121 141.924 233.273 148.871 233.341 155.529C233.467 167.623 230.684 167.505 220.304 167.388L137.373 167.398C133.799 170.609 130.419 173.934 126.42 176.572C126.113 170.139 126.271 163.292 126.23 156.82C126.198 151.133 125.108 145.13 130.637 141.944Z" fill="#1C1C1C"/>
<path d="M165.373 143.279L204.226 143.253C211.354 143.25 218.341 143.21 225.522 143.41C234.27 143.084 230.825 152.974 231.6 158.039C233.216 168.576 221.055 165.985 213.475 165.977L186.758 165.946C170.511 165.876 152.857 166.372 136.767 165.775C133.972 168.024 130.653 171.153 127.926 173.606C127.975 167.945 126.505 148.228 129.99 144.742C130.863 143.867 132.062 143.393 133.27 143.209C136.864 142.661 141.064 143.277 144.736 143.321C151.618 143.342 158.496 143.328 165.373 143.279Z" fill="#D9DBD5"/>
<path d="M131.4 75.7551C138.896 75.789 166.323 74.8278 171.497 76.5382C172.785 76.9635 173.843 77.4962 174.413 78.7902C175.067 80.2724 175.325 82.0927 175.443 83.6981C175.818 88.8676 176.218 118.459 174.861 121.436C174.086 123.134 172.2 124.049 170.576 124.716C163.133 124.69 133.941 125.881 129.155 123.584C128.032 123.044 127.608 122.149 127.216 121.011C125.839 117.025 125.5 81.8613 127.22 78.7296C128.125 77.0758 129.68 76.3149 131.4 75.7551Z" fill="#1C1C1C"/>
<path d="M131.636 77.382C137.375 77.1995 166.866 76.5848 170.476 77.5686C171.785 77.9248 172.714 78.8546 173.328 80.0375C174.37 82.0488 174.309 117.85 173.412 120.157C172.782 121.77 171.627 122.359 170.185 123.124C160.444 123.475 150.331 123.017 140.569 123.222C138.275 123.271 130.905 123.522 129.6 121.856C127.742 119.489 128.037 112.116 128.017 108.976C128.207 99.5433 127.541 90.3181 128.36 80.9745C128.502 79.3453 130.412 78.1429 131.636 77.382Z" fill="#D9DBD5"/>
<path d="M149.684 83.7239C156.598 83.6646 155.084 86.6888 158.012 91.072C158.618 91.9743 161.376 91.7703 162.519 91.7998C163.036 95.4701 165.548 113.715 164.058 115.874C161.4 116.661 156.203 116.299 153.25 116.244C150.318 116.259 139.506 116.822 137.919 115.493C136.845 112.231 139.046 95.7222 139.442 91.6814C148.529 91.8567 141.639 87.3915 149.684 83.7239Z" fill="#1C1C1C"/>
<path d="M141.219 93.2256C142.523 93.2208 142.592 93.1763 143.828 93.5087C144.607 94.392 144.535 95.2086 144.688 96.4303L144.753 96.9832L145.403 97.4622C147.887 96.7886 145.411 95.1949 147.027 93.4534C149.692 93.1582 153.602 92.3573 155.455 94.5241C155.54 95.6953 155.524 95.8976 155.847 97.0095L156.865 97.4356C158.254 96.1501 156.825 95.0794 158.125 93.2777C159.555 93.1283 158.868 93.014 160.221 93.7886C161.994 96.5398 162.325 105.912 162.766 110.006L163.113 114.577C154.995 114.649 146.877 114.607 138.759 114.452C139.612 107.487 140.1 100.048 141.219 93.2256Z" fill="#B5FE28"/>
<path d="M150.484 85.3039C153.472 85.7877 156.336 87.7057 154.991 91.0538C153.505 92.0182 153.549 91.6729 151.421 91.6931C149.769 91.7343 149.005 91.8898 147.511 91.3099C146.445 90.0098 146.744 90.7275 146.542 89.0978C147.35 86.9585 148.44 86.2538 150.484 85.3039Z" fill="#D9DBD5"/>
<path d="M122.338 5.16172C127.77 5.10922 139.155 4.45252 143.113 6.22633C146.89 7.91815 146.599 28.0387 144.038 31.0491C141.995 33.4493 135.601 32.9348 133.029 32.9328L129.172 37.8039L126.656 40.3293C124.539 38.2946 122.144 35.1767 120.238 32.8447C114.79 32.898 107.92 34.1658 107.714 26.2491C107.573 20.798 106.498 11.2448 109.604 6.66695C111.107 4.45292 119.576 5.13143 122.338 5.16172Z" fill="#1C1C1C"/>
<path d="M132.087 6.77861C135.314 6.68208 139.68 6.1724 142.414 7.64128C144.918 10.7374 144.017 18.2805 144.135 22.2094C144.437 32.6474 140.286 31.4067 132.398 31.2113C130.528 33.3029 128.577 35.9406 126.877 38.1793C125.827 37.0965 124.741 35.7064 123.767 34.5279L121.057 31.3631C118.121 31.3833 113.856 31.7545 111.292 30.5271C110.076 29.1798 109.539 27.78 109.377 25.9359C107.265 1.85904 112.301 6.83273 132.087 6.77861Z" fill="#D9DBD5"/>
<path d="M121.021 11.781C124.038 11.5649 124.491 12.5048 127.193 12.8129C130.145 11.5048 135.169 11.1312 135.436 15.8622C135.654 19.6848 132.746 22.316 130.137 24.7679C129.087 25.7631 127.863 26.7691 126.756 27.7186C121.906 23.8071 113.324 17.4175 121.021 11.781Z" fill="#1C1C1C"/>
<path d="M121.744 13.333C124.939 13.4001 124.664 14.5931 127.088 15.0159C133.481 10.5451 136.482 16.2676 130.848 21.885L126.785 25.9245C123.008 22.4149 116.579 18.2732 121.744 13.333Z" fill="#B5FE28"/>
<path d="M154.895 42.9385C158.348 43.1364 157.585 43.5847 160.622 44.5972C161.551 44.1965 163.748 42.976 164.725 43.0524C170.028 43.4659 171.672 47.5689 169.208 52.0979C167.92 54.4618 166.829 55.305 164.79 57.1657L160.747 60.9427C155.585 56.8228 144.576 48.0442 154.895 42.9385Z" fill="#668D1B"/>
<path d="M164.358 44.4625C174.891 47.151 163.575 55.4651 160.643 59.3985L157.311 56.136C154.54 53.8165 149.997 48.5779 153.785 45.3336C156.406 44.7726 158.111 45.7569 160.619 46.7439C161.81 46.5787 163.32 45.2343 164.358 44.4625Z" fill="#C8FE5E"/>
<path d="M67.4599 149.576C69.2935 149.526 70.9938 149.637 72.3912 150.753C76.0866 154.094 77.2377 149.481 80.9533 149.465C87.6535 149.438 91.773 156.878 88.1018 162.487C86.349 165.167 83.6592 167.436 81.4137 169.588C79.2651 171.751 77.5002 173.256 75.1577 175.221C69.0472 169.681 51.0304 155.216 67.4599 149.576Z" fill="#1C1C1C"/>
<path d="M75.2219 154.796C77.1968 153.036 78.4327 151.826 81.1588 151.405C85.036 150.806 87.4431 153.232 87.4188 157.106C87.3865 161.88 83.9859 164.73 80.7913 167.793L75.3875 173.092C69.7777 167.791 54.996 157.419 67.8391 151.109C71.5305 151.367 72.4311 152.47 75.2219 154.796Z" fill="#B5FE28"/>
<path d="M85.5165 122.556C90.3306 121.871 88.9736 122.885 92.5519 123.965C93.8322 124.352 100.961 120.161 103.877 124.378C107.81 130.073 102.839 135.444 98.5656 139.141C96.8855 140.702 95.1367 142.255 93.4324 143.795C87.5399 138.688 74.8542 129.77 85.5165 122.556Z" fill="#1C1C1C"/>
<path d="M93.1784 127.064C96.7244 124.058 102.673 121.194 103.4 129.051C103.679 132.096 100.593 134.908 98.4328 136.864C96.7123 138.489 94.9837 140.103 93.243 141.708C88.4046 136.957 77.6051 129.965 86.7972 124.036C90.2786 124.083 90.6219 124.549 93.1784 127.064Z" fill="#B5FE28"/>
<path d="M65.8076 102.26C69.1153 102.412 69.0628 103.548 71.373 103.64C71.8738 103.348 73.6912 102.279 74.2001 102.289C77.1685 102.347 80.3107 103.723 80.1612 107.151C79.9754 111.354 77.8874 113.225 75.1168 115.92L71.0296 119.552C65.4481 115.42 56.3529 107.608 65.8076 102.26Z" fill="#1C1C1C"/>
<path d="M66.4946 103.825C67.2256 104.001 68.2757 104.201 68.8249 104.766C71.9509 107.982 74.1076 102.527 78.1544 105.044C79.9355 108.473 76.9831 111.733 74.7659 113.95L70.8484 117.436C66.7571 113.561 59.2491 108.457 66.4946 103.825Z" fill="#B5FE28"/>
<path fill-rule="evenodd" clip-rule="evenodd" d="M137.251 225.696C134.284 222.745 129.996 218.481 127.031 217.145C126.496 223.637 125.757 247.707 128.5 252.774C129.964 254.021 134.198 254.743 136.152 254.771C146.136 254.917 156.284 254.898 166.356 254.878C170.222 254.871 174.077 254.864 177.906 254.866L204.122 254.875C205.009 254.875 206.076 254.9 207.253 254.927C212.709 255.055 220.524 255.238 223.711 253.202C225.586 250.415 225.918 247.678 225.817 244.316C225.779 243.116 225.816 241.831 225.853 240.523C226.036 234.147 226.234 227.23 217.888 227.098C204.938 226.892 191.954 226.971 178.971 227.05C165.481 227.131 151.992 227.213 138.544 226.976C138.152 226.593 137.718 226.161 137.251 225.696ZM135.995 226.649C133.468 224.431 130.077 221.454 128.59 220.48C128.569 221.677 128.509 223.24 128.439 225.032C128.103 233.698 127.558 247.737 130.312 251.863C132.483 252.696 134.783 252.927 137.091 253.04C145.334 253.445 218.264 253.65 221.178 252.423C221.685 252.209 222.118 251.927 222.579 251.627L222.619 251.601C225.057 247.465 225.011 238.151 223.801 233.507C223.381 231.886 222.448 229.752 220.753 229.104C217.615 227.901 172.402 228.293 149.775 228.489C149.769 228.489 149.763 228.489 149.757 228.489C149.751 228.489 149.746 228.489 149.74 228.489C144.254 228.537 140.094 228.573 138.2 228.571C137.646 228.099 136.873 227.42 135.995 226.649Z" fill="#1C1C1C"/>
<path fill-rule="evenodd" clip-rule="evenodd" d="M168.463 243.338C168.528 243.377 168.589 243.414 168.647 243.449L168.463 243.338Z" fill="#0C0C0C"/>
<path d="M139.44 185.114L161.342 185.114C165.233 185.115 168.991 185.047 172.898 185.295C178.024 185.475 178.394 190.673 178.306 194.723C178.083 205.173 178.154 206.21 168.06 206.052C163.534 206.046 130.138 206.482 128.607 205.464C128.685 203.923 133.552 199.372 134.894 197.991C134.978 192.622 133.318 187.343 139.44 185.114Z" fill="#1C1C1C"/>
<path d="M139.298 186.408C143.766 186.389 172.958 185.55 175.042 187.091C176.333 188.043 176.764 190.338 176.907 191.809C177.192 194.743 177.656 201.69 175.376 203.932C173.833 205.45 169.965 204.895 167.896 204.863L130.327 204.894C132.266 202.765 134.286 200.643 136.254 198.535C136.419 193.88 134.642 188.929 139.298 186.408Z" fill="#D9DBD5"/>
<path d="M166.229 192.67C167.309 192.425 168.437 192.78 169.18 193.601C169.926 194.421 170.169 195.578 169.819 196.628C169.468 197.679 168.58 198.459 167.494 198.67C165.85 198.989 164.255 197.93 163.908 196.292C163.564 194.653 164.598 193.04 166.229 192.67Z" fill="#1C1C1C"/>
<path d="M155.788 192.676C157.364 192.197 159.04 193.051 159.575 194.61C160.114 196.168 159.323 197.873 157.786 198.469C156.738 198.874 155.555 198.676 154.699 197.95C153.84 197.225 153.447 196.089 153.674 194.989C153.901 193.89 154.712 193.002 155.788 192.676Z" fill="#1C1C1C"/>
<path d="M145.43 192.682C147.015 192.152 148.731 192.999 149.272 194.579C149.814 196.159 148.977 197.879 147.401 198.432C145.809 198.991 144.068 198.146 143.52 196.55C142.972 194.954 143.831 193.218 145.43 192.682Z" fill="#1C1C1C"/>
<path d="M128.59 220.48C130.077 221.454 133.468 224.431 135.995 226.649C136.873 227.42 137.646 228.099 138.2 228.571C140.092 228.573 144.245 228.537 149.723 228.489L149.74 228.489L149.757 228.489L149.775 228.489C172.402 228.293 217.615 227.901 220.753 229.104C222.448 229.752 223.381 231.886 223.801 233.507C225.011 238.151 225.057 247.465 222.619 251.601L222.579 251.627C222.118 251.927 221.685 252.209 221.178 252.423C218.264 253.65 145.334 253.445 137.091 253.04C134.783 252.927 132.483 252.696 130.312 251.863C127.558 247.737 128.103 233.698 128.439 225.032C128.509 223.24 128.569 221.677 128.59 220.48Z" fill="#D9DBD5"/>
<path d="M200.135 236.289L201.494 236.098L202.34 236.811L203.685 236.341L204.502 236.772L204.735 237.663L207.032 236.151L208.512 236.444L208.928 237.187C208.44 239.529 207.704 244.615 206.055 245.963C204.846 244.936 204.483 242.049 203.438 239.956C202.253 241.112 202.882 244.372 201.262 245.793L200.323 245.479C199.279 243.471 197.721 238.526 198.621 236.44L200.135 236.289Z" fill="#0C0C0C"/>
<path d="M166.247 243.495C158.484 253.826 153.841 230.236 165.962 237.597C166.581 240.163 166.479 240.831 166.247 243.495Z" fill="#0C0C0C"/>
<path d="M161.3 237.488L163.007 237.779C163.771 238.391 164.231 238.667 164.545 239.638C165.102 241.366 164.187 243.145 163.409 244.637C162.944 244.559 162.374 244.486 161.953 244.266C161.28 243.916 160.826 243.318 160.574 242.627C159.926 240.848 160.54 239.118 161.3 237.488Z" fill="#D9DBD5"/>
<path d="M189.686 237.506C199.157 231.152 198.697 247.015 191.979 246.018C189.875 244.455 189.546 243.43 188.874 240.972L189.686 237.506Z" fill="#0C0C0C"/>
<path d="M191.825 237.43C192.299 237.472 192.845 237.5 193.295 237.658C194.214 237.979 194.746 238.541 195.138 239.411C195.878 241.064 195.041 243.027 194.436 244.586C193.919 244.552 193.28 244.54 192.797 244.351C192.095 244.079 191.568 243.51 191.268 242.846C190.48 241.075 191.181 239.132 191.825 237.43Z" fill="#D9DBD5"/>
<path d="M167.838 236.484C170.605 236.205 174.044 235.948 175.761 238.727C175.243 241.091 172.206 241.811 170.068 242.618C169.725 243.81 169.729 243.925 169.725 245.178C168.641 245.755 169.101 245.619 167.804 245.523C167.282 245.685 167.475 245.598 166.774 245.381L166.247 243.496C166.479 240.832 166.581 240.164 165.962 237.598C166.769 236.783 166.731 236.831 167.838 236.484Z" fill="#0C0C0C"/>
<path d="M170.359 238.048C170.993 237.439 171.999 237.458 172.613 238.089C173.223 238.72 173.213 239.728 172.584 240.344C171.95 240.966 170.935 240.953 170.316 240.316C169.697 239.679 169.716 238.661 170.359 238.048Z" fill="#D9DBD5"/>
<path d="M182.083 239.227C181.918 241.216 181.957 243.913 181.159 245.647L180.685 245.127C180.163 243.034 179.007 237.511 181.024 236.115C182.392 236.795 182.765 237.755 183.558 239.093L185.87 236.225L187.65 236.424L187.674 238.654C187.592 240.692 187.752 243.459 186.668 245.069L185.812 245.167C184.255 243.924 183.045 241.092 182.083 239.227Z" fill="#0C0C0C"/>
<path d="M183.559 239.093L185.871 236.226C185.837 237.877 186.06 240.303 185.334 241.551C184.314 240.632 184.198 240.322 183.559 239.093Z" fill="#D9DBD5"/>
<path d="M148.995 236.795L150.194 236.414C151.331 237.41 151.365 240.067 153.28 240.868C156.11 239.584 153.909 237.812 155.732 236.152L156.608 236.735C156.743 238.26 157.135 244.505 156.279 245.612L155.292 245.566C154.678 244.403 154.852 243.636 154.91 242.307C154.02 241.334 154.223 241.629 152.724 241.226C149.72 242.148 152.115 244.612 149.793 245.435L148.869 245.043L147.713 242.577L147.694 242.167C149.198 240.182 147.239 239.167 148.995 236.795Z" fill="#0C0C0C"/>
<path d="M148.995 236.793C148.995 239.109 149.101 242.846 148.869 245.041L147.713 242.575L147.694 242.165C149.198 240.18 147.239 239.165 148.995 236.793Z" fill="#D9DBD5"/>
<path d="M147.713 242.577C147.539 243.79 147.476 243.829 146.745 244.851C144.187 246.408 142.716 246.24 140.927 243.703L141.081 242.925C142.62 242.576 142.402 243.265 144.487 244.389L145.396 243.917C144.748 241.641 140.632 240.427 140.883 237.26C142.745 235.942 145.604 235.815 147.229 237.579L147.171 238.818L145.972 240.521C146.654 241.084 147.166 241.445 147.694 242.167L147.713 242.577Z" fill="#0C0C0C"/>
<path d="M145.972 240.52C144.173 240.23 143.583 240.272 142.891 238.668L143.621 237.975C145.667 237.818 145.14 237.901 147.172 238.816L145.972 240.52Z" fill="#D9DBD5"/>
<path d="M200.135 236.289L201.494 236.098L202.34 236.811C202.229 238.199 202.093 240.044 201.179 240.961C200.269 239.709 200.285 237.874 200.135 236.289Z" fill="#D9DBD5"/>
<path d="M204.735 237.663L207.032 236.151C206.964 237.988 207.085 239.878 206.243 241.475L205.721 241.319C205.097 239.71 205.02 239.339 204.735 237.663Z" fill="#D9DBD5"/>
<path d="M165.962 237.597C166.77 236.782 166.731 236.83 167.839 236.483C168.124 240.051 168.022 241.952 167.805 245.522C167.282 245.684 167.476 245.597 166.775 245.38L166.247 243.495C166.479 240.831 166.581 240.163 165.962 237.597Z" fill="#D9DBD5"/>
</svg>
