<svg width="16" height="16" viewBox="0 0 16 16" fill="none" xmlns="http://www.w3.org/2000/svg">
<path d="M0.5 5.5H15.5V10.5H0.5V5.5Z" fill="white"/>
<path d="M2.5 2H13.5C14.604 2 15.5 2.896 15.5 4V6H0.5V4C0.5 2.896 1.396 2 2.5 2Z" fill="#E06535"/>
<path d="M13.5 14L2.5 14C1.396 14 0.5 13.104 0.5 12V10L15.5 10V12C15.5 13.104 14.604 14 13.5 14Z" fill="#2C6837"/>
<path d="M7.99853 6.14648C6.97453 6.14648 6.14453 6.97648 6.14453 8.00048C6.14453 9.02448 6.97453 9.85448 7.99853 9.85448C9.02253 9.85448 9.85253 9.02448 9.85253 8.00048C9.85253 6.97648 9.02253 6.14648 7.99853 6.14648ZM9.51903 8.20098C9.51403 8.23898 9.54003 8.27348 9.57753 8.27948C9.56103 8.37248 9.53753 8.46298 9.50603 8.54948C9.47053 8.53548 9.43003 8.55248 9.41553 8.58798C9.40103 8.62348 9.41753 8.66348 9.45203 8.67898C9.43203 8.72148 9.41053 8.76248 9.38703 8.80298L8.58153 8.26848L8.28553 8.14398C8.29203 8.13098 8.29753 8.11748 8.30253 8.10348L8.60003 8.22448L9.54753 8.41598L8.63103 8.10798L8.31303 8.06448C8.31603 8.05048 8.31753 8.03598 8.31853 8.02098L8.63753 8.06098L9.60253 8.00098L8.63753 7.94098L8.31853 7.98098C8.31753 7.96598 8.31603 7.95148 8.31303 7.93748L8.63103 7.89398L9.54753 7.58598L8.60003 7.77748L8.30253 7.89848C8.29803 7.88448 8.29203 7.87098 8.28553 7.85798L8.58153 7.73348L9.38703 7.19898C9.41053 7.23948 9.43203 7.28048 9.45203 7.32298C9.41703 7.33848 9.40053 7.37848 9.41553 7.41398C9.43003 7.44948 9.47053 7.46648 9.50603 7.45248C9.53753 7.53898 9.56153 7.62948 9.57753 7.72248C9.54003 7.72848 9.51403 7.76298 9.51903 7.80098C9.52403 7.83898 9.55803 7.86548 9.59603 7.86148C9.60003 7.90748 9.60253 7.95398 9.60253 8.00098C9.60253 8.04798 9.60003 8.09448 9.59603 8.14048C9.55853 8.13648 9.52403 8.16298 9.51903 8.20098ZM9.22703 6.96998C9.19753 6.99398 9.19203 7.03698 9.21553 7.06698C9.23853 7.09698 9.28153 7.10298 9.31253 7.08098C9.33903 7.11898 9.36403 7.15848 9.38703 7.19898L8.52203 7.62948L8.26603 7.82348C8.25803 7.81148 8.24903 7.79998 8.23903 7.78898L8.49303 7.59198L9.13303 6.86698L8.40803 7.50698L8.21103 7.76098C8.20003 7.75148 8.18853 7.74198 8.17653 7.73398L8.37053 7.47798L8.80103 6.61248C8.84153 6.63598 8.88103 6.66098 8.91903 6.68748C8.89653 6.71798 8.90253 6.76098 8.93303 6.78448C8.96353 6.80748 9.00653 6.80248 9.03003 6.77298C9.06553 6.80298 9.10053 6.83448 9.13353 6.86748C9.16653 6.90048 9.19803 6.93498 9.22803 6.97098L9.22703 6.96998ZM8.13853 6.40348C8.13453 6.44098 8.16103 6.47548 8.19903 6.48048C8.23703 6.48548 8.27153 6.45948 8.27753 6.42198C8.37053 6.43848 8.46103 6.46198 8.54753 6.49348C8.53353 6.52898 8.55053 6.56948 8.58603 6.58398C8.62153 6.59848 8.66153 6.58198 8.67703 6.54748C8.71953 6.56748 8.76053 6.58898 8.80103 6.61248L8.26653 7.41798L8.14203 7.71398C8.12903 7.70748 8.11553 7.70198 8.10153 7.69698L8.22253 7.39948L8.41403 6.45198L8.10603 7.36848L8.06253 7.68648C8.04853 7.68348 8.03403 7.68198 8.01903 7.68098L8.05903 7.36198L7.99903 6.39698L7.93903 7.36198L7.97903 7.68098C7.96403 7.68198 7.94953 7.68348 7.93553 7.68648L7.89203 7.36848L7.58403 6.45198L7.77553 7.39948L7.89653 7.69698C7.88253 7.70148 7.86903 7.70748 7.85603 7.71398L7.73153 7.41798L7.19703 6.61248C7.23753 6.58898 7.27853 6.56748 7.32103 6.54748C7.33653 6.58248 7.37653 6.59898 7.41203 6.58398C7.44753 6.56948 7.46453 6.52898 7.45053 6.49348C7.53703 6.46198 7.62753 6.43798 7.72053 6.42198C7.72653 6.45948 7.76103 6.48548 7.79903 6.48048C7.83703 6.47548 7.86353 6.44148 7.85953 6.40348C7.90553 6.39948 7.95203 6.39698 7.99903 6.39698C8.04603 6.39698 8.09253 6.39948 8.13853 6.40348ZM6.58203 8.58748C6.56753 8.55198 6.52703 8.53498 6.49153 8.54898C6.46003 8.46248 6.43603 8.37198 6.42003 8.27898C6.45753 8.27298 6.48353 8.23848 6.47853 8.20048C6.47353 8.16248 6.43953 8.13598 6.40153 8.13998C6.39753 8.09398 6.39503 8.04748 6.39503 8.00048C6.39503 7.95348 6.39753 7.90698 6.40153 7.86098C6.43903 7.86498 6.47353 7.83848 6.47853 7.80048C6.48353 7.76248 6.45753 7.72798 6.42003 7.72198C6.43653 7.62898 6.46003 7.53848 6.49153 7.45198C6.52703 7.46598 6.56753 7.44898 6.58203 7.41348C6.59653 7.37798 6.58003 7.33798 6.54553 7.32248C6.56553 7.27998 6.58703 7.23898 6.61053 7.19848L7.41603 7.73298L7.71203 7.85748C7.70553 7.87048 7.70003 7.88398 7.69503 7.89798L7.39753 7.77698L6.45003 7.58548L7.36653 7.89348L7.68453 7.93698C7.68153 7.95098 7.68003 7.96548 7.67903 7.98048L7.36003 7.94048L6.39503 8.00048L7.36003 8.06048L7.67903 8.02048C7.68003 8.03548 7.68153 8.04998 7.68453 8.06398L7.36653 8.10748L6.45003 8.41548L7.39753 8.22398L7.69503 8.10298C7.69953 8.11698 7.70553 8.13048 7.71203 8.14348L7.41603 8.26798L6.61053 8.80248C6.58703 8.76198 6.56553 8.72098 6.54553 8.67848C6.58053 8.66298 6.59703 8.62298 6.58203 8.58748ZM6.96803 6.77248C6.99203 6.80198 7.03503 6.80748 7.06503 6.78398C7.09503 6.76098 7.10103 6.71798 7.07903 6.68698C7.11703 6.66048 7.15653 6.63498 7.19703 6.61198L7.62753 7.47748L7.82153 7.73348C7.80953 7.74148 7.79803 7.75048 7.78703 7.76048L7.59003 7.50648L6.86503 6.86648L7.50503 7.59148L7.75903 7.78848C7.74953 7.79948 7.74003 7.81098 7.73203 7.82298L7.47603 7.62898L6.61053 7.19848C6.63403 7.15798 6.65903 7.11848 6.68553 7.08048C6.71603 7.10298 6.75903 7.09698 6.78253 7.06648C6.80553 7.03598 6.80053 6.99298 6.77103 6.96948C6.80103 6.93398 6.83253 6.89898 6.86553 6.86598C6.89853 6.83298 6.93303 6.80148 6.96903 6.77148L6.96803 6.77248ZM6.77053 9.03148C6.80003 9.00748 6.80553 8.96448 6.78203 8.93448C6.75903 8.90448 6.71603 8.89848 6.68503 8.92048C6.65853 8.88248 6.63303 8.84298 6.61003 8.80248L7.47553 8.37198L7.73153 8.17798C7.73953 8.18998 7.74853 8.20148 7.75853 8.21248L7.50453 8.40948L6.86453 9.13448L7.58953 8.49448L7.78653 8.24048C7.79753 8.24998 7.80903 8.25948 7.82103 8.26748L7.62703 8.52348L7.19653 9.38898C7.15603 9.36548 7.11653 9.34048 7.07853 9.31398C7.10103 9.28348 7.09503 9.24048 7.06453 9.21698C7.03403 9.19398 6.99103 9.19898 6.96753 9.22848C6.93203 9.19848 6.89703 9.16698 6.86403 9.13398C6.83103 9.10098 6.79953 9.06648 6.76953 9.03048L6.77053 9.03148ZM7.85903 9.59798C7.86303 9.56048 7.83653 9.52598 7.79853 9.52098C7.76053 9.51598 7.72603 9.54199 7.72003 9.57948C7.62703 9.56298 7.53653 9.53948 7.45003 9.50798C7.46403 9.47248 7.44703 9.43198 7.41153 9.41748C7.37603 9.40298 7.33603 9.41948 7.32053 9.45398C7.27803 9.43398 7.23703 9.41248 7.19653 9.38898L7.73103 8.58348L7.85553 8.28748C7.86853 8.29398 7.88203 8.29948 7.89603 8.30448L7.77503 8.60198L7.58353 9.54948L7.89153 8.63298L7.93503 8.31498C7.94903 8.31798 7.96353 8.31948 7.97853 8.32048L7.93853 8.63948L7.99853 9.60448L8.05853 8.63948L8.01853 8.32048C8.03353 8.31948 8.04803 8.31798 8.06203 8.31498L8.10553 8.63298L8.41353 9.54948L8.22203 8.60198L8.10103 8.30448C8.11503 8.29998 8.12853 8.29398 8.14153 8.28748L8.26603 8.58348L8.80053 9.38898C8.76003 9.41248 8.71903 9.43398 8.67653 9.45398C8.66103 9.41898 8.62103 9.40248 8.58553 9.41748C8.55003 9.43198 8.53303 9.47248 8.54703 9.50798C8.46053 9.53948 8.37003 9.56348 8.27703 9.57948C8.27103 9.54199 8.23653 9.51598 8.19853 9.52098C8.16053 9.52598 8.13403 9.55998 8.13803 9.59798C8.09203 9.60198 8.04553 9.60448 7.99853 9.60448C7.95153 9.60448 7.90503 9.60198 7.85903 9.59798ZM9.02953 9.22898C9.00553 9.19948 8.96253 9.19398 8.93253 9.21748C8.90253 9.24048 8.89653 9.28348 8.91853 9.31448C8.88053 9.34098 8.84103 9.36598 8.80053 9.38898L8.37003 8.52398L8.17603 8.26798C8.18803 8.25998 8.19953 8.25098 8.21053 8.24098L8.40753 8.49498L9.13253 9.13498L8.49253 8.40998L8.23853 8.21298C8.24803 8.20198 8.25753 8.19049 8.26553 8.17848L8.52153 8.37248L9.38703 8.80298C9.36353 8.84348 9.33853 8.88298 9.31203 8.92098C9.28153 8.89848 9.23853 8.90448 9.21503 8.93498C9.19203 8.96548 9.19703 9.00848 9.22653 9.03198C9.19653 9.06748 9.16503 9.10248 9.13203 9.13548C9.09903 9.16848 9.06453 9.19998 9.02853 9.22998L9.02953 9.22898Z" fill="#2C2C6B"/>
</svg>
