<svg width="105" height="121" viewBox="0 0 105 121" fill="none" xmlns="http://www.w3.org/2000/svg">
<path d="M38.753 11.4292C39.24 9.11486 39.8605 7.433 41.2599 5.47502C44.4976 0.945063 50.1251 -0.818316 55.4901 0.350995C58.8798 1.08437 61.8351 3.14452 63.6954 6.07158C64.8519 7.87604 65.3419 9.38491 65.8224 11.4164C68.0021 13.3241 67.277 14.574 67.4118 17.2082C67.466 18.2682 67.4638 19.0335 66.4867 19.5829C66.4267 20.1032 66.371 20.7289 66.2618 21.2318C68.4745 21.6228 69.4222 23.3715 69.0187 25.4932C68.8077 26.6479 68.1508 27.6731 67.1891 28.3464C66.1864 29.0404 65.372 29.1139 64.2184 29.0259C64.0932 30.2743 63.9093 31.1179 63.4303 32.2751C67.006 33.0842 70.997 34.5327 72.9935 37.7804L73.0675 37.9036C73.5253 36.3203 73.8131 34.6557 75.401 33.7794C76.9933 32.9009 78.1864 33.4006 79.8256 33.813L83.6847 34.7882L90.3029 36.4467C91.7523 36.8083 93.2047 37.1735 94.6461 37.5829C95.6539 37.869 96.3944 38.4646 96.8917 39.4097C97.7062 40.955 96.8529 42.9824 96.3702 44.5956C97.1437 44.5238 98.224 44.5232 98.7667 45.0977C100.313 46.7334 99.4164 48.0999 98.246 49.3445C96.7833 50.8992 95.3749 52.3185 94.0228 53.8421C95.1295 54.8208 96.8112 55.8243 96.9188 57.4229C96.9972 58.5914 96.2333 59.3978 95.2841 59.9515C96.1747 61.8433 95.8832 63.2166 93.91 64.1973C94.7055 65.7303 94.4674 67.4888 92.8151 68.3113C92.6517 68.3912 92.4855 68.4659 92.3178 68.5354C92.6708 69.8003 94.0075 72.2225 94.6132 73.4566L100.239 85.0494C102.382 89.4439 105.055 93.385 103.972 98.5039C103.701 99.7813 103.353 100.825 102.738 101.984C101.11 105.107 98.2914 107.444 94.9201 108.464C91.5443 109.469 87.9078 109.092 84.8104 107.417C83.933 106.95 83.131 106.355 82.4286 105.652L82.4264 114.889C82.4249 115.719 82.5289 119.362 82.296 119.912L82.1459 119.992C81.9115 119.92 82.0148 119.986 81.858 119.747C81.7658 119.316 81.7943 117.717 81.7951 117.187L81.7965 112.681C75.0392 106.409 73.6417 91.9883 71.3522 83.263C69.6339 82.439 67.6168 82.1856 66.1095 81.1866C64.2579 86.3714 62.6049 87.0628 57.3146 87.0701C56.6576 87.4744 55.6732 88.2457 54.9855 88.7093C51.9635 90.7483 49.9825 91.1563 46.4788 91.3907C45.9919 91.844 43.5507 94.8689 43.4865 95.4168L60.1491 95.408C61.3158 95.408 66.4567 95.3384 67.0939 95.5186C67.3114 96.0269 67.4513 98.1524 67.6168 98.9551C68.3185 102.351 69.7965 105.357 72.2875 107.805C72.9804 108.485 73.5656 108.835 74.2475 109.404C74.3632 112.723 74.2057 116.096 74.2855 119.421C74.2899 119.615 74.2057 119.822 74.1142 119.99L73.9823 120.043C73.5165 119.65 73.7018 117.166 73.7018 116.467L73.6974 109.657C69.1674 106.517 66.976 101.371 66.6874 95.9786L60.4647 95.9742C59.5192 95.9749 58.236 95.939 57.3065 95.9844C56.2394 96.0928 54.5526 96.0393 53.4393 96.0408C51.3095 96.0555 49.1803 96.0562 47.0508 96.043C45.782 96.0328 43.9211 95.9251 42.7333 96.1792C41.7211 97.2559 38.0359 101.653 37.1216 102.035C35.9357 105.066 34.1364 107.848 31.3556 109.651C31.3293 111.855 31.3182 114.059 31.3221 116.264C31.3266 117.31 31.3401 118.44 31.3326 119.494C31.3313 119.685 31.1843 119.91 31.0548 120.051L30.9327 120.059C30.6666 119.658 30.7796 116.796 30.779 116.124L30.7755 109.335C32.7297 108.001 34.0638 106.595 35.2575 104.543L35.1881 104.235C34.9283 104.278 28.3865 110.384 27.3319 110.806C27.3811 110.786 24.0909 113.081 23.8942 113.237C23.7874 113.693 23.8231 113.892 23.7586 114.296C23.7541 115.122 23.9074 119.49 23.6227 119.951C23.4059 120.012 23.5087 120.019 23.3036 119.936C23.1247 119.621 23.18 109.982 23.1765 108.9C21.4011 110.12 19.7194 111.283 17.6244 111.923C11.998 113.642 5.52137 111.084 2.2462 106.231C0.286023 103.288 -0.430725 99.689 0.252258 96.2188C0.535998 94.7701 1.74061 91.7195 2.30487 90.2012L5.68903 80.9617L10.9953 66.3411C11.5858 64.6873 12.1859 63.0372 12.7958 61.3907C13.3718 59.8357 13.7914 58.576 14.6021 57.1135C16.2014 54.1731 18.4814 51.6582 21.2516 49.7793C23.7467 48.1169 26.609 47.1407 29.3591 45.9905C29.8062 45.8036 30.3094 45.5816 30.7669 45.429C30.2936 44.2306 30.1729 43.3433 30.2692 42.0546C30.7487 35.6395 35.7935 33.6035 41.2065 32.2765C40.7323 31.1151 40.5098 30.2962 40.392 29.0357C39.612 29.0891 38.9958 29.0917 38.2591 28.7954C34.9826 27.4776 34.1523 21.9334 38.3989 21.2266C38.243 20.6213 38.1822 20.2039 38.1295 19.5758C37.01 19.039 37.1483 17.9433 37.1983 16.8098C37.308 14.3154 36.674 13.1462 38.753 11.4292Z" fill="#1C1C1C"/>
<path d="M64.4489 77.3154C65.79 78.0881 68.2802 78.5737 69.8447 78.9692L75.2353 80.3557C74.5944 80.5359 72.1921 81.2075 71.8244 81.6008C71.9299 82.2673 72.6403 83.99 72.9208 84.7173L75.0654 90.2471L78.0544 97.9082C79.2197 100.881 79.706 102.718 81.8937 105.168L81.8915 114.947C81.8937 116.126 81.9694 118.693 81.858 119.747C81.7658 119.316 81.7943 117.717 81.7951 117.187L81.7965 112.681C75.0392 106.409 73.6417 91.9883 71.3522 83.263C69.6339 82.439 67.6168 82.1856 66.1095 81.1866C64.2579 86.3714 62.6049 87.0628 57.3146 87.0701C56.6576 87.4744 55.6732 88.2457 54.9855 88.7093C51.9635 90.7483 49.9825 91.1563 46.4788 91.3907C45.9919 91.844 43.5507 94.8689 43.4865 95.4168L39.7979 95.4062C40.6213 94.6021 41.9024 93.3474 42.6071 92.4568C42.1633 91.4431 41.6155 90.5034 41.1602 89.5081L43.3347 87.9319C48.0967 87.9678 51.2983 86.2561 54.6403 82.9631C54.7597 82.8459 54.8769 82.7258 54.9911 82.6035C55.1992 83.0386 55.4745 83.5637 55.9799 83.6699C56.9811 83.8809 60.4338 83.8281 61.2614 83.3323C62.103 82.8284 64.2036 79.9492 64.5471 78.9334C64.7016 78.4756 64.58 77.7754 64.4489 77.3154Z" fill="#D9DBD5"/>
<path d="M37.6386 97.4307C37.2567 100.032 36.6147 102.278 35.2575 104.543L35.1881 104.235C34.9283 104.278 28.3865 110.384 27.3319 110.806C27.3811 110.786 24.0909 113.081 23.8942 113.237C23.7874 113.693 23.8231 113.892 23.7586 114.296C23.6775 112.593 23.7762 110.336 23.7501 108.538C24.6377 108.006 26.3302 106.771 27.173 106.138C30.5535 103.605 34.6419 100.43 37.6386 97.4307Z" fill="#D9DBD5"/>
<path d="M39.188 95.9752C45.0853 95.9444 51.4362 95.8672 57.3065 95.9844C56.2394 96.0928 54.5526 96.0393 53.4393 96.0408C51.3095 96.0555 49.1803 96.0562 47.0508 96.043C45.782 96.0328 43.9211 95.9251 42.7333 96.1792C41.7211 97.2559 38.0359 101.653 37.1216 102.035C37.8363 100.145 38.0397 98.8456 38.2778 96.8885C38.5557 96.5736 38.8847 96.2696 39.188 95.9752Z" fill="#D9DBD5"/>
<path d="M41.3767 32.7871C41.4928 32.8934 42.4421 34.4031 42.5965 34.6333C40.6586 35.1022 36.7174 35.9986 36.2928 38.2684C35.9884 39.8954 39.8878 41.1425 41.108 41.6917C45.5492 43.691 48.9808 45.7048 52.2293 49.4187C52.6152 49.098 53.2415 48.3581 53.659 47.9586C54.5108 47.1245 55.4549 46.3697 56.3997 45.6498C59.563 43.2383 63.2984 41.8034 66.8748 40.1519C67.7969 39.7261 68.6648 38.6104 68.0298 37.6365C66.8052 35.7563 63.9707 35.1627 61.9844 34.6114C62.4876 34.0342 62.8054 33.4481 63.1834 32.7906C64.0257 33.0004 64.8621 33.2356 65.6912 33.4958C68.9307 34.5328 71.2283 35.655 72.8198 38.7503C72.0486 41.5577 71.2063 44.3392 70.4197 47.1388C68.0122 48.234 63.3797 49.7226 60.9407 51.0529C60.8565 51.0985 60.9004 51.187 60.9194 51.305L61.0762 51.3986C61.6255 51.4105 63.0713 50.6647 63.6924 50.4212C65.8692 49.5804 68.0415 48.7274 70.2088 47.862C69.9473 48.6256 69.7422 49.4098 69.5276 50.1881C69.0523 49.9917 68.7564 49.8662 68.2232 49.8484C67.4373 49.815 66.6719 50.1055 66.1057 50.6521C65.6751 51.0754 65.3953 51.6282 65.3081 52.2257C65.2473 52.6294 65.2605 53.0061 65.2869 53.4103C65.451 55.889 65.6399 58.396 65.6465 60.8811C63.2156 61.4583 60.7905 62.0589 58.3721 62.6822C58.3223 59.0017 58.2901 54.7543 58.3867 51.0972C58.9383 50.7564 59.2298 50.5925 59.2254 49.8909C59.2151 48.1658 56.6333 48.6047 56.9285 50.1324C57.0142 50.5762 57.4404 50.8823 57.803 51.0842L57.7957 62.8118C56.062 63.2798 53.5557 63.7398 51.9619 64.3221C50.5894 64.823 48.0084 66.969 46.7254 67.9614C46.7982 62.3892 46.7318 56.7112 46.745 51.1276C47.1421 50.8711 47.8086 50.2906 47.6436 49.7791C46.8911 47.4454 43.6824 49.691 46.1688 51.0756L46.1606 68.3753C42.6518 71.3277 38.3675 74.1409 34.903 77.1211C34.633 76.607 34.332 75.991 34.0029 75.523C33.1526 75.9463 31.9318 76.7344 31.0905 77.2464C29.4998 78.2058 27.9167 79.1785 26.3412 80.1629L27.286 73.6128C27.3767 73.0005 27.795 70.3081 27.7594 69.857C27.6344 69.6768 27.7146 69.7434 27.5044 69.6585L27.3722 69.7229C27.2522 69.9068 27.1716 70.0906 27.1437 70.3118C26.7425 73.4832 26.237 76.637 25.8364 79.8084L25.7377 80.5269L10.5474 89.7891C10.1491 90.0293 8.65793 90.6446 8.88066 91.1499L9.06383 91.2173C9.70177 91.117 11.3578 89.951 12.0122 89.5525L17.9946 85.9036L33.8179 76.2766C34.1162 76.8377 34.4149 77.4265 34.6937 77.9971C37.0459 82.8076 39.6332 87.5537 41.9339 92.3833C36.282 98.3086 30.0077 103.608 23.2199 108.188C21.8838 109.077 20.3814 110.158 18.935 110.802C15.872 112.199 12.3704 112.28 9.24613 111.026C2.04921 108.205 -1.34029 100.704 1.70138 93.5581C2.00995 92.833 2.29274 91.9842 2.56762 91.2371L5.58234 82.9878L11.2416 67.3916C12.2024 64.7447 13.2009 61.9615 14.1798 59.3745C15.6673 55.4431 19.3956 51.2274 23.1485 49.3041C25.4445 48.1275 28.6413 46.9109 31.1309 45.8448C33.1206 47.8634 37.2564 48.8804 39.8822 50.0151C40.4655 50.2672 43.1291 51.5147 43.5704 51.315L43.5724 51.1558C42.5378 49.6493 31.4354 47.4814 30.9893 44.4713C29.8411 36.7242 35.4135 34.4179 41.3767 32.7871Z" fill="white"/>
<path d="M92.3845 70.2529C92.7874 70.8923 93.6084 72.6956 93.9607 73.4185L100.491 86.8298C101.177 88.2185 102.098 89.9558 102.687 91.365C103.927 94.2969 103.95 97.6016 102.75 100.55C101.474 103.719 98.9763 106.242 95.8203 107.549C92.6819 108.807 89.1721 108.76 86.0681 107.42C81.0737 105.26 79.915 101.139 78.1353 96.5622L75.2253 89.0945C74.3098 86.676 73.346 84.3044 72.4561 81.8691C73.7151 81.459 74.9719 81.0408 76.2251 80.6152C79.0471 81.0334 84.073 83.8394 85.8293 80.0842C86.4475 78.7629 86.7939 76.8718 87.2561 75.4297C87.8428 74.9741 88.4214 74.5076 88.9912 74.03C89.6841 75.1704 90.5784 77.1143 91.2324 78.3835L95.8035 87.3059C96.1301 87.9556 97.7437 91.2661 98.0667 91.603C98.2871 91.6719 98.1831 91.6755 98.3896 91.6118L98.4365 91.488C98.3765 90.957 97.7502 89.9331 97.4836 89.408C96.8479 88.1365 96.2026 86.8701 95.5479 85.6089C93.5337 81.6838 91.4067 77.6028 89.4805 73.655C90.856 72.5557 91.8513 71.9756 92.3845 70.2529Z" fill="white"/>
<path d="M76.9001 35.1165C77.8933 35.0578 79.2864 35.5134 80.2744 35.791C80.2312 36.1001 80.2026 36.437 80.1697 36.7496C80.3008 37.081 80.5498 37.6259 80.9277 37.7344C83.5315 38.4816 86.1997 39.1118 88.8335 39.7506C89.9783 40.0281 90.3189 39.3486 90.7759 38.4463C91.9221 38.6796 93.929 38.9226 94.5317 40.0463C94.7236 40.4113 94.8013 40.8256 94.7544 41.2353C94.6819 41.8986 93.9868 44.1638 93.7656 44.934C93.0728 47.3292 92.3945 49.7284 91.7295 52.1317C90.0523 51.8002 88.6877 52.6217 88.7478 54.4529C88.7595 54.8257 88.8855 55.2086 88.9155 55.5985C88.5845 55.821 88.1787 55.9108 87.8411 56.1544C86.385 57.2051 86.623 58.6123 87.5583 59.897C84.9927 60.8235 85.0015 62.8523 86.7476 64.6379C86.2026 64.8181 85.8013 65.0151 85.405 65.4531C85.0117 65.8874 84.8147 66.4639 84.8601 67.0476C84.9385 68.1623 85.6555 68.8091 86.4319 69.4639C85.8284 71.5124 85.2424 73.5669 84.6733 75.625C84.3232 76.8642 84.0164 78.9092 82.843 79.5801C82.4966 79.7778 82.0015 79.9294 81.5979 79.8525C79.9397 79.5361 78.2954 79.06 76.6577 78.6396L66.3518 76.0051C65.3821 75.6953 65.6135 75.4104 65.6069 74.4883C65.6018 73.8283 65.489 73.5603 65.2026 73.0014C66.4968 70.8738 65.5754 71.2641 65.8428 69.2412C65.8875 68.9065 66.6052 66.6023 66.7612 66.0676L68.2788 65.6062C68.1008 68.7021 70.0652 68.782 72.4668 69.4031L76.8196 70.5098C78.5415 70.9441 80.4275 71.4875 82.1663 71.7893C82.572 71.8596 83.1023 71.7241 83.4751 71.5483C84.1665 71.2268 84.6909 70.6306 84.9224 69.904C85.1392 69.2068 85.0418 68.3652 84.6814 67.7302C84.4309 67.2871 84.053 66.9297 83.5974 66.7033C82.8313 66.3203 81.0691 65.957 80.1675 65.7175C77.8999 65.1162 75.606 64.5903 73.353 63.9253C73.7625 63.7297 74.0107 63.6279 74.3652 63.3108C75.9854 62.0107 75.4141 59.1118 73.1743 59.133C71.8516 59.1462 69.7788 59.823 68.4729 60.1628L73.4724 42.6812L74.5542 38.8566C75.0068 37.2521 75.1218 35.672 76.9001 35.1165Z" fill="white"/>
<path d="M80.0899 47.3488C80.4121 46.5041 80.6882 45.7527 81.5913 45.333C82.1502 45.0782 82.7903 45.0699 83.355 45.3102C84.6309 45.853 84.8418 47.1681 84.5166 48.3777L84.4932 48.4663C84.9978 48.6259 85.8196 48.8241 86.2532 48.99C85.8943 51.6199 85.282 54.2784 84.8704 56.9049C84.7993 57.3609 84.7092 57.8916 84.6008 58.3354C82.4673 57.7902 80.1961 57.1581 78.0669 56.6487C77.4839 57.0188 76.5808 58.676 75.9509 58.4629L75.8792 58.304C75.9605 58.0026 77.054 56.8513 77.3469 56.5266C76.7171 56.2991 75.4822 56.0878 75.1314 55.7266C75.2302 55.0663 76.2468 52.419 76.5772 51.5857C77.1243 50.2041 77.752 48.2551 78.3408 46.9295C78.9414 47.0618 79.4973 47.187 80.0899 47.3488Z" fill="#1C1C1C"/>
<path d="M78.6785 47.5781L79.9763 47.932C79.8401 48.3814 79.6606 48.7365 79.865 49.1597C80.3008 49.1526 80.4495 48.4239 80.5644 48.0695C81.5547 48.3357 82.8884 48.6204 83.8127 48.9362C83.6772 49.3449 83.4722 49.7135 83.6772 50.1184L83.8164 50.162C84.2258 49.9343 84.2478 49.4859 84.3474 49.0563L85.6094 49.3764C85.1633 51.9551 84.5078 55.1172 84.1811 57.6636C83.2385 57.417 79.0168 56.4637 78.4075 56.1143C78.3408 55.9941 78.3057 55.9661 78.217 55.8601C77.9307 55.8309 78.0757 55.8131 77.782 55.9888L75.7188 55.4724C75.8557 55.1821 75.9919 54.8832 76.0981 54.5806C76.9199 52.2404 77.8867 49.9258 78.6785 47.5781Z" fill="white"/>
<path d="M77.7818 55.9902C78.0755 55.8145 77.9304 55.8323 78.2168 55.8614C78.3054 55.9675 78.3406 55.9954 78.4072 56.1156L78.0669 56.6487C77.4839 57.0188 76.5808 58.676 75.9509 58.4629L75.8792 58.304C75.9605 58.0026 77.054 56.8513 77.3469 56.5266L77.7818 55.9902Z" fill="#B5FE28"/>
<path d="M82.1479 45.738C82.7932 45.6951 83.2627 45.7661 83.6912 46.2956C84.1423 46.8527 84.4822 47.7038 83.8743 48.2544C83.5703 48.3111 83.2495 48.1898 82.9375 48.1096C82.1816 47.8911 81.4221 47.6842 80.6597 47.4888C80.9885 46.4741 81.1606 46.1476 82.1479 45.738Z" fill="white"/>
<path d="M71.1557 56.432L70.9667 55.9591C70.8181 55.5917 70.6298 55.1905 70.7712 54.7851L70.9147 54.7607C71.2502 54.9855 71.2941 55.2103 71.4714 55.5941C71.8588 56.0489 72.7993 57.8114 72.2016 58.1048C70.9426 58.7233 70.8049 57.2148 71.1557 56.432Z" fill="#B5FE28"/>
<path d="M71.4714 55.5941C71.8588 56.0489 72.7993 57.8114 72.2016 58.1048C70.9426 58.7233 70.8049 57.2148 71.1557 56.432C71.3344 56.8938 71.5479 57.6282 71.9295 57.9181C72.1719 57.9332 72.0606 57.9645 72.2642 57.7944C72.3286 57.3582 71.6995 56.2286 71.5025 55.682L71.4714 55.5941Z" fill="white"/>
<path d="M76.7835 61.958C77.2999 61.999 79.4825 62.8003 79.9608 63.0603C80.0889 63.2573 80.0443 63.2053 80.0032 63.51C79.6063 63.5349 77.2515 62.6985 76.8436 62.4802C76.7169 62.2437 76.7645 62.2759 76.7835 61.958Z" fill="#B5FE28"/>
<path d="M79.7427 59.2116C80.0562 59.1633 80.1213 59.1472 80.2817 59.3955L80.2239 59.5537C79.7368 59.9191 78.1826 60.2077 77.5286 60.3601L77.2151 60.4011C77.0049 60.3183 77.0928 60.3857 76.9668 60.1645L77.0247 59.9997C77.4121 59.6928 79.1253 59.3793 79.7427 59.2116Z" fill="#B5FE28"/>
<path d="M74.4033 54.1699C74.7006 54.2494 74.6977 54.1961 74.8596 54.3869C74.8581 54.9077 74.5256 57.2411 74.3095 57.7063C74.0978 57.6223 74.1022 57.6371 73.9543 57.4687C73.8063 56.9531 74.2765 54.843 74.4033 54.1699Z" fill="#B5FE28"/>
<path d="M72.7116 59.7434C72.9936 59.7119 73.1789 59.6907 73.4587 59.7529C73.893 59.8452 74.2717 60.1111 74.5061 60.489C75.1125 61.4705 74.3992 62.8035 73.4485 63.2437C72.4729 63.6941 71.2959 64.0156 70.2646 64.343C67.948 65.0791 65.6255 65.7962 63.2978 66.4949C62.1245 66.8582 60.9014 67.3049 59.6973 67.6023C58.989 67.7774 55.9582 67.1636 55.5891 67.3958C55.4895 67.6485 55.4844 67.5313 55.5649 67.7576C56.197 68.1897 62.2344 68.2417 63.5293 68.6028C65.6452 69.1924 65.6819 70.8989 64.8044 72.5161C64.7561 72.4824 64.7077 72.448 64.6594 72.4151C63.7673 71.8086 62.5537 71.6555 61.4895 71.6416C60.7871 71.6321 56.832 71.0059 56.5852 71.4094C56.8335 71.9976 57.7058 71.8921 58.2859 71.9419C59.7119 72.0532 61.1489 72.1785 62.5727 72.2971C65.3501 72.5286 65.7566 74.8152 64.0984 76.7766C62.5266 75.3667 60.2077 75.8567 58.2434 75.4495C57.875 75.3733 57.1147 75.2876 56.8547 75.5652C57.7907 76.8015 65.928 75.0679 63.6325 79.4551C63.0364 80.2923 61.4302 82.9912 60.3535 83.0271C58.614 83.085 53.4805 84.0847 56.6577 80.9566L57.0481 80.586C57.6157 80.5728 59.7712 80.7778 59.9507 80.2688L59.8379 80.1406C59.2168 79.9019 57.5879 79.9986 56.824 80.0088C56.2585 80.4058 55.3496 81.4678 54.7951 82.0039C51.1806 85.5034 48.3117 87.4546 43.1474 87.3762C42.3747 87.8809 41.6277 88.4236 40.9092 89.0037C40.5802 88.4624 40.2175 87.7337 39.9503 87.1587C38.466 83.9632 36.5671 80.783 35.1572 77.5713C36.453 76.7166 38.6586 74.9265 39.9665 73.9099C42.4513 71.9793 44.9485 70.064 47.458 68.1648C48.5797 67.3101 50.0455 66.0137 51.2165 65.3274C52.6828 64.4683 55.5788 63.9636 57.2634 63.5549L69.6003 60.4766C70.5818 60.2334 71.7273 59.9009 72.7116 59.7434Z" fill="white"/>
<path d="M48.9022 15.1445C48.9763 15.1396 49.0503 15.1347 49.1244 15.1299C49.3934 15.3326 49.7842 15.9322 50.0219 16.1838C51.4967 17.7444 52.7521 18.4042 54.8066 18.8532C54.6711 18.0968 54.529 17.3417 54.3803 16.5879C56.549 18.6741 58.1742 19.61 61.194 19.575C60.8014 18.3854 60.3444 17.5622 59.9482 16.1728C60.6586 16.4282 61.7572 16.7952 62.3644 17.1722C62.5051 19.8356 62.9445 21.4226 64.1962 23.7276C63.2609 29.7927 64.599 31.4483 59.5878 36.2676C57.4279 38.2462 55.9469 39.3834 52.9308 39.5163C49.5217 39.6665 47.8152 38.7948 45.3389 36.5712C42.1743 33.7294 41.0407 31.7764 40.7857 27.5113C40.7168 26.3604 40.476 24.9432 40.4243 23.6678C41.6655 21.5228 42.0755 19.6459 42.2162 17.1669C43.8897 16.2301 47.0117 15.4173 48.9022 15.1445Z" fill="white"/>
<path d="M52.6558 22.9795L52.8945 23.0711C53.1611 23.357 53.7427 27.0085 53.8994 27.7134C54.1807 28.9802 53.2073 29.3836 52.1145 29.4981C51.8721 29.4556 51.7842 29.4408 51.6465 29.2424L51.6897 29.1329C51.9307 28.8747 53.1157 28.7351 53.1875 28.5991C53.7573 27.5129 52.1357 23.887 52.6558 22.9795Z" fill="#1C1C1C"/>
<path d="M48.5227 31.4941C49.4905 31.92 49.7692 32.3328 51.0582 32.6261C51.4904 32.7237 51.9313 32.7755 52.3744 32.7808C52.7889 32.784 53.3331 32.6391 53.6723 32.8668C53.7133 33.143 53.7243 33.0053 53.5953 33.288C52.2894 33.4836 49.2109 33.0906 48.4236 31.9518C48.3757 31.6567 48.366 31.807 48.5227 31.4941Z" fill="#1C1C1C"/>
<path d="M57.3423 21.3004C57.8777 21.2586 59.6985 21.3615 59.9797 21.8473C59.9175 22.0739 59.9746 21.9745 59.7754 22.1386C59.5344 22.145 58.446 21.9195 58.0439 21.8711C57.231 21.8276 56.7065 21.9886 55.9272 22.1218C55.5757 22.1818 55.6196 22.169 55.4102 22.0062C55.3779 21.3493 56.8655 21.3456 57.3423 21.3004Z" fill="#1C1C1C"/>
<path d="M46.8323 21.2986C47.3746 21.2881 48.8948 21.385 49.246 21.8279C49.2365 22.0624 49.2651 21.9455 49.054 22.1671C48.8909 22.1731 47.6529 21.9042 47.3069 21.8551C46.3174 21.8314 45.8926 22.0397 44.9502 22.1284C44.7752 22.1448 44.7497 22.0583 44.645 21.9381L44.6576 21.7817C45.0555 21.3852 46.2637 21.3479 46.8323 21.2986Z" fill="#1C1C1C"/>
<path d="M46.9592 23.5029C48.0179 23.5902 47.8567 24.9106 47.3439 25.4741C46.3014 25.3639 46.4032 24.0939 46.9592 23.5029Z" fill="#1C1C1C"/>
<path d="M57.45 23.5195C58.5047 23.6134 58.3618 24.8663 57.8653 25.4593C56.8443 25.3783 56.9615 24.0878 57.45 23.5195Z" fill="#1C1C1C"/>
<path d="M51.7063 8.33788C55.4079 8.18956 63.9487 9.569 66.6008 13.1155C66.9106 13.5301 66.9121 18.1342 66.6477 18.8122C66.5598 18.8823 66.5451 18.9454 66.4572 18.8807C62.5439 16.0101 58.0088 14.5422 53.0774 14.2933C48.1036 14.2528 43.1581 15.5076 38.9768 18.252C38.6659 18.4561 38.3167 18.9625 37.9695 18.888C37.793 18.6545 37.7363 18.2776 37.7424 17.9741C37.7742 16.4741 37.6044 14.818 37.9403 13.3555C38.1794 12.3143 39.6823 11.5378 40.5534 11.0808C43.9739 9.28607 47.8629 8.45704 51.7063 8.33788Z" fill="white"/>
<path d="M51.6969 0.572526C54.3292 0.432048 56.9432 1.08068 59.2042 2.43515C62.3712 4.34494 64.3129 7.55346 65.172 11.086C61.5121 9.00219 57.3885 7.86745 53.1779 7.7852C48.0587 7.69321 43.9487 8.58654 39.4238 11.0536C40.8877 4.86547 45.3242 0.976091 51.6969 0.572526Z" fill="white"/>
<path d="M58.8997 37.6787C58.9802 37.8539 58.9941 42.5931 59.0058 43.2328C56.8013 44.5556 53.8833 46.5455 52.3079 48.5684C51.062 47.2335 50.2057 46.4734 48.7608 45.3842C47.6224 44.56 46.7809 43.984 45.5625 43.2908L45.5871 41.7877C50.1799 42.3473 55.3452 40.5925 58.8997 37.6787Z" fill="white"/>
<path d="M72.4225 64.2803C75.9426 65.2625 79.5973 66.0469 83.1034 67.0789C84.145 67.385 84.6459 68.5569 84.4152 69.6035C84.2929 70.1719 83.9413 70.6648 83.4426 70.9651C82.6823 71.4324 81.9455 71.2427 81.1508 71.0413C78.8722 70.4817 76.5981 69.9023 74.329 69.3054C72.9433 68.9531 71.5539 68.6228 70.185 68.2127C69.06 67.8757 68.5114 66.583 68.9003 65.51C69.2614 65.1768 71.8139 64.4685 72.4225 64.2803Z" fill="#B5FE28"/>
<path d="M73.5734 67.582C73.3625 67.5593 73.4445 67.6084 73.3076 67.4612C73.3566 67.251 73.3955 67.1843 73.3435 66.9778C72.6997 66.5544 72.8154 67.1902 72.5781 67.3674L72.4052 67.3066C72.3342 67.0854 72.6088 66.2336 72.685 65.9524L72.8088 65.915C72.9208 66.2695 72.9509 66.6416 73.3522 66.6841C73.7412 66.3904 73.3178 66.5728 73.6584 66.1773L73.9536 66.1743L74.1813 66.3091C74.467 66.3545 74.9431 66.4314 75.1562 66.6379L75.3203 66.865C75.1137 67.221 75.0859 67.3601 75.0969 67.7813L74.8815 67.8494C74.5248 67.8787 74.1799 67.7754 73.8254 67.6978L73.5734 67.582Z" fill="#1C1C1C"/>
<path d="M73.5734 67.582C73.3625 67.5593 73.4445 67.6084 73.3076 67.4612C73.3566 67.251 73.3955 67.1843 73.3435 66.9778C72.6997 66.5544 72.8154 67.1902 72.5781 67.3674L72.4052 67.3066C72.3342 67.0854 72.6088 66.2336 72.685 65.9524L72.8088 65.915C72.9208 66.2695 72.9509 66.6416 73.3522 66.6841C73.7412 66.3904 73.3178 66.5728 73.6584 66.1773L73.9536 66.1743L74.1813 66.3091C74.1037 66.8467 74.0356 67.1865 73.8254 67.6978L73.5734 67.582Z" fill="#1C1C1C"/>
<path d="M73.9536 66.1743L74.1813 66.3091C74.1037 66.8467 74.0356 67.1865 73.8254 67.6978L73.5734 67.582C73.6936 67.1096 73.8078 66.6394 73.9536 66.1743Z" fill="#B5FE28"/>
<path d="M75.1562 66.6379L75.3203 66.865C75.1137 67.221 75.0859 67.3601 75.0969 67.7813L74.8815 67.8494C74.7014 67.5967 74.5713 67.7297 74.2314 67.3584L74.2593 67.2398C74.4534 67.1965 74.5237 67.2302 74.728 67.2595L74.8071 67.1577L74.7676 67.0391C74.6079 66.9841 74.5486 66.9585 74.3977 66.8823L74.386 66.7739C74.7551 66.6172 74.8735 66.7983 75.1562 66.6379Z" fill="#B5FE28"/>
<path d="M79.459 68.6517C79.2722 68.9139 78.9368 69.0252 78.6299 68.9256C78.323 68.8267 78.1158 68.5396 78.1187 68.2166C78.1216 67.8944 78.3333 67.6109 78.6416 67.5164C78.95 67.4227 79.284 67.5391 79.4663 67.805C79.6421 68.0606 79.6392 68.399 79.459 68.6517Z" fill="#1C1C1C"/>
<path d="M78.7122 67.825C78.9254 67.7444 79.1649 67.8426 79.2608 68.0491C79.3568 68.2564 79.2769 68.5025 79.077 68.6131C78.9342 68.6929 78.7591 68.6856 78.6236 68.5948C78.4881 68.5039 78.4141 68.345 78.4325 68.1824C78.4515 68.0205 78.5592 67.8821 78.7122 67.825Z" fill="#B5FE28"/>
<path d="M72.2194 66.7972C70.7114 68.2371 70.2507 64.6409 72.1696 65.9102C72.3147 66.0061 72.2876 66.2186 72.2744 66.3614L72.2194 66.7972Z" fill="#1C1C1C"/>
<path d="M72.2194 66.7972C72.0986 66.7107 72.1272 66.7359 71.9771 66.6905C71.5296 66.8854 71.1179 66.9029 71.1348 66.2459C71.509 65.7193 71.9052 66.0823 72.2744 66.3614L72.2194 66.7972Z" fill="#B5FE28"/>
<path d="M79.4663 67.805C79.6949 67.7677 79.7542 67.7316 79.9739 67.7741L80.1877 67.84C80.3943 68.2971 79.8625 68.7827 80.2419 69.1225C80.6616 68.8954 80.8843 68.1044 81.0674 68.0759C81.1772 68.5256 80.8491 69.2536 80.343 69.3759C80.053 69.3298 79.8713 69.184 79.7358 68.9255C79.5242 68.8376 79.6209 68.8853 79.459 68.6517C79.6392 68.399 79.6421 68.0606 79.4663 67.805Z" fill="#1C1C1C"/>
<path d="M79.4663 67.805C79.6949 67.7677 79.7542 67.7316 79.9739 67.7741L79.7358 68.9255C79.5242 68.8376 79.6209 68.8853 79.459 68.6517C79.6392 68.399 79.6421 68.0606 79.4663 67.805Z" fill="#B5FE28"/>
<path d="M76.9551 66.9141C77.2166 67.0247 77.1404 66.9353 77.2393 67.144C77.1873 67.3945 77.125 67.5557 77.0408 67.7937C77.1594 67.6897 77.2796 67.5872 77.4004 67.4854C77.6648 67.2664 77.6875 67.2473 77.9885 67.2744L78.0076 67.3587C77.8098 67.541 77.6531 67.6597 77.4378 67.823C77.4436 68.0544 77.5549 68.1833 77.6751 68.4082C77.7534 68.5598 77.7315 68.4771 77.7337 68.6587L77.6282 68.6836C77.3352 68.5005 77.3367 68.3467 77.1213 68.0105L77.0115 68.0142C76.9536 68.1497 76.8958 68.2852 76.8364 68.4199L76.6724 68.4258L76.5742 68.2932C76.7083 67.8355 76.835 67.3755 76.9551 66.9141Z" fill="#1C1C1C"/>
<path d="M75.3203 66.865C75.7099 66.6819 76.1793 66.6419 76.4964 66.9935C76.5462 67.2433 76.5587 67.1283 76.4789 67.3531C76.1471 67.2931 76.1822 67.0228 75.8102 66.973C75.5802 67.0433 75.3671 67.3026 75.3246 67.5362C75.5604 67.9954 76.076 67.6681 76.2928 67.9281C76.1756 68.1207 76.1485 68.1038 75.9332 68.1983C75.545 68.1815 75.3788 68.0449 75.0969 67.7813C75.0859 67.3601 75.1137 67.221 75.3203 66.865Z" fill="#1C1C1C"/>
<path d="M81.3227 68.1475C81.5498 68.157 82.1452 68.2317 82.3203 68.3657C82.2697 68.6301 82.0801 68.6697 81.9284 68.8784C81.9284 68.8784 81.8105 69.3318 81.8003 69.3728C81.7204 69.6467 81.7988 69.5544 81.6135 69.6995L81.4839 69.6072C81.4011 69.208 81.7014 68.9304 81.6538 68.5276L81.3667 68.3518L81.3227 68.1475Z" fill="#1C1C1C"/>
<path d="M89.0436 56.2236C89.1491 56.2258 89.5453 56.2397 89.6413 56.2977C91.2123 57.3221 92.9386 58.5545 94.3463 59.8033C95.8771 61.1597 95.3109 62.9241 93.5773 63.6858C93.5356 63.6749 93.4938 63.6639 93.4513 63.6529C91.6584 62.169 89.7006 60.8536 87.9135 59.3865C87.7018 59.2129 87.4982 58.6541 87.4608 58.4747C87.3524 57.9628 87.4645 57.429 87.7692 57.0037C88.1076 56.5285 88.4906 56.3319 89.0436 56.2236Z" fill="white"/>
<path d="M87.7336 60.4648C88.8711 60.4714 90.875 62.5083 91.9392 63.1755C94.0097 64.4734 94.7312 66.6245 92.1955 68.0154C92.1765 68.0088 90.7226 66.708 90.5212 66.5432C89.3127 65.5552 86.7888 64.4302 86.238 62.9712C86.0534 62.4871 86.0805 61.9473 86.312 61.4836C86.6035 60.9014 87.1448 60.6421 87.7336 60.4648Z" fill="white"/>
<path d="M86.815 65.2292C86.8721 65.2226 87.2625 65.1823 87.2866 65.1948C89.6253 66.3593 93.8337 68.7411 90.8894 71.7089C90.1687 72.4362 89.1785 73.121 88.3501 73.7619L87.5217 74.4636C87.6741 73.9069 88.1751 71.5119 88.5259 71.2006C88.7632 71.1933 88.8635 71.2006 89.1023 71.2226L89.2048 71.1244C89.2004 71.0519 89.1953 70.9794 89.1909 70.9069C88.0696 69.8097 86.3206 69.0363 85.5662 67.6132C84.9773 66.5021 85.8328 65.6562 86.815 65.2292Z" fill="white"/>
<path d="M90.6294 52.624C90.8608 52.6098 91.0981 52.5985 91.3274 52.6423C91.9807 52.7669 95.5857 55.8112 96.0061 56.4813C96.2822 56.9211 96.4147 57.4534 96.291 57.9659C96.1174 58.6872 95.5549 59.1017 94.9477 59.4489C94.6921 59.4394 91.6774 56.9063 91.0754 56.5583C89.3996 55.5889 88.2226 53.7546 90.6294 52.624Z" fill="white"/>
<path d="M65.8057 21.7937C69.073 21.5743 69.4114 26.1556 66.6582 28.019C65.6987 28.4966 65.3582 28.5214 64.3145 28.4931C64.4177 26.5165 64.7334 24.0663 64.9421 22.0632C65.26 21.9304 65.4761 21.8802 65.8057 21.7937Z" fill="white"/>
<path d="M66.8195 23.3721C67.048 23.3667 67.0319 23.3636 67.223 23.4899C67.3051 23.7805 67.1352 23.8711 66.8524 24.0636C65.9179 24.7 65.8549 25.4056 65.6601 26.4569C64.4911 26.2928 65.5561 24.547 65.9706 24.0133C66.1955 23.7237 66.5053 23.5567 66.8195 23.3721Z" fill="#1C1C1C"/>
<path d="M38.3345 21.7994C38.8623 21.7842 39.142 21.8824 39.6202 22.0606C39.9237 24.0524 40.1143 26.4828 40.3266 28.5198C39.4805 28.5256 39.2083 28.5385 38.4059 28.259C35.5292 26.8427 35.075 22.3653 38.3345 21.7994Z" fill="white"/>
<path d="M37.527 23.2725C38.596 23.7384 40.0002 25.4078 39.2559 26.4969C38.6276 26.2374 38.8151 24.9815 38.3685 24.4674C38.2131 24.2886 37.6803 24.0226 37.3839 23.7477C37.3289 23.4986 37.3544 23.5687 37.527 23.2725Z" fill="#1C1C1C"/>
<path d="M67.8297 50.428C68.3145 50.4045 68.8551 50.4031 69.2352 50.7311C69.3905 51.0495 68.6273 53.3644 68.464 53.9332L66.7552 59.884C66.6768 60.2267 66.671 60.6772 66.2733 60.6486C66.2535 60.5842 66.0894 57.8021 66.1114 57.5383C66.3289 54.9018 64.5118 51.4233 67.8297 50.428Z" fill="white"/>
<path d="M96.8015 45.1561C98.2224 45.0153 98.7139 45.6057 99.0669 46.8925C98.7593 48.2634 97.7295 48.9883 96.8242 49.9911C96.3269 50.5426 95.7981 51.0774 95.2883 51.6194C94.8555 52.0607 94.4219 52.5275 93.9941 52.9762C94.8152 50.5886 95.2935 48.0086 96.1108 45.6141C96.2134 45.3141 96.5181 45.2586 96.8015 45.1561Z" fill="white"/>
<path d="M64.6416 66.6846C64.7002 66.7058 64.6614 66.686 64.7266 66.782C64.6035 67.2727 64.4673 67.7378 64.3245 68.2227C63.5964 67.9561 62.9871 67.9268 62.2188 67.8652C61.8943 67.8425 61.8145 67.8418 61.5083 67.7517C61.6878 67.6184 64.2285 66.8208 64.6416 66.6846Z" fill="white"/>
<path d="M100.065 41.1846C100.708 41.2269 103.609 41.4839 104.071 41.7138C104.189 41.9189 104.149 41.8701 104.129 42.1531C103.377 42.1528 100.705 41.9387 100.119 41.6108C99.9664 41.3763 100.004 41.5092 100.065 41.1846Z" fill="#B5FE28"/>
<path d="M102.767 35.9014C102.99 35.9446 102.901 35.8904 103.043 36.0695L103.016 36.2445C102.659 36.7417 100.458 38.0464 99.813 38.4212C99.6145 38.3305 99.5596 38.2598 99.501 38.0739C99.6812 37.7279 102.248 36.2233 102.767 35.9014Z" fill="#B5FE28"/>
<path d="M98.1733 32.3701C98.374 32.4585 98.3733 32.4475 98.5278 32.599C98.5937 33.0479 97.6233 35.7962 97.3948 36.3506C97.1912 36.247 97.1882 36.2462 97.0168 36.0957C96.9407 35.7309 97.9477 32.8195 98.1733 32.3701Z" fill="#B5FE28"/>
</svg>
