<svg width="150" height="150" viewBox="0 0 150 150" fill="none" xmlns="http://www.w3.org/2000/svg">
<g clip-path="url(#clip0_923_65168)">
<path d="M0 0H99.9895H150V62.8003V94.5037V95.2009V107.739V112.554V150H87.3398H86.658H51.0179H50.4259H12.11H11.3851H0V0Z" fill="#1C1C1C"/>
<path d="M0 0H99.9895C98.9392 3.59109 99.7104 7.8156 101.479 11.067C103.298 14.3575 106.316 16.8199 109.904 17.9418C109.209 25.2431 111.291 31.7467 112.729 38.7708C113.572 42.8895 113.535 47.3101 114.122 51.4784C115.288 61.4213 120.089 69.8506 126.3 77.5137C130.266 82.4092 134.829 82.8479 140.46 80.4631C141.489 85.7776 141.983 91.7424 143.047 97.0569C140.131 98.2544 135.866 100.279 134.706 103.323C134.295 104.4 134.09 105.635 133.838 106.775L132.885 110.914C132.691 111.774 132.468 112.923 132.234 113.754C129.752 110.525 127.285 107.421 125.266 103.879C124.877 103.196 124.43 102.507 124.022 101.829L120.022 95.1738C118.068 91.8603 115.993 88.0496 113.859 84.9053C111.364 81.2278 107.653 78.1604 104.75 74.7283C102.642 72.2355 100.357 69.5216 98.0808 67.2015C97.3 66.4054 95.6697 65.2423 94.7395 64.6001C94.3293 62.5973 94.0393 59.3774 93.7529 57.2304L91.4766 39.7719C91.2993 38.4576 91.1323 37.1418 90.9749 35.8249C90.6152 32.9271 90.2314 30.447 87.5515 28.7018C86.5562 28.0534 85.4048 27.5819 84.2117 27.4928C82.248 27.4616 79.9417 27.8136 77.967 28.0366L67.5651 29.2042L58.9049 30.1487C57.3865 30.3144 55.1286 30.5185 53.6717 30.8266C51.7666 31.2108 50.0952 32.3433 49.0324 33.9703C48.3237 35.0772 47.9282 36.3554 47.8878 37.669C47.8542 38.9176 48.218 41.1428 48.3911 42.4819C48.7309 45.2074 49.0876 47.9306 49.4613 50.6516L50.9344 62.2216C51.1337 63.7522 51.3253 65.5438 51.5798 67.0462C47.5542 70.1576 46.7122 71.585 44.9201 76.2605C44.282 77.9546 43.6218 79.6399 42.9397 81.3157C41.6995 84.334 40.1323 87.1443 39.0149 90.2212C37.8303 93.4841 37.039 96.8379 36.2016 100.203C35.409 103.398 34.5948 106.587 33.7594 109.771C33.102 112.358 32.4487 115.037 31.6818 117.592C30.5157 121.476 28.5171 125.222 26.9899 128.936C25.7458 128.771 24.6449 128.675 23.3843 128.681C21.7051 131.534 20.0343 134.597 18.4025 137.493L11.3851 150H0V0Z" fill="white"/>
<path d="M44.1005 59.1148C46.4396 58.9295 47.6021 60.4634 47.3705 62.6945C47.5821 63.0447 48.0749 63.6183 47.8495 63.9554C47.5183 64.0916 47.1032 64.0357 46.7303 64.0227C46.3495 64.2751 46.0298 64.4701 45.6332 64.6973C45.5764 64.7159 45.5193 64.7337 45.4619 64.7505C41.5537 65.8902 39.9608 60.0443 44.1005 59.1148Z" fill="#B5FE28"/>
<path d="M43.8419 61.5944C44.083 61.0241 43.881 60.6454 44.0783 60.2169L44.1941 60.1768C44.4867 60.3468 44.5269 60.5133 44.6096 60.8302C44.6441 60.966 44.6773 61.1021 44.7095 61.2385C45.0256 61.0955 45.2744 60.937 45.609 60.9623C46.1596 61.2509 46.0587 62.0819 46.1706 62.6826C45.5059 63.0235 45.1509 63.0942 44.461 63.3363L44.0807 63.4575C43.9401 63.5359 43.7042 63.7073 43.5525 63.554C43.163 63.1604 43.0631 62.6788 43.0059 62.1489C43.1253 61.9321 43.2024 61.9606 43.489 61.83L43.8419 61.5944Z" fill="#1C1C1C"/>
<path d="M43.489 61.8281C43.6886 62.2452 43.9829 63.0055 44.0807 63.4556C43.9401 63.5341 43.7042 63.7054 43.5525 63.5521C43.163 63.1585 43.0631 62.6769 43.0059 62.1471C43.1253 61.9302 43.2024 61.9588 43.489 61.8281Z" fill="#1C1C1C"/>
<path d="M43.489 61.8281L43.8417 61.5928C43.8468 61.9863 44.1542 63.0969 44.4608 63.3346L44.0807 63.4556C43.9829 63.0055 43.6886 62.2452 43.489 61.8281Z" fill="#B5FE28"/>
<path d="M96.9633 35.6109C98.7013 35.3873 100.111 36.3938 100.255 38.1784C100.323 38.9547 100.075 39.7257 99.5678 40.317C98.9562 41.0236 98.2429 41.2711 97.3478 41.3259C96.7934 41.2618 96.5348 41.1819 96.009 41.0083C95.5966 41.1424 95.0927 41.4356 94.7836 41.0959C94.7338 40.7574 94.9059 40.3481 95.0136 40.0032C94.8671 39.6779 94.7309 39.3423 94.6489 38.994C94.4716 38.2549 94.6071 37.4754 95.0224 36.839C95.5197 36.081 96.1291 35.7983 96.9633 35.6109Z" fill="#B5FE28"/>
<path d="M97.4253 36.7783C99.7566 37.1246 97.6904 39.135 97.1514 38.9987C97.0701 38.8128 97.1111 38.7436 97.1565 38.5552C97.4656 38.3137 97.8186 38.1315 97.9819 37.8204C97.9761 37.666 97.9768 37.5178 97.8091 37.3914C97.3022 37.0098 97.2187 37.6092 96.7046 37.6847L96.5991 37.5345C96.5815 37.0464 97.0437 36.9007 97.4253 36.7783Z" fill="#1C1C1C"/>
<path d="M103.526 44.6181C104.16 44.5694 104.648 44.5972 105.205 44.9466C105.694 45.2596 106.038 45.7542 106.162 46.3212C106.303 46.9341 106.182 47.5783 105.826 48.0974C105.361 48.7729 104.805 48.9472 104.056 49.0688C103.765 49.0387 103.314 48.9251 103.014 48.8572C102.616 48.767 102.04 48.9388 101.826 48.7738C101.791 48.4888 101.948 48.2003 102.058 47.924L102.034 47.8647C101.387 46.2303 101.901 45.2044 103.526 44.6181Z" fill="#B5FE28"/>
<path d="M103.846 45.5557C105.804 45.6492 104.423 47.2927 103.743 47.2957L103.663 47.0583C103.912 46.8296 104.516 46.497 104.38 46.0927C104.116 46.0029 103.719 46.1116 103.385 46.1284L103.358 46.0166C103.499 45.7328 103.558 45.7249 103.846 45.5557Z" fill="#1C1C1C"/>
<path d="M37.4353 52.7477C39.3026 52.6569 39.9924 53.9442 39.8542 55.6308C40.0335 55.9052 40.2102 56.2123 40.3805 56.495C39.3846 56.5407 39.363 56.5412 38.4927 57.0252C35.1396 57.8693 34.2596 53.4345 37.4353 52.7477Z" fill="#B5FE28"/>
<path d="M37.1798 53.7623C37.6212 53.7076 37.7202 53.7163 38.1053 53.9463C38.4517 54.4204 38.1199 55.0951 37.7401 55.4423L37.6356 55.3919C37.6118 55.1901 37.6341 55.2005 37.6916 54.9891C37.81 54.6859 37.9684 54.3645 37.7823 54.0726C37.5552 54.0615 37.1303 54.4057 36.8555 54.5617L36.775 54.5201C36.7516 54.101 36.8914 54.0381 37.1798 53.7623Z" fill="#1C1C1C"/>
<path d="M98.7973 52.7646C99.9362 52.9027 100.474 55.6532 99.187 56.2128C98.79 56.3857 98.6362 56.2774 98.27 56.1894C96.8813 55.7211 96.2976 55.5203 97.1618 53.7618C97.2658 53.5506 97.821 53.4447 98.0297 53.445C98.3645 53.4455 98.6069 53.0184 98.7973 52.7646Z" fill="#B5FE28"/>
<path d="M98.9116 53.5156C99.0192 53.5941 98.9826 53.5409 99.0119 53.681C98.8867 53.8449 98.8478 53.8572 98.8185 54.054C99.0266 54.3116 99.6645 54.1714 99.6703 54.4937C99.6777 54.9283 99.5129 55.6184 99.006 55.6675L98.9438 55.6573C98.4919 55.5827 98.0026 55.5469 97.7514 55.1235C97.4958 54.692 98.2509 53.9277 98.6391 53.8297C98.7563 53.8001 98.8412 53.6177 98.9116 53.5156Z" fill="#B5FE28"/>
<path d="M42.0934 43.9238C42.7262 44.0894 43.827 44.6928 44.0624 45.3258C44.5234 46.5652 43.7558 46.9576 42.7911 47.3311C41.6146 47.7963 40.9575 47.122 41.1176 45.8686C41.155 45.5753 41.5085 45.4259 41.759 45.2937C41.7762 44.5832 41.6202 44.4228 42.0934 43.9238Z" fill="#B5FE28"/>
<path d="M42.2638 44.582C42.4392 44.7219 42.4791 44.8152 42.5824 45.0167L42.6489 45.1478C43.0936 45.0521 43.1299 44.8422 43.5681 45.1719C43.756 45.5047 43.8782 46.0914 43.5606 46.3653C43.1735 46.544 42.8996 46.7255 42.4939 46.6607C42.1107 46.4507 42.0755 46.149 41.9453 45.7322C42.1227 45.297 42.1664 45.0413 42.2638 44.582Z" fill="#B5FE28"/>
<path d="M41.54 45.8184L41.6784 45.8849C41.8918 46.2566 42.0107 46.6172 42.0427 47.0455L41.8414 46.9316C41.5816 46.5362 41.5477 46.2903 41.54 45.8184Z" fill="#B5FE28"/>
<path d="M99.2178 43.416C99.275 43.4239 99.4288 43.472 99.4903 43.4895C99.6339 43.6828 99.6023 43.5774 99.5892 43.8158C99.2647 44.3253 97.556 45.2602 96.9283 45.6439L96.7056 45.5946C96.5401 45.3925 96.5767 45.5042 96.5797 45.252C96.8594 44.7988 98.6612 43.7635 99.2178 43.416Z" fill="#B5FE28"/>
<path d="M42.43 50.5752C42.923 50.684 44.9473 51.558 45.412 51.8417C45.5161 52.0752 45.4709 52.0309 45.3898 52.3481C44.8862 52.24 42.8206 51.423 42.4131 51.0475C42.3183 50.7943 42.3417 50.8863 42.43 50.5752Z" fill="#B5FE28"/>
<path d="M87.3398 150C88.8223 147.234 90.0212 145.111 91.8376 142.532C96.9001 135.345 103.456 129.957 111.286 126.019C115.429 123.982 119.574 122.212 123.776 120.262C126.651 118.928 129.67 117.347 132.503 115.924C133.105 115.621 135.588 115.177 136.397 114.985C140.871 113.923 145.48 113.353 150 112.554V150H87.3398Z" fill="#F2F2F2"/>
<path d="M67.7244 111.972C69.7204 111.694 71.7592 111.459 73.7396 111.167C72.0425 112.013 69.4826 113.249 70.6555 115.696C71.0285 116.474 71.9374 117.045 72.7531 117.259C76.5983 118.11 80.9884 115.542 84.5114 114.438C86.5072 113.813 88.4774 113.576 90.5743 112.935C91.7645 113.659 93.0858 114.444 94.1112 115.385C95.1586 116.346 96.2345 117.749 97.1317 118.854C100.581 123.105 102.368 125.156 107.505 127.356C106.364 127.977 105.069 128.839 103.994 129.574C96.5304 134.752 90.5537 141.795 86.658 150H51.0179C51.4491 149.032 51.8294 147.864 52.182 146.854C52.7146 145.353 53.2295 143.845 53.7266 142.332C52.9569 141.519 52.0848 140.783 51.2382 140.048C51.7224 138.905 52.6985 136.328 53.4533 135.479C55.4977 133.178 57.8593 131.843 59.4927 129.028C61.132 126.202 62.366 123.28 63.5564 120.238C63.9562 119.249 64.3379 118.12 64.782 117.169C65.6103 115.396 66.7822 113.704 67.7244 111.972Z" fill="white"/>
<path d="M110.538 18.1006C111.924 18.4809 113.466 18.4778 114.56 18.8758C116.074 19.4255 116.279 22.8143 116.581 24.3152C116.79 25.3582 117.067 26.3863 117.41 27.393C119.107 32.3827 121.918 35.1531 126.539 37.4381C126.47 37.9084 126.43 38.1566 126.804 38.5094L126.931 38.4695C127.272 37.9636 127.201 37.2206 127.33 36.6318C127.62 35.322 128.236 34.0698 129.378 33.3102C131.342 32.0052 133.625 33.0293 134.767 34.8961C136.762 38.1558 137.367 42.5014 136.501 46.2126C136.066 48.0804 135.316 50.3529 133.6 51.4242C131.597 52.6614 130.592 50.9847 129.566 50.7385C129.36 50.8528 129.435 50.7682 129.361 51.0236C129.418 51.3706 129.589 51.5189 129.878 51.711C132.283 53.3094 134.231 52.3862 135.713 50.2905C137.518 53.1241 139.354 55.9195 141.634 58.3978C144.051 61.0261 146.385 62.627 150 62.8003V94.5037C147.7 95.3101 145.965 95.8625 143.652 96.8052C143.041 93.9575 140.883 76.9016 140.287 76.0989C140.189 75.9678 140.189 75.9619 140.019 75.9443C139.585 76.3801 140.244 79.0586 140.365 79.7595C132.056 83.1433 129.185 80.4868 124.334 73.832C119.424 67.0967 115.914 60.1065 114.847 51.7279C114.303 47.4629 114.172 43.2238 113.452 38.9929C112.464 33.5789 110.733 28.3632 110.508 22.8218C110.443 21.2122 110.486 19.7129 110.538 18.1006Z" fill="white"/>
<path d="M129.676 36.4297C129.931 36.4481 130.025 36.4678 130.243 36.6277C131.967 37.8876 132.821 39.8544 133.175 41.9026C133.322 42.7505 133.472 45.2222 133.017 45.8536C132.767 45.9361 132.89 45.9332 132.633 45.8574C132.422 45.5915 132.633 44.627 132.625 44.2187C132.616 43.761 132.658 43.3168 132.608 42.8456C132.563 42.4088 132.512 42.0025 132.442 41.5711L132.031 42.0129C131.579 42.5166 131.318 42.8349 131.018 43.4484C130.794 43.9072 130.559 44.8524 130.248 45.2008C129.95 45.2519 130.075 45.285 129.85 45.1492C129.807 45.0255 129.775 44.9059 129.803 44.7761C130.183 43.0282 130.926 41.9512 132.268 40.9054C131.639 39.0305 131.081 38.1779 129.616 36.957C129.493 36.8551 129.627 36.5775 129.676 36.4297Z" fill="#1C1C1C"/>
<path d="M23.7458 129.286C33.0664 129.369 46.5108 136.12 53.0528 142.495C52.2029 144.851 51.1599 147.622 50.4259 150H12.11L19.4013 137.047C20.8437 134.487 22.3564 131.871 23.7458 129.286Z" fill="#F2F2F2"/>
<path d="M150 95.2009V107.739C144.439 108.989 137.5 111.595 132.741 114.769C133.034 112.633 133.777 110.373 134.189 108.305C135.083 103.824 135.242 101.854 139.565 99.498C143.031 97.6106 146.284 96.4724 150 95.2009Z" fill="#F2F2F2"/>
<path d="M78.5829 30.2248C79.4435 30.0663 80.2858 29.9905 81.1472 29.8839C83.1415 29.6373 84.572 29.402 86.3283 30.5901C87.5002 31.383 88.3022 32.6812 88.5175 34.0752C88.7702 35.7108 88.9643 37.4301 89.1796 39.0795L93.8913 75.3023C94.3322 78.659 94.7373 82.978 95.3283 86.2263C92.2866 85.4046 90.5947 87.0408 87.8049 87.9014C86.0851 88.4324 84.1567 88.5071 82.5153 89.323C80.6454 90.2532 80.3093 92.8123 81.3478 94.4851C83.5517 97.773 89.2734 98.0315 92.6799 97.4412C93.7119 98.2234 96.3215 100.09 97.1074 100.861C97.0898 102.49 96.7419 103.708 95.562 104.888C94.0473 106.403 91.5358 106.401 89.5056 106.671L71.7498 109.056C69.5637 109.358 67.177 109.736 64.9795 109.873C64.0303 109.933 62.5813 109.154 61.8817 108.468C61.4649 108.056 61.12 107.579 60.8611 107.053C61.142 106.167 61.3801 105.399 61.8555 104.587C62.1021 103.971 63.8612 101.966 64.3758 101.406C66.0628 99.3762 65.609 100.056 67.8286 99.1887C70.6036 98.1055 74.9597 94.7356 74.3327 91.2573C74.1481 90.2686 73.5695 89.3977 72.7291 88.844C71.6652 88.1292 70.4237 88.2324 69.2415 88.45C68.5056 88.5701 67.0435 88.7488 66.3912 88.9019L65.7498 88.948C64.9081 89.0623 63.8132 88.9597 62.9493 89.0271C60.8994 89.1568 59.9555 89.6563 58.451 91.1211L52.2804 43.3207C52.0443 41.4594 51.7231 39.5156 51.6139 37.6484C51.5504 36.5645 52.0008 35.3786 52.6505 34.5331C53.661 33.238 54.9632 32.7384 56.5623 32.5714C57.832 32.4387 59.1456 32.2586 60.4252 32.1904C61.1548 35.2996 62.7317 34.803 65.3033 34.5298L69.2017 34.1215L74.0258 33.6104C75.402 33.4611 77.6059 33.5235 78.3083 32.2031C78.6613 31.5403 78.602 30.9444 78.5829 30.2248Z" fill="white"/>
<path d="M64.3758 101.406C64.3977 101.409 64.4195 101.413 64.4416 101.415C65.2691 101.51 68.1845 100.678 68.6145 101.234C68.8679 101.562 69.0528 103.608 68.9485 104.038C68.9148 104.178 68.876 104.264 68.7457 104.334C68.1952 104.626 62.7407 105.382 62.3377 105.198C62.1405 105.108 62.0787 104.917 61.9866 104.739C61.9286 104.626 61.959 104.667 61.8555 104.587C62.1021 103.971 63.8612 101.966 64.3758 101.406Z" fill="#F2F2F2"/>
<path d="M92.7179 97.4521C92.6971 97.4595 92.6766 97.4677 92.6555 97.4745C91.8663 97.7408 88.8412 97.5378 88.5371 98.1714C88.3581 98.5453 88.6059 100.585 88.7978 100.984C88.8601 101.113 88.916 101.189 89.0579 101.23C89.6575 101.4 95.1493 100.997 95.5049 100.733C95.679 100.604 95.6994 100.404 95.752 100.21C95.7851 100.088 95.764 100.134 95.8485 100.035C95.4785 99.4848 93.3385 97.8922 92.7179 97.4521Z" fill="#F2F2F2"/>
<path d="M66.3913 88.9008C66.455 87.2352 65.944 86.587 68.2641 86.5489C69.169 86.5343 68.7216 87.9632 69.2416 88.4488C68.5057 88.569 67.0436 88.7477 66.3913 88.9008Z" fill="#F2F2F2"/>
<path d="M62.9486 89.028C62.9796 87.6379 62.5699 86.7106 65.1295 87.0937C65.6339 87.1691 65.4609 88.3307 65.5995 88.8625L65.7492 88.9489C64.9075 89.0632 63.8126 88.9606 62.9486 89.028Z" fill="#F2F2F2"/>
<path d="M84.996 34.4536C87.3522 34.0851 87.3075 36.8306 87.5016 38.4045L88.0173 42.441C88.5072 46.2396 89.0258 50.0419 89.5195 53.8404C89.611 54.5476 89.5971 54.9926 89.1225 55.5763C88.8779 55.8767 88.4501 56.0996 88.0685 56.162C86.912 56.3512 85.7021 56.482 84.5383 56.6216L78.2226 57.398C71.5449 58.2302 64.5502 59.1601 57.8788 59.8657C57.3842 59.9582 56.8017 59.8597 56.413 59.5586C55.4382 58.804 55.406 56.1211 55.2622 54.994L54.3906 48.0045L53.719 42.827C53.0347 37.5887 53.1183 38.1056 58.1837 37.5468L64.7579 36.8076L84.996 34.4536Z" fill="#1C1C1C"/>
<path d="M84.7963 34.964C85.1302 34.9106 85.4796 34.9256 85.8195 34.9262L85.8846 34.9703C86.4493 35.36 86.6141 35.567 86.7167 36.2569C86.8932 37.4401 87.0353 38.6478 87.1854 39.8345C87.4572 42.0208 87.7399 44.2056 88.0336 46.389L88.7565 51.8621C88.8671 52.7283 89.0011 53.6254 89.0619 54.4965C89.0992 55.0389 88.4943 55.5635 87.9933 55.653C86.4427 55.9302 84.8409 56.068 83.2699 56.27C83.2919 54.6645 83.3717 52.6584 83.431 51.0402C83.9738 50.4824 85.6122 49.4059 85.7755 48.7558C86.7738 44.7796 83.308 47.8181 82.4847 48.3709C82.4628 47.9025 82.4598 47.3041 82.0555 47.0041C80.809 47.2021 81.0924 50.2213 80.9884 50.9884C80.9276 51.4335 80.0985 54.6962 79.9659 54.8324C79.7462 54.6491 79.8348 54.3784 79.7191 54.1828C78.6285 52.3502 77.1388 50.3693 75.2286 49.3555C74.3798 48.9052 73.2606 48.8482 72.5243 48.5078C72.3886 47.9266 73.2137 47.6427 73.5719 46.9388C74.2904 45.5259 73.4445 43.0048 72.9904 41.5634C73.974 40.0877 73.6664 38.9206 71.8604 38.5956C71.5101 38.7316 70.7275 39.2359 70.5112 39.2885C69.3034 39.5827 68.9938 39.3431 67.8407 39.9761C67.11 40.5514 67.4626 40.927 66.8842 41.4152C66.4933 41.7452 66.3869 41.9017 66.3241 42.4578C66.2341 43.2559 66.8776 43.8424 67.0896 44.5769C67.2109 44.997 67.0544 45.6431 67.3492 45.9786C67.6422 46.2236 68.0954 46.3422 68.4652 46.3733C68.5692 47.2329 68.6394 48.1508 68.7153 49.0156C67.5099 49.3314 66.0276 50.0877 65.1037 50.9357C63.6786 52.2438 63.0479 54.1826 62.4816 55.9782C62.3188 56.4941 62.0604 57.2307 62.0358 57.7615C62.1785 57.8972 62.1112 57.8258 62.2375 57.9755C62.2224 58.3073 62.1915 58.5884 62.1549 58.9163C60.0148 59.1156 55.9639 60.5009 56.0508 57.7068C56.0677 57.1621 55.831 56.1411 55.7614 55.5391C55.3941 52.357 54.9737 49.1502 54.5772 45.9747C54.426 44.735 54.2667 43.4962 54.0994 42.2586C53.9719 41.3305 53.5171 39.6446 54.1041 38.882C54.3439 38.5704 54.5688 38.4676 54.9484 38.403C56.1056 38.2062 57.288 38.1045 58.456 37.9756L64.6886 37.2696L84.7963 34.964Z" fill="#F2F2F2"/>
<path d="M60.9817 38.8494C61.4195 38.8146 61.8031 38.7711 62.1833 39.0166C62.6093 39.2879 62.8992 39.7284 62.98 40.2271C63.3059 42.2789 58.628 42.2208 57.2574 42.3498C54.6301 42.7954 54.3333 39.8581 56.0375 39.4618C57.2906 39.1705 59.6359 38.9594 60.9817 38.8494Z" fill="#B5FE28"/>
<path d="M56.4412 40.4707C56.6817 40.3946 56.9386 40.5269 57.0163 40.7669C57.0939 41.0069 56.9634 41.2647 56.7239 41.344C56.4822 41.424 56.2215 41.2919 56.143 41.0496C56.0646 40.8074 56.1984 40.5476 56.4412 40.4707Z" fill="#1C1C1C"/>
<path d="M61.3896 39.6592L61.5019 39.7279C61.3486 39.9034 61.4443 39.8308 61.1232 39.8584C60.9497 39.989 61.0129 39.9053 60.9476 40.1316L61.0442 40.249C61.2528 40.2201 61.2792 40.2066 61.4845 40.2328L61.5095 40.3474C61.3659 40.4192 61.3426 40.4249 61.1895 40.4531L61.0586 40.4762L61.0014 40.6219L61.0956 40.7349L61.2617 40.7365C61.4807 40.7327 61.4038 40.7079 61.5853 40.8084C61.4831 41.0143 61.5552 40.9244 61.3129 41.039C60.7357 40.9365 60.6771 40.3052 60.7357 39.8114C60.9251 39.6445 61.0915 39.6854 61.3896 39.6592Z" fill="#1C1C1C"/>
<path d="M60.2686 39.7256L60.4043 39.8546C60.363 40.2424 60.3924 41.0598 59.9086 41.0472C59.6168 40.8446 59.5422 40.548 59.3963 40.2078C59.3719 40.1129 59.3644 40.0263 59.3511 39.9287L59.4271 39.8907C59.6374 40.1606 59.8288 40.6184 59.9809 40.9392C60.0626 40.5009 60.1129 40.146 60.2686 39.7256Z" fill="#1C1C1C"/>
<path d="M57.7691 39.957C58.1649 40.254 57.8497 40.7967 58.1759 41.1408C58.3446 41.1272 58.439 41.1245 58.6083 41.128L58.6977 41.264C58.5863 41.2897 58.3147 41.3606 58.2132 41.3622C57.6236 41.3713 57.7124 40.2828 57.7691 39.957Z" fill="#1C1C1C"/>
<path d="M58.811 39.875L58.9543 39.9628C59.0688 40.2255 59.1182 40.895 59.1545 41.2109C59.1052 41.2108 59.0326 41.1887 58.9807 41.1764C58.8308 40.8464 58.8255 40.256 58.811 39.875Z" fill="#1C1C1C"/>
<path d="M72.4115 41.9004L72.5341 41.913C72.6874 42.1258 72.7889 42.5888 72.8657 42.8971C73.1768 44.1459 73.9121 46.5859 72.4946 47.4101C71.8495 47.7852 71.0357 47.445 70.3826 47.2397C70.182 47.2747 70.1965 47.2802 70.0452 47.4217L70.0528 47.5149C70.4327 47.9231 71.3516 48.0401 71.8937 48.09C71.9777 48.4797 72.0006 48.8224 72.037 49.2174C71.6949 49.9452 71.3302 50.2586 70.5103 50.2648C68.2264 49.5625 69.5261 46.6083 68.721 45.924C67.9435 45.9409 67.1727 45.6092 67.7019 44.6994C68.1482 44.423 68.2373 44.7512 68.8534 44.8586C69.5201 44.5631 68.8889 43.3605 69.2658 42.5712C69.3608 42.4774 69.4676 42.3949 69.6018 42.3751C70.7087 42.2113 71.3199 42.2339 72.4115 41.9004Z" fill="white"/>
<path d="M84.9539 47.2246C85.1575 47.2249 85.1436 47.2232 85.3267 47.3122C86.2283 48.5049 83.571 50.0663 82.9456 50.7812C82.7742 52.3291 82.8672 54.5905 82.7244 56.3584C80.8984 56.567 79.0732 56.7869 77.2495 57.0181L78.0874 56.3361C78.551 55.9086 78.9802 55.463 79.4211 55.0128C79.6497 55.3016 79.8269 55.8336 80.1748 55.9029C80.4714 55.6053 81.4199 51.6224 81.4719 51.0809C81.625 49.4778 81.4097 49.3453 81.9282 47.631C81.9436 48.0752 81.8425 48.6218 82.2432 48.8477C83.0386 48.8563 84.3049 47.728 84.9539 47.2246Z" fill="white"/>
<path d="M66.9514 55.4551C67.1125 55.4935 67.1044 55.4855 67.2313 55.5903C67.3246 56.0929 66.8398 57.8209 66.6988 58.3965C66.4321 58.3454 66.5156 58.4153 66.3825 58.2495C66.3223 57.5993 66.7697 56.1386 66.9514 55.4551Z" fill="white"/>
<path d="M62.7366 58.0322C63.2028 58.106 64.5821 58.3341 64.9534 58.4952L64.8128 58.5709L62.5723 58.8476L62.7366 58.0322Z" fill="white"/>
<path d="M79.2855 73.1981C80.7943 72.8801 81.6498 74.2104 81.8629 75.4306C82.4379 78.7213 82.1442 79.9892 78.5641 80.1466C78.1232 80.1657 76.7916 80.3751 76.2225 80.4484L65.8274 81.7623C65.203 81.8568 63.5777 82.2992 63.4715 81.3449C63.4308 80.9794 63.3487 80.351 63.3441 79.9899C63.3273 78.6679 62.5467 77.0067 63.4266 75.8598C63.6658 75.5499 64.164 75.1684 64.5316 75.1017C66.0962 74.8153 67.7055 74.6579 69.2859 74.4586C72.6167 74.0192 75.9501 73.5988 79.2855 73.1981Z" fill="#1C1C1C"/>
<path d="M79.0064 73.7102C80.4617 73.382 81.2088 74.2844 81.4227 75.643C81.5926 76.719 82.0276 79.0415 80.472 79.3659C78.8314 79.7087 77.0413 79.8742 75.3663 80.0852L66.1498 81.2761L63.9615 81.5441C63.862 80.3122 63.082 77.102 63.7964 76.1477C64.0349 75.8291 64.3388 75.6445 64.719 75.5397C66.2024 75.1318 68.3247 75.0395 69.9065 74.8505L79.0064 73.7102Z" fill="white"/>
<path d="M84.0429 65.7291C85.6322 65.5481 86.5888 66.9123 86.6129 68.3217C86.6225 68.8453 86.9023 69.7076 86.7052 70.1992C85.8578 70.6185 77.6005 71.448 75.9035 71.6935C74.3698 71.7962 73.2462 71.3037 72.9822 69.6961C72.4639 66.5413 75.7321 66.742 77.7272 66.4968L84.0429 65.7291Z" fill="#1C1C1C"/>
<path d="M84.0137 66.241C86.2 66.0766 86.0799 68.3175 86.3033 69.8722C82.9195 70.2459 79.0794 70.754 75.6883 71.2387C73.9466 71.4342 72.93 69.6996 73.6917 68.2009C74.1341 67.3311 75.3792 67.2694 76.2471 67.1789C78.8377 66.9088 81.4232 66.5112 84.0137 66.241Z" fill="#B5FE28"/>
<path d="M83.6428 67.7779C84.0369 67.703 84.206 67.7063 84.4565 68.0394C84.5085 68.3254 84.5269 68.1923 84.4053 68.4534C83.9951 68.7998 82.0542 68.9328 81.428 69.0113L75.8235 69.691C75.4272 69.7525 75.3335 69.752 75.0764 69.4333C75.0076 69.1251 74.9914 69.2672 75.1072 68.9897C75.4485 68.6828 77.6963 68.517 78.3049 68.4437C80.0854 68.2308 81.8645 68.0089 83.6428 67.7779Z" fill="#1C1C1C"/>
<path d="M85.6395 98.6958C85.9977 98.6241 86.2694 98.6028 86.6319 98.6219C87.2303 98.9207 87.3922 101.225 87.1095 101.845C86.7638 102.22 81.8771 102.726 81.0567 102.835C77.796 103.28 74.5316 103.706 71.2656 104.114C70.993 104.147 70.3362 104.197 70.2387 103.854C70.0186 103.08 69.6415 101.656 69.9964 100.896C70.2967 100.596 79.1634 99.5418 80.3067 99.3924L83.5902 98.9529C84.171 98.8709 85.0726 98.7097 85.6395 98.6958Z" fill="#F2F2F2"/>
<path d="M71.5257 60.53C73.6982 60.2964 74.6995 62.9654 73.5034 64.5035C72.7074 65.5276 70.6464 65.49 69.3983 65.6406L63.6644 66.3495C63.1093 66.3924 62.2248 66.669 61.7604 66.4189C61.5263 66.1585 61.5525 66.0646 61.4902 65.7347C60.668 61.3776 62.4686 61.6182 66.028 61.1943L71.5257 60.53Z" fill="#1C1C1C"/>
<path d="M71.0378 61.0395C71.6575 60.9677 72.108 60.9171 72.6563 61.2783C73.4093 61.7382 73.7227 62.9435 73.4078 63.7443C72.8943 65.0491 70.4052 65.0571 69.1727 65.2117L64.0247 65.8587C63.3464 65.9464 62.6689 66.0408 61.9926 66.142C61.9381 65.7563 61.8861 65.3704 61.8363 64.9841C61.698 63.9079 61.5218 62.4898 62.9028 62.0935C63.8988 61.8077 65.0804 61.747 66.1229 61.626L71.0378 61.0395Z" fill="white"/>
<path d="M71.1219 62.5061C71.5999 62.4326 71.9764 62.5053 71.9682 63.0843C71.552 63.5297 69.3152 63.6527 68.5867 63.739L64.1042 64.3004C63.7615 64.3226 63.5658 64.3595 63.3077 64.1147C63.2688 63.862 63.2621 63.8791 63.3696 63.6487C63.4927 63.541 63.6263 63.4763 63.7891 63.4578C66.1953 63.1831 68.7201 62.7245 71.1219 62.5061Z" fill="#F2F2F2"/>
<path d="M89.0625 66.1687C90.1004 65.9995 91.0789 66.7024 91.2503 67.7398C91.4209 68.7771 90.72 69.7572 89.6829 69.9301C88.6428 70.1035 87.6599 69.4001 87.4885 68.3601C87.3172 67.3201 88.0225 66.3383 89.0625 66.1687Z" fill="#B5FE28"/>
<path d="M60.2315 78.6267C61.2591 78.4392 62.244 79.1204 62.4318 80.148C62.6196 81.1756 61.9392 82.1607 60.9118 82.3489C59.8837 82.5379 58.8973 81.8567 58.7094 80.8284C58.5214 79.8001 59.2031 78.8142 60.2315 78.6267Z" fill="#F2F2F2"/>
<path d="M58.3701 63.1702C59.2513 63.0588 60.0901 63.5796 60.3813 64.4186C60.571 64.9652 60.4984 65.5686 60.1846 66.0546C59.8707 66.5405 59.3506 66.8549 58.7744 66.9068C57.7536 66.9987 56.8474 66.256 56.7371 65.237C56.6268 64.2181 57.3533 63.2987 58.3701 63.1702Z" fill="#F2F2F2"/>
<path d="M78.4973 85.201C78.7573 85.1505 78.8898 85.1424 79.1206 85.2603C79.6267 85.7921 79.9203 87.87 79.5461 88.5672C79.4128 88.8155 78.4028 88.899 78.0724 88.9408C77.8842 88.9452 77.5239 88.9481 77.4118 88.787C76.9431 88.1095 76.7182 86.2169 77.121 85.5028C77.2184 85.3299 78.2636 85.2318 78.4973 85.201Z" fill="#F2F2F2"/>
<path d="M73.8083 85.8309C74.0683 85.7804 74.2009 85.7723 74.4316 85.8902C74.9377 86.422 75.2314 88.4999 74.8571 89.1971C74.7238 89.4454 73.6678 89.4651 73.5076 89.0937C73.36 88.7515 72.6484 88.6786 72.6484 88.6786C72.6484 88.6786 72.0293 86.8468 72.4321 86.1327C72.5295 85.9598 73.5747 85.8617 73.8083 85.8309Z" fill="#F2F2F2"/>
<path d="M76.1338 90.041L76.2356 90.2424C76.7366 90.3149 77.9949 89.9092 78.0718 90.386C78.1765 91.0378 78.8606 93.5574 77.7913 93.7112C77.3188 93.7786 76.5161 93.8943 76.1301 93.7471C75.6995 93.3274 75.6226 91.407 75.5523 90.7441C75.6043 90.7126 75.6563 90.6812 75.7075 90.6489C76.0525 90.4321 76.0503 90.4006 76.1338 90.041Z" fill="#F2F2F2"/>
<path d="M76.3646 94.9334C76.7022 94.8426 77.1475 94.825 77.4486 95.0228C77.7093 95.6226 77.8221 96.555 77.8668 97.2047C77.9371 98.2264 77.6368 98.4468 76.733 98.5164C75.4271 98.9068 75.2169 97.8192 75.148 96.8084C75.0535 95.4329 74.8536 95.011 76.3646 94.9334Z" fill="#F2F2F2"/>
<path d="M73.2299 95.3931C73.5676 95.3023 73.603 95.3452 73.9041 95.543C74.1648 96.1428 74.2776 97.0752 74.3223 97.7249C74.3926 98.7466 74.0923 98.967 73.1885 99.0366C71.8826 99.427 71.6724 98.3394 71.6035 97.3286C71.7028 96.6371 72.0412 96.6325 72.16 96.4491C72.331 96.2633 72.7224 95.6495 73.2299 95.3931Z" fill="#F2F2F2"/>
<path d="M85.6992 105.283C85.8808 105.321 85.812 105.302 85.9709 105.441C86.0207 105.67 86.0368 105.565 85.9233 105.767C85.4011 106.079 82.1557 106.392 81.3259 106.501L72.7872 107.632C72.6137 107.582 72.5008 107.514 72.4199 107.36L72.5065 107.186C72.8605 106.944 73.7248 106.84 74.1621 106.792C77.9978 106.373 81.8686 105.674 85.6992 105.283Z" fill="#1C1C1C"/>
<path d="M80.6691 88.1831C80.475 87.3811 79.7997 85.0124 80.9833 84.8542L81.0968 84.8395C81.6469 84.7641 82.1867 84.592 82.6723 84.8278C82.8913 85.301 82.9836 85.8518 83.0553 86.3637C83.2135 87.4924 83.352 88.4658 81.8981 88.435C82.0614 88.1274 82.1486 87.8813 81.8219 87.6894C81.2843 87.6975 81.1071 87.8776 80.6691 88.1831Z" fill="#F2F2F2"/>
<path d="M85.3205 84.0272C85.5805 83.9767 85.7131 83.9686 85.9438 84.0865C86.4499 84.6183 86.7436 86.6961 86.3693 87.3934C86.236 87.6417 85.226 87.7252 84.8957 87.7669C84.7075 87.7713 84.3471 87.7743 84.235 87.6131C83.7663 86.9356 83.5414 85.0431 83.9443 84.329C84.0417 84.1561 85.0869 84.058 85.3205 84.0272Z" fill="#F2F2F2"/>
<path d="M88.7097 83.3182C88.9697 83.2677 89.1022 83.2596 89.333 83.3775C89.8391 83.9093 90.1328 85.9872 89.7585 86.6844C89.6252 86.9327 88.6152 87.0162 88.2849 87.058C88.0966 87.0623 87.7363 87.0653 87.6242 86.9042C87.1555 86.2267 86.9306 84.3341 87.3334 83.62C87.4308 83.4471 88.476 83.349 88.7097 83.3182Z" fill="#F2F2F2"/>
<path d="M92.0988 82.5428C92.3588 82.4923 92.4914 82.4842 92.7221 82.6021C93.2282 83.1339 93.5219 85.2118 93.1476 85.909C93.0143 86.1573 92.0043 86.2408 91.674 86.2826C91.4858 86.287 91.1254 86.2899 91.0134 86.1288C90.5446 85.4513 90.3198 83.5587 90.7226 82.8446C90.82 82.6717 91.8652 82.5736 92.0988 82.5428Z" fill="#F2F2F2"/>
<path d="M80.5554 94.2723C80.8154 94.2218 80.9479 94.2137 81.1787 94.3316C81.6848 94.8634 81.9785 96.9413 81.6042 97.6385C81.4709 97.8868 80.4609 97.9703 80.1306 98.0121C79.9423 98.0164 79.582 98.0194 79.4699 97.8583C79.0012 97.1808 78.7763 95.2882 79.1791 94.5741C79.2766 94.4012 80.3217 94.3031 80.5554 94.2723Z" fill="#F2F2F2"/>
<path d="M75.5525 90.7463C75.2193 90.3808 75.0874 89.7465 74.9102 89.2902C74.292 87.7001 73.0923 87.5405 71.7148 86.9999C71.5033 86.9172 71.5135 86.83 71.4761 86.666C71.5897 86.3517 71.5001 86.4777 71.7406 86.2646C72.2461 86.1716 73.3347 86.6147 73.7903 86.8564C75.1065 87.5551 75.71 88.6948 76.1341 90.0432C76.0506 90.4028 76.0528 90.4343 75.7078 90.6511C75.6565 90.6833 75.6045 90.7148 75.5525 90.7463Z" fill="#B5FE28"/>
<path d="M80.7232 88.1831C81.1612 87.8777 81.3384 87.6975 81.876 87.6895C82.2027 87.8813 82.1155 88.1274 81.9522 88.4351C79.5916 89.0283 80.1197 92.4539 79.6121 92.9299C79.3477 92.9395 79.4744 92.9629 79.2232 92.8325C79.0196 92.522 79.0657 91.7031 79.0767 91.3054C79.114 89.9885 79.7989 89.043 80.7232 88.1831Z" fill="#B5FE28"/>
<path d="M27.6494 129.02C29.4537 124.976 31.4199 120.861 32.6327 116.595C33.1914 114.63 33.6814 112.645 34.1899 110.666L36.4905 101.651C37.2712 98.4666 38.0874 95.0946 39.0819 91.9847C40.2548 88.212 42.1785 84.8246 43.6874 81.183C44.8385 78.4049 45.7757 75.4049 47.1107 72.718C48.1058 70.7155 49.9672 69.1483 51.6772 67.7637C51.7398 68.6993 51.9517 70.0501 52.0744 71.0104L52.8164 76.8031L55.0787 94.2706C54.3941 94.9173 53.7011 95.5553 52.9998 96.1837C52.384 95.2323 49.6076 90.6869 48.5127 90.6143L48.3988 90.7184C48.3983 90.8385 48.4257 91.067 48.5062 91.1527C49.4274 92.1319 50.1893 93.0702 50.9706 94.1673C51.5776 95.0125 52.0225 95.6666 52.5409 96.5872C51.5415 97.36 50.196 98.3531 49.1521 99.0665C48.6913 99.3976 47.5202 99.9007 47.7346 100.498C48.0206 100.699 48.2709 100.412 48.6425 100.161C50.2966 99.0423 51.7347 98.0052 53.3114 96.7469C55.7428 94.8067 58.5414 91.2259 61.2389 89.9544C62.0653 89.5648 65.5524 89.5846 66.594 89.5501C67.8277 90.3536 68.2125 91.0165 69.1402 92.0785C69.5981 92.6029 70.31 92.8541 70.9963 92.8255C72.3003 92.7721 72.8841 92.5992 73.7965 91.6998C73.7877 91.8902 73.7738 92.0814 73.7554 92.2711C73.4815 94.8851 69.9104 97.6339 67.6583 98.5523C66.9792 98.8285 65.4904 99.1793 65.1726 99.547C63.8793 101.042 61.7888 103.139 60.9945 104.875C60.2362 106.533 59.8044 108.715 59.2766 110.456C57.7936 115.517 54.8508 120.028 50.8164 123.425C50.6238 123.586 50.4997 123.706 50.4791 123.96C50.6123 124.174 50.5238 124.097 50.7542 124.2C51.4448 123.875 52.2876 123.031 52.8438 122.496C55.9963 119.465 58.4124 115.258 59.728 111.111C62.5959 112.991 63.8486 112.419 66.9425 112.104C66.3441 113.437 65.0343 115.061 64.4 116.516C62.5507 120.76 61.148 125.274 58.6334 129.195C57.7002 130.522 56.3348 132.083 55.0221 133.066C52.5264 134.932 51.9137 136.831 50.7364 139.662C43.9684 134.678 35.9924 130.482 27.6494 129.02Z" fill="white"/>
<path d="M50.9706 94.1673C51.5776 95.0125 52.0225 95.6666 52.5409 96.5872C51.5415 97.36 50.196 98.3531 49.1521 99.0665C49.1194 98.1693 50.5481 95.4073 50.9706 94.1673Z" fill="#F2F2F2"/>
<path d="M94.8042 65.4824C97.304 67.1978 98.5454 68.5743 100.509 70.8227L104.304 75.2123C107.315 78.692 110.803 81.6166 113.384 85.371C115.247 88.0817 116.983 91.3094 118.669 94.1725L123.366 102.004C124.564 103.984 125.926 106.297 127.238 108.188C128.681 110.267 130.483 112.594 132.084 114.556C132.01 114.821 131.931 115.137 131.849 115.394C130.225 116.484 126.897 118.025 125.031 118.926C119.321 121.686 113.732 123.877 108.163 126.949C106.098 126.103 104.11 125.139 102.399 123.682C99.48 121.194 97.4285 117.862 94.7779 115.127C93.7364 114.053 92.1858 113.286 90.9773 112.41C91.0117 111.652 91.1311 110.423 90.7642 109.769L90.6301 109.758C90.3086 110.334 90.3884 111.585 90.3862 112.302C88.2769 112.983 86.2554 113.233 84.1526 113.878C80.604 114.966 76.0359 117.824 72.244 116.4C71.3288 116.057 70.5922 114.694 71.2013 113.777C72.1089 112.411 74.6355 111.38 76.1656 110.831C76.9771 110.675 79.3801 110.413 80.3938 110.276L90.5672 108.918C93.647 108.508 96.4507 108.514 98.2847 105.52C98.7666 104.733 99.0215 104.167 99.231 103.259C100.13 104.771 100.584 106.068 101.435 107.801C103.346 111.698 106.185 115.765 109.925 118.104C109.962 118.127 110.047 118.104 110.091 118.096C110.422 117.63 109.642 117.167 109.288 116.915C108.006 116.006 106.805 114.755 105.815 113.546C104.323 111.685 103.045 109.662 102.005 107.515C101.116 105.644 100.505 103.785 99.2346 102.106C98.013 100.493 96.291 99.3932 94.7009 98.1678C94.2117 97.7906 93.2735 97.0597 92.7761 96.7528C89.6575 97.3783 84.1753 97.2523 81.9861 94.2633C81.617 93.7601 81.5012 93.1486 81.3745 92.5443C81.8308 93.1251 82.022 93.2928 82.8086 93.3961C83.689 93.5111 85.6028 93.0277 86.2525 92.4454C87.083 91.7006 87.146 89.8732 87.6565 88.6346C89.2547 88.1 92.8157 86.3385 94.2945 86.6696C97.8145 87.4584 101.274 90.2643 104.43 91.8309C105.848 92.5348 109.97 94.8844 111.219 95.1803C111.44 95.0961 111.363 95.1664 111.477 94.9818C111.322 94.5226 110.523 94.2062 110.073 93.9835C109.552 93.7286 109.035 93.4642 108.523 93.1896C106.556 92.2162 104.598 91.2823 102.756 90.0812C103.007 89.5231 103.265 88.9034 103.572 88.3798C104.001 87.5162 104.541 86.8395 104.981 86.0009C105.013 85.9415 104.912 85.6852 104.874 85.6163C104.124 85.4098 102.473 89.1254 102.244 89.8021C100.745 88.9393 99.1204 88.0912 97.6614 87.235C96.9099 82.1659 96.3584 77.0148 95.6502 71.9354C95.3513 69.7946 95.166 67.6173 94.8042 65.4824Z" fill="white"/>
<path d="M102.756 90.0812C103.007 89.5231 103.265 88.9034 103.572 88.3798C104.553 88.995 108.452 92.2477 108.523 93.1896C106.556 92.2162 104.598 91.2823 102.756 90.0812Z" fill="#F2F2F2"/>
<path d="M82.8841 28.156C82.8936 28.1543 82.9031 28.1527 82.9119 28.151C84.5342 27.9889 86.1573 28.4495 87.4522 29.4394C88.605 30.2929 89.4429 31.504 89.8348 32.8836C90.1724 34.065 90.5027 37.2394 90.6712 38.5633L96.9759 86.9635L95.9651 86.4347L91.1209 49.1889C90.7093 45.8517 90.2771 42.5172 89.8245 39.1854C89.5931 37.3728 89.4209 35.5638 89.0987 33.7506C88.6783 31.2052 86.3162 29.0938 83.7183 29.0662C82.1502 29.0495 80.2737 29.3337 78.6866 29.5066L69.2056 30.5772L59.8737 31.6018C58.4795 31.7523 56.4403 31.8838 55.1323 32.1605C52.79 32.7385 50.9689 35.0308 51.0223 37.4534C51.0584 39.0869 51.338 40.7421 51.5467 42.3663L57.1443 85.6503C57.3954 87.5685 57.7033 89.6442 57.8926 91.5558L57.0731 92.3512C56.949 91.7492 56.8629 90.756 56.7796 90.1188L56.179 85.5683L51.0425 45.7696C50.7702 43.6008 50.488 41.4291 50.2058 39.2614C49.9188 37.0559 50.0701 35.1647 51.5189 33.364C52.2853 32.4283 53.3096 31.7385 54.4648 31.3802C55.2534 31.1339 57.0059 30.9753 57.8706 30.8806L82.8841 28.156Z" fill="#F2F2F2"/>
<path d="M86.7354 88.8564C86.7749 88.8616 86.8064 88.8923 86.8409 88.9136C86.7632 89.2219 86.3648 90.3184 86.3948 90.5491C86.6116 92.2307 83.3728 93.2612 82.1988 92.5684C80.0264 89.8972 85.2281 89.2095 86.7354 88.8564Z" fill="white"/>
<path d="M70.2069 88.9458C71.3203 88.7246 73.1589 89.3999 73.3305 90.6575C73.3694 90.9388 73.2903 91.2244 73.1113 91.4456C72.62 92.0586 71.5661 92.1597 70.8368 92.2329C70.2815 92.2058 69.8948 92.0022 69.5437 91.5745C68.8601 90.741 68.3093 90.0752 67.4863 89.3743C68.3898 89.2102 69.2969 89.0674 70.2069 88.9458Z" fill="white"/>
</g>
<defs>
<clipPath id="clip0_923_65168">
<rect width="150" height="150" fill="white"/>
</clipPath>
</defs>
</svg>
