<svg width="150" height="150" viewBox="0 0 150 150" fill="none" xmlns="http://www.w3.org/2000/svg">
<g clip-path="url(#clip0_923_65008)">
<path d="M62.3201 21.2975C62.3136 21.2095 62.3114 21.2022 62.3136 21.0992C62.3394 19.9977 62.7927 18.9494 63.5775 18.1759C65.4757 16.2922 68.1264 17.125 70.5126 16.9303C72.6023 16.7599 71.3778 18.379 72.4928 19.3819C73.308 20.1148 74.9963 19.9393 76.0715 19.9358L79.6764 19.932C83.0243 19.9334 86.3935 19.9461 89.7436 19.9276C92.069 19.9147 91.634 17.6498 92.1708 17.0786C92.8425 16.7431 95.9692 17.0386 96.9154 16.9631C99.2262 16.7784 101.357 18.7459 101.377 21.083C101.448 21.8162 101.413 23.0474 101.413 23.8169L101.412 28.6937L101.426 33.3657C101.426 33.8548 101.456 35.1343 101.394 35.5743L101.366 35.7501C101.002 35.7427 100.623 35.7532 100.258 35.7579C95.1437 35.7087 94.8573 35.0031 95.0529 40.4606C95.0925 41.5622 95.4704 41.9248 96.4848 42.1257L96.5346 43.5244C97.0912 43.0432 97.6735 42.5221 98.2426 42.0619C99.3017 42.0618 100.378 42.0717 101.434 42.0571L102.217 42.0627L102.157 42.0758C101.875 42.1357 101.532 42.1129 101.421 42.2442L101.432 44.4893L101.445 45.499L101.384 45.6584C100.802 45.8052 99.4277 45.6258 98.707 45.7655C98.1759 45.8803 97.8573 46.0769 97.5351 46.5035C97.0905 47.0933 97.2055 51.6107 97.3498 52.2043C97.4618 52.6458 97.7446 53.0247 98.1364 53.257C98.7428 53.6143 100.584 53.485 101.401 53.4802L103.502 53.4664L103.776 53.4659L103.748 54.0305L103.783 54.2406C103.774 54.7917 103.765 55.2835 103.794 55.8329L103.769 56.2977C104.979 56.2973 106.189 56.2907 107.4 56.2782C108.076 56.2727 108.802 56.2163 109.472 56.3003C109.854 56.348 110.272 56.4456 110.561 56.715C111.267 57.3733 111.072 58.7272 111.071 59.6058C111.07 60.1003 111.023 60.5932 110.642 60.9505C109.669 61.8628 105.486 61.3025 104.023 61.4677C107.605 65.8374 111.044 70.324 114.616 74.6954C116.944 77.5443 117.698 80.2328 118.997 83.5834L123.462 94.9689C124.239 96.9587 125.098 99.2869 125.967 101.209C126.215 101.756 127.762 103.996 128.199 104.654C129.197 104.006 130.347 103.223 131.365 102.637C132.178 103.473 133.133 104.793 133.84 105.765C136.706 109.703 139.68 113.425 142.755 117.196L147.088 122.616C147.988 123.74 149.188 125.109 150.001 126.237V144.833V145.895H139.408H126.554H118.287H117.925H117.187H45.8391H36.8158H36.3523H32.5827H21.1678H16.2815H4.24268C4.32781 143.05 5.24015 139.474 6.59371 137.03C9.0605 132.577 12.5322 128.172 15.7095 124.177C18.9012 120.198 22.0634 116.196 25.1958 112.171C27.1795 109.603 29.0679 106.943 31.0824 104.395C31.5494 103.804 32.0024 103.141 32.5477 102.623C33.0963 102.858 35.1975 104.219 35.6949 104.592C36.4434 103.45 37.3301 102.137 37.9614 100.946C38.242 100.416 38.6327 99.2943 38.8551 98.7091L40.227 95.1483L44.8567 83.3322C45.5706 81.5042 46.4298 79.0735 47.3063 77.3766C48.1909 75.6641 50.3421 73.358 51.6131 71.7357C54.3115 68.2919 57.2017 64.9118 59.9002 61.4727C60.0048 55.0998 59.9091 48.4383 59.9118 42.0433C57.1291 42.0236 54.3288 42.0742 51.5479 42.0296C51.1813 41.8219 50.8172 41.4578 50.4968 41.1664L50.736 41.0781C50.3586 40.6563 50.2918 40.3612 50.3035 39.7879C50.3571 37.1433 50.2901 34.4941 50.3331 31.853C50.3403 31.4086 50.6859 30.7998 51.1743 30.7593C52.4416 30.654 53.7554 30.6977 55.0325 30.6999L62.4183 30.705L62.3456 30.4741C62.2085 30.1273 62.2557 22.0064 62.3201 21.2975Z" fill="#1C1C1C"/>
<path d="M68.2667 100.935L95.6067 100.932C96.7156 102.607 97.6663 104.325 98.8272 105.988C101.071 109.202 104.101 111.804 107.641 113.498C109.318 114.301 109.321 114.894 110.331 116.208C109.679 116.626 108.6 117.31 108.023 117.808C109.063 119.836 110.169 121.408 111.405 123.314L115.159 129.177C117.798 133.256 120.165 137.436 123.286 141.175C124.436 142.553 125.532 143.966 126.752 145.289C126.875 145.427 127.034 145.611 127.063 145.788L126.554 145.895H118.287H117.925H117.187H45.8391H36.8158L36.8752 145.809C37.3786 145.087 38.3594 144.027 38.9569 143.318C40.0561 142.004 41.1228 140.663 42.156 139.296C44.8222 135.746 47.0945 131.95 49.5062 128.226C50.8148 126.205 52.1009 124.169 53.3643 122.119C54.3738 120.501 55.1151 119.483 55.9365 117.748C55.2239 117.151 54.3918 116.63 53.6034 116.136C55.2183 113.746 55.6089 113.858 58.0844 112.498C62.8373 109.887 65.5603 105.458 68.2667 100.935Z" fill="#1C1C1C"/>
<path d="M68.2667 100.935L95.6067 100.932C96.7156 102.607 97.6663 104.325 98.8272 105.988C101.071 109.202 104.101 111.804 107.641 113.498C109.318 114.301 109.321 114.894 110.331 116.208C109.679 116.626 108.6 117.31 108.023 117.808C109.063 119.836 110.169 121.408 111.405 123.314L115.159 129.177C117.798 133.256 120.165 137.436 123.286 141.175C124.436 142.553 125.532 143.966 126.752 145.289C126.875 145.427 127.034 145.611 127.063 145.788L126.554 145.895H118.287C118.088 139.435 115.774 131.983 112.375 126.421C111.658 125.247 110.854 124.088 110.062 122.961C109.482 122.136 108.779 121.363 108.179 120.55C107.209 119.267 106.392 117.858 105.216 116.744C103.922 115.483 102.55 114.709 101.145 113.636C100.854 113.413 100.066 112.559 99.7339 112.243C98.5613 111.112 97.2114 110.181 95.7385 109.485C91.8669 107.664 87.928 107.979 83.9985 109.375C85.5659 108.359 87.3208 107.667 89.1599 107.34C89.9333 107.21 90.8247 107.134 91.5732 106.951L91.6655 106.928C91.585 106.917 91.5044 106.906 91.4238 106.897C88.3132 106.535 84.9251 107.999 82.5293 109.891C80.042 107.371 76.6575 105.454 73.0149 105.538C72.6991 105.546 72.3497 105.535 72.0508 105.638C72.2268 105.725 73.8215 105.857 74.1819 105.912C76.9695 106.367 79.5564 107.647 81.6086 109.586C75.208 106.632 67.6328 107.094 62.4779 112.1C60.7511 113.777 59.9411 115.073 58.4643 116.848C52.8146 123.64 48.3948 131.135 46.719 139.908C46.3239 141.904 45.9031 143.828 45.8391 145.895H36.8158L36.8752 145.809C37.3786 145.087 38.3594 144.027 38.9569 143.318C40.0561 142.004 41.1228 140.663 42.156 139.296C44.8222 135.746 47.0945 131.95 49.5062 128.226C50.8148 126.205 52.1009 124.169 53.3643 122.119C54.3738 120.501 55.1151 119.483 55.9365 117.748C55.2239 117.151 54.3918 116.63 53.6034 116.136C55.2183 113.746 55.6089 113.858 58.0844 112.498C62.8373 109.887 65.5603 105.458 68.2667 100.935Z" fill="white"/>
<path d="M117.187 145.895C117.148 144.363 117.131 142.822 117.009 141.295C116.977 140.899 116.796 139.514 116.884 139.25C117.475 140.176 117.926 144.681 117.925 145.895H117.187Z" fill="white"/>
<path d="M46.1748 145.894C46.3685 143.755 46.6226 141.563 47.3683 139.533C47.4103 141.421 46.9532 143.869 46.9546 145.894H46.1748Z" fill="white"/>
<path d="M96.4978 126.284L96.4209 126.22C95.2527 125.259 93.9907 125.183 92.5537 124.975C91.866 124.876 91.1614 124.69 90.4692 124.592C88.7466 124.417 87.0334 124.251 85.3093 124.401C83.5713 124.551 82.4734 125.331 80.9836 126.193L80.9419 126.133C81.2554 125.788 81.6721 125.524 82.053 125.258C83.958 123.928 85.9458 123.361 88.258 123.244C91.8301 123.064 94.6206 125.438 97.8462 126.327C97.9268 126.349 98.0066 126.374 98.0871 126.397C97.3965 126.638 96.7563 126.993 96.1067 127.33L95.8445 126.926C96.1675 126.726 96.2649 126.574 96.4978 126.284Z" fill="#747572"/>
<path d="M102.26 114.941C104.672 116.596 105.974 117.929 107.571 120.387C108.846 122.352 111.698 125.177 112.374 127.4L112.257 127.452C110.95 125.384 109.7 123.766 108.003 121.999C107.226 121.189 106.199 120.274 105.518 119.404C104.368 117.934 103.428 116.441 102.26 114.941Z" fill="white"/>
<path d="M79.8825 117.98C79.8817 118.025 79.8817 118.071 79.881 118.115C79.2006 119.948 77.4757 122.447 75.7729 123.358C74.5885 123.993 72.951 123.628 71.9477 123.343C71.913 123.334 71.6952 123.239 71.6733 123.23C71.7265 123.132 73.7873 122.779 74.2106 122.596C75.7392 121.933 77.3739 120.982 78.5641 119.806C79.0402 119.336 79.4123 118.574 79.8363 118.038L79.8825 117.98Z" fill="#747572"/>
<path d="M73.7981 110.406C75.3926 110.279 78.1289 110.62 79.5974 111.3C76.0891 110.611 72.2155 111.059 68.8713 112.278C66.9298 113.076 66.4365 113.563 64.7705 114.454C67.0069 112.033 70.5551 110.683 73.7981 110.406Z" fill="#747572"/>
<path d="M91.2114 113.537C92.7649 113.553 94.6209 114.266 95.9802 114.96C98.6865 116.344 100.077 118.663 101.615 121.126C102.086 121.88 102.872 122.958 103.134 123.799C102.855 123.641 101.838 121.836 101.579 121.45C98.7825 117.28 95.8755 115.231 91.2114 113.537Z" fill="#747572"/>
<path d="M89.469 110.48C90.2117 110.409 91.429 110.575 92.1519 110.765C94.7864 111.458 96.6526 113.024 98.012 115.335C97.47 114.827 96.917 114.286 96.334 113.83C93.0432 111.168 90.5669 110.854 86.5166 110.992L86.5825 110.912C87.6987 110.657 88.3279 110.551 89.469 110.48Z" fill="#747572"/>
<path d="M72.1442 108.208C73.2683 108.09 74.6877 108.206 75.8039 108.338C74.9521 108.439 73.7238 108.4 72.7608 108.496C69.1825 108.857 66.5997 110.045 63.6803 111.999C62.9121 112.516 62.221 113.153 61.4722 113.713C64.3304 110.508 67.8191 108.549 72.1442 108.208Z" fill="white"/>
<path d="M76.2913 113.189C77.0559 113.151 77.8902 113.119 78.6489 113.219C75.3054 113.766 73.3535 114.243 70.5361 116.352C70.0959 116.704 69.6118 117.156 69.1855 117.536C70.812 114.81 73.1589 113.482 76.2913 113.189Z" fill="#747572"/>
<path d="M82.751 112.922C82.8535 113.007 82.8791 113.049 82.9531 113.155C84.47 115.348 84.3176 118.999 83.8144 121.551C83.769 121.646 83.8035 121.594 83.6936 121.694C83.6899 121.688 83.7222 118.96 83.717 118.577C83.6921 116.53 83.2805 114.869 82.751 112.922Z" fill="#747572"/>
<path d="M88.4297 115.54C90.6855 115.199 93.2168 116.343 93.9983 118.587C93.6108 118.368 93.0007 117.718 92.6074 117.387C91.1433 116.157 90.1472 116 88.4297 115.54Z" fill="#747572"/>
<path d="M112.374 127.4C112.5 127.606 112.669 127.843 112.622 128.074C112.422 127.939 112.353 127.685 112.257 127.452L112.374 127.4Z" fill="#1C1C1C"/>
<path d="M62.3201 21.2975C62.3136 21.2095 62.3114 21.2022 62.3136 21.0992C62.3394 19.9977 62.7927 18.9494 63.5775 18.1759C65.4757 16.2922 68.1264 17.125 70.5126 16.9303C72.6023 16.7599 71.3778 18.379 72.4928 19.3819C73.308 20.1148 74.9963 19.9393 76.0715 19.9358L79.6764 19.932C83.0243 19.9334 86.3935 19.9461 89.7436 19.9276C92.069 19.9147 91.634 17.6498 92.1708 17.0786C92.8425 16.7431 95.9692 17.0386 96.9154 16.9631C99.2262 16.7784 101.357 18.7459 101.377 21.083C101.448 21.8162 101.413 23.0474 101.413 23.8169L101.412 28.6937L101.426 33.3657C101.426 33.8548 101.456 35.1343 101.394 35.5743L101.366 35.7501C101.002 35.7427 100.623 35.7532 100.258 35.7579C95.1437 35.7087 94.8573 35.0031 95.0529 40.4606C95.0925 41.5622 95.4704 41.9248 96.4848 42.1257L96.5346 43.5244C97.0912 43.0432 97.6735 42.5221 98.2426 42.0619C99.3017 42.0618 100.378 42.0717 101.434 42.0571L102.217 42.0627L102.157 42.0758C101.875 42.1357 101.532 42.1129 101.421 42.2442L101.432 44.4893L101.445 45.499L101.384 45.6584C100.802 45.8052 99.4277 45.6258 98.707 45.7655C98.1759 45.8803 97.8573 46.0769 97.5351 46.5035C97.0905 47.0933 97.2055 51.6107 97.3498 52.2043C97.4618 52.6458 97.7446 53.0247 98.1364 53.257C98.7428 53.6143 100.584 53.485 101.401 53.4802L103.502 53.4664L103.776 53.4659L103.748 54.0305L103.783 54.2406C103.774 54.7917 103.765 55.2835 103.794 55.8329L103.769 56.2977C104.979 56.2973 106.189 56.2907 107.4 56.2782C108.076 56.2727 108.802 56.2163 109.472 56.3003C109.854 56.348 110.272 56.4456 110.561 56.715C111.267 57.3733 111.072 58.7272 111.071 59.6058C111.07 60.1003 111.023 60.5932 110.642 60.9505C109.669 61.8628 105.486 61.3025 104.023 61.4677L103.999 61.3655C103.684 61.2192 103.514 61.4226 103.044 61.2746C102.606 61.2036 101.935 61.2353 101.47 61.2448L101.263 61.3485L101.396 61.3698C101.507 63.172 101.412 65.9493 101.415 67.8276L101.423 82.3904C100.347 81.7232 97.9707 80.7081 96.7512 80.7199L96.5264 80.7125L96.5505 80.6474L96.5395 69.9992C89.6665 70.1418 82.7026 69.9296 75.8179 70.01C72.9783 70.0431 69.9868 70.076 67.1554 70.0028C67.1571 73.4321 67.2488 77.3239 67.1432 80.7228C67.0503 80.7711 67.0513 80.7894 66.9614 80.7909C66.6931 80.7697 66.355 80.8744 66.0808 80.9293C64.4981 81.2464 63.6048 81.6807 62.281 82.5288C62.2092 77.8775 62.2688 73.0949 62.2694 68.4313L62.2721 42.0382L68.5098 42.0499C69.4577 42.0516 70.6265 42.0981 71.5555 41.9815C72.0033 41.9252 72.2765 41.4309 72.4993 41.0699C72.6306 38.5281 72.5602 34.5684 72.5103 31.98C72.2388 31.5187 71.553 30.5734 70.978 30.5113C70.0405 30.4101 69.0362 30.4522 68.0882 30.455L62.3456 30.4741C62.2085 30.1273 62.2557 22.0064 62.3201 21.2975Z" fill="white"/>
<path d="M75.5102 61.8556C75.27 60.8788 75.0664 57.8594 74.2226 57.3855C74.104 57.4004 73.7707 57.4498 73.7114 57.3083C73.232 56.1642 72.9573 54.487 72.9166 53.2479C72.8697 51.8178 73.6572 51.314 74.5259 50.478C74.5603 49.9584 73.8916 50.1007 73.562 49.6805C73.2968 49.5506 73.5612 48.7314 73.5158 48.6881C72.8065 48.0091 73.321 47.7843 73.3218 47.2109C73.1367 46.8844 72.8665 46.4325 73.232 46.1012C73.696 45.8608 73.0623 44.984 73.3532 44.785C74.3728 44.0875 73.5971 43.8502 74.0088 43.09C74.1003 42.9206 74.5552 42.8108 74.6928 42.5265C74.695 42.3768 74.6936 42.1546 74.706 42.0202C74.7756 41.2442 75.3462 41.4377 75.7688 41.1525C75.8999 41.0638 76.0852 40.4767 76.3467 40.2965C76.5832 40.1337 76.844 40.0344 77.1318 40.1029C77.8906 40.2835 77.8269 39.5365 78.4575 39.283C78.9768 39.074 79.2492 39.403 79.7077 39.5036C79.8498 39.5347 80.2981 39.247 80.542 39.24C80.9477 39.2285 81.1616 39.523 81.4875 39.7981C81.9826 39.7585 82.4712 39.6663 82.6594 40.2776C82.6623 40.7614 83.6072 40.8694 83.6526 41.0912C83.8056 41.8454 83.9939 41.8725 84.4304 42.4251C84.4934 42.7551 84.4194 42.9732 84.352 43.3038C85.1738 44.0911 84.8515 43.9848 84.8918 45.0129C84.8984 45.1783 85.7099 45.7743 85.1936 46.3352C84.8069 46.7552 85.0508 47.009 85.1291 47.4675C85.165 47.6815 85.0009 47.8891 84.8486 48.0272C84.3315 48.4189 84.7893 48.8223 84.549 49.1861C84.3579 49.4747 84.0173 49.5566 83.7932 49.9538C83.7903 50.0949 83.7639 50.2415 83.9009 50.3292C84.9673 51.014 85.5232 51.9268 86.2248 52.9741C86.747 52.7915 87.8515 52.1854 88.2807 52.6317C88.2829 53.0199 87.4143 53.6888 87.0722 54.0553C87.0239 54.7699 87.5278 55.4605 87.9189 55.9965C88.592 54.9908 89.5281 53.5284 90.0429 52.4549C89.925 51.1575 90.1169 49.9835 90.8025 48.8243C90.8706 48.7937 91.1313 48.8009 91.1526 48.7203C91.3811 47.8495 91.1862 48.0614 91.8784 47.517C91.948 47.2495 92.0827 46.7937 92.1091 46.535C91.9362 46.4122 91.8022 46.3491 91.7231 46.1567L91.8008 46.0373C92.186 45.9644 93.0664 46.179 93.4721 46.2627C93.4707 46.7768 93.4033 47.349 93.4289 47.8243C93.552 47.9629 93.6128 48.008 93.7541 48.125C93.8061 48.9395 94.0632 48.5643 94.2947 48.9521C94.2287 49.2282 93.9944 49.557 93.8376 49.8086C94.3488 50.6225 94.0068 51.988 93.2077 52.5403C92.969 53.7735 92.8906 53.757 91.6616 53.5481C91.113 55.1455 90.5915 56.9107 89.8576 58.4241C88.0969 62.0582 85.9751 58.82 84.6714 57.0523C84.593 57.2044 84.3308 57.7229 84.3022 57.8952C84.2107 58.5737 83.8642 61.4443 84.0627 61.894C84.76 63.4718 85.187 65.0702 85.5129 66.7745L86.7258 66.7848C86.7126 66.1183 86.7236 65.5281 86.7448 64.8652C87.5212 64.8121 88.9055 64.8219 89.6723 64.8844C89.7331 65.5042 89.5559 66.2983 89.8737 66.6935C90.1206 66.7742 90.0005 66.7732 90.2451 66.7036C90.3557 66.1467 89.925 62.1865 89.8576 61.3792C90.6098 61.3596 91.3803 61.375 92.1347 61.3811C92.0175 62.8258 91.8154 64.9253 91.7136 66.4278C91.7033 66.581 91.8828 66.7076 91.9949 66.7844C92.2549 66.7642 92.1479 66.8143 92.3303 66.6377C92.4189 65.8924 92.2527 64.8889 92.3699 64.0703C92.4695 63.3727 92.8232 62.8007 92.9287 62.1556C92.9887 61.788 92.8188 61.9476 93.0964 61.6158C93.3271 61.5495 93.311 61.5564 93.5461 61.6145C93.6552 61.7313 93.7329 61.8392 93.7102 62.0331C93.6487 62.575 94.146 63.2152 94.2309 63.6948C94.395 64.6165 94.3159 65.8453 94.2903 66.7927C95.5815 66.7804 96.8735 66.7764 98.1648 66.7805L98.1684 68.8706L96.7761 68.8575C96.7109 72.793 96.8237 76.7788 96.7512 80.7199L96.5264 80.7125L96.5505 80.6474L96.5395 69.9992C89.6665 70.1418 82.7026 69.9296 75.8179 70.01C72.9783 70.0431 69.9868 70.076 67.1554 70.0028C67.1571 73.4321 67.2488 77.3239 67.1432 80.7228C67.0503 80.7711 67.0513 80.7894 66.9614 80.7909C66.8739 80.0021 66.9316 77.7014 66.932 76.8308L66.9268 68.8756C66.4741 68.8636 65.9966 68.8684 65.5415 68.8655L65.541 66.7823C68.3152 66.7696 71.0894 66.7716 73.8637 66.7882C74.1289 64.8213 74.7031 63.6433 75.5102 61.8556Z" fill="#1C1C1C"/>
<path d="M67.1583 68.8535L96.5395 68.8723L96.5395 69.9992C89.6665 70.1418 82.7026 69.9296 75.8179 70.01C72.9783 70.0431 69.9868 70.076 67.1554 70.0028L67.1583 68.8535Z" fill="#D9DBD5"/>
<path d="M77.7612 40.4436C77.9897 40.0266 78.1545 39.7031 78.5954 39.4749C79.0027 39.4158 79.3308 39.7455 79.6032 39.7527C80.6404 39.7803 80.3862 38.924 81.3369 40.0757C81.6394 40.0426 81.865 39.9868 82.1484 40.0823C82.407 40.2987 82.6589 40.8058 82.7402 40.8547C83.3913 41.2457 83.5122 41.0867 83.6741 41.9799C83.8374 42.1751 83.9546 42.2235 84.1714 42.3504C84.0886 43.707 84.1904 43.0016 84.6767 44.1292C84.7214 44.2339 84.6445 44.992 84.6262 45.1998C85.2561 45.6786 85.1484 46.0269 84.706 46.5828C84.5244 47.2814 85.3916 47.3076 84.3706 48.1775C84.2864 48.4478 84.2622 48.8931 84.2344 49.1884C83.9428 49.2998 83.855 49.3809 83.6118 49.5809C83.5774 49.784 83.5781 49.8255 83.581 50.033L83.4697 50.0994C82.8039 49.9089 82.136 49.6818 81.4607 49.5546C81.23 49.542 81.1311 49.5541 80.9223 49.4487C80.74 49.2253 80.7803 49.3469 80.7707 49.082C80.9531 48.785 80.8718 48.8836 81.219 48.7113C82.6714 47.9466 82.719 46.3673 82.7615 44.9271C82.7798 44.2896 82.5359 43.9633 83.1951 43.9211L83.2222 43.8261C83.1203 43.6875 82.5498 43.4222 82.2392 43.085C81.7595 42.5635 81.3523 42.322 80.6609 42.3252L80.2456 41.7635C79.7292 41.8542 79.4641 41.8328 78.9404 41.786C78.7961 42.0415 78.8012 42.2059 78.7236 42.4881C78.6738 42.6698 78.1457 42.7985 78.115 42.9272C77.9626 43.5578 78.3186 43.4308 77.655 43.8943C77.5334 44.3005 77.6931 44.4644 77.4953 44.7303C77.05 44.8724 76.3945 44.0651 76.0107 44.8573C75.8826 45.1221 75.8987 45.62 76.0078 45.8897C76.4114 46.8886 78.0154 45.8301 77.3159 49.4507C76.574 49.7614 75.7229 50.0462 74.9524 50.3465L74.8425 50.2995L74.7612 49.9593C74.436 49.7683 73.8398 49.8635 73.7724 49.4227C73.7073 48.9969 73.916 48.6798 73.5608 48.343C73.3205 48.1154 73.4853 47.6771 73.56 47.4365L73.5937 47.3298C73.5403 47.0044 73.3725 46.8312 73.1768 46.5594C73.3601 46.3497 73.7146 46.0097 73.6318 45.7065C73.236 44.2505 74.6499 44.9529 74.1291 43.5155C74.1972 43.1448 74.6213 42.9298 74.9231 42.7421C74.9143 41.8089 74.9238 41.5729 75.9609 41.523C76.3821 40.489 76.5556 40.1419 77.7612 40.4436Z" fill="#131212"/>
<path d="M81.219 48.7113C81.4035 48.9454 81.6621 49.2618 81.4607 49.5546C81.23 49.542 81.1311 49.5541 80.9223 49.4487C80.74 49.2253 80.7803 49.3469 80.7707 49.082C80.9531 48.785 80.8718 48.8836 81.219 48.7113Z" fill="#131212"/>
<path d="M80.8762 49.6699C82.8706 50.0727 83.8989 50.2258 85.1682 51.8368C84.6306 52.1144 83.1174 52.916 82.7615 53.3299C82.4575 53.6837 82.3953 54.1246 81.8511 54.5851C80.6484 55.6015 79.4106 56.588 78.1736 57.5602C77.5913 56.2602 77.4675 54.9927 76.9263 53.6502L76.8589 53.6389C76.8098 53.982 76.9123 54.1815 77.0229 54.5128C77.1672 54.9285 77.2925 55.3476 77.4221 55.7683C76.2195 56.2424 75.0205 56.7261 73.8259 57.2191C73.4817 55.8352 72.7937 53.3691 73.3674 52.0654C73.9629 50.7116 75.9272 50.2606 77.1892 49.7443C78.3567 51.026 80.9084 52.8034 80.8762 49.6699Z" fill="#F2F2F2"/>
<path d="M65.7531 66.9609L97.9481 66.9808L97.9488 68.6199C97.5057 68.7617 92.0879 68.6586 91.1102 68.6587L75.4627 68.6623C72.2235 68.6441 68.9839 68.6548 65.7446 68.6946L65.7531 66.9609Z" fill="white"/>
<path d="M79.1081 42.0488C79.8566 42.2559 79.9584 41.8158 80.6754 42.5534C80.6747 42.5522 81.2431 42.5812 81.2797 42.6408C81.5946 43.1533 81.6715 43.132 82.2179 43.2487C82.3366 43.4572 82.3446 43.4724 82.4157 43.7009C82.2113 43.8876 81.9748 43.561 81.4474 43.7952C81.703 43.8582 82.4757 44.0245 82.4904 44.3791C82.5468 45.7808 82.4582 48.2065 80.7187 48.5883C79.8156 48.7865 78.8722 48.0959 78.1859 47.6053C78.7338 48.4952 79.0026 48.8526 79.9269 49.3783L80.644 49.5432C80.6527 49.9644 80.726 50.6143 80.3986 50.9175C79.4889 51.7608 78.0087 50.3056 77.4381 49.6921C77.7121 49.0115 77.7677 47.8609 77.6637 47.1719C77.5253 46.028 77.0602 46.4309 76.33 46.0271C76.0356 45.8646 76.1469 45.0058 76.4083 44.7299C76.8361 44.6058 77.0302 44.908 77.4682 45.1264C77.9296 44.3967 78.2716 43.4396 78.8026 42.7485C79.0458 42.4316 79.0202 42.4958 79.1081 42.0488Z" fill="white"/>
<path d="M79.6069 46.583C80.0896 46.6026 81.1721 46.5578 81.4724 46.8619C81.4885 47.1004 81.4717 47.0399 81.3201 47.2895C80.5063 47.7872 79.9219 47.446 79.6069 46.583Z" fill="#1C1C1C"/>
<path d="M79.9819 46.8203C80.3818 46.8622 80.8579 46.7778 81.1399 46.9948L81.0835 47.266C80.5869 47.32 80.2214 47.3194 79.9819 46.8203Z" fill="#E6E6E4"/>
<path d="M80.9265 44.5098C81.1997 44.7337 81.4282 45.6303 81.2751 46.0175C81.1125 46.1913 81.0459 46.1824 80.813 46.2253C80.6826 46.0899 80.709 46.1698 80.7002 45.9939C81.6377 45.7678 80.6899 45.3665 80.9265 44.5098Z" fill="#1C1C1C"/>
<path d="M79.2038 43.7492C79.488 43.7272 79.8879 43.6457 80.0549 43.9194C79.8616 44.0374 79.7136 43.9877 79.4814 43.9606C79.2375 44.0646 79.0969 44.1729 78.8472 44.0634C78.9497 43.855 78.9687 43.8957 79.2038 43.7492Z" fill="#1C1C1C"/>
<path d="M76.4199 45.0599C77.0088 45.0297 77.1553 45.2952 77.1838 45.8167L77.0286 45.8021C76.7781 45.3848 76.866 45.3375 76.4199 45.0599Z" fill="#1C1C1C"/>
<path d="M77.9646 57.7213C77.7595 57.8776 77.394 58.1291 77.3039 58.3555L77.4036 58.4417C77.9836 58.1585 81.2231 55.3636 81.9563 54.7713C82.6433 54.2158 82.6829 53.3807 84.01 52.7832C84.0935 53.0131 84.0876 53.0961 84.251 53.2505L84.1755 53.3973C84.4238 53.5698 85.1877 53.4511 85.5305 53.419C85.5459 53.6097 85.5378 53.7898 85.6118 53.9545C85.6858 54.1259 85.6418 54.0911 85.7686 54.1966L85.5928 54.2016C85.5166 54.3793 85.5444 54.2889 85.6243 54.5471C85.3152 54.7054 83.9097 55.1139 83.5149 55.2356C81.7966 57.0902 80.2205 59.7259 78.2173 61.2115C76.5085 62.4793 75.0012 58.2307 74.5347 57.1719C75.467 56.7958 76.3958 56.4116 77.3208 56.0194C77.5391 56.5852 77.7537 57.1525 77.9646 57.7213Z" fill="white"/>
<path d="M84.3191 55.2393C84.4099 55.2502 84.3528 55.2354 84.4729 55.3298C84.831 56.7969 84.2305 56.8408 84.0371 57.9855C83.8606 59.0316 83.8503 60.5533 83.7851 61.6407C81.2041 62.3584 78.3352 62.2634 75.7205 61.7462L75.4927 60.5522C75.4275 60.1645 75.3674 59.7761 75.311 59.387C75.6758 60.1054 76.0537 60.9488 76.7495 61.3822C77.9316 62.1006 78.875 61.1198 79.6052 60.2958C80.8613 58.8782 81.9863 57.3859 83.1948 55.9326C83.5566 55.4976 83.7705 55.359 84.3191 55.2393Z" fill="#F2F2F2"/>
<path d="M90.916 48.96C91.4543 49.2901 90.2429 52.3809 90.5571 53.0884C90.6816 53.3676 90.9585 53.4445 91.2207 53.5411L91.3188 53.5763C91.2874 54.3195 89.9565 57.6947 89.5691 58.498C88.1819 61.373 86.3662 58.9116 85.3101 57.5691C85.0676 57.268 84.9043 56.9882 84.7036 56.6613C85.1628 56.2547 86.364 55.4419 86.9316 55.0173C87.2554 55.3968 87.4868 55.7697 87.76 56.1865C87.5725 56.5351 87.3953 56.7872 87.3674 57.1764L87.4355 57.2188C87.7366 56.8968 90.2825 52.7553 90.2488 52.4444C90.081 50.9336 90.5403 50.4243 90.916 48.96Z" fill="white"/>
<path d="M91.2231 49.9442C91.6596 49.8087 92.3078 49.8945 92.5451 50.3096L92.7597 50.2917C92.797 50.7625 92.7721 50.8568 92.6776 51.299C92.8285 51.5237 92.9457 51.6855 93.0607 51.9296L92.9259 52.7191C92.8739 52.9799 92.8483 53.2366 92.6615 53.4165C92.2536 53.4538 91.1242 53.2861 90.7865 53.059C90.7235 52.7719 90.8048 52.5046 90.8598 52.2085L90.977 51.5685L91.0788 50.8564L91.2231 49.9442Z" fill="#F79DBA"/>
<path d="M91.2231 49.9442C91.6596 49.8087 92.3078 49.8945 92.5451 50.3096L92.7597 50.2917C92.797 50.7625 92.7721 50.8568 92.6776 51.299C92.3686 51.4929 91.4215 51.4794 90.977 51.5685L91.0788 50.8564L91.2231 49.9442Z" fill="#81E1EA"/>
<path d="M91.2231 49.9442C91.6596 49.8087 92.3078 49.8945 92.5451 50.3096C91.9108 50.747 91.8544 50.8124 91.0788 50.8564L91.2231 49.9442Z" fill="#FBF352"/>
<path d="M90.8598 52.2085C91.3937 52.3975 92.7194 52.5319 92.9259 52.7191C92.8739 52.9799 92.8483 53.2366 92.6615 53.4165C92.2536 53.4538 91.1242 53.2861 90.7865 53.059C90.7235 52.7719 90.8048 52.5046 90.8598 52.2085Z" fill="#E7F48A"/>
<path d="M90.0562 61.5804C90.6575 61.5932 91.2983 61.5794 91.9033 61.5771C91.866 61.8469 91.8315 62.117 91.8008 62.3874C91.7759 62.6907 91.7546 63.0985 91.7151 63.3911L91.6799 63.8799L91.4924 66.0219L90.5242 66.0024C90.4949 65.6836 90.4597 65.1177 90.4092 64.8209L90.3279 63.9662C90.2488 63.1673 90.1792 62.3738 90.0562 61.5804Z" fill="#F79DBA"/>
<path d="M90.4436 64.8223C90.8787 64.5592 91.1123 64.149 91.6799 63.8799L91.4924 66.0219L90.5242 66.0024C90.4949 65.6836 90.4597 65.1177 90.4092 64.8209L90.4436 64.8223Z" fill="#F79DBA"/>
<path d="M91.8008 62.3874C91.7759 62.6907 91.7546 63.0985 91.7151 63.3911L91.6799 63.8799C91.1123 64.149 90.8787 64.5592 90.4436 64.8223L90.4092 64.8209L90.3279 63.9662C90.6179 63.5198 91.313 62.5511 91.8008 62.3874Z" fill="#E8AE8F"/>
<path d="M90.4436 64.8223C90.4421 64.706 90.4549 64.6518 90.4703 64.5366C90.7882 64.1693 91.2851 63.5745 91.7151 63.3911L91.6799 63.8799C91.1123 64.149 90.8787 64.5592 90.4436 64.8223Z" fill="#EFC3B0"/>
<path d="M92.5684 64.1454C92.5845 63.9624 92.5647 63.6807 92.7324 63.5906C93.5117 63.1711 94.0647 63.3983 94.0632 64.278C94.061 64.8548 94.05 65.4506 94.0618 66.0256L94.0859 66.7674C93.5637 66.7476 93.0569 66.8883 92.679 66.677C92.5288 66.3924 92.583 66.3266 92.5874 65.9796C92.5969 65.3682 92.5903 64.7565 92.5684 64.1454Z" fill="#CDFB2C"/>
<path d="M92.5878 65.9785L94.0622 66.0245L94.0863 66.7663C93.5641 66.7465 93.0573 66.8872 92.6793 66.6759C92.5292 66.3913 92.5834 66.3255 92.5878 65.9785Z" fill="#E6E6E4"/>
<path d="M92.5684 64.1454C92.5845 63.9624 92.5647 63.6807 92.7324 63.5906C93.5117 63.1711 94.0647 63.3983 94.0632 64.278L92.5684 64.1454Z" fill="#E6E6E4"/>
<path d="M91.4333 48.7305C91.4729 48.4173 91.4553 48.2699 91.6494 48.0424C92.2947 47.6604 93.1077 47.8508 93.5178 48.4745C93.5845 48.802 93.5142 49.2338 93.2314 49.4368C92.658 49.5819 93.0746 49.8891 92.7597 50.2917L92.5451 50.3096C92.3078 49.8945 91.6596 49.8087 91.2231 49.9442C91.3065 49.5466 91.3682 49.1323 91.4333 48.7305Z" fill="white"/>
<path d="M91.4333 48.7305C91.957 49.2112 92.9846 48.5705 93.2314 49.4368C92.658 49.5819 93.0746 49.8891 92.7597 50.2917L92.5451 50.3096C92.3078 49.8945 91.6596 49.8087 91.2231 49.9442C91.3065 49.5466 91.3682 49.1323 91.4333 48.7305Z" fill="#E7F48A"/>
<path d="M88.6413 65.7393L89.4485 65.7285C89.4617 66.0707 89.4646 66.4294 89.4726 66.7731L86.9517 66.7844L86.9531 65.7408L88.6413 65.7393Z" fill="#E7F48A"/>
<path d="M86.7061 54.2676C86.9294 54.3045 86.9207 54.3796 86.95 54.5608C86.7456 55.0031 85.3914 55.8603 84.9116 56.1909C84.7563 56.0609 84.7095 55.3682 84.6758 55.1228C85.4785 54.8971 86.0022 54.706 86.7061 54.2676Z" fill="#F2F2F2"/>
<path d="M85.5305 53.419C86.1523 53.3058 87.4109 52.7222 87.8599 52.7748L87.8767 52.7892C87.4556 53.1521 86.1392 53.7768 85.6118 53.9545C85.5378 53.7898 85.5459 53.6097 85.5305 53.419Z" fill="white"/>
<path d="M86.9595 65.0508C87.752 65.1431 88.6133 64.9676 89.3289 65.1518C89.4219 65.1757 89.4622 65.3639 89.5061 65.4797C89.1099 65.4825 87.1748 65.539 86.9902 65.3962L86.9595 65.0508Z" fill="#1C1C1C"/>
<path d="M92.2452 46.9287C92.5528 46.9658 92.9373 46.9676 93.16 47.1562C93.2786 47.4033 93.2098 47.5762 93.1585 47.8529C92.848 47.8053 92.5594 47.7915 92.2935 47.6366C92.147 47.3447 92.2115 47.2906 92.2452 46.9287Z" fill="#81E1EA"/>
<path d="M85.4414 52.2344C85.6465 52.5104 85.8501 52.7877 86.0515 53.0663C85.7776 53.1207 85.6164 53.1405 85.3381 53.1663C85.1169 53.2053 84.9646 53.2628 84.7676 53.1708C84.7932 53.0149 85.2949 52.519 85.4414 52.2344Z" fill="#E6E6E4"/>
<path d="M84.01 52.7832C84.3608 52.5592 84.9324 52.1607 85.2795 51.9971C84.9397 52.5745 84.7659 52.7915 84.251 53.2505C84.0876 53.0961 84.0935 53.0131 84.01 52.7832Z" fill="white"/>
<path d="M90.5254 66.2173C90.8147 66.2088 91.0527 66.1804 91.3311 66.2569C91.52 66.4487 91.4607 66.3993 91.512 66.7252C91.2285 66.7339 90.9912 66.7637 90.7217 66.6818C90.5276 66.4859 90.5877 66.5401 90.5254 66.2173Z" fill="#1C1C1C"/>
<path d="M92.2705 46.2871C92.8616 46.324 93.1011 46.2481 93.3179 46.8208C92.7187 46.8097 92.543 46.8187 92.2705 46.2871Z" fill="#E6E6E4"/>
<path d="M92.9272 62.698C93.1675 62.6912 93.2993 62.6894 93.5373 62.7104C93.7241 62.8987 93.6648 62.8457 93.7 63.1807L93.155 63.173C92.9441 63.0138 93.0078 63.0316 92.9272 62.698Z" fill="#1C1C1C"/>
<path d="M92.8906 51.0195C93.2883 51.1974 93.6384 51.6187 93.5549 52.0763L93.3623 52.1231C93.2217 51.9737 92.9573 51.2447 92.8906 51.0195Z" fill="white"/>
<path d="M87.0348 53.6387C86.5536 54.0955 86.2344 54.2844 85.6243 54.5471C85.5444 54.2889 85.5166 54.3793 85.5928 54.2016L85.7686 54.1966C86.1941 54.0174 86.6159 53.8316 87.0348 53.6387Z" fill="white"/>
<path d="M92.9214 50.292C93.3293 50.3717 93.7095 50.9129 93.8018 51.3089C93.4106 51.2379 93.0378 50.6466 92.9214 50.292Z" fill="white"/>
<path d="M93.1543 49.6992C93.6479 49.8562 93.8406 50.1505 93.8318 50.6594C93.5205 50.4277 93.1763 50.1064 93.1543 49.6992Z" fill="white"/>
<path d="M62.3198 20.4703C62.3133 20.3824 62.3111 20.375 62.3133 20.2721C62.3392 19.1706 62.7924 18.1223 63.5773 17.3488C65.4754 15.4651 68.1262 16.2978 70.5124 16.1032C72.602 15.9328 71.3776 17.5519 72.4925 18.5547C73.3078 19.2877 74.996 19.1122 76.0712 19.1087L79.6762 19.1048C83.0241 19.1063 86.3932 19.1189 89.7433 19.1004C92.0688 19.0875 91.6337 16.8227 92.1706 16.2514C92.8422 15.916 95.9689 16.2115 96.9152 16.1359C99.226 15.9513 101.357 17.9187 101.376 20.2559C101.297 21.0664 101.332 22.2416 101.332 23.091L101.335 27.7554C98.194 27.9045 94.28 27.7925 91.0771 27.7953L65.5656 27.8123C64.5756 27.8102 63.3357 27.7723 62.3612 27.8232L62.3624 23.0407C62.3628 22.4227 62.3966 21.004 62.3198 20.4703Z" fill="#F2F2F2"/>
<path d="M77.7471 26.7544C77.6567 26.7544 77.578 26.7391 77.5109 26.7085C77.4453 26.6764 77.3899 26.6341 77.3447 26.5816C77.301 26.5277 77.2682 26.4672 77.2463 26.4001C77.2244 26.3331 77.2135 26.2638 77.2135 26.1924C77.2135 26.121 77.2244 26.0517 77.2463 25.9846C77.2682 25.9176 77.301 25.8578 77.3447 25.8053C77.3899 25.7528 77.4453 25.7113 77.5109 25.6807C77.578 25.6486 77.6567 25.6326 77.7471 25.6326C77.8579 25.6326 77.9541 25.6588 78.0357 25.7113C78.1174 25.7638 78.1786 25.8447 78.2194 25.954L77.957 26.059C77.941 26.0094 77.9162 25.9693 77.8827 25.9387C77.8506 25.9081 77.8054 25.8928 77.7471 25.8928C77.6917 25.8928 77.6465 25.9074 77.6115 25.9365C77.578 25.9657 77.5532 26.0036 77.5371 26.0502C77.5211 26.0954 77.5131 26.1428 77.5131 26.1924C77.5131 26.242 77.5211 26.2901 77.5371 26.3367C77.5532 26.3834 77.578 26.4213 77.6115 26.4504C77.6465 26.4796 77.6917 26.4942 77.7471 26.4942C77.8054 26.4942 77.8506 26.4789 77.8827 26.4482C77.9162 26.4176 77.941 26.3775 77.957 26.328L78.2194 26.4329C78.1786 26.5408 78.1174 26.6217 78.0357 26.6757C77.9541 26.7281 77.8579 26.7544 77.7471 26.7544Z" fill="black"/>
<path d="M78.3668 26.7325V25.6544H78.6686V25.9475L78.6271 25.9497C78.6314 25.8884 78.6489 25.8338 78.6795 25.7856C78.7116 25.7375 78.7517 25.7004 78.7998 25.6741C78.8479 25.6464 78.8975 25.6326 78.9485 25.6326C78.985 25.6326 79.02 25.6377 79.0535 25.6479C79.087 25.6581 79.1227 25.6749 79.1606 25.6982L79.0163 25.9693C79.0003 25.9591 78.9791 25.9504 78.9529 25.9431C78.9281 25.9343 78.9026 25.93 78.8764 25.93C78.8501 25.93 78.8246 25.9351 78.7998 25.9453C78.775 25.9555 78.7532 25.9708 78.7342 25.9912C78.7153 26.0102 78.7 26.0357 78.6883 26.0677C78.681 26.0882 78.6752 26.1144 78.6708 26.1465C78.6679 26.1771 78.6664 26.223 78.6664 26.2842V26.7325H78.3668Z" fill="black"/>
<path d="M79.7013 26.7544C79.6051 26.7544 79.522 26.7391 79.452 26.7085C79.3835 26.6779 79.3274 26.6363 79.2836 26.5838C79.2414 26.5313 79.21 26.4723 79.1896 26.4067C79.1707 26.3396 79.1612 26.2704 79.1612 26.1989C79.1612 26.1304 79.1707 26.0626 79.1896 25.9956C79.21 25.9285 79.2406 25.868 79.2815 25.8141C79.3223 25.7587 79.3762 25.7149 79.4433 25.6829C79.5103 25.6493 79.5905 25.6326 79.6838 25.6326C79.7669 25.6326 79.8398 25.6472 79.9025 25.6763C79.9666 25.704 80.0199 25.7434 80.0621 25.7944C80.1044 25.844 80.1358 25.903 80.1562 25.9715C80.178 26.04 80.189 26.1137 80.189 26.1924C80.189 26.2055 80.1882 26.2208 80.1868 26.2383C80.1868 26.2558 80.1853 26.2755 80.1824 26.2974H79.4608C79.4695 26.3644 79.4979 26.4147 79.5461 26.4482C79.5942 26.4803 79.6517 26.4963 79.7188 26.4963C79.7728 26.4963 79.8267 26.4869 79.8806 26.4679C79.9346 26.449 79.982 26.422 80.0228 26.387L80.1605 26.5969C80.1066 26.6348 80.0563 26.6655 80.0097 26.6888C79.9645 26.7121 79.9171 26.7289 79.8675 26.7391C79.8194 26.7493 79.764 26.7544 79.7013 26.7544ZM79.8938 26.1465C79.8967 26.1348 79.8989 26.1231 79.9003 26.1115C79.9032 26.0998 79.9047 26.0889 79.9047 26.0787C79.9047 26.0495 79.8989 26.0233 79.8872 26C79.877 25.9752 79.8624 25.954 79.8435 25.9365C79.8245 25.919 79.8019 25.9059 79.7757 25.8972C79.7494 25.887 79.7203 25.8819 79.6882 25.8819C79.6372 25.8819 79.5949 25.8921 79.5614 25.9125C79.5293 25.9314 79.5045 25.9555 79.487 25.9846C79.471 26.0138 79.4608 26.0437 79.4564 26.0743H79.9943L79.8938 26.1465Z" fill="black"/>
<path d="M81.0352 26.7325L81.0134 26.5882V26.0502C81.0134 25.9919 80.9937 25.9497 80.9543 25.9234C80.9164 25.8972 80.8668 25.8841 80.8056 25.8841C80.7488 25.8841 80.689 25.895 80.6263 25.9169C80.5651 25.9387 80.5126 25.9671 80.4689 26.0021L80.3289 25.7944C80.4105 25.7346 80.4914 25.6931 80.5716 25.6697C80.6518 25.645 80.7386 25.6326 80.8319 25.6326C80.982 25.6326 81.0994 25.6697 81.1839 25.7441C81.2685 25.8184 81.3108 25.9205 81.3108 26.0502V26.7325H81.0352ZM80.7225 26.7544C80.6438 26.7544 80.5731 26.7398 80.5104 26.7107C80.4477 26.6815 80.3981 26.6399 80.3617 26.586C80.3253 26.5306 80.307 26.4672 80.307 26.3958C80.307 26.3331 80.3202 26.2791 80.3464 26.2339C80.3726 26.1887 80.4076 26.1538 80.4514 26.129C80.4864 26.1086 80.5257 26.094 80.5695 26.0852C80.6132 26.0765 80.6591 26.0721 80.7072 26.0721H81.0374V26.293H80.7509C80.7305 26.293 80.7116 26.2952 80.6941 26.2995C80.6766 26.3025 80.6606 26.309 80.646 26.3192C80.6343 26.328 80.6248 26.3389 80.6176 26.352C80.6117 26.3651 80.6088 26.3797 80.6088 26.3958C80.6088 26.4322 80.6227 26.4614 80.6504 26.4832C80.6795 26.5036 80.7181 26.5138 80.7663 26.5138C80.8115 26.5138 80.8523 26.5044 80.8887 26.4854C80.9266 26.4665 80.9565 26.4402 80.9784 26.4067C81.0017 26.3732 81.0134 26.3353 81.0134 26.293L81.0833 26.457C81.06 26.5328 81.0287 26.5926 80.9893 26.6363C80.9514 26.6786 80.9091 26.7092 80.8625 26.7281C80.8173 26.7456 80.7706 26.7544 80.7225 26.7544Z" fill="black"/>
<path d="M81.9337 26.7544C81.8739 26.7544 81.8178 26.7435 81.7653 26.7216C81.7128 26.6983 81.6705 26.6611 81.6385 26.6101C81.6064 26.559 81.5903 26.4898 81.5903 26.4023V25.4161L81.8943 25.2543V26.317C81.8943 26.3812 81.9023 26.4293 81.9184 26.4614C81.9359 26.4934 81.9687 26.5095 82.0168 26.5095C82.0313 26.5095 82.0474 26.508 82.0649 26.5051C82.0838 26.5022 82.1035 26.4978 82.1239 26.492V26.7216C82.0933 26.7332 82.062 26.7413 82.0299 26.7456C81.9993 26.7515 81.9672 26.7544 81.9337 26.7544ZM81.4023 25.8884V25.6544H82.1239V25.8884H81.4023Z" fill="black"/>
<path d="M82.7586 26.7544C82.6537 26.7544 82.5597 26.7303 82.4766 26.6822C82.3935 26.6341 82.3279 26.5678 82.2797 26.4832C82.2331 26.3972 82.2098 26.3003 82.2098 26.1924C82.2098 26.083 82.2331 25.9861 82.2797 25.9015C82.3279 25.817 82.3927 25.7514 82.4744 25.7047C82.5575 25.6566 82.6522 25.6326 82.7586 25.6326C82.8636 25.6326 82.9569 25.6566 83.0386 25.7047C83.1217 25.7514 83.1865 25.817 83.2332 25.9015C83.2813 25.9861 83.3053 26.083 83.3053 26.1924C83.3053 26.3003 83.2813 26.3972 83.2332 26.4832C83.1865 26.5678 83.1217 26.6341 83.0386 26.6822C82.9569 26.7303 82.8636 26.7544 82.7586 26.7544ZM82.7586 26.492C82.8111 26.492 82.8556 26.4803 82.892 26.457C82.9285 26.4337 82.9562 26.3994 82.9751 26.3542C82.9941 26.309 83.0036 26.2551 83.0036 26.1924C83.0036 26.1282 82.9941 26.0743 82.9751 26.0306C82.9562 25.9868 82.9285 25.9533 82.892 25.93C82.8556 25.9066 82.8111 25.895 82.7586 25.895C82.7062 25.895 82.661 25.9066 82.6231 25.93C82.5866 25.9533 82.5582 25.9868 82.5378 26.0306C82.5188 26.0743 82.5094 26.1282 82.5094 26.1924C82.5094 26.2551 82.5188 26.309 82.5378 26.3542C82.5582 26.3994 82.5866 26.4337 82.6231 26.457C82.661 26.4803 82.7062 26.492 82.7586 26.492Z" fill="black"/>
<path d="M83.4656 26.7325V25.6544H83.7674V25.9475L83.7258 25.9497C83.7302 25.8884 83.7477 25.8338 83.7783 25.7856C83.8104 25.7375 83.8505 25.7004 83.8986 25.6741C83.9467 25.6464 83.9963 25.6326 84.0473 25.6326C84.0837 25.6326 84.1187 25.6377 84.1523 25.6479C84.1858 25.6581 84.2215 25.6749 84.2594 25.6982L84.1151 25.9693C84.099 25.9591 84.0779 25.9504 84.0517 25.9431C84.0269 25.9343 84.0014 25.93 83.9751 25.93C83.9489 25.93 83.9234 25.9351 83.8986 25.9453C83.8738 25.9555 83.8519 25.9708 83.833 25.9912C83.814 26.0102 83.7987 26.0357 83.7871 26.0677C83.7798 26.0882 83.7739 26.1144 83.7696 26.1465C83.7667 26.1771 83.7652 26.223 83.7652 26.2842V26.7325H83.4656Z" fill="black"/>
<path d="M65.5583 24.8643L65.6533 24.9065C65.6225 25.1737 65.0243 25.7045 64.7985 25.9299C65.0747 26.3215 65.6529 26.7101 65.7209 27.1307C65.3664 26.9623 64.7678 26.28 64.4707 25.9657C64.8365 25.5599 65.1625 25.2427 65.5583 24.8643Z" fill="#1C1C1C"/>
<path d="M95.763 61.1462C95.3103 60.7399 95.0349 60.4262 95.0554 59.7824C95.0452 58.7512 94.7705 56.5901 96.313 56.4823C97.4959 56.3996 99.0757 56.4725 100.303 56.4846C100.742 56.5433 100.983 56.5552 101.42 56.5647C101.866 56.5626 102.633 56.5831 103.053 56.5464L103.046 58.0032L103.548 58.0111L103.716 58.0105C105.161 58.0091 107.428 57.9441 108.813 58.0485L108.84 58.0866C107.941 58.2475 105.829 58.1584 104.778 58.1744C104.364 58.259 104.124 58.2494 103.708 58.2515C103.711 58.9876 103.76 60.6136 103.686 61.2792L103.56 61.2442L103.044 61.2736C102.606 61.2026 101.935 61.2343 101.47 61.2438L101.384 61.2264C100.316 61.2459 99.2471 61.2485 98.1785 61.234C97.6819 61.6025 97.0147 62.22 96.5327 62.6395L96.5203 61.3028L95.763 61.1462Z" fill="white"/>
<path d="M101.42 56.5647C101.866 56.5626 102.633 56.5831 103.053 56.5464L103.046 58.0032L103.548 58.0111L103.716 58.0105C105.161 58.0091 107.428 57.9441 108.813 58.0485L108.84 58.0866C107.941 58.2475 105.829 58.1584 104.778 58.1744C104.364 58.259 104.124 58.2494 103.708 58.2515C103.711 58.9876 103.76 60.6136 103.686 61.2792L103.56 61.2442L103.044 61.2746L103.062 58.2242C102.693 58.2825 101.843 58.2562 101.43 58.254C101.139 58.2545 100.272 58.2922 100.067 58.1798C99.6042 58.1804 97.0928 58.2541 96.9038 58.06L97.0818 57.9823C97.9856 57.8714 100.403 57.9415 101.446 57.9339L101.42 56.5647Z" fill="#1C1C1C"/>
<path d="M101.42 56.5647C101.866 56.5626 102.633 56.5831 103.053 56.5464L103.046 58.0032C101.197 58.007 98.8894 58.0759 97.0818 57.9823C97.9856 57.8714 100.403 57.9415 101.446 57.9339L101.42 56.5647Z" fill="white"/>
<path d="M103.062 58.2242C103.336 58.2506 103.364 58.2037 103.527 58.3519C103.613 59.0607 103.563 60.472 103.56 61.2451L103.044 61.2746L103.062 58.2242Z" fill="white"/>
<path d="M100.067 58.1798C101.622 58.1459 103.218 58.1807 104.778 58.1744C104.364 58.259 104.124 58.2494 103.708 58.2515C103.711 58.9876 103.76 60.6136 103.686 61.2792L103.56 61.2451C103.563 60.472 103.613 59.0607 103.527 58.3519C103.364 58.2037 103.336 58.2506 103.062 58.2242C102.693 58.2825 101.843 58.2562 101.43 58.254C101.139 58.2545 100.272 58.2922 100.067 58.1798Z" fill="white"/>
<path d="M101.43 58.254C101.843 58.2562 102.693 58.2825 103.062 58.2242L103.044 61.2746C102.606 61.2036 101.935 61.2353 101.47 61.2448L101.384 61.2264C101.424 61.013 101.417 59.9737 101.422 59.6866C101.674 59.6981 101.661 59.6982 101.903 59.6264L101.874 59.5556C101.396 59.4419 101.021 59.4633 100.531 59.4636C100.815 59.4315 101.16 59.4272 101.451 59.415L101.43 58.254Z" fill="white"/>
<path d="M100.531 59.4636C101.021 59.4633 101.396 59.4419 101.874 59.5556L101.903 59.6264C101.661 59.6982 101.674 59.6981 101.422 59.6866C100.251 59.6497 97.9055 59.7517 96.8882 59.6195C97.2764 59.3877 99.8992 59.4715 100.531 59.4636Z" fill="#1C1C1C"/>
<path d="M105.105 56.4839C106.208 56.4734 109.784 56.1683 110.527 56.9325C111.055 57.4758 110.881 59.2183 110.842 59.9548C110.823 60.3059 110.71 60.6737 110.439 60.912C109.569 61.6756 105.078 61.0178 103.686 61.2792C103.76 60.6136 103.711 58.9876 103.708 58.2515C104.124 58.2494 104.364 58.259 104.778 58.1744C105.829 58.1584 107.941 58.2475 108.84 58.0866L108.813 58.0485C107.428 57.9441 105.161 58.0091 103.716 58.0105L103.725 56.5439C104.217 56.5379 104.616 56.5224 105.105 56.4839Z" fill="white"/>
<path d="M103.502 53.4664L103.776 53.4659L103.748 54.0305L103.783 54.2406C103.774 54.7917 103.765 55.2835 103.794 55.8329L103.769 56.2977C104.979 56.2973 106.189 56.2907 107.4 56.2782C108.076 56.2727 108.802 56.2163 109.472 56.3003C109.854 56.348 110.272 56.4456 110.561 56.715C111.267 57.3733 111.072 58.7272 111.071 59.6058C111.07 60.1003 111.023 60.5932 110.642 60.9505C109.669 61.8628 105.486 61.3025 104.023 61.4677L103.999 61.3655C103.684 61.2192 103.514 61.4226 103.044 61.2746L103.56 61.2451L103.686 61.2792C105.078 61.0178 109.569 61.6756 110.439 60.912C110.71 60.6737 110.823 60.3059 110.842 59.9548C110.881 59.2183 111.055 57.4758 110.527 56.9325C109.784 56.1683 106.208 56.4734 105.105 56.4839C104.616 56.5224 104.217 56.5379 103.725 56.5439L103.716 58.0105L103.548 58.0111L103.046 58.0032L103.053 56.5464C102.633 56.5831 101.866 56.5626 101.42 56.5647C100.983 56.5552 100.742 56.5433 100.303 56.4846C99.0757 56.4725 97.4959 56.3996 96.313 56.4823C94.7705 56.5901 95.0452 58.7512 95.0554 59.7824C95.0349 60.4262 95.3103 60.7399 95.763 61.1462L96.5203 61.3028L96.5327 62.6395C97.0147 62.22 97.6819 61.6025 98.1785 61.234C99.2471 61.2485 100.316 61.2459 101.384 61.2264L101.47 61.2448L101.263 61.3485L101.396 61.3698C101.029 61.4748 98.7722 61.4373 98.2375 61.4395L96.3317 63.0198L96.3061 61.4982C94.9174 61.1356 94.8185 60.2056 94.8105 58.9884C94.7951 56.8442 95.1914 56.208 97.3688 56.272C98.6594 56.31 100.096 56.2491 101.422 56.3069C101.473 55.8387 101.456 55.1438 101.457 54.6564L101.477 54.095C101.629 54.1096 101.584 54.0914 101.72 54.1687C102.187 54.4331 102.835 54.1499 103.057 54.6186C103.067 54.2408 102.936 53.8148 103.195 53.5315L103.486 53.5281L103.502 53.4664Z" fill="#1C1C1C"/>
<path d="M103.502 53.4664L103.776 53.4659L103.748 54.0305L103.783 54.2406C103.774 54.7917 103.765 55.2835 103.794 55.8329L103.769 56.2977C103.739 56.0759 103.744 56.0498 103.658 55.8358L103.567 55.8754L103.467 56.1738C103.527 55.3797 103.496 54.3313 103.486 53.5281L103.502 53.4664Z" fill="white"/>
<path d="M103.053 56.5464C103.386 56.5628 103.335 56.5057 103.502 56.684C103.631 57.1658 103.531 57.499 103.548 58.0111L103.046 58.0032L103.053 56.5464Z" fill="white"/>
<path d="M100.303 56.4846C101.674 56.48 103.807 56.4039 105.105 56.4839C104.616 56.5224 104.217 56.5379 103.725 56.5439L103.716 58.0105L103.548 58.0111C103.531 57.499 103.631 57.1658 103.502 56.684C103.335 56.5057 103.386 56.5628 103.053 56.5464C102.633 56.5831 101.866 56.5626 101.42 56.5647C100.983 56.5552 100.742 56.5433 100.303 56.4846Z" fill="white"/>
<path d="M96.3161 42.3015C94.8029 41.8533 94.8147 41.0435 94.8359 39.589C94.8513 38.4846 94.6147 36.7656 95.4211 35.9396C95.9001 35.449 97.4917 35.572 98.194 35.5731L101.394 35.5743L101.366 35.7501C101.002 35.7427 100.623 35.7532 100.258 35.7579C95.1437 35.7087 94.8573 35.0031 95.0529 40.4606C95.0925 41.5622 95.4704 41.9248 96.4848 42.1257L96.5346 43.5244C97.0912 43.0432 97.6735 42.5221 98.2426 42.0619C99.3017 42.0618 100.378 42.0717 101.434 42.0571L102.217 42.0627L102.157 42.0758C101.875 42.1357 101.532 42.1129 101.421 42.2442C100.386 42.2826 99.3205 42.2647 98.2819 42.2599C97.6418 42.8124 96.998 43.36 96.3498 43.9025C96.3278 43.3821 96.3271 42.8253 96.3161 42.3015Z" fill="#1C1C1C"/>
<path d="M101.401 53.4802L103.502 53.4664L103.486 53.5281L103.195 53.5315C102.936 53.8148 103.067 54.2408 103.057 54.6186C102.835 54.1499 102.187 54.4331 101.72 54.1687C101.584 54.0914 101.629 54.1096 101.477 54.095L101.457 54.6564C101.456 55.1438 101.473 55.8387 101.422 56.3069C101.374 55.4017 101.397 54.3939 101.401 53.4802Z" fill="#1C1C1C"/>
<path d="M67.1554 70.0028C69.9868 70.076 72.9783 70.0431 75.8179 70.01C82.7026 69.9296 89.6665 70.1418 96.5395 69.9992L96.5505 80.6474C95.6599 80.3581 94.7179 80.1413 93.7892 79.9143C91.7875 79.428 88.6549 78.2679 87.6873 80.9733C87.3131 82.0206 87.6808 83.3703 88.1627 84.2374C89.9557 87.4621 93.4903 88.2003 96.42 89.728C97.3128 90.1931 100.65 93.1629 101.451 94.0329C101.309 95.5035 100.968 96.6577 99.7877 97.6618C99.3043 98.0734 98.273 98.5421 97.6549 98.5619C95.8517 98.6198 93.94 98.5949 92.1368 98.5941L71.0601 98.5956C70.1433 98.5978 69.1705 98.5853 68.2582 98.6007C66.0964 98.6381 64.638 98.6849 63.1704 96.8833C64.0716 95.9459 64.8117 94.7309 65.7088 93.8542C65.0409 93.4045 64.7606 92.8443 64.5929 92.0826L64.6056 92.0672C64.7478 92.0665 64.6752 92.0841 64.817 91.994C65.2064 91.4733 66.8998 89.928 67.5396 89.9272L67.6128 89.7581C68.7652 89.8394 71.3595 89.835 72.5239 89.7881C72.2934 89.761 72.0635 89.728 71.8344 89.6907C71.836 89.523 77.2914 86.5378 76.3253 82.7214C76.6827 78.5008 73.1781 78.99 70.4508 79.8425C69.3827 80.1764 68.2181 80.2988 67.1432 80.7228C67.2488 77.3239 67.1571 73.4321 67.1554 70.0028Z" fill="white"/>
<path d="M67.6128 89.7581C68.7652 89.8394 71.3595 89.835 72.5239 89.7881C77.0973 89.8408 81.7382 89.7981 86.3195 89.7966L89.9919 89.7952C91.0407 89.7944 92.3203 89.5886 93.0981 90.3898C93.5112 90.8227 93.7346 91.402 93.7185 92.0003C93.7045 92.5408 93.4907 93.0886 93.1157 93.4827C92.406 94.2275 91.3168 94.1374 90.375 94.133C89.5744 94.1293 88.7688 94.1242 87.9653 94.1235L71.3425 94.1271C70.0856 94.1279 66.7195 94.2944 65.7088 93.8542C65.0409 93.4045 64.7606 92.8443 64.5929 92.0826L64.6056 92.0672C64.7478 92.0665 64.6752 92.0841 64.817 91.994C65.2064 91.4733 66.8998 89.928 67.5396 89.9272L67.6128 89.7581Z" fill="white"/>
<path d="M67.6128 89.7581C68.7652 89.8394 71.3595 89.835 72.5239 89.7881C77.0973 89.8408 81.7382 89.7981 86.3195 89.7966L89.9919 89.7952C91.0407 89.7944 92.3203 89.5886 93.0981 90.3898C93.5112 90.8227 93.7346 91.402 93.7185 92.0003C93.7045 92.5408 93.4907 93.0886 93.1157 93.4827C92.406 94.2275 91.3168 94.1374 90.375 94.133C89.5744 94.1293 88.7688 94.1242 87.9653 94.1235L71.3425 94.1271C70.0856 94.1279 66.7195 94.2944 65.7088 93.8542C65.0409 93.4045 64.7606 92.8443 64.5929 92.0826L64.6056 92.0672C64.7478 92.0665 64.6752 92.0841 64.817 91.994C64.9502 92.7322 65.1823 93.3574 65.9025 93.7243C66.703 94.081 69.0415 93.9572 69.9838 93.9565L86.4228 93.958C88.1367 93.958 89.8454 93.9726 91.5585 93.9272C92.6777 93.8972 93.4636 93.1677 93.52 92.0282C93.5434 91.4569 93.3244 90.9018 92.9172 90.5004C92.132 89.7241 90.372 89.938 89.2917 89.938L84.936 89.9372C80.4484 89.9372 75.7023 89.8633 71.2373 89.9534C70.0155 89.9541 68.7576 89.9705 67.5396 89.9272L67.6128 89.7581Z" fill="#1C1C1C"/>
<path d="M67.5395 89.9258C68.7575 89.969 70.015 89.9529 71.2368 89.9521C70.0531 90.1675 66.4834 92.6861 65.9021 93.7231C65.1819 93.3562 64.9501 92.7308 64.8169 91.9925C65.2062 91.4718 66.8996 89.9265 67.5395 89.9258Z" fill="#D9DBD5"/>
<path d="M75.0515 96.9947C79.397 96.9185 83.7842 97.0394 88.1326 96.9881C88.3457 96.9852 88.5801 97.0299 88.742 97.1741C88.7874 97.4136 88.7918 97.2898 88.6695 97.5498L79.8584 97.552C79.1267 97.5528 75.3218 97.6597 74.9541 97.4136C74.9219 97.139 74.9087 97.2774 75.0515 96.9947Z" fill="#1C1C1C"/>
<path d="M96.3349 92.0758L96.3415 92.0479L96.3064 91.9967C96.0808 91.6561 95.8274 91.1559 96.05 90.7619C96.2368 90.7494 97.7331 91.432 98.0115 91.5587C98.3557 91.7345 98.4853 91.796 98.7951 92.0384C98.2575 92.3423 96.6638 93.0549 96.0881 93.1985C95.8713 92.8543 96.0888 92.3621 96.3349 92.0758Z" fill="#CDFB2C"/>
<path d="M89.3736 77.4315C89.5523 77.4175 89.4959 77.408 89.6534 77.4659C89.5384 77.638 88.3299 77.9119 88.012 78.0825C86.1707 79.0683 85.5848 80.6173 85.6551 82.6489L85.6588 82.6965L85.5833 82.7807C85.472 82.6921 85.4669 82.725 85.4515 82.5969C85.2545 80.9673 85.8712 79.3342 87.2049 78.344C87.9198 77.813 88.5167 77.6043 89.3736 77.4315Z" fill="#1C1C1C"/>
<path d="M74.1851 77.4381C74.4304 77.4286 74.5974 77.4454 74.8362 77.4916C76.019 77.7105 77.0627 78.4004 77.7271 79.4031C78.3679 80.3735 78.6323 81.6968 78.4001 82.8372C78.3606 82.7852 78.3005 82.7434 78.2808 82.6804C78.2273 82.5069 78.2734 82.1487 78.2595 81.9524C78.1921 81.0004 77.9182 79.8623 77.2883 79.1189C76.2988 77.9515 74.4824 77.7589 74.1851 77.4381Z" fill="#1C1C1C"/>
<path d="M86.9965 76.6191L87.0397 76.6896C86.8947 76.9344 86.4194 77.0796 86.1359 77.2785C85.1516 77.9704 84.7941 78.8075 84.4169 79.8709L84.3049 79.7522C84.2851 78.5108 85.8737 76.9891 86.9965 76.6191Z" fill="#1C1C1C"/>
<path d="M76.8608 76.6211C78.2166 76.9224 79.48 78.5092 79.6279 79.8722C79.2515 79.6114 79.0691 78.5803 78.5974 78.001C78.1169 77.4099 77.0828 77.0126 76.8608 76.6211Z" fill="#1C1C1C"/>
<path d="M39.6984 107.481C42.2215 109.124 44.8581 110.794 47.3399 112.479C45.8713 114.311 45.0495 115.679 45.3052 118.135C45.5042 120.045 46.1401 121.834 47.6857 123.062C48.5762 123.769 50.095 124.437 51.148 124.95C50.6756 125.856 49.646 127.339 49.0635 128.252C47.8563 130.178 46.631 132.093 45.3877 133.995C44.4704 132.999 42.6535 130.881 41.2058 132.351C40.1333 133.44 39.8429 134.807 37.9581 134.685C35.9341 134.644 33.7314 134.236 32.1679 135.859C31.6108 136.436 31.2225 137.113 31.215 137.936C31.2023 139.349 32.2446 140.262 33.3084 140.98C34.8373 142.011 36.4602 142.852 38.0067 143.845C37.3782 144.554 36.8985 145.108 36.3523 145.895H32.5827H21.1678H16.2815C16.0503 145.586 15.6038 145.042 15.5446 144.685C15.3786 143.685 15.5899 142.501 15.5989 141.458C15.6248 138.492 14.6646 135.413 12.7618 133.118C12.2204 132.465 11.4027 131.76 10.7422 131.213L13.2044 127.945C13.5816 127.444 14.3071 126.451 14.7244 126.024C15.0518 126.481 15.7404 127.429 15.9455 127.807C17.3964 130.481 17.8955 132.766 20.2376 129.015C20.8136 128.093 22.3619 126.851 23.4746 127.025C25.4305 127.051 28.4893 132.813 30.1988 132.26C30.3592 132.115 30.5401 131.958 30.5353 131.71C30.4979 129.814 26.7854 126.446 26.4593 124.984C25.4992 120.681 27.5773 118.505 22.7141 115.85C23.6176 114.733 24.4833 113.584 25.3844 112.48C26.4222 114.757 28.1099 116.58 30.4865 117.499C31.3843 117.846 32.757 118.077 33.4461 118.767C34.9802 120.301 35.534 122.617 37.1956 124.158C37.9277 124.995 38.8691 124.618 39.6827 125.299C40.2626 125.785 41.1996 126.954 42.0433 126.556C42.7235 126.235 42.5809 125.035 42.3884 124.458C42.0966 123.583 41.4453 122.738 41.085 121.881C40.3129 119.533 39.2991 117.087 38.5235 114.777C37.8137 112.663 38.6872 109.395 39.6984 107.481Z" fill="#F2F2F2"/>
<path d="M21.1678 145.895L21.5102 145.826L21.548 145.722C20.7374 144.098 19.2851 141.017 21.5368 139.645C22.2361 139.219 23.3863 139.418 24.1052 139.707C26.4405 140.688 31.3145 143.022 32.3666 145.359C32.4446 145.535 32.5168 145.714 32.5827 145.895H21.1678Z" fill="#1C1C1C"/>
<path d="M136.853 110.213C138.228 112.157 140.351 114.524 141.586 116.42C140.052 117.118 139.19 117.635 137.861 118.918C136.065 120.65 136.168 124.279 139.203 124.395C139.975 124.425 140.74 123.68 141.258 123.076C141.277 123.072 141.296 123.068 141.314 123.065L141.408 123.048C143.042 122.751 144.87 123.063 146.36 122.266L149.576 126.224C147.112 126.586 145.635 127.82 144.44 129.991C143.04 132.514 142.46 135.65 143.267 138.46C144.181 141.643 147.264 143.387 150.001 144.833V145.895H139.408C139.918 144.117 141.154 141.779 139.307 140.309C137.513 138.882 134.675 139.697 132.773 140.338C129.934 141.295 128.848 142.888 127.074 145.094C125.608 143.632 123.137 140.654 121.997 138.945C124.86 135.743 126.271 136.805 129.99 135.832C132.021 135.3 136.366 134.323 136.897 132.076C137.127 131.105 136.347 129.441 135.312 129.23C132.983 128.223 130.788 132.465 129.187 129.747L129.135 129.657C129.137 128.092 130.219 126.69 130.393 125.355C130.665 123.279 130.085 120.985 130.903 118.893C131.36 117.721 132.34 117.189 133.083 116.239C133.991 115.079 134.071 113.723 133.892 112.306C134.836 111.677 135.97 110.907 136.853 110.213Z" fill="white"/>
<path d="M62.4183 30.705L67.7974 30.7035C68.7805 30.7001 69.7713 30.672 70.7517 30.7319C71.348 30.7683 71.4706 31.0505 71.7745 31.5197L71.7824 37.2257C71.783 38.2069 71.8078 39.1925 71.7436 40.1713C71.7074 40.7249 71.4178 41.2062 70.8192 41.2399C69.8803 41.2929 68.9282 41.288 67.9867 41.2841C66.4047 41.2697 64.8227 41.2647 63.2407 41.269L54.7044 41.2785C53.8244 41.2725 51.3871 41.3855 50.736 41.0781C50.3586 40.6563 50.2918 40.3612 50.3035 39.7879C50.3571 37.1433 50.2901 34.4941 50.3331 31.853C50.3403 31.4086 50.6859 30.7998 51.1743 30.7593C52.4416 30.654 53.7554 30.6977 55.0325 30.6999L62.4183 30.705Z" fill="#B5FE28"/>
<path d="M65.5372 33.084L69.3764 33.1084L69.3848 34.0545L66.7175 34.0446L66.7172 35.4889L69.1487 35.4736L69.1621 36.4404C68.3504 36.4404 67.5386 36.4473 66.727 36.4613L66.7216 37.8738L69.412 37.8779L69.4265 38.8453C68.1292 38.8548 66.8319 38.8522 65.5347 38.8374L65.5372 33.084Z" fill="#1C1C1C"/>
<path d="M63.5578 33.0908L64.8806 33.1124L64.5684 34.0088C64.0211 35.629 63.4549 37.2427 62.8699 38.8496L61.4038 38.8485C60.6984 37.0101 60.0586 34.9814 59.4004 33.1044C59.8133 33.0922 60.284 33.1036 60.702 33.1037C61.2029 34.5935 61.671 36.1269 62.1629 37.6258C62.5638 36.1139 63.1187 34.6038 63.5578 33.0908Z" fill="#1C1C1C"/>
<path d="M53.0854 33.0879L54.2747 33.1028L54.2695 37.8732L56.7724 37.8695L56.8057 38.8431C55.5865 38.879 54.3131 38.848 53.0894 38.835L53.0854 33.0879Z" fill="#1C1C1C"/>
<path d="M57.5529 33.0879L58.7412 33.1072L58.7459 38.8384L57.5583 38.8308C57.5452 36.9165 57.5433 35.0022 57.5529 33.0879Z" fill="#1C1C1C"/>
<path d="M67.6128 89.7581L67.5869 89.6856C67.9645 89.378 69.2918 88.9063 69.7862 88.6851C72.8408 87.3149 75.3402 86.1336 76.3253 82.7214C77.2914 86.5378 71.836 89.523 71.8344 89.6907C72.0635 89.728 72.2934 89.761 72.5239 89.7881C71.3595 89.835 68.7652 89.8394 67.6128 89.7581Z" fill="#D9DBD5"/>
<path d="M64.5929 92.0826C64.7606 92.8443 65.0409 93.4045 65.7088 93.8542C64.8117 94.7309 64.0716 95.9459 63.1704 96.8833C62.5134 95.9444 62.3492 95.2334 62.3101 94.1188C63.0198 93.4267 63.854 92.7945 64.5929 92.0826Z" fill="#D9DBD5"/>
<path d="M103.786 61.6592L111.723 71.6097C112.947 73.1465 115.366 75.91 116.19 77.5308C117.04 79.2028 118.017 81.933 118.723 83.7501L123.13 94.9861L124.619 98.8098C124.832 99.3562 125.322 100.691 125.585 101.159C126.26 102.359 127.153 103.671 127.91 104.834L119.798 110.099C118.281 111.08 116.692 112.155 115.159 113.09C115.141 113.07 115.122 113.05 115.103 113.03C114.311 111.757 113.358 110.531 112.477 109.313C112.219 108.958 111.392 108.39 111.322 108.078C110.626 107.521 109.603 106.972 108.762 106.305C106.033 104.198 104.292 101.416 103.138 98.21C102.85 97.4059 102.136 94.2112 101.746 93.859C100.08 92.3503 98.3079 90.578 96.4182 89.3593C95.5554 88.8034 94.1104 88.4226 93.1765 87.9173C90.3787 86.4694 88.9907 85.6974 87.9331 82.7665C89.3005 83.7288 90.3442 83.9925 91.9241 84.5227C92.6433 83.3817 93.698 81.8935 94.3074 80.8198L92.8865 80.0069C95.0566 80.5935 97.5864 81.1172 99.728 81.8195C100.401 82.0407 101.982 83.1173 102.653 83.5289C104.52 84.6728 106.394 85.808 108.272 86.933C108.746 87.2186 110.726 88.5735 111.116 88.4533L111.1 88.3098L110.897 88.1494L103.782 83.8409C103.819 79.0643 103.71 74.1788 103.801 69.4225C103.789 66.8736 103.842 64.1922 103.786 61.6592Z" fill="white"/>
<path d="M103.801 69.4225C103.934 69.9157 103.856 75.6893 103.873 76.6719C104.704 78.1332 105.328 79.2984 106.257 80.7463C107.773 83.1118 109.599 85.663 110.897 88.1494L103.782 83.8409C103.819 79.0643 103.71 74.1788 103.801 69.4225Z" fill="#D9DBD5"/>
<path d="M59.9054 61.9932L59.8999 75.7683L59.9123 83.942C57.6339 85.3438 55.3443 86.7265 53.0437 88.0917C52.8135 88.296 52.8116 88.2301 52.7727 88.4666C53.1121 88.5662 55.382 87.0846 55.8453 86.8049L61.1859 83.5583C63.4493 82.1763 64.7196 81.4198 67.3925 80.9408C68.5266 80.7372 69.8883 80.2729 71.0554 80.0209C70.638 80.2428 69.9594 80.5783 69.5801 80.8251C70.4016 82.0415 71.2011 83.2726 71.9786 84.5177C73.453 84.0387 74.7252 83.7048 75.9549 82.7285C74.6703 86.8935 71.0977 87.5614 67.6728 89.2576C66.1723 90.0009 64.5206 91.8934 63.1456 92.9275C61.5729 94.0078 61.6285 95.3363 61.1415 97.0303C60.0581 100.798 58.0156 104.123 54.8725 106.522C54.3918 106.888 52.7416 107.795 52.5228 108.209C52.1704 108.596 51.4088 109.232 51.1359 109.593C50.3114 110.682 49.4778 111.838 48.6779 112.945C44.5343 110.415 40.0909 107.405 35.9868 104.758C36.7047 103.65 37.5455 102.407 38.1783 101.263C38.4627 100.748 38.9055 99.5137 39.1343 98.9212L40.6221 95.0668L45.0768 83.6733C45.7557 81.9353 46.7509 79.1684 47.5559 77.6129C48.3999 75.9813 50.8572 73.1689 52.1408 71.5787L59.9054 61.9932Z" fill="white"/>
<path d="M53.0437 88.0917C53.2231 87.5021 53.7616 86.6804 54.0324 86.1743C54.9661 84.4276 59.6999 77.87 59.8444 76.4131C59.8651 76.1981 59.8838 75.9837 59.8999 75.7683L59.9123 83.942C57.6339 85.3438 55.3443 86.7265 53.0437 88.0917Z" fill="#D9DBD5"/>
<path d="M125.042 107.064L125.169 107.083C126.296 108.647 127.078 112.283 126.644 114.174C126.237 115.938 125.364 117.688 124.804 119.425C124.542 120.242 124.385 121.059 124.168 121.885C123.867 123.027 123.484 124.146 123.022 125.233C122.27 126.994 121.268 128.334 120.583 130.341C120.047 131.909 120.125 133.422 119.439 134.755C119.393 134.844 119.335 134.818 119.218 134.823C118.886 134.558 113.943 126.762 113.423 125.942C113.044 125.361 112.707 124.791 112.354 124.196C115 123.728 117.657 122.61 119.413 120.533C120.485 119.265 120.904 118.535 122.346 117.681C122.858 117.378 123.717 116.273 123.437 115.613C123.055 114.71 122.039 114.745 121.202 115.029C119.439 115.803 117.349 116.678 115.628 115.262C115.146 114.866 114.912 114.349 114.703 113.76C115.86 113.065 117.162 112.169 118.313 111.421L125.042 107.064Z" fill="#F2F2F2"/>
<path d="M96.0376 100.926C99.1174 100.986 100.748 100.502 102.673 98.002C104.006 101.421 105.366 103.893 108.267 106.327C108.64 106.64 110.757 108.26 111.206 108.222L111.322 108.078C111.392 108.39 112.219 108.958 112.477 109.313C113.358 110.531 114.311 111.757 115.103 113.03C115.122 113.05 115.141 113.07 115.159 113.09C115.086 113.164 114.047 113.832 113.903 113.925L110.617 116.035C108.922 113.61 109.122 113.979 106.564 112.57C105.697 112.085 104.862 111.545 104.064 110.953C100.318 108.168 98.3535 104.905 96.0376 100.926Z" fill="#D9DBD5"/>
<path d="M61.1596 98.1426C63.0543 100.608 64.9089 100.986 67.8892 100.94C65.8847 104.164 64.1951 107.195 61.3228 109.734C60.2003 110.722 58.9817 111.595 57.6851 112.34C55.2196 113.74 54.9156 113.478 53.3332 115.948C51.7752 114.956 50.2236 113.956 48.6779 112.945C49.4778 111.838 50.3114 110.682 51.1359 109.593C51.4088 109.232 52.1704 108.596 52.5228 108.209C53 108.274 53.6028 107.757 54.0051 107.505C57.4704 105.337 59.8402 101.963 61.1596 98.1426Z" fill="#D9DBD5"/>
<path d="M29.8943 106.464C30.1826 106.6 31.2999 107.391 31.596 107.593C32.7651 108.383 33.9239 109.188 35.0724 110.008C34.3281 111.128 33.4765 112.441 32.6914 113.519C30.8945 112.297 29.1084 111.06 27.3335 109.806C28.196 108.698 29.0283 107.57 29.8943 106.464Z" fill="#B5FE28"/>
<path d="M134.088 106.621C134.358 106.873 136.329 109.563 136.659 110.005C135.167 110.933 132.857 112.572 131.429 113.611L131.293 113.657C130.929 113.454 129.266 110.738 128.931 110.188C130.551 109.009 132.419 107.79 134.088 106.621Z" fill="#B5FE28"/>
<path d="M89.8585 79.5628C91.1461 79.45 92.7845 80.3091 93.8912 80.944C93.1668 81.9569 92.4747 82.9918 91.8148 84.0478C91.4786 84.2426 87.8751 82.8819 87.8612 81.9115C87.8414 80.5866 88.6698 79.8213 89.8585 79.5628Z" fill="white"/>
<path d="M73.2151 79.5505C74.2483 79.5058 75.0949 79.7196 75.7204 80.6102C77.1347 82.6272 73.9707 83.4972 72.6749 83.9601L72.1139 84.1315C71.442 83.0519 70.7465 81.9871 70.0278 80.9376C71.0428 80.3729 72.1103 79.9086 73.2151 79.5505Z" fill="white"/>
<path d="M102.367 97.0879C102.457 97.1736 102.578 97.3896 102.528 97.5039C101.909 98.9437 99.8683 100.37 98.3061 100.521C96.4003 100.704 94.2257 100.633 92.2987 100.633L71.2896 100.634C69.8581 100.635 68.412 100.63 66.9815 100.625C64.4456 100.618 62.8524 99.8753 61.3642 97.8232L61.3135 97.7192C61.3571 97.457 61.3001 97.561 61.4545 97.3808C61.6705 97.4812 61.8614 97.9125 62.0692 98.1579C62.487 98.642 62.9801 99.055 63.5296 99.3817C65.2117 100.375 66.8837 100.213 68.7626 100.225C69.7593 100.232 70.7571 100.225 71.7539 100.225L92.4079 100.227C96.2787 100.23 100.161 101.013 102.367 97.0879Z" fill="white"/>
<path d="M60.202 42.0107C60.3545 42.0311 60.4231 42.0481 60.5725 42.083C60.7085 42.4274 60.6254 48.3961 60.6254 49.3164L60.6218 79.3014C60.6186 80.6805 60.663 82.2697 60.6083 83.6275C60.4053 83.6832 60.3682 83.7359 60.2277 83.6656C60.1449 82.8183 60.2111 80.4805 60.2105 79.483L60.202 42.0107Z" fill="white"/>
<path d="M103.06 61.4102C103.183 61.4271 103.295 61.4485 103.417 61.4706C103.58 61.7722 103.493 81.5958 103.473 83.6362C103.253 83.5432 103.263 83.5505 103.087 83.3901C103.016 82.501 103.06 81.5086 103.064 80.6071L103.068 76.1874L103.06 61.4102Z" fill="white"/>
<path d="M99.5488 4.10742H150V40.7975C149.255 41.2971 148.252 41.9891 147.396 42.339C146.644 42.6468 145.918 42.6628 145.286 43.227C144.573 43.8653 143.931 44.5328 143.209 45.1215L140.89 47.099C136.856 50.5233 134.074 52.8338 129.487 48.6193C126.796 46.146 123.736 43.8403 121.183 41.1729C120.347 40.2998 119.633 39.3666 118.861 38.4457C115.31 38.2585 115.428 37.5246 115.163 34.255C115.066 33.0421 114.703 30.7802 114.328 29.6437C113.909 28.3697 112.205 25.5493 111.244 24.5831C109.553 24.3299 110.395 23.1182 110.335 22.9651C109.655 21.2342 108.972 19.5613 108.351 17.7973C104.887 15.8993 102.454 13.0793 101.125 9.34755L100.959 9.57648C102.049 13.1105 103.651 16.1705 106.718 18.3807C106.924 18.5285 107.351 18.7897 107.506 18.9661C106.661 18.8379 104.363 16.8948 103.781 16.2569C100.632 12.804 99.4272 8.66534 99.5488 4.10742Z" fill="#1C1C1C"/>
<path d="M100.642 8.13672C100.889 8.59688 100.963 8.85184 101.125 9.34755L100.959 9.57648C100.842 9.10583 100.744 8.61242 100.642 8.13672Z" fill="#E6E6E4"/>
<path d="M107.909 14.7168C110.416 18.9911 112.371 21.3415 116.663 23.9054C119.1 25.1493 120.64 25.6206 123.283 26.2526C125.422 26.7638 128.569 28.8624 129.855 30.6715C131.45 32.6086 132.043 34.4008 132.458 36.8236C132.615 35.7178 132.563 35.112 132.488 34.0112C132.138 31.807 131.571 30.343 130.21 28.5218C135.63 31.865 135.171 36.7258 139.392 40.8963C140.337 41.83 142.515 42.7441 143.832 42.8927C144.099 42.9229 144.845 42.9652 144.927 43.1218L144.86 43.1687C143.992 44.005 142.767 44.9892 141.819 45.8105C140.153 47.2091 138.527 48.7537 136.652 49.8517C133.857 51.4826 131.636 50.1434 129.519 48.2331C125.156 44.2947 120.115 40.7705 117.381 35.4037C116.232 33.1483 115.359 30.6893 114.192 28.4195C113.443 26.9642 112.399 25.7184 111.622 24.3106C113.142 23.6262 113.6 24.0488 115.132 23.9363C115.33 23.9217 115.386 23.8085 115.479 23.6769C115.507 23.3689 115.543 23.5026 115.389 23.2561C113.887 22.6614 112.362 22.3153 110.774 22.8295C109.435 20.4726 108.558 17.3333 107.909 14.7168Z" fill="white"/>
<path d="M116.663 23.9054C119.1 25.1493 120.64 25.6206 123.283 26.2526C125.422 26.7638 128.569 28.8624 129.855 30.6715L129.55 30.5365L129.476 30.5825C129.687 31.1546 129.995 31.7052 130.25 32.2591C130.901 33.6767 131.272 35.2031 131.359 36.7607C131.391 37.3249 131.376 37.7874 131.451 38.3592L131.394 38.4207C130.75 34.2258 128.183 30.5724 124.455 28.5424C122.353 27.3733 120.026 26.6423 118.072 25.1424C117.527 24.7252 116.968 24.5883 116.663 23.9054Z" fill="#D9DBD5"/>
<path d="M130.21 28.5218C135.63 31.865 135.171 36.7258 139.392 40.8963C140.337 41.83 142.515 42.7441 143.832 42.8927C144.099 42.9229 144.845 42.9652 144.927 43.1218L144.86 43.1687C144.746 43.1341 144.708 43.1253 144.59 43.1154C136.665 42.4494 136.765 35.259 132.492 30.5157C132.233 30.2285 131.838 29.7583 131.481 29.7514C131.428 29.8271 131.37 29.8637 131.399 29.9489C131.777 31.0687 132.759 32.7952 132.488 34.0112C132.138 31.807 131.571 30.343 130.21 28.5218Z" fill="#C0C0BF"/>
<path d="M114.972 26.3672C116.31 26.3901 117.937 28.9893 116.711 29.8416C115.369 29.7173 113.862 27.4261 114.972 26.3672Z" fill="#1C1C1C"/>
<path d="M107.197 7.01367C107.55 7.58192 107.922 8.55688 108.29 9.16237C108.877 10.1302 109.629 11.2201 110.336 12.1037C112.912 15.3885 116.501 17.7301 120.545 18.764C121.697 19.0473 122.823 19.1786 123.998 19.3121C122.484 18.6764 121.638 18.3396 120.245 17.4244C117.062 15.3092 114.443 12.4488 112.616 9.09154C112.349 8.61155 112.061 8.28978 111.949 7.75326L112.007 7.73136C112.511 8.69467 112.933 9.10796 113.526 9.93022C115.917 13.2447 119.212 16.0877 123.076 17.5138C124.556 18.0603 125.914 18.1899 127.42 18.5282C130.72 19.2695 133.12 20.7972 135.557 23.0546C136.237 23.7472 136.907 24.4584 137.495 25.2309L137.473 25.3486L137.376 25.3686C136.956 25.0882 136.582 24.6501 136.213 24.2922C133.857 22.0069 129.505 19.3627 126.103 19.7479C130.116 20.6734 133.983 23.7595 136.361 27.0436C136.581 27.3484 136.968 27.7618 137.016 28.1226C136.915 28.107 136.166 27.0639 136.004 26.8644C133.389 23.5452 128.399 20.4833 124.11 20.2015C116.527 19.703 110.908 15.3011 107.753 8.54072C107.588 8.18788 107.201 7.40988 107.197 7.01367Z" fill="#747572"/>
<path d="M128.349 14.3682C131.286 14.2909 136.252 15.7377 138.558 17.5013C140.389 18.9022 144.115 25.2684 144.418 27.5968L144.339 27.5962C144.04 26.8343 143.747 26.0419 143.384 25.2942C142.175 22.8195 140.255 20.603 138.304 18.6761C136.235 16.6322 133.388 15.6463 130.642 14.9046C129.896 14.703 129.073 14.6371 128.349 14.3682Z" fill="#747572"/>
<path d="M115.077 31.2656C115.304 31.5026 115.848 32.8429 116.006 33.216C116.757 34.9889 117.556 36.5099 118.634 38.102C115.328 38.0868 115.76 36.7208 115.493 34.1328C115.388 33.1726 115.249 32.2163 115.077 31.2656Z" fill="#E6E6E4"/>
<path d="M144.871 20.5293C146.07 20.9292 146.644 22.6878 146.632 23.8516C146.536 23.8001 146.416 23.722 146.371 23.6168C145.909 22.5269 145.467 21.5591 144.871 20.5293Z" fill="#747572"/>
<path d="M140.009 39.8633C140.47 39.9759 141.102 40.3379 141.381 40.7407C140.845 40.7544 140.232 40.3464 140.009 39.8633Z" fill="#1C1C1C"/>
<path d="M59.9103 30.4652L59.9071 24.5707C59.907 23.1051 59.8145 20.9331 60.1594 19.5535C60.4226 18.5039 60.9479 17.5383 61.6862 16.7471C62.9761 15.3763 64.6205 14.6761 66.4826 14.6684C68.909 14.6585 71.3383 14.6577 73.7644 14.658L94.4553 14.6571C97.3843 14.6577 99.49 14.3285 101.787 16.5018C104.332 18.9102 103.734 22.1037 103.791 25.2543C103.854 28.7059 103.715 32.167 103.803 35.6049L103.728 35.7471C102.978 35.7273 102.124 35.7484 101.366 35.7501L101.394 35.5743C101.456 35.1343 101.426 33.8548 101.426 33.3657L101.412 28.6937L101.413 23.8169C101.413 23.0474 101.448 21.8162 101.377 21.083C101.357 18.7459 99.2262 16.7784 96.9154 16.9631C95.9692 17.0386 92.8425 16.7431 92.1708 17.0786C91.634 17.6498 92.069 19.9147 89.7436 19.9276C86.3935 19.9461 83.0243 19.9334 79.6764 19.932L76.0715 19.9358C74.9963 19.9393 73.308 20.1148 72.4928 19.3819C71.3778 18.379 72.6023 16.7599 70.5126 16.9303C68.1264 17.125 65.4757 16.2922 63.5775 18.1759C62.7927 18.9494 62.3394 19.9977 62.3136 21.0992C62.3114 21.2022 62.3136 21.2095 62.3201 21.2975C62.2557 22.0064 62.2085 30.1273 62.3456 30.4741L62.4183 30.705L55.0325 30.6999C53.7554 30.6977 52.4416 30.654 51.1743 30.7593C50.6859 30.7998 50.3403 31.4086 50.3331 31.853C50.2901 34.4941 50.3571 37.1433 50.3035 39.7879C50.2918 40.3612 50.3586 40.6563 50.736 41.0781L50.4968 41.1664C50.1239 40.755 50.0139 40.2126 50.0316 39.6644C50.1166 37.0214 49.9595 34.3581 50.087 31.724C50.1128 31.1917 50.526 30.5932 51.0889 30.5312C52.1275 30.4169 53.2313 30.4656 54.2842 30.4688L59.9103 30.4652Z" fill="#1C1C1C"/>
<path d="M65.8142 14.9651C67.3295 14.8952 69.1242 14.9352 70.6609 14.9351L79.1241 14.936C85.1416 14.9371 91.1687 14.9325 97.1885 14.9483C99.013 14.9199 100.558 15.6486 101.825 16.9493C103.642 18.8153 103.49 21.0841 103.492 23.4844L103.491 27.8087L103.476 32.9256C103.475 33.5063 103.654 35.261 103.284 35.5965C103.231 35.5815 103.178 35.5666 103.126 35.5516C103.013 35.2051 103.057 34.1565 103.057 33.8397L103.061 25.2483C103.062 22.3244 103.543 19.4617 101.426 17.1515C100.439 16.1838 99.1067 15.4483 97.6968 15.4009C95.7273 15.3346 93.7337 15.3744 91.7613 15.3766L70.6357 15.3768C69.3522 15.3752 66.2079 15.2781 65.1303 15.5271C62.8419 16.0561 61.0287 17.982 60.7341 20.3488C60.5782 21.6019 60.627 22.6407 60.6293 23.9035L60.6413 28.7457C60.6418 29.0635 60.6847 30.1765 60.5525 30.3892C60.3325 30.445 60.4298 30.4612 60.2479 30.3681C60.1855 29.9005 60.1871 27.2409 60.2075 26.6779C60.2733 24.8591 60.0383 21.6659 60.3649 19.9801C60.526 19.1113 60.8748 18.2881 61.3872 17.5682C62.513 15.9819 63.9432 15.2778 65.8142 14.9651Z" fill="white"/>
<path d="M79.5518 17.6599C80.6028 17.6338 82.9275 17.609 84.0481 17.69C84.1001 17.732 84.1521 17.7741 84.2041 17.8162C84.2283 18.065 84.218 17.9928 84.1074 18.251C83.4548 18.2557 79.8206 18.3761 79.5261 18.1628C79.4331 17.9041 79.4646 17.9796 79.5518 17.6599Z" fill="#747572"/>
<path d="M86.0637 17.3338C86.3962 17.2892 86.706 17.5127 86.769 17.8427C86.832 18.1726 86.6255 18.4942 86.2996 18.5751C86.0725 18.6316 85.8323 18.5577 85.6755 18.383C85.5195 18.2084 85.4726 17.9616 85.5539 17.7416C85.6352 17.5218 85.8308 17.3648 86.0637 17.3338Z" fill="#747572"/>
<path d="M103.052 42.0605L103.581 42.0273L103.701 42.0955L103.783 42.1082L103.766 42.2588L103.792 42.9065C103.78 43.8079 103.791 44.8663 103.742 45.7542C107.312 45.7572 111.091 45.8229 114.645 45.7468C114.881 45.7706 115.112 45.7859 115.343 45.8356C115.802 46.1512 116.259 46.5039 116.325 47.1061C116.442 48.1922 116.39 49.3166 116.396 50.4098C116.402 51.7991 116.568 53.2641 114.786 53.4994C114.79 53.9292 114.842 54.6082 114.707 54.9844L114.592 55.0741C114.427 55.0414 114.43 55.0492 114.288 54.9621C114.182 54.782 113.215 54.0061 112.991 53.8184L112.749 53.8365C111.41 54.2636 110.33 53.8992 109.058 53.9731C107.368 54.0713 105.389 53.8681 103.748 54.0305L103.776 53.4659L103.502 53.4664L101.401 53.4802C100.584 53.485 98.7428 53.6143 98.1364 53.257C97.7446 53.0247 97.4618 52.6458 97.3498 52.2043C97.2055 51.6107 97.0905 47.0933 97.5351 46.5035C97.8573 46.0769 98.1759 45.8803 98.707 45.7655C99.4277 45.6258 100.802 45.8052 101.384 45.6584L101.445 45.499L101.432 44.4893L101.421 42.2442C101.532 42.1129 101.875 42.1357 102.157 42.0758L102.217 42.0627C102.47 42.0619 102.806 42.0491 103.052 42.0605Z" fill="#1C1C1C"/>
<path d="M103.052 42.0605L103.581 42.0273L103.701 42.0955L103.454 42.1849C103.134 42.2591 103.204 42.1914 103.055 42.403C103.048 42.6238 103.048 42.8068 103.054 43.0274C103.024 43.1165 102.986 43.2248 102.942 43.3524C102.527 43.6265 101.946 43.7724 101.656 44.199C101.604 44.2749 101.497 44.4032 101.432 44.4883L101.421 42.2442C101.532 42.1129 101.875 42.1347 102.157 42.0748L102.217 42.0627C102.47 42.0619 102.806 42.0491 103.052 42.0605Z" fill="#171A04"/>
<path d="M103.054 43.0274C103.048 42.8068 103.048 42.6238 103.055 42.403C103.204 42.1914 103.134 42.2591 103.454 42.1849C103.561 43.2534 103.477 44.6585 103.531 45.775C103.406 45.7463 103.288 45.7142 103.165 45.6815C102.981 45.4064 103.048 45.1361 103.058 44.7723L103.054 43.0274Z" fill="white"/>
<path d="M101.642 45.9608C102.418 45.9295 103.454 45.9729 104.251 45.9768L109.275 45.9792L112.909 45.9771C114.209 45.9764 116.042 45.6201 116.122 47.4744C116.188 48.9862 116.162 50.5496 116.106 52.0618C116.075 52.8798 115.238 53.2067 114.548 53.2746L114.521 54.7789L113.264 53.7443L112.646 53.2303C111.631 53.1882 110.395 53.2246 109.357 53.2237L102.175 53.2336C96.9791 53.2328 97.4881 53.5603 97.5072 48.2935C97.5116 47.0502 97.4237 46.6549 98.5296 46.0071C99.547 45.9747 100.615 45.9823 101.642 45.9608Z" fill="#B5FE28"/>
<path d="M101.323 48.3061L109.06 48.3117C110.356 48.3099 112.49 48.2392 113.673 48.3572L113.71 48.476L113.82 48.4527L113.753 48.371L113.876 48.4039L113.828 48.4737C113.347 48.6093 112.821 48.5715 112.317 48.5634L104.224 48.5637C102.9 48.5652 101.063 48.6312 99.7847 48.5299L99.7986 48.409L99.5957 48.4574L99.7056 48.5148L99.5869 48.4838L99.6316 48.4158C100.186 48.272 100.75 48.3032 101.323 48.3061Z" fill="#1C1C1C"/>
<path d="M99.3862 50.5771C99.8953 50.4819 102.241 50.5264 102.863 50.5237C104.948 50.5144 107.081 50.527 109.171 50.5216C109.51 50.5207 109.53 50.5308 109.712 50.7261C109.609 50.7394 109.503 50.7571 109.4 50.7577C106.565 50.773 103.731 50.7613 100.897 50.7644C100.443 50.7649 99.9927 50.7832 99.5444 50.719C99.4917 50.6717 99.439 50.6244 99.3862 50.5771Z" fill="#1A1832"/>
<path d="M101.366 35.7501C102.124 35.7484 102.978 35.7273 103.728 35.7471L103.775 35.7599L107.999 35.7441C108.646 35.7424 110.611 35.6245 110.999 36.0402C111.815 36.9171 111.425 39.3473 111.497 40.5142C111.538 41.1851 111.111 41.9732 110.406 42.0594C109.757 42.1571 108.955 42.1035 108.29 42.1173C106.824 42.1477 105.239 42.0528 103.783 42.1082L103.701 42.0955L103.581 42.0273L103.052 42.0605C102.806 42.0491 102.47 42.0619 102.217 42.0627L101.434 42.0571C100.378 42.0717 99.3017 42.0618 98.2426 42.0619C97.6735 42.5221 97.0912 43.0432 96.5346 43.5244L96.4848 42.1257C95.4704 41.9248 95.0925 41.5622 95.0529 40.4606C94.8573 35.0031 95.1437 35.7087 100.258 35.7579C100.623 35.7532 101.002 35.7427 101.366 35.7501Z" fill="white"/>
<path d="M96.4848 42.1257C95.4704 41.9248 95.0925 41.5622 95.0529 40.4606C94.8573 35.0031 95.1437 35.7087 100.258 35.7579C100.641 35.7875 101.025 35.8106 101.409 35.8281C101.418 36.2201 101.455 36.9127 101.429 37.2799C100.819 37.2795 97.2139 37.2247 96.8668 37.3739C97.6343 37.6005 100.42 37.4916 101.433 37.4916L101.439 38.7504L103.051 38.7561L103.51 38.7567L103.722 38.7655L104.772 38.7589C105.187 38.8 105.461 38.8233 105.881 38.8237L105.898 38.8974C105.617 38.9088 105.38 38.9112 105.101 38.9611L103.713 38.9614L103.552 38.9638C103.552 39.5657 103.512 41.4822 103.581 42.0273L103.052 42.0605C102.806 42.0491 102.47 42.0619 102.217 42.0627L101.434 42.0571C100.378 42.0717 99.3017 42.0618 98.2426 42.0619C97.6735 42.5221 97.0912 43.0432 96.5346 43.5244L96.4848 42.1257Z" fill="white"/>
<path d="M101.411 38.9665L103.063 38.9609L103.552 38.9638C103.552 39.5657 103.512 41.4822 103.581 42.0273L103.052 42.0605C102.806 42.0491 102.47 42.0619 102.217 42.0627L101.434 42.0571L101.406 40.4435C101.683 40.4415 101.728 40.4693 101.899 40.3297C101.72 40.1801 101.737 40.2284 101.452 40.2019L101.411 38.9665Z" fill="white"/>
<path d="M103.063 38.9609L103.552 38.9638C103.552 39.5657 103.512 41.4822 103.581 42.0273L103.052 42.0605C103.042 41.0271 103.045 39.9942 103.063 38.9609Z" fill="white"/>
<path d="M103.051 38.7561L103.51 38.7567L103.722 38.7655L104.772 38.7589C105.187 38.8 105.461 38.8233 105.881 38.8237L105.898 38.8974C105.617 38.9088 105.38 38.9112 105.101 38.9611L103.713 38.9614L103.552 38.9638L103.063 38.9609L101.411 38.9665C100.776 38.9669 97.2742 39.0017 96.8604 38.889C97.3203 38.6401 100.703 38.7488 101.439 38.7504L103.051 38.7561Z" fill="#1C1C1C"/>
<path d="M101.452 40.2019C101.737 40.2284 101.72 40.1801 101.899 40.3297C101.728 40.4693 101.683 40.4415 101.406 40.4435C100.494 40.4187 97.5859 40.4946 96.8638 40.3644C97.2966 40.1348 100.658 40.2357 101.452 40.2019Z" fill="#1C1C1C"/>
<path d="M101.366 35.7501C102.124 35.7484 102.978 35.7273 103.728 35.7471L103.775 35.7599C103.697 36.1542 103.725 36.8607 103.728 37.2902L103.521 37.2863L103.061 37.2783L101.429 37.2799C101.455 36.9127 101.418 36.2201 101.409 35.8281C101.025 35.8106 100.641 35.7875 100.258 35.7579C100.623 35.7532 101.002 35.7427 101.366 35.7501Z" fill="white"/>
<path d="M101.366 35.7501C102.124 35.7484 102.978 35.7273 103.728 35.7471L103.775 35.7599C103.697 36.1542 103.725 36.8607 103.728 37.2902L103.521 37.2863L103.061 37.2783C103.057 36.79 103.037 36.2524 103.095 35.7723C102.662 35.8564 101.877 35.8286 101.409 35.8281C101.025 35.8106 100.641 35.7875 100.258 35.7579C100.623 35.7532 101.002 35.7427 101.366 35.7501Z" fill="white"/>
<path d="M101.366 35.7501C102.124 35.7484 102.978 35.7273 103.728 35.7471L103.775 35.7599C103.697 36.1542 103.725 36.8607 103.728 37.2902L103.521 37.2863C103.537 36.9327 103.62 36.1547 103.433 35.8712C103.376 35.7858 103.222 35.7924 103.095 35.7723C102.662 35.8564 101.877 35.8286 101.409 35.8281C101.025 35.8106 100.641 35.7875 100.258 35.7579C100.623 35.7532 101.002 35.7427 101.366 35.7501Z" fill="white"/>
<path d="M101.433 37.4916L103.046 37.4973L103.051 38.7561L101.439 38.7504L101.433 37.4916Z" fill="white"/>
<path d="M101.429 37.2799L103.061 37.2783L103.521 37.2863L103.728 37.2902L104.843 37.2937C105.865 37.459 107.421 37.3944 108.472 37.3974C107.736 37.3978 104.28 37.3688 103.74 37.4791L103.521 37.4941L103.046 37.4973L101.433 37.4916C100.42 37.4916 97.6343 37.6005 96.8668 37.3739C97.2139 37.2247 100.819 37.2795 101.429 37.2799Z" fill="#1C1C1C"/>
<path d="M103.552 38.9638L103.713 38.9614L103.719 42.0288C105.54 42.0288 108.689 41.93 110.406 42.0594C109.757 42.1571 108.955 42.1035 108.29 42.1173C106.824 42.1477 105.239 42.0528 103.783 42.1082L103.701 42.0955L103.581 42.0273C103.512 41.4822 103.552 39.5657 103.552 38.9638Z" fill="white"/>
<path d="M104.843 37.2937C105.535 37.2799 108.876 37.1775 109.294 37.4232C108.825 37.5045 104.309 37.5383 103.74 37.4791C104.28 37.3688 107.736 37.3978 108.472 37.3974C107.421 37.3944 105.865 37.459 104.843 37.2937Z" fill="#1C1C1C"/>
<path d="M103.046 37.4973L103.521 37.4941C103.514 37.9092 103.5 38.3432 103.51 38.7567L103.051 38.7561L103.046 37.4973Z" fill="white"/>
<path d="M105.881 38.8237C106.973 38.7863 108.093 38.8715 109.161 38.8096L109.223 38.8924C108.837 38.9791 105.55 39.0029 105.101 38.9611C105.38 38.9112 105.617 38.9088 105.898 38.8974L105.881 38.8237Z" fill="#1C1C1C"/>
<path d="M105.881 38.8237C106.973 38.7863 108.093 38.8715 109.161 38.8096L109.223 38.8924C108.127 38.8635 107.001 38.9039 105.898 38.8974L105.881 38.8237Z" fill="#1C1C1C"/>
<path d="M103.521 37.4941L103.74 37.4791C103.738 37.8551 103.75 38.4042 103.722 38.7655L103.51 38.7567C103.5 38.3432 103.514 37.9092 103.521 37.4941Z" fill="white"/>
<path d="M104.772 38.7589C105.412 38.72 108.583 38.7172 109.161 38.8096C108.093 38.8715 106.973 38.7863 105.881 38.8237C105.461 38.8233 105.187 38.8 104.772 38.7589Z" fill="#1C1C1C"/>
<path d="M150 40.7975L150 44.7768C148.798 45.2145 148.481 45.2374 147.216 45.1582C147.904 44.5684 148.583 43.9425 149.12 43.2082C148.128 43.8815 144.131 46.8871 143.209 45.1215C143.931 44.5328 144.573 43.8653 145.286 43.227C145.918 42.6628 146.644 42.6468 147.396 42.339C148.252 41.9891 149.255 41.2971 150 40.7975Z" fill="#D9DBD5"/>
<path d="M103.803 35.6049C105.89 35.5474 108.027 35.5614 110.112 35.6102C112.129 35.6573 111.621 37.9142 111.659 39.2581C111.682 40.0563 111.843 41.1686 111.253 41.7728C111.041 41.9925 110.767 42.1412 110.467 42.1982C109.917 42.3059 108.588 42.2721 107.964 42.2713L103.765 42.2599L103.782 42.1092C105.238 42.0538 106.824 42.1477 108.29 42.1173C108.955 42.1035 109.757 42.1571 110.406 42.0594C111.111 41.9732 111.538 41.1851 111.497 40.5142C111.425 39.3473 111.815 36.9171 110.999 36.0402C110.611 35.6245 108.646 35.7424 107.999 35.7441L103.775 35.7599L103.728 35.7471L103.803 35.6049Z" fill="#1C1C1C"/>
<path d="M48.4907 70.2822L48.6095 70.3591C48.6011 70.3826 46.3112 72.9333 46.0858 73.2365C44.1045 75.9015 43.1352 78.7264 42.279 81.8836L42.1802 81.8646L42.1118 81.7438C43.0525 77.2042 45.0578 73.418 48.4907 70.2822Z" fill="#1C1C1C"/>
<path d="M44.674 71.5312L44.7692 71.5912C44.7851 71.845 44.4376 72.1316 44.2602 72.347C43.0923 73.7651 42.42 75.2471 41.8351 76.9665L41.6903 76.9066C41.6494 76.7028 41.8399 76.291 41.9077 76.0828C42.4884 74.2997 43.4841 72.9375 44.674 71.5312Z" fill="#1C1C1C"/>
<path d="M77.524 26.417C77.524 26.2019 77.524 26.0944 77.5645 26.0116C77.6033 25.9324 77.6674 25.8684 77.7466 25.8296C77.8293 25.7891 77.9368 25.7891 78.1519 25.7891H78.9494C79.1644 25.7891 79.272 25.7891 79.3547 25.8296C79.4339 25.8684 79.4979 25.9324 79.5367 26.0116C79.5772 26.0944 79.5772 26.2019 79.5772 26.417V27.2144C79.5772 27.4295 79.5772 27.537 79.5367 27.6197C79.4979 27.6989 79.4339 27.763 79.3547 27.8018C79.272 27.8423 79.1644 27.8423 78.9494 27.8423H78.1519C77.9368 27.8423 77.8293 27.8423 77.7466 27.8018C77.6674 27.763 77.6033 27.6989 77.5645 27.6197C77.524 27.537 77.524 27.4295 77.524 27.2144V26.417Z" fill="#B5FE28"/>
<path fill-rule="evenodd" clip-rule="evenodd" d="M78.7114 26.8132C78.7926 26.8132 78.8722 26.7308 78.8722 26.6103C78.8722 26.4899 78.7926 26.4075 78.7114 26.4075C78.6301 26.4075 78.5505 26.4899 78.5505 26.6103C78.5505 26.7308 78.6301 26.8132 78.7114 26.8132Z" fill="#1C1C1C"/>
<path fill-rule="evenodd" clip-rule="evenodd" d="M78.8722 26.6103C78.8722 26.7308 78.7926 26.8132 78.7114 26.8132C78.6301 26.8132 78.5505 26.7308 78.5505 26.6103C78.5505 26.4899 78.6301 26.4075 78.7114 26.4075C78.7926 26.4075 78.8722 26.4899 78.8722 26.6103Z" fill="#B5FE28"/>
<path fill-rule="evenodd" clip-rule="evenodd" d="M79.0163 26.8132H78.92C78.9597 26.757 78.9828 26.6853 78.9828 26.6103C78.9828 26.4436 78.8688 26.2931 78.7114 26.2931C78.6067 26.2931 78.5213 26.3596 78.4757 26.4532C78.4348 26.4083 78.3793 26.3798 78.3151 26.3798C78.1775 26.3798 78.0797 26.5108 78.0797 26.6537C78.0797 26.7114 78.0957 26.7672 78.1238 26.8132H78.0472L78.0649 26.5361C78.0735 26.4012 78.166 26.2878 78.2931 26.2562L78.6477 26.1679C78.8356 26.1211 79.0163 26.2684 79.0163 26.4682V26.8132Z" fill="white"/>
<path fill-rule="evenodd" clip-rule="evenodd" d="M79.1269 26.4682C79.1269 26.1944 78.8793 25.9926 78.6218 26.0567L78.2672 26.145C78.0931 26.1883 77.9664 26.3437 77.9546 26.5286L77.922 27.0375C77.9076 27.2633 78.0675 27.461 78.285 27.486L78.6722 27.5307C78.9147 27.5587 79.1269 27.3624 79.1269 27.1101V26.4682ZM78.7114 26.8132C78.7926 26.8132 78.8722 26.7308 78.8722 26.6103C78.8722 26.4899 78.7926 26.4075 78.7114 26.4075C78.6301 26.4075 78.5505 26.4899 78.5505 26.6103C78.5505 26.7308 78.6301 26.8132 78.7114 26.8132ZM79.0163 26.9276H78.0399L78.0324 27.045C78.0219 27.2099 78.1386 27.3541 78.2973 27.3724L78.6845 27.417C78.8615 27.4374 79.0163 27.2942 79.0163 27.1101V26.9276ZM78.1903 26.6537C78.1903 26.5571 78.2537 26.4942 78.3151 26.4942C78.3765 26.4942 78.4399 26.5571 78.4399 26.6537C78.4399 26.7502 78.3765 26.8132 78.3151 26.8132C78.2537 26.8132 78.1903 26.7502 78.1903 26.6537ZM78.92 26.8132H79.0163V26.4682C79.0163 26.2684 78.8356 26.1211 78.6477 26.1679L78.2931 26.2562C78.166 26.2878 78.0735 26.4012 78.0649 26.5361L78.0472 26.8132H78.1238C78.0957 26.7672 78.0797 26.7114 78.0797 26.6537C78.0797 26.5108 78.1775 26.3798 78.3151 26.3798C78.3793 26.3798 78.4348 26.4083 78.4757 26.4532C78.5213 26.3596 78.6067 26.2931 78.7114 26.2931C78.8688 26.2931 78.9828 26.4436 78.9828 26.6103C78.9828 26.6853 78.9597 26.757 78.92 26.8132Z" fill="#1C1C1C"/>
<path fill-rule="evenodd" clip-rule="evenodd" d="M78.0399 26.9276H79.0163V27.1101C79.0163 27.2942 78.8615 27.4374 78.6845 27.417L78.2973 27.3724C78.1386 27.3541 78.0219 27.2099 78.0324 27.045L78.0399 26.9276Z" fill="#B5FE28"/>
<path d="M78.3151 26.4942C78.2537 26.4942 78.1903 26.5571 78.1903 26.6537C78.1903 26.7502 78.2537 26.8132 78.3151 26.8132C78.3765 26.8132 78.4399 26.7502 78.4399 26.6537C78.4399 26.5571 78.3765 26.4942 78.3151 26.4942Z" fill="#B5FE28"/>
<path d="M79.8852 27.3285V26.3024H80.2238C80.323 26.3024 80.4005 26.3249 80.4564 26.3701C80.5134 26.4152 80.5418 26.4785 80.5418 26.56C80.5418 26.6091 80.531 26.6528 80.5094 26.691C80.4878 26.7283 80.4574 26.7573 80.4182 26.7779C80.4771 26.7956 80.5212 26.8265 80.5507 26.8706C80.5801 26.9138 80.5948 26.9688 80.5948 27.0355C80.5948 27.1278 80.5659 27.1999 80.508 27.2519C80.4501 27.303 80.3686 27.3285 80.2636 27.3285H79.8852ZM80.0354 27.1901H80.2533C80.3819 27.1901 80.4461 27.1361 80.4461 27.0282C80.4461 26.9761 80.4309 26.9359 80.4005 26.9074C80.3711 26.879 80.3293 26.8647 80.2754 26.8647H80.0354V27.1901ZM80.0354 26.7308H80.2415C80.2867 26.7308 80.323 26.7175 80.3504 26.691C80.3789 26.6645 80.3931 26.6282 80.3931 26.5821C80.3931 26.5369 80.3784 26.5021 80.349 26.4776C80.3195 26.453 80.2778 26.4408 80.2238 26.4408H80.0354V26.7308Z" fill="#1C1C1C"/>
<path d="M81.3243 27.1662L81.337 27.3285H81.5176V26.6877C81.5176 26.566 81.4808 26.4716 81.4072 26.4047C81.335 26.3365 81.2326 26.3024 81.1002 26.3024C81.0159 26.3024 80.9376 26.3171 80.8653 26.3465C80.7944 26.3746 80.7295 26.4194 80.6707 26.481L80.7931 26.6074C80.8372 26.5593 80.8834 26.5245 80.9316 26.5031C80.9811 26.4817 81.0326 26.471 81.0861 26.471C81.1624 26.471 81.2206 26.4897 81.2607 26.5272C81.3008 26.5646 81.3209 26.6181 81.3209 26.6877V26.7198H81.0239C80.9744 26.7198 80.9276 26.7245 80.8834 26.7339C80.8406 26.7419 80.8025 26.7566 80.769 26.778C80.7329 26.7994 80.7034 26.8302 80.6807 26.8703C80.658 26.9091 80.6466 26.956 80.6466 27.0108C80.6466 27.0737 80.662 27.1292 80.6927 27.1774C80.7235 27.2242 80.767 27.261 80.8232 27.2878C80.8794 27.3146 80.9443 27.3279 81.0179 27.3279C81.0821 27.3279 81.1396 27.3146 81.1905 27.2878C81.2426 27.261 81.2861 27.2222 81.3209 27.1714C81.3221 27.1697 81.3232 27.1679 81.3243 27.1662ZM81.3209 26.8683V26.8964C81.3209 26.9486 81.3082 26.9954 81.2828 27.0369C81.2574 27.0771 81.2233 27.1092 81.1804 27.1333C81.139 27.156 81.0928 27.1674 81.042 27.1674C80.9817 27.1674 80.9336 27.1533 80.8975 27.1252C80.8613 27.0971 80.8433 27.0597 80.8433 27.0128C80.8433 26.9888 80.8479 26.968 80.8573 26.9506C80.8667 26.9319 80.8794 26.9165 80.8954 26.9045C80.9155 26.8897 80.9396 26.8804 80.9677 26.8764C80.9971 26.871 81.0252 26.8683 81.052 26.8683H81.3209Z" fill="#1C1C1C"/>
<path d="M82.1429 26.4691L81.5817 27.1872V27.3287H82.3727V27.1622H81.8285L82.3747 26.4525V26.3026H81.6078V26.4691H82.1429Z" fill="#1C1C1C"/>
<path d="M82.8626 27.329C82.7689 27.329 82.6853 27.3069 82.6116 27.2627C82.538 27.2185 82.4798 27.1576 82.4369 27.08C82.3954 27.0023 82.3747 26.914 82.3747 26.8149C82.3747 26.7159 82.3954 26.6282 82.4369 26.5519C82.4784 26.4742 82.536 26.4133 82.6096 26.3691C82.6846 26.325 82.7689 26.3029 82.8626 26.3029C82.9577 26.3029 83.0414 26.325 83.1136 26.3691C83.1859 26.4133 83.2428 26.4742 83.2843 26.5519C83.3272 26.6282 83.3486 26.7159 83.3486 26.8149C83.3486 26.914 83.3272 27.0023 83.2843 27.08C83.2428 27.1563 83.1853 27.2172 83.1116 27.2627C83.0393 27.3069 82.9563 27.329 82.8626 27.329ZM82.8626 27.1543C82.9215 27.1543 82.9724 27.1402 83.0152 27.1121C83.0594 27.084 83.0929 27.0445 83.1156 26.9936C83.1397 26.9428 83.1518 26.8832 83.1518 26.8149C83.1518 26.7453 83.1397 26.6851 83.1156 26.6342C83.0929 26.5833 83.0594 26.5445 83.0152 26.5177C82.9724 26.4896 82.9215 26.4756 82.8626 26.4756C82.8024 26.4756 82.7502 26.4896 82.706 26.5177C82.6632 26.5458 82.6297 26.5853 82.6056 26.6362C82.5828 26.6857 82.5715 26.7453 82.5715 26.8149C82.5715 26.8832 82.5828 26.9428 82.6056 26.9936C82.6297 27.0445 82.6632 27.084 82.706 27.1121C82.7502 27.1402 82.8024 27.1543 82.8626 27.1543Z" fill="#1C1C1C"/>
</g>
<defs>
<clipPath id="clip0_923_65008">
<rect width="150" height="150" fill="white"/>
</clipPath>
</defs>
</svg>
