<svg width="150" height="150" viewBox="0 0 150 150" fill="none" xmlns="http://www.w3.org/2000/svg">
<path d="M50.9044 16.1301C53.5135 16.0683 55.4597 15.925 57.866 14.709C58.4087 14.4348 59.5588 13.6536 59.8767 13.5166C60.121 13.935 59.9597 15.2567 59.8351 15.7272C59.5081 16.961 58.9297 17.658 57.9786 18.4678C59.9833 18.6942 60.9082 18.5613 62.6987 17.6181C62.0316 20.5049 60.916 22.0361 58.4537 23.6812C59.6009 23.6499 60.1475 23.529 61.2455 23.1692C60.5535 24.2152 60.1156 24.6296 58.9621 25.1576C58.9467 26.0157 58.8721 26.7272 58.7848 27.5786C60.2322 27.8806 60.7336 29.0817 60.4065 30.4718C60.1386 31.6102 59.2715 32.2426 58.2285 32.6443C58.2462 33.951 58.1823 34.1942 57.6865 35.4211C57.9964 36.682 58.3409 37.9342 58.7198 39.1761C60.1626 39.2426 61.6059 39.3006 63.0495 39.3502C64.2799 39.3944 65.6282 39.3626 66.827 39.669C69.1456 40.2616 76.0272 46.4023 77.8092 48.3259C78.4757 49.0447 78.5402 49.756 78.5263 50.6873L80.8473 52.7464C82.578 52.208 83.7309 53.1701 84.4237 54.6979L87.2611 40.0312L88.0185 36.0824C88.4726 33.716 88.7223 32.0657 90.8449 30.591C93.1813 28.9676 95.4042 29.6568 97.9486 30.1373L126.619 35.5782C128.595 35.9681 129.875 36.5505 131.039 38.2788C132.511 40.4634 131.899 42.6544 131.458 45.0222C130.722 48.9603 129.899 52.9052 129.23 56.85C131.652 56.0263 134.581 55.632 135.604 58.7795C136.946 62.911 130.427 64.8824 127.478 66.0603C127.349 66.6927 127.224 67.3262 127.106 67.9609C128.31 68.3979 129.296 68.8028 130.215 69.7673C132.322 71.9798 132.04 76.1612 129.465 77.9043C128.978 78.2339 128.341 78.5474 127.811 78.8308C128.971 80.0701 129.264 81.2749 129.242 82.9412C129.224 84.2639 128.731 86.4825 127.663 87.3335C126.774 88.041 125.038 89.1426 123.93 89.4246C125.019 90.1577 125.782 90.8565 126.047 92.2056C126.261 93.2925 126.143 94.7017 125.493 95.6187C124.537 96.9678 122.914 97.5633 121.335 97.4878L118.803 110.66C118.491 112.298 118.168 113.945 117.867 115.585C117.53 117.424 116.778 118.954 115.176 120.025C114.14 120.706 112.922 121.053 111.682 121.023C110.828 120.995 108.735 120.559 107.814 120.387C105.287 119.918 102.764 119.436 100.243 118.938L86.3895 116.305C84.0949 115.872 81.7965 115.439 79.5019 115.004C77.6913 114.659 76.2243 113.882 75.1806 112.307C74.5111 111.293 74.1493 110.107 74.1398 108.892C74.1303 107.518 75.1051 103.089 75.4127 101.493L77.9616 88.2564C78.2882 86.533 78.7423 84.5137 79.0023 82.8203C78.861 82.5882 78.0465 81.9575 77.7975 81.6631C75.9247 79.4483 74.7865 76.7881 73.6044 74.1587C72.6058 71.9333 71.5907 69.7155 70.5589 67.5055C69.874 66.0693 68.804 65.0758 67.7427 63.9181C67.2446 63.3748 65.887 60.6698 65.3699 60.487C65.019 62.4745 64.54 65.748 64.0305 67.6109C63.2131 71.5653 62.7654 75.6243 61.9678 79.5801C61.8068 80.3792 60.5312 80.5879 59.8568 80.7212C60.3389 84.7993 60.5418 89.6128 60.8781 93.7906C61.4958 101.431 62.1702 109.067 62.9013 116.698C63.077 118.634 63.272 120.569 63.4861 122.501C63.5422 123.029 63.8718 125.362 63.692 125.655C63.4483 125.83 63.0297 125.764 62.7069 125.753C62.7761 126.556 62.8581 127.358 62.9527 128.159C63.3479 128.491 63.509 128.779 63.6152 129.286C63.9603 130.933 64.2306 132.736 64.3783 134.408C64.3842 134.474 64.3896 134.541 64.3946 134.607L67.9217 134.597C68.3807 134.595 69.3203 134.463 69.6276 134.763C69.6386 135.012 69.6808 134.911 69.5509 135.092C68.7961 135.236 65.5538 135.156 64.624 135.156L53.9563 135.172L29.0836 135.161C25.0188 135.161 20.9414 135.157 16.8752 135.173C16.4945 135.175 16.1871 135.107 15.834 134.967L15.7334 134.846C15.9401 134.629 16.5038 134.583 16.7945 134.585C19.538 134.609 22.2893 134.601 25.0327 134.6L43.1411 134.596C43.1077 133.365 43.02 132.142 43.9654 131.17C44.7499 130.365 45.6368 130.333 46.6018 130.059L47.7732 126.879C47.3795 126.27 47.0047 125.692 46.7535 125.007C47.1101 124.049 47.7514 124.272 47.0794 123.348C46.537 123.651 45.5948 124.212 45.0486 124.42C44.2082 123.466 43.388 122.365 42.6017 121.343C39.2031 116.931 35.8833 112.319 33.0237 107.543C31.6768 105.295 29.9789 102.528 30.3443 99.833C30.7089 97.145 31.1211 93.8938 31.8072 91.2644C30.9989 90.2266 29.7178 88.7757 29.2576 87.5738C29.0547 87.0442 28.7288 84.573 28.8468 84.0266C29.1296 82.7163 29.9288 81.0501 30.4854 79.8028C30.2028 79.7786 29.9425 79.791 29.7202 79.6248C29.6535 79.3955 29.6911 79.2564 29.7903 79.0293C32.0414 73.8731 34.6056 68.8564 36.9772 63.7559C37.4212 62.8011 37.8266 61.3013 38.126 60.2675C37.7148 60.0715 37.2101 59.8469 36.8282 59.6153C37.4512 58.1198 38.5244 55.771 39.2554 54.4044C40.2747 52.4994 41.8968 48.0715 43.3698 46.7331C44.7248 45.5018 48.6773 42.9928 50.3318 41.9585C50.103 40.8055 49.7562 39.7101 49.3975 38.5924C47.7941 37.6399 47.276 37.3909 46.4375 35.6509C45.5195 35.7446 44.64 35.6466 43.918 35.0155C42.7993 34.0377 42.2731 32.2886 43.7373 31.3693C42.5614 29.6656 40.7647 26.9581 41.0271 24.769C41.1299 23.9108 41.7167 23.2523 42.3789 22.7386C39.9962 21.1323 40.5678 19.1745 42.324 17.3996C41.859 19.0785 42.0711 20.1666 42.5964 21.7872C42.6619 20.0285 43.0282 18.8448 44.3381 17.5901C46.9109 15.1257 50.2946 15.6143 53.0409 13.6487C52.3662 14.8554 51.9311 15.2407 50.9044 16.1301Z" fill="#0C0C0C"/>
<path d="M65.6789 59.3613C67.114 61.0446 67.6547 62.6897 70.139 62.0823C71.556 64.0356 72.811 66.56 74.0422 68.6645C74.5241 69.4893 76.3266 72.41 76.4848 73.0581C77.2114 76.0403 77.5673 77.5938 79.5075 80.2466C79.3493 81.0984 79.1979 81.9788 79.0023 82.8203C78.861 82.5882 78.0465 81.9575 77.7975 81.6631C75.9247 79.4483 74.7865 76.7881 73.6044 74.1587C72.6058 71.9333 71.5907 69.7155 70.5589 67.5055C69.874 66.0693 68.804 65.0758 67.7427 63.9181C67.2446 63.3748 65.887 60.6698 65.3699 60.487C65.4753 60.1662 65.3909 59.69 65.6789 59.3613Z" fill="#D9DBD5"/>
<path d="M61.6406 53.6934C62.5588 54.7776 64.7453 58.7308 65.6446 59.3178L65.6789 59.3613C65.3909 59.69 65.4753 60.1662 65.3699 60.487C65.019 62.4745 64.54 65.748 64.0305 67.6109C63.9642 66.3298 63.4702 64.1385 63.2347 62.7886C62.7075 59.7659 62.0921 56.7304 61.6406 53.6934Z" fill="#D9DBD5"/>
<path d="M61.6406 53.6934C61.5348 53.3888 61.5389 53.5392 61.6281 53.228L61.7254 53.1504C61.9238 53.1949 61.9958 53.2262 62.1232 53.407C63.3491 55.1457 64.4557 56.969 65.6766 58.7128C65.8446 58.9528 65.7737 59.0732 65.6446 59.3178C64.7453 58.7308 62.5588 54.7776 61.6406 53.6934Z" fill="#D9DBD5"/>
<path d="M94.9544 32.7819C95.7028 32.7202 101.694 33.7856 101.688 34.18C101.637 37.1902 102.029 37.5281 105.577 38.205L109.447 38.9302C111.746 39.3608 114.067 39.9424 116.38 40.2596C119.576 40.698 119.063 38.1507 119.981 37.5354C120.194 37.3925 124.483 38.2857 125.056 38.4103C126.325 38.6863 127.407 39.2185 128.126 40.3708C128.597 41.1259 128.856 42.0252 128.82 42.9184C128.768 44.1886 128.396 45.5396 128.154 46.7916L126.869 53.5014L124.672 65.0752C124.259 67.2662 123.85 69.7053 123.355 71.8612C122.361 72.4475 121.27 72.992 120.616 73.9637C119.939 74.9603 119.687 76.1955 119.888 77.3833C120.115 78.7142 120.765 79.4649 121.816 80.2055C121.7 80.7742 121.573 81.3408 121.435 81.9045C120.351 82.6724 119.707 83.3425 119.457 84.7467C119.234 85.9583 119.499 87.2094 120.191 88.2239C119.993 89.3657 119.787 90.5772 119.538 91.7083C119.358 92.3496 118.935 92.904 118.835 93.5719C118.749 94.1543 118.911 94.7461 118.809 95.327C118.221 98.687 117.56 102.033 116.922 105.384L115.884 110.933C115.631 112.284 115.288 114.764 114.689 115.899C114.623 115.997 114.557 116.093 114.487 116.187C113.758 117.159 112.746 117.812 111.537 117.971C110.112 118.158 104.776 116.897 102.991 116.551L85.4073 113.176C83.7347 112.861 80.1446 112.409 78.9505 111.468C77.9807 110.693 77.3555 109.561 77.2124 108.321C77.1248 107.537 78.3801 101.45 78.6308 100.148L89.6062 42.6016C89.9865 40.5995 90.3717 38.596 90.7655 36.597C91.2219 34.2819 92.6595 33.0464 94.9544 32.7819Z" fill="white"/>
<path d="M101.271 65.4824L102.293 65.7057L102.055 66.5789L101.21 66.3975L100.969 67.2647C101.569 67.4102 102.196 67.5424 102.801 67.6788C102.984 67.1076 103.184 66.5284 103.31 65.9431C103.822 66.026 104.391 66.1519 104.905 66.2537C104.688 67.1375 104.58 68.0832 104.347 69.0158C104.973 69.1116 105.483 69.2276 106.102 69.3721L106.132 69.257C106.344 68.4235 105.916 67.6939 106.135 67.3825C106.184 67.6286 106.175 67.8106 106.176 68.0592L106.234 68.069C106.28 67.8226 106.267 67.63 106.411 67.4871C106.715 67.5661 107.008 67.6406 107.309 67.7333C107.364 67.4124 107.416 67.082 107.48 66.7639L108.387 66.9763C108.271 67.5837 108.16 68.2159 108.032 68.8187L107.161 68.6421L106.967 69.5723L106.175 69.4193C106.134 69.6986 106.096 70.0097 106.047 70.2846C106.31 70.3311 106.594 70.374 106.849 70.4443L106.659 71.346L107.597 71.5255C107.248 73.0051 107.018 74.5367 106.671 75.9796L107.582 76.2125L107.94 74.3712C108.748 74.5601 109.891 74.7593 110.641 74.9732L110.485 75.8726C109.89 75.7547 109.275 75.6412 108.683 75.513L108.506 76.3494L109.351 76.5128L109.121 77.3931C109.422 77.473 109.748 77.5667 110.052 77.6297L109.84 78.4544C110.138 78.5167 110.394 78.5636 110.686 78.6639C110.63 78.932 110.517 79.2908 110.575 79.5303C110.813 79.6446 110.795 79.6497 111.055 79.6366C111.278 79.2513 111.042 78.9986 111.261 78.7855C111.829 78.825 112.896 79.1129 113.501 79.241C113.297 80.1668 113.131 81.1175 112.928 82.0242C112.636 81.9715 112.293 81.9188 112.008 81.8477L111.79 82.7801L110.92 82.6138C110.868 82.939 110.848 83.303 110.672 83.566C110.49 83.6502 110.495 83.6341 110.291 83.6099L110.153 83.7315L110.149 84.0025C110.029 83.8245 110.059 83.8604 109.988 83.6473L109.9 83.6261C109.718 83.919 109.598 84.7108 109.51 85.1026L110.392 85.3018L110.585 84.3211L111.425 84.5687L111.627 83.6319C111.945 83.6993 112.271 83.7652 112.588 83.8377C112.407 84.6903 112.234 85.5443 112.068 86.399L111.098 86.1793L110.881 87.0802C110.153 86.919 109.453 86.3016 108.798 85.8101C108.744 85.8321 108.689 85.8541 108.635 85.8761C108.344 86.3053 108.296 86.7659 108.181 87.283L110.003 87.7042L109.86 88.4871C110.197 88.5457 110.342 88.6278 110.632 88.523C110.81 88.263 110.848 88.0938 111.085 87.981C111.374 88.0154 111.472 88.0389 111.754 88.1165C111.516 89.1031 111.332 90.0311 111.14 91.0286C110.55 90.9049 109.93 90.7847 109.345 90.65L109.782 88.608L108.89 88.4388C108.776 89.1133 108.671 89.8326 108.505 90.4932C107.904 90.3731 107.275 90.2574 106.679 90.1241L106.873 89.1976L107.803 89.4276L108.095 88.0462C107.697 88.033 107.536 88.0286 107.149 87.9459C107.072 88.3472 106.996 88.7867 106.907 89.1829C105.977 89.0123 105.049 88.8336 104.122 88.6461C104.076 88.9727 104.035 89.3009 103.964 89.6239L103.009 89.4232L103.267 88.4241C102.988 88.3685 102.596 88.2769 102.324 88.2418C102.13 88.2147 101.718 88.107 101.51 88.0594C101.568 87.8228 101.619 87.5496 101.671 87.3079L101.238 87.2047C100.789 87.0421 100.299 86.9622 99.8284 86.8817C99.2776 86.793 98.6148 86.64 98.0588 86.5279L97.7153 88.3223C97.1338 88.2154 96.5867 88.0828 96.0132 87.9451C96.1516 87.3621 96.2534 86.7 96.3589 86.1046L97.1865 86.3382L97.3916 85.4403L96.5061 85.2498L96.6731 84.3292C97.27 84.4661 97.8662 84.6068 98.4609 84.7518L98.6287 83.8399L97.7329 83.6312L97.9233 82.7354L97.0188 82.5413L97.3872 80.7579C96.4915 80.5858 95.5979 80.4012 94.708 80.2027L94.8904 79.3414C93.9866 79.1451 93.0776 78.9715 92.165 78.8214C92.1167 79.1019 92.0757 79.3941 92.0318 79.6761C91.3814 79.5589 90.8621 79.4542 90.2227 79.2923L90.3933 78.3643L91.2297 78.5665L91.4524 77.6854L93.1253 78.0538L93.3069 77.1617C92.8184 77.024 92.1672 76.9017 91.6611 76.7911L91.8318 75.8411L92.7078 76.0623L92.8931 75.171C93.6196 75.316 94.9204 75.6383 95.5862 75.7262C95.7481 74.8092 95.9246 73.8944 96.115 72.9828L96.9771 73.1681C97.0027 72.9001 97.0818 72.5076 97.1279 72.232C97.7637 72.3624 98.3709 72.5125 99.0161 72.6341C99.0901 71.8022 99.5632 69.7278 99.7456 68.8516L100.566 69.0619L100.753 68.103L99.9082 67.9702C100.005 67.3692 100.118 66.7712 100.25 66.1768C100.53 66.2365 100.83 66.3181 101.11 66.3881L101.271 65.4824Z" fill="#0C0C0C"/>
<path d="M101.271 65.4824L102.293 65.7057L102.055 66.5789L101.21 66.3975L100.969 67.2647C101.569 67.4102 102.196 67.5424 102.801 67.6788C102.984 67.1076 103.184 66.5284 103.31 65.9431C103.822 66.026 104.391 66.1519 104.905 66.2537C104.688 67.1375 104.58 68.0832 104.347 69.0158L103.464 68.8309C103.269 69.728 103.107 70.639 102.911 71.528L102.079 71.3417L101.871 72.1829C101.555 72.1277 101.249 72.0776 100.937 72.0045C101.003 71.7376 101.106 71.3686 101.148 71.1064C100.868 71.0549 100.588 71.001 100.308 70.9448L100.091 71.8185L101.006 72.0637L100.814 72.9845L101.704 73.2159C101.635 73.4703 101.569 73.7442 101.485 73.9918C101.782 74.0467 102.111 74.1156 102.408 74.158C102.352 74.4825 102.298 74.8436 102.233 75.1622L101.343 74.96L101.115 75.8638L99.301 75.4771C99.2395 75.7642 99.2681 75.9049 99.0923 76.0543C98.8821 76.0228 98.6712 75.9942 98.4602 75.97C98.6023 76.129 98.7715 76.189 98.9656 76.2843C98.7232 76.2315 98.5686 76.2059 98.3225 76.1759L98.1306 77.1588C99.0308 77.3419 99.9917 77.5191 100.883 77.7198C100.934 77.3836 100.986 77.0482 101.04 76.7127L101.886 76.9295L101.154 80.6246C100.848 80.555 100.541 80.4876 100.233 80.4224L100.02 81.3446C99.7815 81.297 99.3567 81.2266 99.1421 81.1563L98.6279 83.8077C98.9011 83.8626 99.3201 83.9344 99.575 84.0157C99.4688 84.4859 99.1282 85.3992 99.3003 85.7266C99.4922 85.8021 99.4915 85.8021 99.6965 85.8248C100.235 86.013 99.9749 86.4232 99.8284 86.8817C99.2776 86.793 98.6148 86.64 98.0588 86.5279L97.7153 88.3223C97.1338 88.2154 96.5867 88.0828 96.0132 87.9451C96.1516 87.3621 96.2534 86.7 96.3589 86.1046L97.1865 86.3382L97.3916 85.4403L96.5061 85.2498L96.6731 84.3292C97.27 84.4661 97.8662 84.6068 98.4609 84.7518L98.6287 83.8399L97.7329 83.6312L97.9233 82.7354L97.0188 82.5413L97.3872 80.7579C96.4915 80.5858 95.5979 80.4012 94.708 80.2027L94.8904 79.3414C93.9866 79.1451 93.0776 78.9715 92.165 78.8214C92.1167 79.1019 92.0757 79.3941 92.0318 79.6761C91.3814 79.5589 90.8621 79.4542 90.2227 79.2923L90.3933 78.3643L91.2297 78.5665L91.4524 77.6854L93.1253 78.0538L93.3069 77.1617C92.8184 77.024 92.1672 76.9017 91.6611 76.7911L91.8318 75.8411L92.7078 76.0623L92.8931 75.171C93.6196 75.316 94.9204 75.6383 95.5862 75.7262C95.7481 74.8092 95.9246 73.8944 96.115 72.9828L96.9771 73.1681C97.0027 72.9001 97.0818 72.5076 97.1279 72.232C97.7637 72.3624 98.3709 72.5125 99.0161 72.6341C99.0901 71.8022 99.5632 69.7278 99.7456 68.8516L100.566 69.0619L100.753 68.103L99.9082 67.9702C100.005 67.3692 100.118 66.7712 100.25 66.1768C100.53 66.2365 100.83 66.3181 101.11 66.3881L101.271 65.4824Z" fill="#0C0C0C"/>
<path d="M97.1279 72.232C97.7637 72.3624 98.3709 72.5125 99.0161 72.6341L100.76 72.9831L100.441 74.7962C99.2239 74.5178 97.9597 74.3142 96.7768 74.0359C96.8479 73.7583 96.9382 73.449 96.9771 73.1681C97.0027 72.9001 97.0818 72.5076 97.1279 72.232Z" fill="white"/>
<path d="M97.1279 72.232C97.7637 72.3624 98.3709 72.5125 99.0161 72.6341C98.9656 72.9366 98.9216 73.2544 98.8418 73.5496C98.2588 73.4273 97.5549 73.2608 96.9771 73.1681C97.0027 72.9001 97.0818 72.5076 97.1279 72.232Z" fill="#0C0C0C"/>
<path d="M96.6895 74.9531L97.7031 75.1611C97.5925 75.4929 97.5281 75.7141 97.4512 76.054L96.5049 75.8555L96.2742 76.7834L97.1794 76.9373L97.0051 77.8359L97.9023 78.0454L97.6746 78.95L96.8477 78.7529L96.6858 79.6252C96.3818 79.6597 95.2751 79.3689 94.8987 79.2803L95.0818 78.4321C95.6399 78.5449 96.2983 78.6958 96.8528 78.7837L97.0439 77.9048C96.1855 77.6631 95.2429 77.4822 94.3662 77.2961C94.4146 77.02 94.46 76.7292 94.5149 76.4561L95.3835 76.6201C95.4473 76.3396 95.5351 76.0012 95.5864 75.7244C95.9526 75.7537 96.1416 75.7954 96.5027 75.8767L96.6895 74.9531Z" fill="white"/>
<path d="M98.8071 78.2373L99.6926 78.4768C99.5359 79.1873 99.2202 80.4624 99.1418 81.1553C98.7507 80.9744 97.8359 80.8052 97.4082 80.7202L97.5862 79.8464C98.0388 79.9482 98.4556 80.0237 98.865 80.2405C98.8452 79.9592 98.9045 79.6172 98.9412 79.3316C98.5244 79.1104 98.6211 79.0291 98.7266 78.5889L98.8071 78.2373Z" fill="white"/>
<path d="M98.9412 79.3316L99.1472 79.4009C99.093 79.6975 99.0367 79.9941 98.9788 80.29L98.865 80.2405C98.8452 79.9592 98.9045 79.6172 98.9412 79.3316Z" fill="#D9DBD5"/>
<path d="M100.643 69.1094L101.495 69.2779L102.393 69.4658L101.991 71.3242C101.749 71.2531 101.39 71.1342 101.148 71.1054L101.34 70.1712L100.444 69.9787L100.643 69.1094Z" fill="white"/>
<path d="M103.464 68.8291L104.347 69.014L104.147 69.9047C104.718 70.0355 105.389 70.2078 105.96 70.2873L105.751 71.2599L106.634 71.4375L106.292 73.2868L105.415 73.0716L105.258 73.8464C104.936 73.7834 103.759 73.5329 103.497 73.5359L103.155 75.3274L104.186 75.5427C104.25 75.2541 104.316 74.9634 104.376 74.6748L104.466 74.6916C104.832 74.759 105.171 74.685 105.457 74.7759L105.602 74.7092L105.859 75.0329L105.843 75.1106L105.744 75.093C105.508 75.0534 105.377 74.9992 105.169 75.0989C104.997 75.3625 105.052 75.2929 105.035 75.654C105.227 75.8078 105.57 75.8291 105.826 75.8723C105.692 76.4707 105.566 77.0713 105.45 77.674L106.268 77.8286L106.075 78.7361C105.499 78.5852 104.968 78.4665 104.384 78.3435C104.515 77.7817 104.64 77.2192 104.761 76.6552C104.167 76.5219 103.544 76.3938 102.955 76.2502C102.826 76.8611 102.702 77.4858 102.566 78.0937C102.796 78.1479 103.115 78.2322 103.344 78.2607L103.17 79.1264L105.928 79.6604L106.146 78.8027L107.056 78.9814C106.916 79.5879 106.791 80.1972 106.68 80.8095C106.216 80.7114 105.162 80.5239 104.744 80.3906L104.49 81.8313C104.414 82.2568 104.338 82.7219 104.246 83.1401C103.984 83.0757 103.684 82.9936 103.423 82.9424L103.569 82.0136C103.004 81.9045 102.44 81.7866 101.878 81.6584C101.947 81.3882 102.033 81.0827 102.092 80.8147L101.181 80.584C101.02 81.2299 100.916 81.7068 100.811 82.363L99.8843 82.1308L99.7144 83.1057L100.587 83.3371L100.361 84.1955C100.695 84.2702 100.974 84.3428 101.317 84.3684L101.304 84.4651C101.223 85.0232 100.857 85.8486 101.047 86.209C101.216 86.2771 101.239 86.2895 101.417 86.321C101.559 86.365 101.724 86.4096 101.86 86.4675C101.7 86.844 101.69 86.8967 101.671 87.3061L101.239 87.2029C100.789 87.0403 100.299 86.9604 99.8286 86.8799C99.9751 86.4214 100.235 86.0112 99.6968 85.823C99.4917 85.8003 99.4924 85.8003 99.3005 85.7248C99.1284 85.3974 99.469 84.4841 99.5752 84.0139C99.3203 83.9326 98.9014 83.8608 98.6282 83.8059L99.1418 81.1553C99.3564 81.2256 99.7817 81.2951 100.02 81.3427L100.234 80.4206C100.541 80.4858 100.848 80.5532 101.154 80.6228L101.887 76.9277L101.04 76.7109C100.986 77.0464 100.934 77.3818 100.883 77.718C99.9919 77.5173 99.031 77.3401 98.1309 77.157L98.3228 76.174C98.5688 76.2041 98.7234 76.2297 98.9658 76.2824C98.7717 76.1872 98.6025 76.1272 98.4604 75.9682C98.6714 75.9924 98.8823 76.021 99.0925 76.0525C99.2683 75.903 99.2397 75.7624 99.3013 75.4753L101.115 75.862L101.343 74.9582L102.233 75.1604C102.298 74.8418 102.352 74.4807 102.408 74.1562C102.112 74.1137 101.783 74.0449 101.485 73.99C101.57 73.7424 101.635 73.4685 101.704 73.2141L100.814 72.9827L101.006 72.0619L100.091 71.8167L100.308 70.943C100.588 70.9992 100.868 71.0539 101.148 71.1054C101.106 71.3676 101.003 71.7358 100.938 72.0027C101.249 72.0758 101.556 72.1259 101.871 72.1811L102.079 71.3399L102.911 71.5262C103.107 70.6372 103.27 69.7262 103.464 68.8291Z" fill="white"/>
<path d="M102.957 71.5195L103.834 71.7487L103.497 73.5359C103.144 73.4941 102.918 73.4587 102.571 73.3811C102.674 72.7247 102.806 72.1636 102.957 71.5195Z" fill="#0C0C0C"/>
<path d="M102.247 79.8711C102.711 80.0059 103.199 80.1047 103.673 80.2102C103.775 80.3926 103.745 80.394 103.752 80.6269L103.754 80.7075C103.842 80.3428 103.882 80.2952 104.071 79.9751L104.127 79.8828C104.086 80.2432 104.031 80.5918 103.977 80.95C103.939 81.2056 103.896 81.3433 103.823 81.593L103.803 81.2634C103.614 81.0393 102.45 80.8635 102.058 80.7778L102.247 79.8711Z" fill="#0C0C0C"/>
<path d="M104.754 71.8174C105.036 71.8711 105.337 71.9615 105.617 72.0373L105.45 72.9482C105.195 72.9328 104.829 72.8593 104.567 72.8157L104.754 71.8174Z" fill="#0C0C0C"/>
<path d="M103.247 83.8691L104.106 84.061C103.927 84.7788 103.648 85.9639 103.542 86.6963L102.67 86.4678C102.541 87.0383 102.381 87.6646 102.323 88.2402C102.129 88.2131 101.718 88.1055 101.51 88.0579C101.568 87.8213 101.619 87.5478 101.671 87.3061C101.69 86.8967 101.7 86.844 101.86 86.4675C101.85 86.0852 101.913 85.8936 101.998 85.5244L102.822 85.6775C102.955 85.0732 103.081 84.4646 103.247 83.8691Z" fill="white"/>
<path d="M111.465 79.7793L112.36 79.9705L112.161 80.8962L111.972 81.8594C111.693 81.7788 111.37 81.6755 111.093 81.6067C111.012 81.9216 110.912 82.2769 110.847 82.5911C110.396 82.4695 109.902 82.4197 109.678 82.0388C109.776 81.7451 109.798 81.8257 109.724 81.5781C109.593 81.4565 109.473 81.3445 109.334 81.2302C109.33 80.9351 109.415 80.6567 109.482 80.366L110.419 80.5344L110.21 81.477L111.096 81.6367C111.219 81.0354 111.367 80.3806 111.465 79.7793Z" fill="white"/>
<path d="M105.572 86.2061L106.459 86.4214L106.286 87.1392L106.086 88.1169C105.206 87.9258 104.27 87.7544 103.403 87.5537C103.452 87.2688 103.498 86.9839 103.542 86.6975C104.115 86.8206 104.782 86.9458 105.344 87.0872L105.572 86.2061Z" fill="white"/>
<path d="M108.949 78.252L109.84 78.4526C109.753 79.1008 109.615 79.7266 109.482 80.366L108.588 80.124C108.726 79.615 108.851 78.7917 108.949 78.252Z" fill="white"/>
<path d="M101.649 82.5771L102.504 82.7947C102.381 83.3608 102.26 83.9775 102.114 84.5342C101.891 84.4793 101.534 84.3774 101.317 84.3694C101.417 83.7703 101.527 83.1726 101.649 82.5771Z" fill="white"/>
<path d="M105.361 82.3613C106.246 82.5854 107.174 82.759 108.071 82.9407C107.854 83.7595 107.681 84.752 107.491 85.5986C106.604 85.4258 105.718 85.2478 104.833 85.0647C105.025 84.1667 105.2 83.2651 105.361 82.3613Z" fill="white"/>
<path d="M106.098 83.4434L107.041 83.6411L106.823 84.5544L105.917 84.3743L106.098 83.4434Z" fill="#0C0C0C"/>
<path d="M107.655 80.9141L108.503 81.1206C108.414 81.4224 108.354 81.7351 108.289 82.0442L107.457 81.8398L107.655 80.9141Z" fill="white"/>
<path d="M89.8307 95.4501C90.3133 95.4179 90.7762 95.4787 91.2486 95.5724C96.0475 96.5187 100.797 97.4218 105.598 98.3886C108.306 98.9342 109.37 101.597 107.98 103.948C107.441 104.859 106.483 105.254 105.486 105.464C104.248 105.514 99.6539 104.496 98.1898 104.213L92.5238 103.112C90.1676 102.651 87.2848 102.598 86.7098 99.7004C86.2748 97.5082 87.7323 95.8508 89.8307 95.4501Z" fill="#0C0C0C"/>
<path d="M89.6264 96.0348C89.9662 95.993 90.2929 95.993 90.6327 96.0384C93.0365 96.36 95.4543 96.943 97.8383 97.4073C99.5558 97.7421 105.447 98.6986 106.653 99.3343C107.257 99.6529 107.712 100.36 107.913 100.995C108.17 101.811 108.084 102.555 107.695 103.303C107.225 104.206 106.534 104.621 105.595 104.926C104.677 105.06 102.4 104.503 101.367 104.301L91.623 102.4C91.0627 102.29 89.3151 102.005 88.8859 101.75C86.1715 100.131 86.7926 96.9422 89.6264 96.0348Z" fill="#B5FE28"/>
<path d="M95.8302 100.523L96.0595 100.633C96.2389 100.923 96.1364 101.139 96.0683 101.511L98.787 102.06C98.842 101.73 98.8705 101.339 99.214 101.215C99.3576 101.416 99.2997 101.305 99.3217 101.605C99.2785 101.825 99.151 102.449 98.8691 102.437C98.1821 102.41 96.2843 102.138 95.7614 101.777C95.5365 101.331 95.6962 101.005 95.8302 100.523Z" fill="#0C0C0C"/>
<path d="M97.8676 98.5508C97.9731 98.6072 98.1057 98.6497 98.1416 98.7383C98.2836 99.084 97.9636 100.152 97.8772 100.527C98.2331 100.271 98.3576 100.141 98.7832 100.087L98.8183 100.175C98.5217 100.739 98.1745 100.889 97.6376 101.234C97.237 101.113 96.7141 100.283 96.7697 99.8376L96.8847 99.8047C97.1616 99.9548 97.281 100.196 97.4633 100.463C97.6142 99.793 97.6618 99.2363 97.8676 98.5508Z" fill="#1C1C1C"/>
<path d="M109.349 67.1338L115.649 68.3996L114.396 74.7432C112.389 74.2693 110.056 73.961 108.12 73.4366C108.477 71.4122 108.916 69.1333 109.349 67.1338Z" fill="#0C0C0C"/>
<path d="M110.095 68.1953C111.488 68.5418 113.164 68.8304 114.586 69.1097C114.234 70.4568 113.932 72.2511 113.664 73.6505C112.179 73.3612 110.672 73.0356 109.188 72.7261C109.539 71.3121 109.782 69.6534 110.095 68.1953Z" fill="white"/>
<path d="M110.778 69.2363C111.696 69.4331 112.616 69.6194 113.538 69.7951C113.363 70.7358 113.174 71.674 112.972 72.6091C112.102 72.3998 111.112 72.2175 110.223 72.0261L110.778 69.2363Z" fill="#0C0C0C"/>
<path d="M93.2185 63.8818C95.2905 64.3403 97.4204 64.7203 99.5071 65.1571C99.1087 67.279 98.6897 69.397 98.2503 71.5109L91.9976 70.2352C92.4356 68.1525 92.823 65.9761 93.2185 63.8818Z" fill="#0C0C0C"/>
<path d="M93.9834 64.9688C95.2483 65.2962 97.0742 65.5978 98.4153 65.8904C98.104 67.3987 97.811 68.9108 97.5378 70.4264L93.1045 69.5005C93.3726 68.0675 93.6465 66.3699 93.9834 64.9688Z" fill="white"/>
<path d="M94.6599 65.9951C95.5615 66.2035 96.4683 66.3914 97.3787 66.5586C97.2505 67.4236 97.0374 68.468 96.8616 69.3303C95.9453 69.1751 95.0335 68.991 94.1289 68.7782C94.2937 67.8481 94.4702 66.9204 94.6599 65.9951Z" fill="#0C0C0C"/>
<path d="M90.0305 80.2402L96.3147 81.4949C95.8686 83.3582 95.4643 85.8945 95.104 87.8091C93.0312 87.3711 90.8757 86.9888 88.7861 86.5691C89.1509 84.5271 89.6013 82.2676 90.0305 80.2402Z" fill="#0C0C0C"/>
<path d="M90.7649 81.3281C92.2319 81.5925 93.7363 81.917 95.2004 82.2136L94.3267 86.7414C92.8655 86.3855 91.3567 86.1519 89.8809 85.8054C90.2105 84.4512 90.4646 82.7454 90.7649 81.3281Z" fill="white"/>
<path d="M91.4639 82.3574C92.3655 82.5266 93.281 82.7222 94.1841 82.9001C94.0215 83.8289 93.8442 84.7554 93.6531 85.6797L90.9028 85.1355C91.0764 84.2068 91.2639 83.2803 91.4639 82.3574Z" fill="#0C0C0C"/>
<path d="M121.702 49.7168C121.978 49.7986 122.362 49.8769 122.65 49.945C122.386 51.4834 122.095 53.0172 121.778 54.5458C121.522 54.5046 121.207 54.4885 121.02 54.3306C120.995 54.1386 121.01 54.1378 120.9 53.984L120.781 53.9796C120.421 54.3467 120.293 54.3056 119.794 54.2467L119.696 54.2345C117.473 53.2473 119.4 49.0433 121.392 51.3555L121.702 49.7168Z" fill="#0C0C0C"/>
<path d="M120.393 51.4824C121.606 51.7366 121.275 52.9383 120.56 53.5696C119.361 53.4435 119.532 52.05 120.393 51.4824Z" fill="white"/>
<path d="M95.8635 44.7891C96.158 44.8376 96.5 44.922 96.7952 44.9867C96.5308 46.533 96.2473 48.076 95.9456 49.6153C95.6658 49.5594 95.2593 49.5179 95.0513 49.3674L95.0996 49.0962C94.9685 48.9721 94.6778 49.3914 93.9029 49.268L93.8142 49.253C91.5738 48.142 93.7718 44.0023 95.5772 46.4687C95.6563 45.8882 95.753 45.365 95.8635 44.7891Z" fill="#0C0C0C"/>
<path d="M94.4696 46.5674C95.7777 46.6247 95.4701 47.9438 94.7809 48.6017C93.5138 48.5638 93.7408 47.2271 94.4696 46.5674Z" fill="white"/>
<path d="M100.76 46.998C101.054 47.0354 101.422 47.1131 101.72 47.1667C101.8 47.9954 101.807 48.8223 101.825 49.6545C102.139 48.8821 102.476 48.1191 102.834 47.3665L103.726 47.5629C103.823 48.377 103.859 49.2335 103.892 50.0533C104.215 49.2801 104.542 48.5087 104.873 47.7391L105.855 47.9585L105.536 48.593C105.133 49.4818 104.712 50.3627 104.274 51.2351L103.286 51.0179C103.193 50.2217 103.149 49.4228 103.097 48.6229C102.856 49.1696 102.364 50.3516 102.057 50.8035L101.094 50.5994C100.941 49.4846 100.879 48.1545 100.76 46.998Z" fill="#0C0C0C"/>
<path d="M112.9 49.3145C113.265 49.3421 113.637 49.3943 113.96 49.5778C114.362 49.8039 114.65 50.1886 114.754 50.6378C115.019 51.7805 114.376 52.6908 113.268 52.9653C112.855 52.9372 112.474 52.906 112.115 52.6808C111.731 52.4386 111.46 52.0527 111.362 51.6093C111.096 50.4286 111.725 49.5247 112.9 49.3145Z" fill="#0C0C0C"/>
<path d="M113.01 50.0771C114.23 50.2803 113.897 51.6647 113.126 52.2338C111.923 51.9719 112.151 50.666 113.01 50.0771Z" fill="white"/>
<path d="M98.0633 46.5213C98.4493 46.494 98.7891 46.4848 99.1597 46.625C99.5948 46.7875 99.9471 47.1172 100.138 47.5409C100.611 48.6048 100.062 49.6893 99.011 50.1165C98.6705 50.1649 98.4105 50.1759 98.0706 50.0884C97.629 49.977 97.2547 49.6856 97.0379 49.2852C96.4593 48.2125 96.9954 47.0257 98.0633 46.5213Z" fill="#0C0C0C"/>
<path d="M98.3905 47.3067C99.6978 47.3017 99.3917 48.6928 98.7545 49.3721C97.4281 49.4304 97.6903 47.9863 98.3905 47.3067Z" fill="white"/>
<path d="M113.737 88.4434C114.033 88.4763 114.209 88.5312 114.394 88.7722C114.561 89.2974 114.022 91.1123 113.95 91.8052C113.609 95.0542 110.545 93.7849 108.558 93.366C108.13 93.262 107.796 93.158 107.91 92.6423C107.941 92.605 108.123 92.3794 108.177 92.3757C109.111 92.2834 111.247 93.1023 112.075 92.9844C113.336 92.8057 113.012 89.4526 113.737 88.4434Z" fill="#B5FE28"/>
<path d="M86.8414 83.0166C87.9328 83.3608 87.2604 84.4924 87.1637 85.2944C87.1 85.8247 86.6107 87.1248 86.8751 87.6294C87.4362 88.6995 90.7584 88.2659 91.1605 89.3008C91.1268 89.5703 91.0697 89.6165 90.913 89.834C87.7811 89.3403 84.8375 89.4055 86.1281 85.4329C86.3705 84.6851 86.2365 83.6692 86.8414 83.0166Z" fill="#B5FE28"/>
<path d="M113.455 65.083C113.963 65.0961 114.282 65.2213 114.799 65.3136C117.101 65.7243 119.264 65.8216 118.432 68.9005C118.216 69.6991 118.167 70.9819 117.695 71.7509C115.925 71.6495 118.122 68.123 117.542 67.1634C116.969 66.2156 113.692 66.6544 113.259 65.6669C113.243 65.3829 113.307 65.3254 113.455 65.083Z" fill="#B5FE28"/>
<path d="M88.5469 111.075C88.9608 111.113 89.8755 111.315 90.3311 111.403L93.6028 112.03C96.4981 112.583 99.4022 113.163 102.303 113.691C102.449 113.717 102.491 113.75 102.601 113.838C102.705 114.118 102.673 114.028 102.598 114.367C101.742 114.338 98.1878 113.602 97.2825 113.417C96.2784 113.213 88.8157 111.909 88.4839 111.617C88.4063 111.346 88.4451 111.4 88.5469 111.075Z" fill="#0C0C0C"/>
<path d="M92.0077 60.8787C92.8141 60.8129 95.8566 61.3297 96.4162 61.8761C96.7575 63.0354 94.1464 62.0941 93.6754 62.0368C92.7958 61.9296 91.9066 61.4562 91.5975 62.6233L91.5763 62.7068C91.3463 63.6899 91.1933 64.9139 90.8856 65.8847C90.8197 66.0944 90.5729 66.2806 90.351 66.36C89.7204 66.2206 90.0631 64.9268 90.1884 64.4412C90.6102 62.8067 90.255 61.6129 92.0077 60.8787Z" fill="#B5FE28"/>
<path d="M104.188 56.4762C104.551 56.4503 105.038 56.3341 105.291 56.6087C105.286 56.8668 105.173 56.9821 105.028 57.1992C104.624 57.336 104.34 57.3475 104.061 56.9881C104.039 56.676 104.035 56.7866 104.188 56.4762Z" fill="white"/>
<path d="M116.302 50.0412C119.083 49.8564 118.258 52.0445 117.914 53.7935C117.635 53.7619 117.323 53.7508 117.077 53.6323L117.09 53.3208C116.338 53.3119 116.611 53.8437 115.435 53.3527C115.129 53.1035 114.924 52.7294 114.994 52.321C115.192 51.145 116.852 51.6588 117.424 51.2204L117.423 51.1024C116.754 50.4838 116.157 51.2325 115.498 50.8595L115.467 50.7338C115.657 50.3191 115.89 50.2261 116.302 50.0412Z" fill="#0C0C0C"/>
<path d="M116.19 52.0845L117.346 52.082C117.16 52.4545 117.117 52.5347 116.849 52.85C116.441 52.9947 116.195 52.9438 115.977 52.5733C115.995 52.2594 115.973 52.3713 116.19 52.0845Z" fill="white"/>
<path d="M106.308 48.0176C106.589 48.0865 106.986 48.1184 107.156 48.27L107.112 48.6156C107.243 48.7321 107.637 48.1846 108.287 48.3489C109.843 48.742 109.05 50.8734 108.785 52.092L107.842 51.8834L108.083 50.6655C108.2 50.1007 108.379 49.2625 107.707 48.9612C106.877 49.1429 106.763 50.9556 106.617 51.6739L105.671 51.445C105.906 50.4622 106.121 49.0422 106.308 48.0176Z" fill="#0C0C0C"/>
<path d="M91.8162 71.1738C92.405 71.3156 93.0378 71.4308 93.6348 71.55L93.4736 72.4284L94.3386 72.6461L94.1877 73.5154L95.0608 73.697C95.0103 73.9797 94.9575 74.3262 94.8835 74.5979L93.9387 74.3884L94.1445 73.5754L93.2678 73.3455C93.1397 73.9526 93.0144 74.5598 92.8928 75.1684C92.301 75.0286 91.7063 74.8982 91.1094 74.7795L91.2705 73.8076L92.134 74.0574L92.4849 72.2977L91.6147 72.1042L91.8162 71.1738Z" fill="#0C0C0C"/>
<path d="M110.336 47.5889L111.315 47.7939C111.025 49.3281 110.745 50.864 110.474 52.4017L109.503 52.1944C109.771 50.6573 110.088 49.1304 110.336 47.5889Z" fill="#0C0C0C"/>
<path d="M111.562 75.123L113.325 75.5193L113.118 76.3733L114.052 76.582C113.906 77.1943 113.8 77.7451 113.687 78.3647L112.869 78.1787L111.923 77.9883C111.974 77.6909 112.039 77.387 112.098 77.0903L112.936 77.3262C112.993 77.0288 113.069 76.7183 113.136 76.4224C112.549 76.2847 111.971 76.1821 111.369 76.0349L111.562 75.123Z" fill="#0C0C0C"/>
<path d="M99.8286 86.8799C100.299 86.9604 100.789 87.0403 101.239 87.2029L101.671 87.3061C101.619 87.5478 101.568 87.8213 101.51 88.0579C101.718 88.1055 102.129 88.2131 102.323 88.2402C102.332 88.5735 102.247 88.9124 102.183 89.2434L101.245 89.0698L101.485 88.1733L99.6396 87.8137C99.6865 87.5229 99.7685 87.1736 99.8286 86.8799Z" fill="#0C0C0C"/>
<path d="M122.554 62.9678C122.696 63.0212 122.636 62.9993 122.754 63.14L122.737 63.3302C122.313 63.8669 120.324 64.9105 119.635 65.279C119.451 65.1256 119.442 65.0675 119.465 64.856C119.866 64.3633 121.881 63.3383 122.554 62.9678Z" fill="#B5FE28"/>
<path d="M125.525 44.875C125.677 44.9775 125.609 44.9154 125.692 45.1168C125.575 45.6548 123.187 47.5709 122.648 47.9718C122.506 47.8555 122.519 47.8507 122.441 47.6808C122.568 47.2489 125.034 45.2656 125.525 44.875Z" fill="#D0F96C"/>
<path d="M125.767 49.0947L125.977 49.0801C126.174 49.179 126.092 49.1091 126.215 49.3161L126.16 49.4578C125.738 49.7779 124.653 49.9029 124.089 49.9986C123.905 50.0341 123.904 50.0269 123.715 50.0061C123.577 49.7821 123.594 49.8961 123.638 49.6571C123.995 49.3164 125.23 49.185 125.767 49.0947Z" fill="#D0F96C"/>
<path d="M120.929 66.5478C121.332 66.5144 122.336 66.3452 122.522 66.8306C122.221 67.1572 121.756 67.0907 121.344 67.0891L121.033 67.0937C120.664 67.1014 120.292 67.1594 120.019 66.8593L120.069 66.7307C120.347 66.5302 120.577 66.5628 120.929 66.5478Z" fill="#B5FE28"/>
<path d="M119.034 61.8564C119.285 61.9295 119.19 61.8609 119.343 62.0447C119.37 62.5638 118.548 63.6805 118.237 64.1511C118.046 64.0489 118.018 64.0605 117.911 63.8803C117.949 63.2958 118.672 62.3434 119.034 61.8564Z" fill="#B5FE28"/>
<path d="M121.226 44.2588C121.499 44.37 121.406 44.2801 121.544 44.502C121.56 45.2208 121.14 46.2068 120.886 46.9055C120.703 46.8538 120.716 46.8575 120.588 46.7155C120.513 46.1422 120.977 44.7767 121.226 44.2588Z" fill="#B5FE28"/>
<path d="M90.7004 76.5967L91.6541 76.8179C91.6145 77.0918 91.5405 77.4038 91.4827 77.6785C91.1802 77.6367 90.8506 77.5737 90.5474 77.5225L90.7004 76.5967Z" fill="#0C0C0C"/>
<path d="M94.5132 71.7012L95.4492 71.9107C95.3687 72.2297 95.3013 72.4997 95.2427 72.8254C94.9446 72.7638 94.6375 72.6946 94.3386 72.6461C94.3892 72.3468 94.4407 71.9913 94.5132 71.7012Z" fill="#0C0C0C"/>
<path d="M98.7744 87.6064L99.6396 87.8137C99.6213 88.0906 99.5237 88.4143 99.4534 88.6882L98.6177 88.5198C98.6477 88.2378 98.7217 87.8906 98.7744 87.6064Z" fill="#0C0C0C"/>
<path d="M36.3924 76.4107C42.7923 75.0645 53.124 74.7767 59.0786 77.839C59.138 78.7706 59.2581 79.8341 59.285 80.7437C60.0516 91.1536 60.9192 101.555 61.8876 111.948C62.263 116.367 62.6991 120.78 63.1958 125.187L55.1238 125.165C52.5895 115.521 50.2039 105.493 47.841 95.7899L45.9386 87.9881C45.7507 87.2095 45.3094 85.1544 45.0366 84.4578C44.8833 84.0667 42.4509 81.8446 42.0203 81.8951L41.9317 82.0614C41.9702 82.4246 43.8335 84.0609 44.2857 84.5267C44.0869 87.7032 44.1012 91.0035 43.8825 94.1903C43.7539 95.064 43.9713 96.7721 43.7667 97.5609C42.9157 100.842 41.7957 104.72 37.8031 105.126C36.0065 105.308 32.4863 103.654 31.1414 102.524C30.5643 100.376 31.2513 97.3514 31.655 95.1556C32.3813 91.3038 33.2503 87.4798 34.2599 83.6917C34.7111 82.0247 35.2562 80.3533 35.6902 78.6959C35.9101 77.9298 36.1442 77.168 36.3924 76.4107Z" fill="white"/>
<path d="M36.3924 76.4107C42.7923 75.0645 53.124 74.7767 59.0786 77.839C59.138 78.7706 59.2581 79.8341 59.285 80.7437C57.9453 80.2508 55.099 78.5318 53.632 78.3736C53.548 77.9832 53.5408 77.6917 53.157 77.4925L53.0182 77.5592C52.9058 77.7664 52.9376 77.866 52.9559 78.1019C48.4987 76.585 44.1221 76.3316 39.52 77.4727C38.4395 77.7408 36.532 78.5487 35.6902 78.6959C35.9101 77.9298 36.1442 77.168 36.3924 76.4107Z" fill="#D9DBD5"/>
<path d="M52.9559 78.1019C52.9376 77.866 52.9058 77.7664 53.0182 77.5592L53.157 77.4925C53.5408 77.6917 53.548 77.9832 53.632 78.3736C54.3073 80.6038 55.0806 82.3042 57.3128 83.2439C57.6231 83.375 57.9569 83.5449 58.2478 83.7134C58.3015 83.9346 58.294 83.821 58.2048 84.0635L58.0811 84.1199C57.6271 84.0825 57.0005 83.7822 56.5942 83.5618C54.1672 82.2427 53.7035 80.4771 52.9559 78.1019Z" fill="#1C1C1C"/>
<path d="M52.3215 24.1641C52.4991 24.1603 53.2496 24.2873 53.4643 24.3201C54.1588 24.4262 54.6853 24.4679 55.3937 24.483C55.7608 25.9408 55.9494 26.1995 57.1228 27.0993C57.2811 28.4348 57.9125 33.1814 57.5539 34.2222C55.7083 39.578 51.9727 39.9908 48.0089 37.062C46.9119 36.0333 45.3527 31.7349 44.707 30.1236C44.8604 29.8119 45.0675 29.3914 45.1443 29.0652C45.6183 27.0519 44.1393 25.7628 46.4626 24.436C49.6882 25.5607 51.4113 26.3655 54.9248 25.5567C53.869 25.109 53.2542 24.8148 52.3215 24.1641Z" fill="white"/>
<path d="M54.3389 26.467C54.8324 26.4425 54.9017 26.4454 55.3278 26.6875L55.3558 26.8309C54.6236 27.3621 53.8968 26.5859 52.5378 27.743C52.4268 27.8456 52.3145 27.9401 52.1999 28.0383C51.9745 28.0686 52.0711 28.0996 51.8943 27.9806C51.8207 26.9965 53.5823 26.5495 54.3389 26.467Z" fill="#0C0C0C"/>
<path d="M50.4942 29.9746C50.6517 30.0149 50.6222 30.0073 50.7679 30.0782C51.1342 30.8192 50.9727 32.2791 51.1891 33.0778C51.2794 33.4108 51.9398 33.2927 52.3424 33.3681C52.5029 33.5672 52.4566 33.4499 52.4325 33.7503C50.7761 33.7062 50.787 33.7158 50.6613 32.0239C50.6126 31.368 50.4264 30.6381 50.4942 29.9746Z" fill="#0C0C0C"/>
<path d="M47.6816 29.018C48.0425 28.9818 49.2584 28.8697 49.3093 29.3491C48.9678 29.6546 48.0601 29.4499 47.2683 29.6935L47.1743 29.7233C46.6797 29.9757 46.5802 30.2014 45.9781 30.1944L45.8818 30.0827C46.1323 29.4828 47.0965 29.155 47.6816 29.018Z" fill="#0C0C0C"/>
<path d="M54.4886 33.8027C54.6323 33.8389 54.5931 33.8317 54.7239 33.9156C54.7858 34.8523 52.4662 35.649 51.7261 35.8299C51.5331 35.8307 51.6034 35.8343 51.4116 35.7529L51.3877 35.6317C51.5728 35.3838 53.0191 35.1028 53.5705 34.6614C54.0715 34.2602 54.0214 34.3485 54.4886 33.8027Z" fill="#0C0C0C"/>
<path d="M48.0375 30.3535C48.8299 30.5293 48.9499 31.3552 48.5382 31.9798C47.7275 31.7891 47.6581 30.986 48.0375 30.3535Z" fill="#0C0C0C"/>
<path d="M53.96 28.8135C54.098 28.8534 54.2267 28.8888 54.3358 28.9849C54.5266 29.1531 54.6438 29.3895 54.6624 29.6432C54.688 30.0082 54.5912 30.1564 54.3734 30.4279C53.6466 30.0779 53.4829 29.4803 53.96 28.8135Z" fill="#0C0C0C"/>
<path d="M75.5724 48.957C76.0939 49.4144 76.6198 49.8673 77.1486 50.3157C78.1432 51.1914 79.2785 52.1272 80.2394 53.0096C79.2455 53.6288 78.1029 54.7606 77.9374 55.921C77.5338 58.7455 78.5673 61.5735 78.1081 64.4667C77.5807 67.2365 76.5868 68.9446 76.5224 71.8709C74.8598 69.0267 73.2704 66.0476 71.5845 63.2304C70.7745 61.8766 69.2542 59.9792 68.2847 58.6393C69.4877 53.8175 70.8069 50.8802 75.5724 48.957Z" fill="#D9DBD5"/>
<path d="M78.1084 64.4654C76.6714 63.8575 73.2136 59.5962 72.5021 58.043C71.9752 56.8928 71.8624 55.3635 72.3493 54.1639C73.2026 52.0611 75.2161 51.1479 77.1489 50.3145C78.1435 51.1901 79.2788 52.1259 80.2397 53.0083C79.2458 53.6275 78.1033 54.7593 77.9377 55.9197C77.5342 58.7442 78.5676 61.5722 78.1084 64.4654Z" fill="white"/>
<path d="M81.324 53.1895C83.4261 53.0162 84.0779 55.1729 84.4493 56.7917C84.9913 59.1185 84.4105 61.565 82.7442 63.3044C82.4835 63.577 81.9268 64.0766 81.94 64.4148L82.0587 64.4944C82.2967 64.4926 82.3267 64.4624 82.5267 64.5582C82.3436 65.9338 81.8895 67.9668 81.6163 69.3659C81.0098 72.402 80.4217 75.442 79.8511 78.4845C79.7947 78.8126 79.7193 79.1342 79.6468 79.4594C75.6082 73.2667 77.3404 70.4227 78.7935 63.9726C79.5516 60.6092 76.2674 55.0368 81.324 53.1895Z" fill="#D9DBD5"/>
<path d="M46.3177 92.4043C46.485 92.594 46.5408 92.9331 46.6062 93.199C48.0225 98.9485 49.4185 104.709 50.8519 110.454L52.5911 117.485C52.8689 118.601 53.146 119.743 53.4375 120.857C53.5006 121.099 53.4876 121.161 53.3797 121.317C52.8447 121.354 52.2637 120.532 52.3024 120.034C52.3108 119.926 52.5304 119.791 52.6208 119.718C52.6293 119.702 52.6407 119.687 52.6465 119.669C52.8052 119.186 44.1099 102.704 43.3247 101.042C44.1956 98.208 45.3687 95.2615 46.3177 92.4043Z" fill="white"/>
<path d="M126.998 68.6094C127.241 68.7025 127.483 68.7975 127.724 68.8945C129.03 69.4214 130.129 70.2045 130.579 71.4956C131.788 74.9661 130.081 77.3231 126.854 78.6055C126.065 78.9197 125.135 79.546 124.286 79.8814C122.376 80.077 120.733 78.3624 120.726 76.4617C120.714 73.2962 123.522 72.496 125.793 71.189C126.18 70.966 126.751 70.8575 127.06 70.5273L127.056 70.3857C126.986 70.2906 126.919 70.1938 126.855 70.0952C126.662 69.7944 126.911 69.0186 126.998 68.6094Z" fill="white"/>
<path d="M39.891 61.1386C39.9888 60.5374 40.3289 59.6606 40.526 59.0643L41.9155 54.8993C42.1986 54.056 42.6192 52.2761 43.1819 51.729L43.3372 51.6797C43.5808 52.0774 42.5708 54.7217 42.3605 55.351L40.5525 60.7816C40.0087 62.4237 35.5227 76.1595 35.2387 76.4224C35.0973 76.3529 35.0545 76.3316 34.926 76.2415C34.9717 76.5455 34.903 76.4327 35.0812 76.6231C35.3264 76.651 35.366 76.6334 35.6056 76.5975C35.7448 76.9446 34.811 79.5894 34.6553 80.1856C34.0805 79.9285 33.4894 79.6861 32.8788 79.525C31.9812 79.317 31.2997 79.1954 30.3799 79.1573C32.4805 74.2662 34.9632 69.4657 37.1943 64.6266C37.6459 63.647 37.9375 62.7604 38.2637 61.7391L38.6305 60.5549C39.0385 60.7137 39.4904 60.9455 39.891 61.1386Z" fill="#D9DBD5"/>
<path d="M38.2637 61.7391C39.0885 62.5439 37.247 67.2556 36.8564 68.3497L34.1546 75.94C33.8407 76.8196 33.0893 78.7354 32.8788 79.525C31.9812 79.317 31.2997 79.1954 30.3799 79.1573C32.4805 74.2662 34.9632 69.4657 37.1943 64.6266C37.6459 63.647 37.9375 62.7604 38.2637 61.7391Z" fill="white"/>
<path d="M39.891 61.1386C39.9888 60.5374 40.3289 59.6606 40.526 59.0643L41.9155 54.8993C42.1986 54.056 42.6192 52.2761 43.1819 51.729L43.3372 51.6797C43.5808 52.0774 42.5708 54.7217 42.3605 55.351L40.5525 60.7816C40.0087 62.4237 35.5227 76.1595 35.2387 76.4224C35.0973 76.3529 35.0545 76.3316 34.926 76.2415C34.7428 75.6937 36.5332 71.0063 36.8554 70.0412L38.4286 65.4086C38.9283 63.8905 39.2945 62.6198 39.891 61.1386Z" fill="white"/>
<path d="M53.3648 121.978C53.4808 122.045 53.6578 122.141 53.7084 122.262C54.1267 123.274 54.4136 124.697 54.7071 125.755C55.239 125.759 55.747 125.788 56.2781 125.816C54.3383 127.982 52.2951 130.064 50.295 132.177C49.1278 133.409 48.2995 133.044 46.7407 133.071C45.8541 133.086 44.961 133.058 44.0735 133.063C43.8648 133.055 43.9485 133.098 43.8034 132.965C43.7754 132.379 44.608 131.184 45.1004 131.101C47.7082 130.66 47.5888 129.316 48.4304 126.826C47.8794 125.878 46.6441 124.778 48.3403 124.249C48.7158 124.132 48.9071 123.97 49.3379 123.929C49.7013 124.078 50.1516 125.038 50.394 125.442C52.3536 124.764 52.8603 123.913 53.3648 121.978Z" fill="#D9DBD5"/>
<path d="M127.114 79.1689L127.251 79.1982C129.197 80.7539 128.81 84.769 127.498 86.6155C127.08 87.2043 124.51 88.6465 123.661 88.8157C123.09 88.9299 122.53 88.8669 121.982 88.675C120.457 87.8752 119.991 85.9402 120.454 84.3787C120.579 83.9436 120.796 83.54 121.089 83.1951C121.535 82.6758 122.028 82.4172 122.531 81.9983C123.978 80.7927 125.468 80.0552 127.114 79.1689Z" fill="white"/>
<path d="M57.716 127.019C59.5536 126.94 60.2739 127.232 60.0507 129.169C61.2527 129.643 61.8592 129.493 62.842 128.762C63.1761 129.654 63.4995 131.999 63.6874 133.066L58.3376 133.073L51.668 133.062C52.5122 131.746 55.0093 130.418 56.3577 129.055C56.0628 127.716 56.4347 127.306 57.716 127.019Z" fill="white"/>
<path d="M130.013 57.256C131.108 56.9516 132.657 56.5523 133.574 57.2059C136.459 59.2627 135 62.0614 132.304 63.248C131.119 63.7698 130.098 64.2868 128.986 64.7346C128.817 64.8414 127.785 65.2636 127.54 65.3683C128.119 62.8022 128.494 60.0991 129.083 57.5502C129.384 57.4466 129.708 57.3515 130.013 57.256Z" fill="white"/>
<path d="M129.083 57.549C129.384 57.4455 129.708 57.3503 130.013 57.2549C130.017 59.2143 130.079 61.0332 129.518 62.9371C129.383 63.3936 128.955 64.3241 128.986 64.7334C128.817 64.8402 127.785 65.2625 127.54 65.3671C128.119 62.8011 128.494 60.0979 129.083 57.549Z" fill="#E7E7E7"/>
<path d="M122.84 89.542L122.928 89.5823C125.094 90.6091 126.21 92.531 125.15 94.9443C124.708 95.9499 123.358 96.5923 122.333 96.8962C122.206 96.9028 122.079 96.9065 121.952 96.9058C119.378 96.8992 119.014 93.3916 120.714 92.03C121.243 91.6067 121.992 91.3606 122.493 90.8669C122.914 90.4531 122.837 90.0818 122.84 89.542Z" fill="white"/>
<path d="M31.0638 79.8047C32.3008 79.8875 33.3649 80.2207 34.4856 80.7224C34.1875 81.7405 33.8902 82.7366 33.6194 83.7554C33.4227 84.4951 32.953 86.6001 32.6838 87.1538C32.4821 87.2468 32.0784 87.1743 31.9457 87.0007C31.3443 86.2141 31.8384 84.8123 31.7943 83.8836C31.7714 83.3965 31.9221 82.96 31.592 82.5945L31.4235 82.5974C31.3728 82.6414 31.3219 82.686 31.2712 82.73C31.2042 83.4448 31.1922 84.5251 31.1328 85.2363C31.0401 86.7664 30.9436 87.5046 32.6199 87.8423C32.3918 88.7366 32.17 89.6316 31.9546 90.5281C31.2875 89.6858 30.3644 88.5476 29.9015 87.6021C29.6206 87.0278 29.2755 84.72 29.4358 84.1055C29.8007 82.7051 30.5355 81.1912 31.0638 79.8047Z" fill="white"/>
<path d="M57.2325 36.2344C57.4531 36.4719 58.1034 39.0809 58.2471 39.6201C57.5454 42.0031 54.7798 44.0038 52.2743 43.9081C51.9897 43.8578 50.9571 43.3064 51.2092 42.9853C53.0775 40.6056 55.6421 38.8091 57.2325 36.2344Z" fill="white"/>
<path d="M66.4964 40.4863C67.1647 41.018 68.0247 41.5589 68.6324 42.1341C70.8436 44.2272 73.1593 46.3097 75.3019 48.4694C74.6281 48.7261 74.2208 48.9023 73.58 49.2307C72.1563 47.662 66.6156 42.3029 64.9292 41.4812C65.448 41.1027 65.9472 40.8129 66.4964 40.4863Z" fill="#B5FE28"/>
<path d="M58.7473 39.7451C60.9522 39.7729 63.558 39.8745 65.7259 40.2565C65.4122 40.5027 64.5948 41.1629 64.2845 41.316C63.5212 41.0624 59.488 40.7212 58.459 40.6368C58.5729 40.3558 58.6595 40.0376 58.7473 39.7451Z" fill="#B5FE28"/>
<path d="M58.5647 28.1216C60.3549 28.0799 60.3603 30.6219 58.9263 31.7175C58.6704 31.8705 58.4221 31.9734 58.1509 32.0949C58.0979 31.4615 57.7504 28.8533 57.8904 28.485C58.0915 28.2696 58.2792 28.232 58.5647 28.1216Z" fill="white"/>
<path d="M59.0158 28.6709C59.1524 28.7422 59.1641 28.7725 59.2815 28.8793C59.3077 29.2051 58.9168 29.4681 58.8295 29.7424C58.6928 30.1719 58.8256 30.4896 58.6581 30.9881L58.3998 30.8553C57.9156 30.2834 58.4963 29.1039 59.0158 28.6709Z" fill="#0C0C0C"/>
<path d="M44.54 31.7178C44.5664 31.7197 44.5939 31.7157 44.6191 31.7234C44.9523 31.8243 46.0443 34.7364 46.2262 35.1782C45.8279 35.1662 45.524 35.1174 45.1333 35.0601C43.6066 34.6252 42.3869 32.2458 44.54 31.7178Z" fill="white"/>
<path d="M43.896 32.4209C44.7243 32.6392 45.7424 33.3524 45.4084 34.3179C44.9579 34.1077 44.8816 33.5624 44.5099 33.249C44.3895 33.1475 44.0665 33.0335 43.8522 32.9011C43.7723 32.6606 43.806 32.7178 43.896 32.4209Z" fill="#0C0C0C"/>
<path d="M65.7259 40.2565C66.0516 40.1407 65.98 40.1114 66.2651 40.1766C66.3385 40.2734 66.4304 40.3871 66.4964 40.4863C65.9472 40.8129 65.448 41.1027 64.9292 41.4812C63.9995 42.1951 63.2642 43.2526 62.8861 44.3457C62.758 44.7162 62.4994 45.368 62.2526 45.6674C62.0077 45.683 62.106 45.7212 61.9376 45.5802C61.7148 44.5163 63.5485 42.0965 64.2845 41.316C64.5948 41.1629 65.4122 40.5027 65.7259 40.2565Z" fill="white"/>
<path d="M97.7021 53.7606C97.8162 53.1575 97.8733 52.856 98.0308 52.6456C98.1817 52.4441 98.3952 52.2985 98.6379 52.2318C98.8914 52.162 99.1929 52.2191 99.7959 52.3333L102.032 52.7566C102.635 52.8707 102.936 52.9278 103.147 53.0854C103.348 53.2362 103.494 53.4498 103.561 53.6924C103.63 53.9459 103.573 54.2474 103.459 54.8504L103.036 57.0864C102.922 57.6895 102.865 57.991 102.707 58.2014C102.556 58.4029 102.343 58.5485 102.1 58.6152C101.847 58.6849 101.545 58.6279 100.942 58.5137L98.7061 58.0904C98.103 57.9763 97.8015 57.9192 97.5911 57.7616C97.3896 57.6108 97.244 57.3972 97.1773 57.1546C97.1075 56.9011 97.1646 56.5996 97.2788 55.9966L97.7021 53.7606Z" fill="#B5FE28"/>
<path fill-rule="evenodd" clip-rule="evenodd" d="M100.938 55.6727C101.165 55.7158 101.432 55.527 101.496 55.1893C101.56 54.8515 101.381 54.5783 101.153 54.5351C100.925 54.492 100.658 54.6808 100.594 55.0185C100.53 55.3563 100.71 55.6295 100.938 55.6727Z" fill="#1C1C1C"/>
<path fill-rule="evenodd" clip-rule="evenodd" d="M101.496 55.1893C101.432 55.527 101.165 55.7158 100.938 55.6727C100.71 55.6295 100.53 55.3563 100.594 55.0185C100.658 54.6808 100.925 54.492 101.153 54.5351C101.381 54.5783 101.56 54.8515 101.496 55.1893Z" fill="#B5FE28"/>
<path fill-rule="evenodd" clip-rule="evenodd" d="M101.792 55.8345L101.523 55.7834C101.664 55.6469 101.766 55.4582 101.806 55.248C101.895 54.7804 101.655 54.298 101.214 54.2144C100.92 54.1588 100.645 54.3 100.468 54.5382C100.377 54.3906 100.236 54.2812 100.056 54.2471C99.6707 54.1741 99.3268 54.4897 99.251 54.8901C99.2204 55.052 99.2356 55.2169 99.29 55.3608L99.0753 55.3201L99.272 54.5527C99.3678 54.1791 99.6872 53.9101 100.06 53.8889L101.102 53.8296C101.653 53.7982 102.082 54.307 101.976 54.8672L101.792 55.8345Z" fill="white"/>
<path fill-rule="evenodd" clip-rule="evenodd" d="M102.286 54.926C102.431 54.1582 101.844 53.4611 101.088 53.5041L100.047 53.5634C99.5355 53.5925 99.0979 53.961 98.9666 54.473L98.6052 55.8827C98.4448 56.5083 98.7884 57.1473 99.385 57.3331L100.447 57.6638C101.112 57.871 101.811 57.4332 101.945 56.7257L102.286 54.926ZM100.938 55.6727C101.165 55.7158 101.432 55.527 101.496 55.1893C101.56 54.8515 101.381 54.5783 101.153 54.5351C100.925 54.492 100.658 54.6808 100.594 55.0185C100.53 55.3563 100.71 55.6295 100.938 55.6727ZM101.732 56.1553L98.994 55.637L98.9106 55.9625C98.7936 56.419 99.0443 56.8853 99.4797 57.0209L100.542 57.3516C101.027 57.5027 101.537 57.1833 101.635 56.667L101.732 56.1553ZM99.5612 54.9489C99.6124 54.6782 99.8237 54.5353 99.9958 54.5679C100.168 54.6004 100.312 54.8107 100.261 55.0814C100.21 55.352 99.9985 55.4949 99.8264 55.4623C99.6544 55.4297 99.5099 55.2195 99.5612 54.9489ZM101.523 55.7834L101.792 55.8345L101.976 54.8672C102.082 54.307 101.653 53.7982 101.102 53.8296L100.06 53.8889C99.6872 53.9101 99.3678 54.1791 99.272 54.5527L99.0753 55.3201L99.29 55.3608C99.2356 55.2169 99.2204 55.052 99.251 54.8901C99.3268 54.4897 99.6707 54.1741 100.056 54.2471C100.236 54.2812 100.377 54.3906 100.468 54.5382C100.645 54.3 100.92 54.1588 101.214 54.2144C101.655 54.298 101.895 54.7804 101.806 55.248C101.766 55.4582 101.664 55.6469 101.523 55.7834Z" fill="#1C1C1C"/>
<path fill-rule="evenodd" clip-rule="evenodd" d="M98.994 55.637L101.732 56.1553L101.635 56.667C101.537 57.1833 101.027 57.5027 100.542 57.3516L99.4797 57.0209C99.0443 56.8853 98.7936 56.419 98.9106 55.9625L98.994 55.637Z" fill="#B5FE28"/>
<path d="M99.9958 54.5679C99.8237 54.5353 99.6124 54.6782 99.5612 54.9489C99.5099 55.2195 99.6544 55.4297 99.8264 55.4623C99.9985 55.4949 100.21 55.352 100.261 55.0814C100.312 54.8107 100.168 54.6004 99.9958 54.5679Z" fill="#B5FE28"/>
<path d="M103.839 57.5698L104.384 54.6926L105.333 54.8724C105.611 54.925 105.816 55.0294 105.949 55.1857C106.085 55.3425 106.131 55.5351 106.088 55.7635C106.062 55.9011 106.008 56.0179 105.928 56.1137C105.847 56.2068 105.746 56.2719 105.625 56.3088C105.781 56.3896 105.889 56.4998 105.948 56.6392C106.007 56.7759 106.02 56.9379 105.984 57.125C105.935 57.3837 105.816 57.5706 105.626 57.6857C105.436 57.798 105.194 57.8264 104.9 57.7706L103.839 57.5698ZM104.333 57.2615L104.944 57.3771C105.305 57.4454 105.514 57.3281 105.571 57.0254C105.599 56.8796 105.577 56.7587 105.507 56.6627C105.44 56.5673 105.33 56.5052 105.179 56.4766L104.506 56.3492L104.333 57.2615ZM104.577 55.9736L105.155 56.083C105.282 56.1069 105.391 56.0891 105.482 56.0293C105.576 55.9701 105.635 55.8759 105.659 55.7465C105.683 55.6199 105.66 55.5144 105.591 55.43C105.521 55.3456 105.411 55.289 105.26 55.2604L104.731 55.1604L104.577 55.9736Z" fill="#1C1C1C"/>
<path d="M107.96 57.8785L107.91 58.3404L108.416 58.4363L108.756 56.6396C108.821 56.2982 108.768 56.0141 108.597 55.7875C108.43 55.5578 108.162 55.4078 107.79 55.3375C107.554 55.2928 107.327 55.2925 107.108 55.3367C106.895 55.3778 106.689 55.4691 106.491 55.6104L106.767 56.0299C106.917 55.9183 107.064 55.8452 107.211 55.8108C107.361 55.777 107.511 55.7744 107.661 55.8028C107.875 55.8432 108.028 55.9267 108.121 56.053C108.214 56.1794 108.242 56.3401 108.205 56.5352L108.188 56.6252L107.355 56.4675C107.216 56.4413 107.082 56.4295 106.953 56.4324C106.829 56.4321 106.714 56.4532 106.609 56.4954C106.496 56.5363 106.398 56.6069 106.313 56.7074C106.228 56.8041 106.171 56.9294 106.142 57.0832C106.109 57.2595 106.123 57.4234 106.183 57.5748C106.245 57.7224 106.347 57.8487 106.491 57.9536C106.634 58.0584 106.809 58.1304 107.015 58.1694C107.195 58.2035 107.364 58.1965 107.52 58.1485C107.681 58.1012 107.823 58.0155 107.948 57.8914C107.952 57.8871 107.956 57.8829 107.96 57.8785ZM108.109 57.0416L108.094 57.1204C108.066 57.2667 108.006 57.3913 107.912 57.4941C107.82 57.5931 107.707 57.6651 107.574 57.7099C107.446 57.7516 107.31 57.759 107.168 57.732C106.999 57.7001 106.871 57.6351 106.785 57.5372C106.699 57.4392 106.668 57.3246 106.693 57.1933C106.706 57.1257 106.73 57.0701 106.765 57.0263C106.801 56.9787 106.845 56.9423 106.897 56.9171C106.961 56.8865 107.033 56.873 107.114 56.8766C107.199 56.8773 107.28 56.8847 107.355 56.8989L108.109 57.0416Z" fill="#1C1C1C"/>
<path d="M110.625 56.3586L108.671 58.0742L108.596 58.471L110.813 58.8908L110.902 58.424L109.376 58.1351L111.284 56.4349L111.364 56.0147L109.213 55.6077L109.125 56.0746L110.625 56.3586Z" fill="#1C1C1C"/>
<path d="M112.187 59.1516C111.924 59.1019 111.701 58.9955 111.518 58.8326C111.335 58.6696 111.204 58.4679 111.126 58.2275C111.05 57.9877 111.039 57.729 111.092 57.4512C111.144 57.1734 111.249 56.9386 111.406 56.7467C111.563 56.551 111.757 56.4107 111.987 56.326C112.221 56.2419 112.469 56.2247 112.732 56.2745C112.998 56.3249 113.221 56.4313 113.4 56.5935C113.58 56.7557 113.707 56.9567 113.782 57.1965C113.862 57.4332 113.875 57.6904 113.823 57.9682C113.77 58.2459 113.663 58.4823 113.502 58.6773C113.345 58.8692 113.151 59.0094 112.92 59.098C112.694 59.1835 112.45 59.2014 112.187 59.1516ZM112.28 58.6618C112.445 58.693 112.595 58.6806 112.73 58.6245C112.869 58.5692 112.984 58.4762 113.075 58.3456C113.169 58.2158 113.234 58.0551 113.271 57.8637C113.308 57.6685 113.306 57.4932 113.265 57.3378C113.228 57.1831 113.155 57.0564 113.046 56.9579C112.94 56.8564 112.805 56.7899 112.64 56.7587C112.471 56.7267 112.317 56.7384 112.179 56.7938C112.043 56.8499 111.929 56.9428 111.834 57.0727C111.744 57.1995 111.68 57.3605 111.644 57.5557C111.607 57.7471 111.608 57.9202 111.644 58.0749C111.685 58.2303 111.758 58.3588 111.863 58.4604C111.972 58.5627 112.111 58.6298 112.28 58.6618Z" fill="#1C1C1C"/>
</svg>
