<svg width="60" height="119" viewBox="0 0 60 119" fill="none" xmlns="http://www.w3.org/2000/svg">
<path d="M23.842 0.00218597C25.4064 -0.0470328 26.7431 0.752113 28.1984 0.664296C29.4325 0.589735 30.1796 -0.329089 31.569 0.520228C32.1777 0.889515 32.6025 1.49874 32.738 2.19784C32.8888 2.94755 32.6611 3.78419 32.2443 4.41063C33.0243 5.82948 32.8515 6.97206 31.8107 8.18063C31.9191 11.281 32.1293 14.8343 29.9284 17.2242C31.1222 18.1396 31.7367 19.2442 31.279 20.7548C35.352 22.711 36.4909 24.3582 38.7826 28.116C39.0485 28.0739 39.3576 28.031 39.6264 28.0578C43.6379 28.4562 47.6398 28.9706 51.6484 29.3945C52.1618 29.4487 52.6562 29.5 53.1608 29.615C53.245 31.6805 53.1843 34.1574 53.1865 36.2541C54.7209 36.9051 55.4225 37.0808 55.0409 38.8826C55.03 38.9336 55.6452 39.8846 55.2021 40.3104C54.8073 40.6892 55.1801 41.2161 55.0497 41.6458C54.5627 42.328 54.436 42.7627 54.2455 43.5745C54.1943 43.8078 53.4428 44.0512 53.2099 44.1141C53.2143 44.46 53.2619 44.8329 53.0854 45.1178C52.5676 45.3336 49.5903 45.239 48.8447 45.2343C48.474 45.6256 48.0705 45.9838 47.6376 46.3047C45.0397 48.2344 41.5336 49.0681 38.3381 48.5826C38.5768 51.1433 39.4469 53.9623 37.1823 55.847C37.8613 60.3146 38.4054 64.8015 38.8141 69.3022C39.529 70.2119 40.6584 72.4121 40.8949 73.6037C40.9601 73.9333 40.2958 74.2687 40.3009 74.3815C40.4203 77.06 42.8344 81.8046 39.9772 83.6423C40.2585 86.4628 40.3676 89.4262 40.5815 92.2658C40.717 94.0742 40.8847 96.2136 40.873 98.0161C40.8613 99.7556 39.7839 101.332 38.5109 102.474C38.5351 103.036 38.7109 104.053 38.4267 104.546C38.2897 104.784 37.621 104.904 37.4548 105.328C37.5793 106.039 38.672 105.702 39.0961 106.209C39.8556 107.118 39.6279 107.656 40.5339 108.605C40.632 108.627 40.9587 108.691 41.0297 108.75C42.1796 109.708 43.7778 110.86 45.1445 111.455C47.1022 112.237 49.0578 112.779 49.5492 115.139C49.9491 117.06 48.1562 117.848 46.621 118.154C43.8071 118.714 40.8832 118.905 38.0407 118.482C37.7111 118.433 37.0863 117.886 36.7751 117.723C35.8068 117.091 35.0986 118.009 34.2731 118.225C33.6491 118.31 32.7834 118.344 32.163 118.276C30.849 118.13 28.0351 118.434 27.926 116.572C27.8527 115.316 28.0907 113.978 28.881 112.993C28.9675 111.846 29.0956 110.694 29.2685 109.558C29.4413 108.421 29.4911 107.341 30.7626 107.009L30.6667 105.334C29.4186 105.09 29.6589 104.057 29.672 103.03C26.2092 100.559 26.6515 96.9138 26.5322 93.1323C26.4736 90.9702 26.3732 88.8088 26.2311 86.6496C26.1974 84.051 25.8722 80.1025 25.6357 77.4445C24.8549 84.3908 23.4973 91.2866 23.0096 98.2841C22.8744 100.224 21.509 101.994 19.9778 103.117C19.9749 104.246 20.2074 105.184 18.8981 105.462L18.7948 107.002L18.9232 107.042C20.1533 107.427 20.1322 108.837 20.3143 109.93C20.4823 110.937 20.5924 112.008 20.6814 113.026C20.9827 113.295 21.1527 113.662 21.2829 114.038C21.5873 114.917 21.9051 116.355 21.4564 117.219C21.2562 117.604 20.9534 117.769 20.5518 117.9C19.456 118.256 16.3745 118.471 15.2575 118.214C14.8948 118.131 14.5556 117.865 14.2232 117.699C12.9951 117.091 12.504 118.166 11.4534 118.491C11.0181 118.626 10.4731 118.612 10.0187 118.64C7.70049 118.779 3.06514 118.666 1.0791 117.504C0.488258 117.157 0.227809 116.748 0.0742935 116.086C-0.0759263 115.439 0.00471252 114.81 0.288526 114.211C1.4585 111.743 4.89048 111.902 5.62634 110.666C5.63747 110.648 5.64736 110.628 5.65791 110.609C6.0023 110.5 6.39883 110.341 6.74233 110.213C7.20859 109.065 7.91509 109.992 8.26819 108.862C8.55757 108.567 8.60012 108.708 8.88577 108.601C9.61196 108.33 9.7928 107.024 10.2328 106.443C10.7424 105.771 11.2144 105.831 11.9681 105.715C12.3079 104.811 11.6381 105.055 11.222 104.652C10.8799 104.321 11.0868 103.052 11.1308 102.581C10.7276 102.278 10.3653 101.925 10.0529 101.529C8.83215 100.001 8.57361 98.3317 8.79033 96.4435C8.94099 95.1318 9.07107 93.8046 9.21345 92.4907L10.2082 83.1955C8.98926 81.9489 9.47038 79.9941 9.726 78.4721C9.96184 77.0351 10.2279 75.6039 10.5239 74.1779C10.4077 74.1083 10.142 73.9516 10.0642 73.8483C9.56164 73.1826 10.5684 71.5383 10.8095 70.8893C10.9356 70.5502 11.581 69.5146 11.6125 69.3351C11.8668 67.8842 11.983 66.2678 12.1357 64.8088C12.4304 62.0856 12.7525 59.3647 13.1019 56.6476C10.4492 55.1594 10.9215 52.8573 11.1029 50.286C2.98289 50.3058 1.43132 44.5567 3.47485 37.7303C5.04516 32.4844 7.63223 25.8003 12.1543 22.4925C11.4716 20.6467 11.8259 19.861 13.1374 18.4961C13.3986 17.537 13.2995 16.7844 14.1106 16.0019C15.5884 14.5761 18.8961 14.4158 20.828 14.3922C20.8191 14.2887 20.7662 13.5155 20.6682 13.5157C19.0218 13.5174 17.9351 12.5422 18.0929 10.8087C18.1573 10.1007 18.5028 9.66605 19.0965 9.21371C18.2975 7.08119 17.3169 3.7694 20.2864 2.92953C20.8686 1.02311 21.8288 0.184779 23.842 0.00218597Z" fill="#1C1C1C"/>
<path d="M36.4059 56.1074L36.5048 56.1139C36.6733 56.5244 37.0453 59.489 37.131 60.124C37.9726 66.3386 38.4758 72.6375 38.9533 78.8901C39.3517 83.6501 39.6945 88.4146 39.9824 93.1826C40.1882 96.7554 41.0327 99.3672 38.0151 101.998C35.8801 102.462 32.3857 102.537 30.2053 102.514C28.8166 101.633 27.5956 100.011 27.4535 98.3293C27.1174 94.3398 27.1284 90.302 26.8903 86.2935C26.8083 84.9048 27.0668 82.5859 27.1452 81.1497L27.5671 72.9312L27.8835 67.1458C27.9377 66.116 27.9662 64.7229 28.0937 63.7253L28.1127 63.7056C28.5361 63.2559 29.6603 62.6311 29.6918 62.136C29.5549 61.9163 29.6472 61.9822 29.4223 61.9097C29.048 61.999 28.8788 62.2275 28.5829 62.4099C26.9716 63.4009 26.8442 64.7163 26.6259 66.4368C26.5388 67.1245 26.4055 67.9075 26.2992 68.6238L24.964 77.741L22.3829 97.9265C22.09 100.151 21.2163 101.314 19.4827 102.645C17.1049 102.539 14.8424 102.588 12.4284 102.233C11.0362 102.288 9.50306 99.9451 9.4277 98.5864C9.30882 96.4441 9.79149 93.124 10.0443 90.9128C10.3197 88.5054 10.4985 85.9463 10.8444 83.5652C12.7492 84.1152 16.9066 84.6968 17.3929 81.9517C17.6264 80.634 17.8675 79.1553 18.0188 77.8237C18.2931 75.4097 18.8194 72.8623 18.9192 70.4431C18.4448 70.3164 17.0626 70.1904 16.5066 70.1179C15.0892 69.9282 13.6741 69.7202 12.2619 69.4954C12.4639 68.6436 12.6221 66.5811 12.7186 65.6348L13.3723 59.6882L27.5327 57.4741C30.4426 57.0185 33.499 56.4869 36.4059 56.1074Z" fill="white"/>
<path d="M20.8716 15.0361L20.8971 15.8499C19.9547 15.9093 15.3435 16.118 16.3681 17.948C16.468 18.1265 16.8675 18.3481 17.06 18.4081C20.1214 19.364 23.0649 20.4839 25.594 22.5229C25.7918 22.682 26.2759 23.0214 26.5271 23.0586C28.0242 22.4529 28.0557 19.558 28.0403 18.2398C28.5918 18.0915 28.9068 17.9339 29.4055 17.6704C32.8208 20.0628 29.0862 22.0329 28.999 22.9737C29.2012 23.1968 29.0811 23.1401 29.3616 23.1711C30.0288 22.8996 30.6236 21.9646 31.0088 21.3748C34.5735 22.922 36.1277 24.8928 38.0576 28.1891C35.678 28.3983 33.1321 28.7857 30.7393 29.0429C29.8626 29.1372 27.0581 29.4073 26.385 29.6637C26.1887 30.0572 26.2905 37.9813 26.2942 39.0402C25.8364 39.5048 25.3706 39.9614 24.8967 40.4096L24.4939 39.7976C23.7161 39.8128 22.8196 39.8859 22.0496 39.9669C21.9362 39.8404 21.8199 39.7165 21.7008 39.5953C20.4713 38.3618 17.4648 38.6414 15.7058 38.6455C16.024 36.9867 16.0694 35.1468 16.363 33.4699C16.4233 33.1258 16.4735 32.721 16.2938 32.4086L16.129 32.3963C16.0713 32.4451 16.0136 32.494 15.9559 32.5428C15.4705 34.1318 14.7502 37.2054 14.3711 38.7049C13.4773 38.7632 11.2402 38.968 10.402 39.3629C10.3212 39.401 10.3357 39.5042 10.321 39.6183L10.4273 39.7455C10.9558 39.9118 12.3507 39.5661 13.0107 39.472C15.2129 39.2298 17.5896 39.1718 19.8021 39.3856C20.8 39.482 21.135 39.9426 21.7822 40.6255C22.5083 40.6057 23.4001 40.4956 24.1724 40.4596C24.6082 42.3914 24.7481 43.9765 24.7503 45.9454C24.0618 46.0029 22.9841 46.1904 22.29 46.2963C22.1191 46.5675 21.951 46.8459 21.7621 47.1051C20.6669 48.6071 16.8179 49.1198 15.0113 49.3779C12.0457 49.8015 8.02277 50.0288 5.50068 48.1086C4.27109 47.1725 3.59287 45.5635 3.40559 44.0615C2.7719 38.9785 6.74689 29.5578 9.8974 25.5526C11.1503 23.9599 13.8652 21.7249 15.9605 21.595C17.3681 21.5077 18.9609 22.0667 20.2514 22.5758C20.6965 22.7514 21.4804 23.2181 21.9165 23.165C22.0938 22.9717 22.0515 23.0809 22.0656 22.8339C21.7376 22.3182 19.2429 21.4883 18.5861 21.3154C16.0038 20.6356 14.9248 20.8795 12.6782 22.163C12.1019 19.9969 12.8306 20.1975 13.8143 18.5715C14.0639 18.1587 13.8298 17.1971 14.4962 16.5566C15.7317 15.3694 17.7719 15.2066 19.3644 15.0901C19.7228 15.0484 20.4824 15.048 20.8716 15.0361Z" fill="white"/>
<path d="M33.8623 45.2314L37.3267 45.2344C37.4175 46.8145 37.6965 48.4012 37.8525 49.9766C38.0422 51.8965 38.4897 54.1807 36.5986 55.4083C35.8501 55.5021 34.7229 55.5159 33.9407 55.5467L29.3689 55.726C24.7773 55.9121 19.8898 56.1598 15.3167 56.1538C14.2223 56.1616 13.3366 56.2899 12.4773 55.4172C11.5604 54.4863 11.6109 53.3304 11.6251 52.1331C13.2169 52.0357 15.9084 51.4371 17.4076 50.9128C19.7811 50.0826 21.6394 49.1974 22.7887 46.899C23.4719 46.8051 24.647 46.6827 25.2417 46.4323C25.4768 46.1829 25.2952 46.0461 25.4797 45.758C25.9939 45.781 26.4216 46.0114 26.9058 46.0876C29.1704 46.4443 32.0261 46.9241 33.8623 45.2314Z" fill="white"/>
<path d="M39.7512 28.7314C41.2058 28.8111 43.3122 29.1019 44.7939 29.2692C44.791 30.0343 44.6833 33.4753 44.9675 33.9285L45.1601 33.9538C45.478 33.8641 45.6582 33.6666 45.9145 33.4493L45.9592 33.511C46.1504 33.7731 46.2844 33.9891 46.6074 34.0408C46.9172 33.9818 47.0754 33.7744 47.3149 33.5499C47.5573 33.8703 47.791 34.3068 48.2158 34.0413C48.571 33.3251 48.259 30.8156 48.3967 29.7571L48.5505 29.6487C49.2016 29.8408 51.7871 30.046 52.5532 30.1217C52.5437 31.5576 52.6601 34.8196 52.5254 36.0456C52.2448 36.1716 51.9878 35.9176 51.5959 36.2522C51.1169 36.6624 51.2004 36.8603 51.289 37.4311C50.2204 38.4099 50.5749 38.3111 51.0664 39.2774C51.1191 39.3821 50.5339 39.9398 50.6467 40.1697C50.5566 41.0641 51.582 40.9342 51.2429 41.7648C50.9016 42.5981 51.9629 43.1946 52.5261 43.5084L52.5613 44.5767C51.2568 44.5767 49.9179 44.5604 48.6164 44.5812L39.7505 44.5758L39.7512 28.7314Z" fill="white"/>
<path d="M48.5505 29.6487C49.2016 29.8408 51.7871 30.046 52.5532 30.1217C52.5437 31.5576 52.6601 34.8196 52.5254 36.0456C52.2448 36.1716 51.9878 35.9176 51.5959 36.2522C51.1169 36.6624 51.2004 36.8603 51.289 37.4311C50.2204 38.4099 50.5749 38.3111 51.0664 39.2774C51.1191 39.3821 50.5339 39.9398 50.6467 40.1697C50.5566 41.0641 51.582 40.9342 51.2429 41.7648C50.9016 42.5981 51.9629 43.1946 52.5261 43.5084L52.5613 44.5767C51.2568 44.5767 49.9179 44.5604 48.6164 44.5812C48.738 41.8102 48.5459 38.4955 48.6264 35.6708C48.6506 34.8406 48.6728 30.1361 48.5505 29.6487Z" fill="#1BC3D8"/>
<path d="M41.1983 40.9981C41.9329 40.9949 44.4942 40.8415 44.9512 41.1821C45.0435 41.4224 45.0142 41.3475 44.9454 41.645C44.2642 41.6515 41.5389 41.7756 41.1397 41.5092C41.0613 41.2682 41.1067 41.2968 41.1983 40.9981Z" fill="#1C1C1C"/>
<path d="M41.1989 42.4532C41.7651 42.4468 43.0241 42.2796 43.4181 42.6693C43.4438 42.9435 43.4555 42.8058 43.3295 43.0908C42.7121 43.0978 41.6977 43.2507 41.2194 42.9678C41.0846 42.7127 41.1213 42.8078 41.1989 42.4532Z" fill="#1C1C1C"/>
<path d="M23.9533 5.61272C24.4667 5.57346 25.2512 5.70991 25.769 5.79436C27.7304 6.11443 28.8005 6.22612 30.6777 5.59668C31.5288 8.39204 31.8298 15.1547 29.0429 17.0873C27.8798 17.894 26.0092 17.8865 24.8037 17.1597C24.5297 16.9946 23.6457 16.4548 23.3926 16.4091L23.2711 16.5599C23.2589 16.9154 23.3474 16.9634 23.5776 17.2762C24.6308 18.7086 25.635 19.3561 27.3686 19.6289C27.6308 20.4736 26.8552 21.6985 26.4121 22.3779C24.6008 20.8993 23.4704 20.2362 21.3597 19.2821C21.4982 17.7083 21.6004 16.1612 21.4711 14.5812C21.4295 14.0736 21.2605 13.3412 21.5275 12.9321C21.2798 12.3818 20.2695 13.1022 19.4947 12.6569C18.1687 11.9517 18.5083 9.32727 20.2288 9.70242C20.8211 9.83154 21.1465 10.7908 21.7859 10.7395C22.2754 10.2591 21.9165 9.35115 22.1427 8.76045C22.2914 8.37205 22.8248 7.84543 23.1198 7.43945C23.1297 6.44746 22.9892 6.08294 23.9533 5.61272Z" fill="white"/>
<path d="M28.1924 9.7627C28.5417 9.91606 28.8882 11.32 28.9665 11.7314C29.1555 12.7197 28.8633 13.0442 27.8862 13.1367C27.6994 13.0645 27.7617 13.0929 27.602 12.9568L27.6079 12.8218C27.862 12.6141 28.229 12.6761 28.3169 12.6189C29.0229 12.1595 27.8239 10.6291 28.1924 9.7627Z" fill="#1C1C1C"/>
<path d="M25.5117 13.8447C26.0515 14.001 26.4243 14.529 27.2161 14.5818L28.0269 14.6385C28.1733 14.8418 28.1235 14.7218 28.0906 15.0446C27.3252 15.1581 25.3418 14.9125 25.5117 13.8447Z" fill="#1C1C1C"/>
<path d="M25.376 8.412C25.7107 8.38314 26.5676 8.29503 26.75 8.61627C26.4431 8.89276 25.8337 8.87057 25.4162 8.90367C24.9599 9.01112 24.7058 9.12428 24.2678 8.95406L24.2495 8.84456C24.6157 8.5212 24.9109 8.49725 25.376 8.412Z" fill="#1C1C1C"/>
<path d="M19.5083 10.2607C20.2419 10.4802 21.1344 11.1669 20.7274 12.0173C20.5402 11.9734 20.3701 11.8844 20.3532 11.6658C20.3037 11.0255 19.5126 10.8648 19.3886 10.636L19.5083 10.2607Z" fill="#1C1C1C"/>
<path d="M29.1333 8.38871C29.3266 8.37531 29.52 8.36996 29.7141 8.37282C30.0964 8.38117 30.7805 8.44833 31.0464 8.73104C31.0354 8.97487 31.0764 8.86464 30.8859 9.05895C30.2612 8.86881 29.8884 8.89035 29.2578 8.83204C29.0959 8.81718 29.0857 8.74357 29.0249 8.62272L29.1333 8.38871Z" fill="#1C1C1C"/>
<path d="M29.7849 9.79785C30.5085 9.95459 30.3891 10.4236 30.1481 10.9625C29.8317 10.8925 29.8171 10.889 29.664 10.6346C29.623 10.2986 29.6962 10.1277 29.7849 9.79785Z" fill="#1C1C1C"/>
<path d="M25.5388 9.80859L25.771 9.84975C26.1372 10.1714 26.072 10.5043 25.8948 10.9219C25.5623 10.8687 25.6501 10.9309 25.4392 10.7279C25.303 10.3694 25.3931 10.1529 25.5388 9.80859Z" fill="#1C1C1C"/>
<path d="M38.6304 28.7853C38.8347 28.7448 38.8545 28.7195 39.0486 28.776C39.1767 29.0181 39.1079 43.048 39.1064 44.5782C37.6379 44.5631 36.1687 44.5626 34.7002 44.5765C35.7461 43.7348 35.1184 44.1142 35.5725 43.1145C37.1384 42.1464 36.3247 41.264 34.821 41.122C36.6711 39.481 34.3157 39.0958 32.9775 39.4291C32.0122 39.6694 30.5876 39.7442 29.5879 39.7382C29.8999 39.3657 30.0661 39.1363 30.3364 38.7336C30.6404 38.1718 31.1135 36.7913 30.0039 36.508C29.2927 36.3265 28.2644 37.6587 27.7612 38.0356C27.5151 38.2199 27.2207 38.4343 26.9248 38.6281C26.9416 35.8037 26.9424 32.9792 26.9277 30.1548C28.2204 29.966 29.593 29.8299 30.896 29.6802C30.896 30.2712 30.7092 33.1637 31.0241 33.4801C31.4336 33.89 33.529 33.4333 34.1172 33.3669L34.1179 29.2851C35.5095 29.1957 37.2226 28.9494 38.6304 28.7853Z" fill="white"/>
<path d="M11.5051 106.403C12.3428 106.373 13.0694 106.645 13.6689 107.227C13.6484 107.571 13.589 107.887 13.5339 108.225C14.6658 109.195 16.7997 110.397 17.9905 108.962C18.2858 108.607 18.4645 107.615 18.94 107.665C19.4451 108.113 19.5668 109.485 19.6541 110.164C17.7408 111.22 17.2319 111.974 16.5773 114.039C14.1036 113.908 12.162 115.091 9.72147 115.536C9.00231 113.72 8.14743 113.035 6.16154 113.183C4.99728 113.237 4.14847 113.246 3.09906 112.676C4.42064 112.21 5.04855 111.882 6.27403 111.229C7.41822 111.406 7.67662 111.858 8.70487 112.129C8.8797 112.175 8.91339 112.113 9.00597 112.036L8.98964 111.841C8.7338 111.356 7.57196 110.908 7.07399 110.729C8.48397 109.449 9.7578 111.729 10.5594 111.306C10.6902 110.444 9.07167 109.978 8.43292 109.773L9.12023 109.326C9.88686 109.453 10.4037 109.675 11.0644 110.071C11.2384 110.175 11.5669 110.385 11.752 110.433C11.9446 110.309 11.944 110.325 12.04 110.12C11.9548 109.502 10.2652 108.944 9.74799 108.77C10.436 107.813 10.428 106.858 11.5051 106.403Z" fill="white"/>
<path d="M37.6611 106.41C37.7241 106.415 37.7871 106.422 37.8501 106.429C39.038 106.573 38.9831 107.735 39.7507 108.715L39.8181 108.8C39.1223 108.952 37.8757 109.396 37.4824 110.009C37.4956 110.266 37.4611 110.14 37.6486 110.379C38.0141 110.496 38.7758 109.856 39.1823 109.697C39.5808 109.541 39.9038 109.45 40.3139 109.346C40.5835 109.461 40.8237 109.612 41.0771 109.76C40.437 109.938 39.3032 110.413 38.915 110.956C38.8923 111.201 38.8637 111.09 39.0168 111.296C39.0864 111.325 39.1552 111.353 39.2241 111.382C39.4643 111.261 39.8986 111.036 40.1125 110.915C40.7058 110.578 41.2573 110.453 41.9128 110.286L42.4731 110.751C41.9465 110.929 40.5615 111.388 40.4846 111.987C40.9189 112.57 41.8066 111.613 42.3874 111.473C42.6774 111.403 42.9455 111.31 43.2539 111.246C44.3942 111.847 45.2087 112.231 46.4128 112.683C45.4519 113.128 45.0007 113.173 43.9687 113.21C41.4528 113.038 40.954 113.181 39.7675 115.52C37.2275 115.027 35.6066 113.994 32.9677 114.01C32.2683 111.953 31.7834 111.212 29.8579 110.146C29.9633 109.642 30.1113 107.835 30.6972 107.74C30.9946 107.94 31.2443 108.489 31.4685 108.805C32.6601 110.482 34.7263 109.22 35.9736 108.292L35.9318 107.93C35.789 106.699 36.6804 106.617 37.6611 106.41Z" fill="white"/>
<path d="M17.8936 73.1934C17.9612 73.55 17.728 75.05 17.6638 75.5217C17.394 77.5081 17.1303 79.5032 16.808 81.4807C16.7546 81.8074 16.5699 82.3999 16.3487 82.6504C15.8171 83.2195 14.6008 83.4158 13.8355 83.3645C12.6704 83.2869 11.3009 83.3674 10.4492 82.4783C10.2458 82.1282 10.0499 81.6008 10.068 81.2061C10.1653 79.0908 10.7602 76.4146 11.1658 74.3374C12.3838 74.645 15.5905 75.1973 16.7998 74.8106C17.3779 74.6253 17.6617 73.7361 17.8936 73.1934Z" fill="white"/>
<path d="M29.8047 37.0781C30.8637 37.6072 28.8701 39.2122 28.7573 39.9912C29.226 41.2049 34.0615 39.5382 34.8144 40.063L34.7815 40.2149C33.6565 41.2872 31.6884 41.1965 30.4682 41.6145C30.2946 41.7962 30.3327 41.6939 30.3181 41.9179C30.8696 42.5153 34.5464 41.7122 35.4553 41.8083C35.6662 41.9854 35.6135 41.8791 35.6582 42.115C35.1843 43.2497 30.844 42.9599 30.3584 43.199C30.2295 43.4415 30.2492 43.3177 30.2866 43.5815C30.6484 43.8702 32.3088 43.7237 32.8222 43.6694C33.3847 43.6308 34.4819 43.3087 34.8335 43.4981C34.7529 43.7513 34.5127 43.8043 34.3427 43.9351C33.3217 44.721 30.9026 44.2883 30.0683 44.7537L30.0354 44.9114C30.5986 45.4212 32.6201 45.1029 33.3774 44.9948C30.729 46.3567 28.1596 45.759 25.4065 45.0486C25.3896 43.6411 25.2058 42.4281 24.9809 41.0481C25.7829 40.5965 26.0971 40.0111 26.6853 39.6363C27.885 38.872 28.7383 37.9101 29.8047 37.0781Z" fill="white"/>
<path d="M11.9508 70.0977C13.9138 70.4221 16.1152 70.7693 18.0887 70.9619C17.7816 71.7427 17.1148 73.5774 16.6383 74.2058C15.8082 74.4651 11.1098 73.9861 10.6016 73.3972C10.5618 72.8955 11.6662 70.6814 11.9508 70.0977Z" fill="white"/>
<path d="M37.9326 45.2367L47.9741 45.2314C47.4533 45.6754 46.8689 46.0543 46.2807 46.4002C43.9538 47.7316 40.8938 48.4906 38.238 47.8857C38.1523 47.0009 38.0505 46.1178 37.9326 45.2367Z" fill="white"/>
<path d="M36.7212 105.111L36.7988 105.107C36.9285 105.279 36.9014 105.622 36.908 105.858C35.6782 106.254 35.1406 106.624 35.2856 107.956C34.3372 108.612 33.1309 109.479 32.0989 108.579C31.3181 107.167 31.4089 106.988 31.3306 105.392C33.3792 105.461 34.6909 105.359 36.7212 105.111Z" fill="white"/>
<path d="M12.7473 105.164C14.5607 105.452 16.3995 105.547 18.233 105.447C18.0671 107.008 18.3589 106.909 17.5388 108.399C16.6534 109.736 14.276 108.338 14.2296 107.614C14.1466 106.318 13.8231 106.312 12.6826 105.847C12.7062 105.62 12.7278 105.392 12.7473 105.164Z" fill="white"/>
<path d="M2.38476 112.96C3.67192 113.842 4.74191 113.925 6.26022 113.819C7.89608 113.705 8.36396 114.274 9.06386 115.623L7.95607 115.723C6.78178 115.849 4.47055 115.839 3.34474 115.645C2.48591 114.612 2.60222 114.298 1.1362 114.111C1.58159 113.574 1.83178 113.361 2.38476 112.96Z" fill="#B5FE28"/>
<path d="M47.1101 112.988C47.6177 113.174 48.0769 113.711 48.4197 114.107C46.9621 114.235 47.0998 114.653 46.2312 115.57L46.1711 115.632C45.1128 115.884 43.0085 115.807 41.8843 115.713C41.4477 115.696 40.9109 115.635 40.4678 115.595C40.7475 115.103 41.0156 114.597 41.469 114.239C42.7082 113.261 44.8689 114.527 47.1101 112.988Z" fill="#B5FE28"/>
<path d="M38.938 70.8398C39.283 71.1599 40.0718 73.0686 40.2776 73.5586C39.9795 73.6553 39.5862 73.6926 39.6074 74.0867C39.7319 76.3711 41.1917 79.9116 40.5127 82.0583C40.3347 82.437 40.1589 82.6802 39.9282 83.0251C39.658 79.1646 39.3994 74.6323 38.938 70.8398Z" fill="white"/>
<path d="M45.457 29.3467C46.1946 29.4485 46.9585 29.5121 47.7019 29.5839L47.74 33.1475C47.5254 32.9449 47.3957 32.8512 47.1548 32.6763C46.9812 32.8603 46.8054 33.1033 46.6479 33.306C46.4634 33.0764 46.2033 32.8178 45.9968 32.6002C45.8174 32.7313 45.6123 32.9027 45.435 33.0438C45.4541 31.8115 45.4614 30.5791 45.457 29.3467Z" fill="#F2E11F"/>
<path d="M29.801 110.851C30.3613 111.144 30.9985 111.675 31.3779 112.186C31.6364 112.533 32.2641 113.662 32.2092 114.034L32.0532 114.06C31.0014 113.976 30.354 113.834 29.519 113.139C29.5988 112.343 29.6743 111.644 29.801 110.851Z" fill="#B5FE28"/>
<path d="M19.6599 110.925C19.918 111.154 19.9919 112.702 20.0395 113.154C19.1711 113.827 18.613 113.939 17.5697 114.041C17.4201 114.05 17.4795 114.055 17.3341 113.988C17.3214 113.925 17.3011 113.852 17.322 113.794C17.786 112.5 18.5421 111.574 19.6599 110.925Z" fill="#B5FE28"/>
<path d="M51.431 38.0312C52.2249 38.066 54.0831 38.738 54.5665 39.46C54.7467 39.7282 54.6427 40.0371 54.565 40.3197C53.9974 40.1125 51.6346 39.1394 51.4097 38.6051C51.3153 38.3791 51.3651 38.2461 51.431 38.0312Z" fill="white"/>
<path d="M51.5569 39.7871C52.2241 39.8465 53.2341 40.3913 53.8567 40.6919C54.5891 41.0456 54.4748 41.3396 54.1372 41.9382L54.0288 41.8977C53.3593 41.6424 51.636 40.9296 51.3554 40.2896C51.3701 39.9664 51.3481 40.0833 51.5569 39.7871Z" fill="white"/>
<path d="M52.009 36.6436C52.6623 36.7774 55.2338 37.3416 54.3798 38.4426C53.7192 38.106 52.1855 37.6197 51.9006 37.1604C51.8647 36.8439 51.861 36.9614 52.009 36.6436Z" fill="white"/>
<path d="M51.8605 41.6836C52.4494 41.7887 53.6667 42.1575 53.8315 42.8142C53.8036 43.0831 53.7407 43.1303 53.5781 43.3436L53.3532 43.3819C52.7475 42.87 51.6562 42.5985 51.8605 41.6836Z" fill="white"/>
<path d="M58.9052 24.0371C59.1704 24.0404 59.1909 24.0998 59.2685 24.315C59.1418 24.8997 56.1462 27.48 55.5119 28.0388C55.2563 27.9942 55.2175 27.9588 55.0849 27.7624C55.093 27.6992 55.1018 27.636 55.1105 27.5729C56.1228 26.5365 57.8601 24.9091 58.9052 24.0371Z" fill="#1BC3D8"/>
<path d="M57.8925 29.2969C58.1005 29.2569 58.1129 29.2686 58.3282 29.2913C58.5436 29.4239 58.6622 29.4776 58.5802 29.7325C58.2045 30.0478 57.0047 30.0633 56.3492 30.1915C56.254 30.2095 56.0856 30.2066 55.983 30.209C55.734 30.0687 55.6153 30.0091 55.6791 29.7315C56.0299 29.4194 57.3688 29.3544 57.8925 29.2969Z" fill="#1BC3D8"/>
<path d="M53.824 24.3203C54.1177 24.3813 54.0936 24.338 54.2247 24.5556C54.2825 25.2128 53.8738 26.702 53.5699 27.292C53.337 27.2173 53.3267 27.2268 53.129 27.0664C53.044 26.6432 53.5926 24.7493 53.824 24.3203Z" fill="#1BC3D8"/>
</svg>
